<?xml version="1.0" encoding="utf-8"?>
<!-- Generator: Adobe Illustrator 18.1.1, SVG Export Plug-In . SVG Version: 6.00 Build 0)  -->
<svg version="1.1" id="Layer_1" xmlns="http://www.w3.org/2000/svg" xmlns:xlink="http://www.w3.org/1999/xlink" x="0px" y="0px"
	 viewBox="0 0 500 500" enable-background="new 0 0 500 500" xml:space="preserve">
<path fill="#6C509D" d="M251.5,452.6c-92.4-7.8-158.8-46-191.4-127.7C27.8,244,43.5,167.4,106.8,107.8
	c129-121.2,305.6-42.8,341.7,81.4c8.5,29.4,12.4,59.1-1.6,88.3c-19.1,39.8-68.3,59.5-104.8,41.7c-4.9-2.4-9.1-6.2-13.8-8.8
	c-6.8-3.8-13.5-8.3-20.9-10.3c-17.4-4.6-35.4,4.2-42.5,19.4c-7.6,16.5-2.8,34.8,12.7,45.8c6.4,4.5,13.7,7.7,20.2,12
	c24.7,16.3,23.2,52.1-3.8,64C279.1,448,262,450,251.5,452.6z M218.2,165c17.9-0.1,32.9-14.6,32.8-31.6
	c-0.1-18.5-15.8-34.7-33.2-34.2c-18,0.5-32.7,15.8-32.3,33.7C185.9,150,201.3,165.1,218.2,165z M377.6,203.4
	c-16.6,0-29.6,13.6-29.8,31.2c-0.2,16.1,13.7,30,29.8,29.8c16.5-0.3,30-13.7,30.1-29.7C407.8,217.9,393.7,203.4,377.6,203.4z
	 M326.1,173.7c15.8-0.1,30.3-13.6,30.5-28.4c0.2-14.8-13.3-28.4-28.6-28.7c-15.1-0.3-28.9,14.1-28.7,29.9
	C299.5,161.6,311.4,173.7,326.1,173.7z M153.7,286.5c-0.2-15.2-13-27.8-27.8-27.3c-15.4,0.5-28.6,13.9-28.5,28.7
	c0.1,15.7,13.1,29,28.1,28.8C140.8,316.5,153.9,302.4,153.7,286.5z M162.7,196.5c-0.3-14.5-14.1-27.6-28.5-27.1
	c-14.7,0.6-27.6,14.3-27,28.7c0.5,13.8,14.1,26.6,28,26.4C149.9,224.4,163,211.1,162.7,196.5z M177.8,382.2
	c14.2,0.1,27.3-12.5,27.5-26.6c0.2-13.7-12.2-26.7-25.7-27c-14.5-0.3-28.6,13.2-28.3,27.1C151.6,369.1,164.5,382,177.8,382.2z"/>
</svg>
