<?xml version="1.0" encoding="utf-8"?>
<!-- Generator: Adobe Illustrator 18.1.1, SVG Export Plug-In . SVG Version: 6.00 Build 0)  -->
<svg version="1.1" id="Layer_1" xmlns="http://www.w3.org/2000/svg" xmlns:xlink="http://www.w3.org/1999/xlink" x="0px" y="0px"
	 viewBox="0 0 500 500" enable-background="new 0 0 500 500" xml:space="preserve">
<path fill="#00C56C" d="M243.1,375.1c-32.4,0-64.9,0.1-97.3,0c-26.9-0.1-47.8-19.7-48.2-46.6c-0.6-39.2-0.8-78.5-0.1-117.7
	c0.6-33,22-53.2,54.8-53.3c62.6-0.1,125.3-0.1,187.9,0c31.2,0,51.6,20.5,51.7,51.9c0.1,37.7,0,75.5-0.1,113.2
	c-0.1,32.2-21,52.5-53.5,52.6c-15.8,0-31.7,0-47.5,0C274.8,374.9,259,375,243.1,375.1C243.1,375,243.1,375,243.1,375.1z
	 M337.5,250.6c-0.2-15.6-13.4-29.1-28.7-29.2c-16.2-0.2-28.8,12.8-28.8,29.7c0,15.6,13.4,28.8,28.9,28.4
	C325,279.1,337.7,266.3,337.5,250.6z M180.5,279.4c15.5-0.3,28.5-13.7,28.3-29.3c-0.3-16.3-12.9-29.2-28.4-29
	c-16.5,0.1-29.4,14.1-28.7,31.1C152.2,267.4,165.2,279.6,180.5,279.4z M243.9,333.9c10.4-2.7,21.2-4.5,31.2-8.3
	c7.3-2.8,11-9.1,6.7-17.4c-4-7.7-10-8.1-17.1-4.6c-13.7,6.8-27.4,7.1-41-0.3c-8.7-4.7-14.5-0.6-18.4,6.9c-4.2,8.1,0.7,13.5,7.5,15.9
	C222.6,329.4,233,331.2,243.9,333.9z"/>
<path fill="#00C56C" d="M243,451.3c-24.1,0-48.3-0.1-72.4,0.1c-7.6,0.1-14.8-0.1-17.3-8.9c-2.8-9.5-3.3-20.4,5.9-25.6
	c17.9-10.1,33-25.5,57.5-22.3c22.6,3,45.9,0.6,68.9,0.4c6.7-0.1,12,0.7,16.5,7c2.7,3.8,9.2,4.7,13.4,7.6c6.3,4.4,14.1,8.4,17.6,14.7
	c8.3,15,0.2,26.9-16.6,26.9C292.1,451.3,267.5,451.3,243,451.3C243,451.3,243,451.3,243,451.3z"/>
<path fill="#00C56C" d="M76.4,268.2c0,14.7,0.2,29.4-0.1,44c-0.2,11.9-6.5,16.2-17.7,12.1c-13.6-5-22-14.9-22.7-29.4
	c-0.8-16.9-0.6-33.9-0.1-50.8c0.4-14.4,10.6-26.4,24.5-30.5c10.6-3.1,15.9,0.7,16,11.7C76.5,239.6,76.4,253.9,76.4,268.2z"/>
<path fill="#00C56C" d="M411.1,267.9c0-14-0.1-27.9,0-41.9c0.1-11.5,5.5-15.4,16.7-12.1c12.7,3.7,23.4,16.1,24,30
	c0.7,16.9,0.6,34,0,50.9c-0.5,13.9-10.8,25.8-24,29.8c-10.2,3.1-16.4-1-16.7-11.5c-0.3-15.1-0.1-30.2-0.1-45.3
	C411.1,267.9,411.1,267.9,411.1,267.9z"/>
<path fill="#00C56C" d="M244.9,140.5c-2.3,0-4.5,0-6.8,0c-16.2-0.1-15.9-0.3-12.1-15.4c0.9-3.7-0.9-9.4-3.4-12.6
	c-10.2-13-10.3-29.9,0.6-41.1c10.2-10.4,29.2-11.2,40.3-1.6c12.2,10.5,12.9,27.4,2.8,41.7c-2.6,3.7-4,9.8-3,14.1
	c3.2,14.9,3.7,14.8-11.7,14.9C249.4,140.5,247.2,140.5,244.9,140.5z"/>
</svg>
