<?xml version="1.0" encoding="utf-8"?>
<!-- Generator: Adobe Illustrator 18.1.1, SVG Export Plug-In . SVG Version: 6.00 Build 0)  -->
<svg version="1.1" id="Layer_1" xmlns="http://www.w3.org/2000/svg" xmlns:xlink="http://www.w3.org/1999/xlink" x="0px" y="0px"
	 viewBox="0 0 500 500" enable-background="new 0 0 500 500" xml:space="preserve">
<path fill="#FF253E" d="M250.8,120.3c23.1-23.4,51.3-37,83.9-41.1c28.9-3.6,57.8-3.1,85.8,6.2c25.7,8.5,36.4,23.6,36.5,50.7
	c0,79.6,0,159.3,0,238.9c0,22.3-13.5,33.5-35.1,27.7c-40.1-10.8-80.2-13.3-120.1-0.2c-11.4,3.7-22.3,9.3-32.9,15.1
	c-11.7,6.4-23.7,7.8-34.4,0.7c-41-27.3-85.6-28.4-131.7-19.9c-8.2,1.5-16.3,4.1-24.5,5.8c-20.3,4.2-34.9-7.5-34.9-28.2
	C43.2,295.1,43,214.2,43,133.3c0-23.9,10.9-40.5,35.4-47.5c50.6-14.4,100.3-12.6,146.8,15.3C234,106.5,241.8,113.5,250.8,120.3z
	 M232,370.5c0.5-3.8,0.9-5.5,0.9-7.1c0.1-67.9,0.3-135.7-0.1-203.6c0-4.6-3.4-10.2-6.9-13.7c-34.2-33.9-93.9-44.4-138.1-25
	c-7.2,3.2-9.7,7.9-9.6,15.6c0.1,71.2,0,142.4,0,213.7c0,3.2,0.7,6.4,1.3,11.7C131.7,342.9,181.7,350.5,232,370.5z M419.3,361.1
	c1.2-2.4,1.8-3.2,1.8-3.9c0.2-74.5,0.5-149.1,0.2-223.6c0-4-4.8-10.3-8.7-11.8c-48.6-18.5-93.8-12.4-134.1,21.1
	c-5.5,4.6-9.8,14-9.9,21.2c-0.7,64.1-0.4,128.2-0.3,192.2c0,4.4,0.4,8.7,0.8,15C319.2,348.9,369,344.7,419.3,361.1z"/>
</svg>
