<?xml version="1.0" encoding="utf-8"?>
<!-- Generator: Adobe Illustrator 18.1.1, SVG Export Plug-In . SVG Version: 6.00 Build 0)  -->
<svg version="1.1" id="Layer_1" xmlns="http://www.w3.org/2000/svg" xmlns:xlink="http://www.w3.org/1999/xlink" x="0px" y="0px"
	 viewBox="0 0 500 500" enable-background="new 0 0 500 500" xml:space="preserve">
<path fill="#4F80FF" d="M253.4,310.2c-12.9,0-25.9-0.7-38.7,0.2c-12.9,0.9-23,7.3-30.2,18.5c-9,13.8-18,27.7-28.4,40.4
	c-15.4,19-34.9,30.9-60.8,26.6c-32.6-5.4-54.7-34.3-50.5-69.6c6.9-58.8,18-116.9,38.3-172.8c8.8-24.2,21.9-45.8,46.7-57
	c23.8-10.7,47.7-11,70.2,3.8c9.8,6.5,20,9.9,31.8,9.7c14.5-0.3,29.2,0.9,43.6-0.5c9.6-0.9,20-3.5,28.1-8.5
	c36.4-22.3,80.1-14.3,102.3,22.5c10.7,17.7,19.2,37.8,23.7,57.9c10.6,47.5,19.6,95.6,26.6,143.8c5.7,39.1-24,72.2-61,71.6
	c-19.4-0.3-35-9.3-46.5-24.4c-10.4-13.6-19.6-28.1-28.9-42.5c-9-14-21.5-20.9-38.1-20.8c-9.4,0.1-18.8,0-28.1,0
	C253.4,309.6,253.4,309.9,253.4,310.2z M176.8,221.9c12.5-3.4,31.9,5.2,31.3-16.9c-0.5-20.6-18.9-13.2-31.4-16.1
	c0-6.2,0.3-12.3-0.1-18.3c-0.6-8.9-7.3-14.6-16.3-14.2c-8.4,0.4-12.8,5.2-13.1,14.6c-0.2,6,0,12,0,19.1c-7.4,0-13.2-0.6-18.9,0.1
	c-8.9,1.1-13,7.6-12.3,17.7c0.6,8.7,5.9,12.5,14,12.8c5.3,0.2,10.7,0,15.4,0c0.8,2.4,1.1,3,1.1,3.7c0.1,4.8,0.2,9.7,0.4,14.5
	c0.3,9.2,4.9,14,13.4,14.3c9.4,0.4,15.8-4.9,16.4-13.9C177.1,233.7,176.8,227.9,176.8,221.9z M375.1,222.3
	c7.4,0.7,15.7-5.8,16.6-13.1c0.9-7.5-5.4-15.4-13.1-16.4c-8.6-1.1-16.2,4.9-16.7,13.4C361.2,214.2,367.2,221.5,375.1,222.3z
	 M354.2,169.4c0-7.7-6.5-14.4-14.1-14.6c-8-0.2-15.1,6.5-15.2,14.5c-0.1,7.9,6.9,14.8,15,14.5C347.5,183.6,354.2,176.8,354.2,169.4z
	 M315.4,207.6c0.3-7.1-6.5-14.9-13.4-15.4c-7.4-0.5-15.2,6.6-15.5,14.2c-0.3,7.9,5.5,14.5,13.2,15.1
	C307.5,222,315.1,215.4,315.4,207.6z M354.2,245.7c-0.3-7.7-7.9-14.8-15.4-14.4c-7.5,0.4-14.4,8.2-14,15.9c0.4,7.1,7,13.1,14.3,13.1
	C347.2,260.2,354.4,253.3,354.2,245.7z"/>
</svg>
