<?xml version="1.0" encoding="utf-8"?>
<!-- Generator: Adobe Illustrator 18.1.1, SVG Export Plug-In . SVG Version: 6.00 Build 0)  -->
<svg version="1.1" id="Layer_1" xmlns="http://www.w3.org/2000/svg" xmlns:xlink="http://www.w3.org/1999/xlink" x="0px" y="0px"
	 viewBox="0 0 500 500" enable-background="new 0 0 500 500" xml:space="preserve">
<path fill="#FF9500" stroke="#A97C50" stroke-width="8" stroke-miterlimit="10" d="M246.1,446.1c-33.4-2.9-65.9-4.2-97.8-8.8
	c-52.4-7.6-86.2-43.3-91.5-96c-6.2-61-6.7-122.1,1.5-183c7.2-52.9,43.7-90.7,97.6-98c63.8-8.6,127.9-8.7,191.6,1.4
	c54.3,8.6,88.5,44.1,95.6,98.3c7.9,60.2,7.2,120.6,1.1,180.8c-5.3,52.3-42.1,89.5-95.5,96.5C314.4,441.9,279.8,443.3,246.1,446.1z
	 M261.4,340.3c37.3-14.5,73.5-15.5,110.2-6.7c8.4,2,8.9-3.4,8.9-9.7c-0.1-49-0.3-98,0-146.9c0.1-11.3-5.8-17.4-15.1-20.4
	c-26-8.5-52.1-8.9-77.6,2.4c-17.3,7.7-27.8,18.5-27,40.3C262.5,245.6,261.4,292,261.4,340.3z M236.9,341.3c0-5.2,0-8.1,0-11
	c-0.1-46.4-0.7-92.7-0.1-139.1c0.1-11.8-4-19.8-13.3-25.7c-29-18.6-59.8-19.4-90.6-6.6c-6.5,2.7-13.9,13-14.1,19.9
	c-1.3,48.9-0.7,97.8-0.9,146.8c0,7.5,2.9,9.4,10.3,8c13-2.4,26.1-4.4,39.2-5.3C190.8,326.7,213.5,330.9,236.9,341.3z"/>
</svg>
