<?xml version="1.0" encoding="utf-8"?>
<!-- Generator: Adobe Illustrator 18.1.1, SVG Export Plug-In . SVG Version: 6.00 Build 0)  -->
<svg version="1.1" id="Layer_1" xmlns="http://www.w3.org/2000/svg" xmlns:xlink="http://www.w3.org/1999/xlink" x="0px" y="0px"
	 viewBox="0 0 612 792" enable-background="new 0 0 612 792" xml:space="preserve">
<g>
	<path fill="#642C09" d="M199.1,385.2c-0.3,0-0.4,0.2-0.5,0.4c-3.5,5.6-8.8,8.7-15,10.5c-4.9,1.3-9.6,2.8-14.2,5
		c-4.1,2-8.1,4.2-11.3,7.6c-2.4,2.5-4.2,5.5-5,9c-0.5,2.2-0.7,4.3-0.8,6.5c-0.1,6.6,0.4,13.2,1,19.8c0.4,4.1,0.8,8.1,1.4,12.1
		c1.1,7.5,2.2,15.1,4.8,22.3c1,2.7,2.2,5.3,3.9,7.8c1.3,1.9,3,3.2,5,4.3c2.3,1.3,4.8,2.4,6.9,4c1.2,0.9,2.3,1.8,3.1,3.1
		c1.1,1.7,0.6,3-1.4,3.3c-3.6,0.7-7.3,0.6-10.9,0.3c-1.6-0.2-3.3-0.4-4.9-0.8c-2.1-0.4-4.1-0.1-6.1,0.1c-1.2,0.2-2.5,0.1-3.8,0.1
		c0.4,0.8,0.7,1.4,1,2.1c1,2.3,0.3,3.4-2.2,3.7c-3,0.3-6,0.1-9-0.4c-4-0.6-7.8-1.9-11.5-3.4c-2-0.8-3.9-0.9-5.9-0.2
		c-7.8,2.6-15.8,4.1-24,4.2c-1.1,0-2.3-0.1-3.4-0.3c-1.3-0.3-1.8-1-1.5-2.4c0.2-1,0.8-1.8,1.3-2.7c-1.9-0.4-3.7-0.2-5.5,0.2
		c-4.3,0.8-8.6,1.1-12.9,0.5c-0.3,0-0.5-0.1-0.8-0.1c-2-0.4-2.4-1.5-1.3-3.2c1-1.6,2.6-2.8,4.2-3.8c1.3-0.8,2.6-1.6,4-2.4
		c4.2-2.2,6.7-5.8,8.2-10.1c1.7-4.8,2.6-9.7,3.2-14.7c1.1-8.5,1.8-16.9,2.1-25.4c0.2-6.2,0.3-12.5-0.3-18.7
		c-0.7-8-4.9-13.9-11.6-18.1c-4.3-2.7-9-4.1-14-4.7c-3.5-0.4-7.1-0.8-10.5-2c-3.7-1.2-6.8-3.2-9.5-5.9c-0.4-0.4-0.8-0.8-1.2-1.2
		c-0.3-0.4-0.5-0.9-1.1-1c0-0.2-0.2-0.4-0.3-0.5c-0.7-0.9-1.5-1.8-2.1-2.8c0.5-0.4,1.1-0.2,1.7-0.2c0.4,1,1.2,1.6,1.9,2.4
		c2.9,3.4,6.3,6.1,10.6,7.6c3.6,1.2,7.3,1.6,11,2.1c4.1,0.5,8,1.6,11.6,3.4c3.6,1.7,6.8,4.1,9.4,7.2c2.3,2.8,4,5.8,5,9.3
		c1,3.8,1,7.7,1.2,11.5c0.2,6.2,0,12.4-0.5,18.6c-0.3,3.1-0.4,6.2-0.7,9.4c-0.4,4.2-0.8,8.4-1.5,12.5c-0.7,4.2-1.5,8.5-3.1,12.5
		c-1,2.5-2.2,4.9-4.1,6.9c-2.1,2.3-4.8,3.6-7.4,5.1c-1.7,1-3.4,2.1-4.7,3.7c-0.2,0.2-0.4,0.4-0.3,0.7c0.1,0.4,0.4,0.2,0.7,0.3
		c1.2,0.3,2.4,0.2,3.6,0.3c3.1,0.2,6.3-0.2,9.3-0.8c1.6-0.3,3.1-0.6,4.8-0.3c1,0.2,2.1,0.3,3-0.7c1.5-1.7,3.4-3,5.4-4.1
		c1.2-0.7,2.4-1.5,3.2-2.7c1.6-2.6,2.7-5.4,3.5-8.3c0.8-2.6,1.3-5.3,1.7-8.1c0.1,2.3,0.2,4.7-0.2,7c-0.6,3.4-1.4,6.7-3.2,9.6
		c-0.3,0.5-0.1,0.6,0.4,0.6c0.6,0,1.1,0,1.7,0c-0.1,0.4-0.3,0.4-0.4,0.5c-2.3,0.8-4.5,2-6.6,3.2c-3,1.8-5.4,4.1-7.1,7.2
		c-0.4,0.8-0.3,1.1,0.6,1.2c2,0.2,4,0.2,6,0c2.4-0.3,4.7-0.5,7.1-0.9c4.4-0.8,8.8-1.7,13-3.2c2.3-0.8,4.6-0.6,6.9,0.3
		c0.8,0.4,1.7,0.7,2.6,1c3.6,1.3,7.4,2.3,11.2,2.7c2,0.2,4,0.1,5.9,0c1,0,1.1-0.2,0.7-1.1c-0.9-2.2-2.3-4-3.9-5.7
		c-1.7-1.8-3.8-3.2-5.7-4.7c-2.1-1.6-3.8-3.5-5.1-5.8c-2.4-4.3-3.1-9-3.2-13.9c0-1.6,0.2-3.2,0.2-4.7c0-0.7,0.1-1.3,0.1-2.2
		c0.4,0.5,0.3,0.8,0.3,1.2c0.1,1.2,0.1,2.4,0.2,3.7c0.3,2.9,0.7,5.8,1.4,8.6c1.2,5,3.4,9.2,7.7,12.3c2.6,1.8,4.9,3.9,6.9,6.3
		c0.2,0.2,0.3,0.4,0.7,0.5c1.9,0.1,3.8,0,5.7-0.3c1.7-0.3,3.4-0.3,5.1,0c3.9,0.8,7.8,1.2,11.7,1c1.2-0.1,2.3-0.1,3.5-0.4
		c0.5-0.1,0.7-0.3,0.3-0.8c-0.5-0.8-1.2-1.4-1.9-2c-2.3-1.9-5.1-3.1-7.6-4.5c-2.2-1.2-4.1-2.8-5.5-4.8c-1.2-1.8-2.2-3.7-3.1-5.8
		c-2-4.6-3.2-9.5-4.1-14.4c-0.7-3.6-1.3-7.2-1.7-10.8c-0.4-3-0.8-6-1.1-9c-0.3-2.4-0.3-4.8-0.6-7.1c-0.4-4.2-0.6-8.4-0.7-12.6
		c0-1.3,0-2.6,0.1-3.9c0.3-2.9,0.4-5.8,1.6-8.6c1.2-2.8,2.8-5.4,4.9-7.5c2.5-2.5,5.5-4.4,8.7-6.2c5.8-3.2,12.2-5.1,18.5-6.9
		c2.9-0.8,5.6-2,8-3.9c2.5-2,4.4-4.4,6-7.1c0.8-1.4,1.7-2.9,2.6-4.3c0.5,0.4,0.6,0.9,0.7,1.5c-0.6,1.3-1.6,2.4-2,3.8
		C199.3,384.2,199.2,384.7,199.1,385.2z"/>
	<path fill="#285A0B" d="M49.3,390.2c0.6,0.1,0.8,0.6,1.1,1c-2.9,2.3-7.1,2.4-10,0.1c-0.4-0.3-0.7-0.3-1.1,0
		c-5.7,4.2-13.6,4.4-19,0.5c-3.9-2.9-5.8-6.8-5-11.7c0.8-4.7,3.5-8.1,8.1-9.7c1.2-0.4,1.6-0.8,1.6-2c0.1-2.3,1.4-4,3.1-5.5
		c2.4-2.1,5.3-3.1,8.4-3.2c0.4,0,0.7,0,1-0.3c1.7-2.2,4.1-3,6.7-3.3c0.2,0,0.4,0,0.7-0.1c-0.1-0.4-0.3-0.7-0.4-1.1
		c-0.1-0.7-0.4-0.6-0.9-0.5c-3,0.8-6,0.7-8.9-0.6c-3.6-1.7-5.4-4.7-5.9-8.5c-0.5-3.9,0.7-7.4,2.9-10.6c3.8-5.6,9-8.9,15.8-9.4
		c1.5-0.1,2.9,0.1,4.5,0.3c-0.5-2.2-0.7-4.2-0.2-6.4c1-4.7,3.7-8.3,7.7-10.9c7.1-4.6,14.8-5.7,23-3.5c1.2,0.3,2.3,0.9,3.4,1.5
		c0.3,0.2,0.5,0.3,0.6-0.2c0.6-4.6,3-8.2,6.5-10.9c7.9-6.3,16.8-8.4,26.7-6c1.8,0.4,3.4,1.3,4.9,2.3c0.4,0.3,0.7,0.3,1.1,0
		c4.7-2.8,9.7-3.7,15-3c4.6,0.6,8.7,2.4,12.3,5.3c3.2,2.7,5.1,6,5.6,10.2c0,0.2,0,0.3,0.1,0.6c1.5-1.2,3-2.2,4.6-3
		c6.6-3.2,13.3-3.7,20.1-0.6c3.7,1.7,6.5,4.2,8,8.1c0.5,1.3,0.7,2.7,0.7,4c0,0.5,0.1,0.6,0.6,0.5c9-1.7,17.5,4,19.2,13
		c0.5,2.5,0.3,4.6-0.9,8.6c0.4,0,0.8,0,1.1,0c4.9,0,9.3,3.5,10.4,8.1c1.2,5.2-2.5,10.1-7.8,10.5c-0.1,0-0.2,0-0.3,0
		c-1.7-0.3-3,0-3.2,2.1c1.5-0.1,3.1,0,4.6,0.6c2.6,0.9,4.8,2.3,6.3,4.6c0.9,1.3,1.5,2.8,1.4,4.5c0,0.3-0.1,0.6,0.4,0.7
		c4.8,0.9,7.4,4.1,8.7,8.6c1.5,5.2-0.1,10.8-4,13.9c-4,3.1-8.3,3.3-12.9,1.3c-0.4-0.2-0.7-0.2-1.1,0.1c-3.3,2.2-7.8,2.2-11,0.1
		c-1.6-1.1-2.7-2.5-2.7-4.6c0-0.4-0.1-0.5-0.4-0.5c-0.4,0-0.8,0-1.2-0.3c0.1-0.5,0.2-1,0.7-1.3c0.7,0,1.3,0.3,2,0.1
		c0.4-0.1,0.7,0.1,0.5,0.7c-0.3,1-0.1,1.9,0.3,2.8c1.2,2.1,3.2,2.8,5.4,3c2.3,0.2,4.4-0.5,6.2-1.8c0.3-0.2,0.6-0.4,1-0.1
		c2.5,1.5,5.3,1.7,8.1,1.1c2.8-0.7,5-2.3,6.4-4.9c0.8-1.5,1.4-3.1,1.3-4.9c0.3-2-0.1-3.9-0.9-5.7c-1.4-3.5-4-5.7-7.8-6.3
		c-0.7-0.1-0.9-0.3-0.8-1c0.2-1.9-0.3-3.6-1.5-5c-2.8-3.2-6.3-4.5-10.5-4c-0.5,0.1-0.9,0-1.1-0.5c-1-2-2.7-3.1-4.6-4
		c1.1-1.2,1.3-1.3,2.6-0.4c0.7,0.5,1.4,1,1.9,1.6c0.3,0.3,0.5,1,0.9,0.9c0.5-0.1,0.6-0.8,0.7-1.2c0.1-0.3,0.1-0.5,0.1-0.8
		c-0.1-0.8,0.3-1,1-0.9c1.4,0.2,2.8,0.2,4.2-0.2c3.8-1,5.6-3.9,5.4-7.1c-0.2-3-1.8-5.4-4.5-6.9c-2.6-1.4-5.3-1.5-8.2-1
		c0-0.1,0.1-0.2,0.1-0.3c1.5-2.8,2.3-5.7,1.9-8.9c-0.8-5.9-4.1-9.9-9.6-12.1c-3.1-1.2-6.3-1.1-9.4-0.4c-0.5,0.1-0.9,0.4-0.8-0.6
		c0.3-3.1-0.5-5.9-2.5-8.3c-3.1-3.7-7.2-5.4-11.8-5.8c-6.2-0.6-11.7,1.3-16.7,5.1c-0.8,0.6-1.6,1.2-2.5,1.9c0-1.5,0.2-2.9,0-4.2
		c-0.6-3.8-2.6-6.9-5.7-9.2c-5.3-3.9-11.2-5.2-17.7-4.2c-2.9,0.4-5.6,1.4-8,3c-0.5,0.3-0.8,0.1-1.1-0.2c-3.3-2.3-7-3.1-10.9-3.2
		c-2.1-0.2-4.2,0-6.3,0.4c-4.9,1-9.3,2.8-13.1,6c-1.9,1.6-3.5,3.4-4.5,5.7c-1.1,1.9-1.7,4-1.8,6.1c0,0.7-0.1,0.9-0.8,0.4
		c-3.5-2.2-7.4-3.2-11.6-3.1c-1.2,0-2.4,0-3.7,0.1c-4.4,0.6-8.5,1.9-12,4.5c-5.2,3.9-7.8,9.8-5.7,16.5c0.2,0.6,0.1,0.8-0.6,0.6
		c-2.4-0.6-4.8-0.7-7.2-0.3c-4.2,0.6-7.8,2.6-10.7,5.7c-3.4,3.7-5.5,7.8-4.7,12.9c0.4,2.8,1.7,5.1,4.3,6.5c3.2,1.7,6.6,1.5,10,0.4
		c0.3-0.1,0.6-0.4,0.8-0.1c0.3,0.2,0.1,0.5,0,0.8c-0.2,0.7,0.5,2.4,1,2.8c0.5,0.4,2.4,0.3,3-0.1c0.3-0.2,0.6-0.3,0.8-0.5
		c0.9-0.5,0.9-0.5,0.2-1.4c-0.6-0.8-1.2-1.6-1.2-2.7l0,0c0.1,0.1,0.2,0.1,0.3,0.2c1.4,1.6,3.2,2.8,5.2,3.6c0.4,0.1,0.8,0.2,1,0.7
		c-1.7,0-3.5,0.2-5,1c-0.6,0.3-0.9,0.6-0.2,1.1c0.3,0.2,0.5,0.4,0.6,0.8l0,0c-0.6,0-1.2-0.3-1.8-0.5c-2.8-0.9-5.6-1-8.3,0.1
		c-1.8,0.7-3.2,1.9-3.8,3.8c-0.1,0.5-0.3,0.9-0.5,1.6c-0.2-0.4-0.3-0.6-0.3-0.8c-0.2-0.5,0.1-1.3-0.4-1.6c-0.5-0.3-1.2,0.1-1.8,0.1
		c-2.7,0.6-5.1,1.7-6.7,3.9c-1.1,1.4-2.1,3-1.3,4.9c0.2,0.5,0,0.7-0.6,0.8c-3,0.5-5.5,1.9-7.3,4.4c-2.5,3.4-2.8,7.1-0.9,10.8
		c2.2,4.3,6.1,6.1,10.7,6.4c3.5,0.2,6.8-0.8,9.8-2.8c1.1-0.7,1.9-0.7,3,0.1c0.3,0.2,0.7,0.4,1,0.5C44.8,391.7,47.1,391.4,49.3,390.2
		z"/>
	<path fill="#AD4E27" d="M201.1,378.7c-0.9,1.4-1.7,2.8-2.6,4.3c-1.6,2.7-3.5,5.1-6,7.1c-2.4,1.9-5.1,3.1-8,3.9
		c-6.4,1.8-12.7,3.7-18.5,6.9c-3.1,1.7-6.1,3.6-8.7,6.2c-2.2,2.1-3.7,4.7-4.9,7.5c-1.2,2.8-1.3,5.7-1.6,8.6
		c-0.1,1.3-0.2,2.6-0.1,3.9c0.1,4.2,0.3,8.4,0.7,12.6c0.2,2.4,0.3,4.8,0.6,7.1c0.3,3,0.7,6,1.1,9c0.5,3.6,1.1,7.3,1.7,10.8
		c0.9,4.9,2.1,9.8,4.1,14.4c0.9,2,1.9,4,3.1,5.8c1.4,2.1,3.3,3.6,5.5,4.8c2.6,1.5,5.3,2.6,7.6,4.5c0.7,0.6,1.4,1.2,1.9,2
		c0.3,0.5,0.2,0.6-0.3,0.8c-1.1,0.3-2.3,0.4-3.5,0.4c-4,0.2-7.9-0.2-11.7-1c-1.7-0.3-3.4-0.3-5.1,0c-1.9,0.3-3.8,0.4-5.7,0.3
		c-0.4,0-0.5-0.2-0.7-0.5c-2-2.4-4.3-4.5-6.9-6.3c-4.2-3-6.5-7.3-7.7-12.3c-0.7-2.8-1.1-5.7-1.4-8.6c-0.1-1.2-0.1-2.4-0.2-3.7
		c0-0.3,0.1-0.7-0.3-1.2c0,0.8-0.1,1.5-0.1,2.2c0,1.6-0.3,3.2-0.2,4.7c0.1,4.8,0.8,9.6,3.2,13.9c1.3,2.3,3,4.2,5.1,5.8
		c2,1.5,4,2.9,5.7,4.7c1.6,1.7,3,3.5,3.9,5.7c0.4,0.9,0.3,1.1-0.7,1.1c-2,0.1-4,0.2-5.9,0c-3.8-0.3-7.6-1.3-11.2-2.7
		c-0.9-0.3-1.7-0.6-2.6-1c-2.2-1-4.5-1.1-6.9-0.3c-4.2,1.5-8.6,2.4-13,3.2c-2.4,0.4-4.7,0.6-7.1,0.9c-2,0.2-4,0.2-6,0
		c-0.9-0.1-1-0.4-0.6-1.2c1.7-3.1,4.1-5.4,7.1-7.2c2.1-1.3,4.3-2.4,6.6-3.2c0.2-0.1,0.3-0.1,0.4-0.5c-0.6,0-1.2,0-1.7,0
		c-0.5,0-0.7-0.1-0.4-0.6c1.8-3,2.6-6.3,3.2-9.6c0.4-2.3,0.2-4.6,0.2-7c-0.4,2.7-1,5.4-1.7,8.1c-0.9,2.9-1.9,5.7-3.5,8.3
		c-0.8,1.2-1.9,2-3.2,2.7c-2,1.1-3.9,2.4-5.4,4.1c-0.9,1-2,0.8-3,0.7c-1.7-0.3-3.2,0-4.8,0.3c-3.1,0.6-6.2,1-9.3,0.8
		c-1.2-0.1-2.4,0-3.6-0.3c-0.2-0.1-0.6,0.1-0.7-0.3c-0.1-0.3,0.2-0.5,0.3-0.7c1.3-1.6,3-2.7,4.7-3.7c2.6-1.5,5.3-2.9,7.4-5.1
		c1.9-2,3.1-4.4,4.1-6.9c1.6-4,2.4-8.2,3.1-12.5c0.7-4.2,1.1-8.3,1.5-12.5c0.3-3.1,0.5-6.2,0.7-9.4c0.5-6.2,0.6-12.4,0.5-18.6
		c-0.1-3.9-0.1-7.8-1.2-11.5c-1-3.5-2.7-6.5-5-9.3c-2.6-3.1-5.8-5.5-9.4-7.2c-3.7-1.8-7.6-2.9-11.6-3.4c-3.7-0.5-7.5-0.8-11-2.1
		c-4.3-1.5-7.7-4.1-10.6-7.6c-0.6-0.8-1.5-1.4-1.9-2.4c1.3-0.1,2.4-0.7,3.6-1.1c0.6,1,1.5,1.7,2.4,2.5c2.1,1.8,4.4,3,7,3.8
		c3,0.9,6,1,9,0.9c1.2,0,2.4,0.1,3.4,0.8c0.2,0.1,0.4,0.4,0.7,0.2c-1.3-1.4-2.5-2.7-3.5-4.2c-1.4-2.3-2.8-4.6-4.6-6.6
		c-0.8-1-1.7-1.9-2.5-2.9c1.7-0.2,3-1.1,4.3-2c0.1,0.1,0.3,0.2,0.4,0.4c2.3,3.1,4.9,5.8,7.6,8.5c3,2.9,6.6,4.8,10.5,6.1
		c2.7,0.9,5.4,1.5,8,2.4c4.2,1.5,7.9,3.6,11,6.8c0.7,0.7,1.3,1.5,2,2.2c0.2-0.3,0-0.4-0.1-0.6c-0.6-1.3-1.3-2.6-2.3-3.7
		c-0.3-0.4-0.4-0.8-0.3-1.2c0.3-2,0.5-4,0.4-6.1c-0.2-2.5-0.8-4.9-1.9-7.1c-2.8-5.9-7.4-10.1-12.8-13.6c-2.7-1.7-5.3-3.5-7.6-5.8
		c-1.2-1.3-2.4-2.6-3.4-4c-1-1.4-2.1-2.6-2.6-4.2c1.4-0.1,2.6-0.4,3.9-0.9c0.4,0.9,1,1.7,1.7,2.4c1.7,1.9,3.4,3.7,5.6,5.1
		c2.2,1.4,4.8,2.1,6.6,4.2c0,0,0,0,0,0.1c0,0,0,0,0,0c0,0-0.1-0.1-0.1-0.1c0-0.2,0-0.4-0.1-0.6c-1-1.5-1.5-3.2-1.8-5
		c-0.8-3.9-1.3-7.9-1.6-11.9c1.2-0.2,2.4-0.4,3.6-0.5c0.1,0.4,0.1,0.7,0.2,1.1c0.4,2.4,0.5,4.9,1.1,7.3c1.3,5.7,4.2,10.3,9,13.7
		c2,1.4,4,2.8,5.9,4.3c2.2,1.7,4.3,3.4,6.2,5.5c-0.1-0.7-0.2-1.3-0.5-1.8c-0.1-0.3-0.1-0.5,0-0.8c0.9-2.6,1.7-5.2,1.9-7.9
		c0.2-2,0.3-4.1,0-6.2c-0.5-3.6-2.5-6.4-4.7-9.1c-2.7-3.2-4.5-6.9-5.5-11c1.2,0.3,2.4,0.2,3.6,0.2c0.6,2.5,1.8,4.6,3.5,6.6
		c2.1,2.5,5.5,3.7,7.1,6.7c-0.2-1.1-0.3-2.2-0.1-3.2c0.8-4.2,0.9-8.5,1-12.8c0-1.3-0.1-2.6-0.2-3.9c0-0.3,0.2-0.4,0.4-0.4
		c0.8-0.3,1.5-0.8,2.1-1.3c0.6-0.6,0.8-0.5,1.2,0.3c0,1-0.2,1.9-0.1,2.8c0.2,1.8,0,3.6,0.1,5.4c0,0.4-0.1,0.9,0.6,1
		c0.4,0,0.3,0.4,0.3,0.6c-0.1,2.9-0.1,5.8-0.2,8.7c0,0.2-0.1,0.3-0.1,0.5c-0.3,0.9-0.5,1.9-0.6,2.8c-0.1,2.3,0.7,4.4,1,6.7
		c0.3-0.8,0.4-1.5,0.6-2.3c0.1-0.3,0.1-0.5,0.3-0.7c0.8-0.7,1.5-1.6,2.3-2.2c1.9-1.5,3.9-2.9,5.5-4.7c1.9-2.1,3.2-4.5,3.8-7.3
		c0.6-3,0.8-6,0.7-9c1.1-1.4,2.4-2.6,2.7-4.6c0.4,0.9,0.7,1.6,1,2.3c-0.2,0.1-0.2,0.3-0.2,0.6c0,2.9-0.1,5.8-0.3,8.8
		c-0.2,2.2-0.5,4.4-1.2,6.5c-1,3.2-2.9,5.8-5.2,8.3c-1.8,2-3.4,4.2-4.1,6.9c-0.8,3.1-0.8,6.2-0.3,9.4c0.1,0.6,0.1,1.1-0.3,1.7
		c-0.6,0.9-1.2,1.9-1.5,3c0.1,0,0.2,0,0.3,0c0.1-0.1,0.2-0.2,0.3-0.3c2.2-2.5,4.7-4.7,7.4-6.5c2.9-2,6-3.5,8.8-5.5
		c3.1-2.3,5.2-5.4,6.3-9.1c1.2-4.4,2.4-8.8,4.8-12.8c0.1-0.3,0.3-0.5,0.3-0.8c0.5-0.2,1-0.8,1.6-0.4c0.6,0.4,1.2,0.8,1.8,1.3
		c-2.7,4.2-3.9,8.9-4.3,13.9c-0.1,0.8-0.4,1.4-1,1.9c-0.4,0.3-0.7,0.7-0.8,1.5c1.6-1.3,3.3-2.1,4.9-3c3-1.7,5.7-3.7,8.3-5.9
		c1.1-1,2.3-2,3-3.4c1.4,0.2,2.7,0.4,4.1,0.2c-0.2,0.7-0.8,1.2-1.2,1.6c-3.4,3.5-6.7,6.9-10.6,9.9c-4.5,3.5-9.2,6.9-13.5,10.6
		c-3.1,2.7-5.8,5.7-7.5,9.6c-2.1,4.6-2.6,9.3-1.6,14.1c0.2,0.8,0,1.3-0.4,1.9c-1.1,1.4-1.7,3-2.4,4.6c0.2,0,0.2,0,0.3,0
		c0.1-0.2,0.3-0.3,0.4-0.5c1.4-2,3-3.8,4.9-5.3c4.4-3.4,9.3-5.7,14.6-7.2c4.3-1.2,8.2-3.1,11.3-6.4c3.1-3.3,5.8-6.9,8.5-10.5
		c0.4,0.1,0.7,0.3,1.1,0.4c1,0.6,2.1,0.8,3.2,0.8c-1.2,1.5-2.4,3.1-3.6,4.7c-1.3,1.9-2.2,4-3.4,6c-0.3,0.5-0.6,0.9-1.1,1.2
		c-0.7,0.4-1.4,0.9-2.1,1.3c0,0.1,0.1,0.2,0.1,0.3c2.6-1.2,5.5-0.9,8.3-1.5c2-0.5,4.1-0.9,5.9-1.9c4.1-2.3,6.8-5.8,8.5-10
		c0.6,0,1.2,0,1.8-0.1C201.2,377,201.2,377,201.1,378.7z M151.5,404.5C151.5,404.5,151.5,404.4,151.5,404.5
		C151.6,404.4,151.6,404.4,151.5,404.5C151.5,404.4,151.5,404.4,151.5,404.5c-0.1,0.1-0.1,0.1-0.2,0.2c-0.1,0.1-0.2,0.2-0.2,0.4
		c-0.4,0-0.6,0.3-0.8,0.5c-2.6,2.7-4.1,6-4.9,9.7c-0.4,1.8-0.6,3.7-0.6,5.6c0,0.6,0,1.1,0,1.7c0.1,0,0.2,0,0.3,0
		c0.1-0.6,0.2-1.3,0.3-1.9c0.7-4,1.7-7.9,3.4-11.5c0.7-1.4,1.6-2.7,2.4-4.1c0.1-0.1,0.2-0.2,0.2-0.4
		C151.4,404.6,151.4,404.5,151.5,404.5z M161.4,491.2C161.4,491.2,161.4,491.2,161.4,491.2C161.4,491.2,161.4,491.2,161.4,491.2
		c-0.1-0.1-0.2-0.2-0.4-0.2c0-0.3-0.2-0.5-0.4-0.7c-2.3-2.2-4-4.7-5.4-7.5c-0.5-1-0.9-2.1-1.6-3.2c0.3,2.4,1.8,5.9,3.2,7.8
		c1.2,1.5,2.5,2.8,4.2,3.6C161.1,491.1,161.2,491.2,161.4,491.2z M146.8,464.1c0,0.6-0.1,1.2,0,1.7c0.1,0.6,0.2,1.2,0.4,1.8
		c0.3,1,0.7,1.9,1.4,2.8c0.8,1,2.2,0.6,2.6-0.6c0.4-1.3,0.3-2.6,0.3-3.8c-0.1-1.8-0.7-3.5-1.8-4.9c-0.8-1-1.8-0.9-2.4,0.2
		C146.7,462.2,146.8,463.2,146.8,464.1z M144.1,449.6c-0.2,2-0.4,3.9-0.5,5.9c-0.2,3.8,0.2,7.6,0.9,11.4c0.2,1,0.5,2,0.7,3
		c0.1,0.4,0.4,0.6,0.8,0.6c0.4,0,0.3-0.4,0.2-0.6c-0.5-2.6-0.8-5.2-1.1-7.8c-0.3-2.9-0.6-5.8-0.7-8.7
		C144.4,452.2,144.2,450.9,144.1,449.6z M106.9,437.3c1.6-3.2,0.1-16.2-2.1-18.7C106.1,424.7,106.4,431,106.9,437.3z M120.2,495.4
		c-3.6,3.6-8.1,5-13.1,6.3C112.2,502.4,118.1,499.5,120.2,495.4z M103.4,428.3c0,5.2,0,10.3,0,15.5
		C104.7,438.7,104.8,433.5,103.4,428.3z M140.4,432.7c0.4-1.6,0.1-3.2,0.3-4.8c0.2-1.6,0.1-3.2,0.1-4.7c0-1.5,0-3.1,0-4.9
		C139.9,420.5,139.7,427,140.4,432.7z"/>
	<path fill="#509717" d="M49.3,390.2c-2.2,1.2-4.5,1.5-6.9,0.6c-0.4-0.1-0.7-0.3-1-0.5c-1.1-0.8-1.9-0.9-3-0.1c-3,1.9-6.2,3-9.8,2.8
		c-4.6-0.2-8.5-2-10.7-6.4c-1.9-3.7-1.6-7.4,0.9-10.8c1.8-2.5,4.3-3.8,7.3-4.4c0.6-0.1,0.8-0.3,0.6-0.8c-0.8-2,0.2-3.5,1.3-4.9
		c1.7-2.2,4.1-3.4,6.7-3.9c-0.2,0.5-0.5,0.9-0.8,1.2c-1.1,1-1.7,2.2-2,3.7c-0.3,1.2,0.4,2.8,1.5,3.5c0.3,0.2,0.4,0.1,0.5-0.2
		c0.7-1.2,1.8-1.8,3-2.1c1.7-0.4,3.3,0,4.8,1.3c-0.5,0-0.9,0-1.2-0.1c-2.8-0.6-5.1,0.8-6.1,3.3c-0.3,0.6-0.4,0.6-1,0.5
		c-1.9-0.6-4,0.2-5.1,1.9c-1,1.5-1.1,3.7-0.1,5.3c1.9,3.1,6.5,3.1,8.6,0.4c0.2-0.3,0.4-0.6,0.8-0.2c1.1,1.1,3.5,1,4.8,0.3
		c1.8-1,2.5-2.6,2.8-4.6c1.2,1.7,2.8,2.3,4.7,1.9c2.1-0.4,3-1.9,3.4-3.8c2,1.4,4,1.7,6.1,0.7c2.2-1,2.9-3,3-5.3
		c0.5,0.2,0.8,0.4,1.2,0.6c2.2,1.1,4.5,1.2,6.7-0.2c1.7-1,3-3.3,2-5.4c-0.3-0.6-0.6-1.3-0.9-1.9c2.5,0.6,4.2,2.2,5.1,4.6
		c0.8,1.9,0.3,4.2-1.3,5.5c-1.6,1.3-3.4,1.8-5.4,1.5c-0.8-0.1-1.6-0.4-2.5-0.1c0.1,0.1,0.1,0.2,0.2,0.3c1,0.9,1,1,0.2,2.1
		c-0.2,0.3-0.5,0.6-0.8,0.8c-1.6,1.1-3.4,1.5-5.3,1.2c-0.4-0.1-1,0-1.2-0.3c-0.3-0.5,0.4-0.6,0.5-1c0.1-0.2,0.3-0.4,0.1-0.6
		c-0.3-0.2-0.4,0-0.6,0.2c-0.8,0.9-1.9,1.5-2.9,2.2c-0.5,0.3-1,0.5-1.6,0.6c-1.2,0-2.3,0.4-3.5,0.4c0.5,0.4,1,0.5,1.4,0.7
		c0.4,0.2,0.5,0.4,0.3,0.8c-0.8,1.4-1.8,2.5-3.3,3.2c-2.4,1-4.8,0.9-7.2-0.3c-0.4-0.2-0.7-0.3-1.1-0.1c-1.5,0.9-3,1.5-4.8,1.5
		c0.1,0.1,0.1,0.1,0.2,0.2c1.4,0.4,2.9,0.5,4.3-0.1c0.4-0.1,0.7-0.3,1.1-0.1c1.2,0.7,2.5,0.9,3.7,1.2c0.6,1,1.4,1.9,2.1,2.8
		C49.1,389.8,49.3,390,49.3,390.2z"/>
	<path fill="#509717" d="M185.1,377.5c-1.1,0-2.2-0.2-3.2-0.8c0.3-0.6-0.6-0.8-0.5-1.3c0.1-1-0.4-1.3-1.3-1.1
		c-1.9,0.6-3.8,0.5-5.6-0.5c-1.3-0.7-2.2-2.7-1.9-4.2c0.6-2.4,2.1-3.7,4.4-4.3c0.2,0.9,0.9,0.9,1.7,0.8c-0.1,0.4-0.2,0.9-0.3,1.3
		c-0.2,1,0.2,1.8,1,2.5c0.7,0.6,1.5,0.8,2.3,0.3c0.9-0.5,1.6-0.6,2.5,0.1c0.9,0.7,1.8,0.2,1.9-0.8c2.4,1.5,4.1,0.1,5.6-1.7
		c0.4,0.9,0.9,1.6,1.7,2.1c2.1,1.4,5.5,1.7,7.6-0.6c0.2-0.2,0.4-0.8,0.7-0.1c0.5,1.3,1.6,2,2.9,2.3c1.4,0.3,2.8,0.2,4.2,0
		c-0.1,0.2-0.2,0.4-0.3,0.6c-1.8,3,0.2,6,3.1,6.7c2.4,0.6,4.7,0.3,6.6-1.5c0.3-0.3,0.5-0.3,0.6,0.2c0.1,1,0.4,1.8,1,2.7
		c2.4,3.7,8.1,3.8,10.7,0.1c0.2-0.3,0.3-0.5,0.7-0.6c0.1,1.8-0.5,3.3-1.3,4.9c-1.4,2.6-3.6,4.2-6.4,4.9c-2.8,0.7-5.6,0.4-8.1-1.1
		c-0.4-0.3-0.7-0.1-1,0.1c-1.9,1.3-3.9,2-6.2,1.8c-2.2-0.2-4.2-0.9-5.4-3c-0.5-0.9-0.6-1.8-0.3-2.8c0.2-0.6-0.1-0.8-0.5-0.7
		c-0.7,0.2-1.3-0.1-2-0.1c0.4-1.4,1.3-2.5,2-3.8c0.2,0.2,0.4,0.3,0.5,0.5c1.3,1.4,3,1.8,4.9,1.6c-1-0.6-2-1-2.9-1.7
		c-1.9-1.5-2.1-3.5-0.4-5.2c0.2-0.2,0.6-0.4,0.4-0.7c-0.2-0.4-0.6-0.2-0.9-0.2c-0.2,0-0.4,0.1-0.6,0.2c-2.9,1.3-5.7,1.4-8.6,0.1
		c-0.6-0.3-0.8-0.4-0.1-0.8c0.2-0.1,0.4-0.3,0.3-0.6c-0.1-0.2-0.3-0.2-0.4-0.2c-1.8,0.1-3.5-0.4-5.3-0.9c-0.1-0.1-0.1-0.2-0.2-0.1
		c0.1,0,0.1,0,0.2,0.1c0,0.3,0.3,0.4,0.4,0.6c0.6,0.8,1.8,1.1,2.3,2c-0.1,0.3-0.4,0.5-0.7,0.7c-1.1,0.9-2.3,1.3-3.6,1.7
		C186.5,377.3,185.8,377.2,185.1,377.5z"/>
	<path fill="#285A0B" d="M46.9,386.9c-1.3-0.3-2.6-0.5-3.7-1.2c-0.4-0.2-0.7-0.1-1.1,0.1c-1.4,0.6-2.9,0.4-4.3,0.1
		c-0.1,0-0.2-0.1-0.2-0.2c1.8,0,3.4-0.6,4.8-1.5c0.4-0.3,0.7-0.1,1.1,0.1c2.3,1.2,4.7,1.3,7.2,0.3c1.5-0.6,2.5-1.8,3.3-3.2
		c0.2-0.4,0.1-0.6-0.3-0.8c-0.4-0.2-1-0.3-1.4-0.7c1.3,0,2.4-0.4,3.5-0.4c0.5,0,1.1-0.2,1.6-0.6c1-0.7,2.1-1.3,2.9-2.2
		c0.2-0.2,0.4-0.4,0.6-0.2c0.3,0.2,0,0.4-0.1,0.6c-0.1,0.4-0.8,0.5-0.5,1c0.2,0.3,0.8,0.2,1.2,0.3c2,0.3,3.7-0.1,5.3-1.2
		c0.3-0.2,0.6-0.5,0.8-0.8c0.8-1.2,0.8-1.2-0.2-2.1c-0.1-0.1-0.1-0.2-0.2-0.3c0.9-0.2,1.7,0,2.5,0.1c2.1,0.3,3.9-0.3,5.4-1.5
		c1.6-1.3,2.1-3.5,1.3-5.5c-1-2.4-2.6-3.9-5.1-4.6c-0.3-0.1-0.6-0.3-0.9-0.4c-1.1-0.5-2.3-0.2-3.4-0.3c-0.1-0.3-0.3-0.6-0.4-0.9
		c-0.5-0.8-1.1-1.6-1.9-2.2c-1.4-0.9-2.9-1.6-4.4-2.1c0.6-0.6,1.3-0.8,2.1-0.9c2.2-0.3,3.9-1.3,5.6-2.7c0.3-0.3,0.4-0.6,0.3-1
		c-0.1-0.5-0.1-1.1,0.1-1.7c0.5,0.1,0.6,0.5,0.8,0.8c0.7,1,1.5,2,2.4,2.8c2.4,2.2,6.9,2.9,9.8,1.3c2.1-1.2,3-3,2.5-5.3
		c-0.2-0.9-0.8-1.6-1.2-2.4c0.4-0.1,0.7,0.2,1,0.3c2.3,1.1,4.7,1.7,7.3,1.7c2.1,0,4.2-0.4,6.1-1.3c3-1.4,5.1-3.5,6.2-6.6
		c0.5-1.3,0.8-2.6,0.7-4c0-0.2-0.1-0.7,0.4-0.4c0.5,0.3,1,0.6,1.1,1.4c0.3,2.2,1.2,4,3.2,5.2c2.2,1.2,4.9,1,6.5-0.8
		c0.4-0.5,0.6-0.9,0-1.4c-0.4-0.4-1-0.7-1.1-1.3l0,0c2.9,1.1,5.8,2.1,9,1.8c0,0.5,0,1,0,1.5c-1.8,0.3-3.6-0.1-5.4-0.6
		c-0.4-0.1-0.6-0.1-0.9,0.3c-0.6,1.1-1.5,1.9-2.7,2.4c-0.3,0.2-0.8,0-1.1,0.4c-1.2,0-2.4,0-3.6-0.2c-0.4-0.4-1-0.4-1.5-0.5
		c-1.1-0.9-2.2-1.8-2.9-3.3c-0.8,2.5-2.2,4.4-4,5.9c-1.1,0.9-2.4,1.6-3.7,2.3c-0.5,0.1-1.1,0.3-1.5,0.5c-1.2,0.2-2.4,0.4-3.6,0.5
		c-0.5,0-1,0-1.4,0c-1.7-0.1-3.3-0.4-5-0.9c0.2,2.4-0.5,4.2-2.4,5.7c-0.1,0.1-0.3,0.2-0.3,0.4c-0.5,0.1-0.9,0.3-1.2,0.6
		c-1.3,0.5-2.6,0.8-3.9,0.9c-0.6,0-1.2,0-1.8-0.2c-2.4-0.4-4.5-1.5-6.2-3.3c-0.2-0.2-0.3-0.6-0.7-0.2c-1.2,1.2-2.6,2-4.3,2.6
		c1.2,0.8,2.3,1.6,3,2.8c0.3,0.5,0.6,0.6,1.1,0.6c3.3,0.2,6.1,1.6,8.1,4.3c1.2,1.6,1.8,3.5,1.4,5.6c-0.6,3.4-3.8,5.7-7.6,5.6
		c-1.1,0-1.2,0.1-1.3,1.2c-0.6,0.1-0.7,0.6-1,1.1c-1.3,0.9-2.6,1.8-4.3,2c-0.6,0.1-1.3,0.1-1.9,0.2c-1-0.2-2.1-0.2-3.1-0.6
		c-0.2-0.1-0.3,0-0.5,0.1c-0.8,0.7-1.8,1-2.8,1.2c-0.2,0.1-0.5,0.1-0.5,0.4c-0.2,1.5-1.3,2.5-2.2,3.6c-0.4,0.1-0.8,0.3-1.1,0.7
		c-1.2,0.4-2.3,1-3.6,1.1C48,386.7,47.4,386.5,46.9,386.9z"/>
	<path fill="#285A0B" d="M191.4,374.9c-0.5-1-1.6-1.2-2.3-2c-0.2-0.2-0.4-0.3-0.4-0.6l0,0c1.7,0.5,3.4,1,5.3,0.9
		c0.2,0,0.4,0,0.4,0.2c0.1,0.3-0.1,0.5-0.3,0.6c-0.7,0.4-0.5,0.5,0.1,0.8c2.9,1.3,5.8,1.2,8.6-0.1c0.2-0.1,0.4-0.2,0.6-0.2
		c0.3,0,0.7-0.2,0.9,0.2c0.2,0.3-0.2,0.5-0.4,0.7c-1.7,1.7-1.5,3.7,0.4,5.2c0.9,0.7,1.9,1.1,2.9,1.7c-1.9,0.2-3.5-0.2-4.9-1.6
		c-0.2-0.2-0.4-0.3-0.5-0.5c-0.1-0.5-0.2-1.1-0.7-1.5c0-1.7,0-1.7-1.6-1.5c-0.6,0.1-1.2,0.1-1.8,0.1c-0.4-0.1-0.8-0.3-1.3-0.2
		c-1.6-0.3-3-0.9-4.2-1.9C192,375.1,191.8,374.7,191.4,374.9z"/>
	<path fill="#73AB1B" d="M75.2,305.7c4.2-0.1,8.1,0.9,11.6,3.1c0.7,0.4,0.8,0.2,0.8-0.4c0.1-2.2,0.7-4.2,1.8-6.1
		c0.5,0.5,1.3,0.7,1.9,0.9c1.1,0.3,2.2,0.7,3.2,1.3c0.9,0.4,1.7,1,2.7,1.2c0.7,0.2,1.1,0.6,1.4,1.2c0.3,0.6,0.7,0.9,1.2,1.2
		c0.6,0.4,1.6,0.5,2,1.2c0.4,0.7,0.9,0.9,1.5,1.1c0.6,0.3,1-0.1,0.9-0.8c-0.2-1.2,0-2.4,0.5-3.5c0.6-1.2,1.4-2.1,2.6-3
		c-2.2,0.3-4,0.9-5.6,2c-0.4,0.3-0.6,0.2-0.9-0.2c-0.5-0.8-0.8-1.7-0.7-2.6c0.2-3,1.6-5.4,3.7-7.4c2.6-2.4,5.7-3.9,9.2-4.5
		c0.2,0,0.3-0.1,0.4-0.3c3.9,0.1,7.6,0.9,10.9,3.2c0.3,0.2,0.7,0.5,1.1,0.2c2.4-1.6,5.1-2.6,8-3c6.4-0.9,12.4,0.4,17.7,4.2
		c3.1,2.3,5.1,5.4,5.7,9.2c0.2,1.3,0,2.6,0,4.2c0.9-0.7,1.7-1.3,2.5-1.9c4.9-3.8,10.5-5.7,16.7-5.1c4.6,0.4,8.7,2.1,11.8,5.8
		c2,2.4,2.8,5.2,2.5,8.3c-0.1,1,0.3,0.8,0.8,0.6c3.2-0.8,6.4-0.9,9.4,0.4c5.5,2.2,8.8,6.2,9.6,12.1c0.4,3.2-0.3,6.1-1.9,8.9
		c-0.1,0.1-0.1,0.2-0.1,0.3c-0.4,0-0.8,0.1-1.2,0.4c-0.2,0.2-0.4,0.2-0.7,0c-1.6-0.9-3.3-1.1-5.1-1.4c0.4,0.5,0.8,0.9,1.1,1.3
		c2.1,2.7,0.1,5.7-2.3,6.4c-2.1,0.6-4.1,0.4-6-0.4c-0.5-0.2-0.7-0.1-1.1,0.3c-0.9,1.2-2.3,1.8-3.7,1.9c-3.7,0.4-6.8-1-9.4-3.5
		c-1-1-1.7-2.1-2.4-3.2c-0.3,0-0.3,0.2-0.4,0.4c-1.4,2.3-3.4,3.6-6.1,4.1c-2,0.4-4.6-0.5-5.7-2.2c-0.2-0.3-0.4-0.5-0.8-0.3
		c-2.4,1.1-4.7,0.6-7-0.2c-0.2-0.1-0.4-0.2-0.6-0.1c-0.8,0.5-1.8-0.1-2.6,0.5c-0.1,0.1-0.4,0.1-0.5,0c-1-0.9-1.9-0.2-2.8,0.2
		c0-0.7,0.1-1.3,0.5-1.9c0.4-0.6,0.1-0.8-0.4-0.8c-0.1,0-0.3,0-0.4,0c-2.6-0.3-4.4-2.2-4.3-4.7c0.1-1.3,0.8-2.3,1.5-3.3
		c0.2-0.3,0.5-0.6,0.4-1c0.5-0.3,0.7-0.7,0.6-1.3c-0.6,0.2-1.1,0.4-1.6,0.6c-0.5,0.2-1.1,0.1-1.6,0.1c-0.6,0.1-1.2-0.4-1.8-0.3
		c-0.3-0.1-0.6-0.3-0.4,0.3c0.3,0.9,0.4,1.9,0.3,2.9c-1.1,0.2-2,0.7-2.8,1.4c-0.9,0.8-1.7,1-2.7,0.4c-0.2-0.1-0.4-0.1-0.6-0.2
		c-1.2-0.4-2.4,0.1-3.6,0c-3-0.2-5.3-1.5-6.9-4c-0.4-0.7-0.6-0.6-1.1-0.1c-2.5,3.1-5.5,5.2-9.7,4.9c-1.8-0.1-3.3-0.7-4.2-2.2
		c-0.3-0.4-0.5-0.6-0.9-0.1c-1.5,1.6-3.5,1.6-5.4,1.4c-1.3-0.2-2.6-0.8-3.7-1.5c-1-0.6-1-0.6-1,0.6c0,0.9-0.1,1.8-0.3,2.7
		c-1.2,4.4-6.1,5.3-9.1,3.5c-0.6-0.4-1.1-1-1.7-1.4c-0.3,1.3-0.8,2.4-1.5,3.5c-1.6,2.2-3.8,3.4-6.4,3.6c-2.4,0.2-4.8-0.1-6.5-2.2
		c-0.4-0.5-0.8-1.1-1.2-1.6c-0.3,0.3-0.3,0.7-0.5,1.1c-0.7,1.8-2.6,3.2-4.6,3.1c-2.2-0.1-3.4-0.9-4.2-3.1c-0.2-0.6-0.4-0.5-0.8-0.2
		c-2.2,2-4.7,3.1-7.8,3c-1.9-0.1-3.5-0.6-4.7-2.1c-2.1-2.5-1.6-5.7,0.7-7.6c2.1-1.8,4.6-1.8,7.1-0.7c0.5,0.2,0.7,0.3,0.8-0.4
		c0.3-1.5,1.1-2.6,2.2-3.7c1-0.9,2.2-1.4,3.4-2c-0.4-0.1-0.8-0.3-1.1-0.3c-1.2,0.1-1.8-0.7-2.2-1.6c-1.5-3.8-1.7-7.7,0.1-11.5
		c2.4-5.1,6.7-7.8,12.1-8.9C74.8,306,75.1,306.1,75.2,305.7z M116.9,307.8c-1.6-0.6-2.9-0.3-4.2,0c-2.4,0.5-4.5,1.7-6.2,3.5
		c-0.2,0.2-0.3,0.5-0.7,0.3c-0.9-0.5-0.6,0.3-0.5,0.5c0.2,0.5,0.3,0.8-0.1,1.3c-0.4,0.4,0.1,1,0.5,1.4c0.5,0.4,0.6,0,0.9-0.3
		c0.6-0.7,1.3-1.3,2-2.1C110.8,310.2,113.6,308.7,116.9,307.8z"/>
	<path fill="#509717" d="M75.2,305.7c-0.1,0.4-0.4,0.3-0.6,0.3c-5.4,1.1-9.7,3.7-12.1,8.9c-1.8,3.8-1.6,7.7-0.1,11.5
		c0.4,1,1,1.7,2.2,1.6c0.3,0,0.7,0.1,1.1,0.3c-1.2,0.6-2.4,1.1-3.4,2c-1.1,1-1.9,2.2-2.2,3.7c-0.1,0.7-0.3,0.6-0.8,0.4
		c-2.5-1.1-5-1.1-7.1,0.7c-2.3,1.9-2.8,5.1-0.7,7.6c1.2,1.5,2.8,2,4.7,2.1c3.1,0.1,5.6-1,7.8-3c0.4-0.3,0.5-0.4,0.8,0.2
		c0.8,2.2,2.1,3,4.2,3.1c2,0.1,3.9-1.3,4.6-3.1c0.1-0.4,0.2-0.8,0.5-1.1c0.4,0.6,0.7,1.1,1.2,1.6c1.7,2.1,4.1,2.4,6.5,2.2
		c2.6-0.3,4.8-1.4,6.4-3.6c0.7-1,1.2-2.2,1.5-3.5c0.6,0.5,1,1,1.7,1.4c3,1.9,7.9,0.9,9.1-3.5c0.3-0.9,0.3-1.8,0.3-2.7
		c0-1.2,0-1.2,1-0.6c1.2,0.7,2.4,1.3,3.7,1.5c2,0.2,3.9,0.2,5.4-1.4c0.4-0.4,0.6-0.3,0.9,0.1c1,1.5,2.5,2.1,4.2,2.2
		c4.2,0.2,7.2-1.9,9.7-4.9c0.5-0.6,0.6-0.6,1.1,0.1c1.6,2.5,4,3.8,6.9,4c1.2,0.1,2.4-0.4,3.6,0c0.2,0.1,0.4,0.1,0.6,0.2
		c1,0.5,1.8,0.3,2.7-0.4c0.8-0.7,1.7-1.2,2.8-1.4c0.2,2.7-0.8,4.9-2.7,6.8c-1.7,1.7-3.8,2.6-6.2,3.1c-0.6,0.1-0.9,0.4-1,1
		c-0.1,0.6-0.4,0.7-0.8,0.7c-0.3,0-0.7-0.2-0.8,0.3c-1,0.2-2,0-3,0c0-1.6,0-3.2-0.1-4.9c0-1-0.2-1.2-1.2-1.2c-0.4-0.9-0.6-1-1.2-0.3
		c-0.6,0.6-1.3,1.1-2.1,1.3c-0.2,0.1-0.5,0.1-0.4,0.4c-1.2-0.1-1.2-0.1-1.2,1.1c0,0.5,0,1.1,0,1.6c-3.2,0.2-6.1-0.7-9-1.8
		c-0.1-0.1-0.1-0.1-0.2-0.2c0,0,0,0-0.1,0c0,0,0,0,0.1,0c0.1,0.1,0.1,0.1,0.2,0.2c0.1,0.6,0.7,1,1.1,1.3c0.6,0.5,0.4,0.9,0,1.4
		c-1.6,1.7-4.3,2-6.5,0.8c-2.1-1.2-2.9-3-3.2-5.2c-0.1-0.8-0.6-1.1-1.1-1.4c-0.5-0.3-0.4,0.2-0.4,0.4c0.1,1.4-0.2,2.7-0.7,4
		c-1.1,3.1-3.3,5.2-6.2,6.6c-1.9,0.9-4,1.3-6.1,1.3c-2.5,0-5-0.6-7.3-1.7c-0.3-0.1-0.5-0.4-1-0.3c0.5,0.8,1,1.5,1.2,2.4
		c0.5,2.3-0.4,4.1-2.5,5.3c-2.8,1.7-7.4,1-9.8-1.3c-0.9-0.8-1.7-1.8-2.4-2.8c-0.2-0.3-0.3-0.7-0.8-0.8c-0.2,0.6-0.2,1.1-0.1,1.7
		c0.1,0.5,0,0.7-0.3,1c-1.6,1.4-3.4,2.4-5.6,2.7c-0.8,0.1-1.5,0.3-2.1,0.9c-1.4-0.2-2.7-0.6-4.1-0.6c-0.1-0.5-0.6-0.6-1-0.7
		c-2-0.8-3.8-1.9-5.2-3.6c-0.1-0.1-0.2-0.1-0.3-0.2c0-0.1-0.1-0.2-0.1-0.2c0,0-0.1,0.1-0.1,0.1c0,0.1,0.1,0.1,0.1,0.2
		c0,1.1,0.5,1.9,1.2,2.7c0.7,0.8,0.7,0.8-0.2,1.4c-0.3,0.2-0.6,0.3-0.8,0.5c-0.6,0.4-2.4,0.4-3,0.1c-0.6-0.4-1.2-2.1-1-2.8
		c0.1-0.3,0.2-0.6,0-0.8c-0.3-0.2-0.6,0-0.8,0.1c-3.4,1.1-6.8,1.2-10-0.4c-2.6-1.3-3.9-3.6-4.3-6.5c-0.7-5.1,1.3-9.3,4.7-12.9
		c2.9-3.1,6.5-5.1,10.7-5.7c2.4-0.3,4.8-0.2,7.2,0.3c0.7,0.2,0.8,0,0.6-0.6c-2.1-6.7,0.6-12.6,5.7-16.5c3.6-2.7,7.6-4,12-4.5
		C72.8,305.7,74,305.7,75.2,305.7z"/>
	<path fill="#73AB1B" d="M231.3,379.8c-0.3,0.1-0.5,0.3-0.7,0.6c-2.5,3.7-8.2,3.6-10.7-0.1c-0.5-0.8-0.8-1.7-1-2.7
		c-0.1-0.5-0.2-0.5-0.6-0.2c-1.9,1.7-4.2,2.1-6.6,1.5c-3-0.7-4.9-3.7-3.1-6.7c0.1-0.2,0.2-0.4,0.3-0.6c-1.4,0.1-2.8,0.3-4.2,0
		c-1.3-0.3-2.4-1-2.9-2.3c-0.3-0.7-0.6-0.1-0.7,0.1c-2.1,2.3-5.5,1.9-7.6,0.6c-0.8-0.5-1.3-1.2-1.7-2.1c-1.6,1.7-3.2,3.2-5.6,1.7
		c-0.1,1-1,1.5-1.9,0.8c-0.9-0.7-1.6-0.7-2.5-0.1c-0.8,0.5-1.7,0.2-2.3-0.3c-0.8-0.6-1.1-1.5-1-2.5c0.1-0.4,0.2-0.8,0.3-1.3
		c-0.8,0.1-1.5,0.1-1.7-0.8c0.4-0.1,0.8-0.1,1.2-0.2c0.5,0.1,1.1-0.1,1.6,0.3c0.3,0.3,0.7-0.1,0.9-0.3c0.3-0.3-0.1-0.4-0.2-0.6
		c-0.2-0.2-0.2-0.4-0.2-0.7c-0.2-1.4,0.6-2.4,1.5-3.3c0.9-0.9,1.2-0.8,1.5,0.3c0.2,0.6,0.4,0.8,1,0.3c1.1-0.9,2.4-1.1,3.8-1
		c0.2,0,0.5,0.2,0.6,0c0.1-0.3-0.2-0.4-0.3-0.6c-0.8-0.6-0.8-1.3-0.4-2.1c0.2-0.5,0.5-1,0.8-1.5c0.3-0.6,0.9-1,1-1.6
		c0.6-0.4,1.1-0.7,1.8-0.9c0.3-0.1,0.5-0.1,0.8-0.2c3.9-1.2,7.8-1.3,11.7,0.2c2,0.9,3.7,2.1,4.6,4c0.3,0.5,0.7,0.5,1.1,0.5
		c4.2-0.5,7.7,0.8,10.5,4c1.2,1.4,1.7,3.1,1.5,5c-0.1,0.7,0.1,0.9,0.8,1c3.8,0.6,6.3,2.8,7.8,6.3
		C231.2,375.9,231.6,377.8,231.3,379.8z"/>
	<path fill="#73AB1B" d="M56.1,356c1.4-0.1,2.8,0.4,4.1,0.6c1.5,0.6,3,1.2,4.4,2.1c0.8,0.6,1.4,1.3,1.9,2.2
		c-0.9,0.1-1.5,0.6-2.1,1.4c0.8-0.2,1.6-0.3,2.5-0.5c1.1,0.1,2.3-0.2,3.4,0.3c0.3,0.1,0.6,0.3,0.9,0.4c0.3,0.6,0.6,1.3,0.9,1.9
		c1,2.1-0.3,4.4-2,5.4c-2.2,1.3-4.4,1.3-6.7,0.2c-0.4-0.2-0.7-0.4-1.2-0.6c-0.1,2.3-0.8,4.3-3,5.3c-2.1,1-4.1,0.7-6.1-0.7
		c-0.5,1.9-1.3,3.4-3.4,3.8c-1.9,0.4-3.5-0.3-4.7-1.9c-0.3,2-1,3.6-2.8,4.6c-1.3,0.7-3.7,0.8-4.8-0.3c-0.4-0.4-0.6-0.1-0.8,0.2
		c-2,2.7-6.7,2.7-8.6-0.4c-0.9-1.5-0.9-3.8,0.1-5.3c1.2-1.6,3.3-2.4,5.1-1.9c0.5,0.2,0.7,0.2,1-0.5c1-2.6,3.3-3.9,6.1-3.3
		c0.3,0.1,0.6,0.1,1.2,0.1c-1.5-1.4-3.1-1.7-4.8-1.3c-1.2,0.3-2.4,0.9-3,2.1c-0.1,0.2-0.2,0.4-0.5,0.2c-1.1-0.7-1.7-2.3-1.5-3.5
		c0.3-1.4,0.9-2.6,2-3.7c0.4-0.3,0.7-0.8,0.8-1.2c0.6-0.1,1.3-0.4,1.8-0.1c0.5,0.3,0.2,1.1,0.4,1.6c0.1,0.2,0.1,0.4,0.3,0.8
		c0.2-0.7,0.4-1.1,0.5-1.6c0.6-1.9,2-3.1,3.8-3.8c2.8-1.1,5.5-1.1,8.3-0.1c0.6,0.2,1.2,0.5,1.8,0.5c0,0,0.1,0.1,0.1,0.1
		c0,0-0.1-0.1-0.1-0.1c0-0.4-0.3-0.6-0.6-0.8c-0.7-0.5-0.4-0.8,0.2-1.1C52.6,356.2,54.3,356,56.1,356z"/>
	<path fill="#509717" d="M204,353.4c-3.9-1.5-7.8-1.4-11.7-0.2c-0.3,0.1-0.5,0.1-0.8,0.2c-0.4-0.8-1.5-1.2-2.2-0.7
		c-1.4,0.9-2.8,1.3-4.5,0.9c-1.4-0.3-2.6-0.8-3.8-1.5c-0.3-0.2-0.5-0.3-0.8-0.2c-1.4,0.5-2.8,0.6-4.2,0.4c-2-0.2-3.8-0.8-5-2.6
		c-0.4-0.6-0.3-0.9,0.3-1.3c0.6-0.3,1.2-0.6,1.5-1.4c-1.5,0.3-2.9,0.6-4.3,0.8c-2.3,0.3-4.3-0.3-6-1.9c-0.3-0.3-0.6-0.3-1-0.2
		c-1.1,0.4-2.1,0.9-3.2,1c-1.9,0.2-3.7,0.3-5.4-0.7c-1.6-1-2.7-2.5-2.2-4.4c0.9-0.5,1.7-1.1,2.8-0.2c0.1,0.1,0.4,0.1,0.5,0
		c0.8-0.6,1.8,0,2.6-0.5c0.2-0.1,0.4,0,0.6,0.1c2.3,0.7,4.7,1.3,7,0.2c0.4-0.2,0.6,0,0.8,0.3c1.1,1.7,3.7,2.6,5.7,2.2
		c2.6-0.5,4.7-1.8,6.1-4.1c0.1-0.1,0.1-0.3,0.4-0.4c0.7,1.1,1.4,2.3,2.4,3.2c2.6,2.6,5.7,3.8,9.4,3.5c1.5-0.1,2.8-0.7,3.7-1.9
		c0.3-0.4,0.6-0.5,1.1-0.3c2,0.8,4,1,6,0.4c2.4-0.7,4.3-3.7,2.3-6.4c-0.3-0.4-0.7-0.8-1.1-1.3c1.8,0.3,3.6,0.5,5.1,1.4
		c0.3,0.2,0.5,0.2,0.7,0c0.3-0.3,0.7-0.4,1.2-0.4c2.8-0.5,5.6-0.5,8.2,1c2.7,1.5,4.4,3.8,4.5,6.9c0.2,3.2-1.6,6.1-5.4,7.1
		c-1.4,0.4-2.8,0.4-4.2,0.2c-0.7-0.1-1.1,0.2-1,0.9c0,0.3-0.1,0.5-0.1,0.8c-0.1,0.5-0.2,1.1-0.7,1.2c-0.4,0.1-0.6-0.5-0.9-0.9
		c-0.6-0.6-1.2-1.1-1.9-1.6C205.3,352.1,205.1,352.1,204,353.4z"/>
	<path fill="#509717" d="M113.4,290.1c-0.1,0.2-0.2,0.3-0.4,0.3c-3.5,0.6-6.6,2.1-9.2,4.5c-2.1,2-3.5,4.4-3.7,7.4
		c-0.1,1,0.2,1.8,0.7,2.6c0.3,0.4,0.4,0.4,0.9,0.2c1.6-1.1,3.5-1.7,5.6-2c-1.2,0.9-2,1.9-2.6,3c-0.5,1.1-0.7,2.2-0.5,3.5
		c0.1,0.7-0.2,1-0.9,0.8c-0.6-0.2-1.2-0.4-1.5-1.1c-0.3-0.7-1.3-0.7-2-1.2c-0.5-0.3-1-0.7-1.2-1.2c-0.3-0.6-0.7-1-1.4-1.2
		c-0.9-0.3-1.8-0.8-2.7-1.2c-1-0.5-2.1-1-3.2-1.3c-0.7-0.2-1.4-0.4-1.9-0.9c1-2.3,2.6-4.1,4.5-5.7c3.8-3.2,8.3-5.1,13.1-6
		C109.1,290.1,111.2,289.9,113.4,290.1z"/>
	<path fill="#285A0B" d="M150.7,341.5c-0.5,1.9,0.6,3.4,2.2,4.4c1.7,1,3.5,0.9,5.4,0.7c1.2-0.1,2.2-0.6,3.2-1c0.4-0.1,0.7-0.1,1,0.2
		c1.7,1.7,3.7,2.2,6,1.9c1.4-0.2,2.8-0.5,4.3-0.8c-0.3,0.8-1,1.1-1.5,1.4c-0.6,0.4-0.6,0.7-0.3,1.3c1.2,1.8,3,2.4,5,2.6
		c1.4,0.1,2.9,0.1,4.2-0.4c0.4-0.1,0.6,0.1,0.8,0.2c1.2,0.7,2.4,1.2,3.8,1.5c1.7,0.4,3.1,0,4.5-0.9c0.7-0.5,1.9-0.1,2.2,0.7
		c-0.7,0.2-1.2,0.5-1.8,0.9c-1.7,0.6-3.2,1.7-4,3.2c-0.8,1.6-2,1.9-3.5,2.1c-2,0.3-3.4,1.5-4,3.5c-0.2,0.6,0,1.3-0.1,2
		c-0.4,0.1-0.8,0.1-1.2,0.2c-2.3,0.6-3.8,1.9-4.4,4.3c-0.4,1.5,0.5,3.5,1.9,4.2c1.8,1,3.7,1.1,5.6,0.5c0.9-0.3,1.4,0.1,1.3,1.1
		c-0.1,0.6,0.8,0.7,0.5,1.3c-0.4-0.1-0.7-0.3-1.1-0.4c-0.5-0.6-1.1-0.4-1.7-0.2c-0.6,0-1.3,0.1-2,0.1c-3.2-0.1-5.7-2.1-6.2-4.9
		c-0.6-3.2,1.6-6.3,5-7.3c0.5-0.1,0.7-0.3,0.7-0.8c0.1-1,0.5-1.9,1.1-2.7c1.3-1.6,3-2.4,4.9-2.6c0.3,0,0.7,0.1,0.9-0.2
		c0.4-0.9,1.2-1.7,1.9-2.5c-1.9-0.2-3.5-0.6-5-1.7c0,0-0.1-0.1-0.1-0.1c-0.1,0-0.2,0.1-0.3,0.1c-0.7-0.3-1.4,0.1-2.1,0.2
		c-1.4,0.3-2.7,0-4.1-0.2c-0.3-0.4-0.7-0.4-1.1-0.4c-1.6-0.8-3.1-1.8-3.6-3.7c-0.1-0.4-0.3-0.3-0.6-0.2c-1.2,0.3-2.4,0.1-3.5-0.2
		c-0.4-0.2-0.8-0.4-1.3-0.4c-0.6-0.4-1.2-0.9-1.8-1.3c-0.6-0.3-1.1,0.3-1.6,0.4c-0.6,0-1.1,0.2-1.6,0.3c-1.2,0.3-2.5,0.3-3.8,0.1
		c-4.1-0.5-6.8-3.8-6-7.3c0.2-0.3,0.5-0.8,0-1c-0.8-0.3-1.6-0.8-2.4-1c-0.2-0.5-0.5-0.9-1.1-1.1c-0.3-0.7-0.6-1.4-1-2.3
		c-0.3,2-1.6,3.2-2.7,4.6c-0.6,0.2-1,0.7-1.4,1.1c-2.6,1.7-5.4,2.6-8.5,2.7c0.1-0.5,0.5-0.3,0.8-0.3c0.5,0,0.8-0.1,0.8-0.7
		c0.1-0.6,0.4-0.8,1-1c2.3-0.5,4.4-1.4,6.2-3.1c1.9-1.9,2.9-4.1,2.7-6.8c0.1-1,0-1.9-0.3-2.9c-0.2-0.6,0.1-0.4,0.4-0.3
		c0.3,0.8,0.6,1.6,0.9,2.4c0.4,0.9,0.5,0.9,1.1,0.1c0.6-0.8,1.3-1.5,2.3-1.7c0.1,0.4-0.2,0.7-0.4,1c-0.7,1-1.4,2-1.5,3.3
		c-0.2,2.5,1.6,4.4,4.3,4.7c0.1,0,0.3,0,0.4,0c0.6,0.1,0.9,0.2,0.4,0.8C150.9,340.2,150.7,340.8,150.7,341.5z"/>
	<path fill="#642C09" d="M178.1,353.8c0.7-0.1,1.3-0.4,2.1-0.2c-3.1,3.8-6.6,7.4-10.3,10.6c-4.4,3.8-9.2,7.3-13.8,11
		c-3.1,2.5-6.1,5.2-8.2,8.6c-2.9,4.7-3.7,9.8-2.6,15.3c1-0.7,1.9-1.4,2.8-2c3.6-2.4,7.6-3.9,11.7-5.2c1.2-0.4,2.4-0.8,3.6-1.2
		c2.9-1,5.4-2.5,7.5-4.6c3.1-3.1,5.8-6.5,8.3-10c0.6-0.2,1.2-0.4,1.7,0.2c-2.6,3.6-5.4,7.2-8.5,10.5c-3.1,3.3-7,5.2-11.3,6.4
		c-5.3,1.5-10.3,3.7-14.6,7.2c-1.9,1.5-3.5,3.3-4.9,5.3c-0.1,0.2-0.3,0.3-0.4,0.5c0,0-0.1,0-0.3,0c0.6-1.7,1.3-3.2,2.4-4.6
		c0.4-0.6,0.6-1.1,0.4-1.9c-1-4.9-0.5-9.6,1.6-14.1c1.7-3.8,4.4-6.9,7.5-9.6c4.3-3.8,9-7.1,13.5-10.6c3.8-3,7.2-6.5,10.6-9.9
		C177.3,354.9,177.9,354.4,178.1,353.8z"/>
	<path fill="#642C09" d="M75.7,357.7c0.6,0.2,1.2,0.1,1.8,0.2c0.6,1.6,1.7,2.9,2.6,4.2c1,1.4,2.1,2.8,3.4,4c2.3,2.3,4.9,4,7.6,5.8
		c5.4,3.5,10,7.7,12.8,13.6c1.1,2.2,1.7,4.6,1.9,7.1c0.1,2.1-0.1,4.1-0.4,6.1c-0.1,0.4,0,0.8,0.3,1.2c0.9,1.1,1.7,2.4,2.3,3.7
		c0.1,0.2,0.3,0.3,0.1,0.6c-0.7-0.8-1.3-1.5-2-2.2c-3.1-3.2-6.9-5.3-11-6.8c-2.6-1-5.4-1.6-8-2.4c-3.9-1.3-7.5-3.1-10.5-6.1
		c-2.7-2.7-5.3-5.4-7.6-8.5c-0.1-0.1-0.3-0.2-0.4-0.4c0.2-0.4,0.4-1,1-1.1c1.7,1.6,3.1,3.5,4.6,5.2c4.5,5.2,9.9,8.6,16.6,10.1
		c3.8,0.9,7.5,2.2,10.9,4.3c0.8,0.5,1.5,1,2.4,1.5c0-0.2,0.1-0.3,0.1-0.4c1-6.7-1-12.5-5.5-17.5c-2.6-3-5.8-5.3-9.2-7.4
		C83.3,369,78.9,363.9,75.7,357.7z"/>
	<path fill="#642C09" d="M158.9,348.2c0.5-0.1,1.1-0.4,1.6-0.3c0,0.3-0.1,0.6-0.3,0.8c-2.3,4-3.6,8.4-4.8,12.8
		c-1,3.8-3.1,6.8-6.3,9.1c-2.8,2.1-5.9,3.6-8.8,5.5c-2.7,1.9-5.2,4-7.4,6.5c-0.1,0.1-0.1,0.2-0.3,0.3c0,0-0.1,0-0.3,0
		c0.4-1.1,1-2.1,1.5-3c0.4-0.6,0.4-1.1,0.3-1.7c-0.6-3.1-0.6-6.3,0.3-9.4c0.7-2.7,2.3-4.9,4.1-6.9c2.3-2.4,4.1-5.1,5.2-8.3
		c0.7-2.1,1-4.3,1.2-6.5c0.3-2.9,0.4-5.8,0.3-8.8c0-0.2,0-0.4,0.2-0.6c0.6,0.2,0.9,0.5,1.1,1.1c0,0.8,0,1.6,0,2.3
		c-0.1,1.9-0.1,3.8-0.2,5.6c-0.3,6-2.3,11.2-6.4,15.6c-2.5,2.6-4.2,5.5-4.6,9.2c-0.2,0.1-0.2,0.2,0,0.3c-0.1,1.9-0.1,3.7,0.4,5.7
		c0.8-0.6,1.5-1.2,2.2-1.7c2.7-2,5.6-3.7,8.6-5.4c4.1-2.4,6.6-5.8,7.8-10.4c0.8-3.3,1.7-6.6,3.3-9.7
		C158.1,349.7,158.6,349,158.9,348.2z"/>
	<path fill="#642C09" d="M95.3,350.6c0.5-0.3,1-0.4,1.5-0.5c0.3,2.8,0.5,5.6,1.2,8.3c1.1,4.6,3,8.6,6.7,11.7c3.6,3,7.8,5.2,11.1,8.7
		c0.8-2.1,1.3-4.1,1.6-6.2c0.5-3.2,0.6-6.4-0.6-9.6c-0.8-2.1-2.2-3.8-3.6-5.4c-3.1-3.6-4.9-7.8-5.8-12.4c0.5,0.1,1.1,0.2,1.5,0.5
		c0.9,4.1,2.8,7.7,5.5,11c2.2,2.7,4.3,5.5,4.7,9.1c0.3,2.1,0.2,4.1,0,6.2c-0.3,2.7-1,5.3-1.9,7.9c-0.1,0.3-0.1,0.6,0,0.8
		c0.3,0.5,0.4,1.1,0.5,1.8c-2-2.1-4-3.9-6.2-5.5c-1.9-1.5-3.9-2.9-5.9-4.3c-4.7-3.4-7.6-8-9-13.7c-0.6-2.4-0.7-4.9-1.1-7.3
		C95.5,351.3,95.4,351,95.3,350.6z"/>
	<path fill="#642C09" d="M140.5,341.3c0.5-0.4,0.9-0.8,1.4-1.1c0.1,3-0.1,6-0.7,9c-0.6,2.8-1.9,5.2-3.8,7.3
		c-1.6,1.8-3.6,3.3-5.5,4.7c-0.9,0.6-1.5,1.5-2.3,2.2c-0.2,0.2-0.2,0.5-0.3,0.7c-0.2,0.8-0.4,1.5-0.6,2.3c-0.3-2.2-1.2-4.4-1-6.7
		c0.1-1,0.3-1.9,0.6-2.8c0.1-0.2,0.1-0.3,0.1-0.5c0.1-2.9,0.1-5.8,0.2-8.7c0-0.3,0.1-0.6-0.3-0.6c-0.7,0-0.6-0.5-0.6-1
		c-0.1-1.8,0.1-3.6-0.1-5.4c-0.1-0.9,0.2-1.9,0.1-2.8c1,0,1.2,0.2,1.2,1.2c0,1.6,0,3.2,0.1,4.9c0.1,5.9-0.7,11.8,0.3,17.8
		c2-1.9,4.2-3.3,6.1-5C139.9,352.6,140.7,347.1,140.5,341.3z"/>
	<path fill="#642C09" d="M196.4,377.1c0.4-0.1,0.9,0.1,1.3,0.2c-1.7,4.3-4.4,7.8-8.5,10c-1.9,1-3.9,1.5-5.9,1.9
		c-2.8,0.6-5.6,0.4-8.3,1.5c0-0.1-0.1-0.2-0.1-0.3c0.7-0.4,1.4-0.9,2.1-1.3c0.5-0.3,0.8-0.7,1.1-1.2c1.2-1.9,2.1-4.1,3.4-6
		c1.2-1.6,2.3-3.2,3.6-4.7c0.7-0.3,1.3-0.2,2-0.2c-2.9,3.3-5.4,6.9-7.3,10.9C187.5,388,193.4,384.1,196.4,377.1z"/>
	<path fill="#642C09" d="M62.4,380.2c0.6-0.1,1.3-0.1,1.9-0.2c0.8,1,1.7,1.9,2.5,2.9c1.8,2,3.2,4.3,4.6,6.6c1,1.6,2.2,2.9,3.5,4.2
		c-0.3,0.2-0.6,0-0.7-0.2c-1-0.7-2.2-0.8-3.4-0.8c-3,0.1-6.1,0-9-0.9c-2.6-0.8-5-2-7-3.8c-0.9-0.8-1.8-1.5-2.4-2.5
		c0.2-0.4,0.6-0.6,1.1-0.7c5,4.9,12.4,7.5,17.4,6.2c-0.5-0.8-1.1-1.7-1.6-2.5C67.1,385.5,64.8,382.8,62.4,380.2z"/>
	<path fill="#642C09" d="M122.7,342.1c0-0.5,0-1.1,0-1.6c0-1.2,0-1.2,1.2-1.1c0.1,1.3,0.2,2.6,0.2,3.9c-0.1,4.3-0.2,8.6-1,12.8
		c-0.2,1-0.1,2.1,0.1,3.2c-1.6-3.1-5-4.2-7.1-6.7c-1.7-1.9-2.9-4.1-3.5-6.6c0.3-0.4,0.8-0.1,1.1-0.4c1.3,4.4,4.3,7.4,8,9.8
		c0.7-3.9,1-7.9,0.9-11.9C122.7,343.1,122.7,342.6,122.7,342.1z"/>
	<path fill="#642C09" d="M81.5,357c0.3-0.3,0.7-0.5,1.2-0.6c0.7,1,1.4,1.9,2.2,2.9c2,2.3,4.4,4.1,7.4,5.4c-1-4.5-1.6-9-1.9-13.5
		c0.5,0,1,0,1.4,0c0.3,4,0.8,8,1.6,11.9c0.4,1.8,0.8,3.5,1.8,5c0.1,0.2,0.1,0.4,0.1,0.6l0,0c-1.7-2.1-4.4-2.8-6.6-4.2
		c-2.2-1.4-4-3.1-5.6-5.1C82.5,358.7,81.9,357.9,81.5,357z"/>
	<path fill="#642C09" d="M172.9,353.2c0.4,0,0.8,0,1.1,0.4c-0.7,1.4-1.9,2.4-3,3.4c-2.5,2.3-5.3,4.2-8.3,5.9c-1.6,0.9-3.3,1.7-4.9,3
		c0.1-0.7,0.5-1.1,0.8-1.5c0.6-0.5,0.9-1,1-1.9c0.4-4.9,1.6-9.6,4.3-13.9c0.5,0,0.9,0.2,1.3,0.4c-2.3,3.7-3.5,7.7-4.2,11.9
		c-0.1,0.4-0.1,0.8,0.1,1.2C165.6,359.8,169.5,356.8,172.9,353.2z"/>
	<path fill="#642C09" d="M146.8,464.1c0-1-0.1-1.9,0.4-2.8c0.6-1.1,1.7-1.2,2.4-0.2c1,1.5,1.7,3.1,1.8,4.9c0.1,1.3,0.2,2.6-0.3,3.8
		c-0.4,1.2-1.7,1.6-2.6,0.6c-0.7-0.8-1.1-1.8-1.4-2.8c-0.2-0.6-0.3-1.2-0.4-1.8C146.8,465.2,146.8,464.7,146.8,464.1z M150.4,467.2
		c-0.2-1.7-0.5-3.3-1.2-4.8c-0.1-0.3-0.3-0.6-0.7-0.5c-0.4,0.1-0.4,0.4-0.4,0.7c-0.2,0.8-0.1,1.7-0.1,2.6c0.1,1.4,0.4,2.7,1.1,3.9
		c0.1,0.3,0.3,0.5,0.7,0.4c0.3-0.1,0.5-0.3,0.5-0.6C150.2,468.3,150.5,467.8,150.4,467.2z"/>
	<path fill="#642C09" d="M144.1,449.6c0.1,1.3,0.3,2.6,0.3,3.9c0.1,2.9,0.3,5.8,0.7,8.7c0.3,2.6,0.6,5.2,1.1,7.8
		c0,0.2,0.1,0.6-0.2,0.6c-0.4,0-0.7-0.2-0.8-0.6c-0.3-1-0.5-2-0.7-3c-0.7-3.8-1.1-7.6-0.9-11.4C143.7,453.6,143.9,451.6,144.1,449.6
		z"/>
	<path fill="#642C09" d="M151.1,405c-0.7,1.4-1.7,2.7-2.4,4.1c-1.8,3.7-2.8,7.5-3.4,11.5c-0.1,0.6-0.2,1.3-0.3,1.9
		c-0.1,0-0.2,0-0.3,0c0-0.6,0-1.1,0-1.7c0-1.9,0.1-3.8,0.6-5.6c0.8-3.7,2.4-6.9,4.9-9.7C150.5,405.3,150.7,405,151.1,405L151.1,405z
		"/>
	<path fill="#642C09" d="M106.9,437.3c-0.4-6.3-0.8-12.5-2.1-18.7C107,421.1,108.5,434,106.9,437.3z"/>
	<path fill="#642C09" d="M120.2,495.4c-2.1,4.2-8,7.1-13.1,6.3C112.1,500.4,116.7,498.9,120.2,495.4z"/>
	<path fill="#642C09" d="M103.4,428.3c1.4,5.1,1.2,10.3,0,15.5C103.4,438.7,103.4,433.5,103.4,428.3z"/>
	<path fill="#642C09" d="M140.4,432.7c-0.7-5.7-0.6-12.2,0.4-14.5c0,1.8,0,3.4,0,4.9c0,1.6,0.1,3.2-0.1,4.7
		C140.5,429.5,140.8,431.1,140.4,432.7z"/>
	<path fill="#642C09" d="M161,491c-1.7-0.9-3.1-2.1-4.2-3.6c-1.4-1.8-2.9-5.3-3.2-7.8c0.7,1.1,1.1,2.2,1.6,3.2
		c1.4,2.8,3.1,5.4,5.4,7.5C160.8,490.5,161,490.7,161,491L161,491z"/>
	<path fill="#642C09" d="M151.3,404.6c0,0.1,0,0.3-0.2,0.4l0,0C151.1,404.8,151.2,404.7,151.3,404.6z"/>
	<path fill="#642C09" d="M161.4,491.2c-0.1,0-0.3,0-0.4-0.2l0,0C161.2,491,161.3,491,161.4,491.2L161.4,491.2z"/>
	<path fill="#642C09" d="M151.5,404.5C151.5,404.4,151.5,404.4,151.5,404.5C151.6,404.4,151.6,404.4,151.5,404.5
		C151.5,404.4,151.5,404.4,151.5,404.5L151.5,404.5z"/>
	<path fill="#642C09" d="M95.3,368.7C95.4,368.7,95.4,368.7,95.3,368.7C95.4,368.7,95.4,368.7,95.3,368.7
		C95.4,368.7,95.4,368.7,95.3,368.7L95.3,368.7z"/>
	<path fill="#642C09" d="M161.4,491.2C161.4,491.2,161.4,491.2,161.4,491.2C161.4,491.2,161.4,491.2,161.4,491.2L161.4,491.2z"/>
	<path fill="#642C09" d="M151.5,404.5c-0.1,0.1-0.1,0.1-0.2,0.2C151.4,404.6,151.4,404.5,151.5,404.5L151.5,404.5z"/>
	<path fill="#285A0B" d="M188.7,372.3c-0.1,0-0.1,0-0.2-0.1C188.6,372,188.6,372.2,188.7,372.3L188.7,372.3z"/>
	<path fill="#509717" d="M67,361.8c-0.8,0.2-1.6,0.3-2.5,0.5c0.5-0.7,1.2-1.3,2.1-1.4C66.7,361.2,66.8,361.5,67,361.8z"/>
	<path fill="#509717" d="M116.9,307.8c-3.3,0.9-6.1,2.3-8.3,4.7c-0.7,0.7-1.3,1.3-2,2.1c-0.3,0.3-0.4,0.7-0.9,0.3
		c-0.4-0.4-0.9-1-0.5-1.4c0.4-0.5,0.3-0.8,0.1-1.3c-0.1-0.3-0.4-1,0.5-0.5c0.3,0.2,0.5-0.1,0.7-0.3c1.7-1.8,3.8-3,6.2-3.5
		C114,307.5,115.3,307.2,116.9,307.8z"/>
	<path fill="#509717" d="M148,329.8c-1.1,0.2-1.7,0.9-2.3,1.7c-0.6,0.8-0.7,0.8-1.1-0.1c-0.3-0.8-0.6-1.6-0.9-2.4
		c0.6-0.1,1.2,0.4,1.8,0.3c0.5-0.1,1.1,0.1,1.6-0.1c0.5-0.2,1-0.4,1.6-0.6C148.7,329.1,148.5,329.5,148,329.8z"/>
	<path fill="#285A0B" d="M49.7,351.6c-0.1-0.1-0.1-0.1-0.1-0.2c0,0,0,0,0.1-0.1C49.6,351.4,49.6,351.5,49.7,351.6L49.7,351.6z"/>
	<path fill="#285A0B" d="M113.7,340.2c-0.1-0.1-0.1-0.1-0.2-0.2l0,0C113.6,340.1,113.6,340.2,113.7,340.2L113.7,340.2z"/>
	<path fill="#285A0B" d="M113.5,340C113.5,340,113.5,340,113.5,340C113.5,340,113.5,340,113.5,340L113.5,340z"/>
	<path fill="#509717" d="M178.2,365c0.1-0.6-0.1-1.3,0.1-2c0.5-2.1,2-3.2,4-3.5c1.5-0.2,2.7-0.5,3.5-2.1c0.8-1.5,2.3-2.6,4-3.2
		c-0.2,0.6-0.7,1.1-1,1.6c-0.3,0.5-0.6,1-0.8,1.5c-0.3,0.8-0.3,1.5,0.4,2.1c0.2,0.1,0.5,0.3,0.3,0.6c-0.1,0.3-0.4,0.1-0.6,0
		c-1.4-0.2-2.7,0.1-3.8,1c-0.6,0.5-0.8,0.4-1-0.3c-0.3-1.2-0.6-1.2-1.5-0.3c-0.9,0.9-1.7,1.9-1.5,3.3c0,0.2,0,0.5,0.2,0.7
		c0.1,0.2,0.5,0.3,0.2,0.6c-0.3,0.2-0.6,0.6-0.9,0.3C179.4,365,178.8,365.1,178.2,365z"/>
	<path fill="#285A0B" d="M51.5,358.9C51.5,359,51.5,359,51.5,358.9C51.5,359,51.5,359,51.5,358.9C51.4,359,51.5,358.9,51.5,358.9z"
		/>
	<path fill="#73AB1B" d="M149.1,341c-0.8,0.2-1.6,0.4-2.4,0.3c0-0.8,0-1.6,0-2.3c0.9,0.2,1.6,0.8,2.4,1
		C149.6,340.2,149.2,340.6,149.1,341z"/>
	<path fill="#642C09" d="M180.6,353.5c-0.1,0-0.1,0-0.1-0.1C180.5,353.5,180.6,353.5,180.6,353.5z"/>
	<path fill="#9A4A12" d="M135.5,371.7c0,0.1,0,0.2,0,0.3C135.3,371.9,135.3,371.8,135.5,371.7z"/>
	<path fill="#9A4A12" d="M150.4,467.2c0.1,0.6-0.2,1.1-0.2,1.7c0,0.3-0.2,0.6-0.5,0.6c-0.4,0.1-0.6-0.2-0.7-0.4
		c-0.6-1.2-1-2.6-1.1-3.9c-0.1-0.8-0.1-1.7,0.1-2.6c0.1-0.3,0.1-0.6,0.4-0.7c0.4-0.1,0.6,0.3,0.7,0.5
		C150,463.9,150.2,465.6,150.4,467.2z"/>
</g>
<g enable-background="new    ">
	<path fill="#823822" d="M262.7,413c-3.4,0-6.1-1-8-2.9s-2.8-4.6-2.8-8.1V340c0-3.5,1-6.2,2.9-8.1c1.9-1.9,4.6-2.8,8.1-2.8h28.9
		c9.4,0,16.7,2.4,21.8,7.2c5.1,4.8,7.7,11.5,7.7,19.9s-2.6,15.1-7.7,19.9c-5.1,4.8-12.4,7.2-21.8,7.2h-18.2v18.7
		c0,3.4-0.9,6.1-2.7,8.1C269,412,266.3,413,262.7,413z M273.5,366.8h14.5c4.1,0,7.2-0.9,9.4-2.6c2.2-1.8,3.3-4.4,3.3-7.9
		c0-3.6-1.1-6.3-3.3-8c-2.2-1.7-5.3-2.6-9.4-2.6h-14.5V366.8z"/>
	<path fill="#823822" d="M358.1,413.2c-7.1,0-13.1-1.2-18.3-3.7c-5.1-2.5-9.1-6-11.8-10.5c-2.7-4.5-4.1-9.9-4.1-16.1
		c0-6,1.3-11.2,3.9-15.7c2.6-4.5,6.2-8,10.8-10.6c4.6-2.5,9.8-3.8,15.7-3.8c4.3,0,8.2,0.7,11.8,2.1c3.5,1.4,6.5,3.4,9.1,6
		c2.5,2.6,4.4,5.8,5.7,9.5c1.3,3.7,1.9,7.8,1.9,12.3c0,1.6-0.4,2.7-1.3,3.5c-0.9,0.7-2.2,1.1-4.1,1.1h-36v-9.9h26.1l-1.9,1.5
		c0-2.9-0.4-5.3-1.2-7.1c-0.8-1.8-1.9-3.2-3.5-4.1s-3.4-1.4-5.7-1.4c-2.4,0-4.5,0.6-6.3,1.7c-1.8,1.1-3.1,2.8-4.1,5
		c-0.9,2.2-1.4,4.9-1.4,8.2v1.1c0,5.6,1.2,9.5,3.7,11.9c2.5,2.4,6.3,3.6,11.5,3.6c1.7,0,3.7-0.2,5.9-0.6c2.2-0.4,4.4-1,6.4-1.8
		c2-0.8,3.8-0.9,5.3-0.4c1.5,0.5,2.6,1.4,3.5,2.6c0.8,1.2,1.3,2.6,1.4,4.1c0.1,1.5-0.3,3-1.1,4.5c-0.8,1.5-2.1,2.6-3.9,3.4
		c-2.7,1.3-5.7,2.2-8.8,2.8C364.4,412.9,361.3,413.2,358.1,413.2z"/>
	<path fill="#823822" d="M421.7,413.2c-5.9,0-10.7-0.9-14.5-2.7c-3.8-1.8-6.6-4.5-8.5-8.2c-1.9-3.6-2.8-8.2-2.8-13.7v-19.2h-4
		c-2.5,0-4.4-0.7-5.8-2c-1.4-1.3-2.1-3.3-2.1-5.8c0-2.5,0.7-4.4,2.1-5.7c1.4-1.3,3.3-1.9,5.8-1.9h4v-7.3c0-3.4,0.9-6.1,2.7-7.9
		c1.8-1.8,4.4-2.7,7.8-2.7c3.4,0,6,0.9,7.8,2.7c1.8,1.8,2.7,4.4,2.7,7.9v7.3h9.6c2.6,0,4.6,0.6,5.9,1.9c1.4,1.3,2.1,3.2,2.1,5.7
		c0,2.5-0.7,4.4-2.1,5.8c-1.4,1.3-3.4,2-5.9,2h-9.6V388c0,2.9,0.7,5,2.1,6.4c1.4,1.4,3.5,2.1,6.5,2.1c1.1,0,2.2-0.1,3.2-0.4
		c1-0.2,2-0.4,2.8-0.4c1.3-0.1,2.3,0.3,3.1,1.1c0.8,0.8,1.2,2.7,1.2,5.6c0,2.4-0.4,4.3-1.1,5.9c-0.7,1.6-2,2.8-3.8,3.5
		c-1.1,0.4-2.6,0.7-4.5,1C424.4,413.1,422.9,413.2,421.7,413.2z"/>
	<path fill="#823822" d="M453.8,344.7c-3.7,0-6.5-0.9-8.5-2.6c-2-1.7-3-4.2-3-7.5c0-3.2,1-5.7,3-7.4c2-1.7,4.8-2.6,8.5-2.6
		c3.8,0,6.7,0.9,8.7,2.6c2,1.7,2.9,4.2,2.9,7.4c0,3.3-1,5.8-2.9,7.5C460.6,343.8,457.7,344.7,453.8,344.7z M453.8,413
		c-3.3,0-5.8-1-7.6-2.9c-1.8-2-2.7-4.8-2.7-8.5v-37.1c0-3.7,0.9-6.5,2.7-8.5c1.8-2,4.3-2.9,7.6-2.9c3.4,0,6,1,7.8,2.9
		c1.8,2,2.8,4.8,2.8,8.5v37.1c0,3.7-0.9,6.5-2.7,8.5C459.9,412,457.3,413,453.8,413z"/>
	<path fill="#823822" d="M506.8,413.2c-5.9,0-10.7-0.9-14.5-2.7c-3.8-1.8-6.6-4.5-8.5-8.2c-1.9-3.6-2.8-8.2-2.8-13.7v-19.2h-4
		c-2.5,0-4.4-0.7-5.8-2c-1.4-1.3-2.1-3.3-2.1-5.8c0-2.5,0.7-4.4,2.1-5.7c1.4-1.3,3.3-1.9,5.8-1.9h4v-7.3c0-3.4,0.9-6.1,2.7-7.9
		c1.8-1.8,4.4-2.7,7.8-2.7c3.4,0,6,0.9,7.8,2.7c1.8,1.8,2.7,4.4,2.7,7.9v7.3h9.6c2.6,0,4.6,0.6,5.9,1.9c1.4,1.3,2.1,3.2,2.1,5.7
		c0,2.5-0.7,4.4-2.1,5.8c-1.4,1.3-3.4,2-5.9,2h-9.6V388c0,2.9,0.7,5,2.1,6.4c1.4,1.4,3.5,2.1,6.5,2.1c1.1,0,2.2-0.1,3.2-0.4
		c1-0.2,2-0.4,2.8-0.4c1.3-0.1,2.3,0.3,3.1,1.1c0.8,0.8,1.2,2.7,1.2,5.6c0,2.4-0.4,4.3-1.1,5.9c-0.7,1.6-2,2.8-3.8,3.5
		c-1.1,0.4-2.6,0.7-4.5,1C509.5,413.1,508,413.2,506.8,413.2z"/>
</g>
<g>
	<path fill="#FF7C00" d="M262.8,492.2c-3,0-5.2-0.8-6.8-2.3c-1.5-1.5-2.3-3.8-2.3-6.7v-48.7c0-2.9,0.8-5.1,2.3-6.7
		c1.5-1.5,3.8-2.3,6.8-2.3h23.1c4.8,0,8.9,0.7,12.2,2.1c3.4,1.4,5.9,3.4,7.7,6c1.8,2.6,2.6,5.6,2.6,9.1c0,3.9-1.1,7.3-3.4,10
		c-2.2,2.8-5.3,4.7-9.1,5.7v-1.5c4.5,0.8,8,2.6,10.5,5.5c2.5,2.8,3.7,6.5,3.7,10.9c0,5.9-2.1,10.5-6.3,13.9
		c-4.2,3.4-9.9,5.1-17.2,5.1H262.8z M270.4,452h12.4c3.1,0,5.5-0.6,6.9-1.7s2.2-2.9,2.2-5.2c0-2.3-0.7-4-2.2-5.1s-3.8-1.7-6.9-1.7
		h-12.4V452z M270.4,479.4h14.1c3.2,0,5.6-0.6,7-1.8c1.5-1.2,2.2-3.1,2.2-5.5c0-2.5-0.7-4.3-2.2-5.5c-1.5-1.2-3.8-1.8-7-1.8h-14.1
		V479.4z"/>
	<path fill="#FFAE24" d="M335.1,493.2c-3.6,0-6.8-0.7-9.5-2c-2.7-1.3-4.9-3.1-6.4-5.4c-1.5-2.3-2.3-4.9-2.3-7.9c0-3.4,0.9-6.1,2.6-8
		c1.8-2,4.6-3.4,8.5-4.2c3.9-0.8,9.1-1.3,15.6-1.3h5.2v7.9h-5.2c-2.5,0-4.5,0.2-6.1,0.5c-1.6,0.3-2.8,0.9-3.5,1.6
		c-0.8,0.7-1.1,1.7-1.1,2.8c0,1.5,0.5,2.6,1.6,3.6c1,1,2.5,1.4,4.5,1.4c1.6,0,3-0.3,4.2-1s2.2-1.7,3-2.9c0.8-1.2,1.1-2.7,1.1-4.3
		v-11c0-2.3-0.6-3.9-1.7-4.8c-1.2-1-3.2-1.4-6-1.4c-1.5,0-3.2,0.2-5.1,0.5s-4,1-6.3,1.8c-1.7,0.6-3.1,0.7-4.4,0.3s-2.1-1.2-2.8-2.3
		c-0.7-1.1-1-2.2-1-3.5c0-1.3,0.4-2.5,1.2-3.6s2-2,3.6-2.6c3-1.1,5.8-1.9,8.4-2.3c2.6-0.4,4.9-0.6,7-0.6c5.2,0,9.4,0.7,12.8,2.2
		c3.4,1.5,5.9,3.7,7.6,6.8c1.7,3.1,2.5,7,2.5,11.8v19.1c0,2.8-0.7,4.9-2,6.3c-1.3,1.4-3.2,2.2-5.8,2.2c-2.6,0-4.6-0.7-5.9-2.2
		c-1.3-1.5-2-3.6-2-6.3V482l0.6,1.3c-0.3,2-1,3.7-2.2,5.2c-1.1,1.5-2.6,2.6-4.4,3.4C339.6,492.8,337.5,493.2,335.1,493.2z"/>
	<path fill="#86B044" d="M396.2,493.2c-5.2,0-9.7-1-13.5-2.9c-3.8-2-6.8-4.7-9-8.4c-2.1-3.7-3.2-8-3.2-13c0-3.8,0.6-7.2,1.8-10.2
		c1.2-3,2.9-5.5,5.2-7.7c2.3-2.1,5-3.7,8.1-4.8c3.1-1.1,6.7-1.7,10.6-1.7c5.2,0,9.7,1,13.5,2.9c3.8,2,6.8,4.7,8.9,8.4
		c2.1,3.6,3.2,8,3.2,13c0,3.7-0.6,7.1-1.8,10.1s-2.9,5.6-5.1,7.7c-2.2,2.1-4.9,3.7-8.1,4.8C403.6,492.7,400.1,493.2,396.2,493.2z
		 M396.2,480.8c1.7,0,3.2-0.4,4.5-1.3c1.3-0.8,2.3-2.1,3.1-3.9c0.7-1.7,1.1-4,1.1-6.8c0-4.2-0.8-7.3-2.5-9.1
		c-1.6-1.9-3.7-2.8-6.2-2.8c-1.7,0-3.2,0.4-4.5,1.2c-1.3,0.8-2.4,2.1-3.1,3.8c-0.8,1.7-1.1,4-1.1,6.9c0,4.2,0.8,7.2,2.5,9.1
		C391.5,479.9,393.6,480.8,396.2,480.8z"/>
	<path fill="#009FBD" d="M460.2,493.2c-3.6,0-6.8-0.9-9.6-2.6c-2.8-1.7-4.6-4-5.5-6.9l1-3.9v4.6c0,2.8-0.7,4.9-2.1,6.3
		c-1.4,1.5-3.5,2.2-6.1,2.2c-2.7,0-4.8-0.7-6.2-2.2c-1.4-1.5-2.1-3.6-2.1-6.3v-51.3c0-2.8,0.7-4.9,2.2-6.3c1.5-1.5,3.5-2.2,6.2-2.2
		c2.7,0,4.8,0.7,6.3,2.2c1.5,1.5,2.2,3.6,2.2,6.3v20.2h-1.1c1-2.6,2.8-4.7,5.6-6.3c2.8-1.6,5.9-2.5,9.4-2.5c4,0,7.6,1,10.6,2.9
		s5.4,4.7,7.1,8.3c1.7,3.6,2.6,7.9,2.6,13c0,5-0.8,9.3-2.6,13s-4.1,6.5-7.1,8.4C467.8,492.2,464.3,493.2,460.2,493.2z M454.9,480.8
		c1.7,0,3.2-0.4,4.5-1.3c1.3-0.8,2.3-2.1,3.1-3.9c0.8-1.7,1.1-4,1.1-6.8c0-4.2-0.8-7.3-2.5-9.1c-1.6-1.9-3.7-2.8-6.2-2.8
		c-1.7,0-3.2,0.4-4.5,1.2c-1.3,0.8-2.4,2.1-3.1,3.8c-0.8,1.7-1.1,4-1.1,6.9c0,4.2,0.8,7.2,2.5,9.1
		C450.2,479.9,452.3,480.8,454.9,480.8z"/>
	<path fill="#009C83" d="M504.4,493.2c-3.6,0-6.8-0.7-9.5-2c-2.7-1.3-4.9-3.1-6.4-5.4c-1.5-2.3-2.3-4.9-2.3-7.9c0-3.4,0.9-6.1,2.6-8
		c1.8-2,4.6-3.4,8.5-4.2c3.9-0.8,9.1-1.3,15.6-1.3h5.2v7.9h-5.2c-2.5,0-4.5,0.2-6.1,0.5s-2.8,0.9-3.5,1.6c-0.8,0.7-1.1,1.7-1.1,2.8
		c0,1.5,0.5,2.6,1.6,3.6c1,1,2.5,1.4,4.5,1.4c1.6,0,3-0.3,4.2-1s2.2-1.7,3-2.9c0.8-1.2,1.1-2.7,1.1-4.3v-11c0-2.3-0.6-3.9-1.7-4.8
		s-3.2-1.4-6-1.4c-1.5,0-3.2,0.2-5.1,0.5s-4,1-6.3,1.8c-1.7,0.6-3.1,0.7-4.4,0.3s-2.1-1.2-2.8-2.3c-0.7-1.1-1-2.2-1-3.5
		c0-1.3,0.4-2.5,1.2-3.6c0.8-1.1,2-2,3.6-2.6c3-1.1,5.8-1.9,8.4-2.3c2.6-0.4,4.9-0.6,7-0.6c5.2,0,9.4,0.7,12.8,2.2s5.9,3.7,7.6,6.8
		c1.7,3.1,2.5,7,2.5,11.8v19.1c0,2.8-0.7,4.9-2,6.3c-1.3,1.5-3.2,2.2-5.8,2.2c-2.6,0-4.6-0.7-5.9-2.2s-2-3.6-2-6.3V482l0.6,1.3
		c-0.3,2-1,3.7-2.2,5.2c-1.1,1.5-2.6,2.6-4.4,3.4C508.8,492.8,506.7,493.2,504.4,493.2z"/>
	<path fill="#86AA43" d="M572.5,493.2c-3.6,0-6.8-0.9-9.6-2.6c-2.8-1.7-4.6-4-5.5-6.9l1-3.9v4.6c0,2.8-0.7,4.9-2.1,6.3
		c-1.4,1.5-3.5,2.2-6.1,2.2c-2.7,0-4.8-0.7-6.2-2.2c-1.4-1.5-2.1-3.6-2.1-6.3v-51.3c0-2.8,0.7-4.9,2.2-6.3c1.5-1.5,3.5-2.2,6.2-2.2
		c2.7,0,4.8,0.7,6.3,2.2c1.5,1.5,2.2,3.6,2.2,6.3v20.2h-1.1c1-2.6,2.8-4.7,5.6-6.3s5.9-2.5,9.4-2.5c4,0,7.6,1,10.6,2.9
		c3.1,2,5.4,4.7,7.1,8.3c1.7,3.6,2.6,7.9,2.6,13c0,5-0.8,9.3-2.6,13c-1.7,3.7-4.1,6.5-7.1,8.4C580.1,492.2,576.6,493.2,572.5,493.2z
		 M567.2,480.8c1.7,0,3.2-0.4,4.5-1.3c1.3-0.8,2.3-2.1,3.1-3.9c0.8-1.7,1.1-4,1.1-6.8c0-4.2-0.8-7.3-2.5-9.1
		c-1.6-1.9-3.7-2.8-6.2-2.8c-1.7,0-3.2,0.4-4.5,1.2c-1.3,0.8-2.4,2.1-3.1,3.8c-0.8,1.7-1.1,4-1.1,6.9c0,4.2,0.8,7.2,2.5,9.1
		C562.5,479.9,564.6,480.8,567.2,480.8z"/>
</g>
</svg>
