<?xml version="1.0" encoding="utf-8"?>
<!-- Generator: Adobe Illustrator 18.1.1, SVG Export Plug-In . SVG Version: 6.00 Build 0)  -->
<svg version="1.1" id="Layer_1" xmlns="http://www.w3.org/2000/svg" xmlns:xlink="http://www.w3.org/1999/xlink" x="0px" y="0px"
	 viewBox="0 0 1024 1024" enable-background="new 0 0 1024 1024" xml:space="preserve">
<g>
	<path d="M328.3,509.4c-13.9-2.7-27.5-4.7-40.6-8.1c-35.1-9-70.1-18.7-105.1-28.1c-1.3-0.3-2.6-0.7-3.8-1.1c-8.7-2.3-8.7-2.3-7-12.4
		c10,3,20,6,30,9.1c41.6,13.1,84,22.9,127,29.8c3.5,0.6,5.7-0.1,7.7-3.5c11.3-18.7,28.2-25.7,48.5-17.9c12.3,4.8,21.2,2.9,29.8-6
		c3.2-3.3,6.8-6.3,10.8-10c-7.7-3.1-13.8-6.7-22.2-5.6c-28.8,3.9-56.6-0.9-83.6-11.3c-24.1-9.3-44.5-23.9-61-43.6
		c-4.3-5.1-5.7-12.5-8.8-18.6c-1-1.9-2.8-3.9-4.8-4.7c-8.3-3.4-16-8.1-15.4-18c0.5-7.9,3.1-15.9,6-23.4c3.6-9.4,8.5-18.3,13-27.7
		c-15.3-10.6-14.5-25.8-11-41.6c3.3-15.1,12.7-25.8,25.7-33.3c3-1.7,4.1-3.5,3.6-7.1c-0.9-6.7,1-12.9,5.2-18.2
		c9.7-12.5,22.1-19.9,38.2-20.4c7-0.2,13.1,2.3,17.9,7.4c2.3,2.5,4.2,2.4,7.3,1.5c5.7-1.6,11.7-1.9,17.4-3.1
		c1.6-0.3,3.3-1.8,4.3-3.2c25.7-34.1,59.2-56.5,100.7-66.6c7.4-1.8,15.7-2.3,23.1-1c14.8,2.7,21.1,14.4,23.6,27.8
		c1.7,9.2,1.7,18.8,2.3,28.2c0.2,2.6,0,5.2,0,8.9c2.6-1.8,4.5-3.2,6.6-4.4c4.5-2.5,8.8-5.4,13.6-7.2c7-2.5,10.5,0.3,10.7,7.7
		c0,1.1,0.1,2.2-0.5,2.2c4.3-3.6,8.3-7.5,12.9-10.7c4.5-3.1,9.2-6.1,14.3-7.8c7.7-2.5,13.8,4.3,11.7,12.2c-0.3,1.3-0.6,2.6-0.9,3.9
		c0,0.2,0.3,0.5,0.2,0.3c8.5-3.9,16.8-8,25.3-11.4c3.4-1.4,7.5-1.6,11.3-1.5c5.8,0.1,8.3,4.2,6.3,9.6c-1,2.6-2.6,4.9-4.5,8.3
		c4.5-0.5,8.2-1,12-1.3c9.3-0.6,18.6-1.7,27.9-1.5c13.9,0.3,16.7,5.7,10.5,19.3c6,3,12.2,5.8,18.1,9.1
		c28.5,16.3,50.4,39.4,68.3,66.6c25.1,38.3,40.4,80.2,47.4,125.4c6.7,43.1,9.4,86.4,6.9,129.9c-1.6,28.2-3.8,56.4-6.4,84.6
		c-0.5,5.1,0.9,6.8,4.9,8.9c15.5,8,30.8,16.4,46.3,24.4c3.3,1.7,4.5,3.8,4.1,7.4c-0.3,2.8-0.1,5.6-0.1,8.6c-0.8-0.1-1.3,0.1-1.7-0.2
		c-39.8-23.8-81.7-43.5-123.9-62.5c-16.1-7.2-32.6-13.5-49.1-19.6c-10.9-4-15.8-2.1-22.8,7.2c-2.8,3.7-4.9,7.8-7.7,12.3
		c22.7,9.8,45.1,18.5,66.7,29c21.6,10.5,42.4,22.8,63.5,34.3c-0.3,0.5-0.5,0.9-0.8,1.4c-8.7-4.4-17.3-9-26-13.2
		c-25.9-12.6-51.8-25.2-77.9-37.4c-7.2-3.3-15.1-5.1-22.7-7.6c-2.6-0.9-4.8-1.2-5.9,2.2c-1,3.3-0.4,5,3,6.5
		c41,18.5,81.2,38.6,119.7,62c28.8,17.5,56.4,36.7,82.3,58.2c1.7,1.4,2.9,4.2,3.2,6.5c0.5,4.4,0.1,8.8,0.1,14.6
		c-24.2-21.8-48.8-41.1-75.9-58c-3.1,7.6-6,14.8-9.1,22c-28.8,66.4-74.2,117.6-140.7,147.4c-57.1,25.6-115.7,27.4-172.8-0.7
		c-37.9-18.6-64.8-48-75.4-90c-13.3-52.7,10.2-108.5,56.9-136.3c35.3-21,70.8-17.2,106-0.8c21.3,9.9,35.5,27.6,43.6,49.3
		c17.6,46.9-13.6,103.2-62.2,112.7c-7.6,1.5-15.5,1.3-23.3,1.8c-1.4,0.1-2.8,0-4.1,0c-0.1,0.5-0.2,1.1-0.3,1.6
		c6.3,1.4,12.6,2.9,19,4.1c56.5,10.5,99.1-13.1,133.8-55.3c24-29.2,36.5-63.8,44.4-100.3c0.3-1.6-0.7-4.6-1.9-5.2
		c-15.3-7.3-30.8-14.2-46.1-21.3c-3.4-1.6-5.7-1.5-8.2,2.2c-4.6,6.6-16.9,6.9-22.6,0.1c-4.8-5.7-9.5-9.1-17.3-9.4
		c-7.2-0.3-11.9-5.7-14.1-12.5c-1.1-3.2-3-4.9-6-6c-18-6.7-36.5-11.3-55.4-14.4c-3.2-0.5-5,0.2-6.6,3.4c-4.8,9-15.4,12.4-25.5,6.3
		c-7.9-4.8-15.5-8.5-24.9-9.4c-7.2-0.7-12.1-6.7-15.4-13.1c-1.7-3.2-4-5-7.5-5.8c-16.1-3.4-32.1-7.1-48.2-10.5c-1.2-0.3-3,0.2-4,1
		c-8.2,6.5-15.7,7.2-24.7,1.6c-3.5-2.2-6.7-3.4-11.1-2.6c-6.2,1.1-12-1.1-16.2-5.9c-2.7-3-5.8-3.4-9.4-3.3
		c-15.4,0.4-29.8,5.3-44.1,9.9c-14.4,4.7-28.6,9.8-42.9,14.9c-10.4,3.7-19.5-1.7-21.4-12.6c-1-5.8,1.8-10.6,8-12.7
		c14.5-4.8,29.1-9.4,43.6-14.1c1.5-0.5,3-1,5.9-2c-2.8-1.1-4.2-1.7-5.7-2.2c-31.4-10.3-62.9-20.5-94.3-30.9c-7-2.3-6.9-2.4-6.1-10.9
		c6.4,1.9,12.7,3.7,19,5.7c33.3,10.6,66.6,21.2,99.9,31.9c1.1,0.4,2.3,0.7,3.3,1.2c2.6,1.4,3.5,3.4,0.5,5.2
		c-4.7,2.8-9.3,5.9-14.4,7.8c-15,5.5-30.2,10.4-45.3,15.6c-2.8,1-5.7,1.8-4.2,5.8c1.5,3.8,4.2,3.4,7.4,2.4
		c18.1-6.1,36.2-12.4,54.5-18.1c11.6-3.5,23.5-6,36-9.1c-0.6-2.8-0.9-6.5-2.1-9.8c-0.5-1.5-2.7-2.9-4.4-3.3
		c-13.9-3.9-27.9-7.5-41.9-11.2c-0.6-0.2-1.3-0.3-1.8-1.3c6.4,1.2,12.7,2.4,19.1,3.6c7.7,1.5,15.4,2.9,23,4.5
		c3.3,0.7,4.9-0.1,5.4-3.7C326,518.9,327.2,514.5,328.3,509.4z M639.6,557.1c0.3,0.5,0.5,1,0.8,1.6c-4.3,4.1-9.1,7.8-12.9,12.2
		c-13.1,15.4-15.9,33.2-10.5,52.4c1.2,4.5,4.1,8.1,9.6,7.8c5.2-0.3,5.4-4.7,6.6-8.2c2-5.6,3.1-11.6,5.5-17
		c8.6-18.9,19.6-34.6,44.1-30.8c0.3,0,0.7,0.1,1,0c2.5-1.6,5.8-2.7,7.4-5c1.6-2.4,2.3-6,2.2-9c-0.7-13.1-1.4-26.2-3-39.3
		c-1.5-13-4-26-6-38.9c-0.2-1.4,0.6-3,0.9-4.5c1.3,1,3.3,1.6,3.9,2.9c2.1,4.5,4.5,9,5.6,13.8c2.8,12,5.3,24,7.2,36.2
		c0.9,5.7,3.3,8.9,8.6,10.8c12.1,4.5,24.3,5.1,36.7,1.7c1.5-0.4,3-0.7,4.5-1.1c-9.7,12.9-23.8,11.1-37.6,11.5
		c0.1,2.4,0.2,4.3,0.3,6.3c0.3,7.3,1.4,14.7,0.8,21.9c-0.5,5.8,1.3,8.2,6.3,10.4c20.6,8.9,41.1,18.1,61.6,27.2
		c0.7,0.3,1.5,0.4,2.7,0.6c0.4-2.1,0.9-3.8,1.1-5.6c2-23.9,4.7-47.7,5.9-71.6c2.5-48.4,0-96.6-9-144.2c-9.4-49.7-28-95.2-60.9-134.3
		c-19.5-23.2-42.9-41.2-71.3-52.3c-5-2-10.2-3.4-16.2-5.3c0.8,2.2,1,3.2,1.4,4.1c17,35,20.7,71.9,15.3,110
		c-6.6,46.3-24.7,87.4-56.2,122.3c-0.9,1-1.4,3.4-0.9,4.6c6,15.6,6.2,31.1-0.1,47.1c14.6,6,29,11.9,43.9,18
		c-1.2-8.6-2.6-16.1-3.1-23.7c-1-15.4-0.3-30.9,9.8-43.3c17.8-22,44.8-30.4,70.4-20.8c29.1,11,43.8,34.3,49.9,63.8
		c0.3,1.3-0.2,2.7-0.3,4.1c-2.2-2.1-3.3-4.4-4.6-6.7c-4.5-7.9-8.4-16.3-13.7-23.7c-11.1-15.5-24.7-28-44.7-30.8
		c-23.4-3.3-51.9,11.5-56.6,38.5c-3,17-0.3,33.5,3.7,49.9c2.6,11,6,21.9,9.2,33.8c-7.5-6.1-14.8-10.6-23.7-10.5
		c-16.1,0.2-29.2,7.2-37.5,20.9c-9.1,15-11.3,31.2-3.8,47.7c1,2.2,3.4,4.2,5.6,5.3c3.9,2,5.4,0.9,5.5-3.5c0.1-2.2,0-4.3,0.1-6.5
		c0.6-19.7,8.1-35.8,24.9-46.9C632.8,559.3,636.4,558.5,639.6,557.1z M513.6,740.2c-0.7-3.8-1.5-6.5-1.5-9.3
		c-0.1-5.8-2.6-10.1-8-12.1c-5.6-2-11.3-2.1-15.8,2.5c-6.8,6.9-8.3,15.4-6,24.5c2.2,8.6,7.4,14.8,16.4,17.2
		c23.6,6.3,47.2-17.4,41.8-42.1c-5.3-24.5-28.6-38.6-53.5-31.1c-43,12.9-49.8,64.9-24.9,92.5c18.3,20.3,41.7,22.9,66.5,14.6
		c42-14,60.3-60.4,48.1-95c-12.1-34.3-38.8-52.5-73.5-57.7c-57.7-8.6-108.9,37.5-114.8,94c-4.9,46.6,13.1,84.2,51,112
		c44.5,32.5,94.4,38.5,146.5,26.9c61-13.6,107.1-50.2,142.9-100.4c15.8-22.2,27.5-46.6,35.9-72.6c1.6-4.9,0.9-7.8-3.9-10.4
		c-13-7.1-25.7-14.7-38.5-22.1c-5.2-2.9-10.5-5.7-16.2-8.7c-0.5,2.1-1,3.7-1.3,5.3c-6.8,33.5-19.1,64.9-39.6,92.3
		c-35,46.7-80,72.9-140.3,66.4c-26.3-2.8-49.2-12.4-67.5-32.7C439,773.9,433.5,751,440.1,725c7.7-30.5,43.1-56.1,77.3-44.2
		c20,7,32.1,21,34.4,42.4c2.1,19.5-8.4,38.2-25.7,47c-13.8,7-27.8,7.1-40.9-1.2c-11.9-7.6-15.2-19.6-14.3-33.1
		c1.3-19.8,23.1-32.8,40-23.9C520.7,717.3,523,732.4,513.6,740.2z M257.9,382.6c0.1,0.8-0.1,1.4,0.1,1.7c0.5,0.9,1,1.7,1.7,2.4
		c41.1,47.2,92.6,67.4,154.2,54.7c44.4-9.1,76.4-35.7,91.2-79.5c10.4-30.8,10-62.7,2.2-94.2c-4.6-18.4-11-36.4-11.8-55.6
		c-0.5-12.5,0.7-25,0.1-37.4c-0.4-9.2-1.6-18.6-3.9-27.6c-2.8-10.8-10.1-15.8-21.2-14.9c-7.9,0.7-16.1,1.9-23.3,4.9
		c-34.5,14.5-64.5,35.5-87.9,64.9c-10.5,13.1-19.7,27.2-29.6,40.8c-1.4,1.9-3.1,3.6-4.7,5.4c-0.5-0.4-1-0.8-1.5-1.2
		c5.6-16.1,13.2-31.2,23.2-45.6c-5,1.1-9.8,2.4-13.8,4.9c-11.3,6.9-21.2,15.8-28.9,26.5c-8,11.2-15.6,22.8-22.5,34.7
		c-10.4,17.8-20.5,35.8-29.7,54.2c-4.7,9.4-7.8,19.8-10.8,30c-2,6.7,0.6,11.7,6.4,13.9c49.4,18.4,99.6,25.1,151.2,10.1
		c20.4-5.9,39.2-15.1,54-30.7c2.8-2.9,4.7-6.6,7-9.9c-0.3-0.4-0.6-0.7-0.9-1.1c-3.4,0.6-6.8,1.4-10.2,1.6c-1.9,0.1-3.9-0.9-5.8-1.3
		c1-1.7,1.6-4,3.1-5.1c13.6-10.3,31.1-4.9,36.8,11.4c0.5,1.6-0.1,3.5-0.2,5.3c-1.9-0.7-4.1-1-5.6-2.3c-2.3-2-4.1-4.5-6.3-7
		c-1.9,3.3-2.9,6.7-5.1,8.7c-8.6,7.8-16.8,16.7-26.7,22.4c-43,24.6-89.5,30.9-138.1,23.5C286.5,389.1,272.5,385.6,257.9,382.6z
		 M504.5,216.6c2.4,9.9,4.6,20,7.3,30c8.1,29.8,13.4,59.9,9.3,90.8c-6.2,45.8-28.3,81.1-70,103c-0.4,0.2-0.6,0.7-1,1.3
		c26,8.5,51.2,18.9,79.6,21.5c-1.6-2.2-2.6-3.9-3.9-5.3c-3.9-4.1-8.2-7.9-11.7-12.3c-3.3-4.1-6.3-8.6-8.4-13.4
		c-2.2-5.1-0.6-8.9,3.4-11.5c1.1,8.1,5.8,14.1,11.5,19.3c10.5,9.7,21.1,19.4,31.5,29.2c1.3,1.2,2,3.2,3,4.8
		c-1.6,0.8-3.1,1.5-4.7,2.3c-2.4,1.1-5.6,1.4-7,3.2c-7.1,8.6-14,17.3-20.4,26.5c-4.5,6.5-4.1,6.8,1.4,11.8c0.2,0.1,0,0.6,0,1.7
		c-1.2,0-2.4,0.1-3.5,0c-5.9-0.9-11.9-1.7-17.8-2.7c-36.2-6.4-53.7,28.1-47.7,51.8c1.2,4.7,4,9.1,6.9,13.1c2.6,3.5,6.7,5.3,11.5,3.7
		c0.2-3.9,0.2-7.5,0.6-11.2c1.4-12.9,4.8-25.2,13.8-35.2c1.8-2,4.5-3.1,6.7-4.6c0.6,0.5,1.2,1,1.8,1.5c-0.8,2.9-1.2,6-2.4,8.7
		c-2.4,5.3-5.5,10.3-7.7,15.6c-3.9,9.2-3.7,18.7,0.9,27.6c1.7,3.2,5.1,6.3,8.4,7.8c6.8,2.9,10.3,0.4,11.4-7c0.3-2,0.6-4,0.9-5.9
		c2.3-15.4,8.5-28.7,21.1-38.4c4.5-3.5,9.2-6.6,13.5-10.3c11.2-9.7,22.7-19.1,33.2-29.5c12.6-12.5,15.9-28.3,11.9-45.3
		c-5.7-24.3-17.8-45.4-34.5-63.9c-1.8-2-6.8-3.9-3.6-7.3c2.9-3.2,6.1,0.5,8.6,2.4c11.6,8.6,20,19.9,26.5,32.7
		c2.7,5.4,5.4,10.9,8.1,16.3c0.7-0.4,1-0.4,1.2-0.7c0.9-1,1.7-2,2.5-3.1c21.7-30.4,38.8-62.8,46.1-99.8c7.8-39.3,6.8-77.9-9.2-115.2
		c-8.3-19.3-2.7-14.9-23.3-18.9c-32.4-6.3-64-4.3-94.1,10.5C512.5,213.7,508.7,214.9,504.5,216.6z M419.6,498.6
		c-0.2,0.4-0.5,0.7-0.7,1.1c-3.5-1.4-7.1-2.7-10.5-4.2c-5.6-2.6-11-5.5-16.6-8c-25.7-11.6-48.1-0.8-55,26.5
		c-3.3,13.1-1.8,25.4,6.2,36.6c2.9,4,6.8,6,12.1,5.2c-0.4-1.7-0.7-2.9-0.9-4c-0.3-1.1-0.6-2.3-0.8-3.4c-3-16.6,0-31.8,11.2-44.8
		c1.6-1.9,4.2-2.9,6.3-4.3c0.4,0.5,0.7,0.9,1.1,1.4c-1.8,3.7-3.6,7.4-5.5,11c-5.4,10.8-7.7,22.1-4.3,33.8c1.4,4.9,4.1,10,7.5,13.7
		c1.9,2.1,6.7,2.7,9.9,2.3c3.9-0.6,4.1-4.7,4.2-8.1c0.2-6.2,0.3-12.3,0.5-18.5c0.3-8.2,2.5-15.8,8-22.1c3-3.5,6.7-5.3,11.5-4.1
		c4.2,1.1,8.4,2,12.6,2.9c6.6,1.4,12.7,1,18-4.2c9.5-9.5,19.4-18.7,29-28.1c1.4-1.3,2.5-2.9,3.9-4.7c-10.3-3.3-19.9-6.5-29.6-9.6
		c-1-0.3-2.7,0.1-3.5,0.8c-8.1,7.1-16.1,14.3-24.3,21.6C413.1,490.8,416.3,494.7,419.6,498.6z M532,479
		c-15.5-3.7-30.4-7.4-45.3-10.7c-1.5-0.3-4.1,1-5,2.4c-10.7,16.4-23.9,30.2-39.3,42.2c-1.2,1-2.4,2-4,3.5c6.4,1.6,12,2.9,17.6,4.5
		c2.8,0.9,4.5,0.1,6.5-1.9c9-9.1,19.9-12.9,32.6-11.8c3.8,0.3,7.5,1.3,11.3,1.6c1.6,0.1,4-0.2,4.8-1.3
		C518.2,498.5,524.8,489.1,532,479z M523.6,568c11.8,3.9,23.2,7.7,34.6,11.5c-1.7,0.4-3.3,0.1-4.8-0.3c-8.6-1.9-17.2-3.8-25.8-5.6
		c-7.3-1.5-8.5-0.3-7.5,7.4c19.5,4.9,39,9.8,58.5,14.6c0.7-5,1.1-10.2,2.2-15.2c0.7-3.3-0.4-4.5-3.2-5.4c-7.8-2.3-15.5-4.9-23.4-7.2
		c-7.1-2.1-14.3-3.9-21.4-5.9c1.1-0.8,2.1-0.7,3-0.5c14.1,3.3,28.1,6.8,42.2,9.9c1.7,0.4,4.6,0,5.3-1.1c2.5-4,4.3-8.5,6.7-13.5
		c-14.7-3.2-29-6.4-43.3-9.4c-1.5-0.3-3.6-0.2-4.7,0.7C534.9,553.2,528.3,559,523.6,568z M639.5,534.1c0.4-0.5,0.9-1,1.3-1.4
		c-1.2-1.7-2-4.3-3.7-5.1c-14.8-6.8-29.8-13.1-44.7-19.9c-3.2-1.4-4.8-0.7-7.2,1.6c-8.9,8.7-18.2,17-27.5,25.3
		c-0.8,0.7-1.9,1.1-3.9,2.1c2.6,1,3.4,1.3,4.1,1.5c13.1,3.2,26.1,6.5,39.2,9.6c1.1,0.3,2.6-0.4,3.6-1
		C612.6,538.9,624.8,532.9,639.5,534.1z M393.6,539.2c17.2,3.7,33.9,7.3,50.3,10.8c2.5-6.6,4.7-12.5,7.3-19.2
		c-14.3-3.3-28.2-6.7-42.1-9.7c-9.6-2.1-11.9-0.6-14.4,9.1C394,532.9,394,535.9,393.6,539.2z M292.9,233c-0.2-0.4-0.4-0.8-0.6-1.1
		c-12.9,2.7-25.1,7.1-34.5,17.1c-9.6,10.3-13.8,22.6-11.8,36.7c0.8,5.5,2.4,10.7,8.5,13.9c2.6-5.8,6.6-10.4,3.4-17.6
		c-5.4-12.1,1.9-21.7,15.3-21.3c0.9,0,2.3-0.6,2.8-1.3C281.6,250.5,287.2,241.7,292.9,233z M273.5,226.6c10.1-1.4,19.4-2.6,28.7-3.9
		c1.2-0.2,2.4-1.1,3.3-2c5.9-6.3,11.8-12.6,17.8-19.1c-7.3-6-16-4.7-24.4-0.6C287.5,206.5,276.4,212.6,273.5,226.6z M393.6,544.1
		c0.3,4.2-2.3,8.4,2.5,9.5c15.4,3.5,31,6.6,46.3,9.8c1.9-5.9,0-8.6-4.7-9.8c-7.1-1.8-14.1-4-21.2-5.5
		C409.1,546.4,401.6,545.4,393.6,544.1z M703.3,569.5c-3.4,4.7-5.8,8.1-8.6,12c2.6,0.8,4.8,1.5,7.7,2.4
		C702.7,579,702.9,574.8,703.3,569.5z"/>
	<path d="M853.5,709.4c-32.1-21.7-64.2-43.4-96.3-65.1c0.4-0.1,0.9-0.3,1.2-0.1c27.8,15.7,56.3,30.3,82,49.7
		c3.6,2.7,7.3,5.3,10.6,8.4c1.7,1.7,2.6,4.2,3.8,6.4C854.3,708.9,853.9,709.2,853.5,709.4z"/>
	<path d="M647.3,432.3c3.8-7.4,7.3-15.1,11.6-22.3c9.9-17,20.1-33.8,35.9-46.3c14.3-11.3,29.9-17.4,48.3-11.5
		c8.3,2.6,15,7.4,19.3,15.4c-1-0.7-2-1.4-3-2.1c-19.4-14.7-40.9-13.6-59.1,2.6c-16.2,14.5-28.2,32.3-40.3,50
		c-3.5,5.1-7.3,10.1-10.9,15.1C648.4,433,647.8,432.6,647.3,432.3z"/>
	<path d="M402.9,336.6c-28.8-0.3-50.9-14.4-59.4-39c-8.6-25-3.6-47.8,13.9-67.4c16.6-18.7,37.5-27,62.4-21.5
		c24.8,5.4,44.9,29.4,47.9,56.1c3.1,27.3-11.4,53-36.8,65.2C422,334.2,412.8,336.7,402.9,336.6z M401.8,326.2
		c26.4,0,48.3-17.6,54.6-44c5.3-22.2-8.1-50.1-29.7-60.7c-5.2-2.5-11.4-4.1-17.2-4.4c-27.6-1.1-50.8,17.3-57.7,44.8
		C343.5,295.6,367.3,326.2,401.8,326.2z"/>
	<path d="M460,219.9c-1.5-1.3-2.3-1.8-2.8-2.5c-1.2-1.6-2.3-3.2-3.4-4.9c-16.4-26.6-43.8-24.3-63.2-13c-5.2,3-9.9,6.8-15.1,9.8
		c-2.7,1.6-5.8,2.2-8.8,3.3c-0.3-0.5-0.6-1-0.9-1.5c1-1.7,1.8-3.4,2.9-5c15-21.7,42-30.8,67.1-22.8c13.7,4.4,23.6,17,24.5,31
		C460.3,215.8,460.1,217.4,460,219.9z"/>
	<path d="M292.8,342.3c-6.1-9.1,3.6-24.4,12.2-26.9c3.2-1,5.2,1.2,4.3,4.4c-0.5,1.6-1.2,3.1-2.2,4.5c-4.2,5.8-8.5,11.5-12.9,17.1
		C294,341.7,293.5,341.8,292.8,342.3z"/>
	<path d="M577.2,286.4c-17.1,0-34.4-13.9-38-30.4c-4.6-21.4,10.2-40.4,32-41.2c16.9-0.6,32.8,9.6,39.1,25
		C619.8,263.4,603.6,286.3,577.2,286.4z"/>
	<path d="M590.7,365.1c-17.5-0.1-29.7-12.3-29.6-29.5c0.1-15.8,13.4-28.3,30.1-28.4c16.2-0.1,28.9,13.8,28.7,31.4
		C619.8,353.6,606.9,365.2,590.7,365.1z"/>
	<path d="M442.4,280.5c0.1,12-6.6,20.5-16.3,20.5c-11.3,0.1-20.9-10.1-21-22.3c-0.1-10.4,7.8-18.9,17.8-19
		C433.9,259.5,442.3,268.4,442.4,280.5z M428.8,276c0.7,0,1.5-0.1,2.2-0.1c1.9-1.9,5.5-3.2,2.8-6.7c-0.6-0.8-4.9-0.3-5.5,0.7
		C427.5,271.4,428.6,273.9,428.8,276z"/>
</g>
</svg>
