<?xml version="1.0" encoding="utf-8"?>
<!-- Generator: Adobe Illustrator 18.1.1, SVG Export Plug-In . SVG Version: 6.00 Build 0)  -->
<svg version="1.1" id="Layer_1" xmlns="http://www.w3.org/2000/svg" xmlns:xlink="http://www.w3.org/1999/xlink" x="0px" y="0px"
	 viewBox="0 0 1024 1024" enable-background="new 0 0 1024 1024" xml:space="preserve">
<g>
	<path d="M831.3,602.8c-1,4.1-3.1,4.6-6.5,3.8c-9.2-2.3-17.9-5.3-24.4-13.4c-6.7,17-12.2,33.4-3.9,52.2
		c-11.3-2.4-16.9-9.2-21.6-17.4c-3.3,6.5-6.5,12.6-9.7,18.8c-0.6-0.1-1.2-0.2-1.8-0.2c-2.1-6.8-4.1-13.7-6.2-20.5
		c-0.4,0-0.9-0.1-1.3-0.1c-1,2.5-2.2,5-2.8,7.7c-5.1,22.7-10.8,45.3-12.3,68.7c-1,16.4-8.1,29.7-23.5,37.6c-0.7,0.4-1.4,0.9-2.2,1.2
		c-6.8,2.6-9.7,6.8-7.6,14.5c1,3.8-0.1,8.2-1,12.3c-0.3,1.5-2.6,2.6-4,3.8c-0.9-1.6-2.4-3.2-2.6-5c-0.4-4.5-0.1-9-0.2-13.5
		c0-1.3-0.3-2.6-0.6-4.2c-6.4,0-12.5,0.6-18.6-0.1c-11.2-1.3-20.3-7-27.5-15.7c-5-6-9.9-12.1-15.1-18c-3.4-3.8-4.8-8.1-5.1-13.2
		c-0.5-13.8-1.3-27.5-2.4-41.3c-0.2-2.8-2-6-4.1-8c-7-6.6-12.8-14-16.8-22.7c-0.6-1.3-1.3-2.6-2.2-4.2c-1.8,4.9-3.6,9.4-4.9,14
		c-0.4,1.4-0.2,3.3,0.3,4.8c4.8,12.7,9.8,25.4,14.6,38.2c2.8,7.3,5.6,14.6,7.9,22.1c3.5,11.2-0.6,17.8-12.3,19.5
		c-11.7,1.7-23.3,1-34.4-3.3c-8.4-3.3-13.6-9.1-14.1-18.7c-0.3-5.8-1.5-10.9-6-16.1c-5.9-6.8-5-16.3-2.5-24.9
		c4.6-15.1,9.7-30.1,14.2-45.2c1.1-3.7,0.6-7.8,0-12.1c-8.6,15.3-20.7,23.9-38.1,23.8c3.3-6.7,6.8-12.9,9.5-19.4
		c5-12.4,3.6-25.2,0.9-37.9c-3.1-14.6-3.7-29.4-1.8-44.2c0.2-1.3,0.2-2.6-0.6-4.6c-2.1,2.4-4.5,4.6-6.2,7.3
		c-6.4,10-9.9,21.2-10.8,32.9c-1.3,18.4-4.8,35.9-14.9,51.7c-1.2,1.9-2.1,4.3-2.4,6.5c-2.1,18.4-4.6,36.8,2,54.8
		c4.9,13.4,9.9,26.8,15,40.1c2.5,6.6,0.9,13.1-4.7,17.4c-12.2,9.4-39.9,9.7-51.5-0.2c-3.3-2.9-5-7.9-6.7-12.3
		c-1-2.5-0.9-5.6-0.5-8.4c0.8-6.4-0.3-11.7-4.5-17.1c-4.5-5.8-3.1-13.1-1.4-19.8c3.2-12.6,6.9-25,9.7-37.7
		c2.7-12.1,2.8-24.5,0.2-36.7c-2.1-9.7-1.9-19.1,0.8-28.6c3.7-13.6,3.7-27.6,2.3-41.3c-10.2-0.8-20-1.6-29.7-2.5
		c-3.8-0.3-8.3-2.5-11.1-1c-2.8,1.4-3.7,6.4-5.7,9.6c-10.9,17-16.2,35.7-15.7,55.9c0.4,15.6,3.6,30.6,10.2,45
		c5.9,12.6,11.3,25.6,16.7,38.4c3.7,8.8,0.5,16.8-8.4,19.8c-15.3,5.1-30.3,3.1-44.5-4.3c-5.6-2.9-7.5-8.7-8.5-14.6
		c-0.7-4.4-2.4-7.8-5.1-11.5c-2.8-3.9-4.5-9.5-4.5-14.3c0-12.3,1.3-24.6,2-36.9c0.8-14.3-0.4-28.3-5.4-41.8
		c-4.7-12.9-3.7-25.4,2.2-37.8c4.6-9.6,8.4-19.5,12.6-29.4c1.4-3.4,0.9-5.8-2.5-8.3c-5.3-4-9.7-9-15.1-14.2
		c-3.8,9.3-8,18.4-11.4,27.8c-5,13.8-9.9,27.8-8.9,42.7c0.5,7.8,2,16,4.8,23.3c8.8,22.7,5.8,44.4-4.4,65.6
		c-2.3,4.8-2.7,8.9-0.6,13.8c4.4,10.1,8.8,20.1,12.5,30.4c3.9,10.8,0.8,17.4-10.3,20.7c-14.7,4.4-29.4,3.5-43.2-3.7
		c-7.4-3.8-11.2-10.2-10.9-18.8c0.1-5.2,0.6-10.1-4.7-14.1c-4.1-3.2-3.6-9-2.9-14.1c0.6-4.1,1.4-8.2,1.6-12.6
		c-5.2,8.6-11.5,16-20.7,20.3c-9.1,4.2-18.6,6.6-29.1,6.1c5.1-5.9,9.9-11.5,14.6-17c-0.3-0.3-0.5-0.5-0.8-0.8
		c-5.6,2.5-11.2,4.9-16.8,7.4c12.5-28.3,6.9-55.7-1.8-83.3c-0.5,5.5-1.6,11-1.4,16.5c0.2,5.6,1.8,11.1,3,17.4
		c-6.5-2.8-11-7-14.6-12.4c-10.8-16.1-13.3-33.5-7.7-52c2.1-6.8,4-13.8,7-20.3c9.9-21,11.1-42.5,5.7-64.8
		c-5.2-21.4-9.6-42.9-8.3-65.2c2.2-38.9,16.4-72.1,47.2-97.1c10.8-8.7,23-14.5,36.6-17.7c2.6-0.6,5.4-1.9,7.3-3.8
		c23.4-23,52.1-29.7,83.6-27.7c23.9,1.5,46.1,10.1,68.5,17.5c13,4.2,26.3,3.7,39.6,2.9c2.2-0.1,4.5-1.4,6.3-2.7
		c25.6-18.9,54.3-21,84.4-15.7c28.8,5,54,17.6,76.5,35.9c48.4,39.2,82.5,88.2,102.1,147.4c3.1,9.4,7.7,18.4,12,27.4
		c2.6,5.4,6,5.3,11,1.9c5.9-3.9,12.1-7.6,18.7-10.1c6.3-2.4,10.8,1.3,10.1,8.1c-1.3,10.9-3.6,21.6-5.3,32.5
		c-0.4,2.4-0.4,5.5,0.7,7.5c11.8,19.8,15,41.4,14.1,64c-0.2,4-0.4,8,0,12C819.5,587.5,822.8,596.4,831.3,602.8z M464.7,450.7
		c3.4-11.1,9.7-20.4,17.5-28.8c16.6-17.9,27.1-38.7,32.1-62.7c4.7-22.6,16.7-41.2,35-55.4c3.3-2.5,6.9-4.6,10.3-6.9
		c0.5,0.6,1,1.2,1.5,1.8c-2.3,1.9-4.9,3.5-7,5.6c-16.3,17.2-28.9,36.6-34.7,59.8c-2.1,8.5-3.8,17.3-4.3,26.1
		c-1.4,24.5-6.4,48.1-16.5,70.6c-5.1,11.4-7.2,23.6-6.8,36c0.3,9,2.2,17.6,5.6,25c4.4-10.9,8.2-22.5,13.5-33.3
		c4.7-9.5,10.9-18.3,16.6-27.3c7.9-12.5,14.7-25.4,18.1-39.8c3.4-14.2,6.2-28.6,9.1-43c7.4-36.2,28.6-60.8,62.3-75.1
		c1.4-0.6,2.9-1.1,4.3-1.7c-4.5,4.1-9.7,7.1-14.4,10.6c-16.9,12.8-32.5,26.9-39.6,47.7c-3.7,11-6.6,22.4-8.5,33.9
		c-5.1,31.5-14.9,60.8-34.5,86.7c-11.6,15.3-18.4,33.2-18.2,53c0.1,8.7,1.4,17,7.6,24.7c0.5-1.7,0.9-2.6,1-3.5
		c3.3-17.1,10.8-32.1,22.5-45c3.4-3.7,6.6-7.5,9.7-11.4c15.7-19.3,28.8-40.1,34.3-64.7c2.8-12.7,4.6-25.6,7.5-38.2
		c6.1-26.7,19.9-48.2,44-62c4-2.3,8.7-3.4,13.1-5.1c0.2,0.5,0.4,0.9,0.6,1.4c-0.6,0.4-1.2,0.9-1.8,1.3c-22.9,13.5-39,32.5-46.9,58
		c-2.3,7.6-4.3,15.5-5.1,23.4c-3.1,29.2-12.6,55.7-30.1,79.3c-6.3,8.5-10.2,18.2-12.8,28.3c-4.1,16.4-3.1,33.1,0.5,49.5
		c3.3,15,4,29.7-2,44.2c-0.3,0.8-0.3,1.7-0.4,3c7.9-4.4,12.5-10.8,14.6-18.8c1.5-5.6,3.3-11.5,2.9-17.1
		c-1.7-26.9,5.8-51.4,17.9-74.9c9.8-19,15.3-39.3,18.6-60.3c2.7-17.6,4.5-35.3,10.8-52.2c7.4-19.9,18.6-36.8,37-48.2
		c3.7-2.3,8-3.7,12-5.5c0.2,0.4,0.4,0.9,0.6,1.3c-1.3,0.8-2.7,1.5-4,2.4c-1.4,0.9-2.7,1.9-4,3c-24.2,21.2-38.2,47.9-42.5,79.7
		c-2.7,19.9-3.8,40.2-11.2,59.2c-5.3,13.6-11.2,27.1-17.2,40.4c-7.4,16.5-10.5,33.6-8.8,51.6c0.9,8.9,2.6,17.8,3.7,26.7
		c1.6,14.3,10.1,27.5,6.5,43.4c1.3-1.1,1.9-1.5,2.3-1.9c9.4-8.3,12.5-19.4,13.7-31.3c1.9-19.1,6.6-37,19.5-52c2.6-3,4-7.2,5.4-11.1
		c3.6-9.5,6.1-19.4,10.5-28.5c7.9-16.2,15-32.6,20.6-49.7c4.4-13.6,11.4-25.9,21.2-36.4c1.9-2,4.3-3.4,6.3-5
		c-6.2,12.3-13,24-18.2,36.3c-8.8,20.7-16.5,41.8-24.8,62.6c-6.7,16.7-11.8,33.6-7.1,52.7c1.8-5.8,2.9-11.2,5.1-16.1
		c7.1-15.9,14.9-31.6,21.9-47.6c3.7-8.3,6.5-17,9.3-25.7c1.7-5.3,2.2-11.2,4.3-16.3c6.8-16.7,18.2-29,36.1-33.8
		c2.6-0.7,5.6-0.1,8.4-0.1c0.1,0.5,0.2,0.9,0.4,1.4c-1.8,1.3-3.5,2.9-5.5,4c-2.5,1.3-3.1,2.6-1.9,5.5c1.9,4.8,3.2,9.8,4.4,14.8
		c5,22.7,2.5,45.4,0.6,68.2c-1.3,15.7-1.2,31.3,5.6,46.1c0.5,1,1.2,1.9,1.5,2.4c1.5-7.2,2.1-14.7,4.8-21.4
		c8.8-22.2,13.1-45,11.2-68.9c-0.1-0.8,0.2-1.7,0.4-2.5c4.6,16.8,6.2,33.6,1.9,50.7c-1.6,6.3-1.5,13.2-1.3,19.7
		c0.8,23.3,14.2,41.8,24.3,63c9.7-32.4,7-63.8,0.9-95.8c0.9,0.6,1.3,0.7,1.4,1c7.9,17.4,12.6,35.4,11.3,54.7
		c-0.7,9.6-1.2,19.3-1.4,28.9c-0.1,5.8,1.9,10.9,7.4,16c-2.5-12.4,1.2-22.6,4-33c1.2-4.5,1.9-9.1,2.4-13.7c3.4-31-2-60-19.5-86.3
		c-1.2-1.8-2.1-3.8-3.2-5.7c0.5-0.4,1.1-0.7,1.6-1.1c4.7,6.1,9.8,12,14,18.5c11.6,17.9,15.7,37.9,16.5,58.9c0.2,6,2,12.1,4,17.9
		c1.7,5,5.3,8.9,11.7,12c-7.2-12.4-6-24.7-6.4-37c-0.3-10.8-1.1-21.7-3.3-32.2c-3.9-18.1-14.7-32.5-26.9-46
		c-11-12.1-24.2-20.2-39.5-25.2c-1.2-0.4-2.3-0.9-3.5-1.3c0.1-0.4,0.2-0.9,0.3-1.3c7.5,1.3,15,2.6,23.4,4
		c-10.1-15.7-20.4-30-36.1-39.5c-1.6-0.9-2.8-2.4-4.2-3.5c0.4-0.6,0.8-1.1,1.2-1.7c7.6,3.7,15.1,7.5,23.8,11.8
		c-2.3-6.3-3.8-11.8-6.4-16.7c-6.5-12.4-13.3-24.6-20.5-36.6c-22.8-38.1-52.7-69.6-90.1-93.4c-28.2-17.9-59.2-25.9-92.9-21.8
		c-30.4,3.7-64,31.8-73.7,67.5c-0.1,0.5,0,1.2,0,3.3c16.8-32.6,40.4-54.4,77.8-59.8c-17.5,13.2-30.3,28.9-40.8,46.7
		c-5.8,9.9-9.9,20.4-11.4,31.8c-1.3,9.9-1.8,19.9-3.2,29.8c-2,14.7-8.7,27.9-14.7,41.2C465.2,428.8,462.5,439.3,464.7,450.7z
		 M339.7,392.5c0.8,1.3,1.2,1.7,1.2,2.1c0,3.8,0,7.7-0.3,11.5c-2,24.8,2.4,48,18.2,67.8c22.3,28,51.8,43.3,87.3,47.1
		c5.9,0.6,11.8,0.7,17.5,0.9c1.5-11.5-5.2-22.4,2.1-32.7c1.7,2.1,3,4.2,3.5,6.4c1.1,5.2,1.5,10.6,2.6,15.8
		c4.6,21.8,6.1,43.4,0.5,65.3c-1.7,6.5-1.3,13.9-0.3,20.7c2,13.5,3.1,26.9,0.1,40.2c-2.7,12-6.2,23.8-9.4,35.7
		c-2.2,8.2-4.1,16.2,3.9,22.9c1.6,1.3,2,4.1,2.7,6.3c0.6,2.1,0.8,4.4,1.1,5.7c12.4-3.2,24.6-6.4,36.9-9.6c-2.4-7.2-5.6-14.9-7.4-23
		c-5.8-26-7.8-51.6,6.5-76.1c3.8-6.5,4.7-14.8,6.6-22.3c0.4-1.4-0.1-3.3-0.7-4.8c-7-15.7-13.8-31.4-21.2-46.8
		c-6.8-14.2-9.4-29.2-5.9-44.3c3.6-15.6,9.4-30.8,14.4-46.1c3.2-9.8,6.1-19.6,6.2-30c-8.3,10.7-16.5,21.3-24.8,31.8
		c-8.8,11.2-12.5,23.7-10,37.9c0.1,0.7,0,1.4,0,2.9c-1.3-1-2.2-1.5-2.8-2.2c-10.2-10.3-14.3-23.2-12.2-37.1c1.5-9.9,5-19.7,9.1-28.8
		c7.1-15.6,12.4-31.6,13.4-48.8c1.6-26,11-48.8,27.2-69c0.6-0.8,1.1-1.7,1.6-2.6c-25.2,16.6-42,38.5-44.3,69.9
		c-2.2-2.6-3.7-5-4.7-7.5c-3.4-9.1-4-18.6-2.5-28.1c2.5-15.4,10.9-28.1,20.4-40c1.1-1.3,2.1-2.6,3.2-3.9c-5.2-0.5-10-0.4-14.4-1.4
		c-12-2.8-24-5.5-35.8-9.1c-18.2-5.6-36.3-11.3-55.5-11.7c-23-0.6-44.7,3.7-62.6,19c-26.6,22.8-40.2,52.6-43.8,87
		c-2.5,23.6,1.9,46.4,10.1,68.6c10.9,29.8,14.9,60.4,8.6,91.8c-2.2,11.3-4,22.7-0.7,34.1c5.4,18.7,6,37.7,3.4,56.9
		c-1.7,13-3.8,26-5.3,39.1c-0.4,3.6-0.3,7.8,1.1,11.1c1.9,4.6,5.3,8.6,8.3,13.4c11.8-2.8,25-6,38.6-9.2
		c-7.6-11.7-8.1-25.4-11.2-38.3c-3.4-14.2-5.2-28.7-3.3-43.1c5.1-37.6,13.4-74.4,30.5-108.6c1.6-3.2,1.4-5.5-0.5-8.6
		c-14-22.7-16.2-47.1-9.6-72.6C337.6,396.3,338.7,394.7,339.7,392.5z M729.7,603.5c-2.1-1.8-3.9-3.2-5.5-4.8
		c-9.6-9.9-14.5-22.1-15-35.6c-0.6-13.9,0.4-27.9,0.7-41.7c-1-0.2-2.7-0.6-4.3-1c0.7-1.7,1.5-3.4,2.1-5.1c1.4-3.7,3.8-7.3,3.9-11
		c0.3-8.6,0-17.3-1.2-25.9c-1-7.6-3.5-15-5.3-22.8c-7.5,3.7-14,9.9-18.1,17.5c-6.8,12.6-11.2,25.6-6.7,40.2c0.4,1.2-0.4,3.3-1.4,4.3
		c-0.6,0.6-2.7-0.2-4-0.7c-0.8-0.3-1.5-1.1-2.2-1.6c-6,11.4-12.4,22.4-17.6,33.9c-4.8,10.5-9.1,21.4-12.4,32.5
		c-2.3,7.8-2.4,16.1-3.6,24.6c-10.4-7.9-13.2-20-16.3-33.4c-8.4,12.6-13.7,24.6-10.4,38.2c3.9,16.3,10.5,31.3,26,40.4
		c1.1,0.7,2,2.8,1.9,4.2c-0.1,3.8-1,7.6-0.9,11.5c0.2,9.1,2.3,18.5,0.8,27.2c-2.1,11.6,2,19.2,10.5,26.3c0.2-0.9,0.3-1.4,0.5-2
		c1.8-6.5,3.5-13.1,5.7-19.4c0.5-1.4,2.9-2.1,4.4-3.2c0.7,1.8,2.1,3.7,1.9,5.3c-0.5,3.7-2,7.4-2.9,11.1
		c-3.1,12.7-0.2,19.6,10.5,25.4c1.9,1,3.9,1.8,6,2.4c23.4,6.6,53.2-13.2,56.1-37.5c3.4-28.6,8.1-57,18.1-84.2
		c0.5-1.4,0.4-3.3-0.3-4.6c-5.8-12-11.7-24-18-36.7C731.9,585.7,730.9,594.1,729.7,603.5z M285.2,288.9c-8.8,4.8-18.1,8.2-25.3,14.2
		c-29.8,24.5-44.7,56.9-46.7,95.2c-1.1,20.7,3.9,40.7,8.2,60.7c3.1,14.2,5.8,28.7,2.4,43.1c-2.7,11.3-7.1,22.1-10.9,33.1
		c-4.2,12-8.1,24-7,37c0.6,6.4,2.2,12.4,6.5,17.8c0.8-6.6,1-12.7,2.5-18.4c3.1-11.7,6.7-23.3,10.6-34.8c4.5-13.6,9.9-27.2,9.5-41.7
		c-0.6-18.9-2.1-37.9-4.5-56.7c-2.7-20.8-4-41.4,1.8-61.9c2.7-9.6,6.3-18.8,13.3-26.2c0,1.6-0.4,3.1-1,4.5
		c-10,24-12.2,48.9-8.6,74.5c2.1,14.5,4.4,29,6,43.5c2.5,22.7-1.2,44.8-8.5,66.4c-5,14.7-5.9,29.7-1.3,44.7
		c4.6,15.1,8.1,30.3,6,46.2c-0.7,5.4-1.3,10.8-2,17.2c7.2-7.1,11.7-14.4,14.1-23c4-14.2,2.8-28.4-1-42.4c-5.6-20.5-5.3-40.5,2-60.8
		c6.6-18.2,8.3-37.3,5.9-56.6c-0.5-4.1-1.3-8.1-1.9-12.1c1.5,0.7,2.4,1.7,2.6,2.9c1.9,9.2,4.4,18.4,5.3,27.8
		c1.7,17.9-3.1,35.1-8.3,52c-4.7,15.2-4.4,29.9,1,45c7.5,20.9,6.5,41.9-2.2,62.4c-2.2,5.3-4.5,10.6-6.9,16.3
		c11.4-3.4,22.5-14.3,27.6-27.8c7.9-20.9,10.8-42.3,4.7-64.1c-4.2-14.8-4.5-29.5-1.2-44.4c1.1-5.2,1.9-10.5,2.4-15.8
		c2.3-25.2-2.3-49.5-11.2-72.9c-14.2-37-14-74-0.3-110.8C272.5,311.3,279.1,300.8,285.2,288.9z M417.3,524.4
		c-12.3-5.9-24.4-11.7-36.6-17.6c-4.2,9.5-8.3,19.3-12.8,28.9c-5.5,11.9-6.1,23.7-2.6,36.4c2.6,9.2,4.2,18.9,4.4,28.4
		c0.3,16.1-0.9,32.3-1.2,48.4c-0.1,3,0.3,6.5,1.8,9.1c2.4,4.2,5.8,7.8,9,11.9c11.5-3,23.7-6.1,36.5-9.4c-2.3-5.7-4.3-10.8-6.3-15.9
		c-2.4-6.2-5-12.3-6.8-18.7c-5.3-18-8.3-36.2-4.9-55.1C400.9,553.8,408.7,538.9,417.3,524.4z M608.7,684c-4.3-10.7-9-22.1-13.6-33.6
		c-17.3,7.6-17.3,7.6-21.7,5.2c4.8-9.3,5.8-22,2.3-26.9c-3.9,12.2-7.9,24.5-11.9,36.8c-1.5,4.7-2.5,9.8,1,13.8
		c4.3,4.9,8.2,9.9,8,16.6C585.1,691.8,596.7,688,608.7,684z M510.1,707.6c-13.1-1-25.1,3.1-37.1,6.7c-4.1,1.2-5.6,5-3,8.6
		c1.3,1.8,3.2,3.5,5.2,4.5c12.6,6.2,25.2,4.4,37.5-1c3.8-1.7,4.1-5,2.6-8.4C513.5,714.4,511.7,710.9,510.1,707.6z M319.8,702.2
		c0.1-0.3,0.2-0.7,0.3-1c2.5-0.2,5-0.1,7.4-0.6c14.5-3.2,13.6-6.3,9.6-16.2c-2.8-6.7-4.4-7.7-12.3-6.1c-9.3,1.9-18.5,3.8-27.7,6
		c-2.1,0.5-4,1.8-6,2.8c1.2,2.3,2.1,4.7,3.7,6.7c1.1,1.3,2.9,2.4,4.5,2.9C306.1,698.6,312.9,700.3,319.8,702.2z M572.9,705
		c2,2.6,2.8,4.7,4.4,5.5c11.2,6.1,23.1,8.3,35.5,5.3c4.7-1.1,6.1-4.7,4.6-9.4c-1.2-3.8-2.7-7.5-4.5-11.1c-0.5-1.1-2.5-2.3-3.7-2.1
		C596.8,694.7,585.6,700.1,572.9,705z M379.2,676.1c-0.2,0.8-0.3,1.6-0.5,2.4c2.1,2.2,3.8,5.2,6.3,6.5c11,5.4,22.6,6.5,34.4,3
		c2-0.6,5.2-3.4,5-4c-2.3-5.6-5.3-11-8.1-16.5c-0.1-0.2-0.9,0-1.4,0.1C402.9,670.5,391,673.3,379.2,676.1z M328.7,635.3
		c8.8-22.1,11.4-42.8-1.4-63.8C323.3,592.8,323,613.5,328.7,635.3z M781.6,472.8c5.2,6.2,9.7,11.5,14.3,16.9
		c0.5-0.1,0.9-0.2,1.4-0.2c1.2-9,2.3-18,3.5-27c-0.6-0.3-1.1-0.6-1.7-0.9C793.4,465.2,787.8,468.8,781.6,472.8z"/>
	<path d="M464.2,821.4c-11.4-3.8-12.2-10.8-8.3-20.6c-7.6-5-10.1-9.5-7.8-15.3c3.2-7.9,10.4-7.7,17.7-7.8c0.1-5.9,2.7-9.9,9-10.8
		c6.5-0.9,10.2,1.1,14.3,7.6c0.9,1.4,2.4,2.9,3.9,3.3c5.1,1.4,8.8,4,9.5,9.6c0.8,5.8-1.2,10.1-6.5,12.8c-0.3,0.1-0.5,0.4-0.9,0.9
		c2.3,5.4,4.3,11.1-1.7,15.6c-5.6,4.1-11,2.4-15.6-1.2c-3.1,1.7-6,3-8.4,4.9c-1.4,1.1-2.6,3.3-2.7,5.1c-1.3,15.9-2.4,31.9-3.4,47.8
		c-0.4,6-0.4,12-0.8,18c-0.2,2.2-1,4.3-1.7,6.9c-5-1.9-5.5-5.6-5.7-9.2C453.9,866,455.4,843.3,464.2,821.4z M483.1,798.5
		c3.3-1.5,6.2-2.9,9.1-4.2c2.9-1.4,4.7-3.5,3.3-6.8c-1.4-3.2-4-2.7-6.8-1.8c-2.4,0.8-4.9,1.3-7.4,1.9c0.3-2.6,0.4-5.2,0.9-7.8
		c0.7-3.5-0.7-5.5-4-6.2c-3.4-0.6-5.5,0.7-5.7,4.4c-0.1,1.5,0,3-0.1,4.5c-0.2,3.2-1.3,4.3-4.9,2.9c-2.5-1-5.9-1.1-8.5-0.4
		c-1.8,0.4-3,3-4.5,4.6c2,1.4,3.8,3.5,6.1,4.1c2.2,0.6,4.8-0.2,8.5-0.6c-1.4,2.8-2.1,4.7-3.2,6.3c-1,1.5-2.8,2.5-3.7,4
		c-1.8,3.1-3.2,6.6,0.2,9.5c2.5,2.2,6.9,0.8,9.5-2.8c1.1-1.5,1.9-3.3,2.8-4.8c3.4,2.1,6.4,4.2,9.7,5.7c1.2,0.5,3.9,0,4.6-1
		c0.8-1,0.7-3.5-0.1-4.8C487.9,803,485.8,801.4,483.1,798.5z"/>
	<path d="M255.8,816.1c-4.9-22-9.9-44-15-66.8c-1.9,1-3.4,1.8-4.9,2.7c-5.3,3-10.7,3.9-16,0.3c-5.1-3.6-5.4-8.8-3.3-14.5
		c-5.5-3.6-10.6-7.6-8.4-15.2c1.9-6.3,7.2-7.7,12.9-7.7c0.3-0.5,0.6-0.8,0.5-1c-0.3-5.5,1-10.4,6.7-12.7c5.6-2.3,9.9,0,13.8,4
		c0.9,0.9,2.9,1.2,4.4,1.1c10.9-0.3,16.3,6.9,12.9,17.3c-0.4,1.2-0.5,3.1,0.2,4c3.5,4.6,5.1,9.6,2,14.8c-3.3,5.5-8.8,6.7-14.8,5.6
		c-0.3,0-0.6,0.2-0.8,0.3c8.5,11,16.3,56,11.7,67.6C257,815.9,256.4,816,255.8,816.1z M229.7,727.5c0.4,0.6,0.7,1.1,1.1,1.7
		c-1.8,1.8-3.6,3.7-5.5,5.4c-2.9,2.5-4.4,5.8-3,9.3c0.7,1.8,3.5,4.3,4.8,4c3.1-0.7,6.5-2.3,8.7-4.6c1.5-1.6,1.2-4.8,2-8.6
		c2.3,2.1,3.9,4.3,6.1,5.3c2.3,1.1,5.4,2,7.7,1.4c1.9-0.5,4.5-3.4,4.3-5.1c-0.2-2.3-2.4-4.7-4.2-6.6c-1-1.1-3-1.3-4.5-2
		c-1.5-0.7-2.8-1.6-5.3-3.1c2.6-0.5,3.7-0.8,4.8-0.9c3.4-0.4,6.4-1.6,6.8-5.3c0.2-1.6-1.8-4.8-2.2-4.7c-2.7,0.6-5.3,1.8-7.7,3.1
		c-2.1,1.1-3.9,2.6-5.9,3.9c-0.3-0.4-0.6-0.8-1-1.2c0.4-1,1.2-2.1,1.1-3.1c-0.1-2.4,0-5.3-1.2-7c-1-1.4-4.7-2.6-5.8-1.9
		c-1.6,1.1-2.1,4-2.9,6.2c-0.2,0.7,0.1,1.6,0.2,2.5c0.5,3.3-0.7,5-4.3,5c-2.1-0.1-4.3,0.1-6.4,0.6c-3.8,1-4.8,4.2-1.8,6.5
		c1.6,1.3,4.4,1.4,6.6,1.2C224.9,729.3,227.3,728.2,229.7,727.5z"/>
	<path d="M806.7,815.3c2.3,5.6,4.9,11.3-0.4,16.3c-5,4.7-10.9,4.1-17.5,1.1c-1,3-2.3,5.9-2.7,8.9c-2.2,16-4.1,32-6.2,48
		c-0.3,2.7-1.2,5.3-2.9,7.8c-5.6-21.1-3.5-41.7,3.4-62.3c-1.9-0.4-3.9-0.5-5.6-1.1c-7.2-2.6-10.2-8.5-8.6-16.4
		c0.3-1.4-0.4-3.8-1.5-4.7c-5.4-4.2-7.4-8.5-5.6-13.6c1.8-5,7.1-8.1,13.2-7.7c1.3,0.1,2.6,0,4.3,0c0.7-1.7,1.2-3.6,2.2-5.3
		c2.4-4.2,6.4-5.7,11-5.3c4.5,0.4,7.1,2.9,8.8,7.1c0.6,1.5,2.1,3.5,3.5,3.8c6,1,11.8,2.1,13.2,9.3
		C816.6,808.1,812.8,812.5,806.7,815.3z M782.4,809.8c0.1,0.4,0.2,0.9,0.4,1.3c-2.3,1.8-4.9,3.3-6.8,5.4c-1.4,1.6-3,4.3-2.6,6.1
		c0.4,1.9,2.9,4.4,4.8,4.8c1.9,0.4,4.4-1.4,6.3-2.7c1.1-0.7,1.6-2.3,2.7-3.9c1.4,1.6,2.4,2.6,3.4,3.7c3.4,4,7.1,5,9.8,2.6
		c3.5-3.2,1.7-6.2-0.4-9.3c-3.9-5.6-3.6-6.5,2.8-8.5c3-1,6-2.3,5.4-6c-0.7-3.9-4.3-3.7-7.3-3.5c-2.5,0.2-4.9,1-7.3,1.6
		c-0.1-2.7,0.2-5.6-0.6-8.1c-0.7-2-2.8-4.7-4.4-4.8c-1.7,0-4.9,2.7-4.9,4.2c0.1,5.5-2.6,6-6.9,5.2c-1.3-0.3-2.7-0.2-4-0.2
		c-3.4,0-7,0.8-7.1,4.6c-0.1,3.8,3.1,6,6.9,6.7c1.4,0.3,3-0.2,4.5-0.1C778.8,809.1,780.6,809.5,782.4,809.8z"/>
	<path d="M323.2,773.7c-0.6,1.6-1,3.3-1.8,4.8c-17.9,32.7-25.6,67.9-26.4,104.8c-0.1,3.7-0.2,7.3-0.8,10.9c-0.3,1.6-1.9,3.1-2.9,4.6
		c-1.1-1.5-3.1-2.8-3.3-4.4c-0.8-6.6-1.9-13.2-1.5-19.8c1.2-24,4-47.7,13.4-70.2c4.4-10.6,9.6-20.9,18.2-28.9
		c1.2-1.1,2.7-1.8,4.1-2.7C322.5,773.1,322.9,773.4,323.2,773.7z"/>
	<path d="M679,804.3c-1,1.5-1.9,3-2.9,4.3c-18.6,24.7-28,53-32.2,83.3c-0.1,1,0,2.2-0.5,2.9c-1,1.4-2.4,3.5-3.6,3.4
		c-1.3-0.1-3.2-2-3.6-3.4c-0.6-2.1-0.5-4.7,0-6.9c3.4-15.2,6.5-30.6,10.8-45.6c3.8-13.2,10.9-24.7,21.7-33.4
		c2.8-2.3,6.2-3.9,9.3-5.8C678.4,803.5,678.7,803.9,679,804.3z"/>
	<path d="M370.5,810.3c-1,1.6-1.8,3.3-2.9,4.8c-11.5,15.7-23.1,31.3-30.1,49.8c-2.7,7.1-4.9,14.5-7.4,21.7c-0.6,1.9-0.9,4-2,5.6
		c-1,1.6-2.9,2.6-4.3,3.9c-0.9-1.8-2.6-3.7-2.4-5.4c0.4-4.4,1.3-8.9,2.7-13.2c7.9-23.3,17.6-45.7,36.1-62.9c2.6-2.4,6-4,9-5.9
		C369.5,809.2,370,809.8,370.5,810.3z"/>
	<path d="M411,822.1c18,6.1,27.6,18.8,32.8,34.5c3.5,10.6,4.7,22,6.8,33c0.3,1.4,0,3-0.5,4.4c-0.3,0.9-1.4,2.1-2.3,2.2
		c-1.1,0.1-2.8-0.6-3.3-1.4c-1-1.7-1.4-3.7-1.8-5.6c-4.8-22.7-12.3-44.2-28.7-61.5C413,826.4,412.5,824.7,411,822.1z"/>
	<path d="M298.4,746.8c-1.8,2.7-2.8,4.8-4.3,6.6c-13.4,15.8-18,35.3-23.1,54.6c-0.3,1.3-0.3,2.9-1,3.8c-0.9,1.1-2.5,2.2-3.8,2.2
		c-0.7,0-2.3-2-2.3-3.1c0.3-20.5,3.7-40.1,17.5-56.4C285.5,749.7,290.5,746.1,298.4,746.8z"/>
	<path d="M335.2,817.5c-1.3,2.6-2.6,5.2-4,7.7c-8.7,16.3-17.4,32.5-21.7,50.7c-1.1,4.8-1.5,9.9-2.8,14.7c-0.6,2.4-2.7,6.4-3.8,6.3
		c-4.1-0.3-3.2-4.4-3.2-7.1c-0.1-11.4,2.2-22.5,6.4-33.1c5.3-13.2,12.3-25.4,22.5-35.6c1.7-1.7,3.7-3,5.6-4.5
		C334.5,816.9,334.9,817.2,335.2,817.5z"/>
	<path d="M201.6,773.9c3.8-0.2,7.7-1.1,11.3-0.5c14.6,2.4,32.1,21,33.8,35.8c0.3,2.2-0.6,5.9-2,6.7c-3.1,1.6-5.3-1.1-7.1-3.8
		c-4-6.1-7.6-12.7-12.6-17.9c-5.8-6.1-12.8-10.9-19.4-16.2c-1.2-1-2.8-1.7-4.1-2.5C201.5,775,201.6,774.5,201.6,773.9z"/>
	<path d="M516.1,834.9c-1.8,2-3.5,4.3-5.6,6.1c-15.7,13.4-27,29.7-33.5,49.3c-0.6,1.7-1.3,3.4-2.1,5.1c-0.3,0.6-0.8,1-1.4,1.7
		c-3.4-1.4-5.4-3.9-4.4-7.3c6.9-23.2,17.4-44,40.9-54.8c1.6-0.7,3.4-0.9,5.1-1.3C515.4,834.1,515.7,834.5,516.1,834.9z"/>
	<path d="M218.1,836.7c2.3-3.1,4.7-3.1,7.1-1c2,1.7,4.1,3.5,5.7,5.5c11.7,14.6,18,31.3,19.2,50c0.1,1.5,0.2,3.1-0.1,4.5
		c-0.3,1.1-1.3,2.1-2,3.1c-1.1-0.8-2.3-1.6-3.3-2.5c-0.4-0.4-0.5-1.2-0.6-1.9c-4.6-18.9-12-36.7-23.2-52.7
		C219.9,840.2,219.1,838.5,218.1,836.7z"/>
	<path d="M730.3,839.6c2.1,0,4.7-0.7,6.3,0.1c4.7,2.4,9.6,4.9,13.3,8.5c11,10.7,17.4,24.2,20.7,39.1c0.6,2.5,0.2,5.3,0,7.9
		c-0.1,1-1.2,2.5-1.9,2.6c-1.1,0.1-2.6-0.7-3.4-1.5c-0.8-0.9-1.2-2.3-1.6-3.6c-5.2-20.1-15.3-37.1-32-49.8c-0.6-0.5-1.1-1.2-1.7-1.8
		C730.2,840.6,730.3,840.1,730.3,839.6z"/>
	<path d="M818.4,647.9c-4.1,7.2-8.5,13.7-11.5,20.7c-3.9,9.1-6.7,18.7-10,28.1c-0.5,1.6-0.4,3.6-1.4,4.7c-1.1,1.3-3.1,2.5-4.8,2.5
		c-0.9,0-2.7-2.6-2.6-3.9c1.2-16.8,4.6-33,16.8-45.7C808.5,650.7,812.6,647.7,818.4,647.9z"/>
	<path d="M615.6,830c1.9,2,4,3.7,5.6,5.9c9.4,13.5,12.9,28.7,12.4,44.9c-0.1,4.5-0.5,9-1.2,13.4c-0.2,1.4-1.6,2.5-2.5,3.8
		c-1.3-1.4-3.4-2.6-3.6-4.1c-0.7-4.1-0.7-8.3-0.9-12.4c-0.7-15.9-3.4-31.4-10.1-46c-0.6-1.4-0.8-2.9-1.3-4.4
		C614.4,830.7,615,830.3,615.6,830z"/>
	<path d="M696.6,850.2c-2.3,2.5-4.3,5.4-6.9,7.5c-11.9,9.5-21.5,20.7-26.9,35.2c-0.5,1.3-1.4,2.8-2.5,3.6c-1.1,0.7-2.9,0.9-4,0.5
		c-0.8-0.3-1.2-2.1-1.5-3.3c-0.2-0.7,0.2-1.6,0.4-2.4c4.2-12.6,10.4-24.1,20.5-33.1C681.5,852.9,689,849.6,696.6,850.2z"/>
	<path d="M820.4,849.1c-1.4,1.7-2.5,3.7-4.1,5.1c-11.4,10.4-20.2,22.4-24.1,37.6c-0.2,1-0.5,2.1-1.2,2.7c-1.4,1.1-3.1,1.9-4.7,2.9
		c-0.8-1.6-2.4-3.4-2.3-4.9c1.2-11.7,5.9-22.2,13.8-30.8c4.5-4.9,10.4-8.6,15.9-12.5c1.5-1.1,3.8-1,5.8-1.4
		C819.9,848.2,820.1,848.6,820.4,849.1z"/>
	<path d="M520.9,863.4c-2.6,2.9-4.3,5.6-6.7,7.4c-9.1,6.6-17.2,14.1-23.3,23.7c-0.7,1.1-3,2.5-3.7,2.2c-1.4-0.7-3-2.5-3.1-4
		c-0.1-2.2,0.5-4.7,1.7-6.6c7.6-11.9,18.8-19,32.1-23C518.5,862.9,519.1,863.2,520.9,863.4z"/>
	<path d="M374.1,860.9c-1.4,2.8-2.1,4.8-3.3,6.3c-7.5,9.1-15.2,18.1-22.9,27c-1.2,1.3-2.8,2.5-4.4,3.1c-1.2,0.4-3.2,0.2-4-0.6
		c-0.7-0.7-1-3-0.4-3.9c8.5-12.4,17.9-24,31.8-31C371.4,861.5,372,861.4,374.1,860.9z"/>
	<path d="M442.7,637.8c3.4,0,6.3-0.3,9,0.1c1.5,0.3,2.8,1.9,4.2,2.9c-1.1,1.2-2.1,2.7-3.4,3.7c-0.9,0.7-2.2,0.8-3.3,1.1
		c-11.7,2.8-13,1.5-13.6-10.3c-0.4-7.1-2.1-14.1-3-21.2c-0.2-1.6,0.6-3.4,1-5.1c1.7,1.1,4.4,1.9,4.9,3.4c1.5,4.5,2.4,9.3,3.2,14
		C442.4,630.1,442.4,633.8,442.7,637.8z"/>
	<path d="M206.4,862.5c13.8,6.3,24.1,14.5,29.9,27.4c0.8,1.8,1.5,3.8,1.4,5.7c-0.1,1.3-1.2,3.2-2.4,3.8c-0.9,0.4-3.1-0.3-3.8-1.3
		c-8.2-10.6-16.2-21.4-24.1-32.2C207,865.4,207,864.5,206.4,862.5z"/>
	<path d="M785.1,697.9c0-0.1,0.4,1.1-0.1,1.8c-1.1,1.6-2.4,4.1-3.8,4.2c-1.5,0.1-4.3-2.1-4.4-3.4c-0.9-11.9-1.4-23.9-1.7-35.8
		c-0.1-3,2.7-3.1,4.1-1.2c1.7,2.3,3.2,5.2,3.5,8C783.8,679.8,784.2,688.3,785.1,697.9z"/>
	<path d="M640,734.9c-3.3,13.3-6,25-9.1,36.6c-0.5,1.7-2.7,3-4.1,4.5c-1.4-1.7-3.9-3.4-3.9-5.1c0-11.3,1.7-22.3,9.7-31.1
		C634.5,737.8,637.2,736.7,640,734.9z"/>
	<path d="M261.2,852.9c2.6,3.7,5.8,7.2,7.7,11.3c3.8,8.2,7,16.7,10.2,25.2c0.6,1.6,0.6,3.7,0.2,5.4c-0.4,1.3-1.8,3.1-2.9,3.2
		c-1.2,0.1-3.5-1.1-3.8-2.2c-4.4-13.4-8.4-26.8-12.6-40.2c-0.2-0.6,0-1.3,0-1.9C260.3,853.4,260.8,853.1,261.2,852.9z"/>
	<path d="M596,862.4c2.6,1.4,5.6,2.4,7.7,4.3c7.9,7.1,12.2,16.5,15.8,26.2c0.5,1.4-1.6,3.8-2.5,5.7c-1.7-0.9-4.1-1.3-5-2.7
		c-1.7-2.4-2.4-5.5-3.8-8.1c-4.1-8.1-8.4-16-12.6-24.1C595.8,863.3,595.9,862.8,596,862.4z"/>
	<path d="M829.8,680.6c-1.6,1.5-3,3.3-4.8,4.5c-6,4-10.6,9-13.3,15.8c-0.4,1.1-0.9,2.4-1.7,3c-1.4,0.9-3.3,1.8-4.8,1.5
		c-0.9-0.2-2.3-2.7-2-3.8c1-4.1,1.9-8.5,4.1-12c3.6-5.9,9.6-9.2,16.2-10.9c1.8-0.4,3.7-0.1,5.6-0.1
		C829.3,679.3,829.5,680,829.8,680.6z"/>
	<path d="M729.5,767.6c0.9-2.6,0.9-4.4,1.8-5.4c6-6.6,12.1-13.1,18.5-19.3c2-2,5.4-2.4,6.9,0.5c0.7,1.3-0.9,4.8-2.4,5.9
		c-6.2,4.4-11.4,9.5-15.2,16.2c-1,1.8-3.3,3.2-5.4,3.9C732.6,769.8,730.9,768.3,729.5,767.6z"/>
	<path d="M374.2,716.9c8.6,10,14.3,21.3,13.6,35c-0.1,1.4-1.6,2.7-2.4,4c-1.4-1-3.3-1.7-4.1-3.1c-1-1.6-1-3.8-1.5-5.7
		c-2-7.6-4.1-15.1-6-22.7c-0.6-2.3-0.9-4.7-1.3-7C373,717.3,373.6,717.1,374.2,716.9z"/>
	<path d="M712,765c1.3-11.9,6.3-20.7,14.1-27.9c1-0.9,3.2-0.4,4.9-0.5c0,1.3,0.5,2.9,0,4c-3.9,8.4-7.9,16.8-12.2,25
		c-0.8,1.5-2.9,2.2-4.4,3.2C713.4,767.3,712.4,765.8,712,765z"/>
	<path d="M642,775.6c0.1-2.4-0.2-5,0.5-7.2c2.2-7.3,6-13.7,12-18.6c1.5-1.2,3.4-2.2,5.2-2.7c1.2-0.3,2.7,0.4,4.1,0.7
		c-0.3,1.2-0.4,2.6-1,3.6c-4.3,7-8.6,14.1-13.3,20.9c-1.4,2-4,3-6.1,4.5C643,776.4,642.5,776,642,775.6z"/>
	<path d="M410.9,872.2c2.7,0.9,5.5,1.5,8,2.7c7.8,4.1,13,10.8,16.6,18.6c0.7,1.5-0.3,3.8-0.5,5.8c-2-0.5-4.6-0.4-5.7-1.6
		c-6.1-6.8-11.9-13.8-17.6-20.9c-0.8-0.9-1-2.2-1.5-3.3C410.3,873.1,410.6,872.6,410.9,872.2z"/>
	<path d="M604.6,741.5c1.9,2.2,4.6,4.1,5.5,6.6c2.4,7.1,4.2,14.3,5.7,21.6c0.4,1.8-1.7,4-2.6,6.1c-1.5-0.8-3.8-1.3-4.2-2.5
		c-3.7-9.9-5.4-20.3-6.3-30.8C603.2,742.1,603.9,741.8,604.6,741.5z"/>
	<path d="M754.4,769.3c-1.3-4.8,0.9-7.3,3.8-9.1c5.6-3.6,11.3-7,17-10.4c1.3-0.7,2.8-1.4,4.2-1.4c1.2,0,2.7,0.6,3.4,1.4
		c0.5,0.5,0.2,2.5-0.5,3.1C774.6,760.7,766.2,767.6,754.4,769.3z"/>
	<path d="M406.5,720.1c-3.4,12.1-6.7,24-10.1,35.8c-0.6,0-1.2,0.1-1.8,0.1c-0.9-1.6-2.2-3.1-2.6-4.8
		C390,740.5,396.7,726.3,406.5,720.1z"/>
	<path d="M549.3,703.5c-0.2,2.1,0,4.4-0.6,6.4c-0.3,1.2-1.8,2.1-2.7,3.1c-1-1-2.6-1.7-2.9-2.9c-1-3.3-1.2-6.9-2.2-10.2
		c-1.3-4.4-3.2-8.7-4.7-13c-0.4-1.2-0.1-2.5-0.1-3.8c1.3,0.2,2.9,0.1,3.9,0.7C547.1,688.4,549.6,695.3,549.3,703.5z"/>
	<path d="M527.1,639c5.2,0.5,10,0.7,14.7,1.5c1.4,0.2,2.6,2,3.9,3.1c-1.4,0.9-2.7,2.6-4.1,2.6c-8,0-15.9-0.2-23.8-0.9
		c-1.6-0.1-3.1-2.5-4.6-3.9c1.7-0.8,3.4-2.1,5.2-2.4C521.4,638.7,524.4,639,527.1,639z"/>
	<path d="M418.9,618.5c13.8,4.7,18.6,20.3,9.1,28.8C425,637.7,422.1,628.6,418.9,618.5z"/>
	<path d="M677.9,752.1c-0.4,10.2-5.4,16.2-12.2,20.8c-1.4,1-3.8,0.5-5.8,0.7c0.3-1.7,0-3.8,0.9-5.1c3.3-4.7,6.9-9.3,10.8-13.6
		C673.1,753.4,675.8,753,677.9,752.1z"/>
	<path d="M202.6,629.9c8.9,7,12.9,20.5,9.3,30.1c-0.3,0.8-1.2,2.1-1.7,2c-1-0.2-2.3-0.9-2.6-1.7c-0.8-1.8-1.1-3.8-1.4-5.8
		C204.9,646.5,203.8,638.5,202.6,629.9z"/>
	<path d="M602.7,772.3c-0.5,0.9-0.9,2.3-1.4,2.4c-1.4,0.1-3.6,0.1-4.1-0.7c-4.2-6.5-8.2-13.2-12.1-20c-0.3-0.6,0.4-2.5,1.1-2.8
		c1-0.5,2.9-0.6,3.5,0C596,756.9,599.8,764.3,602.7,772.3z"/>
	<path d="M823,877.5c-0.5,1.1-0.9,2.4-1.6,3.2c-4.5,5.1-9,10.3-13.9,15c-1.2,1.2-3.7,1-5.7,1.4c0.1-1.9-0.6-4.5,0.4-5.7
		c4.2-4.7,8.6-9.1,13.4-13.2c1.6-1.4,4.4-1.4,6.6-2C822.5,876.6,822.7,877.1,823,877.5z"/>
	<path d="M735.3,875.7c1.5,0.3,3.2,0.3,4.6,0.9c6.6,3.1,11.5,8,14.2,14.7c0.7,1.8-0.2,4.2-0.3,6.4c-2-0.7-4.8-0.8-5.9-2.2
		c-4.6-6-8.8-12.4-13.1-18.6C735,876.5,735.2,876.1,735.3,875.7z"/>
	<path d="M693,878.3c-0.3,1.3-0.2,2.6-0.8,3.4c-4.3,5.5-8.6,10.9-13.2,16.1c-0.8,0.9-3.1,1-4.5,0.7c-0.6-0.1-1.3-2.2-1.2-3.2
		c0.8-6.4,11.1-16.5,17.6-17.4C691.4,877.8,692,878.1,693,878.3z"/>
	<path d="M189,639.6c7.6,3.3,13.9,13.6,12.7,21.3c-0.1,1-0.9,2.2-1.8,2.6c-0.6,0.3-2.3-0.3-2.5-0.9c-3.4-7.4-6.7-14.9-10-22.3
		C187.9,640.1,188.4,639.9,189,639.6z"/>
	<path d="M357.4,737.3c8.1-0.4,17.5,7.7,17.8,14.6c0.1,1.3-0.7,3.2-1.6,3.7c-1,0.6-3.5,0.4-4-0.4
		C365.5,749.6,361.7,743.7,357.4,737.3z"/>
	<path d="M759.3,684.9c6.5,2.1,12.9,10.3,12.6,15.9c-0.1,1.6-1.8,3.2-2.7,4.7c-1.4-1-3.4-1.7-4-3.1
		C763,696.9,761.4,691.2,759.3,684.9z"/>
	<path d="M579.4,828.1c-0.2,3.8-0.3,7.6-0.8,11.3c-0.3,2.8-0.9,5.6-1.7,8.3c-0.2,0.7-1.5,1.8-2.1,1.7c-1-0.2-2.3-0.9-2.7-1.8
		C569.9,843.2,573.4,831.3,579.4,828.1z"/>
	<path d="M560.3,784.5c-2.1-2.7-4.1-4.2-4.6-6c-0.8-3.6-0.9-7.5-0.9-11.2c0-1.1,1.1-2.8,1.9-3c0.9-0.2,2.5,0.8,3.2,1.8
		C563.6,771.5,562.5,777.2,560.3,784.5z"/>
	<path d="M414.8,733.7c-1.6,6.4-2.9,12.3-4.6,18c-0.3,1-2.2,2.4-3.2,2.3c-1-0.1-2.2-1.8-2.5-3C403.2,745.3,407.2,738.5,414.8,733.7z
		"/>
	<path d="M528.1,695.1c5.6,3.3,9.1,8.2,10.3,14.7c0.2,1.2-1.2,2.8-1.8,4.2c-1.2-0.7-3-1.2-3.5-2.3c-2.3-5.2-4.3-10.6-6.4-15.9
		C527.1,695.6,527.6,695.3,528.1,695.1z"/>
	<path d="M537.1,768.4c2.4,0.3,4.4-0.1,5.1,0.7c3,3.2,5.7,6.5,8.2,10.1c0.6,0.9-0.3,2.9-0.5,4.4c-1.5-0.5-2.9-1-4.3-1.6
		c-0.4-0.2-0.6-0.8-0.9-1.2C542.4,777,540.1,773.3,537.1,768.4z"/>
	<path d="M835.6,696c-0.3,5.5-6.2,11.3-13,12.6C821.7,703.2,829.1,696,835.6,696z"/>
	<path d="M344.4,655.5c-1.4-0.3-3-0.4-4.3-1c-2.6-1.2-3-3-0.4-4.7c1.2-0.8,2.8-1.7,4.1-1.5c3,0.5,5.9,1.6,8.9,2.4
		c-2.5,1.9-4.9,3.8-7.4,5.7C345,656.2,344.7,655.9,344.4,655.5z"/>
	<path d="M564.6,853.2c-4.8-1.6-9.9-8.6-9.3-11.7c0.2-1,1.7-2.5,2.4-2.4c1.4,0.1,3.7,0.9,4,2C563,844.6,563.6,848.5,564.6,853.2z"/>
	<path d="M183.4,670.2c-2.8-1.7-6.8-3.2-6.7-4.3c0.4-4.1,4.2-4.2,7.3-3.4c2.1,0.6,3.9,2.2,5.8,3.4
		C187.9,667.2,185.9,668.6,183.4,670.2z"/>
	<path d="M589.2,588.6c-2.3-23.8,5.3-43.8,18.3-61.8c11-15.2,19.5-31.2,23.4-49.7c2.5-11.9,5.3-23.7,8.2-35.5
		c5.3-22,14.4-41.9,33.2-55.9c4-3,8.3-5.6,13.2-7.4c-0.2,0.4-0.2,0.9-0.5,1.2c-21.1,17-32.8,39.9-39.8,65.5
		c-3.5,12.8-6.4,25.8-9,38.9c-2.6,12.9-7,25.1-14.7,35.7c-14.9,20.3-25,42.7-30.7,67.2C590.6,587.1,590.2,587.4,589.2,588.6z"/>
	<path d="M673.4,597.9c1.8,3.1,3,5,4.1,6.9c4.5,8.6,8.5,10.6,18.1,9.3c1.6-0.2,3.4-0.4,4.9,0c3.7,1,4.3,4.3,1.5,6.7
		c-4.5,4-15.8,4.3-22.4,0.6c-6.7-3.8-10.1-10.3-8.8-17.5C671.2,602.3,672.2,600.8,673.4,597.9z"/>
	<path d="M699.1,470.2c0,12,0.1,23.9-0.1,35.8c-0.1,4-0.9,7.9-6.4,10.3C688.9,499.6,692.7,484.7,699.1,470.2z"/>
	<path d="M682.7,717.6c1.1-6.6,4.7-11.7,10-13.2c4.7-1.3,8.3,0.9,10.7,4.6c1.3,2,1.6,5,1.4,7.5c-0.1,1.2-2.2,2.8-3.6,3.2
		c-0.7,0.2-2.1-1.8-3-3c-1.2-1.5-2.2-3.1-3.4-4.7c-1.1,1.7-2.1,3.5-3.2,5.2c-0.1,0.1-0.1,0.3-0.1,0.5c-0.6,2.7,0.2,7.1-4.2,6.3
		C685.4,723.5,684.2,719.7,682.7,717.6z"/>
</g>
</svg>
