<?xml version="1.0" encoding="utf-8"?>
<!-- Generator: Adobe Illustrator 18.1.1, SVG Export Plug-In . SVG Version: 6.00 Build 0)  -->
<svg version="1.1" id="Layer_1" xmlns="http://www.w3.org/2000/svg" xmlns:xlink="http://www.w3.org/1999/xlink" x="0px" y="0px"
	 viewBox="0 0 1024 1024" enable-background="new 0 0 1024 1024" xml:space="preserve">
<g>
	<path d="M563.7,365.9c-3.8,5.9-6.2,10.5-9.4,14.4c-4.4,5.3-9.5,5.6-14.1,0.5c-8.4-9.6-19.4-15.5-29.6-22.7
		c-7.5-5.3-14.8-11.4-20.8-18.4c-8-9.1-8.2-19.8-1.7-30.1c2.8-4.5,6.3-8.6,9.8-12.6c7.5-8.5,14.8-17.2,22.9-25.1
		c7.1-6.9,14.9-13.2,22.9-19c6.5-4.7,13.7-4,20.8,0c6.4,3.6,13.1,6.6,19.5,10c2.6,1.4,4.3,1,6.5-1.1c17.2-16.1,37.2-26.9,60.8-30.1
		c3-0.4,3.6-1.8,4-4.5c2.6-17.9,7.3-35.2,15.4-51.5c5.6-11.2,14.6-16.9,26.9-17.9c8-0.6,16-0.8,23.9-1.9c6.4-0.9,12.8-2.4,18.9-4.5
		c9.4-3.2,17.1-1,23.2,6.5c4.2,5.1,8.4,10.3,12.3,15.8c3.7,5.3,3.4,9.3-2,12.8c-5.7,3.7-12.3,6.1-20.3,9.9c0.8,7-0.1,16.5,3,24.5
		c8.2,21.7,2.9,40.5-9,58.7c-2,3-2,5.1-0.5,8.4c13.2,29,18.9,58.9,10,90.4c-0.5,2-0.1,4.3,0.2,6.4c1.4,10.2-0.8,19.2-8.4,26.5
		c-0.9,0.9-1.6,2.1-2.2,3.2c-4.1,7.1-8.1,14.3-12.4,21.9c4.1,3.6,2.2,9.6,2.5,15.3c0.5,10.8,1.3,21.5,2.1,32.3
		c0.1,1,0.9,2.1,1.7,2.8c3.6,2.7,3.2,5.2,1.1,9c-1.9,3.4-2.7,7.8-2.8,11.8c-0.3,10.5,0.1,21,0,31.5c0,3.3-0.4,6.7-1.1,9.9
		c-1.1,5-2.9,5.8-7.1,4c-1.6,7-2.9,14.3-5.1,21.2c-1.1,3.4-4,6.3-6,9.4c-0.5,0.8-1.2,1.6-1.5,2.5c-9.6,29.7-19.3,59.4-20.6,90.9
		c-0.8,18.4,0.1,36.9,0.4,55.4c0,2.5,1,4.9,1.5,7.3c1.5,7.5,4.8,12.1,13.5,13.3c12.9,1.8,21.2,12.5,21.8,25.6
		c0.3,7.2-2.3,13.2-8.7,16.8c-2.5,1.4-3.5,2.8-3.1,5.8c1.1,9.3-2.7,16.5-10.9,20.7c-20.3,10.4-41.5,11.5-63,4.2
		c-7.2-2.4-12-7.8-15-14.6c-4.3-9.9-10.2-18.6-17.9-26.2c-7.3-7.2-9.7-16.9-12-26.5c-0.4-1.6-0.7-3.2-1.1-4.8
		c-5.5,1.9-7.1,1.2-8.7-4.3c-1.3-4.6-2.4-9.4-3.1-14.1c-3.6-23.2-12.8-44.4-22.8-65.3c-0.5-1-1.8-2.2-2.8-2.2
		c-23.4-0.8-45.8-6.2-67.4-15.3c-3,5.6-5.1,11.4-8.7,16c-10.1,13-20.2,26.1-31.6,38c-8.7,9.2-11.2,18.8-7.8,30.5
		c1.8,6.1,3.9,12,5.8,18c1.2,3.8,3.6,5.3,7.8,5.3c11.8,0,21.6,3.9,26.8,15.5c5.9,13.2,1.1,24.2-12.9,27.9c-13,3.4-26.4,3.8-39.7,1.7
		c-9-1.4-15.8-6.4-20.2-14.2c-5.7-10-11.2-20.1-16.3-30.4c-6.2-12.5-12-25.3-17.6-38.1c-2.3-5.3-3.4-11-5.1-16.9
		c-18,11.9-35.9,23.8-35.2,49.3c0.2,6.8,0.2,13.6,0.6,20.4c0.2,4.5,2.4,6.9,7.3,7.8c13.3,2.5,21.7,13,22,26.5
		c0.2,8.1-3.3,14.4-10.7,17.7c-16.8,7.4-34.2,8.2-51.7,2.5c-7.4-2.4-12.1-8-14-15.3c-2.8-11.1-5.5-22.4-6.7-33.7
		c-2.4-23.5-3.6-47.2-5.5-70.8c-0.8-10.2,1.6-18.5,9-26.3c10.4-11,14.5-25.4,16.7-40c2.1-14.3,3.3-28.8,4-43.2
		c1-20.3,3.6-40.3,12.1-58.9c4.3-9.3,9.9-18,15.1-27.3c-3.9-5.8-9.1-12.2-12.6-19.4c-4.4-8.9-7.6-18.4-10.9-27.8
		c-1.2-3.3-1.4-7.1,3.4-8.3c-4.2-17.5-3-34.4,3.1-50.9c0.6-1.6,1.2-3.1,2-4.6c2.3-4.1,3.7-4.3,8.2-1.5c1.4-3,2.7-6,4.3-8.8
		c6.2-11.3,14.6-20.6,25.7-27.4c3.7-2.2,7.4-4.3,9.2,0.6c9.9-3.9,19.1-8.1,28.7-11c9.6-2.9,14,2,11.6,11.8
		c-2.4,9.7-7.4,18.1-13.7,25.8c-2.3,2.8-4.8,5.5-7.3,8.3c-16.4,18.5-19.6,48.6-8.1,69.6c13.6-4.7,26.7-10.8,40.5-13.8
		c18-3.8,36.6-5.3,54.9-7.4c13.5-1.5,26.7-3.8,38.5-11.3c7.1-4.5,15.3-5.5,23.5-5.7c5.6-0.1,9.2-2.2,12.8-6.9
		c3.8-5,9.3-8.9,14.6-12.4c2.8-1.8,4.9-3.5,6.1-6.6c1.5-3.9,3.5-7.5,5.6-11.9C575,386.7,572.5,374.6,563.7,365.9z M404.4,365.1
		c-1.6,0.5-2.4,0.7-3.1,0.9c-12.1,4.2-23.1,10.3-32.9,18.6c-1.1,0.9-3.3,1.9-4.2,1.3c-1-0.6-1.2-2.8-1.7-4.3c-0.2-0.6,0-1.2,0-2.4
		c-11.1,9.8-17.9,21.5-21.9,35c-0.6,2.1-2.1,3.9-3.1,5.9c-1.6-1.3-3.3-2.6-4.9-3.8c-0.2-0.1-0.6,0-1,0.1c-4.3,16-4.4,31.9,1,47.7
		c1.4,4,2.9,7.7-3.9,7.6c4.9,14.2,11.8,26.6,20.5,38c2.8-2.1,5.3-4,8.5-6.4c0,2.2,0.3,3.4-0.1,4.3c-1.9,4.1-3.5,8.3-6,12
		c-15.8,23.6-23.9,49.6-25.2,77.9c-0.8,16.1-2.1,32.3-4.5,48.2c-2.9,18.6-9,36.2-22.8,50.1c-2,2-3,6.1-2.9,9.1
		c0.4,12.5,1.1,25,2.2,37.4c1.8,19.6,3.2,39.2,6.2,58.6c2.9,18.3,8.1,21.8,26.6,22.2c5.3,0.1,7.8-2.3,6.8-7.6
		c-0.6-3.2-2.4-6.3-3.8-9.8c8.6,2.6,9.9,9.4,10.2,18c5-2.1,11.3-2.8,12.8-5.8c3.3-6.8-1-13.1-6.7-18.8c7.8,0.6,10.5,5.9,13.9,11.3
		c-1-10.8-5.4-17-14.3-18.8c-8.8-1.7-12.8-7.1-14-15.3c-0.5-3.5-0.8-6.9-1.2-10.4c-2.3-26.3,6.2-46.9,29.2-61.7
		c30.5-19.7,52.3-47.1,66.1-80.7c2.1-5.1,5-9.8,7.6-14.6c0.5-1,1.5-1.7,2.3-2.6c0.4,0.2,0.8,0.4,1.2,0.6c-1.8,8.5-3.7,16.9-5.6,25.7
		c12.8-3.8,25.3-3.4,37.5,0.1c12.6,3.6,25,8.2,37.3,12.7c16.2,5.9,32.7,10.1,50.8,10.7c-0.9-2.2-1.6-3.8-2.2-5.5
		c-3.8-9.9-5.2-20.1-1.8-30.3c4.1-12.4,7.8-24.7,5.1-38c4.6,4.1,6.4,9.6,6.2,15.1c-0.3,7.8-1.4,15.6-3,23.1
		c-2.1,9.9-1.4,19.2,3.4,28.1c1.8,3.4,3.6,6.8,5.3,10.2c12.4,25.2,24.3,50.5,27,79c0,0.2,0.4,0.5,0.7,0.7c1.3-1.2,2.7-2.3,4.6-4
		c0.8,2.2,1.6,3.8,2,5.5c1.6,6.1,3,12.3,4.5,18.5c1.8,7.7,4.8,14.9,10.5,20.7c7.8,7.9,14.1,16.8,18.4,27.1c2.8,6.8,8.1,11,15.2,12.5
		c5.2,1.1,10.5,1.8,15.8,1.9c7.7,0.1,11-5,7.9-12.2c-1.4-3.2-3.9-5.9-5.9-8.9c3,0.4,6,1.4,8.3,3.2c5.2,4.1,5.7,10.1,5.5,16.8
		c3.4-0.7,6.3-1.2,9.1-2c6.5-1.9,7.9-4.1,7.2-11c-0.7-6.7-4.8-11.3-10.1-15.5c8.4-0.9,13.1,3.6,17.8,16.1c0.4-2,0.8-4.1,0.6-6.1
		c-1.1-10.1-8.4-17.9-18.7-19.1c-9.8-1.2-16.7-6.2-21.3-14.6c-5.7-10.3-10.4-21-11-32.9c-0.5-11.5-3.4-22.3-7.2-33
		c-7.2-20.2-8.6-40.9-6.3-62.1c2.5-22.6,13.2-41.4,26.8-59c-5.3,15.6-10.7,31.1-16,46.7c21.9-11.5,43.6-36.4,51.8-57.8
		c1.3-3.5,2.6-6.3,7.5-2.9c0.7-9.3,1.3-17.6,2.1-25.9c0.6-5.7,2.1-6.8,7.1-6.1c0-6.2,0-12.5,0-18.9c-1.1,0.1-1.5,0.1-2,0.2
		c-12.9,3.4-19.8,0-28.1-10.2c-4.4-5.4-5.3-8.8-2.4-15.2c2.5-5.6,4.6-10.9,9.6-14.7c0.9-0.7,1.5-1.7,2.9-3.3
		c-51.5,1.4-95.5-13.5-130.8-50.8c-13.5,4.8-18.4,17.9-26.7,28.1c0-2.3,0-4.5,0-6.9c-11.1,1.3-21.6,2.2-31.2,8.5
		c-5.1,3.4-11.6,5.3-17.7,6.5c-10.3,2-20.7,3.5-31.2,4.2c-33.5,2.1-65.7,8.7-94.7,26.7c-0.5,0.3-1.1,0.3-2.4,0.7
		c0.5-1.5,0.6-2.5,1.2-3.1c3.4-3.7,1.8-7,0.4-11.2c-3-8.6-5.9-17.5-6.9-26.4c-2.3-21.4,3.5-40.6,19-56.3
		C394.7,384.7,400.7,376.2,404.4,365.1z M565,358.7c6.5,2.4,6.5,2.3,10.2,8.3c2.3,3.8,4.6,7.7,6.6,11.7
		c12.6,24.8,32.3,41.1,58.9,49.2c2.4,0.7,4.8,1.4,7.3,2.2c-2.4-3.8-4.5-7.2-6.6-10.5c5.9,2.7,10.5,6.6,15.6,9.6
		c16.3,9.7,31.4,7.7,44.9-5.7c1.5-1.5,2.8-3.4,4.5-4.7c2.8-2.2,1.7-4.6,0.2-6.5c-0.9-1.2-2.9-1.9-4.5-2.3c-6.2-1.5-13-1.7-18.6-4.5
		c-10.6-5.2-12.5-18.5-4.3-27.1c6.8-7.2,15.4-11.1,25.3-11.7c9.5-0.6,16.6,6.1,17.3,15.6c0.6,8.2-1.8,15.5-7.7,21.4
		c-1,1-2,2.1-3.8,4c2.3,2.1,4.3,5.3,6.5,5.5c4.9,0.3,10-0.5,14.8-1.6c13.3-2.9,19.8-11.7,18.7-25.3c-0.3-4.1-1.2-8.2-1.9-12.3
		c-0.5-2.8-1.1-5.5-1.8-9c1.9,1.2,3,1.8,5,3.1c0.5-9.5,0.9-18.2,1.4-27.5c-1.8,0.5-2.4,0.6-3,0.9c-26,10.1-57.9-4.4-67.3-30.5
		c-2.4-6.6-3.2-13.3-0.7-20.1c3.3-8.7,13.9-12.7,21.2-7.8c-1.3,0-2.3,0-3.3,0c-10.2,0.1-16.6,6.1-15.9,16.2
		c0.4,5.5,1.9,11.3,4.6,16.1c7.3,13.1,18.8,21.5,33.3,25.2c8.5,2.2,17.1,2.2,25.6-0.8c3.7-1.3,4.8-3.2,4.1-7
		c-2.8-17.1-7.7-33.4-15.6-48.8c-1.3-2.6-2.5-5.2-4.4-9.1c3.3,1.4,5.1,2.3,7.7,3.4c3.3-6.8,6.8-13.2,9.7-19.9
		c3.9-8.8,4.9-18.1,1.5-27.3c-4.1-11.1-5-22.4-3.8-34c0.1-1.1,0-2.2,0-3.1c-4.6-1.3-8.8-2.4-12.9-3.7c-4.1-1.4-8.1-3.1-12.1-4.7
		c-4.7-1.8-9.2-4-14-5.3c-10.7-3.1-15.5-0.5-18.8,10.1c-5.7,18.1,0.6,33.9,9.2,49.3c3.3-2.9,6.3-5.5,9.3-8.1c0.5,0.3,0.9,0.7,1.4,1
		c-1,4.5-2,9.1-3.1,14.4c4.1-0.5,7.5-0.5,10.6-1.4c5.1-1.6,7.3,0.3,8.5,5.2c0.6,2.5,2.1,4.9,3.8,6.8c3.8,4.2,7.2,4,10.9-0.4
		c1.4-1.7,2.7-3.5,4.4-5.8c0.2,6.9-3.2,13.2-8.2,13.9c-10.4,1.5-13.6-6.8-17.4-14c-2.6,0.5-5.1,1.5-7.5,1.2c-4-0.5-10.3,4-11.1-4.5
		c0-0.2-0.9-0.2-1.2-0.4c-1.5-1.1-3.4-1.9-4.5-3.3c-7.2-10.1-12.7-21.1-13.4-33.4c-0.5-7.8,0.4-16.1,2.7-23.5
		c4.3-13.8,12.9-17.8,26.9-13.8c7.3,2.1,14.3,5.7,21.6,7.7c7.6,2.1,15.5,3.9,23.3,4.6c5.7,0.5,10.9-2,15.1-7.4
		c-4.7-5.7-9.2-11.2-13.8-16.6c-3.6-4.1-8.1-5-13.1-2.9c-10.5,4.3-21.6,5.5-32.8,5.9c-3.3,0.1-6.6,0.6-10,0.7
		c-12.4,0.2-19.9,6.6-24.6,17.8c-6.1,14.4-9.5,29.4-12.2,44.7c-0.7,3.9-0.4,6.4,4.1,7.2c1.6,0.3,3,1.5,4.5,2.3
		c-0.1,0.5-0.2,0.9-0.3,1.4c-1.5,0.2-3.1,0.4-4.6,0.4c-29.6,0.2-54.3,11.9-75,32.5c-2.3,2.3-4,2.7-6.9,1.2c-8.4-4.4-17-8.5-25.3-13
		c-4.2-2.3-8.4-3.1-12.2-0.2c-7.4,5.6-14.9,11.2-21.5,17.6c-8,7.7-15.3,16.2-22.6,24.6c-3.5,4-6.6,8.3-9.4,12.8
		c-4.2,6.9-3.7,14.1,1.6,19.9c5.2,5.8,10.9,11.4,17.3,15.7c11.3,7.6,23.2,14.5,32.3,24.9c0.3,0.3,0.9,0.4,1.5,0.7
		c4.9-4,6.8-9.7,8.7-15.4c4.8-15.1,3.6-30.3,0.8-45.5c-1.5-8.5-3.7-17-4.1-25.6c-0.3-6.4,1-13.2,3-19.4c1.6-4.8,5.8-5.3,9.2-2.4
		c-1.2,2.4-2.4,4.9-3.4,7c4.6,3.9,8.8,7.1,12.7,10.7c12.9,12,11.2,26.4,6.5,41.2c-1.8,5.5-5.3,9.5-10.4,12.2c-1.3,0.7-2.7,2-3,3.3
		C566.2,347.5,565.7,353,565,358.7z M487.1,648.4c-16.6-6.1-32.9-9.9-50.3-6.5c-3.9,0.8-6.3,2.6-8.1,6.3
		c-7.2,15-16.7,28.6-29.1,39.6c-9.2,8.1-11.3,17.4-6.4,27.7c10.9,23.4,22.3,46.5,33.9,69.6c3.1,6.2,8.7,9.6,15.8,9.9
		c6.3,0.3,12.6,0.1,19,0.3c4.5,0.1,5.1-2.4,3.8-5.8c-1.2-2.9-3-5.6-4.6-8.6c6.4,1.3,7.7,2.7,12,12.6c9-1.4,11.5-5.4,8.2-13.8
		c-1.9-5-5.4-8.4-10.6-9.7c-2.7-0.7-5.5-1.3-8.3-1.5c-6.3-0.4-11-3.5-13.4-9c-3.8-8.8-7.3-17.8-9.9-27c-3.2-11-0.6-21.1,7.3-29.6
		c6.8-7.3,13.6-14.6,20.2-22.1C474.7,671.2,482.6,661.3,487.1,648.4z M699.6,606.1c-12.1,13.8-25.3,24.1-39.4,33.3
		c-1.3,0.9-2.1,3.2-2.2,5c-1.8,20,1.1,39.4,7.5,58.5c2.9,8.7,5.1,18,6,27.2c1.2,11.7,4.6,22.4,10.1,32.6c3.3,6.2,8.1,9.9,15.3,10.3
		c8.2,0.5,14.4,4.7,19.2,11.2c0.8,1.1,1.8,2.2,2.7,3.2c5.1-2.3,6.4-6,5.6-10.8c-1.4-9.3-7.1-14.6-16-16c-8.7-1.4-13.6-6.5-16.1-14.4
		c-1.3-4-2.9-7.9-3.3-12c-1.1-11.6-2-23.2-2.5-34.8c-1-22.2,0.9-44.3,6-65.9C694.6,624.7,697,616.1,699.6,606.1z M587.6,405.5
		c-5.5,9.5-5.8,10,2.1,17.3c33.1,30.8,72.5,44.1,117.5,42.2c4.1-0.2,5.6-1.6,5.2-5.7c-0.6-5.9-2.5-8.7-6.5-8.6
		C660.3,451.8,621,437,587.6,405.5z M567.3,336.9c17-14,13.1-45.3-6.6-57.2C559.9,299.1,567.5,317.1,567.3,336.9z M736,418.7
		c-6.4,0.6-12.5,1.1-18.6,1.8c-1.4,0.2-3.1,0.5-4.1,1.3c-6.3,5.6-12.5,11.4-18.3,16.8C711.5,440.8,729.7,432.3,736,418.7z
		 M702.1,500.6c2.4,5.6,6,9.2,11.5,10.6c1.6,0.4,3.4-0.2,5-0.3c-0.4-1.8-0.9-3.5-1.1-5.3c-0.2-2.2-0.9-5,0.1-6.6
		c0.8-1.1,4.9-1.5,5.9-0.5c1.3,1.3,1.2,4.2,1.2,6.4c0,1.8-0.7,3.6-1.3,6.4c7.9-3.5,11.2-8.5,12-16
		C723.5,493.8,712.7,495.5,702.1,500.6z M732.2,484.2c-3.5-6.1-10.4-9.2-17.4-7.6c-7,1.6-11.9,6.7-12.4,12.1
		C712.2,487.2,722.1,485.7,732.2,484.2z M682.7,387.5c10.1-2.2,18.7-5.1,25.8-12.6C699.3,372.9,687.2,378.6,682.7,387.5z
		 M717.1,449.5c0.8,4.8,1.6,8.9,2.3,13.1c7.8-1,9.8-5.1,7.5-15.8C723.6,447.8,720.3,448.7,717.1,449.5z M699.1,497
		c12.3-5.4,24.9-7.4,38.1-5.8C727.9,486.5,706,489.8,699.1,497z"/>
	<path d="M308,505.3c-32.7-23.6-52.1-69.3-40.2-97.5C269.8,446,285.5,477,308,505.3z"/>
	<path d="M248.4,471.4c12.1,22.1,28.9,39.1,47.7,55.5C271.2,519,247.3,491.4,248.4,471.4z"/>
	<path d="M730.3,306.9c-3.2-0.3-4.9-0.4-7-0.6c0.7,2.1,1.3,4.1,2,6.5c1.3-1.6,2.5-3,3.9-4.8c0,12.9-11.6,22.4-23.4,19.6
		c-1-0.2-2.3-1-2.8-1.8c-3.6-6.4-5.2-13-1.9-20c2.5-5.2,6.9-7.5,12.6-7.3C719.8,298.8,724.7,301.6,730.3,306.9z M717.4,308.1
		c-1.9-1.5-3.2-3.4-4.1-3.1c-1.3,0.4-2.3,2-3.5,3.2c1.1,1,2.1,2.7,3.3,2.9C714.1,311.1,715.4,309.5,717.4,308.1z"/>
	<path d="M618.8,354.9c-1.2,1.7-2.3,3-4.1,5.5c-0.3-7.4,0-13,3.4-18c4-5.9,11.3-7.3,18.2-3.5c5.3,2.9,10.8,7.6,10.2,13.1
		c-0.4,4-6.3,8.1-10.6,10.8c-6.4,4-13,2.4-18.9-2.7c1.8,0.1,3.5,0.2,5.6,0.4C621.3,358.6,620.2,356.9,618.8,354.9z M635.7,345.5
		c-2-1.3-3.3-2.8-4.5-2.7c-1.2,0.2-2.1,2-3.1,3.1c1.2,1.1,2.3,2.8,3.7,3C632.7,349,633.9,347,635.7,345.5z"/>
	<path d="M653.5,371.5c0.2-7.8,1.3-16.8,0.2-25.6c-0.8-6.2-3.7-12.5-7.2-17.8c-9.6-14.3-22-14.7-33-1.8c0.5-6,5.4-11.6,12-12.2
		c3.8-0.3,8.1,0.2,11.6,1.7C656,323.9,664.4,356,653.5,371.5z"/>
</g>
</svg>
