<?xml version="1.0" encoding="utf-8"?>
<!-- Generator: Adobe Illustrator 18.1.1, SVG Export Plug-In . SVG Version: 6.00 Build 0)  -->
<svg version="1.1" id="Layer_1" xmlns="http://www.w3.org/2000/svg" xmlns:xlink="http://www.w3.org/1999/xlink" x="0px" y="0px"
	 viewBox="0 0 1024 1024" enable-background="new 0 0 1024 1024" xml:space="preserve">
<g>
	<path d="M608.6,879.7c10.4,2.1,20.6,3.6,30.5,6.3c17.1,4.7,30.4,14.8,39.4,30.3c0.2,0.4,0.5,0.9,0.7,1.3
		c7.6,14.4,4.5,19.8-11.7,20.1c-1.7,6.4-3.9,8.5-10.9,9.1c-5.1,0.4-10.3,0.1-15.3,0.1c-1.7,8-3,9-11.8,9.2
		c-24,0.6-47.5-3.2-70.9-7.6c-9.8-1.8-19.5-4.1-29.3-6.3c-23.6-5.2-33.6-24-24.9-46.8c2.5-6.7,5.3-13.3,6.9-20.2
		c1-4.4,0.2-9.2,0.2-13.8c-11.7,2-22.6,4.3-33.6,5.6c-8.7,1.1-17.6,0.8-26.4,1.5c-3,0.2-6.1,1.1-8.9,2.3
		c-7.4,3.2-14.7,6.8-22.4,10.4c1,5.7,2,11.8,3.4,17.8c0.3,1.2,2.5,2.7,4,2.8c13.5,1.3,25.9,5,34.7,16.1c6.1,7.7,11.4,16,13,26.1
		c1.1,6.8-1,9.5-7.9,9.5c-7.1,0-14.2-0.8-21.7-1.3c0,0.8,0.1,1.9,0.2,3c0.2,5.8-2.4,9.2-8.3,8.7c-7.8-0.6-15.5-2.2-23.2-3.4
		c-1.6-0.3-3.2-0.8-4.8-1.2c-0.3,0.4-0.6,0.6-0.6,0.9c-1.4,9.1-3,10.7-12,9.7c-15.3-1.6-30.2-5.3-44.2-11.9
		c-11.2-5.3-19.3-13.5-23.9-25.1c-6.5-16.3-12.1-32.8-11.9-50.7c0.1-8.8,2.2-16.7,7.6-23.8c3-3.9,5.4-8.4,8.2-12.7
		c-1.2-1-2-1.8-2.9-2.5c-28.5-20.5-44.1-48.8-50.1-82.8c-0.4-2.3-1.8-4.6-3.3-6.3c-7.7-8.8-16-17-23.2-26.1
		c-9.3-11.8-5.9-19.6,8.9-22.1c5.6-1,11.2-1.6,16.8-2.7c1.4-0.3,3.6-1.3,3.8-2.3c0.2-1.5-0.6-3.5-1.6-4.8
		c-4.3-5.3-9.3-10.1-13.2-15.6c-2.6-3.6-4.4-7.9-5.6-12.1c-2.1-7.4,0.9-12.5,8.4-14.3c7.4-1.7,15.1-2.6,22.6-4
		c1.4-0.3,3.6-1.1,3.8-2.1c0.3-1.4-0.5-3.3-1.4-4.6c-4.5-6-9.2-11.8-13.7-17.8c-1-1.3-1.7-2.9-2.4-4.4c-5-11.7-2.4-17.1,10-19.6
		c5.9-1.2,11.9-1.7,17.7-2.9c1.6-0.3,4-1.6,4.4-2.8c0.7-2.5,2.5-5-0.4-8.2c-7-7.7-13.9-15.8-19.8-24.4c-6.1-9-3.9-14.5,6.6-17.5
		c7.3-2.1,15-3.2,22.4-4.9c1.8-0.4,3.9-1.5,4.8-2.9c1.6-2.4,0.6-4.7-1.5-7c-7-7.8-14.1-15.6-20.1-24.1c-8.9-12.7-5.9-18.7,9.5-21
		c5.2-0.8,10.4-1.6,16.4-2.6c-2.1-2.4-3.7-4.2-5.3-6c-21.2-24.7-29.1-54.2-29.9-86c-0.8-31.4,5.2-61.3,21.6-88.6
		c0.3-0.4,0.5-0.9,0.8-1.3c4.1-5.2,9.8-9.9,11.9-15.8c2.1-5.8,0.1-13,1-19.4c5.4-37.7,11.2-75.4,16.8-113.2c1-6.9,2-13.8,3.1-21.4
		c-11.6-1.9-18.9-9-22.2-20.4c-1.8-6.1-1.7-12.2,1.6-17.9c7.1-12.4,24.7-17,36.7-9.6c13.7,8.4,15.7,25.8,5.4,42
		c29.4,35.4,58.6,70.5,87.9,105.8c14-9,28.7-10.9,42.9-1.1c6.5,4.5,12.1,11.2,16.1,18c4,7,8.4,9.2,16.3,9.3
		c28.5,0.5,56.4,5,83.4,14.3c1.6,0.5,3.1,1,5.2,1.7c0.4-2.1,0.8-4,1.3-6.4c-3.1-0.4-6-0.7-8.9-1.1c-18.6-3.1-33.7-13.2-47.5-25.2
		C533.4,211.5,520,156.3,537,115c12.4-29.9,33.9-49.8,66.1-55.8c37.5-7,66.9,6.9,88.6,37.7c1.1,1.5,2.1,3,3.1,4.6
		c0.9,1.4,1.8,2.8,2.5,3.8c7.9-3.1,15.4-6.9,23.3-9.1c43.1-11.9,85.1,10.8,100.3,53.9c21.9,61.8-15.2,132.1-78.7,149.2
		c-0.8,0.2-1.5,0.5-1.4,0.5c1.1,5.9,3.9,11.8,2.7,16.8c-1.5,6.1-8.7,6-14.3,6.8c-1.6,10.6-3,21.2-4.8,31.6
		c-8.3,47.9-26,92.5-47.8,135.6c-7.2,14.3-14.7,28.4-22,42.6c-1.1,2.2-2.1,4.5-3.2,6.8c-2.2,4.3-2.3,7.3,2.4,10.7
		c5.5,4,8.5,10.1,6.8,17.6c-0.3,1.1,0.6,2.8,1.4,3.9c5,7,4.9,11.4-0.6,17.9c-5.2,6.2-11.7,9.8-20.5,9.2c0.5,11.7,1.5,22.9,6.4,33.3
		c1.1,2.3,4.1,3.6,6.1,5.6c0.9,0.9,1.4,2.2,2.1,3.4c-1.3,0.6-2.9,2.2-3.7,1.8c-3.3-1.6-8-3.1-9.2-5.9c-3.3-8-5.4-16.6-7.4-25.1
		c-1-4.1-0.8-8.6-1.1-12.9c-0.5-0.1-0.9-0.1-1.4-0.2c-1.3,6.5-3,13-3.9,19.5c-1.4,10.5-3.4,21.1,0.4,31.6c0.3,0.9-0.4,2.1-0.6,3.1
		c-1.4-0.3-3.6-0.2-4-1c-1.6-3.4-3.7-7-3.7-10.5c0.1-11.4,1-22.8,1.7-34c-17.1,16.2-38.1,26.6-62.6,30c0.2,0.8,0.2,1.3,0.5,1.6
		c11.4,12.4,20.4,26.3,27.3,41.6c0.8,1.7,2.3,3.5,3.9,4.3c26.4,12.4,54,19,82.9,13c35-7.3,55.6-30.3,64.2-64.4
		c3.7-14.4,3.8-29,0.6-43.6c-0.7-3.2-1-6.7-0.6-9.9c0.9-8,7.8-11.3,14.6-7.1c2.7,1.6,5.1,3.8,7.2,6.1c19.3,21.6,30,47.4,32.9,75.8
		c7,67.6-17.1,121.6-73.4,160.7c-28.1,19.5-59.2,32.5-91.8,42c-4.8,1.4-8.1,3.5-10.4,8.1C615.6,870.9,611.8,875.3,608.6,879.7z
		 M443.8,383c-4.3,5.6-8.9,0.8-13,2.4c5.3,9.3,11.2,18,20.2,23.4c9.7,5.7,19.7,11.6,30.3,15.1c45,14.7,91.1,16.8,137.7,8.7
		c15.2-2.6,29.8-7,43.5-14.1c5.1-2.6,8.1-6.2,9.3-12c4-20.4,4.4-40.7,0.9-61.1c-5.6-33.1-24-55-56.2-65.6
		c-30.3-10-61.4-15-93.3-15.3c-3.6,0-5.6-1.1-7.4-4.3c-3.6-6.3-7.4-12.7-12.2-18.2c-12.5-14-30.1-14.1-43.6-1.1
		c-5.5,5.3-11.1,10.8-17.5,14.7c-28.4,17.6-59.3,28-92.6,30.1c-11.1,0.7-17.9,5-24,13.5c-14.8,20.9-22.2,44.3-24.3,69.4
		c-3.4,41.4,4,79.7,34.5,110.8c2.1,2.2,3.3,6.2,3.4,9.4c0,5.4-1.3,10.9-2,16.3c-6,43.7-17.4,86.1-29.1,128.5
		c-7.3,26.3-15.2,52.5-20.5,79.2c-5.2,26.5-3.7,53.1,8.1,78.2c9,19.1,22,34.7,39.8,46.9c4.5-8.9,5-18,4.1-27.5
		c-0.2-2.4,0.7-5,1.2-8.2c5.9,3.5,5.7,8.1,6,12.3c1.3,17.8-6,32.8-15.5,47c-6.3,9.4-9,19.6-6.5,30.4c3,13.1,6.7,26.1,11,38.8
		c4.6,13.4,15.4,20.4,28,24c1.9-5.3,3.1-10.8,5.7-15.5c8.1-15,16.7-13.8,26.1-5.1c2.4,2.2,4.5,4.8,7.1,7.5c1.5-5.1,2.6-10,4.4-14.6
		c3-8,9.4-10.3,16.8-5.9c3.5,2.1,6.4,5.3,9.3,8.2c1.8,1.8,3,4.1,4.8,6.7c1.1-4.3,1.9-7.9,3-11.5c1.1-3.6,2.5-7.1,4.1-11.7
		c-6.6-1-12.6-2.4-18.7-2.8c-6.9-0.4-8.8-1.6-10-8.4c-1.1-6.4-2-12.8-3.1-19.4c-6.4,0.6-12.5,1.5-18.6,1.7
		c-3.4,0.1-6.9-0.6-10.3-1.4c-0.9-0.2-1.8-2.2-2-3.4c-0.1-0.5,1.8-1.6,2.9-1.9c1.2-0.3,2.6-0.1,4,0c23.9,0.7,44.8-7.1,62.7-23
		c39.2-34.8,41.9-90.9,10.3-126.6c-27.1-30.7-70.8-30.1-96.9-10.8c-1.4,1-3,1.7-4.5,2.5c-0.6-0.4-1.1-0.8-1.7-1.2
		c1.2-2.2,1.8-5,3.6-6.6c2.8-2.5,6.1-4.7,9.5-6.4c20.4-10,41.5-11.9,63-4.1c26.3,9.6,42.1,29.9,50.2,55.4
		c12.4,38.7,1.8,72.5-26.5,101.1c-1.2,1.2-2.5,2.3-3.7,3.5c7.7,0.2,14.8-0.1,21.9-1.2c10.2-1.6,20.6-2.9,30.3-6
		c61.4-19.3,94.3-69.2,83.9-135.3c-3.9-24.6-14.3-47.1-30.8-66.3c-19.2-22.3-35.1-47-48.8-72.9c-10.7-20.1-20.5-40.7-27.2-62.6
		c-0.4-1.3-2.3-2.8-3.6-3c-6.3-0.8-12.6-1.1-18.9-1.8c-22.3-2.6-43.5-8.2-62.1-21.5c-10-7.1-17.8-16-23.1-27.1
		c-1.6-3.3-2.8-6.8,1.3-9.5c0.6,0.4,1.1,0.6,1.4,1c0.6,0.8,1.2,1.6,1.6,2.5c10.2,22.1,29,33.9,51,40.9c20.3,6.4,41.5,8.2,62.6,9.2
		c26.1,1.3,52.3,2.1,78.2-3.4c20.7-4.4,37.8-14.4,50.9-31.1c2.4-3.1,4.3-6.5,6.2-9.3c-8.1-5.7-15.5-11-22.6-16.1
		c-2.2,4.9-4.1,10.1-6.8,14.8c-3.8,6.6-10.6,7.7-16.4,2.8c-5.5-4.5-10.7-9.4-15.7-13.9c-2.2,3-4.9,7.3-8.2,11
		c-8,8.8-15,8.7-22.6-0.3c-3.9-4.6-7.2-9.8-10.9-14.8c-3.4,4-6.7,7.9-10.2,11.7c-8.7,9.3-16.3,8.7-23-2c-3.8-6.1-6.9-12.7-10.7-19.9
		c-2.9,3.1-5.4,6.4-8.5,9.2c-13.9,12.3-24,9.3-28.6-8.8c-2-7.9-3.2-16-4.9-24c-0.4-1.7-1.1-3.5-2.1-4.9c-4.8-6.2-9.9-12.1-14.6-18.4
		c-1.9-2.5-3.5-2.6-5.8-1c-2.1,1.4-4.1,2.9-6.4,3.9c-1.3,0.5-3,0-4.5-0.1c0.1-1.6-0.1-3.2,0.4-4.6c0.4-1.2,1.6-2.1,2.6-3
		c7.6-6.4,16.5-7.5,25.9-6.3C438.9,379.4,441,381.5,443.8,383z M659.9,201c1.2,29.8,16.5,61.8,49.9,84.1c13.8,9.2,27.9,10.3,43,3.1
		c32.2-15.3,53.7-39.5,63.4-74.1c8.2-29.2,5.8-56.7-12-81.9c-17.8-25.2-50.8-37.9-78.5-30.5C686.3,112.1,659.8,148.3,659.9,201z
		 M626.8,850.9c-0.6-0.1-0.1,0.1,0.3,0c33.5-10.6,65.8-23.7,94.2-44.9c54.6-40.5,78.4-106,61.6-170.1c-4.6-17.4-12.2-33.5-23.9-47.3
		c-3.1-3.7-7.1-6.5-10.7-9.8c-0.6,0.3-1.2,0.7-1.7,1c0,2.4-0.4,4.8,0.1,7.1c4,17.8,3.3,35.5-1.8,52.9c-9.9,33.5-30.4,56.9-65.4,65.6
		c-20.1,5-40.1,3.1-59.8-2.3c-8.9-2.4-17.6-5.5-26.4-8.4c-0.1,0.5-0.2,0.8-0.1,1.1c6.3,17.2,8.3,34.9,7,53.1
		c-0.1,1.3,0.8,3.2,1.8,4.1c19.7,15.9,28.4,37.2,28.4,61.8C630.6,826.8,628.2,838.8,626.8,850.9z M691.2,107.6
		c-4.2-5.4-9-12.6-14.8-18.7c-27.5-29.3-70.9-33.3-103-9.1c-24.5,18.4-36.9,43.4-36.8,74.1c0.1,46.4,29.5,88.4,71.5,102.8
		c21.5,7.4,37.7,2.8,51.9-15c1.1-1.3,1.4-3.9,1-5.6c-2.4-11.7-6.3-23.2-7.3-35c-2.6-29.1,5.4-55.4,24.2-78
		C682,118.2,686.2,113.4,691.2,107.6z M651,898.8c-2.3-1.1-4.3-2.4-6.5-2.9c-13.9-3.2-27.9-6.3-41.8-9.2c-1.3-0.3-2.8,0.8-4.2,1.1
		c-1.3,0.3-2.6,0.4-4,0.6c-0.1-1.4-0.7-3-0.3-4.3c0.6-1.6,1.8-3.2,3.1-4.4c15.9-14.1,23.8-32,26.3-52.8c2.7-22.8-2.6-42.9-18.2-60.1
		c-1.8-2-3.7-4-6.1-6.6c-7.4,50-37,80.4-81.4,98.9c3.3,12.4,0,23.8-5,35.3c-2.6,5.9-3.8,12.8-3.8,19.3c-0.1,9,4.4,16.1,13.7,18.7
		c8.3,2.4,16.7,4.4,25.2,6c16.1,3.1,32.3,5.8,48.5,8.7c0.8-6.1,1-11.5,2.3-16.6c3-11.7,12.1-15.3,22.7-9.6c1,0.5,2,1,2,1
		c2.8-4.9,4.5-10.5,8.3-14c4.9-4.5,10.6-0.5,16,1.9C648.8,906.1,649.9,902.7,651,898.8z M492.6,514.8c0.4,2,0.4,3.4,0.9,4.6
		c5.7,14.2,11.4,28.4,17.4,42.5c0.7,1.7,2.9,3.5,4.6,3.9c6.8,1.6,13.7,2.5,20.5,3.8c19.2,3.8,37,0.8,53.3-10.4
		c5.9-4.1,11.8-8.1,18-11.7c9.4-5.5,19.4-8.6,31-6.3c9.1-36.2,16.6-72.7,17.7-110.5c-6.1,1.2-9.3,3.2-10.7,9.6
		c-5.1,24.5-16.3,45.5-39,58.2c-8.2,4.6-17,8.4-26,11.4c-20.7,7-42.3,6.8-63.8,6.2C508.9,515.8,501.2,515.2,492.6,514.8z
		 M639.4,549.7c-5.8-2.5-11.1-2.9-16.2-1c-5.1,1.8-10.1,4.2-14.9,6.9c-6,3.5-11.8,7.5-17.6,11.4c-20.3,13.5-42.3,13.1-65,8.5
		c-2.5-0.5-5.1-1.2-7.6-1.7c-0.5,0.5-0.9,0.9-1.4,1.4c11.6,18.2,23.3,36.3,35,54.4c0.6,0.9,2.6,1.4,3.9,1.2c18.5-2.3,35.5-8.6,51-19
		c11.5-7.7,20.3-17.7,25.2-30.7c3-8.1-0.6-13.8-9.3-14.6c-1.8-0.2-3.6,0.4-5.4,0.4c-1,0-2.6-0.3-2.9-0.9c-0.3-0.8,0-2.7,0.7-3
		c2.5-1.4,5.5-3.7,7.9-3.3C631.3,560.8,634.3,554.5,639.4,549.7z M651.2,522.2c0.7-1.6,1.5-3.2,2.1-4.9c5-14.8,10.3-29.6,15-44.4
		c10.8-33.6,18.3-67.9,20-103.2c1.2-25.8,1.3-51.6,2.4-77.4c0.3-8.3-1.5-14.6-7.7-20.7c-6.8-6.8-11.7-15.5-17.2-23
		c-7,5.2-14.3,10.5-21.2,15.6c1.5,3.5,4.1,6.9,4.1,10.4c0,3.6-2.7,7.2-4.3,11.2c14.3,8.5,23.8,21.6,29.5,37.6
		c8.4,23.6,9.2,47.9,6.6,72.5c-1.3,12.7-3.5,24.5-16.6,30.7c-1.1,0.5-1.5,3.1-1.6,4.8c-0.4,7.1,0,14.4-0.9,21.5
		C658.3,475.8,654.7,498.8,651.2,522.2z M696.8,285.8c0,3.3,0,6.1,0,8.9c-0.4,22.8,0,45.7-1.3,68.5c-2.7,50.2-14.9,98.2-34.3,144.5
		c-0.5,1.1-0.8,2.3-1.3,3.5c1.5-1.2,2.2-2.7,2.9-4.2c8.9-20,17.8-40.1,26.8-60.2c17.3-38.8,27.8-79.4,32.7-121.5
		c0.3-2.6-0.1-4.1-2.8-4.8c-1.4-0.3-2.8-1-4.2-1.7c-6.6-3.2-7.3-5.8-3.2-12c2.1-3.1,4.3-6.1,6.5-9.1
		C711.3,293.6,704.5,289.9,696.8,285.8z M423.4,200.6c-1.4,1.6-2.4,2.9-3.5,4.1c-23.1,25.7-48.8,48.2-79.4,64.6
		c-4.4,2.4-5.5,5-4.2,10c6.8-0.4,13.7-0.5,20.4-1.4c13.4-1.8,27-3.5,38.3-11.7c17-12.5,31.8-27.3,44.9-43.9c0.2-0.2,0.1-0.6,0.2-1.3
		C434.7,214.5,429.2,207.7,423.4,200.6z M337.1,264.3c5.9-3.6,11.2-6.7,16.2-10c23.8-15.6,45-34.1,62.7-56.5
		c0.8-1.1,1.7-3.4,1.1-4.1c-5.3-7.1-11-13.9-17.1-21.6c-1,1.6-1.3,2.2-1.7,2.7c-16.4,18.7-33.4,36.6-53.9,50.9
		c-1.1,0.8-2.1,2.3-2.3,3.6C340.5,240.7,338.9,252,337.1,264.3z M397.3,168.1c-6.1-6.9-11.1-12.4-16-18c-3.8,3.6-6.8,6.5-9.8,9.3
		c-3.1,2.8-5.9,6-9.4,8.2c-9.7,6-14.2,14.4-14.9,25.8c-0.5,8.4-2.5,16.7-3.8,25.1c0.5,0.3,1,0.6,1.5,0.9
		C362.1,202.5,379.5,185.5,397.3,168.1z M353,87.8c-11.2,0-19.3,7.2-19.3,17.1c0,10.9,9.9,19.9,22,20.1c7.9,0.1,15-8.5,15-18.1
		C370.7,96.4,362.7,87.8,353,87.8z M439.6,957.8c-2.9-12.7-7.8-22.3-16.9-29.2c-2.7-2.1-5.9-3.6-8.5,0.5c-4.5,7.1-5.9,14.9-6.3,23.6
		C418.4,954.4,428.4,956,439.6,957.8z M402,964c-1-12.6-4.9-21.8-14.3-28.1c-3.8-2.5-7.4-1.6-10,2.1c-4.1,5.9-5.1,12.7-6,20.5
		C381.9,960.3,391.5,962.1,402,964z M333,490c-8.9,1.7-16.7,3.1-24.3,4.9c-0.9,0.2-2.2,3.4-1.7,4c6.4,8.7,13.1,17.2,19.7,25.7
		c0.5-0.3,0.9-0.6,1.4-0.9C329.6,513.1,331.2,502.5,333,490z M295.2,554.5c-0.2,0.7-0.5,1.5-0.7,2.2c6.7,8.4,13.4,16.8,20.8,26.1
		c2.9-12.5,5.4-23.3,8.2-35.5C313.1,550,304.2,552.2,295.2,554.5z M280.8,710.1c-8.9,2.6-18.2,1.2-26.8,7c8.2,9.8,15.8,18.9,24.2,29
		C279.1,733.2,279.9,722.1,280.8,710.1z M658.6,939.6c-1.2-7.3-7.2-17.3-12.9-22.5c-6.6-5.9-10.4-4.7-12.9,3.9
		c-1.3,4.4-1.7,8.3,2,11.8c1.2,1.1,1.5,3,2.5,4.3c0.9,1,2.2,2.4,3.4,2.4C646.5,939.7,652.5,939.6,658.6,939.6z M632.9,947.9
		c-2.5-9.2-6.6-16.7-15-21c-5.4-2.8-9.6-1.2-11.2,4.7c-1.3,5-1.8,10.3-2.7,16.3C614.2,947.9,623.3,947.9,632.9,947.9z M283.9,690.1
		c0.6-0.2,1.1-0.5,1.7-0.7c2.9-10.6,5.9-21.1,9.1-32.7c-8.2,1.7-15,3-21.8,4.6c-3.9,0.9-5.8,3.3-3.2,7.3
		C274.4,675.8,279.2,683,283.9,690.1z M376.3,145.6c-3.7-4.5-7-8.8-10.6-12.9c-0.8-0.9-2.5-1.5-3.8-1.5c-3.6,0.2-5.8,1.6-6.2,6
		c-1,10-2.8,19.9-4.2,29.8c0.4,0.2,0.7,0.4,1.1,0.5C360.4,160.2,368.2,153,376.3,145.6z M448,417.3c2.7,8.8,5.1,17.3,7.8,25.7
		c0.8,2.4,2.6,4.4,5.8,3c7.2-3.3,12.6-8.6,17.9-14.2C469,426.9,459,422.3,448,417.3z M450.9,916.8c-2.6,9.5-5,18.3-7.8,28.2
		c9.2,0.6,17.3,1.1,26.2,1.6C465.8,934.4,460.4,924.7,450.9,916.8z M300.5,638.3c2.9-11.2,5.4-21.4,8.3-32.7
		c-7.4,1.4-13.8,2.2-20,3.8c-4.9,1.3-6.1,4-3.3,8.2C290,624.5,295.1,631,300.5,638.3z M409.3,262.5c0.4,0.5,0.8,0.9,1.2,1.4
		c15.2-7.3,31-13.7,43.1-26.7c-2.9-3.6-5.5-6.7-7.3-8.8C433.9,239.8,421.6,251.1,409.3,262.5z M522.7,441.7
		c-11.2-2.4-20.8-4.5-31.2-6.7c2.6,8.4,6.1,15.6,11.8,21.5c0.9,1,4.4,1,5.4,0.1C513.3,452.2,517.5,447.3,522.7,441.7z M535.2,443
		c-0.4,0.4-0.8,0.9-1.2,1.3c4.1,5.2,8.2,10.5,12.5,15.6c1.9,2.3,4.5,2.2,6.4-0.2c3.6-4.6,7.1-9.4,11.3-14.9
		C553.6,444.2,544.4,443.6,535.2,443z M675.4,929.4c-3-11.2-9.9-19.4-18.5-26.8c-3.2,6.9-5.2,13,1.5,18.2c0.9,0.7,1.3,1.9,1.9,2.9
		C665,931.1,665.9,931.5,675.4,929.4z M640.3,435.7c-9.7,2.3-17.8,4.2-27.5,6.5c7.3,5.2,13.4,9.5,20.1,14.2
		C635.5,449.2,637.7,443,640.3,435.7z M600.6,444.7c-9.1,0-17.1,0-25.2,0c-0.3,0.5-0.6,1.1-0.8,1.6c4.9,4.3,9.7,8.7,14.8,12.8
		c1.9,1.5,4.4,2.2,5.8-1C597,453.7,598.7,449.3,600.6,444.7z M636.2,589.1c7,4,14.9,2.6,19.8-3.4c3-3.7,2.5-7.1-0.4-10.4
		c-2.9,1.2-5.5,3.1-8.1,3.2C640.5,578.8,638.1,583.3,636.2,589.1z M737.2,314.5c-1.7-4.4-3.1-8.3-4.7-12c-1.4-3.2-4.6-3.6-6.5-1.9
		c-3.3,3.2-5.7,7.3-8.6,11.4C724.2,315.1,730,316.9,737.2,314.5z M635.5,564c4.1,2,2.3,9.1,8.1,7.8c3.5-0.8,8.3-3.1,9.3-5.9
		c2-5.4-3-8.7-6-11.4C643,557.6,639.5,560.6,635.5,564z M637.6,280.8c3.2-2.6,5-5.2,2.4-9.6c-2.2-3.6-4.4-5.5-8.6-3.5
		C630.9,277.5,631.2,278.1,637.6,280.8z"/>
	<path d="M482.5,318.3c0.1,16.2-3.4,26.5-12.1,34.7c-11.5,10.8-28.2,11.5-39.9,0.9c-12.3-11.1-19.9-24.7-18.5-41.8
		c1-13.1,7-23.1,19.8-28.2c12.8-5.1,24.8-4.5,35.5,5C477.4,297.8,482.3,309.3,482.5,318.3z M441.1,351.8c12.2,4.5,24,0.2,29.6-11.1
		c7.1-14.4,6-28.5-3.4-41.5c-11.5-15.8-32.4-15.1-43.2,1.2c-3.8,5.8-5.4,11.2-4.5,15.9c6.5-13.7,20.7-15.4,28.9-3.4
		C457.3,325.7,454.1,343.1,441.1,351.8z"/>
	<path d="M495.7,656c-0.8-6.5-1.3-13-2.3-19.5c-0.5-3.1-1.8-6.1-2.6-9.1c-1.7-6.5,1.2-9.9,7.8-8.5c5.1,1.1,10.1,3.1,15,4.7
		c-3.9-15.1-22.2-27.3-38.8-25.2c-5.9,0.7-11.8,2.3-17.5,4c-7.7,2.3-14.9,1.4-20.6-4c-5.5-5.2-10-11.4-14.6-17.4
		c-1.5-2-3.1-5.3,0.3-6.7c1.2-0.5,4.1,1.7,5.5,3.4c3,3.6,5.1,7.8,8.1,11.3c6.1,6.9,13.7,9,22.6,5.8c12.1-4.4,24.4-5.5,36.6-0.7
		c13.4,5.3,21,16.1,25.7,29c2.7,7.4-0.8,10.5-8.5,8.3c-4.4-1.2-8.8-2.9-13.9-4.6c1,4.1,2.3,7.6,2.7,11.1c0.6,6.1,1.4,12.3,0.8,18.3
		c-0.8,8-5.6,10-12.8,6.6c-8.3-3.9-16.6-7.7-24.8-11.7c-3.3-1.6-6.1-1.3-9.4-0.1c-20.6,7.7-41.2,9.3-61.5-1.1
		c-9.9-5.1-17.6-12.5-23.2-22.1c-1-1.7-2-3.6-2.1-5.5c-0.1-1.5,1.2-3,1.9-4.5c1.4,0.7,3.7,1.1,4.1,2.2
		c10.2,24.4,43.4,38.5,76.6,24.9c7.5-3.1,13.7-3.2,20.7,0.8c7.2,4.1,14.9,7.3,22.4,10.8C494.5,656.3,495.1,656.2,495.7,656z"/>
	<path d="M611.8,322.2c0.9,0.4,3.1,0.9,4.7,2.1c6.4,4.8,10.3,11.2,12,19c0.3,1.3,0.4,2.8-0.1,3.9c-0.5,1.2-1.9,2.2-2.8,3.2
		c-1-1-2.2-1.8-2.8-2.9c-2.6-4.6-4.6-9.6-7.7-13.9c-1.3-1.8-4.7-2.1-7.1-3.1c-0.5,2.8-1.6,5.5-1.4,8.2c0.2,2.5,1.9,5,2.4,7.5
		c0.6,3.2-1.8,4.8-4.6,3.4c-3.6-1.7-6.5-11-5.3-16.8C600.6,326.5,605.2,322.2,611.8,322.2z"/>
</g>
</svg>
