<?xml version="1.0" encoding="utf-8"?>
<!-- Generator: Adobe Illustrator 18.1.1, SVG Export Plug-In . SVG Version: 6.00 Build 0)  -->
<svg version="1.1" id="Layer_1" xmlns="http://www.w3.org/2000/svg" xmlns:xlink="http://www.w3.org/1999/xlink" x="0px" y="0px"
	 viewBox="0 0 1024 1024" enable-background="new 0 0 1024 1024" xml:space="preserve">
<g>
	<path d="M413.1,327.6c12.7-17.6,30.3-28,49.6-36.1c1.5-0.6,2.8-2.8,3.3-4.5c3.9-13.2,12.9-22.3,24.1-29.5c1.4-0.9,4.9-0.6,5.8,0.5
		c2.2,2.7-0.8,3.8-2.7,5.1c-9.2,5.9-15.9,13.9-20.1,24.8c6.8-1.4,12.5-2.7,17.5-7.4c7.3-6.8,15.5-12.6,23.6-18.4
		c2.5-1.8,5.6-3.1,8.6-3.7c1.5-0.3,3.4,1.3,5.1,2c-1.1,1.2-1.9,2.9-3.3,3.5c-9.4,4.2-17.6,9.8-24.8,17.9c4.9,0,9.1,0.2,13.3,0
		c17.3-1.1,34.3,0.1,51,4.5c3.7,1,5.7,0,7.9-2.9c11.1-14.4,25.4-23.1,44.1-22c16.7,1,30.2,9.1,40.5,22c19.3,24.2,27.7,52,26.8,82.8
		c-0.5,18.2-4.3,35.6-12,52.2c-0.2,0.4-0.2,0.9-0.3,2c2.8-0.1,5.4,0,7.9-0.4c25-3.4,44-25.2,44.1-50.3c0-10.5-1-21-0.2-31.4
		c2.4-30.6,27-58.5,56.9-65.4c1.6-0.4,3.3-0.7,4.9-0.8c11.5-0.8,16.5,5.3,13.5,16.4c-0.2,0.6-0.3,1.3-0.5,1.9
		c-2.4,8.2-2.4,8.2,4.1,13.3c5.4,4.3,7.4,9.5,5.6,14.8c-1.7,5-7,8.4-13.4,8.7c-8.7,0.4-11.2,1.7-12,10.5c-1.1,11-1.4,22.3-0.6,33.3
		c4.5,58.7-19.3,102.7-68.5,133.6c-20.4,12.8-42.9,19.5-66.7,22.5c-3.8,0.5-6,2.2-8.5,5.1c-8.2,9.3-16.9,18.2-25.8,27.6
		c3.9,7.6,8.7,16.3,12.8,25.3c10.1,22.3,16.7,45.4,18.8,70c0.8,9.4,4.5,18.7,7.7,27.7c17.3,49.2,26.8,99.9,31.8,151.6
		c0.9,8.8,1.7,17.6,3.2,26.3c1.6,9.6-2,16.9-10.2,20.7c-8.2,3.8-17,6.8-25.9,8.4c-19.7,3.6-39.5,2.4-59.1-1.8
		c-1.6-0.4-3.2-0.9-4.8-1.4c-9.5-3.1-11.7-5.9-12.2-15.8c-0.7-15.6-1.5-31.3-2.3-46.9c-0.2-4.5-0.7-8.9-1.1-14.1
		c-5.7,3.1-11.2,5.8-16.3,9.1c-1.2,0.8-1.3,3.8-1.2,5.8c1.2,20.3,2.3,40.6,3.9,60.8c0.7,8.9-3.3,14.6-10.5,18.8
		c-10.2,5.9-21.4,8.3-32.9,9.1c-18.4,1.3-36.6,1.3-54.3-5.1c-0.5-0.2-0.9-0.3-1.4-0.5c-13.9-4.8-23.1-12.5-22.7-29.2
		c0.3-13.1-1.8-26.2-2.9-39.3c-0.1-1.6-0.4-3.2-1.1-4.9c-2.8,17.8-11.9,34.3-10.9,53c0.2,3.4-2.7,7.8-5.5,10.5
		c-8,7.7-18.3,10.8-29.1,11.8c-23.2,2.1-45.9,0.4-67.4-9.6c-3.3-1.5-6.5-3.4-9.5-5.4c-10.2-7-12.6-13.7-9.9-25.7
		c3.3-14.4,6.3-28.9,9.5-43.4c0.7-3.1,0.2-5.2-2.3-7.5c-20.2-18.8-30.1-42.7-34.5-69.3c-0.3-1.9-1.8-4.5-3.3-5.1
		c-19.1-6.6-30-20.8-36.6-39c-4.3-12-4.5-24.5-3.2-37c0.4-4.1-0.4-7.2-3.4-10.3c-8.8-9-14.5-19.7-14.6-32.4c0-4.8,1.9-9.6,3.2-14.4
		c0.3-0.9,2-2,3-1.9c0.8,0.1,1.7,1.7,2.1,2.8c1.5,4.2,2.8,8.5,4.9,12.5c-1.1-16.5-1.8-32.6,9.3-46.4c3.8-4.7,8.1-8.6,14.9-11.2
		c-0.5,14.3,7.5,24.5,13,35.8c8.6,17.8,6.5,34.9-5,50.8c-13.3,18.2-6.2,48.1,14.2,58.7c7.1-65.4,36.9-118.3,89.4-159.6
		c-5-0.6-8.7-1-12.4-1.6c-22.4-3.8-36.6-16.9-43.7-38.2c-0.3-0.9-0.7-1.9-0.8-2.9c-2-13.1-9-22.8-19.2-31
		c-16.9-13.7-26.4-31.8-29.9-53.2c-4.7-28.5,3.3-54.1,17.9-78.1c11.7-19.3,26.9-35.2,48.6-42.7c33.4-11.6,62.8-2.4,88.9,20
		C410.5,325.2,411.6,326.3,413.1,327.6z M510,473c-2.7,2.1-4.7,4-6.9,5.3c-1.3,0.8-3.1,0.8-4.7,1.2c0.4-1.7,0.2-3.9,1.2-5
		c6.4-6.8,14.5-10.5,23.5-12.2c1-0.2,2.2,1,3.3,1.5c-0.7,1-1.2,2.3-2.2,2.9c-2.1,1.3-4.3,2.2-6.9,3.4c16.7,20.3,35.8,36.7,60.8,44
		c55.2,16.1,105.3,4.6,149.4-31.3c26.8-21.8,43.1-50.3,45.7-85.2c1-13.4-0.5-26.9-0.9-40.4c-0.3-10-1-20.3,4.5-29.2
		c3.3-5.2,2.2-8-2.1-10.9c-0.7-0.5-1.3-1.1-1.9-1.6c-7.7-6.9-7.5-18.8,0.6-25.4c1-0.8,2.7-0.9,4.1-1.3c0.2,0.4,0.4,0.9,0.6,1.3
		c-1,1.5-2.1,2.9-3.1,4.4c-2.9,4.5-5.2,9.9-2.1,14.5c4,6.1,9.6,11.7,17.9,10.8c3.2-0.4,6.1-3.3,9.2-5.1c-1.9-2-3.8-4.1-5.8-6.1
		c-0.3-0.3-0.8-0.5-1.2-0.8c-4.6-3.4-6.6-7.8-5-13.5c0.7-2.6,1.7-5.1,2.5-7.6c1.7-5,0.6-6.7-4.5-6.4c-2.6,0.1-5.3,0.7-7.8,1.4
		c-26.4,7.9-46.6,34.3-47.4,61.9c-0.2,8.8,0.4,17.7,0.4,26.5c-0.1,26-15.8,46.7-40.6,54.2c-2.1,0.6-4.4,2.6-5.3,4.5
		c-4,8.7-5.3,17.8-3.1,27.3c0.4,1.5,0.5,3.1,0.8,4.6c-0.5,0.3-1.1,0.6-1.6,0.9c-1.1-1.5-2.9-2.9-3.1-4.5c-0.8-5.9-1.4-11.9-1.3-17.8
		c0.1-4.2,1.5-8.3,2.4-13c-3.4,0.3-6.3,0.9-9.3,0.7c-5.9-0.3-9.9,2.4-13.8,6.5c-8.2,8.7-11.3,19.3-13.1,30.7
		c-0.2,1.2-1.4,2.2-2.2,3.2c-0.8-1.1-2.3-2.2-2.2-3.3c0-3.8,0.3-7.7,1-11.4c1.8-10.3,7-18.9,14.1-26.9c-8.2-5.6-16.6-5.8-25.2-3
		c-12.7,4.2-20.1,13.7-24.9,25.6c-0.6,1.4-2.3,2.4-3.4,3.7c-0.5-1.7-1.8-3.6-1.5-5.1c2.6-12.8,9.7-22.1,22-27.1
		c2.2-0.9,4.6-1.6,7.7-2.7c-22.1-8.5-42.2-7-61.2,6.9c0.5-2.5,1.3-4.5,2.5-6c7.2-8.2,17.4-9.6,27.9-11.3c-7.8-7.8-9.4-16.9-7.3-26.6
		c1.7-7.8,8.6-10.3,14.8-5.5c2.8,2.2,5,5.3,6.7,8.5c4.1,7.5,3.6,15.3-0.1,22.7c11.9,3.6,23.3,7.1,36.1,11
		c-2.2-12.2-3.5-23.1-6.3-33.7c-9.5-36.8-28.7-67.1-64.5-82.3c-43.7-18.6-87.5-16.6-129.2,7.1c-9.6,5.4-17.8,13.3-26.3,20.4
		c-3.5,2.9-4.1,6.6-0.9,10.5c1.3,1.6,2.3,3.7,3.1,5.7c0.3,1-0.4,2.3-0.6,3.5c-1-0.4-2.1-0.6-3-1.2c-0.8-0.6-1.3-1.5-1.9-2.3
		c-11.7-13.8-25.3-24.9-42.4-31.6c-26.8-10.4-51.5-7.5-74.2,10.6c-9.8,7.8-18,16.8-24.4,27.5c-13.5,22.9-20.4,47.3-15.6,74.1
		c3.4,19,13.4,34.3,27.5,47c11.2,10.1,18.8,21.7,22.3,36.8c4.8,20.8,22.2,33.5,44.3,34.5c22.9,1.1,42.7-11,50-30.9
		c2-5.4,2.8-11.3,4.3-16.9c0.4-1.4,1.5-2.6,2.3-3.8c0.8,1.3,2.3,2.6,2.2,3.8c-0.7,6.9-1.9,13.8-2.6,20.7c-0.2,2,0.3,4.6,1.5,6
		c11.6,13,25.5,22.8,41.6,29.6c6.4,2.7,12.9,5.3,19.4,8.1c1.6,0.7,3.1,1.9,4.6,2.8c-0.3,0.5-0.6,1-0.9,1.5
		c-27.8-3.5-50.7-16.6-70.2-36.7c-1.1,1-1.7,1.5-2.2,2.1c-7.7,9.2-17,15.8-28.8,18.9c-2.6,0.7-5.2,2.3-7.4,4.1
		c-32.3,25.7-58.9,55.9-75.4,94.2c-16.4,38.2-22,77.3-10.4,118c4.9,17.4,13.5,32.8,25.1,45.9c1.7-1.4,3.1-2.5,4.5-3.6
		c0.7,1.7,2.1,3.5,2.1,5.2c0.1,6.6,0.5,13.4-0.7,19.9c-2.4,12.9-5.5,25.7-8.7,38.5c-1.3,5.1-1.1,9.6,2.9,13.3
		c8,7.1,17.3,11.6,27.6,13.7c12.3-21.3,24.4-24.4,33.5-9c7.9-12,20.3-17.4,31.1-6.2c2.4-5.2,6.1-8.2,12-7.5
		c3.5-13.8,7.4-27.3,10.2-40.9c1.7-8.4,3.4-17.3,2.5-25.7c-4.9-45.2-26.3-79.3-68.8-98.4c-1.4-0.6-2.5-1.9-3.8-2.8
		c0.4-0.5,0.8-1.1,1.2-1.6c27.3,5.5,46.7,22.3,61.6,45.4c-0.8-6.2-2.2-12.1-3-18.1c-1.9-14.3-3.6-28.7-5.1-43.1
		c-0.3-2.5,0.7-5.2,1.2-7.8c0.6,0,1.1,0,1.7,0c0.4,1.1,0.9,2.3,1.1,3.4c3.5,19.3,6.1,38.8,10.5,57.9c7.5,32.8,14.7,65.7,17.4,99.3
		c1.1,13.8,1.8,27.6,3,41.4c0.3,3.1,0.9,7.1,2.9,9.1c5.9,5.8,14,7.6,21.7,10c1.5-4.5,2.5-8.4,4.1-12c2.4-5.6,6.5-9.1,13-9.2
		c6.9-0.1,11.8,2.9,14.9,8.9c0.7,1.3,1.3,2.8,2.3,5.1c2.2-8.1,5.8-14,12.5-17.2c7.4-3.6,13.8-1.6,18.6,4.5c2.2-3,3.6-6.4,6.2-8.2
		c2.4-1.6,6-1.5,9.4-2.2c-0.6-7.3-1.4-15.2-1.8-23.2c-1.8-39.7-7.6-78.9-15-117.9c-2.6-13.7-6.3-27.2-9.3-40.9
		c-0.4-1.8-0.1-3.7-0.1-5.5c0.7,0,1.3,0,2-0.1c16.5,40,21.4,82.7,27.2,125.7c1.9-1,3.4-1.7,4.8-2.5c50.6-29.7,75.6-74.8,79-132.6
		c1.7-29-4.7-56.6-16.1-83.1c-4.4-10.3-9.2-20.6-13.9-31c-1.4,0.6-2.2,0.9-2.9,1.3c-13.3,7.1-27.5,11-42.5,12
		c-15,0.9-29.7-0.3-43.5-6.8c-1.8-0.8-3.3-2.3-4.9-3.4c0.2-0.6,0.4-1.1,0.6-1.7c1.7,0.2,3.5,0.2,5.2,0.6
		c42.8,10.3,80.3,2.2,110.1-32.1c0.7-0.8,1.1-1.7,2.6-4c-10.6,0-19.9-0.1-29.2,0.1c-1.5,0-3.2,1.7-4.4,3
		c-4.5,4.8-8.1,10.7-13.3,14.6c-13.9,10.5-29.1,9-41.6-3.1c-8-7.8-14-17-17.8-27.4c-3-8.3-5.5-16.8-8.3-25.1
		C514,484.2,512.1,478.9,510,473z M644.1,683.3c-0.4,0.1-0.6,0.2-0.7,0.2c-0.1,0.5-0.2,1-0.2,1.5c-5.1,47.7-24.1,87.9-62.7,117.7
		c-1.5,1.1-2.5,3.9-2.4,5.8c1.1,21.3,2.4,42.6,3.9,63.8c0.1,1.7,1.2,4.5,2.4,4.9c6.5,2.1,13.3,3.5,20.2,5.3
		c1.9-10.2,3.3-19.7,14.1-22.2c8.3-1.9,14.2,2.3,18.1,10.6c1.5-7.5,4.4-13,10.7-15.9c6.8-3.2,12.5-0.7,17.6,4.5
		c2.5-5.9,6.1-9.7,12.2-8.6C671.8,793.7,663,737.5,644.1,683.3z M575.8,289.5c0.7,0.5,1.1,0.8,1.5,1c30.1,12.8,50.2,35.5,63.6,64.7
		c8.6,18.7,12.5,38.6,13.8,59c0.1,1.7,1.1,4,2.5,4.8c3.8,2.3,5.6-0.3,7-3.6c13.7-31.5,14.8-63.6,3.5-96
		c-5.7-16.3-14.3-30.9-28.7-41.2C616.2,261.8,589.7,270.3,575.8,289.5z M218.6,627.8c0.5,2.2,0.7,3.8,1.1,5.3
		c2,8.5,7.9,14.5,13.7,20.5c2.4,2.4,3.3,4.7,2.8,8.4c-0.9,7.1-1.4,14.3-1,21.4c1,18.6,8.2,34.5,22.7,46.6c3.4,2.8,7.8,4.5,12.8,7.3
		c0-5.4-0.2-9,0.1-12.6c0.2-3.1-1-4.8-3.5-6.4c-10.9-7-18.3-16.9-22.7-29c-4.8-13.3-4.4-26.1,4.9-37.7c1.7-2.1,3.1-4.4,4.3-6.7
		c6.7-12.5,9.3-25.3,2.4-38.6c-4.9-9.6-9.9-19.3-14.9-28.9c-17.8,17.9-10,40-7.5,61.4C229.9,638.3,229.9,638.3,218.6,627.8z
		 M577.8,540.7c-7.1-19.4-30.8-31.6-45-22.9c3.8,8.6,9.5,15.8,16.8,21.7C559.1,547.2,567.1,547.5,577.8,540.7z M505.9,906.7
		c5.9-0.6,11.3-0.8,16.6-1.7c11.5-2,13.1-5.1,8.6-15.9c-3.3-8-10.6-9.8-17.2-4.3C507.4,890.2,506.4,897.8,505.9,906.7z M641.6,883.4
		c5.2-0.7,9.5-1.1,13.6-2c10.8-2.4,11.6-3.9,7.9-14.5c-1.9-5.4-5.8-8.8-9.8-8.6c-4.5,0.2-9.4,4.3-10.4,9.5
		C642.1,872.6,642.1,877.6,641.6,883.4z M371.7,903.2c8.7-1.3,16.7-2.5,24.6-3.8c1.1-0.2,2.3-1.3,2.8-2.4c1.6-3.8-0.6-11.5-4.1-14.1
		c-4.2-3.2-8.4-2.4-12.5,0.2C375.9,887.4,372.7,893.6,371.7,903.2z M500.4,906.7c-1.9-5.5-3.2-9.9-5-14.1c-1.7-3.9-5.1-7-9.3-6.1
		c-3.5,0.7-7.3,3.2-9.5,6c-2.3,2.9-2.7,7.2-4.4,11.9C482,905.2,490.6,905.9,500.4,906.7z M609.1,883.1c9.6,0,18,0,27.3,0
		c-2-4.7-3.4-9.4-5.9-13.3c-4.3-6.9-13.2-6.7-17.2,0.4C611.3,873.7,610.6,878.1,609.1,883.1z M365.3,902.2
		c1.9-11.3-0.3-16.6-6.7-17.8c-6.9-1.4-13.9,5.1-15.9,15.3C350.2,900.5,357.6,901.3,365.3,902.2z M537.1,899.8
		c10.2-4,14.6-10.7,11.9-17c-0.8-2-3.1-3.4-4.7-5c-1.5,1.5-4,2.8-4.5,4.6C538.6,887.8,538.1,893.4,537.1,899.8z M668.7,876.5
		c8.9-4.8,11.8-10.5,9.5-16.7c-0.6-1.5-2.3-3.8-3.2-3.7c-1.6,0.3-3.9,1.9-4.2,3.3C669.8,864.7,669.4,870.2,668.7,876.5z M404,894.3
		c0.7,0.2,1.3,0.4,2,0.6c3.8-2.8,8-5.3,7.9-10.9c0-1.4-1-2.8-1.5-4.2c-1.7,0.7-4.4,1-4.9,2.2C405.8,886,405,890.2,404,894.3z"/>
	<path d="M737.5,128.3c-2.1,29.4-26,51-54.2,49c-28.5-2-50.1-26.3-48-54.1c2.1-28.3,26.6-50,54.3-48.1
		C717.6,77.2,739.5,101.4,737.5,128.3z M643,126.5c0,23.8,19.3,43.1,43.3,43.2c23.8,0.1,43.6-19.7,43.6-43.6
		c0-23.8-19.4-43.1-43.3-43.1C662.4,83,643,102.4,643,126.5z"/>
	<path d="M819.3,192.9c-0.2,19.7-15.8,35.2-35.3,35c-19.1-0.2-34.9-16.3-34.5-35.4c0.4-19.6,16.1-34.9,35.7-34.7
		C804.3,158,819.5,173.6,819.3,192.9z M812.1,192.9c0-15.3-12.2-27.7-27.5-27.8c-15.4-0.1-27.8,12.5-27.8,28
		c0.1,15.2,12.6,27.7,27.7,27.6C799.7,220.6,812,208.2,812.1,192.9z"/>
	<path d="M687.9,244.1c0.2-14.9,12.6-27.1,27.7-27c15,0.1,27.3,12.6,27.2,27.5c-0.1,15.2-12.8,27.5-28,27.2
		C699.6,271.6,687.8,259.3,687.9,244.1z M714.9,265c11.4,0.1,20.8-8.9,20.9-20.3c0.2-11.3-9-20.7-20.4-20.8
		c-11.3,0-20.6,9.2-20.7,20.5C694.8,255.7,703.8,264.8,714.9,265z"/>
	<path d="M305.3,351.6c1.3-1.3,2.4-2.8,3.8-3.8c17.3-12.8,35.8-13,54.7-4.2c18.9,8.9,31.6,23.4,37.6,43.6c1.2,4,0.6,7.5-0.9,11.5
		c-2.4,6.3-3.8,13.1-4.7,19.8c-1.7,13.8-1.5,27.6,3,41c0.2,0.7,0.2,1.5,0.2,2.3c-0.4,0.3-0.8,0.6-1.2,0.9c-1.4-1.7-3.5-3.1-4.1-5
		c-1.7-5.3-3.6-10.8-4.1-16.4c-1.3-15.2-1.5-30.3,5.4-44.5c0.8-1.7,1-4.3,0.3-6.1c-11.9-33.2-38.2-49.1-69.6-44.6
		c-4.7,0.7-9.2,2.8-13.7,4.4c-2,0.7-3.8,1.8-5.6,2.7C306.1,352.7,305.7,352.2,305.3,351.6z"/>
	<path d="M525,417c-0.6,1.9-1.2,5.2-2.7,8.1c-3.4,6.5-10.4,8-16.6,4.1c-8.6-5.5-12.1-19.5-7.1-28.4c3.7-6.7,10.6-8.4,16.9-4.1
		C522.2,401.1,524.5,407.9,525,417z"/>
	<path d="M499.5,344.2c-2.1,0.3-3.6,0.6-5.2,0.7c-11,0.5-16.7,4.5-20.6,14.8c-1,2.6-1.6,5.4-2.6,8c-0.3,0.8-1.4,1.7-2,1.7
		c-0.7-0.1-1.8-1.1-1.9-1.9c-1.7-14.5,9.7-30.8,23.1-29.8C494.3,338.1,497.6,339.4,499.5,344.2z"/>
	<path d="M608.5,339.9c-2-1.6-3.4-2.7-4.7-3.9c-7.7-6.9-13.7-7.7-23-3.2c-0.8,0.4-2.5,0.3-2.9-0.2c-0.5-0.6-0.6-2.5-0.1-3
		c2.3-2.1,4.5-4.7,7.3-5.5c8.7-2.6,20.9,4.4,23.8,13C609.1,337.6,608.8,338.1,608.5,339.9z"/>
	<path d="M383.3,829.3c8.4-0.3,16.7-1.3,23.7-7.1c0.7-0.6,2.3-0.3,3.4-0.4c-0.3,1.2-0.3,2.6-1,3.4c-4.8,5.4-11.3,7.6-18.1,8.5
		c-4.4,0.6-9,0.4-13.4,0.1c-1.4-0.1-2.6-1.9-3.9-2.9c1.4-0.6,2.7-1.5,4.1-1.7C379.7,828.8,381.4,829.2,383.3,829.3z"/>
	<path d="M491.1,789.4c13.5,1.1,27,1.7,39.6-4.6c0.3,0.4,0.6,0.8,0.8,1.3c-0.6,0.9-0.9,2.2-1.7,2.7c-11.8,6.2-24.2,7.7-37,4
		c-0.7-0.2-1.2-1-1.8-1.5C491,790.6,491,790,491.1,789.4z"/>
	<path d="M376.7,842.1c1.5,0,3.1-0.2,4.6,0c7.7,1.5,15.2,0.8,22.7-1.5c1.2-0.4,2.7,0.1,4.1,0.3c-0.9,1.2-1.5,2.9-2.7,3.5
		c-8.3,4-16.9,4.6-25.7,1.6c-1.3-0.4-2.3-1.4-3.5-2.2C376.4,843.2,376.6,842.6,376.7,842.1z"/>
	<path d="M495.8,778.5c0.5-1.5,0.5-3.4,1.4-4.6c4.6-5.9,21.7-7.2,28.7-1.4c-11-0.7-21-0.5-29.1,7
		C496.5,779.2,496.2,778.9,495.8,778.5z"/>
	<path d="M627.7,784.1c1.5,0,3.1-0.1,4.6,0c9.2,0.7,17.9-0.5,25.3-6.6c1-0.8,2.8-0.6,4.3-0.8c-0.5,1.2-0.7,2.8-1.6,3.7
		c-8.6,8.3-19,9.4-30.1,6.9c-1-0.2-1.9-1.1-2.8-1.7C627.5,785.1,627.6,784.6,627.7,784.1z"/>
	<path d="M657.1,763.2c-10.2,2-20.4,3.6-28.3,11.7c-0.9-5.1,2.4-7.3,5.4-9.1C641.3,761.6,648.8,759.5,657.1,763.2z"/>
	<path d="M719.3,125.8c-0.1,1.4,0.1,2.7-0.3,3.7c-0.4,0.9-1.4,2.2-2.2,2.2c-0.8,0-1.9-1.1-2.3-2.1c-0.5-1.2-0.5-2.6-0.5-3.9
		c-0.4-8.9-4.5-15.9-11.6-21.1c-1.5-1.1-3.1-2-4.3-3.4c-0.8-0.9-0.9-2.5-1.3-3.7c1.3-0.2,2.9-1,3.9-0.6c2.7,1.2,5.5,2.6,7.6,4.6
		C715,108.2,718.4,116.6,719.3,125.8z"/>
</g>
</svg>
