<?xml version="1.0" encoding="utf-8"?>
<!-- Generator: Adobe Illustrator 18.1.1, SVG Export Plug-In . SVG Version: 6.00 Build 0)  -->
<svg version="1.1" id="Layer_1" xmlns="http://www.w3.org/2000/svg" xmlns:xlink="http://www.w3.org/1999/xlink" x="0px" y="0px"
	 viewBox="0 0 1024 1024" enable-background="new 0 0 1024 1024" xml:space="preserve">
<g>
	<path d="M695.6,688.1c4.9,2,10.6,3.6,15.6,6.4c10.7,5.8,11.7,14.4,2.7,22.4c-11.8,10.3-26.1,13.6-41.3,13.4
		c-14.3-0.2-28.7-1.8-42.9-1.1c-17.1,0.7-34.2,2.6-51.1,5c-17.8,2.5-35.2,1.3-52.4-3.3c-14.5-3.9-29.1-7-44.4-4.8
		c-10,1.5-20,3.5-30.1,4.1c-9.1,0.5-18.3-0.4-27.4-1.4c-15.2-1.7-27.9-9-38.7-19.3c-4.5-4.3-8.7-5.5-14.7-4.6
		c-11.1,1.5-22.2,2.9-32.1,8.7c-2.6,1.5-4.6,4-6.9,6c2.7,1.9,5.3,5,8.3,5.6c9.3,1.8,18.7,3.2,28.1,3.9c31.2,2.3,62.4,4.3,93.7,6.4
		c0,0.5,0,1,0,1.5c-11.5,0-23.1,0.6-34.5-0.1c-25.9-1.6-51.8-3.5-77.7-5.8c-5.6-0.5-11.5-2.4-16.6-5c-7-3.5-6.9-9.1-0.3-13.4
		c12-7.9,25.6-9.9,39.6-10.6c1.5-0.1,2.9,0,4.3,0c-15-28-9.1-53.4,8.3-77.6c6.5-9,13.5-17.6,20.6-26.9c-10.2,1.9-19.3,4.6-28.5,5
		c-30.2,1.3-59.1-3.7-84.6-21.4c-7.6-5.3-14.3-11.4-17-20.8c-3.2-11.1,0.5-22.5,9.7-29.3c1.5-1.1,3-2.1,4.8-3.4
		c-18.3-27.7-15.3-54.5,3.8-80.7c-6.1-16.7-17.2-29.7-33.2-38.8c-9.1,8.5-19.1,9-29.7,3c-7.6-4.3-10-11.4-7.2-19.7
		c3.6-10.3,13.4-17.1,24.5-17.3c16.7-0.2,29.5,7.4,39.5,20.1c11,13.9,18.6,29.5,21.9,47c0.4,2.1,0.4,4.2,0.6,6.3
		c-0.5,0.1-1,0.3-1.6,0.4c-0.9-2.8-2-5.5-2.7-8.4c-4.9-19.8-14.7-36.6-29.5-50.6c-8.1-7.7-17.9-10.8-28.8-10.6
		c-8.5,0.1-16.1,5.7-19.2,13.7c-3.8,10.1,4.8,19.5,17.1,18.6c7-0.5,10.1-2.5,15.4-10.4c-0.1,7.7,6.2,8.6,10.4,11.4
		c15.1,10,23.6,24.5,28.6,41.4c0.4,1.2,0,2.7,0,4c-0.5,0.2-0.9,0.3-1.4,0.5c-1.2-2.1-2.4-4.1-3.9-6.6c-12.5,22.4-17.7,44.9-3.8,68.6
		c4.8,8.1,4.6,8.2-2.1,14.4c-12.4,11.4-12.6,26.4-0.2,37.8c15.1,13.9,33.5,20.9,53.4,24.1c8.5,1.4,17.3,2.2,25.8,1.4
		c22.5-2.1,38.6-16,53.2-31.6c5.1-5.5,8-12.5,9.3-21c-2.4,1.5-4.1,2.5-5.8,3.6c-0.4-0.4-0.9-0.7-1.3-1.1c1.6-1.9,2.9-4.4,4.9-5.5
		c5-2.5,10.6-3.7,15.6,0c1.4,1.1,1.8,3.5,2.7,5.3c-0.4,0.3-0.8,0.5-1.3,0.8c-2.5-1.4-5-2.8-8.7-4.8c0.4,20.7-5.7,37.6-23.1,50.2
		c4.5,0,7.9,0,11.2,0c0.1,0.3,0.2,0.6,0.3,0.9c-0.8,0.5-1.7,1.6-2.4,1.5c-5-0.8-6.5,3-9,6.1c-8,9.8-16.6,19.1-24.8,28.7
		c-14.9,17.4-18.7,37.1-11.8,58.8c1.4,4.3,3.9,8.6,7,11.9c13.7,14.4,30,23.3,50.4,24.3c21.5,1.1,42.2-0.9,61.9-10.3
		c1.6-0.8,3.2-1.6,5-2.5c-3.4-15.7-0.9-31.3,0.1-46.8c0.8-11.9,0.5-23.7-5.2-34.6c-1.2-2.3-2.7-4.6-4.5-6.5
		c-5.8-6.2-9.9-6.7-17.2-2.6c-3.3,1.9-6.3,4.5-9.7,6c-3.4,1.4-7.2,1.8-11.9,3c2.8,3.1,5.1,5.7,7.4,8.2c-0.3,0.3-0.5,0.6-0.8,0.9
		c-2.4-1.9-4.8-3.9-7.2-5.8c-0.5,0.1-0.9,0.3-1.4,0.4c1.1,6,2.2,12,3.3,18c-0.3,0.2-0.6,0.3-1,0.5c-0.9-1.5-2.1-3-2.7-4.6
		c-4.9-12.2-0.4-23,4.7-33.9c9.8-20.9,20-41.7,28.3-63.2c6.5-16.8,7.2-34.9,4.4-52.8c-3.7-23.5-16.4-41.9-34-57.1
		c-6.4-5.5-13.8-9.8-21.1-14.1c-3.2-1.9-7.2-2.3-11-3.5c-0.5,2.6-0.6,4.8-1.4,6.7c-0.5,1.3-1.8,2.3-2.7,3.4
		c-0.4-1.3-1.3-2.6-1.2-3.9c0.6-7.8,1.7-15.6,2.1-23.4c1.4-23-4.3-44-17.6-63.2c-12.2-17.6-35.2-15.1-47-5.9
		c-8.3,6.4-10.8,22.2-4.4,30.4c2.2,2.8,6.2,5,9.8,5.8c3.9,0.9,8.3,0.4,12.4-0.1c8.3-1.1,13.4-6.1,15.2-14.3c0.4-1.7,0.7-3.4,1-5.2
		c0.5,0,1.1,0,1.6-0.1c0.1,2,0.1,4.1,0.5,6.1c0.4,1.7,0.8,3.8,2.1,4.9c12,10.8,19.2,23.8,18.3,40.4c-0.3,6.3-0.8,12.6-1.4,18.9
		c-0.1,1.5-1,3-1.5,4.4c-0.6,0-1.3,0-1.9-0.1c-0.3-3.1-0.5-6.2-0.8-9.7c-33.6-8.2-65.3-3-95,15.1c-0.3-0.3-0.6-0.6-0.9-0.9
		c1.4-1.4,2.6-3.2,4.3-4.3c11.5-7.7,24.4-12,37.8-15.2c16.2-3.8,32.4-3.3,48.6-0.4c1.6,0.3,3.3,0.5,4.9,0.7c0.3,0,0.6-0.1,1.1-0.3
		c3.4-18.9-2.5-34.5-16.7-47.8c-6.4,11-16.5,13.1-27.6,12.7c-13.1-0.5-21.9-11.1-20.4-24.3c1.8-15.7,11.1-25.2,26.7-27.9
		c16.7-2.9,29.6,2.2,39.2,16.5c13.6,20.3,17.7,42.8,16,66.6c0,0.5-0.2,1-0.3,1.5c-0.8,7.9-0.8,7.7,6.6,10.6
		c17.7,6.9,31.8,18.5,43.3,33.1c6-7.4,11.8-15.3,18.4-22.3c12.6-13.3,26.5-25.3,44.6-30.1c13.1-3.5,26.7-5.9,40.2-7.2
		c19.8-1.8,39.9-1.1,58.6,6.3c27,10.7,52.1,25.1,71.7,47c17.4,19.4,29.4,42.4,35.9,67.8c5.7,22,10.5,44.4,7,67.1
		c-2.7,17.8-8,35.3-13.2,52.7c-2,6.8-6.3,13.3-10.9,18.9C715.4,666.7,705.2,677.4,695.6,688.1z M632.4,601.1c-1.1,1.1-2.2,1.9-3,2.9
		c-3.2,4.4-4.1,9-1.3,14c1.9,3.5,4.6,5.7,8.8,5.3c5.5-0.6,8.8-4.3,10-9.2c1.2-4.8,2-9.9,1.7-14.8c-0.7-10.4-8-18.7-17-20.2
		c-7.9-1.3-15.9,4-20.6,13.6c-6.7,13.8-9,28.1-5.9,43.2c1.7,8.2,5.3,15,13,19.1c11.5,6.1,22.6,5.6,33.5-1.6
		c10.1-6.7,16.3-16.4,21.5-27c15.4-30.8,3.5-68-26.9-84.1c-8.2-4.3-16.7-5.6-25-2c-7.4,3.1-15.1,6.9-20.8,12.3
		c-22,20.8-30.3,47.7-31.2,77.1c-0.7,21.1,6.8,40.2,18.3,57.7c6.6,10,14.5,18.7,27.3,21c29.6,5.4,54.1-3.7,73.9-25.9
		c12-13.4,23.4-27.3,32.3-43c5.3-9.3,9.9-18.8,11.3-29.6c1-7.6-2.7-12.9-11.5-9c-7.9,3.5-13.8-0.4-14.9-9c-1-7.6,0.9-14.5,4.7-21.1
		c4.9-8.7,9.5-17.7,9.8-28c0.1-3.4-0.3-7.1-1.5-10.2c-1.9-4.8-5-5.3-9-2c-1.9,1.6-3.5,3.5-5.4,5.2c-3,2.7-6.4,4.4-10.5,2.6
		c-4-1.9-4.7-5.6-4-9.3c1.2-6.5,2.8-13,4.5-19.4c2.2-8.2,3.7-16.3,0.2-24.4c-1.6-3.6-3.8-7.7-8.1-7c-2.9,0.5-5.5,3.5-7.9,5.9
		c-1.5,1.5-1.9,4-3.2,5.6c-1.4,1.7-3.3,3.5-5.3,4.2c-6.4,2.4-11.4-1.2-13.5-8.7c-1.7-6-3.5-12.1-6-17.8c-2.3-5.1-7.9-7.4-12.9-6.5
		c-4.7,0.9-8.2,5-9,10.7c-0.3,2.3,0.2,4.7-0.2,7c-0.8,4.4-1.2,9-3.1,12.9c-3.5,7.4-10.6,9.1-16.9,3.9c-3.9-3.2-6.8-7.6-9.7-11.8
		c-4.2-6.2-11.3-8.5-18.4-5.5c-5.5,2.4-8.2,8.7-6.3,15.7c1.1,4,2.6,7.9,4.2,11.7c3,6.8,2.1,13.3-0.8,19.8c-2.2,4.8-7,6.8-11.6,4.1
		c-3.5-2.1-6.2-5.4-9.3-8.1c-2.6-2.3-4.9-5.2-7.9-6.7c-9.3-4.5-17.2,0.4-15.9,10.6c0.8,6.4,4.3,12.4,6.6,18.6c1.6,4.3,4,8.5,4.6,13
		c1.6,11.1-4.4,16.1-15.5,13.9c-4.2-0.8-8.6-1.5-12.8-1.4c-7.5,0.2-10.4,4-8.1,11.2c1.8,5.6,4.2,11.2,7.4,16.2
		c7.7,11.9,10.1,25,10.8,38.9c0.6,14.4,1.3,29,3.5,43.2c1.7,10.9,8.2,20.1,18.3,24.9c15.4,7.3,31.3,5.4,47.1,0.8
		c-0.1-0.7,0-0.9-0.1-1c-1.1-1.2-2.2-2.5-3.3-3.7c-11.9-13.3-20-28.7-24.1-45.9c-6.6-27.6-1.5-54,10.9-79
		c7.5-15,17.9-27.7,33.5-35.2c14.8-7.1,28.9-6.6,42.4,3.1c20.3,14.6,31.3,34.1,29.4,59.3c-1.8,23.4-12,42.8-32.1,55.9
		c-17.9,11.7-47.8,2.8-50.9-23.8c-1.9-16,0.7-30.8,8.1-44.9c5.5-10.6,15.8-15.7,25.6-12.9c9,2.6,15.1,8.7,17.2,17.8
		c2.3,10.2,2.1,20.4-5.7,28.6c-3.8,4-8.8,5.5-14.2,3.3c-5.6-2.3-8.4-7-8.7-12.9c-0.4-5.8,2.5-10.2,7.3-13.3c1-0.6,3-0.9,3.6-0.3
		c0.9,0.8,1.1,2.6,1.5,3.9c-0.3,0.1-0.6,0.3-1,0.4C633.8,602.9,633.2,602.1,632.4,601.1z M508,588.8c-0.9-2.1-1.7-3.9-2.4-5.7
		c-3.6-10.1,0.4-16.2,11.1-16.2c4.6,0,9.3,0.8,13.8,1.6c7.5,1.3,12-2.1,11.1-9.7c-0.5-4.5-2.3-9-4.5-13c-4-7.6-8.2-14.9-7.1-23.9
		c0.9-7.3,5-11,12.3-11.1c6.9-0.2,12.1,2.9,16.3,8.2c2.2,2.7,4.5,5.4,7.3,7.4c4.2,3.1,7.3,1.9,9.4-2.9c2.4-5.6,2.4-11.1,0.1-16.9
		c-2.2-5.7-4.4-11.6-4.9-17.6c-0.6-6.9,4.3-12.2,11.2-14.1c7.8-2.2,15.3,0.3,19.5,6.5c2.1,3.2,3.9,6.7,6.5,9.4
		c7,7.3,13.1,6.2,16.3-3.3c1.6-4.8,1.4-10.1,2-15.2c1.2-9.7,9.2-16,17.8-12.9c3.9,1.4,7.9,4.7,9.9,8.3c2.9,5.1,4,11.1,5.8,16.8
		c1.1,3.7,2.4,7.1,6.7,7.7c4.1,0.5,6.5-2,8-5.4c0.3-0.6,0.6-1.2,0.9-1.8c2.7-4.9,5.6-10,12.3-9.2c6.6,0.8,9.1,6,11,11.6
		c0.4,1.1,0.9,2.3,0.8,3.4c-0.8,7.7-1.5,15.4-2.7,23.1c-0.9,5.7-2.6,11.3-3.3,17.1c-0.2,1.7,1.3,4.3,2.7,5.1
		c1.2,0.7,3.9-0.2,5.3-1.2c2.8-2,5-4.9,7.8-7c4.5-3.4,9.5-2.8,11.8,2.3c1.9,4.2,2.7,9.2,2.6,13.9c-0.1,10.5-5.2,19.5-10,28.5
		c-3.2,6-5.1,12.3-4.3,19.2c0.8,6.9,4.6,9.1,11.1,6.8c10.3-3.7,16.4,0.9,15,11.9c-0.6,4.7-1.9,9.3-3.2,15.1c1-1.8,1.6-2.6,1.9-3.4
		c5.7-14.9,9.2-30.3,9.8-46.2c0.8-20.8-2.9-41.1-8.7-61.1c-11.4-39.5-33.5-70.8-69.4-92.1c-23-13.6-46.8-23.8-74.2-23.7
		c-27.3,0.2-53.4,4.3-76.1,21c-14.6,10.7-28,22.5-37.8,38c-1.3,2.1-1.4,3.6,0,5.7c12.2,18.1,15.4,38.5,13.8,59.7
		c-1.4,18.6-6.3,36.4-14.6,53.1c-1.6,3.3-3.1,6.7-4.9,10.6C485.2,582.3,494.3,582.7,508,588.8z M453.1,625.2
		c0.4,0.5,0.8,1.1,1.3,1.6c4-1.6,8-3.1,11.9-5c3.1-1.5,5.9-3.8,9-5.3c5.6-2.7,11.2-2.4,15.9,1.7c3.4,3,6.6,6.6,9,10.5
		c5.6,9.5,6.6,20.2,6.2,30.9c-0.5,12.6-1.9,25.2-2,37.9c-0.1,16.8,4.1,22,20.3,26.9c3.6,1.1,7.4,2,11.2,2.5c6.9,1,13.9,1.4,20.8,2.4
		c9.6,1.4,18.9,0.3,28.1-2.6c22.2-6.8,44.8-9.4,68.1-6.7c12,1.4,24.2,1.8,36.3,2.1c9,0.2,16.3-4.2,22.4-10.5
		c3.8-3.8,3.7-6.5-0.2-10.2c-6.5-6.2-15.2-7.5-23.5-8.6c-2.7-0.4-5.8,3-8.7,4.8c-3.7,2.2-7.2,4.8-11,6.8
		c-20.3,10.7-41.4,13.1-63.2,5.2c-4-1.5-7.2-1.5-11.3-0.8c-9,1.6-18.1,3.1-27.2,3c-24.5-0.1-37.7-16.1-41.3-35.9
		c-1.8-9.8-2.2-19.8-3-29.8c-1-12.9-0.8-25.9-6-38.3c-5.1-12.1-13.3-19.9-26.8-20.6c-7.3-0.4-15.6-0.2-19.7,6.1
		C463.1,603.4,458.5,614.5,453.1,625.2z M378,598.1c38.8-0.6,54.6-22.8,54.7-43.8c-4.8,12.1-12.5,21-22,28.6
		C401,590.8,389.8,594.9,378,598.1z"/>
	<path d="M227.9,711.8c-27.3,10.4-53.3,5-78.9-5.4c-4.1-1.6-6.7-4.4-8-9.1c-3.1-10.8-6.6-21.6-11-32c-2.5-6-7.1-11.2-10.7-16.8
		c-0.9-1.5-1.9-2.9-3.2-4.8c14-0.2,27-0.3,35.1,13.7c1-17-8.1-36.5-26.4-57.2c11.1-1.1,20.9,1.3,30.5,6.1c9.9,5,16.2,13,20.7,23.1
		c0.9-15.5,4-30.1,12.9-43.1c8.8-12.8,19.4-22.9,36.7-26c-15.4,23.9-22.3,49.1-23.3,76.2c0.8-1.9,1.8-3.8,2.5-5.8
		c3.4-8.8,8.7-16.3,15.4-23.1c8.5-8.6,16.4-17.6,25.2-27.1c-0.3,5.3-0.4,10.8-0.9,16.2c-1.3,14.5-9.6,26.5-14.9,39.5
		c-2.8,6.9-5.3,13.9-8,20.8c0.4,0.2,0.7,0.4,1.1,0.6c2.5-3,4.8-6.4,7.7-9c5.6-4.9,11.1-10.1,17.5-13.7c6.9-3.9,14.4-2.5,21.9,2.6
		c-12,8-21.2,17.7-25.4,30.6c4.8,4,9.3,7.7,14,11.6c0.5-9.6,4.7-17.8,12.2-24.4c7.3-6.4,15.8-10,25.6-11.3
		c-10.1,11.6-16.3,24.7-17.6,40.1c7-15,24.4-18.1,34.5-31.6c0.6,8.9-1.3,15.6-5.6,21.7c-3.7,5.3-7.2,10.8-10.7,16.2
		c-0.8,1.3-1.3,2.9-1.6,4.6c10.6-8.8,21.5-16.2,36.4-10.8c-0.4,0.6-0.5,1.2-0.8,1.4c-14.1,5.7-21.8,16.5-24,31.3
		c-0.6,3.8-2.4,5.3-5.6,6.4c-15.1,5.2-30.5,4.2-45.9,2.2c-3.8-0.5-7.5-1.5-11.2-2.3C233.1,721,233.1,721,227.9,711.8z M220.3,666.6
		c-0.9-0.5-2.5-1.2-2.5-1.4c2-8.1,3.6-16.5,6.6-24.3c3.3-8.8,7.8-17.2,11.9-25.8c4-8.4,6.1-17.2,6.7-26.4
		c-7.1,7.3-13.7,14.8-21,21.5c-8.4,7.6-13.9,16.9-17.8,27.3c-1.2,3.2-2.1,6.5-3.1,9.7c-4.4-14.5-1-28.5,2.3-42.4
		c3.3-14,8.9-27.2,16.3-39.7c-33.6,15.5-43.3,43.4-40.8,78.6c-7.3-24.8-22.5-39.9-49.6-41.5c19.3,18.2,24.9,40.7,25.6,65.6
		c-7.4-13.6-17.3-22.9-33.9-21.1c0,0.2-0.1,0.6,0.1,0.8c12.9,14,18,31.6,22.6,49.4c0.9,3.7,2.8,5.5,5.8,6.6
		c20.2,7.6,40.9,11.9,62.6,8c4.8-0.9,9.4-2.6,15.6-4.4c-6.1-7-11.2-12.8-17.3-19.8c8.9,1.3,16.6,2.4,24.3,3.5
		c2.3-4.5,0.6-8.8-2.9-12.5C228.1,674.1,224.1,670.4,220.3,666.6c10.8,4.6,16.5,13.5,19.7,24.2c0.9,3,0.9,6.2,1.3,9.3
		c-0.4,0.2-0.7,0.4-1.1,0.7c-6.2-8.6-14.5-11.7-24.2-10.7c4,5.3,9.5,10,11.4,15.9c3.7,11.3,11,15.3,22.1,16.8
		c16.8,2.3,33.4,3.8,49.8-1.7c1.9-0.6,4.1-3,4.5-5c2.8-13.3,9.3-23.8,21.7-30c0.2-0.1,0.1-0.6,0.2-1c-6.5-1.1-12.7,0-18.2,3.5
		c-5.2,3.3-10,7.2-16.2,11.8c1.1-3.9,1.3-6.8,2.7-9.1c3.5-6,7.7-11.6,11.2-17.7c2.6-4.4,4.4-9.2,6.6-13.8c-0.4-0.2-0.9-0.4-1.3-0.6
		c-3.7,2.7-7.3,5.7-11.3,8.1c-9.3,5.5-17.5,12-22,22.4c-2.8-17,5-30.4,15.5-43.6c-20.8,6.4-34,17.7-33.1,40.8
		C251.1,670.7,236.9,666.3,220.3,666.6z M222.2,664.3c6.2,1,12.5,2.1,19,3.2c3.9-12,11.5-21.4,21.7-29
		C248.8,631.9,230.3,648.3,222.2,664.3z"/>
	<path d="M327.7,471.3c-2.6-0.8-5.1-1.7-7.7-2.5c0.2-0.5,0.4-1,0.5-1.5c5,1.6,9.9,3.2,16.3,5.3c-2.4-3-3.8-4.8-5.3-6.7
		c0.3-0.3,0.5-0.5,0.8-0.8c3.3,3.4,6.6,6.9,9.9,10.3c0.3-0.2,0.7-0.5,1-0.7c-0.9-2.2-1.9-4.3-3-6.8c4.9,3.8,10.7,19.2,11.1,28.9
		c0.5,10.8-3.2,20.6-7.5,30.5c1.1,1,2.2,2,3.3,3c0,0.5-0.1,1-0.1,1.5c-13.5-2.6-26.8-3.1-39.8,1.9c-0.2-0.4-0.4-0.8-0.6-1.2
		c1.5-1,2.9-2,4.3-3c-8.1-16.5-9.8-32.8,2.1-49.2c-3.3,0.6-6,1.1-8.7,1.6c-0.1-0.4-0.2-0.7-0.3-1.1c4.7-1.2,9.4-2.3,14-3.5
		c-0.1-0.5-0.2-1-0.2-1.4c-3.1,0.3-6.2,0.6-9.3,0.9c-0.1-0.4-0.2-0.9-0.3-1.3c3.1-0.6,6.2-1.3,9.3-1.7c3.3-0.4,6.6-0.5,9.9-0.7
		C327.7,472.5,327.7,471.9,327.7,471.3z M313.1,529.1c2.6-0.6,4.5-1.1,6.5-1.5c-0.6-13.2-4.4-26.9,7.7-37.4c0,1.9-0.5,3.8,0.1,5.1
		c1,2.2,2.5,5.3,4.3,5.7c1.7,0.3,4.9-2,5.8-3.9c1.6-3.6,2-7.8,3-12.3c1.7,0.9,3.7,2,5.7,3.1c-2.1-9.4-8.6-14.6-16.7-12.7
		c-8.3,2-15,6.5-18.5,14.5C305.3,503,307.4,515.9,313.1,529.1z"/>
	<path d="M421.3,523.8c1.7,0.6,3.6,1.4,5.5,2.1c0,0.6-0.1,1.2-0.1,1.8c-13.6-0.8-27.4-3-40.7,2.4c0.8-0.9,1.5-1.9,2.4-2.9
		c-8.3-12.5-10-26.1-5.7-40.4c1.6-5.4,5.5-10.2,4.4-16.4c-0.3-1.4,0.7-3.1,2.1-4.5c-0.2,2.7-0.3,5.5-0.5,8.2
		c0.6,0.2,1.2,0.3,1.9,0.5c1.5-4.8,3-9.7,4.5-14.5c0.4,0.1,0.8,0.2,1.2,0.3c-0.6,3-1.1,5.9-1.7,9.1c2.6-0.6,2.4-0.7,4.9-5.1
		c1.2-2.1,3.4-3.7,5.9-4.9c-1.6,2.5-3.2,5-4.8,7.5c0.4,0.5,0.8,0.9,1.3,1.4c3.6-2.8,7.2-5.5,10.7-8.3c0.4,0.4,0.7,0.8,1.1,1.3
		c-2.2,1.3-4.4,2.6-6.6,4c0.4,0.5,0.9,0.9,1.3,1.4c4.4-0.8,8.9-1.5,13.3-2.3c0.1,0.4,0.2,0.8,0.3,1.2c-2.4,0.5-4.8,1-7.3,1.6
		c5.6,0.9,11.1,1.8,16.6,2.6c-0.1,0.7-0.2,1.4-0.4,2c-3.5-0.8-6.9-1.6-11.1-2.6C436.6,487.6,426.9,505.5,421.3,523.8z M386.9,488.6
		c0.3,3.8,0.2,7.6,1.1,11.2c0.4,1.5,2.8,3.7,4.1,3.6c1.7-0.1,4.1-1.9,4.7-3.6c1.1-2.9,1.1-6.2,1.6-9.6c10.2,9.3,9.6,21.1,7.6,33
		c12,0.7,11.2,2.9,15.2-9.4c2.4-7.5,3.8-15.5,4.3-23.4c0.8-13.3-9.6-22.3-21.8-20c-10.2,1.9-15.8,8.4-18.6,18.1
		C386.1,488.5,386.8,488.6,386.9,488.6z"/>
	<path d="M593.3,809.7c23.1-1.3,46.2-3.2,69.3-3.7c46.1-1.1,92.3-1.2,138.4-2.2c21-0.4,42-1.7,62.3-7.8c5.8-1.7,11.6-4.3,16.7-7.6
		c12.3-8.1,12.7-21.6,1.2-30.8c-9.1-7.2-19.8-9.9-31.2-10.6c-1.8-0.1-3.7,0-5.7-0.9c0.9-0.3,1.9-0.9,2.8-0.9
		c11.3,0.2,22.2,2.3,32,8.3c16.8,10.1,17.1,27.8,0.5,38.4c-12.1,7.7-26,10.1-39.9,12c-35.8,4.8-71.8,2.9-107.8,3.5
		c-42.3,0.7-84.6,2.1-126.9,3.2c-3.9,0.1-7.9,0-11.8,0C593.3,810.4,593.3,810,593.3,809.7z"/>
	<path d="M792,639.9c-0.5-0.1-1-0.1-1.4-0.3c-0.7-0.3-1.3-0.8-3.1-1.9c16.7,0,31.3,1.9,42.1,16.2c0.2-13.8,7.2-22.8,17.4-29.7
		c6.2-4.2,13-6.7,21.3-8c-14.1,19.6-17.9,28.1-18.3,40.9c7.1-15.4,25.2-18.3,34.7-31.2c-0.2,8.1-1.6,15.6-6.5,22.3
		c-4.6,6.2-8.6,12.8-12,19.7c5.6-3.5,11.1-7.5,17-10.4c6.3-3,13.1-2.8,20.3,0.1c-1.1,0.8-1.5,1.2-2.1,1.4
		c-14.3,6-21.5,17.3-23.7,32.1c-0.4,2.8-1.3,4.3-3.9,4.8c-8.8,1.6-17.5,3.8-26.4,4.4c-13.6,0.9-26.8-2.1-39.9-5.6
		c-3.1-0.8-5.5-2.4-6.7-5.9c-3.1-9.7-8.7-17.8-16-24.8l0.3-0.2c9.4,5.4,13.5,14.8,17.4,24.1c1.2,2.9,2.7,4.6,5.8,5.3
		c13,3,26.1,5.7,39.5,4.7c7.3-0.5,14.4-2,21.6-3.2c3.4-0.6,5-2.7,6-6.3c1.4-5.4,3.1-11.1,6.3-15.6c4-5.6,9.6-10,14.4-14.9
		c-5.8-1.1-11.9,0.1-17.4,3.6c-5.2,3.3-10,7.2-16.2,11.8c1-3.7,1.1-6.7,2.4-8.9c3.5-6,7.7-11.6,11.2-17.7c2.6-4.6,4.6-9.5,6.9-14.3
		c-0.5-0.3-1-0.5-1.5-0.8c-10.8,10.5-27.7,14.5-32.6,31.9c-4.8-10,0.1-24.1,14.4-44.1c-21,4-32.1,18.3-31.7,41.8
		c-0.8-0.9-1.5-1.3-1.8-2c-6.3-12.9-17.5-18-31-19.6C796.7,639.5,794.3,639.9,792,639.9L792,639.9z"/>
	<path d="M322.6,752.1c86.9,9,173.5,1.2,260.1-5.4C496.2,759.4,409.5,762.9,322.6,752.1z"/>
	<path d="M232.3,732.2c-12.8,0.3-25.6,0.8-38.4,1c-21.7,0.2-43.4,0.8-64.8-3.2c-6.3-1.2-12.8-2.9-18.5-5.8
		c-10.6-5.4-10.7-15.4-0.3-21c6.7-3.6,14-5.9,21.2-8.5c1.7-0.6,3.7-0.4,5.6,0.2c-5.4,1.7-11,3.1-16.3,5.2c-4,1.6-7.9,3.7-11.3,6.2
		c-6,4.3-6.1,10.1-0.1,14.4c3.4,2.4,7.6,4.6,11.7,5.1c15.5,2.1,31,4.3,46.6,5c19.6,0.8,39.3,0.2,59,0.2c1.8,0,3.6,0.2,5.5,0.2
		C232.1,731.4,232.2,731.8,232.3,732.2z"/>
	<path d="M332.9,744.7c-55.3-0.5-110.4,5.1-165.7,1.6c27.6-0.7,55.2-1.4,82.8-2.1c27.6-0.7,55.3-1.2,82.9-1.9
		C332.9,743.2,332.9,743.9,332.9,744.7z"/>
	<path d="M729.5,758c-2.6,1-5.1,1.9-7.7,3c-4,1.7-7.5,4-7.9,8.7c-0.4,5,2.9,8,6.8,10.1c8.9,4.7,18.8,6,28.6,5.8
		c17.5-0.2,34.9-1.4,52.3-2.2c1.2-0.1,2.3-0.1,3.6,0.5c-2.5,0.5-5,1.2-7.5,1.5c-20.9,2.5-41.8,4.1-62.7,0.4
		c-5.9-1-12.1-3.1-17.1-6.3c-8.7-5.6-7.5-15.1,2-19.4c2.9-1.3,6.1-2.1,9.2-3.2C729.3,757.4,729.4,757.7,729.5,758z"/>
	<path d="M704.3,684.9c21.7-2.9,42.9-1.9,63.8,4.9C746.9,688.2,725.8,686.6,704.3,684.9z"/>
	<path d="M784.9,664.1c-1-0.7-1.9-1.4-3.4-2.4c12.1-1.5,18.8,0,28.3,6.5c-1.3-10.6-6.8-18.3-14.2-25c-1.2-1.1-2.4-2.1-3.6-3.2
		c0,0-0.1,0.1-0.1,0.1c11,3.7,20.7,19.8,20.3,35.3c-2.2-2.6-3.4-4.5-5.1-6c-6.2-5.8-13.6-7.6-21.8-5.5L784.9,664.1z"/>
	<path d="M319.3,457.7c0-4.9,7.4-10.4,13.9-9.2c0.8,0.1,1.7,0.2,2.4,0.7c1.7,1.3,3.3,2.7,4.9,4.1c-2.1,0.6-4.2,1.3-6.3,1.7
		C329.2,455.9,324.1,456.8,319.3,457.7z"/>
	<path d="M393.8,450.3c2.7-5,7.3-4.7,11.7-4.4c4.2,0.4,7,2.8,8.3,6.8c0.2,0.7-0.4,2-1.1,2.5c-0.6,0.4-2.1,0.4-2.6-0.1
		C405.7,450.3,399.9,450.3,393.8,450.3z"/>
	<path d="M342.1,561c-1.9,1.6-3.1,3.3-4.6,3.6c-0.8,0.2-3.2-2.3-2.9-2.9c0.6-1.6,2-3.1,3.5-3.9C338.6,557.5,340.3,559.5,342.1,561z"
		/>
	<path d="M316,556.1c1.3,2.2,3,3.8,2.7,4.6c-0.5,1.4-2.1,2.7-3.6,3.2c-0.6,0.2-2.8-2.2-2.7-3C312.7,559.4,314.3,558.2,316,556.1z"/>
	<path d="M558.3,417.4c15.8,3.9,24.7,15.3,31.7,29C580.9,435.1,572.9,422.6,558.3,417.4z"/>
	<path d="M548.6,462.3c-12.6-10.4-26.1-19-42.4-22.4C523.3,441.8,537,450,548.6,462.3z"/>
	<path d="M532.5,426.7c13.8,5,25.3,12.9,33.3,25.5C555.9,442.2,545.5,432.8,532.5,426.7z"/>
	<path d="M491.7,472.4c11.6,3.4,21.2,9.5,27.4,20.1c-4.2-3.7-8.1-7.8-12.6-11.1C501.9,477.9,496.7,475.3,491.7,472.4z"/>
	<path d="M599.8,429.6c-7.1-4.7-14.5-9.7-21.4-14.4C586.9,417.5,594.8,421.8,599.8,429.6z"/>
	<path d="M503.6,458.3c7,3.6,14,7.3,21.1,10.9c-0.2,0.5-0.5,0.9-0.7,1.4c-6.9-3.8-13.9-7.6-20.8-11.4
		C503.3,458.9,503.5,458.6,503.6,458.3z"/>
</g>
</svg>
