<?xml version="1.0" encoding="utf-8"?>
<!-- Generator: Adobe Illustrator 18.1.1, SVG Export Plug-In . SVG Version: 6.00 Build 0)  -->
<svg version="1.1" id="Layer_1" xmlns="http://www.w3.org/2000/svg" xmlns:xlink="http://www.w3.org/1999/xlink" x="0px" y="0px"
	 viewBox="0 0 1024 1024" enable-background="new 0 0 1024 1024" xml:space="preserve">
<g>
	<path d="M527,746.3c-2.1,0.7-3.9,1.1-5.5,1.9c-17.8,8.4-36.6,12.1-56.2,11.5c-3.2-0.1-5.1,1.1-6.8,3.8
		c-9.6,15.2-19.2,30.4-29.4,45.2c-5.6,8.3-5.3,17-3.6,25.9c4.9,25.7,14.9,49.4,29.6,71c12,17.8,21.3,36.8,29.3,56.6
		c0.9,2.1,1.6,4.4,2,6.7c0.8,4.3-0.9,7.7-5.1,9.1c-16.2,5.6-32.3,6-48.3-0.6c-6.8-2.8-10.6-8.1-10.8-15.5c-0.2-7.2-2-12.7-9.5-15.5
		c-5.7-2.1-7.3-7.4-7.7-13c-2.1-31.3-13.9-59.4-29.6-86.1c-4.9-8.3-9.9-16.1-9.4-27.7c-13.6,11.5-28.5,19.9-30.3,38.9
		c-2.1,22.3-2.9,44.7,4.5,66.3c4.8,13.9,8.2,28.4,15.9,41.4c2.6,4.3,3.7,9.6,5,14.6c1.4,5.4-0.6,9-5.4,11.5
		c-14.5,7.4-41.8,4.1-54.2-6.4c-5-4.2-5.7-9.9-6.4-15.7c-0.3-3,0.2-6.1-0.6-8.9c-1.1-3.8-2.4-8-4.9-10.9c-3.5-4.1-5.1-8.3-4.6-13.6
		c1.2-16.1,2.5-32.2,3.3-48.3c0.8-16.8-2-33.2-7.4-49.1c-5.6-16.5-3.2-30.9,11.5-41.8c0.9-0.7,1.7-1.5,2.6-2.3
		c14.7-13,19.2-29.2,13-47.5c-7.3-21.8-12.2-43.9-12.2-68c-1.9,1.6-3.3,2.7-4.5,3.9c-12,11.4-18.1,26.1-23.2,41.4
		c-2.1,6.1-3.9,12.4-5.6,18.7c-0.5,2-0.2,4.3,0,6.4c1.2,9.6,3.4,19.1,3.5,28.7c0.2,21.5-12.7,38.6-33,45.8c-6.6,2.3-12.7,5.9-19.3,8
		c-3.6,1.1-7.8,1-11.6,0.4c-2.7-0.4-4.6-3.7-1.4-5.4c16.6-8.9,15.1-24.1,14.7-39.3c-0.2-6.1,0.1-12.4,1.4-18.3
		c2.8-13.6,11.7-22.2,24.8-26.2c5.4-1.6,7.1-4.5,7.5-9.9c2.8-32.3,13.1-61.5,36.9-84.6c4.7-4.6,10.4-8.3,15.5-12.6
		c3.9-3.3,8.5-6.4,11.1-10.6c16.9-27.1,41.5-41.2,72.6-46.1c12.1-1.9,23.9-5.9,35.5-9.8c9.5-3.2,17.8-9,25.3-16.3
		c-5.8-6.7-6.5-14.7-6.3-23c0-1.4,0.8-3.6,1.9-4.1c7.5-3.7,8-10.1,6.8-17c-0.6-3.1-0.5-5.6,1.6-8.3c3.5-4.5,3.1-9.2-0.4-14.4
		c-0.3-0.5-0.6-1.2-0.7-1.8c-2.9-13-5.5-26-8.7-38.8c-0.8-3.3-3.6-6.1-5.2-9.2c-1.3-2.6-2.3-5.4-3-8.3c-1.4-5.6-2.5-11.4-4-17
		c-0.4-1.5-1.6-3.7-2.7-3.8c-5.1-0.8-5.6-4.8-7.2-8.4c-5.9-13.7-12.2-27.4-18-41.1c-1.4-3.3-1.7-7-2.7-11.1c-4,0.4-6.1-3.1-7.2-7.4
		c-1.6-6.4-2.9-13-4.6-19.4c-0.7-2.7-2.4-5.2-3.4-7.9c-0.9-2.4-2-4.9-2.4-7.5c-0.9-5.9-1.4-11.9-2-17.9c-0.3-3-1.8-4.1-5-4
		c-35.7,0.7-61.6-16.1-80-45.7c-4.3-6.9-3.7-9.2,2.7-14.3c17.7-14.2,37.1-24.6,60.3-26.4c12.2-0.9,24,0.7,35.1,5.8
		c3.6,1.7,6,1.2,7.9-2.1c2.8-4.7,5.6-9.5,8.2-14.3c0.5-0.8,0.6-2.3,0.1-3.2c-3.6-6.9-7.2-13.8-11.2-20.6c-2.2-3.7-6-5.5-10.2-5.2
		c-20.6,1.7-24.8-19.7-18.4-31.8c6-11.4,15.9-17.3,28.5-18.1c8.3-0.5,15,3.9,17.7,11.9c1.8,5.4,2.2,11.4,3.4,17
		c0.3,1.7,0.7,3.7,1.8,4.8c5.4,5.9,11.1,11.5,16.6,17.3c1.9,2,3.6,3.4,6.4,1.7c2.9-1.7,2.3-3.9,1.5-6.4c-2.4-7.4-4.5-15-7-22.4
		c-0.4-1.3-1.7-2.8-2.9-3.4c-10.3-4.9-16.4-14.4-15.5-24.4c0.8-8.4,8.4-16.2,19.2-18.6c11-2.5,21.3-1,29.4,7.9
		c4.6,5.1,6.7,11.4,3.4,17.5c-3.8,7.2-2.7,13.6,0,20.4c1.2,3.1,2.2,6.3,3.6,10.2c5.7-5.5,11-10.8,16.4-15.8c1.5-1.3,4.2-3.3,5.2-2.8
		c1.7,0.9,3.1,3.4,3.5,5.5c2.1,9.8,1.9,10,11.6,11c15.8,1.7,29.1,8.9,41.1,18.9c4.2,3.5,8.4,7.1,12.7,10.6c9,7.4,18.5,7.3,28.4,2.2
		c3.4-1.7,6.7-3.7,10-5.6c11.1-6.4,22.3-5.8,33.5-0.4c8.6,4.2,15.3,10.6,20.8,18.3c6.1,8.5,6.2,16.7,0.5,25.5
		c-1.5,2.3-3,4.6-4.5,6.9c0.3,0.4,0.5,0.7,0.8,1.1c4.6-2.1,9.5-3.7,13.7-6.3c9.6-5.8,19.7-8.1,30.6-5.8c3.9,0.8,8,2.5,11.2,4.8
		c4.6,3.3,4.5,6.3,0.5,10.4c-11.3,11.5-24.9,19.4-40,24.7c-5,1.7-10,3.4-15,5c4.2,21.1-5.8,37.9-25.3,42.4
		c-4.1,0.9-8.6,0.8-12.9,0.4c-6.2-0.7-11.3,0.9-16.2,4.8c-8.8,7.1-17.5,14.5-26.9,20.7c-9.8,6.5-20.3,11.8-31.5,18.2
		c3.9,10.5,7.6,22.3,12.7,33.7c11.7,26.3,24.4,52.2,35.9,78.6c13.9,32.1,27.2,64.5,33.7,99.1c2.4,12.6,1.6,25.9,2.6,38.8
		c0.4,5.6,0.9,11.3,2.8,16.5c9.3,25.5,11.6,51.2,2.7,77.3c-0.5,1.6-0.2,4,0.6,5.4c13.5,22.9,29.3,44,47.3,63.6
		c13.4,14.5,17.4,32.2,11.6,51.2c-7.1,23.2-9.7,46.9-8.8,71c0.2,5.6-0.4,11.5-2.1,16.7c-5.6,16.7-9.4,34.1-18.6,49.4
		c-5.5,9.1-9.3,10.3-18.9,5.5c-9.8-4.9-18.6-11.2-25-20.2c-9.2-12.9-8.8-24.6,1-37c0.7-0.9,1.8-2.1,1.5-2.9
		c-1.3-4.8,1.5-8.3,3.5-12.1c10.9-20.8,15.9-43,15.5-66.4c-0.2-11.9-4.9-20.9-15.4-27.3c-8.5-5.1-16.3-11.5-25.1-17.7
		c-2.3,11.7-5.3,23.1-4.1,35c1.8,17.4,1,34.4-2.3,51.7c-5.2,28.1-3.6,56,6.1,83.2c2.9,8.1,5,16.6,7.9,24.7c2.5,7,5.8,13.8,8.3,20.8
		c5.2,14.6,2.5,18.7-12.9,21c-14.1,2.1-27.9,1.5-40.9-5.2c-6.7-3.4-10.3-8.9-10.5-16.3c-0.2-10-1.1-19.5-9-27.1
		c-1.8-1.8-1.6-6.3-1.4-9.5c1-15,2.4-29.9,3.4-44.8c1.2-18-1.3-35.5-5.8-52.9c-2.3-8.7-3.4-18.1-3.2-27.1
		C535.8,789.9,533.6,768.3,527,746.3z M335.9,607.8c-12.2,12.7-23.7,25-28.4,41.2c-4.4,14.9-5.1,30.5-4,46.1
		c1.3,18.1,6.6,35.3,11.7,52.5c5.5,18.6,1.3,35.2-12.2,49.3c-3.7,3.8-7.7,7.3-11.7,10.8c-4.6,4-6.7,9.1-6.3,15.1
		c0.3,4,1.1,7.9,2,11.8c2.3,9.9,5.5,19.6,6.9,29.6c3.2,21.4,1.2,42.9-1.7,64.2c-1.2,8.9-0.9,16.4,6.3,22.5c1.4,1.1,1.9,3.2,3.3,4.3
		c1.9,1.5,4.2,3.5,6.4,3.5c8.1,0.1,16.3-0.4,24.4-1c8.3-0.6,10.6-4,8-11.9c-2.7-8-6.1-15.9-8.5-24c-5.5-18.9-4.2-38.3-4.1-57.6
		c0.1-15,6-27.1,17.2-36.7c10.2-8.8,20.6-17.5,31-26c12.1-9.9,24.7-19.3,34.1-32.1c9.5-13,13.9-27.3,10.8-43.3
		c-1.6-8.3-4.1-16.4-6.4-24.6c-2-7.4-5-14.6-6.3-22c-2.7-15,6.1-23.8,21.2-22.1c15.8,1.8,32.2,17.4,34.8,33.1
		c0.9,5.6-0.3,10.6-3.7,15.1c-7.4,9.9-18.6,12.4-30.2,6.7c-1.6-0.8-3.3-1.6-5.5-2.7c4,10.5,5.5,20.6,3.9,30.8
		c-0.7,4.5,0.9,5.9,4.7,6.8c16.1,4.2,32.5,5.8,49,4.3c13.5-1.3,26.5-4.7,38.6-11.2c3.1-1.7,4.4-3.4,3.4-7.1
		c-1.4-5.5-2.3-11.1-3.1-16.7c-1.4-9.5-1.4-19,2.5-28c0.8-1.9,2.4-3.4,3.6-5.1c0.5,0.3,0.9,0.5,1.4,0.8c0,1.9,0.1,3.8,0,5.7
		c-0.3,4-1.3,8-0.9,11.9c1.3,12.2,2.6,24.5,4.8,36.6c2.9,15.6,6.7,31.1,10.1,46.6c12.1-4.8,17.4-4.3,23.2,2.4
		c6.4,7.2,7.8,18.4,2.5,26.5c-2.2,3.3-5.6,6.2-9,8.3c-5.4,3.3-11.4,2.4-17.9-0.5c1.1,5.3,1.7,9.7,2.8,14c3.8,14.5,7.2,29.2,6.5,44.3
		c-0.9,19.1-2.7,38.2-3.9,57.3c-0.2,2.5,0.3,5.4,1.4,7.5c2.8,4.9,6,9.6,9.4,14.1c1.2,1.6,3.6,3.3,5.4,3.2c11-0.5,21.9-1.3,32.9-2.3
		c3.8-0.4,5.5-2.7,4-6.7c-2.4-6.7-4.4-13.6-6.8-20.3c-11-30.5-13-61.7-6.4-93.4c2.4-11.8,3.2-23.6,2.3-35.7
		c-0.7-9.7-0.6-19.6,0.5-29.3c4.2-36.4,18.2-71,20.7-107.8c0.1-1.7,1.3-3.3,2-5c0.6,0.1,1.2,0.2,1.8,0.3c2.5,11.2-1,22.7-0.3,35
		c1.2-1.5,1.9-2.2,2.4-3c2.3-3.9,4.8-7.6,6.6-11.7c11.2-25.4,9.7-50.8,0.5-76.4c-1.5-4.1-3.2-5.6-7.7-5.6
		c-16,0.2-27.2-8.9-30.9-24.4c-4.4-18.5,3.9-37.9,21.7-49.9c3.2-2.1,4.2-3.9,2.7-7.6c-9.9-25.6-19.7-51.2-29.6-76.8
		c-0.2-0.6-0.8-1-1.3-1.7c-1.4,0.5-2.6,0.9-3.8,1.3c-13.2,5.1-21.3,3.4-31.1-6.9c-2.6-2.8-5-5.8-7-9.1c-9.4-15.8-5.2-37.9,9.4-49
		c2.2-1.7,2.3-3,1.4-5.4c-3.5-9-6.9-18-10.2-27.1c-2.9-8-2.8-8.1-11.1-7.9c-10.8,0.1-20-3.2-26.3-12.5c-1-1.5-1-3.7-1.7-6.5
		c2,0.7,2.5,0.8,2.9,1.1c1.1,0.8,2.1,1.6,3.2,2.4c8.3,6.8,17.7,10.1,28.4,7.9c6.6-1.3,13.2-3.3,19.5-5.8
		c13.6-5.6,24.6-15.4,35.4-24.9c10.1-8.9,20.7-15,34.7-12.5c1,0.2,2,0,3,0c11.8-0.6,23.3-11.6,24.4-23.3c0.1-1.2-0.3-2.5-0.4-3.6
		c-4.2,2.2-7.7,4.8-11.7,6c-11.6,3.6-22.4,0.7-32.4-5.5c-4.6-2.8-8.4-6-15-4.8c-5.6,1-8.2-5-9.7-9.8c-1.6-5.3-3.1-10.8,2.3-16.7
		c0.8,3.1,1.4,5.1,1.9,7c0.9,3.5,1.5,7.1,2.6,10.6c0.8,2.5,2.4,3.6,5.4,2.6c25.3-7.8,44.5-23.6,59.1-45.2c3.1-4.6,3.1-9.6,0.1-14.1
		c-6.2-9.5-14.4-16.6-25.4-20c-7-2.2-13.8-1.3-20.2,2.5c-4,2.4-8,4.7-12.3,6.7c-11.6,5.4-23,5-33.5-2.8c-4.1-3.1-8.1-6.3-12.1-9.7
		c-9.2-7.9-19.3-14.4-31.3-17c-25.2-5.5-47.7,1.4-68.6,15.3c-3.8,2.6-7,5.2-3.8,10.3c0.3,0.4-0.1,1.2-0.2,3.1
		c-2.1-1.4-3.8-2.2-5-3.5c-8.8-9.1-17.6-18.2-26.1-27.5c-1.6-1.8-2.2-4.9-2.6-7.4c-1.1-5.8-1.1-11.9-3.1-17.4
		c-1-2.9-4.8-5.8-7.9-6.7c-11.7-3.1-25.7,6.1-28.4,17.9c-2.7,11.7,2.9,18.6,14.7,19.1c3.8,0.2,8.3,1,11,3.3
		c12.4,10.4,16.7,25.7,22.3,40.1c0.5,1.1-1.2,3.1-1.9,4.7c-1.4-0.7-2.9-1.1-4-2c-1-0.8-1.6-2.2-2.7-3.8c-2.9,5.1-5.5,9.7-8.2,14.3
		c6.1,5.5,12.4,10.4,13.7,19.1c-2.8-1.2-5.2-2.7-7.3-4.6c-12-10.9-25.9-17.3-42.2-18.4c-26.2-1.9-47.6,8.9-66.9,25.1
		c-1,0.9-1.6,3.7-1,4.8c14.6,24.9,43.8,48.9,83.4,40.7c9.8-2,18.9-7,28.5-10.4c1.5-0.5,3.5,0.3,5.3,0.5c-0.5,1.5-1.2,3-1.6,4.5
		c-0.6,2.2-1.7,4.6-1.3,6.6c1.4,6.3,3.9,12.4,5,18.8c1.6,9.2,5.9,16.5,12.3,23.4c6.9,7.5,13.2,15.9,18.5,24.6
		c4.3,7.1,4.4,15.4-0.5,22.8c-1.7,2.5-1.6,4.3-0.6,6.8c4.4,10.6,8.6,21.3,12.9,31.9c1.1,2.7,2.3,5.4,3.4,7.9
		c16.6-3.4,26.3-1.1,35.7,8.1c7.8,7.7,11.7,17.2,13.4,27.8c2.7,16.7-8.2,34.6-24.6,38.5c-6.3,1.5-8.6,4.1-8.6,10c0,1-0.2,2-0.4,3
		c-3.1,22.4-11.5,42.3-27.9,58.4c-0.4,0.4-0.7,1.1-1,1.6c2.5,3.7,5.1,7.2,7.4,10.9c6.5,10.6,6.7,21.5,0.8,32.3
		c-11.4,20.8-39.8,25.3-56.8,8.5c-5.1-5-8.9-11.6-12.8-17.7c-3.8-5.8-4.6-6.9-11.2-4.7c-10.1,3.3-19.9,7.4-29.9,11.1
		c-4.1,1.5-5.8,4.7-6.4,8.7c-1,7.4,0.5,14,6.5,18.9c5.5,4.5,10.9,2.4,16.3-0.6c0.4-0.2,0.9-0.4,1.4-0.6c13.4-5.5,24-0.4,27.8,13.5
		c3.7,13.4,2.2,26.6-3.5,39c-6.3,13.8-24.8,15.2-33.6,2.9c-1.7-2.4-2.7-5.5-4.8-7.6c-2.6-2.6-5.6-5.6-8.9-6.5
		c-10.7-3-20.2,2.8-23.3,13.4c-2.9,10.2-2.8,20.4-0.1,30.6c2.5,9.8,12.4,13.4,20.7,7.6c2.3-1.6,4.2-3.8,6.3-5.7
		c1.4-1.2,3-2.2,4.5-3.3c0.5,0.3,1,0.6,1.4,1c-0.7,1.8-0.8,4.2-2.1,5.3c-3.8,3.4-7.7,7.1-12.2,9.1c-9.5,4.2-20-1.1-23.2-11
		c-1.1-3.5-2.2-7.2-2-10.7c0.3-8.6,0.3-17.4,2.5-25.6c2.5-9.6,10.1-15,20.2-16c10.4-1,18.3,2.5,22.5,12.6c0.6,1.5,1.6,3,2.6,4.3
		c6.9,8.9,20.7,7.2,25-3.1c3.9-9.5,5.8-19.5,4.2-29.8c-2.6-16.8-10.6-21.4-25.8-13.7c-12.7,6.5-23.9-1.5-26.6-12.7
		C337.1,616.3,336.7,612.7,335.9,607.8z M628.1,690.8c-5.4,5.5-11.2,11.4-16.7,17.4c-1.1,1.1-1.6,2.9-2,4.5
		c-2.3,9.9-4.3,19.8-6.9,29.6c-1.4,5.5,0,9.6,4.2,12.8c6.5,5.1,12.8,10.8,20,14.9c15.1,8.4,20.8,21.5,20.3,37.8
		c-0.6,22.6-5.2,44.3-16.4,64.1c-3.7,6.5-2.9,11.7,1.3,16.9c8,9.9,18.5,16.6,29.9,22c1.1,0.5,4.2-0.6,4.6-1.7
		c5.1-13.7,10.8-27.1,10.2-42.3c-0.4-11.3-0.3-22.7,1.3-33.9c1.8-13,5.5-25.6,8.4-38.5c2.3-10.5,1.5-20.7-3.2-30.6
		c-14.1,10.2-30.1,9.6-39.8-1.3c-8.2-9.2-5.4-20.7,8.6-35.5C643.8,714.8,635.8,702.5,628.1,690.8z M467.4,940.8
		c-1.2-3.1-1.9-5.7-3.3-7.9c-3.6-6.2-7.4-12.3-11.3-18.2c-15.7-23.7-27.4-49.1-33.4-76.9c-3.1-14.1-2.1-27.1,8.5-38.2
		c1.8-1.9,3.3-4.2,4.7-6.4c6.7-10.9,13.4-21.8,21-34.2c-9.4-1.9-17.4-3.6-25.5-4.9c-0.9-0.1-2.5,1.8-3.1,3.1
		c-4.5,11-11.1,20.6-19.6,28.7c-7.6,7.2-15.6,14.1-24,20.3c-7.6,5.6-9.6,12.7-7.8,21c1,4.6,3.4,9,5.7,13.1
		c15.4,27.8,29.1,56.2,31.8,88.5c0.8,10,7.3,18.2,17.3,19.2C441.6,949.2,454.6,947,467.4,940.8z M446.8,562.7
		c-16.4,13-35.3,18.8-56.3,22.8c4.8,7.2,8.5,13.7,13.1,19.5c6.9,8.7,16.4,12.2,27.4,11.1c18.9-1.8,36.6-24.8,21.9-44.7
		C451,568.7,449.1,566,446.8,562.7z M240.5,812.5c0.4,0.4,0.8,0.7,1.3,1.1c3.5-3.7,7.6-6.9,10.3-11.1c9.9-15,10.3-31.2,4.7-47.8
		c-2.2-6.5-5.7-8.4-12.3-6.3c-11,3.4-18.6,10.6-21.2,21.8c-1.5,6.4-1.7,13.2-1.2,19.8c1,12.1-0.4,23.5-7,34
		c-0.1,0.1,0.3,0.5,0.7,1.1c15.6-6.1,22.8-18.7,27.1-34C246.3,798.9,242.1,805.6,240.5,812.5z M508.8,452.4
		c-0.8-10.2-4.4-20.4-12.4-28.6c-5.7-5.8-12.8-9-21.1-8.8c-7.9,0.2-9.5,2.5-6.9,9.9c5.8,17,10.6,34.3,12.5,52.3
		c0.5,5.1,1.7,5.8,6.8,4.4C499.2,478.5,508.8,465.6,508.8,452.4z M450.2,155c6.1-3.1,11.3-5.5,16.3-8.4c0.9-0.6,1.4-3.2,1-4.5
		c-1.6-5.2-3.4-10.4-5.4-15.5c-2.1-5.4-2.1-10.3,1-15.6c3.7-6.2,2.3-11.6-3.4-16.3c-7.4-6.1-15.8-6.4-24.4-3
		c-7.6,3-11.7,8.5-11.3,14.7c0.5,7.5,5.5,13.7,13.1,15.7c3.2,0.8,4.5,2.4,5.4,5.5C444.6,136.5,447.4,145.4,450.2,155z M426.5,662.2
		c-10.4,0-15.7,7.1-12.3,16.9c2,5.6,4.3,11.2,6.8,16.6c3.1,6.6,7.8,11.5,14.9,13.8c12.3,3.9,25-5.3,23.2-17.6
		C457.1,677.5,440.8,662.2,426.5,662.2z M612.5,527c-4.7,4.1-8.6,7.1-12,10.7c-8.5,9-12.9,19.7-11.7,32.2
		c1.6,16.5,14.5,27.2,30.4,24.8C622.1,572.1,618.8,550.1,612.5,527z M613.9,247.8c3.1,0.1,4.8,0.6,6.5,0.3c11.1-2,22.3-3.8,33.3-6.4
		c17.4-4.1,33.3-11.5,47.1-23c4.4-3.6,4-5.5-1.2-7.6c-1.5-0.6-3.2-0.9-4.8-1.1c-8-0.7-15.5,0.8-22.6,4.8c-4.6,2.6-9.5,5.1-14.5,6.4
		C640.7,225.5,628.9,237.8,613.9,247.8z M576.1,434.1c-8.4-18.4-16.7-36.6-25-54.9c-7.3,4.5-11.2,9.6-13,17.1
		c-3.4,14.6,0.5,26.9,11.8,36.9C558.1,440.6,566.3,441,576.1,434.1z M343.9,989c-2-8.1-3.8-15.6-5.8-23c-0.2-0.8-1.9-1.9-2.8-1.9
		c-11.3,0.7-22.6,1.5-34.2,2.3c0.9,6.8,0.8,14.6,8.7,18.4C320.2,989.7,331.2,990.9,343.9,989z M301.7,645.8
		c-24.7,13.5-49.7,66.1-45.2,94.4c2.7-8.3,4.9-15.9,7.5-23.3c6.2-17.6,14.7-33.8,30-45.5c1.5-1.1,2.9-3,3.3-4.8
		C298.9,660,300.1,653.3,301.7,645.8z M390.3,315.4c1.7,7.1,3.3,14.2,5.3,21.2c0.3,1.2,3,2.8,4,2.5c7.4-2.5,14.7-5.4,21.9-8.4
		c2.3-0.9,3.2-2.6,2-5.2c-2.3-5.2-4.5-10.4-6.4-15.7c-1.8-4.8-4.8-6.4-9.7-4.9c-3.7,1.1-7.4,1.8-11.1,2.7
		C392.2,308.6,389.9,310.7,390.3,315.4z M623.6,890.4c-5.3,4-7.5,12.7-4.2,20.7c3.9,9.3,10.8,15.9,19.3,20.9
		c2.8,1.6,5.1,1.4,6.7-1.6c2.4-4.7,4.9-9.5,7-14.3c0.4-0.9,0-2.7-0.7-3.3C642.5,905.3,633.1,897.9,623.6,890.4z M599.9,988.7
		c-1.3-6.3-2.7-11.8-3.6-17.3c-0.8-4.8-3.2-6.1-7.9-5.6c-10.3,1.2-20.6,1.9-31.4,2.9c1.1,5-0.1,11.8,5.8,15
		C574.2,989.8,586.6,990.9,599.9,988.7z M411.3,371.5c8-4.1,15.1-7.7,22-11.6c0.9-0.5,1.4-3.2,1-4.5c-1.9-5.8-4.3-11.5-6.3-17.3
		c-1.1-3-2.7-3.7-5.7-2.4c-4.1,1.8-8.4,3.1-12.6,4.7c-9.4,3.5-9.2,3.5-5.4,12.4C406.7,358.4,408.6,364.2,411.3,371.5z M427.4,955.3
		c1,5.9,0.2,12.4,5.9,15.5c9.7,5.1,20.2,6.4,31,4.3c1.2-0.2,3.1-3.2,2.8-4.4c-1.4-5.6-3.3-11.1-5.5-16.5c-0.5-1.3-2.7-3-3.9-2.8
		C447.7,952.4,437.7,953.8,427.4,955.3z M655.5,731.7c-5.6,3.9-9.1,8.6-10.9,14.5c-1.4,4.4-0.9,8.6,1.9,12.3
		c6.1,8.1,20.5,10.4,28.9,4.9c3.6-2.4,4.2-5.1,1.4-8.2C669.8,747.3,662.7,739.6,655.5,731.7z M414.2,375.1
		c3.8,8.9,7.5,17.5,11.3,26.4c7.8-3.7,15.2-7.2,23-10.9c-3.3-8.3-6.4-16.1-9.7-23.9c-0.4-0.8-2.6-1.7-3.5-1.3
		C428.3,368.5,421.5,371.8,414.2,375.1z M542.3,804.4c0.2,1.9,0.3,5.3,1.2,8.4c1.7,6.3,6.2,8.4,12.3,6.1c9.9-3.6,14-16,8.4-25.8
		c-2.9-5-7.4-7.3-12.4-6.3c-4.8,1-8.4,5.3-9,10.6C542.6,799.3,542.5,801.1,542.3,804.4z M407.2,274c-7.2,2.5-13.6,4.7-20,7.1
		c-1.2,0.4-2.8,2-2.7,3c0.1,7.6,0.5,15.1,0.8,22.2c8.2-2.4,15.7-4.4,23.1-6.9c1.7-0.6,4.1-3.1,3.9-4.3
		C411.1,288.1,409.1,281.3,407.2,274z M439.3,431.8c5.9-2.3,11.6-4.4,17.2-6.8c2.1-0.9,4-2.1,2.7-5.3c-2.6-6.8-4.9-13.7-7.2-20.6
		c-0.8-2.3-1.9-3.4-4.4-2.2c-4.5,2.1-9.1,4-13.5,6.2c-0.9,0.4-2,2.1-1.8,2.9C434.3,414.2,436.7,422.5,439.3,431.8z M462.1,427.4
		c-7,3-12.9,5.6-18.5,8.1c1.9,8.3,3.7,16.3,5.8,25.2c6.2-2.5,11.9-4.7,17.4-7.2c1.1-0.5,2.4-2.8,2.1-3.9
		C466.9,442.3,464.5,435.1,462.1,427.4z M448.1,549.4c0.7,0,1.4,0,2,0c12.4-12.5,18.6-27.9,22.1-46.1c-6,1.1-11,1.8-16,2.9
		c-0.7,0.2-1.6,1.6-1.7,2.5c-0.7,6.1-1.3,12.2-1.9,18.4c2.3,0.9,5.3,2.1,8.3,3.4c-0.1,0.6-0.3,1.2-0.4,1.8c-4.7,0-9.5,0-15.5,0
		C446.1,538.1,447.1,543.8,448.1,549.4z M474.1,479c-1.2-7.7-2.3-14.7-3.5-22c-6,2.5-11.5,4.8-16.9,7.3c-0.9,0.4-1.9,2.3-1.7,3.4
		c0.8,4.7,2,9.3,3.2,14.3C461.6,480.9,467.6,480,474.1,479z M458.9,486.2c-0.5,4.7-1,9.2-1.5,14.1c4.8-0.5,9.3-0.8,13.7-1.5
		c1-0.1,2.3-1.5,2.4-2.5c0.5-4,0.7-8.1,1-12.6C468.7,484.7,463.9,485.4,458.9,486.2z M429.6,325.7c4.7,12.3,9.4,24.5,14.4,37.6
		C450.2,352.2,442.6,336.3,429.6,325.7z M480.6,971.7c-2.8-7.4-5.2-14.4-8.1-21.2c-1.6-3.8-4.2-4.4-6.8-1.2
		c2.3,8.4,4.4,16.3,6.7,24.6C475,973.2,477.3,972.6,480.6,971.7z M663.9,920.1c-1.1-1.6-1.7-3.5-2.5-3.6c-1.3-0.2-3.4,0.4-4.1,1.4
		c-3.3,4.8-6.3,9.8-9.1,14.9c-0.7,1.4-0.1,3.4-0.1,5.2c2.1-0.3,5.3,0.2,6.1-0.9C657.7,931.7,660.6,925.9,663.9,920.1z M349.4,989.7
		c2.4-2.7,5.6-4.7,5.4-6.3c-1.2-8-3.8-15.6-8.6-22.4C342.6,964.5,343.6,973,349.4,989.7z M599.5,964.7c1.6,7.3,2.9,13.9,4.6,20.5
		c0.3,1.1,2.9,2.6,3.7,2.3c1.6-0.7,3.9-2.9,3.7-3.9c-1.9-6.9-4.4-13.7-6.8-20.8C602.2,963.6,600.9,964.1,599.5,964.7z M492.8,131.5
		c-3.2,3.2-6.2,6.2-9.4,9.5c3.4-0.5,6.9-1.1,10.7-1.6C493.6,136.3,493.2,133.8,492.8,131.5z M647.4,254.4c-0.3-0.8-0.6-1.6-0.9-2.3
		c-5.5-0.5-8.8,3.4-12.7,6c0.2,0.4,0.4,0.8,0.5,1.2C638.7,257.7,643,256,647.4,254.4z"/>
	<path d="M722.8,74.4c-11.2,1.7-20.8,3.8-30.5,4.5c-6.9,0.5-12.6,2.3-18.6,5.7c-20.4,11.4-41.3,9.6-61-1.4
		c-12.1-6.8-23-15.9-34.3-24.1c-2.8-2-3-4.2-0.3-7c31-33.2,89.3-24.3,108.9,16.8c1.6,3.3,3.3,4.2,6.9,3.7
		C722,69,749,60.5,775.9,51.6c14.4-4.7,29.1-8.3,43.8-12.1c3.3-0.9,8.6-2.5,9.4,2.1c0.9,4.5-4.6,4-7.8,4.8c-1.8,0.5-3.7,0.5-5.4,1.1
		c-5.1,1.8-11.9,2.3-14.7,5.9c-4.9,6.2-7.5,14.3-10.4,21.9c-0.8,2,0.9,5.1,1.7,7.6c2.7,8.2,6,16.3,8.1,24.6
		c3.2,12.8,0.2,25.1-5.1,36.9c-7.9,17.3-20.3,31.2-33.7,44.3c-2.7,2.7-5.8,3.3-8.1-0.1c-18.7-28-25.8-61.1-1.8-90
		c5.2-6.2,12.1-11.8,19.4-15.3c12.7-6.2,16.2-17.6,20.7-30c-3.4,1.1-6,1.9-8.6,2.8c-13.2,4.6-26.9,8.1-39.5,14.1
		c-10.7,5-20.2,12.7-30.1,19.4c-3.6,2.5-4.5,5.7-3.3,10.4c7,25.9-0.8,43.9-24.5,56.7c-7.9,4.2-16.4,7.3-24.6,10.8
		c-3.7,1.6-6.5,0.1-8.2-3.4c-8.6-17.1-3.4-46.1,10.4-58.5c9.6-8.7,21.4-13.1,33.7-15.2C708,88.4,713.6,80.1,722.8,74.4z M785.6,83.8
		c-1,1.8-1.8,3.2-2.6,4.7c-9,17.6-14.9,36.2-18.9,55.5c-0.5,2.4-1.4,4.8-2.2,7.1c-0.4-0.1-0.9-0.3-1.3-0.4
		c0.2-22.4,7.6-43,16.3-63.9c-38.6,21.5-41.9,60.8-19,95.2c12.5-11.9,24.3-24.2,31.7-40C799.2,122.1,795.3,103,785.6,83.8z M681,72
		c-6.1-16.5-24.5-30.1-45.1-33c-19.4-2.7-36.5,2.8-51.8,15.2c9,6.9,17.1,13.9,26,19.7c6,4,12.8,7.2,19.7,9.4
		c15.3,4.8,30.2,3.1,44.6-6c-14.4-6.9-28.3-13.5-42.2-20.1c0.2-0.5,0.4-1,0.7-1.5C649.6,57.9,663.6,69.6,681,72z M703.8,99.7
		c-1.1,1.5-2.1,2.7-3.1,3.9c-7.7,10.1-15.2,20.2-23,30.2c-1.2,1.6-3.2,2.6-4.8,3.8c-0.4-0.4-0.8-0.9-1.2-1.3
		c9-13.2,18.1-26.4,27.8-40.5c-17.7,4.1-32.7,10.3-40.3,26.4c-6,12.6-2.6,25.8,0,40.3c10.7-5.4,20.7-9.4,29.6-15.1
		C706.2,136.4,711,120.1,703.8,99.7z"/>
	<path d="M531.7,251.2c1.3-6.3,2.6-12.9,3.9-19.5c-0.4-0.1-0.9-0.2-1.3-0.3c-6,8.3-14.7,9.4-22.8,2.6c-7.3-6.1-9.6-14.1-8.2-23.3
		c0.2-1.3,0.5-2.5,0.8-3.9c-9.6,2-14.5,11.7-12.9,24.8c1.7,14,13.2,23.3,29.2,23.1c-3.7,3.4-7.8,3.4-11.8,2.8
		c-12.8-2-23.4-13.4-24.5-26.8c-0.4-4.7-0.3-9.8,0.8-14.3c3.8-15.6,18.3-22.5,33.1-16.2c14.6,6.3,24.4,27.1,20,42.3
		C536.5,247.9,535,249.9,531.7,251.2z"/>
	<path d="M588.8,634c0,22.8-11.8,34.5-31.1,32.8c-4.9-0.4-10.3-3-14.2-6.1c-14.9-12-17.1-28.4-14-46.1c0.7-3.9,1.8-7.8,3.2-11.5
		c6.1-15.4,20.3-19.8,33.4-9.7C580.3,604.4,589.1,618.6,588.8,634z M584.2,637.4c-0.4-3.1-0.5-6.3-1.3-9.4
		c-3.6-13.9-10.8-25.4-23.6-32.6c-8.2-4.6-14.7-2.7-19.5,5.4c-2,3.4-3.5,7.3-4.3,11.1c-3.4,15.8-3.5,31.2,9.5,43
		c3.8,3.5,9.3,6.5,14.3,7C574.3,663.5,583.9,653.3,584.2,637.4z"/>
	<path d="M508.4,584.3c-8.8,0.2-17-3-24.4-8.6c-5.3-4.1-7.7-9.2-6.5-16.2c1-5.9,1.1-11.9,1.6-17.9c0.3-3,0.4-6,1.1-8.9
		c3.6-14.4,14.5-19.5,27.9-13.1c12.9,6.2,21.7,16.7,26.8,29.7C541.7,566.6,528.1,584.5,508.4,584.3z M509.8,579
		c13.9,0,25.1-13.1,20.5-26.5c-4-11.7-11.5-21.1-22.3-27.2c-12-6.7-20.1-2.8-23,10.7c-0.6,2.7-0.8,5.6-1,8.4
		c-0.5,5.5-0.6,10.9-1.3,16.4c-0.6,4.8,1,8.5,4.8,11.2C493.7,576.6,500.6,579.1,509.8,579z"/>
	<path d="M580.4,497.4c-0.4,7.1-1.7,15.1-7.1,21.8c-8.2,10.2-21.4,12.2-32.1,4.8c-15.6-10.7-21.8-30.3-15.3-48.1
		c5.3-14.6,16.5-20,31.4-15C571.7,465.6,580.7,479.2,580.4,497.4z M528.4,488.4c0.1,13.1,5.1,23.1,14.8,30.5
		c9.5,7.2,20.6,5.2,27.3-4.6c9.1-13.3,5.7-34.8-7.1-44.7c-14.3-11.1-29.8-5.8-34,11.7C528.8,483.9,528.6,486.6,528.4,488.4z"/>
	<path d="M482.6,666.9c-5.1-1.8-10.6-2.9-15.3-5.4c-10.6-5.6-14-17.7-8.7-29.4c5.6-12.4,21.3-22.2,34.8-20.9
		c3.3,0.3,7.4,2.3,9.2,4.9c5.8,8.2,8.5,17.7,6.9,27.9C507.1,658.3,497.4,666.1,482.6,666.9z M505.2,639.6
		c-1.8-6.2-3.1-12.5-5.5-18.5c-0.9-2.2-4.2-4.7-6.6-4.9c-11.1-1-24.6,7.2-29.3,17.4c-2.8,6-3.4,12.3,0.3,18.2
		c4.7,7.5,16.7,10.9,26.5,7.9C500.5,656.6,504.4,651,505.2,639.6z"/>
	<path d="M363.9,255.4c1.5-9.4,7.4-13.2,14.4-16.1c0.1-0.6,0.2-1.1,0.2-1.7c-9.1-3.8-17.9-9.8-27.3-10.8c-9.2-1-19,3.1-29.9,5.2
		c2.3-2,3.6-3.6,5.2-4.6c14.2-8.4,28.8-10,43.7-2c8.1,4.3,15.8,9.2,24.1,13.2c5.6,2.7,11.8,4.2,17.7,6.4c1.4,0.5,2.5,1.7,3.8,2.6
		c-0.9,1.3-1.7,3.4-2.8,3.7c-2.6,0.5-5.6,0.7-8.2,0c-4.3-1.2-8.4-3.2-12.5-5c-8.5-3.7-18.6-1.6-25,5.3
		C366.4,252.5,365.6,253.5,363.9,255.4z"/>
	<path d="M549.9,723.2c-0.1-19.1,18-34,35.4-29.3c5.9,1.6,9.6,5.3,10.6,11.3c2.5,15-1.9,28.1-12.3,38.8c-7.5,7.7-19,6.7-26-1.3
		C552.8,737.1,549.9,730.7,549.9,723.2z M555.1,722.5c-0.1,6.2,1.8,11.8,5.8,16.6c5.5,6.6,14.2,7.2,19.8,0.7
		c7.8-9,11.8-19.6,10.4-31.7c-0.7-6.3-4.3-9.5-10.5-9.8C566.7,697.6,555.1,708.6,555.1,722.5z"/>
	<path d="M467.1,362.8c0.4-6.3,1.9-13.8,9.6-17.5c7.7-3.7,15.3-2,22.1,2.9c12.1,8.8,17.4,22,13.5,34.3c-2.5,7.8-6.9,14.3-15.5,16
		c-8.4,1.7-14.8-2.5-20-8.7C470.6,382.6,467.1,373.4,467.1,362.8z M508.5,374.7c0-9.9-8.5-21.6-17.7-25
		c-10.2-3.8-18.1,1.5-18.5,12.3c-0.3,8.4,2.1,16.1,7.1,22.9c4.2,5.7,9.4,10.5,17.1,8.6c7.8-2,10.4-8.7,11.8-15.8
		C508.5,376.6,508.5,375.4,508.5,374.7z"/>
	<path d="M367,730c0-12.7,3.7-19.2,10.3-21.8c7.3-2.9,15-1,21,5.1c11,11.3,12.6,28,3.8,39.6c-7.9,10.4-22.9,9.3-28.2-2.6
		C370.4,742.8,368.4,734.5,367,730z M403.5,736.7c-1.1-8.7-4.3-15.6-10.3-21.2c-3.8-3.5-8.4-4.6-13.4-2.9c-4.5,1.6-7.2,5-7.4,9.7
		c-0.5,9.9,2,19.2,7,27.6c4.2,7,13.9,7.1,18.4,0.2C400.4,746.2,401.7,741.3,403.5,736.7z"/>
	<path d="M321.8,782.4c0.3-5.8,3.4-12.8,8.6-18.9c3.4-4,8-5.2,13.1-4.5c12.3,1.7,20.6,13.5,18.4,26.3c-2.2,12.4-14,20.6-26.1,18
		C327.1,801.5,321.8,794.5,321.8,782.4z M357,781.4c0-0.7,0-1.3,0-2c-0.6-7.4-6.3-13.6-13.8-15c-5.4-1-9.5,1.8-13.2,9.1
		c-1,2.1-1.9,4.3-2.4,6.5c-1.6,6.1-0.9,11.7,4.4,15.7c5.2,4,10.9,3.5,16.5,0.8C354.7,793.5,356.8,787.9,357,781.4z"/>
	<path d="M462.2,277.6c10.6-0.3,19.5,9.7,19.7,22c0.2,11.5-9.5,21.9-20.6,22.2c-10.5,0.3-22.1-11.5-22.2-22.9
		C438.9,287.7,449.5,277.9,462.2,277.6z M476.8,300.1c-0.1-9.8-6.7-17.5-14.9-17.4c-9.1,0.2-18,7.8-18,15.4
		c0,8.9,9.4,18.9,17.5,18.7C469.5,316.7,476.9,308.6,476.8,300.1z"/>
	<path d="M486,178.6c-13.6,2.4-19.5,9-20.9,23.4c-0.5,5.1-0.7,10.2-1,15.3c-0.5,0.2-0.9,0.5-1.4,0.7c-1.2-1.5-2.8-2.7-3.5-4.4
		c-4.4-10.6,2.2-31.7,11.8-37.9C476.6,172,482.9,173.1,486,178.6z"/>
	<path d="M613,191.8c-4.4-0.1-8.2-3.2-7.8-6.2c0.5-3.9,3.5-5.1,6.9-4.9c3.6,0.2,6.8,1.8,6.9,5.8C619.1,190.6,615.8,191.5,613,191.8z
		"/>
</g>
</svg>
