<?xml version="1.0" encoding="utf-8"?>
<!-- Generator: Adobe Illustrator 18.1.1, SVG Export Plug-In . SVG Version: 6.00 Build 0)  -->
<svg version="1.1" id="Layer_1" xmlns="http://www.w3.org/2000/svg" xmlns:xlink="http://www.w3.org/1999/xlink" x="0px" y="0px"
	 viewBox="0 0 1024 1024" enable-background="new 0 0 1024 1024" xml:space="preserve">
<g>
	<path d="M309.5,347.5c-3.5-2.5-6.9-4.8-10.2-7.3c-12.1-9.1-16.5-24.7-10.8-37.9c4.3-10,14-16.3,24.9-16c8.9,0.2,15.4,4.4,18.9,12.5
		c2.6,6.1,4.7,12.5,6.7,18.8c1.1,3.6,2.6,4.7,6.4,3.4c8.6-3.1,17.4-5.7,26.1-8.5c0.1,0,0.2-0.2,0.8-0.9c-1.8-1.7-4.2-3.1-5.5-5.2
		c-1.8-2.9-4.1-6.5-3.7-9.6c0.5-4.2,5.2-4.5,8.9-4.7c3.8-0.2,7.6,0,11.6,0c0.4-0.7,0.8-1.2,1-1.8c2.2-6.1,4.7-7.5,10.6-4.5
		c4.6,2.3,8.7,4.3,14.2,4.8c7.3,0.7,10.3,7.9,10.3,14.1c0.1,8.8,4.2,11.7,11.9,14c8.6,2.6,16.6,7.2,25.4,11.2
		c0.5-2.7,0.9-5.6,1.5-8.4c2.6-11.8,8.9-20.7,20.9-23.7c11.2-2.8,20.9,0.6,27.9,9.9c10.4,13.8,7.6,36.2-5.8,47
		c-3.7,3-7.9,5.4-12.5,8.5c3.3,5.3,6,10.9,9.7,15.7c6.5,8.5,13.2,9.7,22.7,5c17.2-8.5,35-15.7,53.7-19.9
		c50.4-11.3,99.3-8.8,145.3,17c9.1,5.1,17.6,11.4,26.2,17.5c3.5,2.4,5.8,2.4,8.3-1.2c3.1-4.5,6.4-8.9,9.7-13.3
		c5.7-7.6,12.9-7.4,18.1,0.7c7.4,11.5,6.5,28.5-2.6,39.8c-2.9,3.6-3.2,5.9-0.5,9.8c22.7,32.6,34,69,33.1,108.6
		c-1.3,55-18,105-52.4,148.5c-3.1,3.9-4,7.6-2.8,12.4c4.2,16.9,1.6,33.3-6.2,48.5c-2.2,4.3-7.9,7.7-12.8,9.4
		c-20.9,7.2-42.1,7.5-63.2,0.6c-5.9-1.9-10.7-4.8-10.4-12.1c-44.9,12.7-43.6,9.2-74.3,0.6c-2.4,7.4-5.1,14.7-7.3,22.1
		c-1.8,6.1-5.5,10-11.2,12.6c-15.6,7.1-32.2,8.3-48.9,7.2c-8.4-0.5-16.9-2.2-24.9-4.8c-14.6-4.8-18.8-16.7-11.3-30.1
		c6.1-10.9,5.1-22.4,4-34.1c-0.2-2.5-0.1-5.2-1.1-7.4c-1-2.1-3.1-4.5-5.1-5c-5.5-1.2-11.2-1.3-17.4-2c1.3,8.3,2.7,16.1,3.8,23.9
		c0.8,5.8,1.5,11.6,1.9,17.4c0.6,8.4-3,15-11.3,18.1c-8.2,3.1-16.8,5.6-25.5,6.7c-16.3,2.1-32.6,1-48.2-5
		c-8.7-3.3-11.8-7.5-10.5-16.7c1.1-7.9,3.2-15.7,4.4-23.5c0.5-3.6,0.6-7.8-0.6-11.1c-7.6-20.7-14.1-41.6-17.7-63.4
		c-2-12.3-16.4-25.7-28.6-27.9c-23.8-4.1-46.1-12-64.6-28.3c-7.8-6.9-13.6-15.1-16.5-25.2c-1.6-5.5-4.6-9.2-9.6-12.1
		c-21.8-12.4-30.8-32.5-31.9-56.5c-1.7-35,13.3-61.3,42.9-79.7c2.6-1.6,4.9-4,7.3-5.9c4.8-3.8,9.7-7.4,14.4-11.3
		c2.1-1.7,4.7-3.6,5.5-6c6.2-18.8,15.1-36.2,25.7-52.8C308.6,349.3,308.9,348.5,309.5,347.5z M622.7,610.6c0.6,0.1,1.2,0.1,1.8,0.2
		c0.3,1,0.8,2,0.8,3.1c0.2,6.2,0.5,12.3,0.3,18.5c-0.5,18-6.3,33.5-20.7,45.3c-2.4,1.9-4.3,5.3-4.9,8.3c-1.5,7-2.2,14.1-3.2,21.2
		c-0.5,3.1,0.6,4.3,3.8,3.9c6.1-0.7,12.3-0.9,18.4-1.9c41.4-7,75.4-27.4,103.3-58.2c25.8-28.4,40.3-62.4,47.2-99.9
		c0.4-1.9,1.1-3.7,1.7-5.6c0.5,0.1,1,0.2,1.4,0.3c0,1.5,0.2,3.1,0,4.6c-4.9,27.1-13.5,52.9-28.1,76.4
		c-16.3,26.3-37.7,47.3-64.4,62.9c-4,2.4-5.7,4.5-3.2,9.5c4.7,9.3,4.6,19.3,1.3,29.2c-0.8,2.3-1.5,4.6-2.7,8
		c9.5-3,13.6,2.8,17.3,9.8c4.8-7.7,10.7-11.9,18.9-9.9c8.4,2,13.2,8,15.5,16.1c0.3,1.1,0.5,2.4,1.2,3.2c0.8,0.9,2.4,2.2,3.1,1.9
		c5.9-2.2,12.6-3.8,15.3-10.3c6.1-14.8,8.8-30.1,3.4-45.8c-1.4-4.1-0.8-7.2,1.9-10.5c21.9-25.9,36.6-55.5,45.4-88.1
		c10.5-38.6,13.2-77.4,0.7-116.2c-19.6-60.8-60.4-99.8-121.7-116.6c-43.7-11.9-86.9-7-128.9,9.2c-10.8,4.2-21.2,9.2-31.7,13.9
		c0,0.5,0.1,1,0.1,1.5c13.1,4.1,23.8,11.7,32.6,22c8.7,10.2,15.5,21.4,18.1,35c-10.6-20.3-21.1-40.7-43.8-50.4
		c4.4,7.7,10.7,14.4,12.7,23.5c-5.7-6.6-10.4-14-16.3-20.3c-6-6.4-13.1-11.8-20.7-18.4c0,2.3-0.1,2.6,0,2.9c0.2,0.6,0.5,1.2,0.8,1.8
		c6.5,15.7,10,31.9,9.7,49.1c-0.1,4.9,2.9,10,5,14.7c1.4,3.3,4,6.1,5.6,9.4c8.1,17.6,8.9,36,5.4,54.7c-7.9,42.4-42.9,71.9-73.2,75.9
		c-2.1,0.3-4.4,1.6-6.1,3c-23,19.4-49.9,28.1-79.6,29c-4.2,0.1-8.4,0.5-12.8,0.7c0.4,1.3,0.5,1.8,0.7,2.2
		c23.9,30.8,52.6,55.1,90.1,67.8c14,4.7,28.4,7.2,43.1,7.7c2.9,0.1,4.8,0.1,5-4.1c0.3-7.3-3.1-12.3-7.4-17.3
		c-1.8-2.1-2.9-4.9-4.3-7.4c0.5-0.3,0.9-0.6,1.4-0.8c3,3.7,6.1,7.4,10.1,12.2c0-5.2,0-8.6,0-12.1c-0.1-14.1,6.3-24.4,19.4-29
		c10.4-3.7,21.4-6.7,32.3-7.8c17.5-1.7,34.2,1.5,48.4,13.1c6,5,9.3,11.2,8.5,19.2c-0.1,1.5,0,3.1,0,5.6
		C623,658.8,624.4,635.2,622.7,610.6z M307.3,379.4c0.4-0.4,0.7-0.8,1.1-1.2c4.2,3.7,6.8,1.2,9.9-1.4c9.7-8.2,23.7-5.8,30.3,5
		c4.3,7,5.7,14.7,3.2,22.6c-1.6,5.1-4.5,9.7-6.8,14.7c1.1,0.1,2.4,0.2,3.7,0.5c13.6,2.3,27.5,3.5,40.7,7
		c28.3,7.5,51.4,22.5,65.3,49.3c4.7,8.9,12.5,13,22.4,13.5c2,0.1,4.1,0.4,6.1,0.6c0,0.7,0,1.4,0,2.1c-2.9,0-5.9,0.2-8.8,0
		c-3.9-0.3-6.7,1.1-7.5,4.9c-1,4.8-1.6,9.8-2,14.7c-0.4,5.3,0.3,10.7-0.7,15.9c-5,28-21.9,45.5-48.8,53.7c-3.1,0.9-4.6,2.6-5.3,5.8
		c-1.5,6.9-6.6,11.1-13.5,12.2c-8,1.2-15.5-0.3-22.8-3.5c-3.2-1.4-7.1-2.5-10.5-2c-23.2,3.1-45-1.8-66.1-11.1
		c-4.2-1.8-8.8-3.5-13.3-4c-7.9-0.8-14.9-2.2-18.1-10.6c-0.2-0.6-0.8-1.3-1.3-1.4c-1.8-0.5-3.7-0.8-5.6-1.2c0,1.7-0.4,3.5,0,5
		c4.8,15.5,15.3,26.2,29,34.2c20.9,12.1,43.4,18.8,67.4,19.3c42,0.8,78.4-11.6,104.9-46.3c0.8-1.1,2.2-1.8,3.3-2.7
		c0.5,0.5,1.1,1,1.6,1.5c-3.7,4.6-7.3,9.3-11.6,14.7c2-0.3,3.1-0.5,4.2-0.7c41.8-10.1,74.9-62.5,64.8-107
		c-4.9-21.4-14.3-39.2-35.9-47.7c-7.3-2.9-15.2-4.2-22.9-6.2c16.1-2.6,29.4,4,41.4,14c0.6-0.8,0.9-1.1,0.9-1.3
		c0.1-1.2,0.1-2.3,0.1-3.5c0.6-24.5-7.9-46.3-20-67c-5.8-9.8-6.3-10-17.6-8.4c-5.8,0.8-10-4-7.7-9.6c4.8-11.7,9.9-23.3,15.3-34.7
		c2.3-4.9,6.8-6.1,11.9-4.2c4.8,1.8,7.3,6.3,6.8,12.6c-1.2,14.4-10.4,25.2-24.8,29.1c-1.2,0.3-2.4,0.8-3.6,1.2
		c0.1,0.6,0.2,1.1,0.2,1.7c3.4,0,6.8,0.2,10.2,0c20.6-1.3,34.4-20.5,28.9-40.3c-2.4-8.6-8.3-13.6-16.7-15.4
		c-7.8-1.7-13.9,1.6-18.9,7.4c-5.3,6.2-6.2,13.8-7.5,21.3c-0.8,4.6-2,9.1-3.3,13.5c-0.4,1.4-2,2.4-3,3.5c-0.8-1.6-0.9-2.8-0.4-3.4
		c3.4-4.1,1.6-6.6-2.2-9.1c-9.9-6.6-20.4-11.8-32-14.8c-7.5-1.9-7.3-2-7.3-9.8c0-5.6-1.3-10.9-7-14.4c0,5.1,0,10.2,0,16.8
		c-5.8-8.3-5.7-19-16.9-23.2c3.5,8.3,6.6,15.5,9.6,22.6c-0.6,0.3-1.1,0.5-1.7,0.8c-1.1-1.8-2.2-3.5-3.2-5.3
		c-4.3-7.1-10.6-11-18.7-11.8c-2.4-0.3-5,0.9-7.5,1.3c-0.1,0.7-0.2,1.4-0.2,2.1c8.2,5.4,16.5,10.7,24.7,16.1c-0.1,0.5-0.2,1-0.2,1.5
		c-5.4,0.3-10.7,0.6-16.1,0.9c-26.5,1.8-48.8,11.8-64,34.4c-10.7,16-19.1,33.2-24.7,51.6c-1.3,4.4-3.7,7.1-8.1,8.6
		c-2.9,1-5.5,3.3-8.2,4.9c0.2,0.5,0.5,1,0.7,1.5c8.5-2.9,16.9-2.1,25.6-0.6c6.2,1.1,12.8-0.1,19.3-0.3c0.1-0.5,0.3-1,0.4-1.5
		c-6.1-5.6-8.4-12.6-9.1-20.5c-0.2-1.9-2.2-3.7-3.4-5.6c-0.8-1.3-1.6-2.5-2.4-3.8c1.3-0.1,2.6-0.2,3.9-0.3c1,0,2.1,0,3.1-0.1
		c-0.1-1.1,0-2.2-0.4-3.2C309.2,382.9,308.2,381.1,307.3,379.4z M316.8,499.7c0.6,0.2,1.3,0.4,1.9,0.6c-0.4,2.7-0.8,5.5-1.2,8.2
		c-5.6,37.2,4.2,46.5,27.2,59.6c21.8,12.4,44.7,16.6,69.3,10.2c29.1-7.6,49.8-33.6,48.2-62.1c-2.1-36.6-19.9-63.2-53.1-79.1
		c-26.8-12.9-55.4-15.8-84.8-15c-11.4,0.3-22.9-0.4-34.3,0c-6,0.2-12.3,0.6-17.9,2.6c-6.8,2.4-13.4,6.1-19.4,10.1
		c-31.2,20.9-43.5,60.8-29,94.2c6.9,15.9,17.2,28.4,35.4,32.3c20.2,4.2,39-0.4,57.4-8.1c2.4-1,2.4-2.6,1.4-4.8
		c-5.9-13.4-6.4-27.4-3.7-41.6C314.9,504.4,316,502.1,316.8,499.7z M532,777c0.3-0.6,0.9-1.8,1.4-3c2.7-5.6,6.5-9.7,13.2-10
		c6.9-0.3,11.7,3.2,15,8.9c0.8,1.4,1.6,2.9,2.4,4.4c1.5,2.7,3.3,3.1,6.1,1.5c4.7-2.7,7-6.8,8.7-11.7c10-30.3,16.8-61.3,18.8-93.2
		c0.6-9.4-2.6-17-10.6-22.2c-3.6-2.3-7.5-4.3-11.5-5.8c-22.2-8.3-43.8-5.3-64.9,4.3c-9.6,4.4-14.8,11.8-15.1,22.2
		c-0.3,11.8-0.1,23.6,0.2,35.4c0.4,13.3,1.1,26.5,1.8,39.8c0.1,1.8,1.3,3.6,2,5.4c1,2.6,2.2,5.2,2.9,7.9c0.4,1.7,0.1,3.7,0.1,6.4
		c6.1-4.3,11.7-8.1,17.4-3.8C524.7,767.1,528.1,772.5,532,777z M403.3,754.2c0.9-0.7,1.5-1.2,2.1-1.8c8.4-7.3,18.6-5.5,23.8,4.3
		c1.5,2.9,2.8,6,3.9,9.2c1,2.7,2.4,3.6,5.3,2.9c5.6-1.6,11.3-2.8,16.9-4.5c9.7-3,12.8-7,11.5-16.9c-1.7-12.7-4.5-25.2-6.6-37.8
		c-0.6-3.8-2.9-5.4-6.2-6.2c-28.8-7.2-53.3-22.1-74.9-42.1c-3-2.7-5.9-5.5-9.6-8.9c0.1,1.8,0.1,2.5,0.2,3.1
		c3.9,21.4,10.3,42,18.2,62.1c2,5.1,2.3,9.9-0.1,15c-1.6,3.5-2.3,7.3-3.6,11.4C394.1,742,394.1,742,403.3,754.2z M611.1,738.4
		c8.9-6.9,11.7-7.6,17.8-4.7c5.4,2.5,9.9,6.3,12,12.1c1.4,3.8,3.6,4.8,7.3,3.1c1.9-0.9,4.1-1.3,6.2-2c5.1-1.7,8.4-5,10.1-10.2
		c3.6-11,4.2-22.1,2-33.5c-0.7-3.8-2.1-5-6.2-3.1c-17.9,8.2-36.6,13-56.3,13.9c-1.8,0.1-4.4,1.5-5.1,3c-1.4,3.4-1.9,7.2-2.9,11.6
		C604.3,727.5,610,729.4,611.1,738.4z M316,340.4c-0.1-0.3-0.1-0.7-0.3-0.9c-0.9-0.7-1.8-1.4-2.7-2.1c-8-6.6-13.1-14.6-12-25.4
		c0.4-4.1,2.6-6.8,6.5-8c3.9-1.2,6.6,0.9,8.3,4c3.4,6.3,6.3,12.8,9.7,19.1c0.9,1.7,3.2,4.1,4.4,3.8c3.1-0.7,5.8-2.7,4.4-6.9
		c-2.6-7.5-5-15.2-7.8-22.6c-2-5.5-6.3-8.5-12.1-9c-7.3-0.7-16,4.2-19.4,10.9C286.8,318.5,298.6,339.2,316,340.4z M331.6,396
		c4.9-2.7,3.9-5.6,0.1-8.5c4.9-3.6,9.6-1.6,14.4,0.3c-1.8-6.2-6.6-10.3-12.5-11c-10.3-1.1-19.8,7-20.8,17.7
		c-1.2,13,6.2,23.9,17,24.6c2.7,0.2,5.6-1,8.3-1.5c0-0.6,0-1.1,0-1.7c-7.1,0.6-11.3-3-13.3-9.2c-1.5-4.8-1.9-9.6,1.8-14.1
		C328.7,394,330.2,395,331.6,396z M754,407.7c4.8,5.3,9.4,10.5,14.3,15.4c0.8,0.8,3.5,0.7,4.5-0.1c11.3-8.4,9.5-28.4,3.4-36.4
		c-1.6-2.1-3.6-2.5-5.4-0.3C765.1,393.3,759.7,400.4,754,407.7z M464.7,353.3c1.3,0.2,2,0.4,2.6,0.3c12.9-1.8,23.4-12.8,24.6-25.8
		c0.4-4.6-0.4-8.9-5.3-10.6c-5.1-1.8-7.6,2.2-9.2,5.6C472.9,332.7,469,342.9,464.7,353.3z M708,760.7c1.7-0.1,4.1,0,6.3-0.4
		c3.6-0.7,7.1-1.8,10.7-2.7c-1.4-3.8-2.3-7.9-4.4-11.4c-3-5-7.8-8-13.8-7.2c-6.2,0.8-9.9,4.9-11.9,10.8c-2.6,7.7-0.3,10.9,7.9,10.9
		C704.4,760.7,705.9,760.7,708,760.7z M346.6,573.6c-7.9-5.7-15.7-11.5-23.7-17.1c-1.1-0.8-3-1-4.3-0.6c-5.5,1.8-11,3.8-16.3,6.2
		c-1.1,0.5-1.8,2.8-1.8,4.3c0,0.6,2.4,1.7,3.7,1.7c9.6-0.3,18.5,1.6,25.9,8.3c1.2,1.1,3.4,2,4.8,1.6
		C339,576.9,342.9,575.1,346.6,573.6z M515.9,765c-7.5,0.1-15.4,8.6-15,14.7c0.1,1.2,1.6,3.1,2.7,3.4c7,1.5,14,2.8,21.1,3.8
		c3,0.4,5.1-1.3,4-4.5c-1.6-4.3-3.3-8.7-5.9-12.4C520.9,767.4,517.5,766.1,515.9,765z M331.4,588.9c0.7,0.5,1.1,1.1,1.5,1.1
		c9.7,0.3,19.5,0.8,29.2,0.5c2-0.1,4.4-3.2,5.7-5.5c0.5-0.9-0.9-4.2-2.1-4.8c-3.9-1.7-8.2-2.8-12.4-3.6
		C344.5,575,334.8,580.5,331.4,588.9z M431.3,770c-1.7-4.5-2.7-7.5-3.9-10.3c-2.2-5.1-6.1-8.6-11.7-8.5c-5.7,0.1-9.3,3.7-11.5,8.8
		c-3.4,7.9-3.1,8.3,5.6,9.2c2.3,0.2,4.6,0.7,6.9,0.8C421.1,770.1,425.7,770,431.3,770z M562.5,782.5c-3.3-10.1-8.8-15.4-15.1-15.4
		c-6,0-10.8,5-13.4,14.2c0,0.2-0.1,0.3-0.1,0.5c-1.2,3.6,0.3,5.1,3.8,4.8c4.5-0.4,9-0.8,13.4-1.5
		C554.8,784.5,558.4,783.4,562.5,782.5z M294.7,576.8c10.5,7.2,21,9.9,31.8,11.5c0.9,0.1,3.4-3.2,3.3-4.8c-0.3-2.2-1.9-4.7-3.6-6.2
		c-6.8-5.7-14.9-7.3-23.4-5.6C300.2,572.3,298,574.7,294.7,576.8z M407.2,584.9c-11.2-0.9-22-1.8-32.9-2.3c-1.2-0.1-3.7,3-3.4,4
		c0.5,2.1,2.1,4.6,4,5.7c6,3.5,12.8,4.8,19.7,3.8C402.5,595,406.4,591.2,407.2,584.9z M325.2,333c-4.2-8-8.2-16.1-12.7-24
		c-0.7-1.2-4.1-2.2-5.1-1.5c-1.7,1.1-3,3.5-3.3,5.6c-1.3,8,6.7,21.1,14.2,23.9C321.7,338.3,324.1,336.8,325.2,333z M639.3,751.1
		c-1.7-6.7-5.5-11.3-10.6-14c-7.4-4-15.3,0-16,8.4c-0.1,1.8,2.1,5.3,3.4,5.4C623.6,751.3,631.1,751.1,639.3,751.1z M691.6,755.1
		c-0.8-3-1.4-6.2-2.6-9.1c-1.6-3.9-3.8-7.9-8.8-7.4c-5,0.4-6.9,4.5-8.4,8.7c-1.6,4.3,0,6.7,4,7.9c3.8,1.2,7.6,2.3,11.4,3.5
		C690.4,759.8,691.5,758.2,691.6,755.1z M400,760.6c-0.7-2.5-1.1-5.9-2.5-8.8c-1.1-2.3-3.4-5.4-5.4-5.5c-2.4-0.1-5.6,1.9-7.2,4
		c-3.7,4.5-2.4,9.5,2.6,12.6c1.8,1.1,3.8,2,5.8,2.9C398.1,767.8,400.1,766.4,400,760.6z M276.3,566.6c-0.1-0.3-0.1-0.7-0.2-1
		c-1.9,0.6-3.9,1.2-5.8,1.8c1.5,1.8,2.6,4.6,4.4,5.3c4.6,1.5,9.6,2.5,14.5,2.9c4.5,0.4,7-2.5,7.8-6.8c0.6-3.4-0.1-5.6-4.4-4.7
		C287.2,565.2,281.7,565.8,276.3,566.6z M607.7,750.3c0.7-0.4,1.4-0.8,2-1.2c-1-4.7-1.6-9.6-3.2-14.1c-0.6-1.7-3.6-3.5-5.6-3.6
		c-3.9-0.2-6.5,2.7-7.1,6.4c-0.3,2,0.3,5.3,1.8,6.3C599.3,746.6,603.7,748.2,607.7,750.3z M498,780.5c0.6-7.3,1.4-14,1.6-20.7
		c0.1-4-2.2-5.2-4.9-3.2c-4.1,3.1-5.4,7.4-4.9,12.3C490.3,773.9,492.3,778,498,780.5z"/>
	<path d="M729.3,701.8c-10.4,0-20.7,0-31.8,0C700.3,698.1,724.2,698.2,729.3,701.8z"/>
	<path d="M696.5,711.9c9.1,0,17.6,0,26.9,0C718.5,716.6,702.3,716.4,696.5,711.9z"/>
	<path d="M445.1,393.4c-2.1,2.3-4,4.4-6.7,7.3c3.4,0.2,5.8,0.4,8.2,0.6c0.1,0.4,0.3,0.9,0.4,1.3c-1.3,0.9-2.6,2.3-4,2.6
		c-3.6,0.7-4.6,3-5.3,6.3c-2.5,11.4-10.3,18.7-21.8,19.3c-4.2,0.2-9.3-1.7-12.8-4.3c-13.4-10.2-13-32.9,0.3-43.2
		c10-7.8,24.1-5.6,30.9,5.2c2.1,3.4,3.8,6.1,8.3,3.7c0.2-0.1,0.7,0,1,0.1C443.8,392.3,444,392.5,445.1,393.4z M435.2,405.2
		c0-15.2-12.8-25.6-25-20.9c-7.3,2.8-13.5,11.5-13.4,20c0.1,8.9,2.8,16.8,11.4,21.2c5.6,2.9,11.4,3,16.5-0.8
		C431.4,419.8,434.9,413,435.2,405.2z"/>
	<path d="M316.7,361.8c3.1-9,7.3-14.9,15.7-16.3c6.7-1.1,11.3,2.1,14.7,7.3c-5.4,0.4-10.8,0-15.7,1.4
		C326.6,355.6,322.3,358.8,316.7,361.8z"/>
	<path d="M411.8,357.7c5.9-5.5,15.6-5.9,21-1.9c5.5,4.1,8.2,11.5,5.7,17.7C431.8,364.2,424.6,356.3,411.8,357.7z"/>
	<path d="M373.3,475.2c1.4-1.2,2.7-2.5,4.2-3.7c4.7-3.8,8-8.4,8.8-14.6c0.8-6.8-2.9-11.3-9.7-11.7c-7.2-0.3-13.8,2.1-19.8,5.9
		c-3.1,1.9-5.9,4.3-9,6.3c-1.2,0.8-2.6,1.5-4.8,2.7c0.3-1.8,0.1-2.6,0.5-2.9c8.4-7.5,17.5-13.8,29.2-15c12.9-1.4,20.4,7.5,15.6,19.6
		c-2,5-6.4,9-10,13.2c-0.8,1-2.7,1.1-4.1,1.6C373.8,476.1,373.5,475.6,373.3,475.2z"/>
	<path d="M280.8,462.2c-0.8-0.6-2-1.1-2.4-2c-1.6-4-3.8-7.9-4.3-12c-0.9-7,1.4-13.4,8.1-16.9c6.5-3.4,13.1-2.1,18.1,2.7
		c5.8,5.6,10.7,12.2,15.9,18.4c0.6,0.7,0.5,2-0.3,3.6c-1.5-1.7-2.9-3.4-4.4-5c-4.1-4.7-7.9-10-12.6-14.1c-6.1-5.4-12.1-5.5-17.3-1.5
		c-4.6,3.6-6.2,10.7-3.6,17.4c1.1,2.9,2.5,5.7,3.8,8.6C281.6,461.7,281.2,462,280.8,462.2z"/>
	<path d="M358.9,472.6c-4.2,0-6-2.6-4.7-6.6c2.1-6.3,12.4-13.6,19.1-13.3c4.5,0.2,6.2,2.8,4.5,7
		C375.3,466.1,365.8,472.6,358.9,472.6z M357.6,468.2c7,1.5,15.4-4.1,17.6-11.3C368.8,454.6,359.7,460.3,357.6,468.2z"/>
	<path d="M303.8,458.8c0.1,6-3,8-8.2,5.2c-6.3-3.4-9.9-8.7-10.3-15.9c-0.2-4.9,2.1-6.6,6.9-5.2C298.1,444.4,303.7,452.1,303.8,458.8
		z M300.8,459.3c0-5-4.4-11.4-8.4-13.1c-1-0.4-2.5-0.6-3.2-0.1c-0.7,0.5-0.8,2.1-0.6,3.1c0.9,5,3.5,9,7.9,11.6
		c0.9,0.5,2.3,1,3.1,0.7C300.3,461.1,300.6,459.6,300.8,459.3z"/>
	<path d="M239.6,508.4c-2,0.4-3.9,0.8-5.9,1.2c0.1-1.3,0-3.5,0.4-3.7c1.6-0.4,3.4-0.2,5.1-0.2C239.4,506.6,239.5,507.5,239.6,508.4z
		"/>
	<path d="M407.8,520c2.1,0.2,4.2,0.4,7.3,0.7C411.8,524.9,409.7,525.5,407.8,520z"/>
	<path d="M250.5,530.6c0.1,1.7,0.2,3.4,0.3,5.1c-1.1,0-2.3,0-3.4,0c0.3-1.7,0.5-3.5,0.8-5.2C248.9,530.6,249.7,530.6,250.5,530.6z"
		/>
	<path d="M545.2,728c-12.2,0.5-23.4-3.2-35.3-7.4C514,718.3,541.4,724.1,545.2,728z"/>
	<path d="M541.5,734.2c-9.1,4.2-33.1,0.4-36.9-4.5C516.7,731.2,529.1,732.7,541.5,734.2z"/>
	<path d="M434.6,715c-12.6-2.4-25.2-5.1-39,0C402.1,707,425.9,707.3,434.6,715z"/>
	<path d="M430.4,724.1c-6.4,7.1-30.3,4.8-34.6-4.1C407.5,726.6,418.9,725.7,430.4,724.1z"/>
	<path d="M412,396c4.1-5.1,11.3-4.9,15.7,0.4c4.4,5.4,4.7,14.7,0.7,20.6c-2.7,3.9-6.3,6.4-11.3,5.8c-4.9-0.6-7.5-4-9.1-8.2
		c-2-5.2,0.3-15.4,4.2-18.8c-0.2,1.1-0.7,2.4-0.4,3.4c0.5,1.4,1.6,2.7,2.4,4c1-1.4,2.8-2.7,2.9-4.1C417.4,395.3,415.2,394.6,412,396
		z"/>
</g>
</svg>
