<?xml version="1.0" encoding="utf-8"?>
<!-- Generator: Adobe Illustrator 18.1.1, SVG Export Plug-In . SVG Version: 6.00 Build 0)  -->
<svg version="1.1" id="Layer_1" xmlns="http://www.w3.org/2000/svg" xmlns:xlink="http://www.w3.org/1999/xlink" x="0px" y="0px"
	 viewBox="0 0 1024 1024" enable-background="new 0 0 1024 1024" xml:space="preserve">
<g>
	<path d="M400.3,556.1c-12.7,4.2-25.2,8.8-38,12.4c-8.1,2.3-16.5,3.9-24.9,4.8c-9.1,1-17.5-1.5-22.6-9.8c-5.1-8.3-4.1-16.9,1-25
		c6.6-10.5,16.2-17.9,27.1-22.9c15.2-7,30.9-13,47.5-19.8c0-5.1,0-11.8,0-18.9c-28.3-12.6-52.5-29.5-57.2-64.6
		c-5.4,1.1-10.7,2.4-16.1,3.1c-1.9,0.2-5.3-0.5-5.8-1.6c-1.3-3.2,1.7-4.2,4.2-4.7c5.5-1.2,11.1-2.2,17.1-3.4
		c0.7-3.8,1.6-8.2,2.5-12.8c-8.2-2.8-17.4-1.8-25.3-6.1c1.5-4.7,4.7-4.8,7.9-4.3c5.3,0.8,10.5,2.1,15.7,2.7c1.4,0.2,3.8-0.9,4.4-2.1
		c7.4-13.9,14.3-28,19.5-43.1c3.4-9.9,9.9-18.6,15.5-28.7c-4.4-4-9.6-9.4-15.4-14c-11.9-9.4-23.7-18.9-36.3-27.3
		c-34.6-22.9-70.8-23.3-107.1-4.7c-13,6.6-24.5,15.9-36.7,24c-1.9,1.3-3.6,2.8-5.7,4.4c-1.5-5.2-0.1-8.4,3.9-11.4
		c19.2-14.7,38.9-28.2,63-33.4c29.7-6.4,57.9-3.2,83.9,13.9c19,12.5,37,26.1,53,42.3c1,1,2.2,1.9,2.6,2.3
		c10.6-6.5,20.6-13.2,31.1-18.7c5.8-3,12.5-4.4,19-6c2.8-0.7,3.6-1.7,4-4.4c7.2-51.9,32.5-92.7,75.4-122.5
		c10.8-7.5,22.4-13,35.9-14.1c9.5-0.8,14.3,2.7,15.1,12.2c1,10.5-2,20.5-5.5,30.2c-9.4,26.2-25.8,47.9-44.5,68.1
		c-10.2,10.9-20.3,22-30.6,33.2c5.3,2.3,10.4,4.5,15.5,6.7c14.2-29.4,35.7-52.1,63.6-68.6c21.6-12.8,44.4-23,69.8-25.6
		c8.7-0.9,17.7-0.6,26.4,0.4c11.8,1.3,17.1,9.5,14.1,21c-3.5,13.5-11.3,24.8-20,35.4c-18,21.8-41.3,36.5-66.1,49.1
		c-15.3,7.7-31.1,14.4-46.6,21.6c4,8.6,8,17.3,12.2,26.4c5.5-2.1,11.2-4.3,17-6.3c19.4-7,39.2-9.2,59.5-5.3c3,0.6,5.1,0,7.6-2.1
		c22.4-19.9,45.2-39.6,71.4-54.4c15.5-8.8,31.4-17.5,49.2-20c30.6-4.4,57.9,5.2,83.1,21.8c5.5,3.7,10.3,8.4,15.7,12.3
		c3.9,2.9,4.5,6.5,3.4,11c-7.8-6-15.2-12.2-23.1-17.6c-21.3-14.6-44.6-22.7-70.8-21.7c-14.2,0.6-26.9,6.2-39.4,12.1
		c-26.3,12.4-48.9,30.3-71.1,48.8c-4.7,3.9-9.3,8-14.1,12.3c7.1,3.2,14.1,5.9,20.8,9.3c10.1,5.1,19.9,10.8,30,16
		c1.6,0.8,4.4,1.3,5.9,0.5c36.4-20.5,73.9-19.5,112-5.9c15.2,5.4,30.1,11.5,45.3,17.1c4.8,1.8,5.8,4.8,4.5,9.7
		c-2.4-1.1-4.8-2.2-7.1-3.3c-23-10.7-46.8-19.4-71.7-24.5c-27.1-5.5-53.1-2.1-77.3,11.7c-6,3.4-10.5,3.5-16.8,0
		c-14.4-8.2-29.1-16.6-44.6-22.2c-24.3-8.8-49.1-7.3-73.3,2c-4.8,1.9-9.6,3.6-14.9,5.6c4.6,20.4,7,40.8,0.7,61.7
		c27.1,1.8,53.3,5.6,77.3,20.7c0-3.5-0.2-6.3,0-9c0.6-7.9,2.4-15.9,9.5-20c7.2-4.2,15.4-7.8,23.6-9c11.6-1.7,19.8,5.2,25.3,15.2
		c1.5,2.7,2.8,5.8,3.4,8.8c0.7,2.9,2.3,4,4.7,5.6c3.3,2.3,6.9,5.7,8.1,9.4c4,11.9,3.6,23.6-4.9,33.9c-1.4,1.7-2.6,3.5-3.6,5.4
		c-4.5,8.1-10.9,13.4-20.4,13.5c1.8,13.1,3.6,26,5.5,39.4c14.6-0.1,23.3,9.5,29.4,22.1c11.4,23.6,21.2,47.8,25.8,73.7
		c3.1,17.1-7,28.3-24.4,28.8c-14.3,0.5-24.5-6-31.6-18c-6.5-10.9-10.1-22.7-13-34.9c-2.6-11.1-2.8-11-13.3-8
		c-2.4,0.7-4.9,1.2-7.3,1.7c-2.4,0.5-4.8,1-8.1,1.6c2.7,7.2,5.4,13.9,7.8,20.8c3.5,10,7,20,10,30.2c0.9,2.9,0.4,6.3-0.1,9.4
		c-1.6,10.1-8.9,15.3-19.3,14.5c-13.5-1.1-24.2-7.1-30.6-18.8c-5.8-10.6-10.3-21.9-14.9-33.1c-1.5-3.8-2.8-5.7-7.3-5.3
		c-15.3,1.3-27.1-4.9-36.1-17.2c-1-1.4-3.5-2.6-5.3-2.4c-23.3,1.9-45.8-2.2-67.8-9.5c-2.1-0.7-5.2-0.4-7.2,0.7
		c-15.6,8.9-31,18.1-46.6,27.2c-8.1,4.7-16.7,6.1-26,3.4c-14.4-4.2-21.1-16.4-16.4-30.7c4-12.3,12.8-21.2,22-29.8c1.1-1,2.2-2,3.3-3
		C400.2,556.7,400.2,556.6,400.3,556.1z M725.3,643.8c0.4-3.9,1.2-6.8,0.7-9.4c-1.3-7.8-2.3-15.9-4.9-23.3
		c-6.4-17.7-13.3-35.1-20.7-52.4c-3.6-8.4-9.1-15.6-18.8-18c-3.3-0.8-6.4-1.1-6.7,3.9c0,0.9-2.1,2.3-3.3,2.5
		c-0.6,0.1-2.2-1.8-2.4-2.9c-0.3-2.6,0.3-5.3,0-8c-1.2-11.7-1-23.9-4.2-35c-8.8-30.4-29.6-50.6-58.3-63.1
		c-17.7-7.8-36.4-10.1-55.5-11.6c-3.6-0.3-5.4,0.7-6.9,3.8c-10.7,21.5-27.8,36.3-49.4,46.1c-24.4,11-49.8,12.7-75.8,8.1
		c-7.1-1.3-14.2-2.8-21.3-4.2c-3.8,19.3,4.8,48.1,18,60.6c0.8,0.7,3.2,0.7,4.1,0c4.4-3.3,8.6-6.8,12.7-10.5
		c3.6-3.3,6.6-7.1,10.3-10.2c1.4-1.1,4-0.7,6.1-1c-0.5,1.9-0.4,4.3-1.5,5.5c-6.5,6.6-13.1,13.3-20.1,19.4
		c-9.9,8.6-20.6,16.4-30.3,25.2c-7.8,7.1-13.9,15.8-16,26.5c-0.7,3.5,0.3,7.2,0.5,10.9c0.5,0,1.1-0.1,1.6-0.1
		c0.2-0.8,0.2-1.7,0.6-2.4c2-3.6,3.7-7.3,6.2-10.5c0.6-0.9,3.4-0.1,5.2-0.1c-0.3,1.4-0.3,3-0.9,4.3c-0.9,1.9-2.5,3.6-3.4,5.5
		c-4,8-3.1,9.9,5.8,11.4c0.2,0,0.6-0.3,1.1-0.6c-0.1-6.3,1.5-12.5,6.6-16.9c1.4-1.2,4.3-0.8,6.5-1.2c-0.4,1.9-0.5,3.9-1.3,5.6
		c-2.2,4.2-4.7,8.3-7.1,12.4c0.5,0.5,1.1,1,1.6,1.5c4.8-2.2,9.7-4.2,14.2-6.8c11.9-6.8,23.7-13.6,35.3-20.8
		c20.4-12.7,39.9-26.3,49.8-49.6c0.7-1.6,3.5-2.2,5.3-3.3c0.4,2,1.6,4.4,0.9,5.8c-2.5,5.2-5.1,10.6-8.8,15
		c-7.8,9.4-16.3,18.3-24.4,27.3c34,12.2,69.1,10.5,104.8,1c-1.9-2.3-3.3-3.9-4.7-5.6c-15.3-19.3-17.7-51.8-5.1-70.5
		c1.3-1.9,4.3-2.7,6.6-4c-0.3,2.3,0,5-1,6.8c-5.7,10.1-7.5,20.8-6.9,32.3c1.2,23.5,16.4,43.8,37.4,48.1c16.2,3.3,32.5,3.1,48.2-3.2
		c7.5-3,8.9-2.2,11.3,5.7c2.8,9.2,4.9,18.8,8.5,27.7c3.2,7.9,7.7,15.4,12.3,22.6c1.8,2.8,5.6,4.4,8.5,6.6c-1.2-3.9-3.3-6.7-4.5-9.9
		c-0.6-1.4,0.6-3.5,0.9-5.3c1.3,0.9,2.9,1.6,3.9,2.7c2.8,3,5,6.7,8.1,9.3c6.1,5,10.7,4.5,17-1.3c-1.8-0.7-3.8-0.9-5.1-2
		c-3.8-2.9-7.5-5.8-10.8-9.2c-0.9-0.9-0.2-3.3-0.2-5c1.6,0.4,3.5,0.4,4.6,1.3C714.9,635.1,719.6,639.1,725.3,643.8z M340.6,411.2
		c0.3,3,0.5,5.3,0.9,7.6c3.4,17.9,14.7,30.3,29.3,39.3c38.5,23.9,79.4,29.1,121.7,11.3c27.7-11.7,46.9-31.8,51.8-62.5
		c5.1-31.3-2.8-59.5-21.7-85.2c0.6-0.3,1.7-0.9,2.9-1.4c8.8-3.5,17.7-6.8,26.4-10.6c25.4-11,50.1-23.5,71.6-41.3
		c15.7-13,29-28,36.3-47.5c3.9-10.5,0.3-16.5-10.7-17c-8.1-0.4-16.4-0.3-24.4,0.7c-35.4,4.4-64.9,21.3-90.9,44.6
		c-16.7,15-30,32.5-36.4,54.5c-0.4,1.3-2.6,2.2-4,3.2c-0.9-1.5-2.8-3.1-2.7-4.4c0.4-3-0.2-4.5-3-5.8c-20.6-9.5-42.1-12.2-63.8-6
		C391.7,300,369,320,359.3,353c-2.3,7.7-4.9,15.1-9.5,21.8c-2.7,4-4.3,8.8-6.5,13.5c3.4,1.4,6.3,2.1,8.6,3.7c1.4,1,2.1,3.1,3.1,4.7
		c-1.8,0.5-3.6,1.6-5.3,1.4c-2.4-0.3-4.7-1.6-7.5-2.6c-0.5,3.3-0.9,6.1-1.4,9.5c4.2-0.3,7.7-0.8,11.1-0.6c1.4,0.1,2.7,1.6,4,2.5
		c-1.2,1.1-2.3,2.9-3.7,3.2C348.6,410.8,344.9,410.8,340.6,411.2z M438.6,280.3c9.8,1,19.9,2.2,29.9,3c1.3,0.1,3-1.2,4-2.3
		c12.9-13.7,25.9-27.3,38.3-41.4c17.8-20.2,32.4-42.3,39.4-68.7c1.4-5.4,1.6-11.2,1.6-16.7c0-4.2-2.7-6.7-7.3-6.3
		c-2.3,0.2-4.6,0.5-6.9,1.1c-12.3,3.1-23.2,9-33.2,16.7C466.5,194.9,444.4,233.3,438.6,280.3z M391.3,503.2
		c-21.8,7.5-43.1,14.4-60.7,28.8c-4.4,3.6-7.8,8.6-10.7,13.5c-1.6,2.8-1.5,6.6-2.2,10.4c4-4.2,7-8,10.7-10.8
		c1.6-1.2,4.7-0.4,7.1-0.5c-1.2,1.8-2.1,4.1-3.7,5.4c-4.6,3.4-7.9,7.3-8.8,13.5c2.4,0.9,4.5,1.7,6.7,2.5c0.8-1.9,1.2-3.4,2.1-4.5
		c1.9-2.4,3.8-5.1,6.3-6.8c1.1-0.8,3.6,0.5,5.4,0.8c-0.6,1.5-0.9,3.2-1.9,4.4c-1.7,2.2-3.9,4-6.4,6.6c11,0.9,64.6-15.1,75.2-22
		C399.7,533.1,393.6,519.5,391.3,503.2z M696.3,451.6c-0.6-2.4-1.4-6.4-2.7-10.3c-0.4-1.2-1.9-2.8-3-2.8c-7.6-0.1-9.1-5.2-10.3-11.2
		c-1.7-8.9-6.8-15.1-15.6-17.8c-4.2-1.3-8.1-1.3-11.1,3c-0.7,1.1-3.1,1.5-4.7,1.4c-7.5-0.5-11.5,1.8-14.6,8.6
		c-3.2,6.9-2.7,13.9-1.1,21c0.2,1,1.1,2.1,1.9,2.7c13.3,10.5,23.2,23.7,31.2,38.6c0.9,1.6,4,3,5.9,2.8c6.7-0.7,11-5,13.8-11
		c0.8-1.8,1.4-4.1,2.9-5.1C695.2,467,695.7,460.3,696.3,451.6z M551.4,598.2c0.5,0.7,0.8,1.3,1.2,1.8c8.2,9.9,19.3,12.7,31.4,11.9
		c4.6-0.3,6.4,1.3,7.9,5.4c3.4,9.4,6.8,18.8,11.2,27.7c3.2,6.6,8,12.4,12.1,18.5c1.7-2.9,2.8-4.9,4.1-7.1c13,13.9,16.8,15.4,23,9.3
		c-7.5-2.4-12.7-7.4-16.1-14c-0.9-1.7-0.8-5.4,0.3-6.3c2.6-2.2,3.7,0.9,5.1,2.7c3.9,4.9,8,9.8,12.7,15.5c2.9-8.6,1.6-15.3-0.8-21.7
		c-4.5-12-9.5-23.7-13.9-35.8c-1.6-4.3-3.9-6-8.4-6.1c-11.5-0.2-22.4-2.6-32.3-8.9c-1.2-0.7-2.9-1.4-4.1-1.1
		C573.7,592.7,562.8,595.4,551.4,598.2z"/>
	<path d="M786.4,758.4c11.2,3,14.3,12.6,6.4,20.6c-5.6,5.6-12.5,9.9-18.7,14.9c-3.9,3.2-7.4,6.7-11,9.9c0.9,1.3,0.9,1.5,1,1.5
		c21.2,7.2,27,19.7,26.2,44.3c-0.9,26.4-6.7,52.1-12.6,77.8c-0.4,1.6-0.7,3.2-0.9,4.3c8.7-0.5,17.2-1.6,25.7-1.4
		c5.5,0.1,11.1,1.8,16.6,3.3c1.1,0.3,1.8,2.5,2.6,3.8c-1.6,0.7-3.5,2.2-4.8,1.8c-26-7-48-0.3-66.4,18.9c-3.8,3.9-6.2,3.5-9.2-1.1
		c-6.9-10.7-17.5-16.7-28.9-21.1c-13.8-5.3-28-5.1-42.3-1.9c-1.8,0.4-5.4-0.3-5.8-1.4c-1.3-3.3,1.9-4,4.3-4.7
		c12.1-3.2,24.3-3.3,36.6-0.9c1.4,0.3,2.8,0.6,4.8,1.1c-1.9-10.4-4.2-20.2-5.4-30.2c-2.2-18.3-3.9-36.7-5.2-55.1
		c-0.4-5.2,0.9-10.7,2.3-15.7c3.4-12.3,13-18.5,24.1-22.7c3.5-1.3,4.5-2.7,3.9-6.5c-1.6-9.2-6.3-16.3-13.7-21.9
		c-6.1-4.6-12.2-9.3-17.9-14.4c-6-5.4-10.6-12-12.3-20.1c-2.6-12,4.7-20.4,16.8-18.5c5.1,0.8,9.9,3.5,14.8,5.5
		c1.5,0.6,2.8,1.6,3.8,2.3c0-6.4-0.1-12.7,0-18.9c0.1-7.3,2.2-14.1,6.5-20.1c5.7-7.7,13.7-8.7,21.3-2.8c8.1,6.3,10,15.4,10.8,24.9
		c0.5,5.1,0.7,10.2,1.1,15.5c3.2-3.6,5.9-7.3,9.3-10.4c2.8-2.5,6.1-4.8,9.5-6.2c9.2-3.8,18.1,1.6,19.4,11.5c1.2,9.6-1.7,18.1-7,25.9
		C790.4,752.9,788.5,755.4,786.4,758.4z M711,899.6c1.6,7.7,3.3,14.5,4.4,21.4c1.1,6.6,3.6,11.6,10.5,14.2c4.1,1.5,7.5,4.8,11.1,7.6
		c3.5,2.7,6.7,5.8,9.7,8.3c5.7-4.1,10.6-8.6,16.3-11.4c7.1-3.5,7-9.4,8.1-15.8c-5.8-0.3-11.1-0.2-16.4-0.9c-1.6-0.2-3.1-2.1-4.6-3.3
		c1.7-0.9,3.3-2.6,5-2.7c5-0.3,10,0.2,15-0.2c1.4-0.1,3.5-1.9,3.8-3.2c2.3-10,4.3-20.1,6.3-30c-6.9,0-13.4,0-19.8,0
		c-2.4,0-5.4,0.9-5.5-3.1c-0.1-3.7,2.7-3.6,5.3-3.5c6.9,0,13.9,0,21.4,0c1-11.3,2-21.8,3-33c-3.8,0.3-6.5,0.6-9.3,0.6
		c-5.6,0-11.3-0.2-16.9-0.5c-0.9-0.1-1.7-1.5-2.6-2.3c0.9-0.9,1.6-2.2,2.7-2.6c1.3-0.5,3-0.2,4.4-0.3c6.8-0.3,13.5-0.7,20.3-1
		c0.2-11.2-5-19.5-15.3-24.1c-10.8-4.7-22.2-5.6-33.8-4.3c-3.9,0.4-7.8,1.8-11.2,3.7c-13.9,7.7-19.2,20-16.6,37.3
		c9.5,0.6,19.1,1.3,28.6,1.9c0.8,5.5,0,6.4-4.9,6c-7.9-0.6-15.7-1.2-24.2-1.9c1.6,12.9,3.1,24.9,4.7,38.2c9.6,0,18.7-0.1,27.9,0.1
		c1.2,0,3.2,0.9,3.4,1.7c0.2,1.2-0.5,3.2-1.5,3.8c-1.4,0.8-3.4,1-5.1,0.9C727.2,900.9,719.4,900.2,711,899.6z M752.2,802.9
		c0.4,0.5,0.7,1,1.1,1.5c1.4-1,3.1-1.8,4.3-3c3.3-3.5,6.1-7.5,9.6-10.7c4.5-3.9,9.7-7.1,14.3-10.8c2.7-2.2,5.2-4.7,7.3-7.4
		c0.9-1.2,1.5-3.8,0.8-4.9c-0.6-1.1-3.1-1.8-4.7-1.6c-3.3,0.4-6.4,1.9-9.6,2.3c-1.5,0.2-4-0.3-4.6-1.3c-0.7-1.1-0.2-3.5,0.6-4.9
		c0.7-1.4,2.5-2.1,3.6-3.4c4.7-5.3,10.1-10.3,13.7-16.3c2.6-4.3,3.8-10,4-15.1c0.3-7.4-5.8-10.9-12.2-7.2c-3.6,2.1-7.1,5.1-9.6,8.5
		c-3.4,4.7-5.9,10-8.4,15.2c-1.4,2.9-2.6,6.5-6.4,5.8c-4.1-0.8-2.5-4.6-2.6-7.5c-0.3-11.6-0.4-23.3-1.5-34.8
		c-0.4-4.1-3.1-8.4-5.9-11.7c-4.2-5.1-10.5-4.6-13.6,1.3c-2.4,4.4-4.2,9.7-4.2,14.6c-0.1,9.9,1.1,19.9,1.8,29.8
		c0.2,2.6,1.3,5.9-2.4,6.3c-1.5,0.2-3.8-1.9-4.8-3.6c-4.9-7.8-11.6-12.8-20.5-14.7c-6.2-1.3-11.5,3.5-9.7,9.6
		c1.5,5.1,3.9,10.4,7.3,14.5c4.3,5.2,9.7,9.6,15.3,13.5c11.5,8.1,20.2,17.8,21.3,32.6c0.1,1.1,1.6,2,2.8,3.4c0-14.1-0.1-26.9,0-39.7
		c0.1-7.5,0.5-15,1.1-22.4c0.1-1.5,2.2-2.8,3.3-4.2c0.8,1.5,1.7,2.9,2.3,4.4c0.3,1,0.1,2.3,0.1,3.5c0,18.9,0,37.8,0,56.8
		c0.4-0.9,0.8-1.9,1.1-2.9c2.6-8.1,4.9-16.2,7.8-24.2c0.6-1.6,2.9-2.5,4.5-3.8c0.4,1.8,1.5,3.9,1.1,5.5
		C757.9,784.8,755,793.8,752.2,802.9z"/>
	<path d="M447.1,878.9c-2.7-13.7-6-28.4-8.5-43.3c-2.7-16.4-4-33-2.9-49.8c1.1-16,7.6-27.4,23-32.8c5.2-1.8,5.7-5,3.2-8.6
		c-3.1-4.6-6.8-9-11-12.5c-4.8-4-10.6-6.8-15.9-10.3c-6.5-4.3-12.2-9.3-15.5-16.6c-2.7-5.9-2.8-11.6,1.5-16.9
		c4.2-5.2,9.9-6.2,15.8-4.5c5,1.4,9.7,3.9,13.6,5.5c-0.8-8.9-2.3-18.6-2.4-28.3c-0.1-4.6,1.8-9.5,3.8-13.8c3.1-6.5,8.9-8.4,15.5-5.6
		c11.2,4.6,15.7,14.3,18.4,25.2c0.5,1.9,0.7,3.9,1.2,6.2c4-4.3,7.5-8.7,11.7-12.2c3.6-3,7.9-5.8,12.4-7c10.8-3,19.7,4.1,20,15.3
		c0.2,8.7-3.1,16.2-8,23.2c-1.3,1.9-2.8,3.7-4.2,5.6c0.6,0.3,0.9,0.5,1.2,0.6c6.1,0.9,11.6,3.1,13.3,9.6c1.8,6.7-1.6,12.2-6.5,16.3
		c-3.9,3.3-8.5,5.8-13,8.4c-8,4.6-14.6,10.4-17.2,19.7c0.3,0.3,0.5,0.7,0.7,0.8c18.3,5.4,26,15.5,26.4,35.1
		c0.4,19.8-3.3,39.1-7.3,58.4c-2.2,10.6-5.1,21-7.8,31.8c3-0.8,6.3-1.7,9.6-2.4c9.2-2.1,18.5-2.6,27.7-0.1c1.9,0.5,4.7,3.1,4.6,4.4
		c-0.3,3.5-3.3,3.1-6.2,2.5c-16.5-3.8-31.3,0.5-45.2,9.2c-7.1,4.4-14,8.9-18.6,16.3c-1.8,2.8-4.6,2.9-7,0
		c-16-19.9-36.4-27.6-61.5-22.6c-1.5,0.3-3.2-0.5-4.7-0.8c1-1.9,1.5-4.7,3.1-5.5c2.8-1.3,6.1-1.9,9.2-1.8
		C429,877.5,438.3,878.3,447.1,878.9z M517.6,798.9c-2.9,0-4.7,0-6.5,0c-6,0-12,0.2-18-0.1c-1.2-0.1-2.3-1.7-3.5-2.6
		c1.2-1.1,2.2-2.5,3.6-3.1c1.3-0.5,3-0.1,4.5-0.1c6.4-0.2,12.8-0.3,19.1-0.5c0.8-17.1-4.6-27.1-17.3-32.1c-13.1-5.2-26.4-5-39.5-0.2
		c-7.4,2.7-13.8,7.3-15.4,15.7c-1.5,7.8-2.1,15.7-3.3,24.7c8.7,0.5,16.2,0.8,23.8,1.3c1.2,0.1,2.2,1.4,3.3,2.1
		c-0.8,1.1-1.5,3-2.5,3.2c-3.1,0.6-6.3,0.8-9.4,0.7c-4.7-0.1-9.5-0.6-14.9-1c1.9,14.6,3.7,28.2,5.6,42.3c10.3,0.9,20.1,1.6,29.8,2.7
		c1.7,0.2,3.2,1.7,4.8,2.6c-1.7,1.2-3.3,3.4-5.1,3.5c-3.9,0.3-8-0.3-11.9-0.7c-5.2-0.5-10.3-1.1-16.4-1.8c2.7,9.4,4.9,17.8,7.4,26
		c0.4,1.5,1.4,3.1,2.7,4c6.1,4.5,12.4,8.8,18.9,13.3c2-1.6,4.1-4.2,6.9-5.5c13.5-6.3,18.5-18.2,21.5-31.5c0.1-0.3,0.2-0.6,0.2-1
		c2-8.5,3.9-16.9,6-26c-2.7,0.2-4.3,0.4-5.9,0.5c-6.2,0.2-12.3,0.4-18.5,0.2c-1.3,0-2.6-1.8-3.9-2.7c1.2-1.2,2.3-2.6,3.8-3.4
		c1.1-0.5,2.6,0,3.9,0c6-0.1,12-0.1,17.9-0.6c1.4-0.1,3.6-1.9,3.8-3.2C514.9,817.1,516.1,808.4,517.6,798.9z M487.3,751.1
		c1.3-0.4,2.1-0.5,2.7-0.9c0.5-0.4,0.7-1.1,0.9-1.7c3.2-10.4,10.7-16.9,19.7-22.3c4.6-2.7,9.2-5.5,13-9c2-1.8,3.9-6.5,2.9-8.1
		c-1.4-2.2-5.4-3.5-8.4-3.7c-3.5-0.1-7,1.6-10.6,2.2c-2,0.3-4.1-0.2-6.2-0.3c0.9-1.8,1.5-4,2.9-5.5c5-5.7,10.9-10.8,15.2-17
		c2.8-4,4.2-9.4,5-14.4c1.2-7.3-3.4-11.8-10.6-10.4c-3.9,0.7-8,2.8-10.9,5.5c-6.7,6.3-12.2,13.7-13,23.5c-0.1,1.3-0.2,2.9-1,3.8
		c-1.1,1.3-2.7,2.7-4.2,2.8c-0.9,0-2.6-2.3-2.8-3.7c-0.9-6.4-1.2-12.9-2-19.4c-1.1-8.8-3.5-17-11.1-22.6c-6.3-4.7-11.5-3.4-12.9,4.3
		c-1.2,6.4-1.2,13.3-0.3,19.8c1.3,9.2,4.1,18.2,6,27.3c0.3,1.6-0.9,3.5-1.4,5.2c-1.8-0.6-3.7-0.9-5.2-1.8c-1.1-0.6-1.6-2-2.5-3.1
		c-4.4-5.5-10-9.2-16.8-11.1c-3.6-1-7.1-1-9.7,2.1c-2.6,3.1-1.9,6.7,0,9.8c1.8,3,3.8,6.1,6.4,8.1c5.6,4.4,11.6,8.3,17.7,12.1
		c9.9,6.1,18.2,13.4,20.9,25.5c0.2,0.9,1.6,1.5,2.4,2.3c0.7-3,0.4-5.3,0.1-7.5c-1.8-13.2-3.7-26.4-5.5-39.6
		c-0.4-2.7-0.3-5.3,3.1-5.7c3.5-0.4,3.5,2.4,3.8,4.7c1.5,13.2,2.9,26.5,4.3,39.7c0.3,2.6,0.7,5.2,1.1,7.8c0.4,0,0.9,0,1.3-0.1
		c0.2-2.1,0.4-4.1,0.6-6.2c0.6-7.3,1-14.6,2.1-21.9c0.3-1.9,2.6-3.5,4-5.3c0.8,1.8,2,3.4,2.4,5.3c0.4,1.7-0.1,3.6-0.3,5.5
		C489.4,734.9,488.4,742.8,487.3,751.1z"/>
	<path d="M233.3,837.1c-3-12.8-6.5-24.8-8.5-37.1c-2-12.3-3.5-24.8-3.6-37.2c-0.2-22.8,6.8-32.2,29.3-40.9c-3.4-3.1-6-6.1-9.3-8.2
		c-4.2-2.7-8.9-4.6-13.2-7c-2.4-1.4-4.8-3-6.9-4.9c-7.5-6.5-6.5-12.9,1.5-17c-3.1-3.6-6.6-7.4-9.9-11.4c-4.5-5.3-7.9-11.2-7.8-18.5
		c0.1-9.9,6.9-15.3,16.6-12.8c3.3,0.8,6.5,2.5,9.5,4.2c2.9,1.6,5.4,3.8,8.9,6.3c-0.6-3.7-1.4-6.6-1.4-9.6c0.2-7.1,0-14.3,1.4-21.2
		c1.5-7,6-12.2,14.1-12.7c7.1-0.4,14.9,3.7,17.5,10.9c2.5,7,3.6,14.5,5.2,21.8c0.5,2.2,0.6,4.6,1,7.5c3.6-3.3,6.6-6.4,9.8-9.2
		c5.3-4.5,11.3-6.8,18.4-6.5c8,0.4,13.4,5.4,14,13.4c0.8,10.8-5,18.6-12.3,25.6c-1.5,1.5-3.3,2.7-4.2,3.5c2.5,3.2,6.8,6.4,6.6,9.4
		c-0.3,4.5-3,9.3-5.9,13.1c-2.5,3.3-6.5,5.6-10.1,8c-5.7,3.7-9.4,8.8-12.3,14.7c0.4,0.3,0.7,0.6,1,0.7c22.1,5.5,26.2,19.5,26.7,36.3
		c0.8,26.6-5.5,52.2-12.9,77.5c-0.5,1.8-1.1,3.7-1.6,5.1c9.6-1.4,19.1-3.1,28.6-4c4.2-0.4,8.6,0.3,12.8,1.2c1.5,0.3,3.9,2.9,3.7,4.1
		c-0.4,2.7-2.5,3.4-5.7,2.8c-23.1-4-43.1,2.5-59.8,18.7c-5.1,4.9-5.2,4.9-9.8-0.4c-9.2-10.6-21.5-16-34.7-19.6
		c-10.1-2.7-20.3-3-30.4,1.1c-1.6,0.7-3.9-0.5-5.9-0.9c1.2-1.9,2.1-5.3,3.6-5.6c7.9-1.5,16-2.5,24.1-3.1
		C225.4,835.3,229,836.5,233.3,837.1z M271,856.6c1.9-1.5,4.7-3.6,7.4-5.8c2.3-1.8,5.7-3.2,6.9-5.6c5.8-12,9.6-24.6,11.9-38.4
		c-8.8,0-17.1,0.1-25.4-0.1c-1.3,0-2.5-1.4-3.8-2.2c1.1-1.3,1.9-3.1,3.3-3.9c1.1-0.7,2.9-0.4,4.4-0.4c5.5-0.1,11-0.4,16.5-0.1
		c5.2,0.2,8.1-1.5,8.2-7.1c0.1-2.8,1.1-5.6,1.4-8.4c0.7-7.2,1.2-14.4,1.7-21.6c-3.5,0-5.8,0-8.1,0c-6.1,0-12.3,0.2-18.4,0
		c-1.1,0-2.1-1.5-3.1-2.2c1-1,1.8-2.7,2.9-2.9c3.6-0.6,7.3-0.7,10.9-1c4.9-0.4,9.8-0.9,14.9-1.4c-1.1-11.6-4.4-21.2-15.8-25.1
		c-14.4-4.9-28.9-4.9-42.8,1.7c-7.2,3.4-13,8.6-14.6,16.7c-1.3,6.9-1.3,14.1-2,21.6c8.6,0.4,16.2,0.7,23.9,1.4
		c1.4,0.1,2.6,1.6,4,2.4c-1.3,1.3-2.5,3-4.1,3.8c-1.2,0.6-2.9,0.1-4.4,0c-6.1-0.4-12.2-0.8-19.5-1.3c2.6,13.1,5,25.5,7.7,37.7
		c0.3,1.3,2.4,2.8,3.9,3.1c5,1,10.2,1.3,15.3,2.1c1.4,0.2,2.7,1.5,4.1,2.2c-1.4,1.4-2.6,3.3-4.3,4c-1.5,0.6-3.6-0.3-5.4-0.5
		c-3.7-0.5-7.3-1-11.6-1.6c1.5,5,2.6,9.2,4.1,13.2c0.6,1.7,2.1,3.4,3.6,4.3C253,846.4,261.7,851.2,271,856.6z M272.6,720.5
		c0.5,0.1,1,0.3,1.5,0.4c0.4-0.5,1-0.8,1.2-1.4c3.9-9.5,10.6-16.3,19.1-21.8c2.9-1.8,5.3-4.5,7.6-7.2c0.9-1,1.3-3.3,0.7-4.4
		c-0.6-1.1-2.6-1.6-4.1-2c-0.9-0.3-2,0.4-2.9,0.2c-2.2-0.5-4.3-1.2-6.5-1.9c1.3-1.7,2.3-3.7,3.9-5c8.3-6.8,16.6-13.5,20.1-24.2
		c1.4-4.1,1-7.9-2.5-10.9c-3.4-2.9-7.2-3.2-11.2-1.3c-8.7,4.1-15.7,9.9-19.9,18.8c-1.2,2.6-3,4.9-4.6,7.4c-0.5-0.1-1-0.1-1.4-0.2
		c-0.5-1.8-1.4-3.5-1.6-5.3c-0.5-5.1-0.4-10.4-1.2-15.4c-1.3-7.8-2.7-15.7-5-23.3c-1.6-5.1-6.5-7-11.6-7c-4.7,0-6.5,4-7.7,7.4
		c-1.3,3.8-2,8.1-1.9,12.1c0.1,5.1,1.3,10.2,2.1,15.3c0.6,3.8,1.7,7.5,2,11.3c0.1,1.9-1.1,3.8-1.7,5.8c-1.7-0.8-3.6-1.3-4.9-2.4
		c-2-1.7-3.4-4.2-5.4-5.8c-4.8-3.7-9.6-7.8-15.1-10.4c-6-2.9-10.7,0.9-9.3,7.4c0.9,4.2,2.9,8.7,5.8,11.8c5.2,5.6,11.5,10,17.1,15.2
		c1.7,1.6,3.6,4.2,3.4,6.2c-0.4,3.6-3.7,2.7-6.4,2.4c-2.9-0.3-5.9-0.1-8.9-0.1c-0.4,0.8-0.8,1.6-1.2,2.4c1.6,0.9,3.1,1.9,4.7,2.8
		c4.3,2.5,8.5,5.2,13,7.4c6.6,3.3,12.3,7.2,15.6,14.2c0.6,1.2,2.4,1.7,4.1,2.9c-0.4-19.7-0.9-38.2-1.2-56.6
		c-0.1-2.6-1.8-6.3,2.4-6.8c1-0.1,3.4,4.2,3.6,6.5c0.8,16.3,1.3,32.6,1.8,48.9c0.1,1.6,0,3.2,0,4.9c3.1-9.1,5.7-18,8.5-26.8
		c0.4-1.2,2.2-2,3.3-3c0.8,1.6,2.1,3.2,2.3,4.9c0.2,1.5-0.8,3.2-1.3,4.8C276.6,705.9,274.6,713.2,272.6,720.5z"/>
	<path d="M763.9,480.9c-0.5-8.8-4.7-15.8-10.6-22.3c-6.2-6.9-12-14.2-17.5-21.6c-1.9-2.5-2.8-6.1-3.3-9.3c-1.5-9.3,5-15.3,14.2-12.9
		c4.4,1.2,8.4,3.7,12,5.4c0.7-6.6,1.4-13.7,2.3-20.8c0.3-1.9,1.1-3.8,1.9-5.7c3-7.3,8.9-8.9,15.2-4.1c7.2,5.5,10.3,13.3,11.1,22.1
		c0.2,1.8,0,3.6,0,5.4c0.6,0.5,1.2,0.9,1.7,1.4c0.6-1.3,0.9-3,2-3.8c3.8-2.8,7.6-6.1,12-7.9c8.5-3.5,16.7,2.2,17.2,11.4
		c0.5,8.5-2.8,16-7.3,22.9c-1.4,2.2-1.8,3.6-0.3,6.1c3.1,5.1,1.6,12.2-3.8,17.2c-3.4,3.1-7.6,5.3-11.4,7.9c-2,1.4-4.3,2.7-5.9,4.5
		c-3.5,3.8-3,5.7,1.6,8.1c9.5,4.8,14.1,12.9,15.1,23.1c1.3,14.2-2.6,27.8-5.8,41.3c-2,8.2-4.6,16.3-7,24.7c4.8-1.2,9.6-3.2,14.3-3.2
		c6.2,0,12.4,1.4,18.5,2.7c0.9,0.2,2.2,3.4,1.7,4.1c-0.9,1.3-3.4,2.7-4.5,2.3c-16.6-6.3-29.9,1-42.6,10.1c-4,2.9-5.5,2.3-9.4-0.4
		c-12.4-8.9-26.1-14.5-42-10.6c-1.8,0.4-5.3,0-5.7-1.1c-1.5-3.2,1.2-5,3.9-5.5c5-1,10.1-1.5,15.5-2.2c-1.3-5.9-3-12.2-4.2-18.7
		c-2.6-14.1-5.7-28.1-3.9-42.6c1.8-14.3,9.2-23.6,23.4-27c0.5-0.1,0.9-0.4,1.4-0.6C763.5,481.3,763.6,481.1,763.9,480.9z
		 M745.1,534.3c3.2,12.2,5.8,23.3,9,34.3c0.6,2.1,3,4.3,5.1,5.3c7,3.3,14.3,6.1,22.2,9.4c7.6-3.9,10-11.8,11.5-20.7
		c-4.4-0.2-8.6-0.2-12.6-0.8c-1.3-0.2-2.4-2-3.6-3c1.3-0.9,2.6-2.5,4-2.6c4.7-0.3,9.5-0.1,15.1-0.1c2.6-11.3,5.2-22.7,7.9-34.8
		c-6.4-0.3-11.9-0.5-17.3-1c-2.5-0.2-6.6,1.2-6.4-3.3c0.2-4.2,4.1-3,6.7-3.1c5.4-0.2,10.9-0.1,16.3-0.1c1.1-13.6-5.7-23.2-18.8-24.9
		c-6.9-0.9-14-0.9-20.9,0c-9,1.1-15.6,6.5-17.2,15.7c-1.3,7.6-1.2,15.4-1.8,24.5c7.3,0,13.2,0,19.2,0c2.5,0,5.5-0.3,5.3,3.5
		c-0.2,3.4-2.9,3.5-5.6,3.3C757.7,535.2,752.3,534.8,745.1,534.3z M809.7,453.5c-0.4-0.5-0.8-1-1.2-1.5c-2.2,0.5-4.4,1.3-6.6,1.3
		c-1.6,0-3.6-0.9-4.5-2.1c-0.5-0.6,0.6-3,1.6-4.1c1.4-1.6,3.4-2.7,5-4.1c6.9-6.2,11-13.8,11-23.2c0-7.1-4.6-9.6-10.6-5.8
		c-2.5,1.6-5,3.5-6.8,5.8c-3.1,3.9-5.5,8.3-8.5,12.2c-1.3,1.7-3.4,2.7-5.1,4c-0.7-2-1.8-4.1-1.9-6.1c-0.1-4.6,0.6-9.3,0.6-14
		c-0.1-7.3-1.7-14.2-6.8-19.9c-3.2-3.6-5-3.6-6.9,0.7c-1.5,3.5-3,7.4-2.7,11c0.5,8.9,2.2,17.7,3.1,26.6c0.2,2.1-0.6,4.4-1,6.6
		c-1.9-1.2-3.9-2.3-5.6-3.7c-1.1-0.9-1.5-2.7-2.6-3.6c-4.7-4.1-9.1-8.8-14.4-11.8c-4.7-2.7-7.9,0.3-6.5,5.6c0.9,3.3,2.2,6.8,4.3,9.4
		c4.4,5.6,9.1,11,14.2,16.1c6.6,6.6,10.9,14.2,12.6,23.3c0.3,1.6,0.8,3.2,1.3,4.8c0.5-0.1,1-0.2,1.4-0.2c0.1-1.5,0.2-3.1,0.3-4.6
		c0.7-10,1.3-19.9,2.2-29.9c0.1-1.4,1.9-2.6,3-3.9c1,1.3,2.1,2.5,2.8,4c0.4,1,0.1,2.3,0,3.5c-0.7,10.3-1.3,20.5-2,30.8
		c3.5,1.1,3.7,1.2,4.8-2c1.8-5.1,4.9-9,9.7-11.6c2.9-1.6,6-3,8.5-5.2C805,459.5,807.2,456.3,809.7,453.5z"/>
	<path d="M262,462.5c18.2,7.7,24.4,15.8,22.7,34.4c-1.8,19.7-6,39.1-9.1,58.6c-0.2,1.1-0.5,2.2-0.8,4.1c4.9,0,9.6-0.4,14.1,0.2
		c1.9,0.3,4.8,2.8,4.8,4.3c0.1,3.5-3.1,2.9-5.7,2.6c-15.3-1.8-28.7,2.8-40,13.1c-3.5,3.2-5.5,3.5-9.4,0
		c-12-10.6-25.8-16.3-42.2-13.1c-1.3,0.3-2.9-0.7-4.4-1.1c0.8-1.5,1.3-4.1,2.4-4.3c5-1,10.1-2,15.1-1.8c4.4,0.1,8.7,1.7,13.9,2.8
		c-1.4-5.8-2.8-11.4-4.1-17c-3.7-15.4-6.8-30.9-6.5-46.9c0-3,0.1-6,0.5-9c1.3-11.6,7.3-19.4,19.2-22.8c-2.1-7.6-5.3-14.2-10.6-19.7
		c-4.7-4.9-9.8-9.6-14-14.9c-2.7-3.4-4.9-7.6-6-11.8c-2.5-9.8,4.6-16.5,14.3-13.8c3.3,0.9,6.3,2.8,9.6,4.3c0-4.4-0.3-9,0.1-13.5
		c0.3-4.3,0.8-8.7,2.1-12.7c2.8-8.8,11.1-10.8,18-4.5c5,4.5,6.6,10.6,7.9,16.9c0.5,2.4,0.9,4.9,1.4,7.9c2.8-2.3,5.2-4.5,7.9-6.4
		c4-2.8,8.5-4.1,13.1-1.4c4.9,2.9,7,7.5,6.4,13.1c-0.3,2.5-0.5,5-1.4,7.3c-1.9,5.1-3.1,9.6,0.8,14.7c1.3,1.7,0.3,6.3-1.2,8.7
		c-2.2,3.6-5.9,6.2-8.8,9.4C268.7,454.1,265.6,458.2,262,462.5z M275.2,524.6c-6.7,0-12.5,0.1-18.3-0.1c-1,0-2.7-1.1-2.8-1.8
		c-0.2-1,0.6-2.8,1.4-3.3c1.3-0.8,3.1-1.1,4.7-1.1c4.2-0.2,8.4,0.2,12.5-0.2c1.4-0.2,3.7-2,3.8-3.1c0.4-9.6,1.2-19.3,0.4-28.8
		c-0.7-9-7.8-15-16.6-16c-10.7-1.2-21.1,0.1-30.5,5.3c-3.4,1.8-6.8,5.3-8.1,8.8c-2,5.4-2.2,11.5-3.3,18.1c8.8,0,16.4-0.2,24,0.1
		c1.6,0.1,3,1.8,4.6,2.7c-1.5,1.3-2.8,3.3-4.4,3.7c-2.7,0.6-5.6,0.1-8.5,0c-4.6-0.2-9.2-0.5-14-0.8c-0.1,1.6-0.3,2.8-0.2,3.9
		c0.9,6.4,1.8,12.9,3,19.2c2.7,13.7,2.8,13.7,16.8,12.4c1.4-0.1,4,1.1,4.3,2.1c0.8,2.9-1.2,4.2-4.1,4.2c-4.1,0-8.3,0-12.7,0
		c1.7,11.1,5.8,19.8,15.3,23.8c7.7-4,14.8-7.5,21.7-11.3c1.5-0.9,3.3-2.5,3.7-4.1C270.4,547.1,272.7,536.1,275.2,524.6z
		 M251.9,462.3c0.4,0.4,0.9,0.8,1.3,1.3c1.1-1,2.7-1.8,3.1-3.1c2.2-7.2,6.9-12.3,12.6-17c2.9-2.4,5.1-5.6,8.2-9.1
		c-1.9-0.3-2.4-0.5-2.8-0.5c-2.5,0.2-5,0.5-7.5,0.7c0.8-2.7,1.6-5.5,2.5-8.2c0.3-0.9,1.3-1.6,1.6-2.5c1.7-5,3.7-9.9,4.7-15
		c0.3-1.7-1.3-4.7-2.9-5.7c-1.2-0.8-4.1,0.1-5.7,1.1c-5.6,3.7-8.8,9.3-11.1,15.6c-0.9,2.5-2.1,5-3.2,7.4c-0.7,0-1.4,0-2.1,0
		c-0.7-2.4-2-4.8-2.2-7.3c-0.7-7.8-0.3-15.7-1.6-23.3c-0.8-4.4-3.8-8.7-6.7-12.3c-2-2.5-5.1-1.7-5.8,1.9c-0.9,5-2.3,10.3-1.9,15.2
		c0.8,8.2,3,16.2,4.5,24.4c0.3,1.4-0.2,3-0.3,4.5c-1.8-0.4-3.9-0.3-5.3-1.2c-1.6-1.1-2.4-3.2-3.7-4.7c-2.6-3-5.1-6.2-8.1-8.7
		c-2.8-2.3-6.6-5.5-10.1-1.9c-3.2,3.3-0.9,7.4,1.5,10.4c4.5,5.5,9.1,11.1,14.3,16c6.4,6,10.4,13.2,13,21.5c0.3,1.1,0.8,2.1,1.3,3.3
		c2.2-0.4,4.1-0.8,6.5-1.2c0-8.4,0-16.6,0-24.7c0-2.7-0.8-6.6,3.2-6.6c3.8,0,2.8,3.8,2.8,6.3C251.9,446.7,251.9,454.5,251.9,462.3z"
		/>
	<path d="M426.2,117.9c11,1,18.8,6.2,23.8,15.2c7,12.6,1.4,27.3-12.4,31.2c-8.1,2.3-16.7,3.5-25.1,3.6c-55,0.6-109.9,1-164.9,1
		c-7.3,0-14.9-1.8-22-4c-8.8-2.7-12.4-10.4-10-19.5c3.2-11.6,11.2-17.7,22.8-19.4c7.8-29.6,28.3-41.8,54.2-32.4
		c4.8-25.3,19.4-39.2,43.3-41.2c23.1-2,37.3,9.2,47.4,37.5c10.3-5.3,20.8-5.8,30.9,0.1C424.7,96.1,427.2,106.2,426.2,117.9z
		 M333.3,163c0-0.4,0-0.9,0-1.3c25.8,0,51.7,0.3,77.5-0.2c8.2-0.1,16.6-1.6,24.6-3.6c7.7-1.8,11.1-7.6,10.6-15.4
		c-0.6-9.5-11.7-19.1-21.1-18.2c-8.2,0.7-8.2,0.7-6.2-7.2c0.1-0.5,0.3-1,0.4-1.5c1.8-9.1-1.9-17.1-9.8-20.9
		c-8.7-4.2-19.1-2.6-25,3.7c-1.8,2-4.1,3.5-6.1,5.2c-0.6-2.9-1.7-5.8-1.7-8.7c-0.1-17.3-11.3-31.4-27.6-35.2
		c-22.4-5.2-52.7,10.5-49.7,40.7c0.2,1.7-1.5,3.6-2.3,5.4c-1.4-0.9-3.3-1.4-4.2-2.7c-3.4-4.5-7.9-6.5-13.4-6.5
		c-17.9-0.2-32.5,12.8-33.9,30.6c-0.3,4.4-2,6-6.2,5.6c-0.8-0.1-1.7,0-2.5,0.1c-7.5,0.9-14.4,7.9-14.8,15.3
		c-0.4,7.1,2.7,10.5,12.8,12.1c8.2,1.3,16.5,2.3,24.8,2.4C284,163.2,308.7,163,333.3,163z"/>
	<path d="M657.7,116.6c7.2-28.2,25.7-43.1,51.5-42.1c27.6,1.1,44.2,17.5,49.4,48.9c10.7-4.6,21.3-4.5,31.8,0.7
		c11.3,5.6,15,14.9,13.2,26.9c3.4,1,6.5,1.7,9.3,2.9c5.6,2.3,8.7,6.7,9.3,12.6c0.5,5.9-2.4,10.8-7.6,13c-6,2.5-12.6,5.1-19,5.2
		c-24,0.6-47.9,0.3-71.9,0.1c-23-0.2-46-0.6-68.9-1.1c-6.3-0.1-12.7-0.5-18.9-1.6c-15.7-2.8-25.9-12.5-28.5-26.3
		c-2.5-13.7,4.3-28.3,17-36.2C634.9,112.9,646,112.3,657.7,116.6z M717.9,177c0,0.7,0,1.3,0,2c24.3,0,48.6,0.4,72.9-0.2
		c6.9-0.2,13.9-2.7,20.5-5.2c2.2-0.9,4.5-5.3,4.2-7.9c-0.2-2.3-3.6-4.9-6.2-6c-2.7-1.1-6.1-0.9-9.2-0.6c-3.7,0.4-5.2-0.8-4.5-4.6
		c0.4-2,1-3.9,1.3-5.8c0.6-5.4,0.8-11.1-4-14.7c-10.8-8.2-21.5-10.5-32.1-2.9c-1.5,1.1-2.9,2.3-4.5,3.1c-1.2,0.6-3.3,1.4-3.8,0.9
		c-1-1-1.5-2.8-1.5-4.2c0-3.8,0.9-7.7,0.5-11.4c-2.6-20.6-17.1-35.3-37.8-37.9c-24-3.1-49.2,11.8-49.4,39.6c0,5.3-2.5,6.6-7,3.6
		c-17-11.5-39.3,2-42.9,18.5c-2.8,12.7,1.9,24.3,13.7,29.5c5.9,2.6,12.8,4.1,19.2,4.2C670.9,177.3,694.4,177,717.9,177z"/>
	<path d="M171.4,363.6c-1.3-4.6,0.2-7,4.8-9c44.8-18.9,89.6-21.2,134.5-0.7c0.9,0.4,1.8,0.8,2.7,1.3c2.6,1.3,4.2,3.6,2.4,6
		c-0.9,1.1-4.4,1.6-5.9,0.8c-44.9-23.4-89.7-18.3-134.4,0.2c-1.1,0.4-2.1,1-3.2,1.4C172.1,363.7,171.7,363.6,171.4,363.6z"/>
	<path d="M309,954.2c-11.8-0.4-23.3,0.9-34.4,5c-1.3,0.5-3.3-0.9-5-1.4c0.8-1.5,1.4-4.1,2.6-4.5c8.5-2.3,17-5.1,25.6-5.9
		c14.6-1.4,29.3-0.1,43.4,4.5c1.5,0.5,2.6,2.4,3.9,3.6c-1.7,0.9-3.3,2-5.1,2.5c-1,0.3-2.3-0.3-3.4-0.5c-9.1-1.5-18.3-3.1-27.4-4.6
		C309.1,953.4,309,953.8,309,954.2z"/>
	<path d="M315.2,461.5c9.6,0.8,19.2,1.4,28.8,2.5c1.8,0.2,3.4,2.2,5.1,3.4c-1.9,0.9-3.8,2.6-5.8,2.6c-17.6-0.2-35.2-0.5-52.8-1.1
		c-1.9-0.1-3.7-1.9-5.5-2.9c1.7-1.1,3.4-3.1,5.2-3.2c8.3-0.3,16.6-0.2,24.9-0.2C315.2,462.3,315.2,461.9,315.2,461.5z"/>
	<path d="M245.7,924.2c8.1,2.5,16.6,5,25,7.8c1.7,0.5,3.4,1.7,4.4,3.1c0.8,1.1,0.4,2.9,0.5,4.5c-1.6,0.1-3.6,0.8-4.7,0.1
		c-12.9-8.1-26.9-8.7-41.4-6.7c-2.6,0.4-5.1,1.7-7.7,1.9c-1.5,0.1-3.2-1-4.8-1.6c0.9-1.5,1.6-4.1,2.8-4.3
		C228.1,927.2,236.4,925.8,245.7,924.2z"/>
	<path d="M592.7,695.9c5.7,0.6,12.5,1.3,19.2,2.1c1.1,0.1,2.7,0.3,3.2,1c0.9,1.3,1.6,3.1,1.6,4.7c0,0.5-2.6,1.7-3.7,1.5
		c-13.6-2.6-27.1-3-40.7-0.3c-1.5,0.3-3,1.1-4.3,1c-1.7-0.2-3.4-1.2-5.1-1.8c1-1.5,1.7-3.8,3-4.3c3.4-1.3,7-2.1,10.6-2.5
		C581.6,696.6,586.6,696.4,592.7,695.9z"/>
	<path d="M640.8,710.1c3.1,0.4,8,0.9,12.9,2c1.6,0.4,2.8,2.5,4.1,3.8c-1.9,0.9-3.8,2.7-5.5,2.5c-13.9-1.8-27.5-1.8-40.2,5.2
		c-1.3,0.7-3.5-0.3-5.2-0.6c0.7-1.7,1-4,2.3-4.9C617.9,711.7,628.3,710.5,640.8,710.1z"/>
	<path d="M380.6,770.9c7.2,1.6,14.4,2.9,21.4,5c1.7,0.5,2.7,3.4,4.1,5.2c-2.2,0.4-4.6,1.5-6.5,0.9c-12.1-3.9-24.1-4.5-36.3-0.5
		c-1.5,0.5-3.5-0.4-5.3-0.7c1-1.9,1.6-5,3.1-5.4C367.4,773.5,373.9,772.4,380.6,770.9z"/>
	<path d="M853.7,489.7c-14.5-1.3-28.4-2.4-42.3-3.9c-1.5-0.2-2.8-2.1-4.2-3.2c1.4-1.1,2.9-3.2,4.2-3.1c14.1,1,28.1,2.3,42.4,3.5
		C853.7,485.4,853.7,487.4,853.7,489.7z"/>
	<path d="M171.6,474.6c-1.6-4.3-0.2-6.3,4-6.6c12.3-0.9,24.5-2,36.8-2.8c1.3-0.1,2.8,1.6,4.2,2.4c-1.3,1.2-2.6,3.3-4,3.5
		c-9.8,1.1-19.6,1.8-29.3,2.6C179.4,474,175.6,474.3,171.6,474.6z"/>
	<path d="M614.2,799.3c0,0.8,0,0.9,0,1.1c-0.1,2.4,0.7,5.5-3,5.8c-3.6,0.3-3.6-2.7-3.9-5.1c-0.3-2.1-0.1-4.5-1-6.3
		c-2.9-6.2-6.3-12.2-9.4-18.4c-0.7-1.4-0.9-3.1-1.4-4.7c2,0,4-0.3,5.9,0.1c1.1,0.3,2,1.6,2.9,2.7
		C610.1,781.8,613.4,790.4,614.2,799.3z"/>
	<path d="M616.9,802.1c1.2-12.3,6.3-21.1,15-27.8c2.4-1.8,5.4-3,7.2,0.3c0.5,0.9-1.4,4-2.9,5.1c-6.3,4.7-9.9,11-12.1,18.3
		c-0.4,1.3-0.4,2.7-1.1,3.8c-1,1.6-2.4,3-3.6,4.5C618.4,804.5,617.4,802.9,616.9,802.1z"/>
	<path d="M348.5,903.3c0.9-12.3,4.7-22.5,12.4-30.8c1-1.1,4-1.8,5.4-1.1c2.5,1.3,1.6,3.5-0.1,5.4c-6.2,6.7-9,15-10.4,23.8
		c-0.2,1-0.1,2.3-0.7,2.8c-1.1,1.1-2.7,2.5-4.1,2.5C350,905.8,349,903.8,348.5,903.3z"/>
	<path d="M593.9,946.5c0,0.6,0.3,2.2-0.1,3.6c-0.4,1.4-1.4,2.5-2.2,3.8c-1.3-0.9-3.1-1.6-3.7-2.8c-3.8-8.1,2-27.5,9.7-32.2
		c1.3-0.8,3.5,0,5.4,0c-0.3,1.7,0.1,4.1-0.9,5.1C596.2,930.1,593,937,593.9,946.5z"/>
	<path d="M725.3,471.4c5.1,0.3,10.3,0.3,15.4,1.1c1.9,0.3,3.5,2.6,5.2,4c-1.9,0.9-3.8,2.6-5.6,2.5c-9.4-0.3-18.9-1-28.3-1.9
		c-1.7-0.2-4.5-1.9-4.6-3.1c-0.3-3.4,2.7-2.9,5-2.9c4.3,0,8.6,0,12.9,0C725.3,471.1,725.3,471.3,725.3,471.4z"/>
	<path d="M345,900.4c0,0.7,0.2,1.4,0,2c-1,1.8-2.1,3.6-3.2,5.3c-1.2-1.7-3.4-3.3-3.4-5c0.1-9.2-2-17.4-8.1-24.4
		c-0.7-0.8,0-2.7,0-4.2c1.8,0.1,4.6-0.4,5.1,0.4c3.1,5,6.1,10.1,8.3,15.5c1.3,3.1,1,6.8,1.5,10.3C345.1,900.4,345,900.4,345,900.4z"
		/>
	<path d="M582.2,951.4c-0.9,1-1.9,2.9-3,3c-1.1,0.1-2.9-1.3-3.5-2.4c-1.8-3.9-2.7-8.3-4.9-11.9c-2.6-4.2-6.3-7.6-9.3-11.5
		c-1.1-1.5-1.6-3.4-2.4-5.1c2.1,0,4.6-0.8,6.1,0.1c6.4,3.7,10.4,9.7,13.2,16.4C579.9,943.5,580.8,947.2,582.2,951.4z"/>
	<path d="M371.2,690.7c-0.9,0.8-2.4,2.1-3.9,3.4c-1.2-1.4-3.2-2.8-3.4-4.3c-0.6-7.1-2.8-13.3-7.9-18.3c-1.8-1.7-2.6-4.1,0-5.3
		c1.4-0.7,4.5-0.5,5.5,0.6C367.3,673.1,370.2,680.8,371.2,690.7z"/>
	<path d="M765.7,640.1c2.5-4,5.3-3.3,7.7-1.1c6.4,5.9,9.9,13.3,10.4,21.9c0.1,1.4-1.5,3-2.3,4.4c-1.5-1.1-3.9-2-4.2-3.3
		C775.7,653.5,772,646.1,765.7,640.1z"/>
	<path d="M372.9,691.1c1.1-10,4.6-17.8,11.3-23.9c1-0.9,3.2-0.4,4.9-0.6c0,1.6,0.6,3.8-0.2,4.8c-4.6,5.9-7.7,12.4-9.3,19.7
		c-0.3,1.2-2.5,2.9-3.8,2.8C374.6,694,373.5,691.8,372.9,691.1z"/>
	<path d="M790.3,665c-0.7-2.7-2.5-5.7-2-8.2c1.4-6.9,3.6-13.7,6.1-20.3c0.5-1.3,3.3-1.6,5-2.4c0.1,1.7,0.7,3.6,0.3,5.2
		c-1.4,6.8-2.9,13.5-4.6,20.2c-0.5,2-1.6,3.9-2.4,5.8C791.9,665.2,791.1,665.1,790.3,665z"/>
	<path d="M334.3,907.4c-0.4,0.5-1.2,2.2-2.2,2.4c-1.3,0.2-3.6-0.5-4-1.5c-2.9-6.5-7.2-11.8-12.9-16.1c-0.9-0.6-1.2-3.1-0.7-4.2
		c0.4-0.9,2.5-1.6,3.7-1.4C322.7,887.3,334.3,901.9,334.3,907.4z"/>
	<path d="M601.8,953c-0.8-1.9-2.8-4.1-2.3-5.8c1.8-7,6.9-11.5,13.2-14.6c0.9-0.4,2.9,0,3.6,0.8c0.6,0.6,0.3,2.5-0.2,3.5
		c-0.6,1.3-1.9,2.2-2.8,3.3c-2.5,3.2-5,6.4-7.5,9.6c-0.7,0.9-1.4,2-2,2.9C603.1,952.8,602.4,952.9,601.8,953z"/>
	<path d="M803.6,665.8c-2.1-9.6,2.4-18.3,10.1-21.1c1.3-0.5,3,0.1,4.5,0.1c-0.4,2-0.1,5-1.2,5.7c-4.6,2.8-7.2,6.7-9,11.5
		C807.5,663.4,805.5,664.2,803.6,665.8z"/>
	<path d="M645,791.7c0.4,0.3,2,0.7,2.4,1.6c0.5,0.9,0.2,2.6-0.5,3.5c-2.5,3.7-5.1,7.3-7.8,10.8c-0.8,1-2.4,1.3-3.6,1.9
		c-0.4-1.1-1.1-2.2-1.2-3.4C633.9,800.9,640.2,791.7,645,791.7z"/>
	<path d="M374.7,892.3c-0.9,1.6-1.6,2.8-2.3,4.1c-1.6,3.1-2.9,6.3-4.8,9.2c-0.8,1.1-2.9,1.3-4.5,2c-0.5-1.4-1.7-3.1-1.2-4.1
		c2-4.5,4.4-8.8,7-13c0.5-0.8,2.4-1.4,3.4-1.1C373.2,889.7,373.8,891.2,374.7,892.3z"/>
	<path d="M389.7,438.8c-11.1,1-17.8-2.6-21.4-11.8c-0.5-1.3-0.1-3-0.1-4.5c1.3,0.7,2.9,1.1,4,2.1c2.2,2,3.9,4.9,6.4,6.1
		c2.3,1.1,5.6,0.7,8.2,0.1c0.7-0.2,0.7-3.9,0.6-6c-0.4-4.5-3-7.4-6.4-10.6c-3.5-3.3-5.6-8.4-7.5-13c-0.5-1.3,1-4.2,2.4-5.3
		c6.1-5.1,24.5-5.1,31-0.4c4,2.8,4.8,7.7,2.1,12.4c-3.3,5.8-8.4,9.3-15.7,10.7c2.3,6.6,4.3,13.1,11,15.9c7.1,3,14,1.5,20.4-2.6
		c1.3-0.8,2.2-2.2,3.5-2.7c1.4-0.5,3.5-0.9,4.5-0.2c0.9,0.6,1.3,3.1,0.8,4.2c-3.2,6.5-5.8,13.5-10.3,19.2
		c-9.5,12.1-23.6,10.1-30.4-3.8C391.5,445.6,390.8,442.2,389.7,438.8z M390.6,398.3c-2.4,0.6-5.1,1-7.4,2.1
		c-0.9,0.4-1.8,2.8-1.4,3.9c2.6,7.2,11.4,9.5,17.2,4.5c1.5-1.3,3.8-3.9,3.4-5c-0.6-1.7-3.2-3-5.1-3.9
		C395.3,398.9,393,398.8,390.6,398.3z M422.8,441.2c-9.8,3.5-17.9,1.5-25.8-3c1.9,8.5,7.1,15.2,12,15
		C416,453.1,419,447.7,422.8,441.2z"/>
	<path d="M627.6,224.7c0.8,0.8,2.8,1.9,3.1,3.3c0.2,1-1.7,3.4-2.9,3.6c-38.4,6.2-64.6,31.1-89,58.4c-7.1,7.9-13.3,16.7-19.8,25
		c-0.9,1.2-1.7,2.6-2.9,3.4c-1.1,0.7-2.6,0.6-3.9,0.9c-0.2-1.2-0.8-2.6-0.6-3.6c0.5-1.7,1.3-3.4,2.4-4.9
		c19.6-26.7,41.3-51.4,69.6-69.3c12.1-7.7,25.2-13.5,39.5-16C624.1,225.3,625.2,225.1,627.6,224.7z"/>
	<path d="M464.7,382.4c-1.6,5.5-2.8,11.2-4.9,16.6c-1.5,3.9-4.8,5.9-9.2,5.2c-4.3-0.7-6.7-3.9-6.5-7.7c0.2-6.9,0.8-13.9,2.4-20.6
		c1.3-5.6,5.6-8.2,9.7-7.6c4.2,0.6,6.9,4.1,7.6,9.9c0.1,1.3,0,2.7,0,4C464.1,382.2,464.4,382.3,464.7,382.4z"/>
	<path d="M366.4,374.6c0.5-6.1,1.9-13.2,7.5-18.3c1.7-1.5,4.9-2.6,6.9-2c1.6,0.5,3.7,3.9,3.4,5.7c-1,6.7-2.3,13.4-4.6,19.7
		c-1.2,3.4-4.1,6.8-8.8,5.9C367.9,384.9,366.3,380.9,366.4,374.6z"/>
	<path d="M470.2,409.4c7.7,0.9,15.5,1.8,23.2,2.7c1.5,0.2,3.2,0.3,4.3,1.2c1.3,1,2,2.7,2.9,4.1c-1.4,0.8-2.9,2.3-4.3,2.2
		c-4.3-0.2-8.5-1.3-12.8-1.6c-7.9-0.5-15.9-0.5-23.9-1.2c-2-0.2-3.9-2.2-5.8-3.4c1.8-1.1,3.4-3,5.3-3.3c3.6-0.5,7.3-0.2,10.9-0.2
		C470.2,409.8,470.2,409.6,470.2,409.4z"/>
	<path d="M456.5,426.4c8,2.9,16,5.5,23.8,8.7c3.7,1.5,7.1,3.7,10.3,6c1.3,1,2.7,3.8,2.2,4.8c-1.3,2.7-3.6,1.5-5.9,0.4
		c-6.8-3.5-13.6-6.9-20.6-10.1c-3.5-1.6-7.3-2.3-10.8-3.7c-1.2-0.5-2-1.9-2.9-3C453.7,428.7,454.8,427.8,456.5,426.4z"/>
	<path d="M457.2,340.1c0.3-5.3,3.7-6.9,7.5-7.6c5.8-1.2,15.9,3.8,18,9.3c0.8,2.1-0.4,5-0.7,7.5c-2.2-0.9-5.3-1.3-6.4-2.9
		c-3.4-5.3-7.7-7.5-13.9-6.3C460.3,340.3,458.9,340.1,457.2,340.1z"/>
	<path d="M387.4,321.2c3.9,1.7,6.9,2.6,9.2,4.2c1.1,0.7,1.4,3.2,1.2,4.7c-0.1,0.6-2.9,1.5-4,1.1c-4-1.6-7.7-1.6-11.5,0.3
		c-0.9,0.5-2.9,0.2-3.5-0.5c-0.6-0.7-0.5-2.9,0.2-3.5C381.6,325.2,384.7,323.2,387.4,321.2z"/>
</g>
</svg>
