<?xml version="1.0" encoding="utf-8"?>
<!-- Generator: Adobe Illustrator 18.1.1, SVG Export Plug-In . SVG Version: 6.00 Build 0)  -->
<svg version="1.1" id="Layer_1" xmlns="http://www.w3.org/2000/svg" xmlns:xlink="http://www.w3.org/1999/xlink" x="0px" y="0px"
	 viewBox="0 0 1024 1024" enable-background="new 0 0 1024 1024" xml:space="preserve">
<g>
	<path d="M780.4,462.1c-4.4-8.2-8.8-16.3-13.3-24.5c-0.4,0.1-0.8,0.1-1.2,0.2c0,2.7-0.1,5.4,0,8.1c0.6,21.9,0.1,43.6-6.9,64.7
		c-5.5,16.7-13.8,31.7-25.2,45c-1.4,1.6-2.9,3.1-4.4,4.6c-0.6,0-1.2,0-1.7,0c-2.2-8.6-4.3-17.2-6.7-26.8c-2.9,8.4-5.2,16-8.1,23.3
		c-9.6,24.1-26.2,42.2-48.5,55.3c-4.3,2.5-5.6,2-5.9-3c-0.4-6-0.1-11.9-0.1-19.5c-3.4,5.6-6.2,10.1-8.9,14.7
		c-0.4,0.6,0.1,1.9,0.4,2.8c7.2,17.8,8.5,36.6,9.9,55.3c0.4,4.8,0.7,9.6,1.1,15c3.2-0.6,5.9-1.1,8.6-1.6c12.4-2.5,23.8-0.4,34.2,7.1
		c15.6,11.3,25.3,26.1,28.2,45.3c2.4,16,1.6,31.5-4.1,46.8c-2.1,5.6-4.1,11.2-5.7,17.7c3.2-2.4,6.8-4.4,9.4-7.3
		c13.3-15.4,14.6-33.5,9.7-52.2c-3-11.6-7.7-22.7-10.6-34.3c-4-15.6-5-31.5-0.9-47.5c0.5-1.9-0.1-4.3-0.7-6.3
		c-3.4-10.5-4.8-21-2.8-32c2.3-12.5,9.8-21.6,19.2-28.8c7.3-5.6,15.8-9.7,23.9-14.4c5.4-3.2,11.2-6,16.4-9.5
		c7.6-5.1,12.3-12.5,14.5-21.4c0.5-1.8,2-3.4,3.1-5.1c1.9,1.4,4.9,2.3,5.7,4.2c3.5,8.4,7.1,16.9,9.4,25.7
		c5.5,20.6,5.7,41.1-3.3,61.1c-8.3,18.4-22.9,29.9-41.2,37.1c-3.2,1.3-6.8,1.7-10.3,1.7c-3.7,0-5.5,1.6-5.3,4.9
		c0.2,4.6,0.1,9.5,1.5,13.8c3.7,11.4,7.9,22.6,12.3,33.7c8.6,21.8,12.2,43.9,5.3,66.9c-7.4,24.3-22.7,41.8-45.6,52.8
		c-1.2,0.6-2.3,1.2-4.2,2.1c1.7,1.6,3.1,2.9,4.5,4.2c9,8.3,14,18.5,14.8,30.7c0.8,11.7-3.8,21.3-13.7,27c-7.2,4.1-15.4,7.3-23.5,8.9
		c-15.1,3-30.4,3.6-45.7,0.2c-1.4-0.3-3.7-0.1-4.4,0.8c-7.6,10.2-18.9,13.3-30.4,15.7c-25.6,5.4-51.2,5.7-76.6-1.2
		c-16-4.4-25.6-14.3-27.9-30.8c-0.6-4.2-2.4-5.3-6.5-5.2c-13.9,0.3-27.9,0.1-42.2,0.1c-0.6,3.1-1.2,6.6-2,10.2
		c-2.4,10.3-8.3,17.5-18,21.9c-10.9,5-22.4,7.5-34.3,8.3c-20.6,1.4-41.1,0.2-60.7-6.7c-6-2.1-11.5-6-16.6-9.9
		c-2.9-2.2-5.2-3.3-8.9-2.7c-15.9,2.5-31.8,2.6-47.6-1.2c-0.6-0.2-1.3-0.3-1.9-0.5c-31.1-8.6-34.6-32.4-23.5-55.7
		c6.1-12.8,17.5-19.7,30-25.1c1.7-0.7,3.4-1.4,5-2.2c0.3-0.1,0.5-0.4,1.1-1c-2.7-4-5.5-8.1-8.2-12.1c-12-17.4-21-35.9-23.1-57.3
		c-1.7-18.2,0.5-35.5,10.4-51.4c13.8-22,32.1-30,57.5-24.6c1.3,0.3,2.6,0.5,4.2,0.9c0.2-1.1,0.5-2,0.5-2.9
		c1.2-25.5,3.2-50.9,12.2-75.1c0.4-1.2,0.3-3-0.3-4.1c-1.1-2-2.9-3.6-4.3-5.5c-0.6-0.8-1.1-1.6-1.6-2.4c-0.4,0.2-0.8,0.4-1.2,0.6
		c-0.3,4.9-0.4,9.9-1,14.8c-0.4,2.8-1.7,5.5-2.5,8.2c-2.5-1.1-5.2-2-7.3-3.5c-25.9-18.1-40.6-43.5-47.9-73.6
		c-0.4-1.8-0.8-3.5-2.3-5.6c-1.2,3.5-2.4,6.9-3.5,10.5c-1.1,3.8-1.9,7.8-3.1,11.6c-1.5,4.6-3.8,5-7.2,1.5c-1-1.1-1.9-2.3-2.7-3.6
		c-18-30.1-24.2-62.8-21.7-97.4c0.5-7.4,1.8-14.8,2-22.6c-3.9,6.7-7.6,13.4-11.7,20c-1.5,2.3-3.9,4.1-5.9,6.1
		c-1.7-2.5-4.2-4.7-5-7.4c-10.2-34.8-5.9-68.6,8.1-101.4c4.4-10.3,10.3-20,15.8-30.5c-2.2,0.9-4.6,1.6-6.5,2.8
		c-4.9,3.1-9.6,6.6-14.5,9.7c-1.7,1.1-3.8,1.6-5.7,2.4c-0.6-2.3-1.9-4.6-1.7-6.8c1.5-18.5,6.9-35.9,14.3-52.8
		c13.7-31.2,34.7-56.6,61.8-77.1c1.3-1,2.5-2,4.1-3.3c-4.1,0-7.6,0.3-11.1-0.1c-2.3-0.3-4.4-1.5-6.6-2.3c0.8-2.2,1.1-5,2.5-6.6
		c11.5-12.9,24.4-24.1,39.7-32.3c16.2-8.6,33.4-14.5,51.7-15.6c9.2-0.6,18.5,0.6,27.8,1c-4.2-2.7-8.8-5.7-13.4-8.7
		c-3.4-2.2-6.8-4.2-10.1-6.5c-1.2-0.9-3.1-2.7-2.8-3.4c0.7-1.6,2.2-3.6,3.8-4c7.4-1.9,14.9-3.9,22.4-4.9
		c26.8-3.4,52.7-0.5,76.1,14.1c9.5,5.9,18,13.5,27.3,20.6c7.2-9.4,16.9-17.5,28.4-23.6c26.3-13.9,54.1-16.7,83-10.9
		c1.8,0.4,3.4,1.8,5,2.7c-1.1,1.5-2,3.4-3.4,4.6c-6,5.2-12.2,10.3-17.8,16.5c2.8-0.4,5.6-0.7,8.4-1.1c33.6-4.5,63.8,5.2,91.1,23.9
		c12.7,8.7,23.6,19.9,35.2,30.1c1.3,1.1,1.7,3.3,2.4,5c-1.9,0.7-3.8,1.8-5.7,1.9c-5.6,0.3-11.2,0.1-16.8,0.1
		c-0.2,0.5-0.3,0.9-0.5,1.4c1.8,1.5,3.6,3,5.4,4.5c35.1,28.1,57.7,64,67.7,107.9c1.5,6.5,2.5,13.1,3.3,19.7c0.2,2-1.1,4.2-1.7,6.4
		c-1.8-0.7-3.7-1.1-5.3-2.1c-3.9-2.6-7.5-5.6-11.3-8.2c-2.7-1.8-5.6-3.2-9-4.4c12.4,22.3,23.3,44.8,25.7,70.7
		c2.4,25.5,1.4,50.3-9.7,73.7C781.7,461.8,781,461.9,780.4,462.1z M666,601.5c1.8-1.2,2.8-1.7,3.7-2.4
		c16.5-13.7,30.5-29.5,36.8-50.6c3.5-11.9,5.6-24.2,8.4-36.4c0.4-1.6,1.6-2.9,2.5-4.3c1.2,1.1,2.6,1.9,3.4,3.2
		c1,1.7,1.5,3.7,2.3,5.5c3.4,8.6,6.8,17.1,10.2,25.7c0.7-0.4,0.9-0.4,1-0.5C758,502.4,764,460.5,751.9,416c-0.5-1.9,0.1-4.1,0.3-6.2
		c0.6-0.2,1.2-0.4,1.9-0.5c11.1,9.2,16.7,23,26.6,33.7c5.6-21.8,5-43.1,0.8-64.5c-5-25.6-16.9-48.2-31.6-69.5
		c-1.7-2.5-5.7-5.1-2.8-8.6c2.9-3.4,6.8-0.9,9.6,0.6c9.5,5,18.7,10.5,27.9,15.7c-0.2-1.1-0.3-3-0.8-4.8c-7.7-27.9-18.9-54-37.3-76.6
		c-13.3-16.4-28.3-31-45.9-42.8c-1.9-1.3-3.4-3.1-5.4-4.9c9.4-5.8,19.4-3.9,29.2-5.4c-14.7-16.1-53.2-36.9-76.6-41.2
		c-22.2-4.1-44.1-4.1-64.4,8.1c-0.9,0.5-2.1,0.5-4.5,1c7.2-15.8,18.3-26.6,31.1-36.6c-1.1-0.3-1.6-0.5-2-0.5
		c-17.8-0.1-35.2,2-52.2,7.5c-21.2,6.8-38.3,18.5-47.8,39.4c-0.4,0.9-1.3,1.6-2,2.4c-0.7-0.4-1-0.6-1.2-0.8
		c-0.6-0.8-1.1-1.7-1.6-2.6c-6.7-13.5-17.1-23.3-30.5-29.9c-23.1-11.3-47.6-14.3-73-11.7c-2.1,0.2-4.2,1.1-7.6,2
		c3.8,1.9,6.3,3.2,8.8,4.4c11.4,5.8,20.5,14.2,27.8,24.6c0.7,1,0.7,2.4,1,3.6c-1.3,0.1-2.7,0.6-4,0.3c-1.4-0.3-2.7-1.3-4.2-1.7
		c-8.1-2.3-16.2-5.7-24.5-6.6c-26.1-2.8-50.3,3.7-72.5,17.3c-9.1,5.6-17.6,12.2-26.4,18.4c0.2,0.5,0.5,1.1,0.7,1.6
		c3.9,0.4,7.8,0.6,11.7,1.1c3.7,0.5,7.3,1.1,11,1.7c0.2,0.7,0.3,1.3,0.5,2c-47.6,31.4-79.4,73.8-93.3,130.8
		c4.2-2.4,7.1-4.4,10.2-5.8c7.5-3.5,15.1-6.9,22.8-9.9c1.6-0.6,3.8,0.4,5.7,0.7c-0.6,1.7-0.8,3.8-1.8,5.2
		c-20,26.3-32.5,55.6-36.3,88.5c-1.7,14.8-0.6,29.4,1.8,45.5c3.9-6,6.6-11.1,10.1-15.6c5.7-7.4,11.7-14.4,17.9-21.4
		c0.9-1,3.2-0.9,4.8-1.3c0.2,1.6,0.8,3.3,0.6,4.9c-0.3,1.9-1.2,3.8-1.9,5.7c-5.9,16.6-9.8,33.5-9.6,51.3c0.3,25.7,7,50,16.4,73.6
		c0.1,0.1,0.6,0.1,1,0.1c0.5-1.4,0.9-2.8,1.5-4.2c4.8-11.1,9.7-22.3,14.6-33.3c0.4-1,1.8-1.6,2.7-2.3c0.8,1.1,2,2.1,2.3,3.3
		c0.4,1.6,0.1,3.3,0.1,5c-0.1,25.8,7.3,49.3,22.4,70.1c6.7,9.2,14.6,17.5,21.9,26.2c0.4-0.3,0.8-0.5,1.2-0.8
		c-0.2-1.8-0.5-3.5-0.5-5.3c0-10.5-0.1-20.9,0.3-31.4c0.1-2.5,1.6-5,2.5-7.4c0.7-0.2,1.5-0.5,2.2-0.7c11.6,34.2,33.2,59.2,64.5,74.5
		c-1.1-11.2-2.4-22.3-3.1-33.5c-0.2-2.8,1.6-5.8,2.5-8.7c2.4,1.6,3.4,2.7,3.9,4c8.9,20.2,24.2,34.7,41.1,48.1
		c18,14.3,39.5,24.2,54,43.5c10.9-17.4,27-29.1,43.3-40.4c19.5-13.4,36.9-28.6,46.3-51.1c0.5-1.3,2.2-2.1,3.4-3.1
		c0.7,1.4,2.1,2.8,2.1,4.1c-0.6,9.7-1.4,19.5-2.4,29.2c-0.4,3.3-1.6,6.6-2.7,10.7c3.4-1.4,6-2.2,8.3-3.5
		c24.5-13.8,43.7-32.5,53.9-59.4c1.3-3.4,2.4-6.9,3.9-10.3c0.5-1.1,1.9-1.9,2.9-2.8c0.8,1.1,2,2.1,2.3,3.3
		C668.7,575,669.9,587.7,666,601.5z M413.7,919.7c-1.4-3.5-2.4-6.1-3.4-8.7c-3.7-9.8-3.7-19.7,0.8-29.2c1.7-3.5,5.1-6.3,8-9.2
		c0.5-0.5,2.4-0.5,3.1,0c0.6,0.5,0.6,2.1,0.4,3.1c-0.2,0.9-0.9,1.8-1.3,2.7c-4.8,10.9-6.2,22.1-2.9,33.6c1.1,4,2.9,7.9,8.2,6.9
		c7.8-1.5,15.8-2.7,23.3-5.3c10.5-3.6,16.7-11.5,17.8-22.7c0.6-6.1,0.6-12.4-0.2-18.4c-4.5-37-9.6-74-13.9-111
		c-1.9-16.4-2.6-32.9-3.5-49.3c-0.1-2.4,1.3-4.9,2-7.3c0.7,0,1.5,0.1,2.2,0.1c0.6,1.7,1.5,3.4,1.7,5.2c4.1,34.4,8,68.8,12.2,103.2
		c2.7,21.8,5.9,43.5,9,66.1c15.7,0,31.3,0,47.1,0c0.4-5.2,0.6-9.9,1.1-14.5c6.3-50.7,12.5-101.5,18.9-152.2c0.4-2.9-0.1-7.7,4.1-7.3
		c4,0.4,2.9,5,2.7,8c-2.9,45.1-7.9,89.9-14.4,134.6c-2,13.9-3,28.1-3.2,42.2c-0.1,11.6,6.6,19.8,17.6,23.5c6.4,2.2,13.3,3,19.9,4.7
		c5.4,1.4,8.1-0.9,9.9-5.6c4.5-11.4,4.8-22.6-0.7-33.9c-0.8-1.6,0-3.9,0.1-5.8c1.8,0.6,3.7,1,5.2,2c1.2,0.8,2,2.2,2.7,3.5
		c4,7.1,5.3,14.8,4.1,22.7c-0.9,6.1-3.1,12.1-4.8,18.4c9.7,1.3,19.8,1.5,29.7-0.9c2.2-0.5,4.7-2.7,5.7-4.8
		c6.3-12.7,5.8-25.3-1.5-37.7c-0.8-1.4-0.4-3.6-0.5-5.4c1.9,0.6,4.4,0.7,5.6,1.9c5,5.2,7.8,11.5,8.7,18.7c1.1,8.7-1.1,16.8-5.5,24.5
		c13.1-1.1,22.9-8.1,25.8-17.9c4.9-16.6-6.3-37.9-22.6-43.4c-8.3-2.8-8.3-2.8-6.3-11.5c0.4-1.6,0.8-3.2,1.2-4.8
		c8-31.1,15.8-62.3,19.7-94.3c4.8-39.7,6.6-79.4-0.4-119c-0.8-4.4-2.7-8.5-4.4-13.7c-13.9,16.5-30.8,25.9-49.1,33.2
		c-2.9,1.2-6.6,0.3-9.9,0.3c0.5-2.8,0.8-5.7,1.7-8.3c1.9-5.9,4.2-11.6,6.3-17.4c-0.6-0.4-1.2-0.8-1.9-1.2c-0.6,1-1,2.2-1.8,3
		c-7.2,7.2-13.9,14.9-21.7,21.3c-12.9,10.7-26.6,20.5-39.9,30.9c-8.2,6.4-13.8,14.7-17.6,24.4c-0.7,1.8-2.4,3.2-3.7,4.8
		c-1.3-1.6-3.2-3-3.9-4.8c-3.6-8.8-9.5-15.5-17.3-20.8c-5.2-3.6-10.4-7.3-15.4-11.1c-19.4-14.4-39.6-27.8-54.5-47.4
		c-0.2-0.3-0.8-0.2-2.1-0.5c1.7,5.4,3.4,10.3,4.6,15.2c0.9,3.3,1.1,6.9,1.6,10.3c-3.6-0.6-7.6-0.4-10.9-1.8
		c-15.6-6.6-29.7-15.8-41.7-27.9c-2-2-4.2-3.9-6.9-6.3c-0.7,2.7-1.3,4.4-1.7,6.2c-10,42.8-9.7,85.9-4.4,129.2
		c4.1,34.3,12.8,67.7,22,100.9c2.3,8.3,3.3,7.4-5.5,11.1c-16.7,7-25.8,22.8-23.1,40c1.9,12,13.3,21.8,24.2,20.3
		c-0.6-1.8-1.2-3.4-1.7-5.1c-3.7-13-1.8-25.1,6.2-36c1.1-1.6,4.6-3.2,5.9-2.6c3.4,1.6,0.3,3.9-0.7,5.7c-6.5,11.7-7.4,23.8-1.8,35.9
		c1.3,2.8,4.6,6.2,7.3,6.4C394.5,920.2,403.6,919.7,413.7,919.7z M650.2,837.5c-0.3-0.6-0.5-1.3-0.8-1.9c3.3-2.2,6.4-5.4,10.1-6.5
		c8.7-2.6,17.7-4,26.6-6.2c2.7-0.7,6.1-1.7,7.4-3.8c7.9-12.5,16.1-24.9,22.8-38c8.4-16.6,10.8-34.5,6.8-53
		c-3.2-14.8-10.9-26.9-22.3-37c-8.8-7.8-19.2-7.2-29.8-6.9c-10.5,0.3-10.7,0.6-11.1,11c-1,31.2-3.9,62.1-10.8,92.6
		c-4.3,19-8.7,37.9-13.3,56.9c-0.8,3.3,0,4.7,3.2,5.9c13.7,5.3,21.9,15.6,24.5,29.8c1.2,6.5,0.2,13.5,0.2,20.4
		c0.9,0.3,1.7,0.8,2.7,0.9c3.4,0.5,6.9,1.2,10.4,1.4c6.7,0.4,8.1-0.5,10.2-6.9c3.6-10.8,1.1-20.7-4.8-30c-1.6-2.5-3.2-4.9,1.4-8
		c2.8,3.7,6.2,7.1,8.3,11.1c5.7,10.7,5.1,21.7-0.8,33.6c7.9-1.1,14.6-1.7,21.2-3.2c2.1-0.5,5-3,5.3-5c1.1-6.1,2.1-12.5,1.5-18.7
		c-0.5-5.3-3.5-10.3-5.1-15.5c-0.4-1.5,0.2-3.3,0.4-4.9c1.5,0.6,3.3,0.9,4.5,2c1.2,1,2,2.7,2.7,4.1c5.2,10,6.9,20.5,4.1,31.8
		c9.6-4.3,14.2-13.8,11.6-24.7c-4.8-20-19.3-30.1-37.8-35c-14.2-3.8-28.4-1-42.4,2.4C654.9,837,652.5,837.2,650.2,837.5z M338.3,903
		c-2.9-25.4,5.2-44.3,28.9-54.5c-2.7-9.5-5.3-18.7-7.7-27.8c-10.7-39.9-17.6-80.3-19.2-121.6c-0.5-12.2-0.2-12.1-12.8-13.1
		c-13.8-1.1-26.2,1.1-35.7,12.3c-7.6,9-12.7,19.2-14.7,30.7c-4.2,24.5,1.9,46.9,14.6,67.8c4.7,7.8,9.8,15.5,15,23
		c1,1.4,3.5,2.1,5.5,2.4c8.2,1.4,16.5,2.1,24.6,4c6.2,1.4,11.8,4.7,16.1,10c-3.7,0-7.2-0.6-10.7-1.4c-14.5-3-29-5-43.5-0.7
		c-20.2,6-34,25-32.3,44.5c0.7,7.9,5.7,14.4,11.6,15.1c0-3.5,0-6.9,0-10.4c-0.1-8.3,2.7-15.7,7.6-22.3c1.3-1.8,4.1-2.5,6.2-3.7
		c-0.5,2.1-0.6,4.3-1.5,6.1c-5.3,9.8-7.9,19.8-3.9,30.7c0.8,2.1,2.2,5,3.8,5.4c7.4,1.8,15.1,2.9,23.3,4.3c-0.9-3.8-1.6-6.2-2-8.7
		c-2.1-10.7-1.3-21,5.1-30.1c1.2-1.8,4.2-2.3,6.3-3.5c-0.3,2.1-0.2,4.4-1.1,6.2c-4.4,9.5-5.3,19.3-1.8,29.1c0.9,2.5,3.8,5.2,6.3,5.9
		C329.6,903.7,333.6,903,338.3,903z M805.5,550.8c-7,14.1-19.5,21.1-32.8,27.4c-7.8,3.7-15.2,8.3-22.2,13.3
		c-13.6,9.9-18.3,24-15.7,40.1c1.8,10.8,3.5,21.2,2.2,32.4c-2.1,19,2.6,37.3,8.6,55.3c2.3,6.8,4.8,13.6,5.8,20.6
		c4.6,30.6-4.8,49.4-30.2,63.3c-0.4,0.2-0.9,0.5-1.3,0.7c-10.2,3.7-13.6,13.9-21.3,20.7c4.5,1.4,8.5,1.8,11.8,3.7
		c7.6,4.3,14.4,2.1,21.1-1.8c32.2-18.3,47.5-53.7,37.9-89.5c-3.5-12.9-9-25.3-13.6-38c-4.1-11.3-7.5-22.7-5.9-35
		c0.6-4.4,2.4-6.4,7.2-7.1c28.2-4.2,47.3-20.9,53.6-47.4C815.3,589.6,812.6,570.1,805.5,550.8z"/>
	<path d="M673.1,449.6c-0.9,2.3-1.6,3.6-1.8,5c-6.2,32.9-25.9,55.9-53.6,72.9c-14.4,8.9-29.9,15.2-46.5,19.1
		c-3.6,0.8-7.4,2.4-10.2,4.7c-29.1,23.5-72.1,26.1-102.7,5c-10-6.9-20.7-10.7-32-14.5c-35.8-12-64.4-33-80.6-68.3
		c-1.8-3.9-3.1-8.1-4.3-12.2c-1.2-3.9-2.1-8-3.4-13.3c-2,3.8-3.3,6.5-4.9,9.1c-0.9,1.4-2.4,2.4-3.6,3.6c-1.1-1.4-2.8-2.6-3.1-4.1
		c-3.8-18.3-4.6-36.6,2.9-54.1c4.7-10.9,10.8-21.4,17.7-31.1c7.2-10.1,11.6-20.6,13.1-32.9c3-23.4,10.7-45.5,24.1-65
		c15.9-23,37.8-38,65.5-45.4c-1.5-1.7-2.9-3.5-4.6-5.2c-3.2-3.4-6.6-6.6-9.7-10.1c-0.6-0.7-0.2-2.3-0.2-3.6c1,0.1,2.3-0.1,3.1,0.5
		c16.5,12.1,33.3,23.9,49.4,36.5c5.7,4.4,9.9,10.6,15.1,16.3c19.1-24,42.2-43.7,70-57.4c0.6,0.7,1.2,1.4,1.8,2.1
		c-7.3,6.2-14.7,12.5-22.8,19.4c3.8,0.6,6.5,1.1,9.2,1.6c33.4,6.6,57.6,25.5,73.9,55c9,16.4,13.1,34.6,15.7,52.9
		c1.9,13.3,6.8,24.9,15.1,35.3c13.2,16.6,21.4,35.4,22.7,56.6c0.6,9.5-0.8,19.2-1.6,28.8c-0.1,1.7-2,3.2-3.1,4.8
		c-1.5-1.1-3.3-2-4.5-3.4C677.1,455.8,675.4,453,673.1,449.6z M343.9,427.7c0.6,0.1,1.2,0.2,1.9,0.3c0.2,2,0.8,4,0.6,5.9
		c-1.2,16.3,3.3,31.1,11.7,44.7c17.4,28.1,42.2,46.7,74.2,55.4c9.1,2.5,17.6,5.8,25.2,11.5c29.1,22,68.6,21.6,97.6-0.5
		c4.4-3.3,9.8-5.8,15.1-7.2c23.7-6.1,45.3-16,63-33c19.5-18.6,31.9-40.8,32.1-68.6c0-1.4,1.1-2.8,1.8-4.2c1.2,0.7,2.8,1,3.7,2
		c3,3.5,5.9,7.2,8.8,10.8c0.4-0.2,0.9-0.4,1.3-0.6c-0.8-8.3-1-16.6-2.5-24.8c-3.1-17.6-11.4-32.9-22.2-46.9
		c-6.6-8.6-11.1-18.1-13-28.8c-1.3-7.4-2.7-14.7-4.2-22.1c-7.2-35.5-26.1-62.2-59-78.4c-9.7-4.8-20.1-7-30.9-6.7
		c-3.3,0.1-7.3,0.8-9.8,2.8c-13.3,10.2-25.4,21.6-33,36.9c-0.7,1.4-2,2.6-3.2,4.2c-0.9-1.2-1.5-1.6-1.7-2.2
		c-7.6-18.1-21.9-29.8-38.2-39.5c-1.6-0.9-3.8-1.5-5.6-1.4c-20.2,1.6-36.8,11.1-51.3,24.5c-20.8,19.1-31.3,43.9-35.9,70.9
		c-3.1,18.3-8.2,35-20.3,49.5c-8.1,9.7-12.7,21.5-15.2,33.9c-1.5,7.7-2.1,15.6-3,23.4c0.5,0.1,1,0.2,1.5,0.4
		C336.7,435.8,340.3,431.7,343.9,427.7z"/>
	<path d="M409.7,225.5c-1.6,1.6-3.4,4.4-6.1,6c-24.9,15.5-39.9,38.6-49.8,65.5c-0.5,1.2-0.9,2.5-1.4,3.7c-1.2,3.4-3.1,4-6.1,1.8
		c-2.1-1.5-4.5-2.9-6.9-3.9c-19.8-7.9-33.8-21.7-36.8-43c-3.4-24.2,6.9-43.6,26.7-57.5c17.4-12.2,42-10,60.3,5.1
		c4.9,4.1,8.7,9.5,13.1,14.3C404.8,219.9,406.9,222.3,409.7,225.5z M396.9,225.2c-13.2-20.4-34.5-29.5-54-23.3
		c-18.7,5.9-32.7,26.6-31.7,47.2c0.8,17.9,13.5,38.7,37,42.7c1.9-5.1,3.9-10.3,5.9-15.5c-15.5-7.3-21.9-14.4-21.6-25.2
		c0.2-10.3,4.9-18.6,14.2-23c14.1-6.6,25.3-0.7,34.6,10.4C386.7,233.9,391.7,229.6,396.9,225.2z M375.7,243.4
		c-3.1-2.2-5.7-4.6-8.7-6.1c-7.7-3.9-16.6-2.4-21,3c-7.9,9.8-3.2,24.3,9.2,27.3c1.3,0.3,3.6-0.2,4.3-1.1
		C364.8,259.2,369.9,251.7,375.7,243.4z"/>
	<path d="M706.4,246.2c-0.4,24.2-12.9,41.8-35.6,50c-2.9,1.1-5.6,1.9-5.1,6c0.1,1.2-1.7,2.7-2.6,4c-1.2-1.1-3.2-2-3.6-3.4
		c-6.6-22.5-19.8-41-35.3-57.9c-5.4-5.8-12.1-10.4-18.2-15.4c-5.2-4.2-5.1-4.9-0.4-9.4c2.6-2.5,4.9-5.5,7.2-8.3
		c14.8-18.3,37.8-25.8,57.4-18.8C691,200.6,706.8,223.7,706.4,246.2z M629.9,237.4c10.9-12.4,17.5-15.5,27.8-12.2
		c10.5,3.3,17,11.2,18.6,21.6c2.2,14.1-7,22.3-18.6,28.8c1.7,4.1,3.3,8.1,5.1,12c0.4,0.8,2.1,1.8,2.9,1.6
		c8.1-2.3,15.9-5.1,21.2-12.2c10.9-14.5,14.2-30.2,7.9-47.5c-6.2-17.3-21-28.9-37.9-29.5c-19.2-0.7-32.3,9.6-43.1,24.2
		C619.4,228.7,624.5,233,629.9,237.4z M634.1,242.5c5,6.5,10,12.7,14.7,19.2c5,6.9,7.9,7.2,13.6,0.4c2.1-2.5,3.8-5.5,4.9-8.5
		c3-8.6-4.8-20.3-13.7-20.4C645.8,233,639.3,236.4,634.1,242.5z"/>
	<path d="M770.3,615.5c-7.3,10.4-14.7,20.9-22.1,31.5C745.8,635.9,760.1,616,770.3,615.5z"/>
	<path d="M593.5,415c-2.6-0.3-5.2-0.3-7.8-0.9c-1.4-0.3-3-1.5-3.6-2.7c-0.3-0.6,1.1-2.7,2.2-3.3c6.7-4.2,26.1,0.3,30.3,7
		c0.6,1,0.8,3.6,0.3,3.8c-1.7,1-4.1,2-5.8,1.6c-2.4-0.6-4.5-2.5-6.5-3.7c-1.8,7.1-3.3,14.4-5.6,21.5c-3.7,11.6-10.5,21.3-20.8,27.8
		c-6.5,4.2-10.4,9.6-13.2,16.8c-7.8,20-21.3,34.4-43.2,38.1c-29.8,4.9-56.3-5-69.4-35.6c-0.7-1.5-1.5-3-1.9-4.6
		c-1.5-6.3-5.6-9.9-11-13.2c-16.3-9.7-27.7-30.2-28.3-50.4c-2.5,1.4-4.6,3.1-7,3.7c-2,0.5-5.2,0.6-6.4-0.6c-2.5-2.4-0.5-4.7,1.8-6.5
		c8.3-6.4,17.8-8.1,27.8-6.6c1.7,0.3,3.2,2.6,4.7,4c-1.7,1.1-3.2,2.6-5,3c-2.7,0.7-5.5,0.6-9,0.9c0.4,3.3,0.4,6.3,1,9.2
		c7.8,35.8,45.9,54.6,79.1,39.2c2.9-1.4,4.4-3,4.3-6.4c-0.2-6.3-0.1-12.7,0.1-19c0.1-3.5-1.3-5-4.7-5.5c-14-2.1-24.4-10.1-32.8-21
		c-9.2-11.9-8.3-23.3,2.6-33.8c9.8-9.4,21.9-12.1,34.9-12.3c10.5-0.2,21,0.4,30.9,4.7c13,5.6,20.7,15.6,19.2,27.3
		c-0.8,5.8-3.6,11.8-7,16.6c-7.2,10-17.5,15.8-29.6,18.1c-3.7,0.7-5.3,2.1-5.1,6.2c0.4,6-0.1,12,0.2,18c0.1,1.8,1.3,4.4,2.7,5.2
		c17.1,8.9,34.8,12,52.5,2.2c18.2-10.1,28.5-25.6,29.3-46.8C594,416.4,593.7,415.9,593.5,415z M517.7,403.1c0-0.4,0.1-0.9,0.1-1.3
		c6.7,0,13.3-0.3,20,0.1c4.5,0.3,5.5-1.7,5.2-5.6c-0.6-8.6-5.5-14.4-13.1-17.3c-17.1-6.7-34.4-6.7-51.6-0.2
		c-5.6,2.1-10,5.9-12.1,11.9c-2.4,7.2-1.7,8.2,5.9,8.6c3.8,0.2,7.6,0.7,11.4,1C495,401.3,506.4,402.2,517.7,403.1z M465.1,493.1
		c2.7,3.2,4.8,6.6,7.8,9.1c18.1,15.6,47.3,16.3,66.2,1.6c2.6-2,4.7-4.7,6.9-7.2c1.7-1.9,1.2-3.5-1-4.8c-9.7-5.7-19.8-7.8-30.4-2.7
		c-2.8,1.3-5.4,3.1-8.3,4.8C493.1,485.2,479.7,482.9,465.1,493.1z"/>
	<path d="M559.1,357.4c0.2-6.2,1.6-12.3,6-17.3c5.3-6,12.4-5.9,17.7,0.1c7.7,8.8,7.6,26.6-0.2,35.3c-5.4,5.9-12.5,5.9-17.7-0.2
		C560.6,370.3,559.2,364.2,559.1,357.4z"/>
	<path d="M452,358.1c-0.1,6.4-1.5,12.5-5.8,17.6c-5.1,5.9-12,5.9-17.2-0.1c-7.8-8.9-7.8-27-0.1-35.8c5-5.7,11.8-5.9,16.9-0.3
		C450.4,344.8,451.8,351.2,452,358.1z"/>
	<path d="M439.4,281.7c0.8,0.2,3.2,0.2,4.9,1.3c1.5,1,3.5,3.6,3.1,4.8c-0.5,1.6-2.9,3.3-4.8,3.8c-4.5,1-9.2,1.1-13.7,1.9
		c-5.1,0.9-9.2,3.6-12.2,8c-0.7,1.1-1.6,2.3-2.7,2.9c-1.3,0.7-2.8,0.7-4.3,1c-0.2-1.6-1-3.5-0.5-4.8
		C413.7,289.9,426.3,281.8,439.4,281.7z"/>
	<path d="M572.5,281c11,0,26.6,11,29.9,20.8c0.3,0.9,0.2,2.6-0.3,3c-0.9,0.6-2.5,1-3.5,0.6c-1.2-0.4-2.2-1.5-3-2.5
		c-6.5-7.9-15.3-11.3-25.1-12.6c-2.6-0.4-6.9,0.4-6.1-3.6c0.4-2.2,4.2-3.8,6.6-5.5C571.4,280.8,572.2,281.1,572.5,281z"/>
</g>
</svg>
