<?xml version="1.0" encoding="utf-8"?>
<!-- Generator: Adobe Illustrator 18.1.1, SVG Export Plug-In . SVG Version: 6.00 Build 0)  -->
<svg version="1.1" id="Layer_1" xmlns="http://www.w3.org/2000/svg" xmlns:xlink="http://www.w3.org/1999/xlink" x="0px" y="0px"
	 viewBox="0 0 1024 1024" enable-background="new 0 0 1024 1024" xml:space="preserve">
<g>
	<path d="M580.6,301.4c1.1-10,0.2-18.9-2.3-27.8c-4.4-15.9-9.5-31.6-12.6-47.7c-4.9-25.3-0.3-49.8,12.1-72
		c13.6-24.4,36.2-36,63.4-38.7c10.8-1.1,21.6-0.8,32.2,2.4c22.8,6.9,38,21.8,44.8,44.4c2.3,7.5,6.4,13.2,11.5,18.5
		c13.2,13.7,29.7,22.3,46.9,29.8c4.9,2.1,9.8,4.2,14.7,6.2c4.4,1.8,7,5.1,7.4,9.8c0.5,4.8-1.8,8.4-5.7,10.9
		c-8.3,5.3-17.7,6.5-27.3,6.7c-20.6,0.5-40.3-4.2-59.6-10.9c-4.2-1.5-7.7-1.4-11.8,0.7c-6.2,3.2-12.6,6.2-19.3,8.2
		c-4.9,1.5-6.1,4-6.1,8.6c-0.2,16.8,4.1,32.3,12.6,46.6c7.2,12,14.8,23.7,21.9,35.8c12.9,21.7,21.4,44.7,21.4,70.3
		c0,23.2-10.8,53.5-44.4,66c-20.8,7.8-42.1,12.4-64,14.8c-60.3,6.5-120.4,4.3-180.6-1.5c-23.1-2.3-46-5.4-68.2-12.4
		c-7.9-2.5-15.8-5.4-23.3-8.7c-16.9-7.5-28.5-21-38.5-36c-5.2-7.8-9.3-16.2-14.6-23.8c-2.8-4.1-6.6-8-10.8-10.7
		c-15.6-9.8-25.8-23.8-33.2-40.2c-1.8-4-2.8-8.6-2.9-13c-0.1-5.2,2.8-6.5,7.7-4.7c3.6,1.4,7.2,2.7,10.8,3.8c3,0.9,6,1.6,9.2,2.4
		c-3.1-4.5-6.5-8.4-8.6-12.9c-1.3-2.8-1.8-7.1-0.7-9.8c1.6-3.7,5.8-3.1,9.7-2.8c13.6,1.2,27.3,3.1,40.8,2.6
		c8.8-0.3,17.6-4.4,26.3-6.9c38.1-10.9,75.7-23.6,114.8-30.5c34.4-6.1,68.1-2.9,100.7,9.5C563.9,291.4,571.8,296.7,580.6,301.4z
		 M537.8,411.4c-0.1,0.5-0.1,1-0.2,1.4c-3.2,0.3-6.4,0.9-9.6,0.9c-4.3,0-6.3,2.2-7.2,6.1c-2.2,9.8,4.2,19.2,14.2,19.3
		c16.3,0.2,32.2-2.3,46.7-10.5c20.7-11.8,28.6-32.6,20.6-55c-0.8-2.3-1.4-4.6-2.1-6.9c0.5-0.3,1.1-0.7,1.6-1
		c1.6,1.8,3.5,3.4,4.7,5.4c10,16.7,8,37-5.1,52c-11.1,12.8-25.7,19.7-41.7,22.9c-27.1,5.4-53.3,1-78.9-8.8c-3.4-1.3-7-2.7-10.5-2.9
		c-16.4-0.9-32.4-3.7-47.9-9.2c-4.5-1.6-7,0.7-8.6,3.6c-1.1,2-1.2,5.9,0.1,7.5c2.9,3.7,6.8,6.7,10.5,9.7c2.4,1.9,5.2,3.3,8,5
		c-3.9,3.6-12.6,1-19.1-5.9c-2.8-3-5.6-7.3-5.7-11.1c-0.1-3.9,3-8,4.8-12.1c-14.7-5.5-29.5-13.1-42.6-23.6c-6.7-5.4-14-9-22.1-11.9
		c-21.1-7.4-39.6-19.6-57.4-32.9c-1.7-1.3-3.6-2.6-5.6-3.1c-9.2-2.4-18.4-4.4-27.6-6.6c-1.6-0.4-3.2-1.1-5.4-1.9
		c9.3,25,27.2,40,49.9,50.3c2.3,1,4.8,1.7,6.7,3.2c1.5,1.2,3.5,3.8,3.1,5.1c-1,3.1-4,2.9-6.7,1.7c-1.7-0.8-3.5-1.6-6.3-2.8
		c5.4,8.7,10,16.3,14.8,23.8c8,12.5,18.1,22.8,31.8,28.7c11.7,5.1,23.7,9.9,36,13.2c29.8,7.9,60.4,9.7,91,11.9
		c50.6,3.7,101.2,3.1,151.7-2.8c21.8-2.6,43-7.3,62.7-17.4c18.2-9.4,26.6-24.7,28.5-44.5c1.9-19.1-1.8-37.5-9.9-54.4
		c-8.5-17.8-19.1-34.6-29-51.8c-10.8-18.6-18.8-37.8-13.9-59.5c-2.4-1-4.6-1.9-6.9-2.8c0-0.6-0.1-1.3-0.1-1.9
		c11.1-4.8,22.2-9.6,32.2-13.9c-2.8-3.3-6.5-6-7.5-9.4c-1.2-4.3,2.1-8,6.1-9.8c10.2-4.7,13.6-13.1,13.5-23.6c0-4.3,1.8-6.4,6.1-6.9
		c3.1-0.4,6-1.5,9.5-2.4c-5.8-15.6-12.1-29.9-25.3-40c-13.5-10.4-29-12.4-45.4-11.8c-22.3,0.8-41.2,9.3-54.7,26.7
		c-13.5,17.4-18.3,38.2-17.3,60.2c0.8,17.7,6.4,34.3,11.2,51.1c4.5,15.8,8.7,31.8,4.3,48.6c-1.4,5.3-5.9,10.9-11.1,11.4
		c-1.1,0.1-2.6-0.4-3.4-1.2c-0.4-0.4,0-2.2,0.6-3c1.5-2.5,3.3-4.8,4.8-6.9c-0.6-0.8-0.6-1-0.8-1c-1.6-0.9-3.2-1.8-4.8-2.7
		c-35.6-21.8-74.5-26.4-114.6-19.8c-25.5,4.2-50.5,12-75.7,18.2c-4,1-8,2.3-12,3.5c-4,1.1-7.9,2.3-13.2,3.8c2.5,0.8,3.5,1.2,4.7,1.4
		c20.4,3.3,40.7,6.4,61.1,9.8c5.6,0.9,9.7,0.8,12.5-5.7c2.8-6.3,10.3-9.4,15.8-8.1c-1.4,1.1-2.4,2-3.6,2.9
		c-12.7,9.7-12.2,22.8,1.2,31.4c12,7.6,25.2,8.5,39,7.7c-0.6-2.6-1.2-4.9-1.5-7.2c-1.3-8.9,3.6-17.5,11.5-19.9
		c1.4-0.4,3.2,0.1,4.8,0.2c-0.9,2.4-1.9,3.3-2.9,4.1c-9.7,8.6-9.4,20.7,1.1,28.4c8.4,6.3,17.8,10.4,28.6,10.2c1.8,0,3.6,0.6,5.4,0.9
		c-1.1,1.6-2.3,2.1-3.5,2.3c-4.9,1.1-10,1.5-14.6,3.3c-14,5.4-15.8,18-3.5,26.6c5.6,3.9,12.5,5.8,18.9,8.6
		C534.7,410.3,536.3,410.8,537.8,411.4z M520.3,411.8c-9.6-3.7-17.5-8.9-19.9-19.1c-2.5-10.7,2.1-18.2,10.8-22.3
		c-6.4-4.3-12.5-8.5-18.7-12.5c-1-0.7-2.8-0.6-4.1-0.4c-10,1.5-20.1,1.9-29.5-2c-6.8-2.8-11.4-0.7-16.1,3.6
		c-7.7,6.9-7.4,14.8,0.9,21c6.4,4.8,13.7,7.5,21.7,8.2c6.7,0.6,13.3,1.1,20,1.7c0.1,0.5,0.2,1,0.3,1.5c-1.8,0.9-3.6,2.3-5.5,2.6
		c-3.9,0.6-7.9,1-11.9,1c-5.5-0.1-8.7,2.8-11,7.2c-2.1,4.2-1.1,8.4,2.1,11.5c3.9,3.8,8,7.7,12.8,10.2c15.4,8.1,32,13,49.4,14.9
		C512.4,425.1,512.2,421.8,520.3,411.8z M316,336.8c0.6-0.5,1.2-1,1.9-1.5c14.8,16.2,33,27.2,53.2,35c20.4,7.9,41.7,10,64,10.4
		c-4.5-7-5-14-1.8-21.6c-4-0.3-7.3-0.8-10.6-0.9c-22.9-1-45.5-4.4-67-12.5c-10.8-4.1-21.1-9.6-31.4-15c-2.2-1.1-3.2-4.3-5-6.9
		c-15-0.7-31.4-1.5-48.6-2.3c21.3,26.8,49,43.7,78.9,57.6c-2-3.6-3.8-7.1-5.9-10.4c-1.7-2.7-3.5-5.5-5.8-7.7
		c-5.6-5.5-11.6-10.4-17.1-16C318.6,342.8,317.6,339.5,316,336.8z M688.2,216.2c1,0.8,1.4,1.4,2,1.6c17.3,5.3,34.4,11.4,52,15.6
		c14.2,3.4,28.8,2,42.8-2.8c1.6-0.5,4-2.3,3.9-3.1c-0.2-1.7-1.9-3.3-3.2-4.6c-0.8-0.8-2-1.1-3.1-1.5c-23.2-8.5-44.6-19.9-62.1-37.9
		c-0.8-0.9-3-1.2-4.2-0.8c-3.1,0.9-6.1,2.4-9.5,3.8C708.7,201.1,699.4,209.1,688.2,216.2z M349.1,368.7
		c29.2,33,67.4,48.9,109.7,57.2c-11.5-16.5-12-21-4-31.4c-0.8-0.8-1.5-1.8-2.5-2.3c-6.9-3-13.4-6.4-21.6-6.2
		C402.2,386.9,374.7,382.4,349.1,368.7z M444.2,350.2c-3.6-5-7.6-8.6-9.1-13.1c-1.9-5.6-5.3-6.4-10.3-6.9
		c-24.9-2.6-49.6-5.8-73.5-13.7c-1.5-0.5-3.4-0.9-4.9-0.5c-6.9,2-13.8,4.2-21.2,6.5c0.9,0.9,1.2,1.3,1.6,1.5
		c17.8,9.6,36.4,17.7,56.2,21.7c17.2,3.4,34.9,4.3,52.5,6.1C438.3,352,441.2,350.7,444.2,350.2z"/>
	<path d="M727.7,595.6c7.4,7,13.3,15.4,15.9,25.9c4.2,17.2-3.1,35.2-18.1,44.6c-9.2,5.8-19.3,9-29.9,10.5
		c-20.1,2.7-40.2,6.4-60.6,4.4c-18.9-1.9-38.1-4.5-55.1-13.1c-17.3-8.8-30.4-22.6-36.2-42c-0.6-1.9-1-3.9-1.1-5.9
		c-0.4-7.7,3.4-10.3,10.2-6.8c0.6-2,1.1-3.9,1.6-5.8c1.6-5.4,4.6-7.3,9.2-4.2c5.9,4,9.9,1.2,14.3-1.8c11.5-8.1,23.5-15.2,37.4-18.4
		c15.4-3.5,30.7-3.2,46,0.6c0.6,0.2,1.2,0.2,1,0.2c-2.8-6.9-6.7-13.7-8.2-20.9c-5.2-24.8,9.3-46.2,34.8-52.8c9.9-2.6,19.8-3,29.6,0
		c14.5,4.4,24.3,13.8,28,28.6c2.5,10,8.5,15.9,17.7,19.2c5,1.8,10.2,3.2,15,5.4c2.4,1.1,5.6,3.8,5.7,5.9c0.1,2.4-2.3,5.9-4.6,7.3
		c-8.4,5-17.9,5.2-27.2,3.9c-5.8-0.8-9.6,0.4-13.4,4.8C736.6,589.1,732.1,591.9,727.7,595.6z M736.5,577.2
		c-6.4-3.4-5.4-8.1-3.4-13.1c1.3-3.1,2.1-6.3,3.5-9.3c0.7-1.6,1.9-3.5,3.4-4c3.2-1.1,2.6-3,1.7-5c-9.8-20.8-19.4-30.1-43.2-28.8
		c-20.4,1.1-36.7,18-36.5,38.4c0.1,15.3,8,26.7,18.6,36.8c1.5,1.4,1.7,4.1,2.5,6.2c-2.1,0.1-4.5,0.9-6.3,0.2
		c-5.8-2-11.2-5.3-17.1-6.7c-27.2-6.4-52.2-1.3-74.9,15c-7.2,5.2-14.5,9.9-23.7,3.2c-0.3,0.3-0.7,0.6-1,0.9
		c0.7,3.4,1.3,6.9,2.2,11.2c-4.3,4.4-8.4-0.4-12.6-2.4c-0.2,0.3-0.3,0.5-0.3,0.6c0.1,0.5,0.2,1,0.3,1.4
		c6.7,19.5,19.9,32.7,39.1,40.1c26.3,10.2,53.7,13.1,81.5,10c14-1.6,28.2-3.5,41.6-7.6c22.9-7.1,31.2-29.5,19.5-50.6
		c-3.6-6.5-9.4-11.9-14-17.9c-0.9-1.1-1.7-2.4-1.8-3.7c-0.1-0.6,1.5-2,2.3-2.1C726.6,589.8,730,581.8,736.5,577.2z M738.9,569.6
		c12.6,3.4,24.8,5.3,36.9,0.6c-10.8-5.1-21.5-10.2-32.1-15.2C742.4,559,740.8,564,738.9,569.6z"/>
	<path d="M555.4,782.6c9.4,10.8,11.4,23.4,7.8,37.2c-3.3,12.2-11.6,20.3-22.3,26.3c-14.1,7.9-29.7,10.9-45.4,12.5
		c-25.8,2.7-51.3,0.4-75.8-8.6c-17.8-6.6-33.4-16.6-45-32c-6.6-8.7-11-18.2-10.6-29.5c0.2-4.2,1.6-7.2,6.5-6.6
		c0.2-0.4,0.5-0.7,0.5-1c-0.5-11,1.1-10.4,9.7-7.4c7.6,2.7,14.9,1.1,22.3-2.1c12.9-5.6,25.9-11.5,39.3-15.6
		c17.2-5.2,34.3-2.1,50.6,4.9c1.1,0.5,2.1,1,3.2,1.4c0.1,0.1,0.3,0-0.1,0c-0.9-7.3-2.7-14.7-2.4-22c1.1-30.3,25.8-41.7,47-40.7
		c20.3,0.9,34.6,10.8,41.3,30.4c2.5,7.2,7.5,10.6,14.6,12c2.9,0.5,6.1,0.5,8.8,1.7c2.5,1.1,5.8,3.4,6.1,5.4c0.3,2.5-1.6,6.7-3.7,7.7
		c-5,2.4-10.6,4.4-16.1,4.5c-6.9,0.2-11.9,2.9-16.9,7C568.7,773.5,562,777.9,555.4,782.6z M573.6,760.4c-5.7-6.2-3.3-12.3-0.7-17.1
		c4.5-8.5,1.2-14.5-4-20.6c-1.7-2-3.5-4-5.5-5.8c-17-15.2-46.5-10.8-56.8,8.2c-7.9,14.6-5.3,29.7,6.9,46.5c1,1.4,1.4,3.3,2,5
		c-2.2,0.7-4.6,2.3-6.6,1.9c-2.6-0.5-5-2.5-7.3-4.1c-8.6-6.1-17.7-10.4-28.3-11.6c-19.2-2.2-37.4,1.4-54.8,9.6
		c-12.9,6.1-25.8,12.9-42.2,6.7c2.2,3.4,3.7,5.2,4.7,7.3c0.6,1.2,1.2,3.4,0.6,4c-0.9,1-2.9,1.5-4.4,1.5c-2-0.1-3.9-1-6.3-1.6
		c0.2,1.4,0.2,2.3,0.5,3.1c5.3,18.4,17.2,31.5,33.5,40.4c32.5,17.8,67.4,20.4,103.3,14.5c12.9-2.1,25.4-6,35.9-14.2
		c15.2-11.9,16-37.1,1.8-49.7c-3.3-2.9-3-5.3,0.4-7.4C555.3,771.8,564.2,766.2,573.6,760.4z M601.9,751.4
		c-7.6-2.5-14.6-4.9-22.1-7.3c-0.7,2.6-1.5,5.7-2.5,9.3C586,755.2,593.8,753.7,601.9,751.4z"/>
	<path d="M267.8,612.3c0.3-2.1,0.3-3.7,0.7-5.3c1.2-5,2.9-5.3,7.9-4c4.3,1.1,9,1.1,13.5,0.9c2.6-0.1,5.1-1.4,7.6-2.4
		c33.8-13.6,66.1-10.3,97.1,8.3c1.7,1,4,1,6.1,1.5c-0.2-2.2,0.2-4.7-0.8-6.5c-8-14-6.8-28.2-0.4-42.2c6.4-14.1,18.8-20,33-23.1
		c12.8-2.8,24.7-0.7,36,6.1c9.9,6,15.8,14.6,17.3,26.1c0.7,5.9,3.8,9.8,9,12.2c5.7,2.7,11.5,5.4,17.2,8c3.7,1.7,7.8,3.6,7.1,8.4
		c-0.7,5-5.2,7-9.6,7.3c-7.8,0.5-15.6,0.2-23.4,0.5c-1.9,0.1-4,0.4-5.6,1.3c-8,4.4-15.8,9.1-23.2,13.5c1.5,6.1,4,12.5,4.6,19.2
		c1.9,21.9-15.8,43.5-38.7,47.5c-28,5-56.3,6.3-84.5,2.4c-18.6-2.5-35.9-8.7-51-20.1c-15.5-11.6-24.9-27-28.7-45.9
		c-0.5-2.6-0.6-5.3-0.5-7.9C258.6,610.5,260.8,609.1,267.8,612.3z M472.5,606c-0.5-0.5-0.9-1-1.4-1.5c0.2-2.9-0.1-6,0.7-8.7
		c1.8-6.1,4.4-11.9,6.1-17.9c0.7-2.4,0.8-5.4,0-7.6c-5.2-14.6-16.1-21.9-31.1-23.7c-27.3-3.2-50,21.9-42.9,47.5
		c1.1,4,3.4,7.6,4.9,11.5c2.1,5.5,0.3,9.5-4.7,12.6c-4.4,2.7-7.8,0.7-11.5-1.4c-24.8-14.5-51.3-18.4-79.4-12.2
		c-12.6,2.8-24.2,10.5-37.5,6.3c0.4,3.4,0.8,6.1,1.2,8.9c-3.9,0.3-7.7,0.5-11.9,0.8c0.1,0.4,0.2,1.8,0.5,3.2
		c7.1,29.8,26.7,48,55.2,56.2c30.9,8.9,62.6,7.7,94.1,3.2c9.4-1.3,18.1-4.3,25.3-10.9c14.4-13.2,18-33.6,8.3-47.9
		c-3.6-5.3-2.9-6.7,3.2-9.1C458.8,612.5,465.6,609.1,472.5,606z M508.3,598.5c-8.7-4.5-17.4-9-26.5-13.8c-1.3,3.7-2.8,8.1-4.2,12.3
		C485.9,600.9,502.6,601.5,508.3,598.5z"/>
	<path d="M303.1,843.8c14.1,0,28.3-0.5,42.4,0.2c8.4,0.4,16.7,2.6,25,4.3c2.7,0.6,5.3,2.1,7.6,3.6c11.1,7.2,10.8,18.2-0.1,25.6
		c-20.2,13.7-42.8,18.9-66.6,19.8c-27.9,1.1-55.7-0.1-81.9-11.6c-7-3.1-13.8-6.7-20.1-11c-9.5-6.5-13.7-16-11.5-27.3
		c0.8-4.1,3.1-8.5,6-11.6c11.5-12.6,27.1-17.8,43.1-21.6c26.7-6.5,53.4-6.2,80.2-0.2c1.1,0.3,2.3,0.5,3.4,0.9
		c6.7,2.3,8,6.7,2.2,10.6c-8.9,6-18.6,11-27.9,16.4c-0.7,0.4-1.4,0.7-2,1C303,843.1,303.1,843.5,303.1,843.8z M327.1,822.4
		c-0.1-0.5-0.2-0.9-0.4-1.4c-23.6-5.6-47.3-6.5-71.2-1.6c-15.3,3.2-30,7.6-41.9,18.5c-11,10-10.8,21.3,1.4,30.1
		c6.7,4.8,14.1,9,21.8,11.8c28.8,10.7,58.8,12.4,89,8.6c17.7-2.2,34.5-7.2,49-18.3c5.1-3.9,5.5-8.4,0.1-11.9c-1.6-1.1-3.5-2-5.4-2.5
		c-6.6-1.7-13.2-4.2-19.9-4.5c-17.8-0.9-35.6-0.9-53.4-1.3c-2.7-0.1-5.4,0.1-8-0.3c-1.2-0.2-2.6-1.5-3-2.7c-0.3-0.7,1-2.4,2-3
		c2.4-1.5,5-2.7,7.5-4C305.5,834.1,316.3,828.3,327.1,822.4z"/>
	<path d="M397,144.6c1.4,0.6,2.9,1.2,4.3,1.9c7.4,4.2,14.9,8,21.9,12.7c5.4,3.6,4.9,7.4-1.3,9.7c-9.7,3.4-19.5,7.1-29.6,8.7
		c-36,5.4-71.4,2.4-105.9-9.7c-5.9-2.1-11.6-5-16.9-8.4c-12.4-7.9-13.4-21.7-2.4-31.5c8.8-7.9,19.7-11.8,30.9-14.5
		c39.3-9.3,78.8-11.1,118.2-1.4c8.1,2,15.7,6.2,23.1,10.2c5,2.7,8.7,7.3,9.7,13.3c1.2,7.8-2.3,11.9-10.2,11.4
		c-11.8-0.7-23.6-1.7-35.4-2.6c-2.1-0.2-4.2-0.4-6.3-0.6C397.1,144.1,397,144.4,397,144.6z M441.9,138.6c-0.3-5-1.7-8.1-7.1-10.7
		c-7.9-3.8-16-7.6-24.4-9.8c-22.3-5.8-45.2-5.8-68-4c-14.4,1.2-28.9,2.9-42.9,6.1c-8.9,2-17.7,6.1-25.3,11.2
		c-10,6.7-9.2,15.6,0.9,22.3c3.9,2.5,8.1,4.6,12.4,6.4c16.9,7.1,34.8,10,53,11.4c26,2,51.4-0.5,77.4-8.4c-18.1-11.3-37.2-18-57.5-24
		c1.8-1.2,2.3-1.9,2.9-1.9C389.4,137.6,415.5,138.1,441.9,138.6z"/>
	<path d="M713,798.2c-9.9,1.1-19.7,2.2-29.6,3.2c-7.8,0.8-15.7,1-23.4,2.2c-13,2-18.8-13.6-14.1-21.8c4.8-8.1,11.6-13.7,19.8-17.7
		c15.8-7.9,32.8-11.7,50.3-13.8c26.9-3.1,53.5-1.7,79.7,5.7c10.6,3,20.2,7.8,28.1,15.6c11.7,11.5,12.3,26,1.6,38.4
		c-9.8,11.4-23.3,16.4-37.3,20c-29.3,7.6-58.9,8.2-88.6,2c-2.4-0.5-4.9-1.2-7.2-2.1c-6.5-2.7-7.6-7.9-2.6-12.9
		c2.7-2.7,5.9-4.8,9-7.1c4.9-3.7,9.8-7.2,14.6-10.9C713.3,798.7,713.1,798.4,713,798.2z M694.5,822.4c2.8,0.8,4.5,1.4,6.2,1.8
		c28.5,6.6,56.9,5.4,85-1.8c10.7-2.7,21-6.6,29.6-13.9c12.2-10.3,12.3-25.6-0.8-34.7c-7.2-5-15.7-8.9-24.1-11.5
		c-29-8.6-58.5-8.3-88.1-3c-13.7,2.5-27.1,6.2-38.5,14.5c-4.5,3.3-8.3,8.1-11.1,13c-2.5,4.5,1.1,9,6.3,8.9c8-0.2,16-0.7,23.9-1.3
		c14.8-1.1,29.5-2.4,44.3-3.4c1.8-0.1,3.6,0.5,6.9,1C720.5,802.6,707.9,812.2,694.5,822.4z"/>
	<path d="M296.4,241.9c12.6,0,25.9-0.3,39.1,0.2c3.8,0.1,7.8,2,11.2,3.8c7.9,4.3,9.9,12.8,3.6,19.2c-5.1,5.2-11.4,9.7-18,12.9
		c-20.9,10-43.4,10.8-66,9.5c-17.3-1-33.9-4.7-49.8-11.6c-3.2-1.4-6.3-3.1-9.1-5.1c-10.4-7.6-11.3-20-1.8-28.7
		c3.7-3.4,8.4-6.1,13.1-8.1c26.5-11.4,54.2-14.1,82.6-9.8c4.7,0.7,6.4,3.9,3.7,7.9C302.5,235.8,299,239,296.4,241.9z M295.8,232.1
		c-0.2-0.4-0.4-0.9-0.7-1.3c-1.1-0.2-2.2-0.4-3.3-0.5c-20.1-1.7-40,0.2-59.3,6c-6.6,2-13.2,5-18.8,8.9c-9.6,6.6-8,17.3,2.6,22.3
		c25.8,12.2,53.1,14.4,81.1,12c13.2-1.1,26-4.4,37.6-10.9c3.5-2,6.8-4.9,9.3-8c3.1-3.8,2.2-6.8-2.4-8.6c-3.3-1.4-7-2.9-10.5-2.8
		c-15.5,0.2-30.9,1.1-46.3,1.5c-3.2,0.1-7.8,3-9.4-1.4c-1.5-4.2,3.8-5,6.4-7C286.6,238.8,291.2,235.5,295.8,232.1z"/>
	<path d="M381,499.6c2.1-0.1,4.3-0.7,6.3-0.4c58.7,9.8,117.7,10.3,176.8,6.4c17.1-1.1,34.1-3.6,51.1-5.4c3.1-0.3,6.3-0.5,9.5-0.4
		c1.1,0,2.1,1.1,3.2,1.6c-0.8,0.9-1.5,2.3-2.5,2.6c-8,2.1-16,4.5-24.2,5.8c-37.1,6.2-74.6,6.8-112.1,5.7
		c-34.4-1-68.8-3.7-102.5-11.6c-2-0.5-3.9-1.4-5.8-2.1C380.9,501.1,381,500.4,381,499.6z"/>
	<path d="M298.8,427.6c-2.1,0.5-4.3,1.1-6.4,1.3c-14.2,1.8-28.6,2.9-41.7,9.3c-4.4,2.1-8.8,4.9-12.3,8.3c-4.6,4.4-4.3,9.9,1.3,12.9
		c8.8,4.8,18,9.4,27.6,12.4c18.9,6,38.6,8.6,58.4,10.1c4.8,0.4,9.6,1.1,14.3,1.9c1.6,0.3,3,1.4,4.5,2.1c-0.1,0.4-0.1,0.9-0.2,1.3
		c-1.5,0.3-3.1,0.8-4.6,0.8c-32,1-63.1-3.2-92.7-15.9c-5-2.1-9.7-5.1-14-8.5c-6.6-5.2-7.6-13-2.1-19.3c3.6-4.1,8.3-7.9,13.2-10.3
		c16-8,33.5-9.2,51.1-9.2c1.2,0,2.4,0.6,3.6,1C298.8,426.4,298.8,427,298.8,427.6z"/>
	<path d="M759,484.4c2.7-1.5,5.3-3.4,8.2-4.4c11-3.6,21.6-7.8,30.5-15.4c0.9-0.8,1.8-1.5,2.6-2.3c11.5-10.9,11.2-22.4-1.3-32.1
		c-12-9.3-26.2-13.4-41-16c-1.6-0.3-3.4-0.3-4.9-0.9c-1.9-0.8-3.6-2.1-5.4-3.2c2.1-0.6,4.1-1.8,6.2-1.7c4.5,0.2,9.1,0.4,13.3,1.8
		c10.8,3.6,22.2,6.4,32.1,11.9c22.2,12.5,23.1,33.3,3,49.1c-11.1,8.8-24.2,13-38,15.2c-1.5,0.2-3.2-0.3-4.8-0.4
		C759.4,485.5,759.2,485,759,484.4z"/>
	<path d="M564,889.6c-3.8,0.8-7.6,1.6-11.4,2.3c-28.3,5.5-56.6,4.3-85.1,0.8c-9.7-1.2-19.6-1.2-29.4-2.3c-2.9-0.3-8.1-3.2-8-3.6
		c1.4-4.6,5.4-2.4,8.4-2.2c22.3,1.4,44.5,3.4,66.8,4.3c10.8,0.5,21.6-0.9,32.4-1.4c7.7-0.3,15.3-0.4,23-0.5c1,0,2.1,0.5,3.1,0.8
		C563.9,888.5,564,889,564,889.6z"/>
	<path d="M525.4,865.9c3-0.6,5.9-1.4,8.9-1.7c18.1-1.7,36.1-4.2,53.3-10.2c6.5-2.3,12.9-5.4,18.9-9c7-4.1,7.8-9.8,1.4-14.9
		c-5.3-4.2-12-6.9-18.1-10c-2-1-4.5-1.2-6.6-2.1c-1.1-0.4-1.8-1.7-2.6-2.5c1.2-0.6,2.4-1.7,3.6-1.6c2.5,0.1,5.1,0.4,7.3,1.4
		c6.3,2.8,13,5.3,18.6,9.2c8.3,5.9,12.3,18-0.9,26.7c-12.1,8-25.6,12-39.6,14.3c-12.6,2-25.4,2.8-38.2,3.9c-1.9,0.2-3.9-0.6-5.8-0.9
		C525.3,867.6,525.4,866.7,525.4,865.9z"/>
	<path d="M273.3,692.7c-8,3.7-15.8,3.4-23.8,2.4c-12.4-1.6-24.8-3.5-36.1-9.2c-3.9-2-7.7-4.7-10.8-7.9c-5.6-5.7-5-11.6,1.1-16.7
		c8.6-7.4,19.2-9.5,30-11.2c4.3-0.7,8.7-0.8,13.1-1.1c0.2,0.6,0.4,1.2,0.5,1.9c-1.7,0.7-3.5,1.5-5.2,2.2c-10,3.6-20.3,6.5-29.8,11
		c-8.4,3.9-8.1,7.8,0,12.8c10.7,6.6,22.8,9.1,34.9,11.3c5.6,1,11.2,1.4,16.8,2.3C267.2,690.8,270.3,691.9,273.3,692.7z"/>
	<path d="M737.6,431.3c10.9-2.4,27.7,6.2,31,14.7c2,5.4,0.5,10.5-3.7,14c-4.1,3.5-8.8,6.6-13.6,9.1c-14.2,7.3-29.4,11.5-45.2,13
		c-1.7,0.2-3.6-1.1-5.3-1.6c1.5-1.4,2.9-3.6,4.7-4.1c11.4-3.7,23-6.6,34.3-10.6c6.2-2.2,12.1-5.6,17.5-9.3c5.7-3.9,5.8-8.3,0.4-12.6
		c-4.4-3.5-9.6-5.8-14.4-8.7C741.5,434.2,740.1,433,737.6,431.3z"/>
	<path d="M759.3,629.9c1.8-0.3,3.8-1.1,5.4-0.7c8.7,2.6,17.5,5.1,25.8,8.6c3.4,1.4,6.3,4.9,8.5,8.1c4.5,6.6,3.6,13.5-2.3,18.9
		c-3.1,2.8-6.9,5.4-10.8,6.9c-14.1,5.4-28.6,8.6-43.8,8.4c-2.1,0-4.1-0.8-6.2-1.2c0-0.7,0-1.3-0.1-2c2.2-0.6,4.4-1.4,6.7-1.9
		c10.9-2.4,21.8-4.6,32.6-7.2c4.3-1.1,8.5-2.9,12.4-5.1c9.2-5.2,9.6-11.7,1.3-18.4c-7.2-5.8-15.8-8.3-24.6-10.4
		c-1.8-0.4-3.4-1.4-5.1-2.1C759.1,631.3,759.2,630.6,759.3,629.9z"/>
	<path d="M760,701.1c-2.1,0.8-4.1,2.1-6.3,2.5c-30.7,6-61.6,8.8-92.8,4.3c-2.6-0.4-5.2-1-7.7-1.9c-1-0.3-1.6-1.7-2.4-2.7
		c1-0.6,2-1.6,3.1-1.7c2.6-0.2,5.3,0,8,0.3c26.9,2.5,53.5,0.1,80.2-3.4c4.4-0.6,9-0.7,13.4-0.8c1.6,0,3.1,0.9,4.7,1.4
		C760,699.9,760,700.5,760,701.1z"/>
	<path d="M389.3,523.8c-2.3,0.6-4.6,1.8-6.9,1.8c-18.8-0.2-37.6,0-56.4-1.1c-12.1-0.7-24-3.6-36-5.5c-1.3-0.2-2.7-0.4-3.8-1
		c-0.9-0.5-1.7-1.5-1.9-2.5c-0.1-0.5,1.2-1.7,2-1.8c2.1-0.3,4.3-0.5,6.4-0.2c27.7,3.8,55.5,7.1,83.6,6.8c4.2,0,8.4,0.6,12.7,1
		C389,522.1,389.1,522.9,389.3,523.8z"/>
	<path d="M420.4,700.9c2.6-0.8,4.3-1.5,6.1-1.9c14.5-3.6,29.1-7,43.5-10.9c4.1-1.1,8-3.4,11.4-6c6-4.4,5.9-8.7,0.2-13.4
		c-1.7-1.4-3.6-2.4-5.2-3.9c-0.7-0.7-1.4-2.5-1.1-2.9c0.7-0.9,2.3-1.8,3.2-1.5c6.1,1.5,11,4.7,13.4,10.8c2.2,5.5,0.4,10.3-3.5,14.1
		c-2.6,2.5-5.6,5-8.8,6.4c-17.2,7-34.7,12.8-53.7,11.3c-1.2-0.1-2.3-0.1-3.5-0.3C422.1,702.7,421.7,702.2,420.4,700.9z"/>
	<path d="M341.8,728.3c-4.2,0.6-8.4,2-12.6,1.7c-13.9-0.8-27.9-1.5-41.7-3.5c-12.1-1.8-24-3.3-36.2-1.8c-2.8,0.3-6.6,1.8-7.9-2.5
		c-0.1-0.4,4.5-2.8,7.1-3.2c12.3-2.1,24.4-1.1,36.7,0.6c16.1,2.3,32.4,3,48.7,4.6c2.1,0.2,4,1,6.1,1.6
		C341.9,726.6,341.9,727.5,341.8,728.3z"/>
	<path d="M757.2,903.2c-14.1,1.1-28.1,2.4-42.2,3.2c-7.1,0.4-14.3,0.2-21.5-0.1c-1.5-0.1-2.9-2-4.3-3.1c1.5-1,3-2.7,4.6-2.8
		c15.2-1.2,30.5-2.7,45.8-3.1c14-0.4,28,0.2,41.9,0.6c1.4,0,2.7,1.7,4,2.6c-1.3,0.9-2.5,2.5-3.9,2.6c-8.1,0.6-16.3,0.9-24.4,1.2
		C757.3,904,757.3,903.6,757.2,903.2z"/>
	<path d="M752.7,292.2c12.8,1.4,24,3,35.3,3.6c7.9,0.5,15.9-0.5,23.9-0.4c1.7,0,3.4,1.5,5.1,2.3c-1.5,1.3-2.9,3.6-4.4,3.6
		c-11.6,0.5-23.3,1.6-34.8,0.4c-16.4-1.7-32.8-3.4-49.3-2.7c-1.6,0.1-3.3-1.2-5-1.8c1.6-1.1,3.1-3,4.8-3.2
		C736.9,293.1,745.5,292.7,752.7,292.2z"/>
	<path d="M304.7,548.6c-2.8,0.8-5.6,1.9-8.5,2.3c-13,1.7-25.8,0.6-38.7-1.5c-11.3-1.8-22.8-2-34.2-3.2c-2.5-0.3-4.9-1.6-7.3-2.4
		c0.1-0.8,0.2-1.6,0.3-2.4c2.2-0.4,4.5-1.2,6.8-1.3c16.6-1,32.8,2,49.1,4.1c8,1,16.3,0.4,24.4,0.7c2.7,0.1,5.4,0.9,8.1,1.3
		C304.7,546.9,304.7,547.8,304.7,548.6z"/>
	<path d="M620.9,886.6c0.7-0.4,1.3-1.1,2-1.2c15-2.6,30-6.3,45.1-7.4c12.5-0.9,25.1,1.2,37.7,2.1c1.8,0.1,3.7,0.6,5.3,1.4
		c0.9,0.5,1.4,2,2,3c-1,0.6-2.1,1.7-3.1,1.7c-4.1-0.2-8.3-0.7-12.4-1.2c-20.4-2.5-40.5-1.1-60.4,3.5c-3.7,0.8-7.6,1-11.4,1.1
		c-1.7,0.1-3.4-0.8-5.1-1.2C620.8,887.8,620.9,887.2,620.9,886.6z"/>
	<path d="M414.9,930.9c-1.5,0.5-2.9,1.1-4.4,1.4c-12.7,2.1-25.4,2.9-38.2,0.1c-11.8-2.6-23.7-3.2-35.8-1.6c-2.9,0.4-6.7,1.7-7.8-2.6
		c-0.1-0.4,4.3-2.7,6.8-3.1c11.8-1.9,23.4-1.3,35.3,0.4c11.6,1.7,23.5,1.4,35.3,2.1c2.9,0.2,5.9,0.7,8.8,1.1
		C414.9,929.4,414.9,930.1,414.9,930.9z"/>
	<path d="M603.6,551.1c-2,0.9-3.9,2.5-6,2.7c-7.1,0.8-14.2,1.8-21.3,1.7c-15.1-0.2-30.2-1.1-45.3-1.7c-0.7,0-1.5,0.2-2-0.1
		c-1.6-0.9-3-2-4.5-3c1.3-1,2.6-2.7,4-2.8c7.6-0.6,15.2-1.3,22.9-1.2c15.5,0.2,30.9,1,46.4,1.5c1.9,0.1,3.8,0.6,5.7,1
		C603.5,549.9,603.6,550.5,603.6,551.1z"/>
	<path d="M406.8,216.6c2.7-0.9,5.3-2,8.1-2.5c14-2.7,28.2-2.2,42.3-0.9c6,0.6,12,0.5,17.9,0.7c2.2,0.1,4.4-0.1,6.5,0.3
		c1.1,0.2,2.1,1.3,3.1,2c-0.9,1.1-1.6,2.6-2.7,3.1c-1.6,0.7-3.6,1-5.3,1c-10.6-0.4-21.3-1.2-31.9-1.3c-9.8-0.1-19.6,0.5-29.4,0.7
		c-2.7,0.1-5.5-0.2-8.3-0.3C407,218.4,406.9,217.5,406.8,216.6z"/>
	<path d="M832.5,330.3c-8.7,7.2-52.2,6.9-61.3-0.4c2.6-0.9,4.5-2,6.4-2c16.6,0.1,33.2,0.5,49.8,0.9
		C828.9,328.8,830.3,329.6,832.5,330.3z"/>
	<path d="M443.1,723.8c-1.8,0.7-3.5,1.8-5.3,1.9c-13.6,0.3-27.2,0.5-40.8,0.5c-1.5,0-3.1-1.8-4.6-2.7c1.5-1,3.1-2.8,4.6-2.8
		c13.8-0.3,27.6-0.4,41.4-0.3c1.6,0,3.2,1.1,4.8,1.8C443.2,722.6,443.2,723.2,443.1,723.8z"/>
	<path d="M265.9,409.5c-1.5,0.3-3,0.9-4.6,1c-16.6,0.9-33.1,1.7-49.7,2.4c-1.5,0.1-3-1.2-4.5-1.9c1.3-1,2.6-2.7,4-2.8
		c16.5-0.9,33.1-1.7,49.7-2.3c1.7-0.1,3.5,1.2,5.3,1.9C266,408.4,266,408.9,265.9,409.5z"/>
	<path d="M533.6,670.9c13.6,1.7,26.3,3.2,40,4.9C567.6,682.7,537.2,678.8,533.6,670.9z"/>
	<path d="M579.6,412c-6.3,4.3-17.7,1.5-25.1-5.3c-7.3-6.7-8.1-14.8-2.3-25.2c-2.4-1.3-4.9-2.5-7.2-4c-8.2-5.3-11.8-14.7-8.6-22.3
		c1.9-4.4,5-7.6,10.1-7.5c1.2,0,2.4,1.2,3.7,1.8c-0.6,1-1,2.6-1.9,3c-8.3,3.6-6.7,13.2-2,18.1c2.4,2.5,5,4.9,7.7,7.1
		c0.8,0.7,2.3,0.7,3.5,0.6c1.8-0.2,3.6-1.1,5.3-1.1c1.1,0,2.2,1.2,3.3,1.8c-0.6,1-1.1,2.2-2,3c-1.1,1-2.6,1.5-3.8,2.4
		c-6.6,5.2-6.9,13-0.2,18.2c3.1,2.4,6.9,3.9,10.5,5.6C573.4,409.7,576.3,410.7,579.6,412z"/>
	<path d="M670.1,177.9c-0.2,8.9-4.7,13.6-12.6,13.3c-6.6-0.3-11.4-6.9-11.1-15.2c0.3-7.5,4.4-12.2,10.5-12
		C664.5,164.2,670.3,170.4,670.1,177.9z"/>
	<path d="M720.3,210.1c-2.4-2.7-4.8-4.2-4.8-5.7c-0.1-3.6,2.8-5.7,6.2-5.4c1.6,0.2,4.5,3.2,4.3,3.8
		C724.9,205.2,722.8,207.1,720.3,210.1z"/>
	<path d="M625.5,621.9c-3.2,0.9-5.1,1.6-7.1,2c-7.3,1.6-9.6,8.1-5.1,14c9.7,12.6,32.1,18.5,46.7,12.4c11.1-4.6,13.4-14.6,5.1-23.5
		c-1.8-1.9-4.2-3.4-5.8-5.5c-0.9-1.2-0.7-3.2-0.9-4.8c1.6,0,3.7-0.7,4.7,0c3.9,3.1,7.9,6.3,10.9,10.1c6.7,8.6,5.1,19.5-3.6,26
		c-13.3,9.9-28,9.2-42.9,4.6c-7.8-2.4-14.6-6.4-19.9-12.8c-3.8-4.6-5.7-9.7-3.9-15.7C606.9,618.8,614.6,615.8,625.5,621.9z"/>
	<path d="M713.7,543c3.6,0,7.6,3.7,7.7,7.2c0.2,4.5-5,9.8-9.6,9.8c-4.1,0.1-7-3.1-6.9-7.5C704.9,547.3,708.9,543,713.7,543z"/>
	<path d="M458.3,797.8c-7.8,8-17.2,5.6-27.3,5.1c1.3,2.9,1.9,5.1,3,7c9.7,15.2,32.6,23.5,49.8,18.2c10.2-3.1,14.6-12.1,11.1-21.9
		c-0.5-1.3,0.2-3.1,0.4-4.7c1.8,0.5,4.1,0.5,5.2,1.6c4.4,4.9,4.6,10.9,2.8,16.9c-3.7,11.8-13.3,15.6-24.2,16.9
		c-20.7,2.4-37.5-5.7-50.6-21.3c-2.6-3.1-3.7-8-4.4-12.3c-0.6-3.9,2.2-6.7,6.3-6.9c8.4-0.3,16.9-0.2,25.3-0.2
		C456.4,796.2,457,797,458.3,797.8z"/>
	<path d="M552.3,732.3c3.7,0,7.7,4.6,7.5,8.5c-0.2,3.8-4.9,8.2-8.7,8.1c-4-0.1-6.7-3.2-6.7-7.7C544.4,736.1,547.8,732.2,552.3,732.3
		z"/>
	<path d="M348.1,624c-2,1.2-3.9,2.9-6.1,3.6c-6.9,1.9-13.8,3.5-20.8,5.1c-4.5,1.1-5.9,2.9-3.1,6.9c3.9,5.5,8.1,11.2,13.4,15.1
		c10,7.3,21.4,11.7,34.3,8.4c11.6-3,15.2-9.6,12.1-21.1c-0.4-1.6,0.5-3.5,0.8-5.3c1.7,0.8,3.8,1.2,5,2.4c5.4,5.9,4.6,17.3-1.7,23.8
		c-8.2,8.4-18.7,10-29.6,8.5c-14.9-2-27.3-9.1-37.1-20.7c-3.8-4.5-6.1-9.5-6.1-15.4c0-4.3,2-7.1,6-8c8.9-2.1,17.8-4.1,26.8-5.9
		c1.8-0.4,3.9,0.6,5.9,1C347.9,622.9,348,623.5,348.1,624z"/>
	<path d="M445.9,578.9c0-5.1,2.9-8,8-7.9c4.8,0,8.5,2.8,8.5,6.5c0,4.2-5.2,8.8-9.8,8.8C448.2,586.2,445.9,583.7,445.9,578.9z"/>
	<path d="M230.5,848.2c7.3-3.9,39.9-2.6,44,1.7C268.8,852.2,233.7,850.8,230.5,848.2z"/>
	<path d="M249.2,873.1c8.4-5.8,16.8-11.6,25.3-17.3c0.7-0.5,2-0.1,3.1-0.1c-0.1,1.2,0.3,2.7-0.3,3.5c-1.1,1.4-2.6,2.6-4.1,3.5
		c-6.2,3.8-12.5,7.4-18.9,11c-1.3,0.7-3,0.8-4.5,1.2C249.6,874.3,249.4,873.7,249.2,873.1z"/>
	<path d="M315.7,879c-7.4-5.7-14-10.8-21.5-16.6C301.7,860.3,316,871.4,315.7,879z"/>
	<path d="M341.1,141.4c-13.4-3-26.8-6-40.8-9.1C305.6,126.8,337.5,133.5,341.1,141.4z"/>
	<path d="M336,147.3c-9.7,3.3-18.6,6.4-27.7,9.5C310.2,149.6,328.6,142.8,336,147.3z"/>
	<path d="M335.4,124.3c6,0.2,10.8,4.6,11.4,10.1C341.6,134.6,337,130.6,335.4,124.3z"/>
	<path d="M346.6,146.7c1.5,1.4,3.3,2.6,4.3,4.3c1.2,1.9,1.9,4.2,2.3,6.5c0.2,1.3-0.5,2.8-0.8,4.2c-1-0.9-2.5-1.6-3-2.8
		c-1.6-3.5-2.9-7.2-4.3-10.8C345.6,147.6,346.1,147.1,346.6,146.7z"/>
	<path d="M752.7,791.4c2.6-1,4.3-2.3,6-2.2c10.3,0.5,20.5,1.2,30.7,2.1c1.3,0.1,2.4,1.8,3.6,2.7c-1.3,0.8-2.6,2.4-3.8,2.3
		c-11.2-0.9-22.4-2-33.6-3.1C754.9,793.2,754.3,792.5,752.7,791.4z"/>
	<path d="M772.3,818.5c-1.1-0.5-2.3-0.8-3.2-1.6c-4.5-4.1-9.1-8.3-13.4-12.6c-1-1-1.3-2.7-2-4.1c1.6,0.1,3.6-0.3,4.7,0.5
		c4.1,2.8,8.2,5.7,11.7,9.2c1.8,1.8,2.4,4.9,3.6,7.5C773.3,817.8,772.8,818.2,772.3,818.5z"/>
	<path d="M743.7,783.3c0.2-2-0.2-4.4,0.9-5.7c1.4-1.7,3.9-2.5,5.9-3.7c0.5,1.3,1.8,3.2,1.4,3.8c-1.9,2.4-4.3,4.3-6.5,6.4
		C744.9,783.8,744.3,783.5,743.7,783.3z"/>
	<path d="M270,251.9c-1.2,0.3-2.5,0.8-3.7,0.8c-11.9-0.1-23.9-0.2-35.8-0.4c-1.2,0-2.5-1-3.7-1.6c1.3-0.7,2.5-1.8,3.8-1.9
		c11.1-0.3,22.2-0.5,33.3-0.6c2.2,0,4.4,1.1,6.6,1.6C270.2,250.6,270.1,251.3,270,251.9z"/>
	<path d="M255.7,268.7c5.1-5.2,10-9.6,17.8-9.7C271.7,263.7,260.8,269.8,255.7,268.7z"/>
</g>
</svg>
