<?xml version="1.0" encoding="utf-8"?>
<!-- Generator: Adobe Illustrator 18.1.1, SVG Export Plug-In . SVG Version: 6.00 Build 0)  -->
<svg version="1.1" id="Layer_1" xmlns="http://www.w3.org/2000/svg" xmlns:xlink="http://www.w3.org/1999/xlink" x="0px" y="0px"
	 viewBox="0 0 1024 1024" enable-background="new 0 0 1024 1024" xml:space="preserve">
<g>
	<path d="M238.3,521.4c-2.3,3.9-4.3,8.4-7.2,12.1c-8.1,10.3-17.4,9.1-23.3-2.6c-6.9-13.7-5-28,6.1-38.5c6.5-6.1,13.9-11.4,21.4-16.3
		c4.2-2.8,5.2-5.2,4.3-10.3c-1.4-7.9-2-16.3-1.1-24.2c1.3-11.3,7.1-20.7,16.4-27.6c3.8-2.8,5.4-5.8,4.6-10.9c-1-6.5-1-13.3-0.5-19.9
		c1.4-15.4,13.1-27.2,28.4-29c5.3-0.6,10.6-0.8,16-0.8c3,0,5.2-0.6,5.8-3.9c0.2-1.1,0.9-2.1,1.4-3.2c9.6-21.5,27.6-31.2,50.6-26.7
		c8.3,1.6,16.4,4.2,25.4,6.5c0.6-1.2,1.6-3.3,2.6-5.3c10.3-20.4,27.8-27.6,49.2-19.9c5,1.8,9.9,4,14.5,6.7c3.7,2.1,6.2,2.2,9.6-0.7
		c21.3-18.5,44.2-17.5,67.6-4.4c4.3,2.4,8.5,5.3,12.4,8.4c2.4,1.9,4.3,2,7.2,1c15.5-5.6,31.4-9.4,47.9-4.5c3.7,1.1,7.6,2.1,10.6,4.2
		c8,5.5,16.9,3.9,25.6,4.1c1.1,0,2.8-1.7,3.1-2.9c2.9-9.2,7.7-12.8,17.3-12.6c10.1,0.2,19.2,4,27.9,8.6c3.2,1.7,5.5,1.5,8.5-0.6
		c12.7-8.8,24.1-7.1,33.7,4.9c2.4,3.1,5,4.1,8.8,4.3c6.8,0.4,13.7,0.9,20.2,2.6c10,2.7,13.2,9.6,8.4,18.7c-2.8,5.3-2.8,9,0.6,14.3
		c6.8,10.4,3.6,18.1-8,22.6c-1.4,0.5-2.7,1.1-5.5,2.2c4,2.8,6.9,5.6,10.3,7.1c5.9,2.5,12.2,4.5,18.4,6.3c9.6,2.8,17.8,7.6,23.6,15.8
		c7.4,10.3,3.9,20.2-8.5,23.1c-11.4,2.7-21.8,1-30.8-7.1c-2.3-2.1-4.7-4-8.1-5.4c1.2,6.4,2.5,12.9,3.6,19.3
		c4.1,23.5,6.2,47,0.5,70.5c-6.6,27.5-21.8,47.6-50,55.7c-3.2,0.9-4.5,2.6-5,5.8c-3.1,18.7-13.1,31.6-31.4,37.8
		c-2.2,0.8-4.1,3.6-5.4,5.9c-2.9,4.9-4.9,10.2-7.9,14.9c-7.6,11.7-17.9,18.3-32.6,17.3c-9.5-0.7-10.1-0.3-12.7,8.7
		c-2.9,10-4.6,20.4-6.6,30.7c-0.3,1.7,0.8,3.8,1.4,5.6c2.5,7,5.2,14,7.7,21c0.6,1.7,0.5,3.6,0.4,5.4c-0.2,9.3-2.2,11.8-11.4,13.1
		c-4.6,0.7-9.3,1.2-13.9,1.4c-11.3,0.4-18.1-5.7-18.4-17c-0.4-15.2,0-30.3,0-45.5c0-2.9,0-5.9,0-9.1c-5.3,1.4-8.2,4.7-10.1,8.8
		c-4.4,9.3-4.9,19.3-4.4,29.3c0.1,1.5,0.9,3.3,1.8,4.5c7.7,10.3,7.7,22.1,6.3,34c-0.2,1.7-2.4,4.1-4,4.4c-7.9,1.6-15.9,3.4-24,3.6
		c-7.1,0.2-12-5.6-13.9-14.2c-0.8-3.9-0.9-7.9-1-11.9c-0.1-20.1,0-40.3,0-61.4c-2,1.6-3.4,2.9-4.9,4c-14.5,11.7-30.7,19.5-49.7,15.8
		c-7.5-1.5-14.4-6.4-21.6-9.7c-2.7-1.3-5.2-3.4-8-3.9c-8.7-1.8-13.2,1.2-14.9,10.1c-2,9.8-1.4,19.1,3.1,28.7
		c2.9,6.3,3.1,14.1,3.8,21.3c0.4,4.1-2.2,7.1-6.3,7.8c-7.4,1.2-14.8,2.7-22.2,2.6c-9.9-0.1-17.2-8.2-17-19.1
		c0.2-9.3,2-18.5,3.1-27.8c0.8-6.4,1.7-12.9,2.4-19.3c1-9.7-0.8-12.3-11.1-15.6c-3.7,7.4-5.5,15.5-6.4,23.7
		c-1.3,11.2,0.2,22.1,3.6,33c2.4,7.8,2.9,16.3,3.7,24.5c0.4,4.5-2.2,8-6.6,8.8c-7.6,1.4-15.4,2.7-23.1,2.8
		c-6.9,0.1-11.1-4.7-13.6-10.8c-3-7.3-2.2-14.9-1.8-22.6c1.2-22.4,1.8-44.9,2.7-67.3c0.1-3.2-1.7-3.6-4.4-4
		c-14.6-1.8-26.6-13.4-28.7-27.9c-0.5-3.7-2.2-5.6-5.3-7c-5.3-2.4-10.8-4.5-15.8-7.4c-15.3-9-20.3-21.1-16.8-38.4
		c0.4-1.7-0.1-4.4-1.2-5.5c-4.9-5-10.5-9.2-15.2-14.4C246.1,532.9,242.4,526.9,238.3,521.4z M459.4,320.9c-3.8-2.2-6.9-4.5-10.4-6
		c-7-3-14-6.4-21.3-8.1c-10.7-2.6-19.9,1.2-26.4,10c-3,4.1-5.2,8.9-7.3,13.6c-3,6.6-4,7-11,4.5c-7.6-2.8-15.3-5.8-23.3-7.3
		c-20.3-3.7-35.2,5.2-42.7,24.3c-0.7,1.7-1.5,3.4-2,5.1c-0.9,2.9-2.7,4.3-5.8,4.4c-6.3,0.1-12.7,0.4-19,0.9
		c-13.5,1-22.6,10.2-23,23.6c-0.2,7,0.1,14,1.2,20.9c0.8,4.8,0,7.7-4.1,10.4c-14.5,9.6-20.8,23.1-18.1,40.3c1,6.5,3,13,6,18.9
		c3.4,6.8,3.1,12.3-1.4,18.4c-7.6,10.4-7.4,20.9,0.6,31.2c4.2,5.5,8.7,11.5,14.4,15.1c9.6,6.1,11.8,13.4,9,23.8
		c-2.2,8.1,1,15.2,7.6,19.8c6.5,4.5,13.6,8.4,21,11.1c5.6,2.1,8.5,4.9,9.4,10.7c0.6,3.7,1.8,7.5,3.5,10.9
		c5.7,11.7,13.8,15.4,26.2,11.5c6.5-2.1,12.6-5.1,18.9-7.9c7.7-3.4,7.8-3.6,11.4,4.1c6.8,14.7,17.9,24.2,33.6,28.1
		c10,2.5,20.2,2.6,30.2,0.3c4.9-1.1,8.2-0.3,11.9,3.3c14.1,13.7,30.5,15.9,47.8,7.3c8.2-4.1,15.6-10.1,22.9-15.8
		c3.4-2.7,6.1-3.5,9.7-0.9c16.1,11.4,32.4,9.8,48-0.6c6.9-4.6,12.8-10.6,18.9-16.3c2.8-2.6,4.8-3.7,8.5-1.5c4.4,2.7,9.2,4.8,14,6.5
		c10.4,3.8,20.2,2,27.4-6.4c5.2-6.1,9.8-13.1,12.9-20.5c2.3-5.6,5.1-8.6,10.7-10.3c12.9-3.7,20.8-12.7,24.6-25.3
		c0.6-2.1,0.5-4.4,0.8-7c-7.4,0-13.9,0.5-20.3-0.1c-25.2-2.1-44.7-13.3-56.7-36.1c-7.1-13.5-9.9-28.2-10.7-43.3
		c-1-18.3,2.4-36.2,5.8-54c1.9-10.2,4.5-20.2,6.7-30.3c-0.5-0.4-0.9-0.7-1.4-1.1c-2.4,2.8-4.4,5.9-7.1,8.2
		c-5.5,4.5-11.2,9-17.4,12.4c-7.2,4-15.2,4.5-23.2,1.5c-13.3-5.1-15.7-16-5.6-26c6.4-6.4,14.4-9.9,23.1-12.2
		c8.9-2.4,17.7-5.6,26.4-8.8c2.2-0.8,4-2.9,6.3-4.7c-1.3-0.9-1.6-1.2-2.1-1.4c-16.6-5.1-19.8-17.1-7.8-28.6c1-1,0.9-3.8,0.4-5.5
		c-1.1-3.3-4.1-6.3-4-9.5c0.1-7.6-4.8-9.6-10.4-11.1c-3.3-0.9-6.9-1.4-10.3-1.6c-13.2-0.8-25.8,2.1-38,7.2c-2.8,1.2-4.8,1-7.2-0.9
		c-4.4-3.5-9-6.9-13.7-10c-21.5-13.8-43-11.9-61.6,5.3C463.5,317.1,461.6,318.9,459.4,320.9z M636.9,380c-0.2,0.3-0.8,1.5-1.3,2.7
		c-14.9,37-22.2,75.3-19.3,115.2c0.4,6.1,1.8,12.2,3.8,18c7.5,22.6,27.1,40.6,56.8,41.9c0-5.3-0.2-10.6,0.1-15.8
		c0.1-2.8-1-4.1-3.5-5.1c-5.7-2.3-11.4-4.7-16.8-7.5c-1.5-0.8-3.4-3.5-3-4.8c0.8-3,3.6-2.7,6.2-1.7c4.7,1.8,9.5,3.3,14,5.3
		c5.6,2.5,10.9,2.2,16.3-0.5c4.6-2.3,9.3-4.6,14.1-6.3c1.4-0.5,3.4,0.7,5.2,1.1c-0.5,1.7-0.6,4.1-1.7,4.9c-4.1,2.8-8.6,5.1-13,7.4
		c-10.2,5.3-10.7,6.2-9.8,17.5c0.3,3.5,1.6,5.2,5.3,5c20.4-1.3,37.4-8.9,49.1-26.4c7.7-11.5,11.2-24.4,12.8-37.9
		c3-25-0.9-49.5-6.7-73.7c-3.2-13.3-7.7-26.3-12-40.6c-7.8,6.6-15.5,9.5-23.8,8.6c-9-0.9-18-2.7-26.9-4.8
		c-5.3-1.3-10.1-2.7-15.5-0.3c-2.8,1.3-6.2,2.1-9.2,1.8C651.2,383,644.5,381.4,636.9,380z M627.2,323.7c0-0.1,0-0.2,0-0.3
		c-3,0.1-6,0.1-8.9,0.4c-3.1,0.3-4.2,1.9-2.1,4.7c1.8,2.4,3.5,4.9,5.4,7.1c2,2.4,1.9,4.3-0.3,6.5c-2.6,2.6-5.1,5.3-7.4,8.1
		c-3.9,4.9-3.2,8.2,2.7,10.2c5.6,1.9,11.5,3.4,17.4,4.2c3.6,0.5,6.2,1.5,8.2,4.6c3.7,5.6,9.2,7.4,15.7,6.4c2.9-0.4,6-1,8.7-2.2
		c5.7-2.5,10.8-1.7,16.7,0.1c9.1,2.7,18.7,4.5,28.2,5.3c4.2,0.3,9.4-1.8,12.7-4.5c4.3-3.5,8.4-4.4,13.6-4.8
		c5.5-0.4,11.1-1.8,16.4-3.4c3.3-1,4.6-3.7,2.2-7.1c-2.1-3-3.8-6.4-6.4-8.9c-3.2-3.1-2.8-5.4-0.3-8.5c1.8-2.2,3.3-4.6,4.6-7.1
		c1.8-3.5,1-6.4-3.1-7.1c-5.2-0.9-10.6-2-15.8-1.6c-8.3,0.6-14.1-1.4-19.1-8.7c-6.1-8.9-12.8-8.9-21.3-2.3c-1.4,1.1-3,2.2-4.2,3.5
		c-2.1,2.1-4,2.1-6.6,0.8c-6.8-3.5-13.6-7-20.8-9.7c-11.4-4.3-18.6-2.2-19.3,10.5c0,0.2-0.1,0.3-0.1,0.5c-0.4,3.3-2.3,4.6-5.5,4.2
		C634.8,324.3,631,324,627.2,323.7z M364.7,628.9c-4.6,2.2-9.5,4.6-14.5,6.7c-2.6,1.1-3.2,2.8-3.2,5.4c-0.2,14.7-0.7,29.3-0.9,44
		c-0.1,4.8-0.1,9.7,0.3,14.5c0.5,5.2,7.6,10.7,12.9,10.3c4.4-0.4,6-3.4,5.9-10.7c-0.1-6.8-0.6-13.7,0-20.5
		c0.7-7.7,2.1-15.5,3.8-23.1c1-4.5,4.8-8.9,4.3-13c-0.5-4.3-4.7-8.2-7.3-12.3C365.8,630,365.5,629.8,364.7,628.9z M598.8,697.9
		c0.1-1,0.2-2,0.2-3c-0.1-17.6,0.3-35,8.3-51.3c0.5-1-0.6-3.5-1.7-4.2c-2-1.2-4.1-3.6-7-0.7c-5.2,5.2-10.8,9.9-16,15.1
		c-1.1,1.1-2,3.1-2,4.7c-0.2,10.3-0.1,20.7-0.1,31c0,1.1,0.1,2.7,0.8,3.2C586.6,696.1,591.6,700.6,598.8,697.9z M531,659.8
		c-0.2,1.8-0.6,3.9-0.5,6c0.2,9.5,0.5,19,0.9,28.5c0.3,7.2,5.4,13.2,12.6,15c4.4,1.1,6.3-0.5,6.3-5c0-1-0.1-2-0.3-3
		c-2.3-11.1-0.9-21.9,2.4-32.5c0.7-2.2,1.9-4.5-2-5.2C544.1,662.5,537.8,661.2,531,659.8z M417.5,664c-5-1.1-9.2-1.9-13.4-3
		c-3.3-0.9-4.5,0.6-4.9,3.6c-1,8.3-1.9,16.5-3.4,24.7c-1,5.6,1.5,8.5,6.2,10.2c2.3,0.8,4.8,1.5,7.2,1.7c5,0.4,6.4-0.9,6-6
		C414.5,684.9,413.7,674.6,417.5,664z"/>
	<path d="M702.1,414.4c1.6-4,2.5-8.3,4.8-11.8c4.5-6.7,13.9-6.3,18.5,0.2c4.6,6.5,4.4,18.1-0.3,24.5c-5.1,6.9-14.3,6.9-18.7-0.5
		C704.4,423.4,703.6,419,702.1,414.4z"/>
	<path d="M671,415.2c-1.9,4.4-3.2,9.4-6,13.2c-3.9,5.5-10.8,5.4-15.6,0.7c-7.5-7.2-7.2-21.9,0.6-28.7c4.2-3.6,10-3.5,14.5,0.4
		C668.1,403.9,669.9,408.5,671,415.2z"/>
</g>
</svg>
