<?xml version="1.0" encoding="utf-8"?>
<!-- Generator: Adobe Illustrator 18.1.1, SVG Export Plug-In . SVG Version: 6.00 Build 0)  -->
<svg version="1.1" id="Layer_1" xmlns="http://www.w3.org/2000/svg" xmlns:xlink="http://www.w3.org/1999/xlink" x="0px" y="0px"
	 viewBox="0 0 1024 1024" enable-background="new 0 0 1024 1024" xml:space="preserve">
<g>
	<path d="M316.3,678.3c-7.2,3.3-13.4,6.1-19.6,8.9c-8.9,3.9-18.2,6.2-28.1,5.8c-12-0.5-15.9-5.8-12.5-17.1c0.3-1.1,0.7-2.3,1.3-3.3
		c9.8-17.4,13.6-36.7,18.7-55.6c16.7-62.3,38.8-122.6,71.4-178.4c12.4-21.2,28.5-40.1,43-60.1c5.4-7.4,11-14.7,15.9-22.3
		c7.8-12,11.1-25.5,11.4-39.8c0.5-21,1.1-42,8.1-62.2c18.5-53.9,67.9-89.9,123.5-89.1c32.4,0.4,58.9,13.8,79.4,38.8
		c2.4,2.9,4.4,3.6,8,2.6c15-4,30.2-7,45.8-6.5c2.6,0.1,6.6,1.3,7.5,3.2c1.1,2.3,0.6,6.5-1,8.7c-5.7,8-12.1,15.5-18.4,23
		c-6.7,8.1-13.6,16-20.4,24c-9.1,10.8-9.4,16.3-0.2,27.2c8.5,10.1,17.5,19.6,26.3,29.4c2,2.2,4.2,4.3,6,6.7
		c3.7,5.1,2.4,9.1-3.8,10.1c-8.5,1.4-17.2,2.3-25.8,2.8c-3.9,0.2-6.1,0.8-6.5,5.2c-0.3,3.1-1.3,6.2-2.5,9.1
		c-3.3,8.1-2.2,15.4,2.1,22.9c11.6,20.1,21.8,40.8,26,64c9.2,50.2-1.5,96.6-26.7,140.2c-22.5,38.9-54.5,68.2-93.7,89.8
		c-1.4,0.8-2.9,1.6-4.7,2.6c9.8,7.9,19.3,15.7,28.9,23.3c1.1,0.9,3.2,1.1,4.7,1c14.9-1,28.9,1.2,41,10.9c1.4,1.1,4.1,1.1,6.1,0.8
		c28.7-3.9,57.4-8,86.1-12c10.4-1.5,20.8-2.9,31.2-4.4c12.4-1.8,21.3,3.9,28.1,13.5c14.1,19.9,7.5,47.7-13.7,55.5
		c-7.8,2.9-16.6,3.3-25,4.5c-35.1,4.9-70.3,9.6-105.4,14.7c-3.6,0.5-7,2.6-10.5,4.1c-1.7,0.7-3.4,2.2-5,2.1
		c-6.6-0.5-12.1,2.4-18,4.5c-4.8,1.7-9.7,1.2-14.4-1.5c-2.2-1.2-5.2-2-7.7-1.7c-17.3,2.2-34.7,4.6-51.9,7.3c-3.6,0.6-7,2.7-10.4,4.2
		c-1.4,0.6-2.6,2.1-3.9,2.2c-6.9,0.2-12.5,4-18.6,6.3c-6,2.3-11.7,1.6-16.6-3.4c-1-1.1-3.2-1.8-4.7-1.6c-35.4,5-70.9,10-106.3,15.3
		c-1.8,0.3-3.8,2.9-4.6,4.8c-7.6,18.7-14.6,37.5-22.4,56.1c-4.9,11.7-11.2,22.8-21.2,31.1c-9.3,7.7-20.6,6.5-28.2-2.8
		c-0.6-0.8-1.2-1.6-1.9-2.5c-4.1,4.1-7.7,8.6-12.2,11.8c-4.1,2.9-9,5.2-13.9,6c-8.8,1.4-15.6-4.4-18.2-14.2c-0.8-3-1.1-6.1-1.7-9.2
		c-2.9,2.1-5.6,4.4-8.6,6.1c-10.5,5.9-20.3,0.9-21.8-11c-1.1-8.7,0.9-17.1,4.8-24.7c13.1-25.8,25.7-51.9,40-77.1
		c20.6-36.2,42.5-71.6,63.8-107.3C315.1,680.6,315.4,680,316.3,678.3z M444.8,677.4c6.3,6.3,6.3,6.3,14.8,5.6
		c3.8-0.3,7.6-0.6,11.4-1.2c79.7-13.3,138.2-56.1,174.4-128.1c16.8-33.5,23.8-69.5,18.6-107.2c-3.3-24-12.6-45.9-25.2-66.3
		c-7.6-12.4-9.4-24.6-3.4-37.9c1-2.3,1.4-4.9,2.1-7.7c-11.2-1.9-20.1-6.8-26.9-14.7c-6.6-7.7-12.8-15.7-18.8-24
		c-4.6-6.3-6.1-13.7-4.3-21.4c3.1-12.9,6.3-25.9,9.6-38.8c2.6-10.1,8.9-17.3,18.1-22.1c1.9-1,3.7-2,6-3.3
		c-17.9-20.5-39.7-33.3-66.7-34.3c-47.7-1.9-83.7,19-108.5,59.5c-14.1,23.1-18.8,48.5-17.8,75.2c0.9,24.3-6.9,45.4-21.9,64.3
		c-9.2,11.6-18.2,23.4-27.4,35c-27.2,34.3-45.6,73.4-60.8,114.1c-0.8,2.2-1,6.3,0.3,7.2c1.7,1.3,5.6,1.5,7.7,0.4
		c5.6-2.9,11.4-5.9,15.8-10.3c8.9-8.7,16.9-18.3,25.4-27.5c0.9-0.9,2.4-1.2,3.6-1.8c-0.1,1.3,0.2,2.9-0.3,4
		c-4.7,8.5-9.3,16.9-14.3,25.2c-2.7,4.4-3.2,8.5,0.1,12.4c3.5,4.2,8.2,3.7,12.3,1.4c5-2.8,10.1-5.9,14.3-9.8
		c11.7-10.8,21.4-23.3,29.3-37.1c1-1.7,2.4-3.1,3.6-4.7c0.5,0.3,0.9,0.5,1.4,0.8c-0.6,2.1-1,4.3-1.8,6.4
		c-4.7,12.2-11,23.5-19.1,33.8c-4.4,5.6-3,10.8,3.8,13.2c2.5,0.9,5.6,1.1,8.3,0.6c9.4-1.6,17.4-6.5,24.7-12.4
		c16.7-13.4,29.9-29.8,40.8-48.1c1-1.6,2-3.2,3-4.7c0.6,0.2,1.2,0.5,1.8,0.7c-0.8,3-1.2,6.2-2.3,9.1c-5.9,15.5-15.7,28.5-26.3,41
		c-3.6,4.2-1.9,9.3,3.5,10.6c1.9,0.4,4,0.4,5.9,0c8.9-1.6,16.7-5.7,23.6-11.3c17.3-13.9,29.8-31.4,36.9-52.4
		c10.1-29.8,5.3-56.5-18.1-78.7c-2.2-2.1-4.1-4.6-6.1-6.9c0.3-0.6,0.5-1.2,0.8-1.8c2.3,0.4,4.8,0.4,6.8,1.4
		c8.6,4.5,15.3,11.3,20.5,19.4c11.5,18,14.2,37.8,9.5,58.1c-12,50.8-35.8,95.1-75.1,130.4c-24.6,22.1-51.6,39.9-84.3,47.6
		c-3,0.7-5.7,2.6-8.3,4.4c-9.7,6.8-19.3,13.6-28.7,20.8c-3,2.2-5.7,5.2-7.6,8.3c-6.5,11.1-12.3,22.5-18.8,33.6
		c-22.3,38.6-45.4,76.9-67,115.9c-10,18-17.5,37.3-25.8,56.1c-1.3,3-1.6,6.8-1.4,10.3c0.2,4.6,3,6,6.7,3.4c3.2-2.3,6.2-5.1,8.8-8
		c12.7-14.6,21.2-31.9,30.1-48.8c21.6-41.1,42.8-82.4,64.1-123.7c0.9-1.8,2.1-3.5,3.2-5.3c0.4,0.2,0.8,0.4,1.1,0.5
		c-0.6,1.7-1,3.4-1.7,5c-9.5,21.4-18.5,43.1-28.8,64.2c-15.4,31.6-31.5,62.8-47.5,94c-3.9,7.5-6.5,14.8-5.3,23.3
		c0.8,5.5,0.9,11.8,6.8,14c5.9,2.2,9.9-2.7,13.5-6.5c9.8-10.5,18.5-22,24.5-35.1c11.8-26.1,23.3-52.3,34.7-78.5
		c1.5-3.5,1.9-7.7,1.8-11.5c-0.5-12.2,1.5-23.2,11.2-31.7c2.5-2.2,4.8-5,6.4-8c2.9-5.1,5.4-10.5,8-15.8c0.5,0.2,1,0.3,1.4,0.5
		c0.9,6.3-4.2,11.5-4.7,18c9-1.2,17.6-2.2,26.1-3.6c1.5-0.3,3.1-2.3,3.8-3.9c3.4-7.4,6.5-15,9.6-22.5c2.2-5.3,4.5-10.5,6.3-15
		c-10.4-3.7-20.3-7-30-10.8c-2.6-1-7.3-2.3-5.3-6.3c1.8-3.7,5.3-0.6,7.9,0.4c11.8,4.7,24,7.1,38,7.1c-6.7-6.3-12.6-11.9-19.3-18.3
		c6-0.4,9.7,2.8,13.8,4.4c3.9,1.5,8.1,3.2,12.2,3.1c19.6-0.3,36-8.5,49.9-22.1c1.2-1.2,2.3-2.6,3.7-3.2c1.2-0.5,3-0.4,4.1,0.3
		c0.6,0.4,0.8,2.6,0.3,3.5c-1.7,2.8-3.3,5.9-5.8,8C459.3,666.4,452,671.7,444.8,677.4z M277.2,682.9c0.5-0.1,1.4-0.2,2.4-0.5
		c15.3-4.2,28.9-12,42.2-20.2c47.7-29.3,88.7-66.4,124.8-109c1.4-1.6,2.9-3.1,4.4-4.6c0.3,0.3,0.7,0.7,1,1
		c-17.4,29.8-41.2,54.2-66.4,77.5c27.2-9.6,50.1-26,70.8-45.6c21-19.9,48.2-58,49.2-68.5c-2.2,2.4-4.1,4.6-6.2,6.8
		c-8.6,9.3-18.2,17.4-30.3,21.5c-5.6,1.9-12.2,3-17.9,2c-4.2-0.8-7.7-5.8-11-8.5c-7.8,4-16.1,9.1-25,12.6
		c-10.7,4.2-21.4,0.7-27.8-7.7c-0.9-1.2-1.7-2.3-2.3-3.2c-5.2,3.1-9.8,6.4-14.9,8.7c-9.6,4.4-19.2,0.5-23.8-9
		c-0.6-1.3-1.2-2.6-1.8-4c-15,11.9-24.3,11.7-31.6,4.3c-8.3,15.8-31.6,92-30.4,101.8c26.5-30.2,52.3-59.7,78.2-89.1
		c0.4,0.3,0.8,0.6,1.2,0.8c-0.9,1.9-1.6,3.9-2.8,5.6c-21.7,31.5-44.7,62-72.9,87.9c-10.2,9.4-13.4,21.6-19.4,34.6
		c4.8-2.2,8.5-3.4,11.6-5.4c8.2-5.3,16.6-10.5,24.3-16.6c34.5-27.3,65-58.7,93.8-91.8c1.4-1.6,2.2-3.5,3.3-5.3c0.7,0.5,1.3,1,2,1.5
		c0,1.1,0.4,2.4-0.1,3.1C367.5,610.9,327.5,652.5,277.2,682.9z M632.7,765.8c1.6-0.1,2.2-0.1,2.9-0.2c23.6-3.2,47.2-6.5,70.7-9.8
		c15.2-2.1,30.3-4.3,45.5-6.5c7.8-1.1,12.1-6.3,16.1-13.8c-29.5,3.1-57.8,6.1-86.1,9.1c-0.1-0.6-0.3-1.2-0.4-1.8
		c1.6-0.7,3-1.7,4.7-2c5.2-1.1,10.5-2.1,15.7-2.8c21.1-2.9,42.2-5.8,63.4-8.4c3.9-0.5,5.2-1.9,5-6c-0.8-16.6-14-27.6-30.7-25.3
		c-28.7,4-57.4,7.9-86.1,11.9c-7.3,1-14.6,2.1-22.4,3.3C642,731,643.2,747.9,632.7,765.8z M455.7,771.7c0.2,1,0.4,2,0.6,3
		c-4.2,1.1-8.4,2.4-12.6,3.2c-19.5,3.4-39.1,6.6-58.6,10c-1.5,0.3-3.5,1.3-4.1,2.5c-1.5,3.4-2.4,7.1-3.5,10.7c0.6,0,1.1,0.1,1.5,0.1
		c30.4-4.1,60.7-8.1,91.1-12.4c2.5-0.4,5.3-2.4,6.8-4.4c9.9-13.8,8.2-35.2-3.4-47.7c-2.9-3.1-5.9-4.2-10.1-3.5
		c-14.3,2.2-28.7,4-43.1,5.9c-17.3,2.3-34.5,4.7-52.7,7.1c9.5,10.1,12.7,21.9,13.8,34.9c13-1.5,25.4-2.8,37.7-4.4
		C431.3,775.1,443.5,773.4,455.7,771.7z M521.1,725.6c6,9,9.3,18,8.6,27.7c-0.7,9.2-3,18.3-4.6,27.4c16.6-2.3,34.1-4.6,51.5-7.4
		c3.1-0.5,6.7-3.1,8.6-5.7c8.6-12.1,7-30.7-3.2-43.8c-3.3-4.2-7-6.4-12.5-5c-3.2,0.8-6.6,0.9-9.9,1.4
		C547.1,721.8,534.6,723.6,521.1,725.6z M349,814.7c-6.4-7-11.7-12.7-16.9-18.3c-0.4,0.7-0.9,1.8-1.4,2.8
		c-12.5,28.3-24.9,56.6-37.4,84.9c-0.8,1.8-1.4,3.8-1.8,5.7c-0.9,4.2-0.2,8,3.6,10.6c3.9,2.6,7.8,1.7,11-1.1c3-2.6,6.1-5.4,8.1-8.7
		c6.2-10.8,12.6-21.5,17.6-32.9C338.4,843.1,343.7,828,349,814.7z M611.5,775.2c19.4-10.7,25.7-35.6,14-54
		c-10.2-16-24.9-23.1-43.7-21.2c-5.4,0.5-9.7-1-13.9-4.2c-8.4-6.3-16.9-12.5-25.4-18.5c-6-4.2-8-4-14.1,1.1
		c9.5,6.7,18.9,13.5,28.5,20.2c4.1,2.9,7.7,5.8,5.9,11.7c2-0.1,3.5-0.1,5-0.3c8.9-1.6,15.4,2.1,20.8,8.9c12.7,15.8,14,35,3.2,54.1
		c-1.2,2.2-2.5,4.4-4.1,7.1c8.7-0.2,13.7-4.8,17.5-11c10.1-16.5,7.8-39.1-5.4-53.3c-1.5-1.6-2.7-3.4-4.1-5.2
		c0.4-0.5,0.8-0.9,1.2-1.4c6.4,1,10.6,5.7,14.1,10.7C623.8,737.8,620.8,756.2,611.5,775.2z M420.2,683.1c2.3,1.8,3.7,2.9,5.1,4
		c9.1,7.2,18.2,14.5,27.4,21.7c4.5,3.5,6.1,7.7,4,13.1c-0.3,0.8-0.4,1.7-0.8,3.1c3.3-0.4,6.1-0.6,8.9-1.1c7.3-1.4,12.4,1.4,16.7,7.2
		c12.1,16.2,13.9,33.4,6.1,51.8c-2,4.7-4.6,9.1-7.2,14c8.1-0.9,13.5-5.1,16.7-11.6c11.6-22.9,11.5-44.2-10.3-62.5
		c3.1-0.4,5.7-0.6,7.7,0.5c7.6,3.9,12.4,10.5,15.4,18.3c5.3,13.5,3.6,26.8-1.2,40c-0.7,1.9-1.4,3.8-2.5,6.7
		c13.3-10.7,18.4-29.7,13.3-46.4c-5.6-18.2-21.3-29.7-40.3-29.9c-3.8,0-8.5-0.3-11.2-2.4c-10.6-8.5-20.6-17.9-30.9-26.9
		c-1-0.9-2.6-1.5-3.9-1.4C429.3,681.6,425.4,682.4,420.2,683.1z M678.4,210.2c-16.1-1.6-42.4,2.7-55.2,8.7
		c-9.9,4.6-16.9,11.7-19.8,22.4c-2.1,7.9-4.3,15.7-6.2,23.6c-0.8,3.5-1.1,7.2-1.6,10.8c0.4,0.1,0.8,0.3,1.2,0.4
		C623.7,254.4,650.5,232.7,678.4,210.2z M464.2,693.7c2.3,2.1,4.7,4.1,6.7,6.4c2.8,3.1,5.8,3.9,10,3.9c11.1-0.1,21.3,3.3,29.8,10.8
		c1.4,1.2,3.9,2.1,5.7,1.8c11.2-1.3,22.4-3,33.6-4.7c1.3-0.2,2.6-1.2,3.8-1.8c-0.8-1.3-1.4-2.9-2.6-3.8
		c-7.4-5.4-15.2-10.3-22.4-15.9c-8.6-6.8-17-8.5-27.9-4.7C489.5,689.8,476.9,691.1,464.2,693.7z M337.9,768.1
		c0.6,13.2,3.5,23.1,10.7,31.4c5.2,6,11.1,6.5,17,1.2c2.3-2,4.4-4.7,5.7-7.4c5.8-12.3,0.2-34.2-10.6-42.4
		c-7.3-5.5-15.7-3.8-19.4,4.6C339.2,760.1,338.6,765.4,337.9,768.1z M388.9,734.3c6-0.8,11.3-1.5,16.5-2.2c12.3-1.7,24.7-3.2,37-5.2
		c2-0.3,4.2-2.9,5.2-5c0.5-1-0.8-3.8-2-4.9c-9-7.7-18-15.2-27.3-22.5c-3.4-2.7-11.7-1.8-13,1.3C399.8,708.3,394.5,721,388.9,734.3z
		 M671.5,325.4c0.1-0.6,0.3-1.1,0.4-1.7c-24.9-13-49.8-26-74.8-39c-0.3,0.4-0.7,0.7-1,1.1c6.6,14.2,15.6,26.9,28.9,35.6
		C639.6,330.9,655.8,327.2,671.5,325.4z M658.3,307c-8-10.4-18.2-19-22.3-32.6c-1.3,1.7-2,2.8-2.9,3.7c-3.7,3.6-3.3,6.8,0.2,10.5
		C640.5,296.4,649.1,302,658.3,307z"/>
	<path d="M795.4,155.5c0-6.9,1.3-13.7-0.4-19.6c-1.7-5.9-6.4-10.9-9.8-16.4c-0.6,0.2-1.1,0.4-1.7,0.5c-1.5,7.7-3.1,15.4-4.4,23.2
		c-1.7,9.8-3.3,19.7-4.9,29.5c-2.6,15.5-22.1,25.1-36.1,17.7c-9.6-5.1-11.2-17.9-2.9-25.2c6.7-6,14.9-6.9,23.4-5.9
		c2.4,0.3,4.8,1,7.7,1.6c1.5-8.6,3-17,4.5-25.5c2-11.3,3.8-22.6,6-33.9c0.4-2,2-4.4,3.7-5.2c1.1-0.5,3.9,1.3,5.1,2.8
		c8.1,9.9,16.7,19.5,20.3,32.3c2.2,7.6-2,19.2-8.6,23.5C796.7,155.3,795.9,155.4,795.4,155.5z"/>
	<path d="M686.7,141.8c-1.7-14.8-3.4-28.8-5.1-42.8c-0.4-3.1-0.7-6.3-0.9-9.4c-0.3-5.4,1-6.9,6.4-5.5c10,2.6,19.8,5.6,29.6,8.9
		c1.8,0.6,4.2,3.5,3.9,4.9c-0.5,2.8-2,6.5-4.2,7.7c-3.1,1.7-7.3,1.9-11,1.7c-4.6-0.3-9.1-1.7-14.2-2.8c1.1,8.8,2.3,17.3,3.1,25.8
		c0.8,7.9,1.4,15.9,1.6,23.9c0.3,13.7-19.3,24.8-30.6,21.6c-5.4-1.5-8.8-5.4-9.9-10.9c-1.2-5.8,0.6-11,5-14.9c5.7-5,12.4-7.7,20-8.1
		C682.2,141.8,684,141.8,686.7,141.8z"/>
	<path d="M730.9,279.4c1.7-14.6,3.5-28.8,5.1-42.9c1.2-10.4,1.9-10.9,11-6c6.4,3.5,12.8,7,19.3,10.5c3.1,1.7,5.9,3.5,4.8,7.7
		c-1.1,4.3-4.3,6.8-8.4,6.2c-4.5-0.6-8.9-2.3-13.3-3.7c-2-0.6-3.9-1.7-6.5-2.8c-1.3,10.6-2.5,20.8-3.7,31c-0.3,2.6-0.6,5.3-0.9,7.9
		c-1.9,14.6-14.8,23.4-29.2,19.9c-5.1-1.2-8.9-3.9-10-9.2c-1.1-5.6-0.1-10.7,4.8-14.3c6.3-4.8,13.6-6,21.3-5.1
		C726.8,278.8,728.6,279.1,730.9,279.4z"/>
	<path d="M562.3,264.2c0.1,9.8-7.2,17.8-16.3,17.9c-9.2,0.1-16.9-8-17-17.9c-0.1-9.8,7.2-17.8,16.3-17.9
		C554.6,246.2,562.3,254.3,562.3,264.2z"/>
	<path d="M511.8,242.5c0.3-2.3,0.2-4.8,1-6.9c4.7-12.2,18.1-20.3,31.1-18.5c2.5,0.3,5,1.7,7.2,3c0.9,0.6,1.8,2.7,1.4,3.6
		c-0.4,1-2.2,2-3.4,2.1c-2.6,0.2-5.3-0.1-8-0.2c-10-0.4-17.6,4-23.4,12c-1.3,1.8-2.8,3.6-4.2,5.4C513,242.9,512.4,242.7,511.8,242.5
		z"/>
	<path d="M624.4,514.5c2.8-14.2,5.5-27.5,8.1-40.4C639.6,482.1,635.4,507.5,624.4,514.5z"/>
	<path d="M641.5,433.7c8.1,6.7,11.1,39.1,4,45.8C644.2,464.1,642.8,448.9,641.5,433.7z"/>
</g>
</svg>
