<?xml version="1.0" encoding="utf-8"?>
<!-- Generator: Adobe Illustrator 18.1.1, SVG Export Plug-In . SVG Version: 6.00 Build 0)  -->
<svg version="1.1" id="Layer_1" xmlns="http://www.w3.org/2000/svg" xmlns:xlink="http://www.w3.org/1999/xlink" x="0px" y="0px"
	 viewBox="0 0 1024 1024" enable-background="new 0 0 1024 1024" xml:space="preserve">
<g>
	<path d="M441,577.5c-1.3,2.8-2.6,5.6-3.9,8.5c-9.5,20.7-18.8,41.6-32.4,60.1c-3.5,4.7-8,8.9-12.9,12.3c-5.2,3.6-9.7,1.4-10.3-4.9
		c-0.5-5.2,0-10.7,1.3-15.8c2.1-8.3,5.3-16.3,8-24.5c-0.3-0.3-0.6-0.7-0.9-1c-1,1.4-1.9,3-3.1,4.1c-13.5,12.3-26.8,24.9-40.9,36.7
		c-5.8,4.8-12.9,8.3-19.7,11.7c-21.3,10.6-42.2,9.2-62.2-3.6c-35.3-22.6-55.7-55.2-62.8-96.1c-4.9-28.4-1.3-55.6,14.9-80
		c15.9-23.9,38.8-37.4,67-42c1.6-0.3,3.1-0.6,5.8-1.1c-3.2-2-5.4-3.4-7.7-4.6c-31.4-16.5-43.8-43.1-40.3-77.4
		c1.3-13.4,4.1-26.7,7.5-39.7c6.2-23.6,5.4-46.7-0.8-70.1c-4-15.1-8.6-30.3-6.4-46.2c0.9-6.9,2.1-13.9,4.7-20.3
		c8.6-21.8,24.4-29.2,46.8-22.7c26.4,7.7,49.1,22.2,69.7,40c44.3,38.3,73.2,86.7,91.6,141.7c12.9,38.7,17.6,78.5,17,119.1
		c0,0.6,0,1.3,0,2.7c5.5-3.9,11-5.9,11.7-13.9c0.7-9.5,4.9-17.6,15.3-20.8c1-0.3,2.1-2.2,2.3-3.4c5.8-38,9.6-76.1,0.1-114.1
		c-2.1-8.5-5.3-16.5-11.2-23.1c-0.7-0.7-1.2-1.6-1.8-2.4c-2.5-4.2-2-9.9,1.2-11.8c4.5-2.5,7.9,0.4,9.6,3.6c3.2,5.9,6.3,12.2,8,18.7
		c5.7,22.5,6.7,45.5,5.3,68.5c-1.2,20.1-3,40.2-4.8,60.3c-0.3,3.7,0.8,5.5,3.8,7.1c3.1,1.6,5.7,2.9,9.1,0.1
		c9-7.4,18.2-14.6,27.4-21.8c24.1-18.7,49.4-35.3,78.1-45.9c7.3-2.7,15.5-3.3,23.4-4.3c3.3-0.4,7.3,0.5,7.6,4.7
		c0.4,4.5-3.3,6.1-7.1,7.1c-1.4,0.4-3,0.5-4.5,0.3c-15.2-2.3-28.6,3-41.6,9.6c-27.2,13.8-51.3,32.2-75,51.2
		c-4.6,3.7-8.1,7.1-8.5,13.6c-0.4,6.5-4.8,11.9-10.2,15.4c-7.7,5.1-10.3,12.6-12,22.1c2.5-1.5,4.3-2.6,6.2-3.8
		c35.9-22.4,73.6-40.9,114.6-52.1c38.5-10.5,77.6-16.2,117.6-11.2c26.1,3.3,51.2,10.6,74.9,21.9c4.8,2.3,9.4,5.2,13.5,8.4
		c17.9,14.2,21.2,36.6,7.9,55.1c-11.6,16.2-26.9,28.6-44.3,38.2c-7.4,4.1-15,8-22.5,11.9c-12.5,6.4-23,15.1-31.8,26
		c-7.6,9.5-15.2,19.1-23.5,27.9c-23.9,25.1-52.9,30.2-84.3,15.6c-3-1.4-6-2.8-9.9-4.7c0.7,1.9,1,3.1,1.6,4.2
		c18,32.2,15.6,64.4-2.2,95.2c-20.7,35.8-53.4,53.9-94.5,56.4c-22.5,1.4-44.2-2.5-64.7-12c-24-11.3-36.3-30.5-37.4-56.9
		c-1.1-26.3,4.8-51.6,10.9-76.9c4.1-16.8,8.5-33.5,12.7-50.3C441.7,577.8,441.3,577.7,441,577.5z M450.5,489.9
		c0.6-0.3,1.2-0.6,1.7-0.9c-0.5-2.4-0.5-5.1-1.4-7.2c-1.9-4.2-4.6-8.1-6.6-12.3c-11.9-24.8-31.6-41.4-56.6-51.7
		c-16.5-6.7-33.4-12.3-50.4-17.7c-14.1-4.5-28.3-8.6-42.7-12.1c-9.1-2.2-14.4,2.9-14.2,12.3c0.2,11,6.3,18.6,15.5,23.4
		c6.7,3.5,14,6.2,21.4,8.2c44.4,11.7,86.9,27.8,125.1,53.8C444.8,487.4,447.8,488.5,450.5,489.9z M456.3,478.5
		c1.5-2.6,3.2-4.3,3.4-6.1c0.9-8.2,2.8-16.8,1.6-24.8c-3-19.5-6.8-39-11.6-58.1c-5.6-22.1-14.1-43.1-29.1-60.7
		c-4.4-5.1-9.6-9.7-14.9-13.9c-5.4-4.2-11.7-4.6-17.9-1.3c-6.1,3.3-9.1,9-8.5,15.8c0.5,5.2,1.5,10.7,3.7,15.4
		c8.4,17.3,17.2,34.5,26.4,51.4c6.9,12.5,14.9,24.4,22,36.9C439.7,447.6,447.6,462.5,456.3,478.5z M493.2,509.5
		c-0.1,0.5-0.1,1-0.2,1.5c1,0.5,1.9,1.1,2.9,1.6c19.3,8,37.5,18.4,54.2,30.8c23.1,17.2,45.3,35.5,68.1,53.2
		c4.4,3.4,9.3,6.6,14.5,8.7c10.5,4.3,21.9,0.5,26.7-8.1c2.8-4.9,2.5-9.5-1.2-13.3c-23.4-23.6-48.4-45.2-76.6-63
		c-16.3-10.3-33.3-17.4-53.2-14.5c-4.4,0.6-9,0.4-13.5,0.8C507.7,507.9,500.5,508.7,493.2,509.5z M495.8,502.4c1.4,0,2.2,0.1,3,0
		c14.4-1.4,28.8-2.8,43.2-4.3c27.5-3,55-5.6,82.3-9.4c10.2-1.4,20.7-4.1,29.9-8.6c11.5-5.5,11.3-19.6,0.2-26
		c-5.1-2.9-11.5-4.5-17.5-5c-20.3-1.4-40.1,2.4-59.4,8.7c-26.2,8.6-51.6,18.7-74.6,34.3C499.6,494.6,496.6,497.3,495.8,502.4z
		 M419.9,426.8c-0.6-1.2-1.2-2.7-2.1-4c-5.6-9-11.5-18-17-27.1c-9.2-15.1-22.1-25.7-38.5-31.8c-18.9-7-37.9-13.6-56.9-20.2
		c-8.8-3.1-18.8,1.5-23,10.1c-4.1,8.4-1.6,18.7,6.5,23.7c4.2,2.6,9,4.1,13.7,5.6c27.6,8.8,55.4,16.8,82.7,26.4
		C397.4,413.7,408.4,420.9,419.9,426.8z M564.8,501.8c-0.1,0.4-0.2,0.8-0.2,1.2c2.6,1.6,5.3,3.2,7.9,4.8
		c8.9,5.5,18.5,10.1,26.6,16.6c18.7,15,36.6,30.9,54.8,46.5c3,2.6,5.9,5.4,9.2,7.7c4.6,3.1,9.7,4.2,15.2,2
		c12.8-5.1,20.4-24.6,6.4-34.8c-18.5-13.5-37-27.2-55.8-40.4c-6.9-4.8-15-7.1-23.7-6.5c-10.5,0.7-20.9,1.2-31.4,1.8
		C570.8,501,567.8,501.5,564.8,501.8z M472.7,539.1c-0.7,0-1.3,0-2,0c-0.5,2-1.1,4.1-1.4,6.1c-7.3,46-14.8,91.9-21.9,138
		c-1.2,7.7-1.3,15.6-1.2,23.3c0,2.3,2.2,5.9,4.1,6.5c1.9,0.5,5.1-1.6,7.1-3.2c1.7-1.4,2.7-3.8,3.6-5.9c10.5-22.8,20-46.1,26.3-70.4
		c1.6-6.1,2.7-13,1.7-19.1c-3.2-18.7-7.6-37.1-11.6-55.6C475.9,552.2,474.2,545.6,472.7,539.1z M436.3,521.5
		c-0.2-0.5-0.5-0.9-0.7-1.4c-2.9,1.1-5.9,2.1-8.7,3.3c-17.9,7.7-35.7,15.4-53.5,23.3c-3.9,1.7-7.7,4-11,6.7
		c-20.2,17.2-36,38.2-51,59.8c-3.4,4.9-6.2,10.2-8.5,15.7c-3,7.2,1.1,12.1,8.8,10.6c2.5-0.5,5.1-1.7,7.1-3.3
		c3.8-2.9,7.4-6.2,10.9-9.5c35-34.2,69.9-68.5,104.8-102.8C435.1,523.3,435.7,522.4,436.3,521.5z M329.2,545.7
		c0.1,0.2,0.1,0.5,0.2,0.7c12.6-1.9,25.5-3,37.8-6c24.3-5.9,45.8-18.7,68.2-29.2c1.4-0.6,2.4-2,3.5-3.1c-1.5-0.7-3-1.7-4.6-1.9
		c-16.5-2.1-33-4-49.5-5.9c-8.8-1-17.8-3.9-26.5,0.1c-10.9,5-22,9.6-32.2,15.8c-6.5,3.9-12.2,9.8-17.1,15.8
		c-4.7,5.7-2.3,11.1,4.9,12.3C318.9,545.1,324.1,545.2,329.2,545.7z M478,528.5c0,2.1-0.1,2.8,0,3.4c5.2,23.4,9.9,46.9,15.6,70.2
		c4.2,17,11.9,32.5,24.4,45.2c2.9,2.9,6.2,5.5,10.6,3.8c4.2-1.6,5.3-5.6,5.3-9.4c-0.1-10.6,0-21.3-1.2-31.9
		c-1.6-14.9-5.5-29.1-16.1-40.6c-9.9-10.8-19.7-21.7-29.7-32.5C484.5,534,481.6,531.8,478,528.5z M440.9,498.7
		c0.1-0.5,0.1-1,0.2-1.4c-2.6-1.3-5.3-2.6-7.9-4c-2.8-1.5-5.6-3-8.3-4.6c-30-17.2-62.2-28.8-96-35.3c-10.4-2-21.2-1.9-31.8-2.4
		c-1.6-0.1-3.2,1.8-4.8,2.7c1.2,1.4,2.1,3.1,3.5,4.1c1.7,1.2,3.9,1.8,5.9,2.6c11.8,4.9,24.1,9.1,35.4,15
		c30.7,16,63.5,22.1,97.7,23.5C436.8,499.1,438.9,498.9,440.9,498.7z M382.6,365.6c-1.1-4.4-1.6-7.8-2.9-10.9
		c-1.8-4.5-4.3-8.6-6.2-13.1c-3-7-7.9-12.2-14.2-16.3c-12.6-8.2-26.2-13.9-40.9-16.5c-4.2-0.7-8.6-0.6-12.9,0
		c-5.9,0.8-9.1,5.1-10.7,10.6c-1.6,5.6,0.1,10.4,4.4,13.9c2.6,2.1,5.9,3.6,9.2,4.8c22.7,8.6,45.5,17.1,68.2,25.6
		C378,364.3,379.6,364.7,382.6,365.6z M630.6,498.5c8,5.5,15.6,10.3,22.8,15.6c11.9,8.8,23.6,18,35.4,26.9c4.3,3.3,9,5.5,14.3,2.6
		c5.7-3.1,8.9-8.1,8.8-14.6c-0.1-2.9-0.7-6-1.6-8.8c-8.8-27.7-51.4-42-75.4-25.5C633.6,495.6,632.4,496.9,630.6,498.5z M435.1,535.5
		c-1.8,0.9-3.1,1.4-4.2,2.2c-4.8,3.8-10,7.3-14.3,11.7c-30.3,30.2-60.5,60.6-90.7,90.9c-0.9,0.9-2.3,2-2.3,3.1
		c-0.2,2.6-0.6,6,0.8,7.7c1.1,1.4,4.9,1.6,7.1,0.9c2.9-0.8,5.6-2.8,8.2-4.6c19.9-13.5,37.1-30.1,51.7-49c15.3-19.7,29-40.6,43.4-61
		C434.9,537.2,434.9,536.6,435.1,535.5z M496.8,629.4c-0.8,1.7-1.4,2.7-1.8,3.8c-9.1,24.3-18.2,48.6-27.1,73c-1.1,2.9-1.8,6.1-2,9.2
		c-0.4,7.5,2.7,12.7,8.1,14.5c6.1,2,13.5-0.1,17.3-5.8c2.4-3.7,4.6-7.9,5.6-12.1c3.7-16,6.5-32.3,10.4-48.3
		C510.5,650.2,504.9,640.1,496.8,629.4z M353.3,550.5c-3.8,0.3-6.2,0.5-8.7,0.6c-13.6,0.4-26.1,3.6-35.6,14
		c-9.9,10.8-19.6,21.7-29,32.9c-2.6,3.1-4.4,7.1-5.7,11c-2.1,6.2-0.1,12.3,4.1,15.4c4.3,3.2,11.2,3.1,16.3-1c3-2.4,5.4-5.8,7.8-8.9
		c11.2-14.9,22.1-29.9,33.5-44.7C341,563.4,346.8,557.7,353.3,550.5z M482.7,519.1c-0.2,0.3-0.4,0.5-0.6,0.8c0.6,0.8,1,1.7,1.7,2.4
		c11.2,12.6,22.4,25.1,33.5,37.8c8.1,9.3,17.7,16.3,28.5,22.4c11.9,6.7,23.2,14.4,34.4,22.1c6.5,4.5,12.4,10.1,18.6,15.2
		c1.3,1.1,2.9,1.7,4.4,2.6c0.5-0.3,0.9-0.7,1.4-1c-0.8-2-1.3-4.1-2.3-6c-7.9-14.1-18.3-26.2-30.3-36.9c-26-23.3-55.8-40.8-86-58
		C484.8,519.9,483.7,519.6,482.7,519.1z M336.5,502.6c-3.8-1.1-6.1-2-8.5-2.5c-9.2-1.7-18.3-3.6-27.5-4.6
		c-14.6-1.6-29.2-2.7-43.7,0.6c-7.9,1.8-14.1,5.9-17.7,13.3c-2.5,5.1-2.5,10.5,1,15.1c3.5,4.6,8.2,2.1,12.4,1c0.2,0,0.3-0.1,0.5-0.2
		c18-3.9,36-8.1,54-11.7C317.1,511.7,326.1,507.7,336.5,502.6z M540.6,645.1c-3.4,6.1-6.4,11.1-8.8,16.3c-0.8,1.8-0.4,4.5,0.2,6.6
		c1.5,5.6,4.2,11,4.9,16.7c1.4,11,1.9,22.1,2.3,33.2c0.2,5.8,1.8,10.5,7.2,13.2c5.5,2.6,10.1,0.5,14.1-3.3
		c7.1-6.8,10.4-14.9,7.7-24.8c-4.7-17.8-12.3-34.4-21.9-50C544.7,650.5,542.9,648.2,540.6,645.1z M296.1,521.1
		c-3.4,0.7-9.5,1.6-15.4,3c-12.1,3-24.5,5.1-35.3,11.8c-6.8,4.2-11,10-11.5,18.2c-0.3,5.3,0.1,10.7,5.1,13.8
		c5.1,3.2,9.9,0.4,14.4-2.2c0.6-0.3,1.1-0.7,1.7-1.1c11.3-7.8,23.5-13.8,37-16.9c2.1-0.5,4.4-2.8,5.5-4.9c2.4-4.5,4-9.4,6.1-14.1
		C306.4,522.4,305.4,520.8,296.1,521.1z M463.2,540.2c-0.6-0.2-1.2-0.3-1.8-0.5c-1.1,3-2.5,5.9-3.3,9c-8.8,33.1-17.7,66.2-26.2,99.4
		c-4.3,16.9-7.7,34.1-5.8,51.8c0.2,2.1,2.5,5.7,3.7,5.7c2.5-0.1,5.8-1.6,7.3-3.6c1.7-2.2,2.1-5.5,2.6-8.5
		c6.7-42.1,13.4-84.1,19.9-126.2C461,558.3,462,549.2,463.2,540.2z M516.7,656.9c-1.3,3.7-2.1,5.5-2.6,7.4
		c-1.6,6.6-3.2,13.3-4.5,19.9c-2.5,12-5,24.1-7.3,36.2c-1.4,7.4,1.4,14,6.6,17.1c5,2.9,13.6,2.7,17.7-1.8c3-3.3,5.8-8.1,6.2-12.4
		c0.9-9.6,1.2-19.4-0.2-28.9c-1.3-9.1-4.6-17.9-7.8-26.6C523.5,664.1,520.1,661.3,516.7,656.9z M539.5,606.8
		c-0.8,7.1,3.4,24.3,7,32.1c8.9,19.5,17.6,39.1,26.2,58.7c1.4,3.3,2.5,6.7,6.6,7.3c4.5,0.7,7.2-2.2,9.3-5.5c5.5-8.6,4.8-17.4-0.1-26
		c-13.4-23.1-29.1-44.6-46.7-64.7C541.2,608.1,540.4,607.5,539.5,606.8z M537.8,586.2c-0.1,6.6,2.7,10.8,5.8,15
		c15,20.1,30.1,40.2,45,60.4c4.9,6.7,8.4,6.6,12.4-0.9c0.9-1.7,1.6-3.7,1.9-5.6c1.6-9.5-0.4-18.1-6.6-25.7
		C580.8,610.4,560.3,598.2,537.8,586.2z M352.4,495.1c0.1-0.7,0.3-1.4,0.4-2.1c-0.9-0.7-1.7-1.4-2.6-2c-18.2-12.9-38.4-21-60.2-25.3
		c-8.2-1.6-16.5-2.7-24.6,0.6c-6.4,2.6-10.1,8.4-8.9,14c1.1,5.4,4.9,7.7,12.8,7.6c20.7-0.2,41.1,1.9,61.5,5.7
		C337.9,494.8,345.2,494.6,352.4,495.1z M301.2,209.9c-1.6,0.2-2.6,0.2-3.6,0.4c-5.9,1-10,4.6-10.5,9.1c-0.5,5.4,2.6,9.5,8.8,11.7
		c0.8,0.3,1.6,0.6,2.4,0.8c15.1,3.9,29,10.5,42.2,18.7c2.1,1.3,4.2,2.7,6.5,3.7c3.8,1.8,7.6,1.7,10.5-1.6c3-3.3,1.4-6.8-0.8-10
		c-0.6-0.8-1.3-1.5-1.9-2.3c-13.3-14.5-29.6-23.9-48.3-29.5C304.5,210.3,302.5,210.2,301.2,209.9z M308.5,554.5
		c-0.4-0.6-0.7-1.3-1.1-1.9c-4.6,0.5-9.2,0.5-13.6,1.5c-16.5,3.5-31.2,10.6-42.3,23.7c-5.4,6.3-4.7,15.9,1.4,21.7
		c4.8,4.6,12.6,3.6,18.8-2.4c0.7-0.7,1.4-1.5,2-2.2c10.4-11.5,20.8-23,31.1-34.5C306.2,558.7,307.3,556.5,308.5,554.5z M741,450.1
		c-4.8,0.4-9.5-0.4-11.4,4.6c-1.3,3.3,2.6,9,7.3,11.3c0.3,0.1,0.6,0.3,0.9,0.4c15.8,5.1,30.2,12.9,43.2,23.3c5,4,8.9,2.5,10.9-3.8
		c0.7-2.4,0.7-5.3,0.2-7.8c-1.4-7-6.2-11.6-11.9-15.4C768.1,455,754.5,451.6,741,450.1z M329.6,268.9c1.5,0,3.2,0.5,4.4-0.1
		c2.1-1,5.1-2.3,5.6-4.1c0.6-2-0.4-5.5-1.9-7c-13.2-12.9-29.4-19.5-47.6-21.5c-3.2-0.4-4.7,1.3-3.6,4c1.9,4.8,3.5,10.6,7.1,13.8
		C303.7,262.9,315.7,268.6,329.6,268.9z M769.4,509c0.1-0.2,0.2-0.5,0.2-0.7c0.7,0,1.3,0,2,0c4-0.2,7.7-1.3,9.4-5.3
		c1.7-4-1.7-6.1-4-8.3c-8.1-7.7-17.3-13.5-27.9-17c-3.3-1.1-6.8-1.7-10.3-1.7c-4.9,0-7.5,3.7-5.6,8.2c1.4,3.3,3.5,6.7,6.2,8.8
		c5.4,4.4,11.3,8.3,17.3,11.7C760.6,506.8,765.2,507.6,769.4,509z M364.5,311.5c4.5-0.3,9.1-1.6,11.2-6.4c2.1-4.9,0.4-9.4-3.6-12.5
		c-4-3.2-8.3-6-12.8-8.5c-4.8-2.7-10-1.8-15,0c-3.7,1.3-5.1,4.1-4.3,7.9C342,301.6,354.1,311.4,364.5,311.5z M694.8,466.5
		c-2.6,0.3-5.3,0.3-7.8,1c-7,2-9.1,8-5.1,14c5.8,9,23.4,13.4,32.7,8.5c3.6-1.9,4.5-4.4,3.3-8.2C714.4,471.4,708,467.2,694.8,466.5z
		 M778.8,452.7c2.3-3.1-0.2-5-2.3-6.7C763,435,747,431.2,730.2,429.8c-3.3-0.3-6.8,0.5-7.4,4.3c-0.6,4,3.1,4.8,5.8,5.5
		C745.2,444.1,761.7,448.3,778.8,452.7z M315.1,281.8c0.3-5.4-2.7-8.7-7.3-10.8c-5.1-2.3-10.5-4.4-15.5-0.3c-1.8,1.4-3,4.5-3.1,6.9
		c-0.5,7.6,6.4,14.1,14.7,14.6C310.7,292.5,315,288.6,315.1,281.8z M381.8,243.3c-1-9.5-22.3-30.8-33-32c1.5,4.4,2,8.7,4.3,11.8
		c4.6,6.3,10.1,11.9,15.3,17.7C372,245,376.6,244.9,381.8,243.3z M691.8,459.6c5.7-0.4,10.6-2.6,13.3-6.3c3.2-4.5,1.5-9.4-4-9.9
		c-5.9-0.5-12-0.6-17.9,0.1c-2.1,0.2-5.5,3-5.6,4.8c-0.2,2.6,1.5,6.3,3.6,7.7C684.1,458,688.2,458.5,691.8,459.6z M442.5,551.6
		c-0.4-0.4-0.8-0.7-1.1-1.1c-1.4,1.1-2.8,2.1-4,3.3c-9,8.1-16,17.8-21.3,28.6c-0.8,1.6-1.2,4.9-0.4,5.5c1.7,1.3,4.7,2.3,6.6,1.7
		c2.4-0.8,5.2-2.9,6.2-5.2C433.4,573.6,437.9,562.6,442.5,551.6z M390.4,293.3c5.6,0.2,8.3-2.1,7.3-7.2c-1.5-7.5-5.9-13.3-13-16.6
		c-4.2-2-7.6,0.1-8.7,4.5C374.2,281.9,382.4,293,390.4,293.3z M342.7,221.3c-0.2-15.1-12.2-25.7-26.3-23.2c-2.5,0.4-4.7,2.7-7,4.2
		c0.1,0.7,0.1,1.4,0.2,2.1C320.5,209.9,331.4,215.5,342.7,221.3z M655.9,433.4c0.2,0.6,0.3,1.1,0.5,1.7c1.1,0.2,2.2,0.6,3.3,0.7
		c14.3,1.8,28.5,1.4,42.6-1.7c2.1-0.5,3.9-2.1,5.8-3.2c-2-1-4.1-1.9-6.1-2.9c-0.4-0.2-1-0.1-1.5-0.1c-12.3,0.7-24.5,1.3-36.8,2.3
		C661,430.4,658.5,432.3,655.9,433.4z M285,192.2c5.9,0,10.9-4.1,10.8-8.8c-0.2-5.2-7.5-10.9-14.3-11c-5.2-0.1-8.8,3.2-8.9,8
		C272.4,186.6,278.3,192.2,285,192.2z M743.2,525.6c5.7-0.1,10.6-3.9,10.7-8.4c0.1-5.6-6.1-11-12.7-10.9c-6.3,0.1-10.5,3.5-10.5,8.3
		C730.9,520.9,736.2,525.7,743.2,525.6z M262.8,195.8c-6,0-10.2,3.2-10.3,7.8c-0.2,5.9,5.3,11.6,11.4,11.7c4.2,0.1,9.2-4.3,9.3-8.2
		C273.4,201.4,268.4,195.9,262.8,195.8z M824,473.9c-0.7-4.9-3.9-8.9-8.6-11.3c-2.1-1.1-5.9-1.3-7.8-0.2c-1.9,1.2-3.4,4.5-3.5,7
		c-0.3,5.7,5.5,11.5,11.2,12.2C819.8,482.1,823.8,478.8,824,473.9z M394.2,256.9c-0.4,10,17.7,39.7,25.7,42.7
		C420.4,292.4,401.9,261.4,394.2,256.9z M410.9,613.7c1.8-1.7,5.1-4,7.4-7.2c1.7-2.3,3.7-7.1,2.8-8.1c-2.2-2.4-6.1-3.4-9.5-4.5
		c-0.9-0.3-3,0.8-3.5,1.8c-1.9,3.5-3.6,7.1-4.9,10.8C401.8,610.5,404.6,613.7,410.9,613.7z M275.2,244.1c-0.1-5.9-4.9-11.8-9-12.8
		c-4.4-1.1-9.6,2.9-9.2,7.1c0.5,5.7,6.9,10.9,12.4,9.5C271.8,247.4,273.8,245.1,275.2,244.1z M809.3,510.2c3.8,0,8.2-4,8.4-7.8
		c0.2-3.7-5-8-9.8-8.2c-4.5-0.1-7.7,2.5-7.8,6.5C799.9,505.1,804.9,510.2,809.3,510.2z M449.8,522c1.6-1.2,2.1-1.4,2.2-1.8
		c7.4-14.1,14.9-28.2,22.2-42.4c0.7-1.3,0.2-3.1,0.3-4.6c-0.5-0.1-1-0.2-1.5-0.3C462.4,487.3,453.8,502.8,449.8,522z M392.2,632.1
		c0.4,0.6,0.8,1.2,1.3,1.8c3.4-0.9,7.5-1.1,10.2-3.1c2.7-2,5.1-5.6,5.5-8.8c0.2-1.5-4.8-3.7-7.7-5.2c-0.8-0.4-3.1,0.4-3.5,1.2
		C395.9,622.6,394.1,627.4,392.2,632.1z M585,729.5c-0.9-0.7-2.5-3.1-4.4-3.4c-6-1-12.7,7.4-10.3,13c0.7,1.6,3.3,3.4,5,3.4
		C579.4,742.5,585.1,735.2,585,729.5z M271.3,283.1c2.3-0.9,3.6-1.1,4.4-1.8c2.9-2.4,2.8-5.5,1.2-8.5c-2-3.7-3.7-8.1-9-7.9
		c-0.8,0-2.3,0.9-2.4,1.5c-0.2,3.3-0.9,6.8,0.1,9.7C266.6,279,269.5,281,271.3,283.1z M274.2,637.2c-0.6-2.9-1.2-6.3-5.7-6.2
		c-4,0.1-8.4,4.4-8.4,7.9c0,3.5,3.2,7.4,6.1,7.4C270.2,646.3,274.3,642,274.2,637.2z M225.9,557.2c-0.1-3.8-3.1-6.5-7.4-6.5
		c-4.1,0-6.4,2.5-6.4,6.6c0.1,4.9,2.6,8.6,5.8,8.5C222.3,565.7,226,561.6,225.9,557.2z M731.2,555.8c3.7,0.1,6.6-2.4,6.8-5.8
		c0.2-4-3.6-7.9-7.9-7.9c-3.8,0-6.3,2-6.8,5.8C722.8,551.7,727,555.7,731.2,555.8z M619.5,671.6c-1.7-2.9-2.8-6.5-5.1-7.9
		c-1.2-0.7-5.6,1.9-6.9,4c-1.2,2.1-1.3,6.4,0.1,8c1.6,2,5.4,2.9,8.2,2.8C617,678.4,618,674.5,619.5,671.6z M477.9,755.8
		c3.9,0,7.5-3,7.7-6.3c0.2-3.6-3.5-6.8-7.8-6.7c-4.1,0.1-7.4,3-7.3,6.6C470.5,752.8,473.8,755.8,477.9,755.8z M791,521
		c-0.3-3.7-3.8-4.6-7.3-4.7c-3.7-0.1-7.1,0.8-7.6,5.3c-0.4,3.4,3.5,7,7.4,7.3C787.4,529.2,790.8,526.1,791,521z M282.9,306.7
		c0.2-4.6-3.4-9-7.2-9c-3.9,0.1-5.6,2.5-5.7,6.2c-0.2,4.4,3.3,8.9,7.1,8.8C280.9,312.5,282.4,309.8,282.9,306.7z M757.7,531.2
		c-3.9,0-7.2,3.1-7.2,6.7c0,3.7,3.3,6.7,7.2,6.7c3.8,0,7.3-3.2,7.2-6.7C765,534.4,761.6,531.2,757.7,531.2z M505.5,762
		c5.3-0.2,9.9-4.2,9.6-8.4c-0.3-3.6-2.6-4.7-5.9-4.6c-4.7,0.2-8.5,3.6-8.2,7.7C501.2,759.4,501.8,762.1,505.5,762z M226.4,515.3
		c-0.4-3.4-0.4-7.1-4.6-7.3c-4.2-0.2-6,2.9-6.7,6.7c-0.2,1-0.3,2.1,0,3c1,2.1,2.3,4,3.4,6c2.4-1.7,5-3.2,7.2-5.2
		C226.5,517.9,226.2,516.2,226.4,515.3z M267.9,364.7c-0.1-6.2-4.6-11-8.5-10.7c-3.3,0.2-4.5,2.4-4.5,5.4c0,4.6,4.4,9.5,8.4,8.7
		C265.2,367.6,266.9,365.4,267.9,364.7z M272.5,393.2c-2.5-3.4-4.3-6.4-6.7-8.9c-0.6-0.6-4.4,0.6-4.5,1.3c-0.4,3.4-0.7,7.1,0.3,10.3
		c0.5,1.7,4.1,3.9,5.6,3.5C269.1,398.9,270.3,395.9,272.5,393.2z M235.1,491c6.2-0.2,11.8-5.2,11-9.1c-0.3-1.6-2.9-3.6-4.6-3.8
		c-4.5-0.4-10.3,5.2-9.6,9C232.4,488.8,234.5,490.2,235.1,491z M668.3,616.1c4.5-0.1,8.3-3.6,8-7.3c-0.3-3.8-2.6-5.7-6.3-5.7
		c-4,0-7.5,3.5-7.4,7.3C662.9,614.3,665.3,615.9,668.3,616.1z M250.3,619.3c0.1-3.8-2.8-7-6.3-7c-3.4,0-6.2,3-6.1,6.6
		c0.1,3.9,2.4,6.2,6.1,6.7C247.3,626,250.2,622.9,250.3,619.3z M719.2,569.7c-0.2-3.1-2.5-5-6.1-5.2c-3.6-0.2-7.1,3.1-6.9,6.4
		c0.2,3.8,2.6,5.6,6.2,5.9C715.9,577.1,719.2,573.9,719.2,569.7z M271.8,336.2c0-5.5-4.8-11.9-7.4-10.9c-2,0.8-3.9,3.8-4.3,6
		c-0.6,3.9,3.7,8.9,6.8,8.2C269,339.1,270.7,337,271.8,336.2z M608.2,707.9c-0.1-2.7-0.6-5.7-4.6-6c-3.3-0.3-7.5,4-7.7,7.8
		c-0.2,3.1,1.1,5.1,4.5,5.4C604.3,715.3,607.8,712.3,608.2,707.9z M235.3,590.2c0.6-4.3-2-5.3-5.4-5.5c-4-0.2-7,2-6.5,5.7
		c0.3,2.5,2.8,5.8,5.1,6.8C231.7,598.6,235.1,594.6,235.3,590.2z M701.5,591.8c-2.1-1.6-4.1-3.9-6.4-4.5c-3.4-0.9-7.2,3.2-7,6.8
		c0.2,3.5,2.3,5.5,5.7,5.7C697.2,599.8,700.5,596.3,701.5,591.8z M460.1,736.7c0-2.7-1.8-4.5-5.2-4.6c-3.7-0.1-8,3.2-7.7,6.3
		c0.3,3.8,3.1,5.4,6.4,5.8C457.1,744.5,460,741.4,460.1,736.7z M544.1,756.3c4.1,0,7.2-2.6,6.9-5.9c-0.3-3.8-2.9-5.4-6.4-5.5
		c-3.6-0.1-6.9,2.8-6.6,5.9C538.5,754.5,540.9,756.2,544.1,756.3z M294.3,647.3c-1.4-1-3.3-3.6-5.4-3.8c-3.7-0.3-6.1,2.5-6.4,6.2
		c-0.2,3.5,1.8,5.9,5.4,5.7C291.6,655.3,293.6,652.7,294.3,647.3z M442.8,722.6c-2.5-2.8-4.1-6-5.7-6c-4.1-0.1-5.3,3.8-4.9,7.1
		c0.3,2.2,2.4,4.1,3.7,6.1C437.9,727.6,440,725.5,442.8,722.6z M314.1,654c-1.1-0.7-2.6-2.5-4.4-2.9c-3.3-0.7-7.7,3-7.1,6
		c0.3,1.7,2.5,3.9,4.2,4.4C309.8,662.3,313.9,658.4,314.1,654z M508.2,444.7c-3.6-3.9-6.4-3.9-9-0.1c-2,2.9-3.6,5.9-5.4,8.9
		c-2.3,3.9-1.5,6.9,2.7,9.1c0.9-1,1.8-2,2.7-2.9C493.2,455.2,498.7,446.5,508.2,444.7z M390.8,637.9c-0.6,4.8-1.2,9.2-1.7,13.7
		c0.5,0.2,1.1,0.4,1.6,0.5c3.3-4,6.5-8.1,10.3-12.8C396.9,638.7,394.2,638.3,390.8,637.9z"/>
</g>
</svg>
