<?xml version="1.0" encoding="utf-8"?>
<!-- Generator: Adobe Illustrator 18.1.1, SVG Export Plug-In . SVG Version: 6.00 Build 0)  -->
<svg version="1.1" id="Layer_1" xmlns="http://www.w3.org/2000/svg" xmlns:xlink="http://www.w3.org/1999/xlink" x="0px" y="0px"
	 viewBox="0 0 1024 1024" enable-background="new 0 0 1024 1024" xml:space="preserve">
<g>
	<path d="M258.9,537.5c-0.1-0.4,0-0.6-0.1-0.7c-20.7-24-32.1-52.7-40.8-82.6c-3.1-10.5-5.6-21.2-7.3-32
		c-2.4-14.8,7.9-25.7,22.9-25.1c12.6,0.5,24,5.1,34.9,11c29.4,16,53,37.8,68.8,67.6c0.2,0.4,0.6,0.8,1.2,1.6
		c0.8-1.2,1.5-2.1,2.1-3.2c12-23.2,26.8-44.5,44.8-63.5c2.4-2.5,2.5-4.3,1.2-7.4c-8-18.7-9.8-38.6-7.6-58.4
		c3-26.4,17.7-45.7,42.5-55.3c46-17.9,103.1-12.1,143.2,30.2c0.3,0.4,0.8,0.7,1,1.1c5.5,10.9,15.3,12.3,26.4,13.4
		c35.7,3.6,68.4,15.3,96.6,38.2c24.1,19.6,41.4,44,53,72.7c0.6,1.4,1.1,2.8,1.7,4.2c0.1,0.1,0.2,0.3-0.2-0.2
		c6.1-1.3,11.9-3.6,17.6-3.5c14.9,0.4,24.6,11.9,25.1,28.2c0.6,20.9-3.9,33.2-19.2,52.1c7.9,8,11.5,17.6,10.5,28.9
		c-1.3,15.2-11.6,25.3-26.8,25.4c-4.2,0-5.5,1.6-6.9,5.1c-16.5,43.6-47.2,73.7-89.2,93c-18.6,8.5-38.1,14-58.1,17.7
		c-4.1,0.8-6.6,2.5-8.7,6.2c-11,19.4-26.6,33.7-48.4,40c-5.2,1.5-10.8,2-16.2,2c-13.5,0-22.5-11-20-24.4c0.7-3.9,2.3-7.7,4-11.2
		c1.7-3.6,4.2-6.8,6.6-10.6c-8-1.7-16.1-2.6-23.7-5.1c-10.1-3.3-17.8-1.9-26.7,4.8c-17.8,13.4-38.9,15-60.2,10.4
		c-23.9-5.2-39.1-29.5-32.8-51.4c1-3.5,2.8-6.8,4.7-9.9c1.8-2.9,4.3-5.5,6.8-8.6c-17.7-16.5-33.3-34.8-45-57.2
		c-1.2,2.2-2,3.7-2.9,5.2c-17.3,30.7-39.6,56.8-70.7,74.3c-9.2,5.2-18.9,9.1-29.7,9.4c-10.8,0.3-17-5.2-17.4-16
		c-0.8-20.4,4.8-39.6,11.7-58.4c7.4-20.2,17.5-39.2,30.5-56.5C258.4,538.4,258.7,537.9,258.9,537.5z M750.4,519.2c5,2.3,8.4,0,11-3
		c12-14,16.7-30.3,13-48.3c-2.2-11-13.6-15.7-22.9-9.3c-5.9,4-11.4,9.4-15.2,15.5c-4.5,7.2-7,15.7-10.3,23.7
		c-0.9,2.1-1.2,4.8-2.6,6.4c-1.2,1.3-3.9,2-5.5,1.6c-1.1-0.3-2.5-3.4-2.1-4.6c3.5-10.7,5.4-22.8,11.8-31.4c7.3-9.8,5.6-17,1.5-26.6
		c-19.7-45.7-53.6-76.3-100.7-90.4c-59.5-17.9-117.8-11.4-172.3,17.8c-53.4,28.5-91.5,71.9-114.4,128.2
		c-11.7,28.8-8.7,56.2,7.2,82.7c13.3,22.2,29.9,41.7,50.1,57.9c7.8,6.3,16.1,12,24.2,18c-0.3-3.4-1.4-5.9-2.4-8.5
		c-10.6-27.3-0.3-52.5,26.2-64.7c17-7.8,35.1-8.7,53.3-7.9c5.6,0.2,11.2,1,17.4,1.6c-0.7-2.5-1.3-4.5-1.9-6.5
		c-11.6-37.7-15.4-76-8.5-115c5.4-30.6,17.7-57.8,40-80c2.5-2.4,5.3-4.6,8.2-6.5c2.6-1.7,5.9-2.1,7.4,0.9c0.7,1.4-0.9,4.5-2.3,6.1
		c-5.9,6.6-12.6,12.4-18,19.4c-18.7,24.3-26.6,52.7-29.1,82.7c-4.3,52.7,10.1,100.5,38.7,144.4c8.1,12.4,18.1,23.1,31.5,30
		c1.2,0.6,2.5,1.4,3.1,2.4c0.7,1.3,1.2,3.3,0.7,4.4c-0.6,1.1-2.8,2.1-4,1.9c-2.5-0.5-5.1-1.5-7.4-2.8c-12.4-7.3-22.4-17.2-30.6-29
		c-2.3-3.3-4.5-6.8-7.1-10.6c-12.5,26.5-28.4,49-56.6,61.7c4.3,1.3,7.3,2.4,10.3,3.1c25.7,5.8,51.6,8.4,77.9,6.1
		c34.3-3,66.6-12.6,96.4-30.2c31.9-19,55.1-45.3,68-80.3c1.2-3.1,1-4.9-1.6-7.6c-4.7-4.9-8.7-10.5-12.1-16.3
		c-1.7-2.9-1.4-7-1.5-10.6c0-1.1,1.4-2.7,2.6-3.2c0.7-0.3,2.4,0.8,3.2,1.7c1.3,1.7,2.2,3.7,3.4,5.5c3.3,4.8,6.2,9.9,10,14.3
		c4.1,4.7,9.5,7.2,16.1,5.7c8.1-1.9,12.7-7.7,13-16.6c0.4-10.6-4.3-19.8-11.9-21.4c-6.1-1.3-12.5-1.1-18.7-1.8
		c-2.7-0.3-5.6-0.7-7.8-2.1c-1.7-1-2.3-3.7-3.4-5.6c1.8-1,3.4-2.5,5.3-2.9c12.6-2.3,20.5-9.7,24-21.9c0.8-2.7,1.5-5.5,2.1-8.2
		c0.7-3,2.3-5,5.6-4.2c3.3,0.8,3,3.5,2.6,6.1c-0.1,0.7-0.3,1.3-0.4,1.9C762.4,502.7,757.4,511.4,750.4,519.2z M327.8,503.9
		c5.2-7.6,4.4-14.3,0.6-21.9c-17.3-34.1-44.9-56.5-79.5-70.9c-5.4-2.2-11.6-2.8-17.5-3.3c-5.8-0.4-9.4,3.1-10.1,8.8
		c-0.3,2.4-0.3,5.1,0.2,7.5c8.7,40,20.1,78.8,49,109.9c1.9,2,2.2,3.6,0.3,6c-19.9,24.1-32.5,51.8-40.1,81.8
		c-2.3,9.1-3.5,18.6-4.3,28.1c-0.6,7.8,2.1,10.4,9.8,8.8c7.4-1.5,14.8-4.1,21.4-7.7c30.7-16.8,51.5-43,68.7-72.7
		c5.6-9.7,2-17.5-0.3-26.6c-2.9,1.8-5.2,3.4-7.6,4.8c-10.5,5.8-21,11.5-31.6,17.2c-3,1.6-6.3,1.7-7.1-2.2c-0.3-1.4,2.1-4.1,3.8-5.1
		c12.1-6.9,24.4-13.6,36.7-20.2c6.2-3.3,5.2-8.8,4.3-14c-0.8-4.7-5.5-4.6-8.8-4.9c-7.6-0.7-15.3-0.5-22.9-1.2
		c-1.5-0.1-2.9-2.2-4.4-3.4c1.3-1.2,2.5-3.3,3.9-3.4c4.8-0.6,9.6-0.8,14.4-0.5c6.1,0.4,12.1,1.4,18.1,2.1c2.6-5.4,1-8.7-3.3-12.8
		c-10.9-10.7-23.3-18.8-37.4-24.4c-5.1-2-10-4.5-15-6.8c-2.3-1.1-4.9-2-3.3-5.5c1.4-3.2,3.8-2.7,6.3-1.6
		C291.9,478.9,313,486.1,327.8,503.9z M426.5,630.9c0,17.3,15.8,37.5,33.8,41.9c1.6,0.4,3.3,0.4,4.9,0.2
		c12.8-1.1,23.7-6.3,33.1-14.9c11.1-10.3,19.7-22.5,26.8-35.9c5.2-9.8,6.9-19-0.2-28.7c-2.1-2.9-4.1-4.9-7.6-5.6
		c-14.4-2.8-28.9-3.5-43.2-1c-9.2,1.6-18.6,4.4-26.9,8.5C433.6,602.3,427,614.3,426.5,630.9z M408.1,310.9c8.7,1.7,16.9,3.2,25,4.9
		c20,4.3,37.6,13.1,52.2,27.8c1.1,1.1,3.9,1.1,5.6,0.6c18.1-5.3,36.5-9.2,55.3-10.6c5-0.4,10.1-0.7,15.4-1
		C531.9,289.1,442.9,276.4,408.1,310.9z M478.4,348.1c-6.9-7.7-15.5-13.6-25.1-17.9c-15.8-7.1-32.8-9.5-49.8-11.7
		c-1.3-0.2-3.4,0.8-4.1,1.8c-6.1,8.6-9.2,18.2-9.8,28.7c0.7,0.3,1.2,0.7,1.6,0.7c17,2.2,33.2,6.8,48.1,15.5c0.8,0.5,2.3,0.7,3.1,0.3
		C454.4,359.7,466.3,353.9,478.4,348.1z M577,698.9c-4.5,0.2-7.8,0.5-11,0.5c-10.5,0.1-21,0.6-31.4-0.2c-5.8-0.4-10,0.9-13.6,5.2
		c-1.6,1.9-3.3,3.7-4.7,5.8c-3.9,6.1-5.9,12.7-1.8,19.2c4.1,6.6,11.1,5.6,17.2,4.1C551.4,729,565.7,717,577,698.9z M384,683
		c15.6,24.7,61.5,20,79.4,2.2c-1.3-0.5-2.5-0.9-3.7-1.4c-9-3.8-18.3-7.2-26.9-11.7c-4.4-2.3-7.6-2.3-11.8-0.1
		C409.6,678.1,397.6,682.6,384,683z M395.3,399.5c13.6-10.2,25.9-19.4,38.7-29c-14.4-6.6-28.4-13.3-46.2-11.9
		C390.3,372.6,392.7,385.7,395.3,399.5z M389.8,645.9c-8.5,7-11.5,14.2-10.8,24.9c0.2,3,1.4,4,4.3,4.2c12.5,0.6,23.2-4.3,34.3-9.9
		C408.1,658.5,399.1,652.4,389.8,645.9z"/>
	<path d="M666.8,243.4c0.2-26.3,21.6-47.6,47.8-47.4c24.6,0.2,46.5,21.9,46.3,45.7c-0.3,27.5-20.5,48.1-46.9,48
		C688.1,289.6,666.7,268.6,666.8,243.4z M713.8,207.7c-19.9,0-35.9,15.8-35.8,35.3c0.1,19.5,16.2,35.2,36.1,35.2
		c19.8,0,35.8-15.8,35.8-35.4C749.8,223.5,733.7,207.8,713.8,207.7z"/>
	<path d="M732.9,172.2c-22.5,0-40.8-18.3-40.6-40.6c0.1-22.4,18.4-40.6,40.8-40.6c22.4,0,40.8,18.4,40.7,40.7
		C773.5,154.2,755.3,172.2,732.9,172.2z M732.6,161c18.8,1.4,30.5-15.5,30.3-28.8c-0.3-16.2-13.1-30-28.6-30
		c-18,0-31.3,12.7-31.4,29.8C702.8,144.6,713.4,162,732.6,161z"/>
	<path d="M781.3,369.2c-18.3-0.3-32.6-15.3-32.2-33.7c0.4-17.9,15.4-32,33.7-31.7c18,0.3,32.3,15.3,31.9,33.5
		C814.4,355.2,799.4,369.5,781.3,369.2z M759.1,336.4c-0.1,11.5,10.7,22.3,22.5,22.4c12.6,0.1,22.8-9.4,23-21.5
		c0.3-12.5-10.2-23.5-22.3-23.6C769.9,313.6,759.2,324.1,759.1,336.4z"/>
	<path d="M618.8,504.6c-30.4-0.3-54.5-32.3-45.8-61.4c5.8-19.4,17.3-33.5,38.2-37.1c23.7-4.2,44.8,9.8,52.2,33.9
		c8.5,27.7-7.8,57.2-35.2,63.4C625.1,504,621.9,504.2,618.8,504.6z M655.3,455.1c0.1-22.1-17.1-40.3-37.6-39.8
		c-20.3,0.6-36.6,18.3-36.3,39.5c0.4,21.8,16.9,39.2,37.2,39.2C638.9,494.1,655.3,476.7,655.3,455.1z"/>
	<path d="M467.7,522.4c-23-26.7-20.5-55.4,4.5-75c-6.7-12.7-7.8-25.9-2.1-39.3c3.9-9.2,10.1-16.4,18.5-21.7c3.1-2,7.5-4.2,9.9-0.8
		c2.9,4.1-1.7,6.3-4.7,8.2c-13.1,8.5-19.4,20.5-17.7,36c0.5,4.9,2.7,9.9,5.4,14.1c3.8,6.1,4.3,6.3-2.1,10.2
		c-14,8.5-20.4,20.7-18.1,37c1.4,10.2,6.6,18.7,14,25.9c5.7,5.5,5.7,5.5,0.4,11.2c-2.4,2.6-4.7,5.2-6.9,7.9c-4,5.1-5.4,11-4.2,17.4
		c0.3,1.8,1.2,3.7,0.9,5.4c-0.3,2.2-1.4,4.3-2.2,6.4c-1.8-1.4-4.5-2.4-5.4-4.3c-3.7-8.5-4.1-17.2,0.7-25.4
		C461.2,530.9,464.6,526.8,467.7,522.4z"/>
	<path d="M402.7,534.8c-8.5-12.1-12.2-24.9-9.3-39.2c2.3-11.2,8.4-20.2,17.6-26.9c2.3-1.7,3-3,2.3-6.1c-4.5-20.1,2.6-36.2,17.5-49.5
		c1.2-1.1,2.9-2.3,4.3-2.3c1.9,0,3.8,1.1,5.7,1.7c-0.6,1.8-0.8,4.1-2,5.4c-2.3,2.6-5.5,4.3-7.8,6.9c-10.2,11.6-13.2,24.7-7.9,39.4
		c1.4,3.8,2.1,6.6-2.5,9c-20.9,10.8-26,37.9-10.8,55.8c5.5,6.5,5.5,6.5-0.6,12.3c-12.2,11.4-13.5,27.6-3.2,41.4
		c1.4,1.9,3.5,3.4,4.3,5.4c0.7,2,0.2,4.4,0.2,6.7c-2.1-0.4-4.7,0-6.1-1.2c-16.4-13.9-18.4-39.4-4.5-55.7
		C400.8,537,401.6,536,402.7,534.8z"/>
	<path d="M519.8,612.3c-1.7,0.7-3.4,1.4-5,2.2c-15.5,7.6-31,15.2-46.7,22.5c-1.4,0.7-3.9-1-5.8-1.5c0.8-1.9,1.1-4.8,2.5-5.5
		c15.6-7.9,31.3-15.5,47-23.1c3-1.4,6.1,0.5,6.2,3.5C518.5,611,519.1,611.6,519.8,612.3z"/>
	<path d="M627.5,485.8c-15.7-0.1-27.8-14.8-26.2-30.7c0.7-7.3,3.3-13.9,8.8-19c6.4-6,14-8.1,22.6-5.8c11.2,3,19.4,15.2,19.1,28
		c-0.3,13.3-8.7,24.3-20.4,26.9C629.8,485.5,628.1,485.7,627.5,485.8z"/>
</g>
</svg>
