<?xml version="1.0" encoding="utf-8"?>
<!-- Generator: Adobe Illustrator 18.1.1, SVG Export Plug-In . SVG Version: 6.00 Build 0)  -->
<svg version="1.1" id="Layer_1" xmlns="http://www.w3.org/2000/svg" xmlns:xlink="http://www.w3.org/1999/xlink" x="0px" y="0px"
	 viewBox="0 0 1024 1024" enable-background="new 0 0 1024 1024" xml:space="preserve">
<g>
	<path d="M608.3,697.8c-2.5-0.9-5-2.2-7.6-2.7c-6.5-1.4-6.4-1.2-4.9-7.8c2.4-11.1,4.7-22.1,6.9-33.2c0.5-2.4,0.4-4.9,0.6-7.4
		c-10.2,0.7-10.3,0.8-12,10c-1.7,9.3-3.2,18.7-5.3,28c-0.4,1.9-2.6,4.4-4.5,4.9c-15.3,4-30.7,7.7-46.1,11.2c-1.8,0.4-4-1.3-6-2
		c1.5-2,2.7-5.3,4.7-5.9c8.6-2.7,17.3-4.7,26.1-6.7c21.3-4.8,16.7-2.4,21-20.8c1.4-5.8,2.6-11.7,4-17.8c-6.9-1.8-14.1-3-20.8-5.6
		c-8-3.1-15.8-2.7-24-1.5c-9.2,1.3-18.5,1.5-27.7,2.2c-2.6,9.6-5.3,19.3-7.7,29.1c-0.3,1.1,1.2,3.2,2.4,4c1.9,1.2,4.3,1.6,6.4,2.6
		c4.2,2,4.6,5.8,4.1,9.8c-0.4,3.6-2.5,5.7-6.2,6c-0.2,0-0.3,0.1-0.5,0.1c-19.5,0.5-34.6,10.5-48.7,22.6c-1.6,1.4-3.4,2.9-5.4,3.6
		c-1.5,0.5-3.9,0.3-4.9-0.7c-0.8-0.9-0.4-3.2-0.2-4.8c0.1-0.9,1-1.7,1.7-2.4c13.9-12.3,28.2-23.6,48.1-23.9c2.1,0,4.2-1.7,6.3-2.6
		c-0.1-0.5-0.2-1-0.3-1.6c-2.8-0.6-5.7-1.2-8.5-1.7c-5.6-0.9-6.4-2.2-4.9-7.8c2.2-7.9,5-15.6,6.5-23.6c2.3-12,1.2-9.5-9-10.1
		c-1,5.9-1.9,11.9-2.9,17.9c-0.7,4.3-1,8.7-2.3,12.8c-0.6,1.9-2.9,4.3-4.7,4.6c-16,2.4-32,4.4-48,6.5c-2.1,0.3-4.4,0.9-6.4,0.5
		c-2-0.4-3.7-2-5.6-3.1c1.6-1.6,3-3.9,4.9-4.5c4.3-1.2,8.8-1.6,13.3-2.2c10.7-1.6,21.4-3.2,32.1-4.6c4.2-0.6,6.4-2.5,7.1-6.9
		c1.1-7.1,2.8-14,4.3-21.5c-1.3-0.4-2.4-0.9-3.7-1.2c-30.8-7.4-60.5-17.3-86.4-36.4c-25.2-18.6-44.3-41.7-54-71.8
		c-2.4-7.5-3.1-15.6-4.6-23.5c-0.5-2.7-1.3-5.4-2.1-8.5c-7.9,3.9-15.2,5.5-23.1,1.8c-13.5-6.5-19.2-19.2-15.3-35.2
		c1.3-5.4,3.5-10.7,5.5-16.6c-2.6,0.6-4.8,1.2-7,1.7c-12.6,2.8-22.6-4.9-23.2-17.9c-0.4-9.8,3.2-18.6,8.3-28c-3.3,1.2-5.8,2.4-8.4,3
		c-9.2,2.1-18.4,4.7-27.7,5.6c-9.3,0.9-12.7-4.3-9.6-13.4c4.8-14.2,12.1-27.3,22.5-38c7.6-7.8,9.4-13.8,5.4-25
		c-9.5-26.7-2.7-52.5,10.9-76.6c2.6-4.6,5.8-8.9,8.9-13.6c-2.8-1.5-5.7-2.8-8.3-4.5c-15.4-10.2-26.1-23.3-25.8-42.8
		c0.2-15.5,11.1-24.3,26.3-21c5.1,1.1,10,3.2,14.7,4.7c0.6-6.6,1-13.7,1.8-20.7c0.3-2.6,1.2-5.2,2.1-7.7c7.1-18.8,26-22.5,39.4-7.5
		c4.2,4.7,7.2,10.5,10.8,15.8c1.6-3.5,2.9-7.2,4.9-10.6c7.8-12.8,22.9-12.3,29.8,1.1c6.2,11.9,7.7,24.8,5.5,37.9
		c-1.4,8.3-3.9,16.4-6,24.8c5.6,1.8,11.7,3.5,17.6,5.5c21.3,7.3,38.5,20.9,54.1,36.7c11.9,12.1,23.4,24.7,35,37.1
		c17.9,19.3,40.1,30.3,65.9,33.2c18.3,2.1,36.8,2.1,55.4,3c0.9-12,1.4-22.6,2.6-33.1c3.3-30.1,10.9-58.9,27-85
		c3.7-6,8.3-11.9,13.8-16.2c11.1-8.8,21-5.5,25.3,8c1.9,5.9,2.6,12.2,4,19c1.1-1.7,2-3.1,2.9-4.5c6.3-9.7,13.6-18.5,22.9-25.6
		c8.2-6.2,17.2-10.2,27.4-5.7c10.1,4.5,13.8,14,14.4,24.1c0.5,8.4-1,16.8-1.7,25.3c-0.1,1.6-0.7,3.2-1.1,5.2
		c5.1-3.6,9.5-7.1,14.4-9.9c4.9-2.8,10.1-5.2,15.4-7c11.3-3.7,19.8,1.3,22.4,12.9c2.9,12.7-0.4,24.8-4.9,36.6
		c-2.6,6.7-6.1,13.1-9.2,19.7c4.8-1.7,9.3-3.7,14.1-4.9c11-2.8,18.7,2.8,20.2,14c1.4,10.3-1.2,19.8-4.9,29.2
		c-10.1,25.9-26.8,47.1-47.9,64.8c-4.4,3.6-5.7,7.3-4.8,12.9c6,41,0.7,80.7-17.3,117.9c-18,37.4-47,64.7-84.3,82.9
		c-6.6,3.2-12.2,7.2-16.8,13c-5.8,7.5-13,13.3-21.8,17.1c-1.5,0.6-2.9,2.7-3.2,4.3c-2.4,10.4-4.3,20.8-6.8,31.2
		c-1.2,4.9-0.7,8.1,4.1,10.7c4.3,2.3,9.2,4.5,8.7,10.9c-0.3,3.3-1.5,5.7-4.9,6.7c-3.8,1.2-7.5,2.9-11.4,3.8
		c-9.5,2.2-17,7.3-23.4,14.4c-2.8,3.1-6,5.8-8.9,8.8c-2.5,2.5-5.6,3.3-7.9,0.8c-1-1-0.4-5,0.9-6.3c9.9-10.6,20.4-20.6,35-24.7
		c3.7-1,7.1-2.6,10.7-3.9C608.4,699.2,608.3,698.5,608.3,697.8z M719.4,369.6c-4.3-4.2-2.3-7,0-9.8c9.2-11.2,18.5-22.3,27.5-33.7
		c13.2-16.8,25.8-34,33.2-54.3c3-8.3,6.1-16.8,4.6-25.8c-1.3-7.8-3.7-13.5-14.5-9c-13.6,5.6-24,15-32.8,26.3
		C720,285.9,705.6,310.4,693,336c-0.9,1.9-1.9,4-3.2,5.6c-0.8,1-3,2-3.7,1.6c-1.1-0.7-2.3-2.6-2.1-3.9c0.2-2.4,1-4.9,2.2-7.1
		c7.3-13.6,14.9-27.1,22.2-40.8c6.8-12.6,14.1-25,19.9-38c6.1-13.7,8.8-28.4,4.8-43.4c-3.3-12.7-13.5-16.5-23.5-8.3
		c-7.4,6.2-14.3,13.6-19.5,21.7c-17.8,27.6-28.1,58.3-35,90.3c-0.7,3.2-1.4,6.6-2.8,9.6c-0.6,1.3-2.7,1.8-4.1,2.7
		c-0.8-1.3-2-2.6-2.2-4c-0.2-2.1,0.1-4.4,0.6-6.4c6.5-23.1,12.9-46.1,19.6-69.1c3.7-12.8,1.3-25.1-3.5-37c-2.4-6-7.3-6.8-12-2.4
		c-3.6,3.4-6.9,7.3-9.5,11.5c-11.3,18.3-18.6,38.3-23.2,59.2c-3.9,17.8-5.7,35.8-5.8,54.2c2.4,0.3,4.5,0.5,6.6,0.9
		c5.5,1.3,11,2.4,16.3,4.2c1.5,0.5,2.2,3.4,3.2,5.3c-1.9,0.9-3.8,2.5-5.7,2.6c-4,0-7.9-1-11.9-1.2c-21.5-1-42.9-1.9-64.4-2.9
		c-3.7-0.2-7.5-0.6-11.7-1c2.1,11.4-1.9,19.9-9.9,26.8c-7.8,6.8-17.1,8.9-27.8,8.4c5.2,13,8,25.4-2.6,36.4
		c-9.8,10.1-21.9,12.4-36,9.3c3.3,14,3.3,26.7-8.7,36.1c-12.1,9.4-24.7,6.2-37.4,0.8c1.2,31.9-25.3,46.7-47,30.1
		c-4.2,16.1-12.7,27.4-31.4,27.5c0.4,2,0.6,3.8,1,5.5c5.3,20.3,15.5,38,30.1,52.8c42.1,42.6,93.8,61,153.2,59
		c3.6-0.1,7.3-0.8,10.4-1.1c-4.8-7.2-9.5-14-13.9-21c-0.7-1.1,0.2-3.3,0.4-4.9c1.4,0.7,3.4,1,4.3,2.1c10.9,13.5,24.9,22.5,41.4,27.6
		c22.6,7,42.9,3.1,59.3-14.9c4.7-5.1,8.5-11.1,12.6-16.7c1.2-1.6,2.3-3.3,4.2-6c1.2,3.3,1.9,5.4,2.7,7.7c1.2-0.6,2.6-1.1,3.8-1.9
		c8.4-5.3,17.4-10,25.2-16.2c57.7-45.7,75.9-106.5,66.7-177.4c-0.8-6.2,0.1-10.6,5.2-14.9c16.4-13.8,30.7-29.6,41.3-48.4
		c6.8-12.1,12.3-24.8,12.1-39.1c-0.1-6.8-3.5-9.6-9.6-7c-14,5.9-27.3,13.1-37.2,25.3c-8.4,10.4-16.8,20.7-25.5,30.8
		C728,361.1,723.8,365.1,719.4,369.6z M353.1,224.6c-3.7,0.3-7.3,0.3-10.9,0.9c-45,7-77.1,44.7-76.7,90.3c0.1,9.2,1.3,18.3,6.2,26.4
		c1,1.6,3.4,3.4,5.2,3.4c15.6,0,26.1,8.7,34.8,20.3c2.1,2.8,3.9,5.8,6.2,8.4c8.6,9.9,12.8,21.2,11.9,34.4c-0.2,2.5,0.8,5.1,1.8,7.5
		c3.2,7.8,7.2,15.4,9.8,23.4c5,16,7.6,32.3,0,48.2c-2.2,4.6-2.1,8.1,0.4,12.4c4,6.7,9.2,8.4,14.6,2.6c4.2-4.5,7-10.3,9.8-15.9
		c1.8-3.7,2.1-8,3.4-12c0.5-1.6,2-2.9,3.1-4.3c1.3,1.1,2.8,2,4,3.2c1,1.1,1.7,2.5,2.6,3.6c10.2,13.1,25.3,11.4,30.9-4.1
		c2.5-7,2.4-15,3-22.5c0.4-5.1,1.7-6.2,6.5-4.3c5.1,2.1,10,4.7,15.2,6.4c14.4,4.7,26.4-3.7,26.2-18.7c-0.1-5.9-2.1-11.7-3.1-17.6
		c-0.3-2-1.1-4.9-0.1-5.8c1.2-1.1,4-0.8,6-0.5c5.7,0.9,11.4,2.9,17.1,3c9.3,0.1,15.9-5.3,20.4-13.1c4.2-7.3,2.4-14.1-1.9-20.6
		c-1.7-2.6-3.9-5-5.5-7.7c-0.9-1.6-1.1-3.6-1.6-5.4c1.8-0.3,3.7-1.2,5.4-0.8c8.9,1.7,17.6,1.8,26-1.9c7.8-3.5,12.3-9.3,12.5-18.1
		c0.1-4.9-1.7-7.7-6.6-9c-12.9-3.3-25-8.6-35.1-17.3c-11.3-9.8-22-20.3-32.6-30.8c-11.7-11.6-22.2-24.5-34.7-35.2
		C405.9,235.7,381.3,225,353.1,224.6z M301.4,203.7c-0.4,0.3-0.8,0.6-1.3,0.9c-1.8-1.2-3.6-2.4-5.5-3.5c-6.5-4.2-12.6-9.6-19.7-12.3
		c-11.8-4.4-20.1,2.8-18.4,15.2c2.2,16.4,10.9,28.4,26.4,34.8c2.3,0.9,6.3,0.6,8.1-0.8c20.9-16.3,44.1-25.1,71-23
		c1.6,0.1,4.3-1.4,4.9-2.9c5.1-11,8.2-22.5,6.9-34.8c-0.8-8-3.5-15.2-9.2-21.1c-2.6-2.7-5.4-3-7.6,0c-2.6,3.6-5.5,7.3-6.9,11.4
		c-1.8,5.5-2.1,11.4-3.5,17.1c-0.4,1.7-2.3,4.3-3.6,4.4c-1.5,0.1-3.7-1.9-4.6-3.5c-1.3-2.4-1.6-5.4-2.5-8.1
		c-2.9-8.5-6.3-17-13.1-23.2c-9.5-8.7-19.9-5.6-23,6.8c-2.7,10.5-2.6,21.1-0.4,31.7C300.3,196.3,300.8,200,301.4,203.7z
		 M240.4,405.4c1.7,0.1,2.4,0.2,3,0.1c20.1-2.8,38.4-10.5,56.2-19.8c1.7-0.9,3.1-2.5,4.4-4c2.5-3.1,3.5-6.6,1.1-10.1
		c-5.1-7.4-11.5-13.3-20.2-16.4c-5.2-1.9-9.8-1.1-13.9,2.7c-12.7,11.7-22.7,25.2-28.9,41.4C241.5,401,241.1,403,240.4,405.4z
		 M325.4,425.4c-3.2,4.7-6.1,8.7-8.6,13c-4.2,7.1-8.9,14.1-12,21.7c-2.2,5.3-2.9,11.6-2.9,17.4c0,7,7.5,14,14.9,15.4
		c6.7,1.3,12.2-1.6,16-9.1c1.7-3.3,2.8-7.2,3.3-10.9c1.5-13.8-1.4-27.1-6.4-39.9C328.7,430.5,327,428.2,325.4,425.4z M298,398.8
		c-0.5-0.4-1-0.8-1.5-1.1c-1.4,1-3.1,1.9-4.2,3.2c-6.6,7.7-11.4,16.3-13.4,26.4c-0.6,2.9-0.5,6,0.1,8.9c0.9,5.3,4.1,7.8,9.4,7.8
		c9.2-0.1,16.9-3.9,22.7-10.7c6.4-7.5,10-16.5,10.9-26.3c0.9-9-2.2-16.9-8.6-24.6c-1.7,2.8-3.1,5-4.2,7.3
		c-4.4,9.5-8.6,19.1-12.9,28.6c-1,2.3-2.2,5-5.5,3.5c-3.5-1.6-1.6-4.2-0.6-6.3C292.8,409.7,295.4,404.3,298,398.8z"/>
	<path d="M780.4,820.8c4.3,0,8-0.3,11.6,0.1c1.6,0.2,3.1,1.7,4.7,2.7c-1.3,1.5-2.4,3.7-4,4.3c-2.8,0.9-5.9,1-8.9,1.1
		c-4.2,0.1-6.8,1.8-8.5,5.7c-1.9,4.2-4.2,8.3-6.5,12.3c-1.7,3-4.2,4.1-8.4,2.5c1.7-4.6,3.4-9.2,5.1-13.7c-0.2-0.2-0.5-0.4-0.7-0.7
		c-4,2.8-7.9,5.7-11.9,8.4c-3,2-6.2,3.9-9.5,5.5c-1.1,0.5-2.8-0.1-4.2-0.2c0.2-1.5-0.3-3.7,0.6-4.5c3.5-3.5,7.4-6.6,11.3-9.7
		c1.6-1.3,3.5-2.2,5-3.9c-2.9,0.3-5.8,0.8-8.8,0.8c-1.4,0-2.9-1-4.3-1.5c0.6-1.6,0.8-4.1,1.9-4.6c3.8-1.5,7.8-3,11.8-3.2
		c14.1-0.8,15.2-1.3,20-14.6c2.1-5.7,3.8-11.6,5.8-18.2c-5.3,2.6-9.6,4.9-14.1,6.8c-11.8,4.9-24.2,5.8-36.8,4.5
		c-2.8-0.3-4.4,0.3-5.6,2.7c-2.4,5.1-5,10.1-7.5,15.2c2.5,0.5,4.8,0.4,6.1,1.5c1.1,0.9,1.5,3.5,1,5c-0.5,1.3-2.5,2.9-3.9,2.9
		c-5.3,0.3-8.1,2.9-10.6,7.6c-2.6,5-6.6,9.4-10.6,14.8c-5.7-7.1,1.9-10.1,2-15.3c-3.5,1.8-6.9,3.7-10.4,5.2
		c-3.2,1.4-6.4,2.8-9.8,3.5c-1.4,0.3-3.9-0.7-4.5-1.9c-0.5-1,0.5-3.7,1.6-4.4c4.2-2.8,8.8-5.2,13.4-7.8c-4.7-0.4-9.4-0.8-14.1-1.2
		c-0.2-0.7-0.4-1.5-0.6-2.2c2.2-1.3,4.2-3.4,6.6-3.9c5.9-1.1,11.8-1.7,17.8-2c3.8-0.2,6.2-1.5,7.9-4.9c2.7-5.3,5.7-10.5,8.6-15.8
		c-4.1-2.8-7.5-2.1-11.5,0.4c-7.8,5-15.7,10.1-24.3,13.5c-9.2,3.7-19.1,1.7-28.4-1.2c-4.2-1.3-7.6-0.8-11.2,1.7
		c-4.3,3.1-8.9,6-13.6,8.3c-2.5,1.2-6.4,2.3-8.2,1.1c-1.7-1.1-2-5.3-1.7-8c0.6-7.1,2.1-14.2,2.8-21.3c0.2-2.1-0.6-4.7-1.7-6.5
		c-10.4-15.6-11.7-32.1-6-49.6c8.5-26,27.3-38.8,53.7-41.6c3.8-0.4,5.2-1.8,6.6-5.1c6.7-15.4,19.1-25.2,33.2-33.3
		c17.8-10.2,37-12.8,56.9-10.7c4.6,0.5,6.6-1.1,9.1-4.7c3-4.2,6.7-8.5,11.1-10.9c7.2-3.9,13.9-0.6,16.8,7.1c0.4,1.1,0.8,2.1,1.1,3.1
		c0.6,0.1,0.9,0.3,1.2,0.3c10.1-2.5,13.8-0.4,16.7,9.8c2.9,10.1,1.5,20.1-0.1,30.2c-0.6,4-0.8,8.3-0.1,12.3
		c4.8,28.1,1.6,54.6-18,76.4c-8.7,9.7-14.4,19.9-17.4,32.3C785,808.9,782.5,814.5,780.4,820.8z M681.9,695.6
		c5.1,1.6,9.7,2.6,13.8,4.6c1.7,0.8,3.7,3.9,3.4,5.5c-0.6,3.5-3.5,1.8-5.6,1.1c-33.9-11.5-68.6,9.4-74.1,44.7
		c-2.5,16.1,5.8,31.7,20.4,38c5.2,2.3,9.3,5.5,12.2,10.5c1.1,1.8,3.2,3.6,5.2,4.2c17,5.2,32.2,2.6,44.8-10.9
		c1.4-1.5,2.8-2.8,4.3-4.2c2.6-2.5,5.4-2.7,8.7-1.1c2.9,1.5,6.1,3.1,9.3,3.5c27.4,3.9,51.8-2.2,70.8-23.3
		c19.1-21.1,23.1-46.4,18.6-73.8c-0.8-4.6-0.1-9.5,0.1-14.2c0.3-7.5,1-14.9,1.2-22.4c0.1-1.7-0.7-3.6-1.5-5.2
		c-1.4-3-3.6-3.9-6.2-1.2c-2.2,2.3-4,4.9-6.3,7.1c-1.4,1.4-3.3,2.4-5,3.5c-0.4-1.9-1.2-3.8-1.2-5.7c0.2-6.3,0.7-12.6-2.2-19.7
		c-3.1,2.7-5.9,4.5-7.9,7c-2.7,3.3-4.5,7.4-7.2,10.7c-1.2,1.4-3.9,2.9-5.4,2.5c-10.7-2.8-21.5-2.9-32.2-1
		C714.7,660.4,695,672.8,681.9,695.6z M645.5,803.7c-3.6-3.2-5.8-5.4-8.3-7.3c-2.8-2.1-5.4-1.9-6.5,1.9c-1.5,5.3-2.7,10.7-4,16.1
		c0.5,0.4,1.1,0.7,1.6,1.1C633.7,811.8,639.1,808.1,645.5,803.7z"/>
	<path d="M341.8,778.1c18.8-12.8,39.6-17.3,61.7-17c3.5,0,4.5-2,5.9-4.3c13.7-22.8,46-34.8,69.8-24.9c27.1,11.3,42.9,38.3,35.1,67.1
		c-0.6,2.4,0.3,5.5,1.2,8c2.4,6.4,5.7,12.4,7.5,18.9c1.8,6.2-0.8,9.1-7.2,8.1c-3.7-0.5-7.2-2.2-10.7-3.7c-6.1-2.7-11.6-3-18,0.3
		c-7,3.5-15.1,4.8-22.6,7.2c-1.4,0.4-3.2,1.5-3.6,2.6c-6.5,21.4-22.8,31.8-42.7,38.2c2.8,10.4,8.7,14.3,18.8,12.7
		c4.3-0.7,8.6-1.3,12.9-1.4c1.7,0,3.4,1.8,5.1,2.7c-1.3,1-2.5,2.4-3.9,3c-2.2,1-4.6,1.4-6.7,3c4,0.9,8.1,1.4,11.9,2.7
		c1.9,0.7,3.2,2.9,4.8,4.4c-1.8,1-3.8,3.1-5.5,2.9c-5.1-0.4-10.1-1.6-16.1-2.7c2.2,2.4,4.2,4,5.5,6.1c0.8,1.3,0.6,3.3,0.8,5
		c-1.5,0.2-3.5,1.1-4.5,0.5c-3.8-2.5-7.9-5-10.8-8.5c-3.8-4.5-7.7-7-13.8-5.6c-1.4,0.3-3.4-0.2-4.6-1.1c-4-2.9-3.5-5.5,1-7.4
		c0.9-0.4,1.8-0.8,2.7-1.2c-6.1-11.9-6.1-11.9-18.9-11c-10.9,0.8-21.6-0.4-32.1-3.6c-1.4-0.4-2.8-0.8-5.5-1.5
		c2,5.5,3.2,10.3,5.6,14.6c1,1.8,4.2,3,6.6,3.3c4.6,0.8,9.3,0.6,13.9,1.1c1.7,0.2,3.6,1,5,2c1.1,0.8,2.5,2.6,2.2,3.4
		c-0.5,1.3-2.1,2.8-3.5,3c-2.4,0.4-4.9-0.1-8.2-0.3c3.5,3,6.8,5.4,9.4,8.3c1.3,1.4,1.4,3.9,2.1,5.9c-2.1-0.2-4.5,0.1-6.2-0.8
		c-4.7-2.7-9.1-6-14.6-9.7c1.2,4,2.4,7.1,3.1,10.4c0.3,1.4-0.4,2.9-0.6,4.4c-1.5-0.3-3.8-0.1-4.5-1c-2.3-3-4.7-6.2-5.7-9.7
		c-2.2-7.2-6.1-10.9-13.9-10.5c-2.3,0.1-4.8-0.4-6.8-1.4c-1.4-0.7-2.3-2.7-3.4-4.1c1.4-0.8,2.8-2.3,4.3-2.4
		c3.8-0.3,7.6-0.1,11.6-0.1c-1.5-6.2-2.9-12.5-4.7-18.6c-0.4-1.4-2.5-2.5-4-3.4c-14-8.5-25.9-19.1-31.3-35
		c-2.8-8.1-6.5-15.5-10.5-22.9c-3.1-5.8-4.5-12.8-5.3-19.4c-0.7-5.9,3.3-9.2,9.2-9.3c2.4,0,3.7-0.2,3.9-3c1.5-15.5,13.1-15,21.9-9.4
		C337.3,774.6,339.3,776.3,341.8,778.1z M308.9,793.8c0.4,9,3.4,15.2,6.9,21.3c1.7,2.9,3.8,5.7,4.5,8.8c4.4,21.5,17.9,35.2,37.1,44
		c15.3,7,31.6,8.7,47.9,5.6c22.7-4.4,42.5-13.3,48.6-39c0.4-1.8,3.6-3.5,5.8-4.1c7.3-2,15-3,22.1-5.5c3.3-1.2,6.6-4.7,8-8
		c2.3-5.5,5.4-9.9,10.3-13.1c4.8-3.1,7-7.7,7.8-13.3c3.6-23.5-14.7-48.6-38.9-53.4c-20.1-4-43,6.6-53.8,25.7
		c-3,5.3-6.2,7.2-11.7,6.3c-1-0.2-2,0-3,0c-20.4,0.1-39.2,4.6-55.2,18.3c-1.1,1-4.2,1-5.5,0.1c-3.8-2.3-7.1-5.5-10.9-8
		c-4.7-3-6.6-1.9-6.4,3.8c0.1,3.5,1.1,6.9,1.4,10.4c0.2,2-0.4,4-0.6,6c-2.2-0.4-4.4-0.6-6.4-1.4
		C314.5,797.3,312.3,795.8,308.9,793.8z M515.3,826.5c0.5-0.6,0.9-1.2,1.4-1.8c-3.5-5.5-7-11-11.2-17.7c-2.8,4.1-4.8,6.7-6.2,9.6
		c-0.5,1,0.3,3.6,1.2,3.9C505.3,822.8,510.4,824.5,515.3,826.5z"/>
	<path d="M259.5,744.2c5,3.8,9.2,6.6,12.8,9.9c1.6,1.4,2.1,3.9,3.1,5.9c-2.4,0.1-5.3,1.1-7.1,0.1c-5.2-2.9-9.9-6.7-15.2-10.4
		c1.1,2.9,2.2,5.6,2.9,8.3c0.3,1.3-0.2,2.7-0.3,4.1c-1.5-0.4-3.5-0.3-4.3-1.2c-1.9-2.2-3.4-4.9-4.9-7.4c-0.7-1.1-1.4-2.3-1.7-3.6
		c-1.9-7.8-6.7-11.9-14.8-11.8c-1,0-2.2-0.1-2.9-0.6c-1.2-1-2.8-2.5-2.7-3.7c0.1-1.1,2.1-2.6,3.4-2.8c3.2-0.5,6.6-0.4,10.1-0.6
		c-1.7-8.4-3.1-16.3-4.9-24.2c-0.3-1.4-1.7-2.9-3-3.9c-28-21.3-31.8-50.1-25.9-82.2c0.8-4.1,0.8-8.5,0.3-12.7
		c-0.8-7.8,0.2-15.3,3.4-22.4c2-4.4,5.1-6.7,10.2-6.2c1.2,0.1,3.4-1.2,3.9-2.3c5.7-14.4,21.7-12.7,27.4,0c3.7,8.1,8.3,9.6,16.5,9.4
		c17.3-0.4,34.3,2.3,49.3,11.8c5,3.1,9.4,7.4,13.4,11.7c2.2,2.3,3.8,3.3,7.1,2.7c22.5-4.2,41.2,3,55.7,20.3
		c17.4,20.7,17,51.9-0.7,72.7c-3.2,3.7-4.6,7.4-4,12.3c0.6,5.5,1.4,11,1.2,16.4c-0.1,2.6-1.4,6.5-3.3,7.5c-1.9,0.9-5.7-0.5-7.9-2.1
		c-4.2-3-7.5-7.1-11.7-10.1c-2.6-1.8-6.4-3.6-9.3-3.2c-16.7,2.4-31.3-1.7-44.4-12.2c-1.4-1.1-4.5-0.4-6.7,0c-2.6,0.5-5,1.7-7.4,2.6
		c0.7,8.5,4.2,12.3,12.2,13.5c5.1,0.8,10.3,1.3,15.2,2.6c1.9,0.5,3.2,2.8,4.8,4.3c-1.9,1.3-3.8,3.6-5.7,3.7
		c-4.7,0.3-9.4-0.4-14.6-0.7c1.8,2.2,3.6,3.7,4.6,5.7c0.7,1.3,0.2,3.3,0.2,4.9c-1.5,0-3.4,0.6-4.5-0.1c-3.3-2.2-6.1-5.2-9.5-7.2
		c-3.5-2-7.4-3.3-11.2-4.4c-2.5-0.7-5.7-0.1-5.9-3.8c-0.2-3.5,2-5.1,5.4-5.1c0.6,0,1.3-0.2,2.4-0.4c-0.7-4-1.3-7.8-1.8-11.1
		c-8.5-0.5-16.5-0.3-24.3-1.6c-7.6-1.3-14.9-4.2-23.7-6.8c2.2,7.1,3.5,14.1,6.7,20.1c1.5,2.8,6.4,4.1,9.9,5.5
		c5,1.8,10.2,2.8,15.2,4.7c1.4,0.5,2.2,2.8,3.2,4.3c-1.6,0.5-3.3,1.5-4.9,1.4C267.7,746,264.3,745.1,259.5,744.2z M216,587
		c-1.3,3.3-2.7,5.3-2.8,7.3c-0.3,5.1,0,10.2,0,15.4c0,3.9,0,7.8-0.4,11.7c-0.7,8.1-2.8,16.2-2.3,24.2c1.2,20.7,8,39.2,25.9,51.6
		c10.3,7.2,21.9,11.2,34.4,12.7c11.5,1.3,23.1,1.7,33.5-4.6c4.5-2.8,7.7-2.2,11.5,1.1c9.9,8.5,20.7,14.3,34.5,12.7
		c4.3-0.5,7.3-1.9,10.5-4.7c3.6-3.1,8.1-6.1,12.6-7.2c6.3-1.6,10.8-4.6,14.4-9.7c22.7-32.7,0.5-65.5-22.5-75.6
		c-9.9-4.4-20-4.6-30.3-2.3c-4.1,0.9-6.8,0-10-3.3c-5-5-10.6-9.7-16.7-13.1c-15.5-8.6-32.4-11-49.8-8.6c-5.7,0.8-9-0.4-11.1-6.1
		c-1.4-3.8-4.1-7.3-6.9-10.3c-3.9-4.2-7.3-3.4-9.4,2c-1.1,2.9-1.4,6.1-2,9.2c-0.3,1.6,0,3.5-0.7,4.9c-0.7,1.5-2.1,3.2-3.5,3.5
		c-1,0.3-2.8-1.3-3.7-2.5C219.5,593.2,218.2,590.7,216,587z M366.8,718.4c-0.1,0.8-0.2,1.6-0.3,2.4c4.8,4,9.5,8,14.3,12
		c0.4-0.4,0.8-0.7,1.2-1.1c-0.3-2.9-0.3-6-1.1-8.8c-1-3.3-2.9-6.4-4.4-9.6C373.3,714.9,370,716.7,366.8,718.4z"/>
	<path d="M673.5,889.9c-3-0.7-6.1-0.9-8.8-2.2c-7.1-3.3-7.6-12.7-1-17c6.9-4.5,17.2-4,23.4,1.1c6.1,5,5.3,12.4-2,15.4
		C681.5,888.8,677.5,889.1,673.5,889.9z M683.6,879.9c-4.4-7.2-13-7.8-17.7-1.2C670.5,884.3,678,884.9,683.6,879.9z"/>
	<path d="M281,855.8c4.8,1.8,9.6,2.9,13.5,5.4c4.9,3.1,4.7,8.3,0.3,12.1c-6.7,5.7-20.8,5.9-27.6,0.3c-4.7-3.8-4.9-9.3,0.2-12.5
		C271.4,858.7,276.2,857.6,281,855.8z M270.9,867.1c6.2,6.3,15,6.3,20,0.3C285.3,861.5,277.4,861.3,270.9,867.1z"/>
	<path d="M544.6,922.5c-4.8-2-9.8-3.2-13.9-5.9c-4.7-3.1-4.2-8.6,0.3-12.1c6.8-5.4,21.1-5,27.5,0.8c4.3,3.8,4.4,9.1-0.4,12.1
		C554.2,919.6,549.6,920.6,544.6,922.5z M534.3,910.5c6.3,6.7,16,7,20.9,0.6C548.5,905.3,541.1,905.1,534.3,910.5z"/>
	<path d="M577.7,838.9c-0.7,0-1.3,0-2,0c-7.3-0.6-11.7-4.2-11.9-9.7c-0.2-5.5,4.1-10.3,11.1-10.6c5.3-0.2,11,0.7,15.8,2.7
		c2.5,1,5,5.4,4.9,8.2c-0.1,2.4-3.2,5.7-5.8,7c-3.6,1.8-8,2.1-12,3C577.8,839.3,577.8,839.1,577.7,838.9z M579.3,834.7
		c3.6-2.3,8.9-4.2,8.8-5.8c-0.2-4.4-5.1-4.3-8.6-4.4c-3.6-0.1-8.3-0.1-8.8,4.2C570.5,830.2,575.8,832.3,579.3,834.7z"/>
	<path d="M625.6,873.4c-4.3-1.6-8.3-2.4-11.5-4.5c-5.5-3.5-5.5-9.5-0.5-13.7c6.1-5.1,17.4-5.5,23.7-0.7c5.2,3.9,5.6,10.1,0.3,13.7
		C634.2,870.6,629.7,871.7,625.6,873.4z M634.5,862.5c-3.9-5.4-9.6-6.7-14.9-3.7c-1,0.6-2.3,1.9-2.3,2.9c0,1,1.3,2.2,2.3,2.8
		C624.1,867.3,629.3,866.5,634.5,862.5z"/>
	<path d="M429.3,708.3c-0.7-0.3-2.5-0.5-2.8-1.4c-0.5-1.1-0.3-3,0.3-4.1c1-1.6,2.5-3.4,4.2-4.1c11.1-4.6,22.2-9,33.4-13.1
		c1.7-0.6,4.2,0.6,6.3,1c-1.1,2.1-1.8,5.3-3.5,6c-11.8,5.4-23.8,10.3-35.8,15.3C431,708.1,430.4,708.1,429.3,708.3z"/>
	<path d="M637.2,916.6c-7.7-0.8-14-5-14.4-10.2c-0.4-5.3,4.8-10.2,12.7-10.6c3.9-0.2,8.4,0.6,11.8,2.3c6.2,3.2,6.5,10.2,0.6,14
		C644.8,914.2,640.8,915.1,637.2,916.6z M629.9,906c5.3,3.4,9.9,3.4,14.4,0.4C639.7,901,635.5,900.8,629.9,906z"/>
	<path d="M579.6,896.9c-3.5-1.8-7.9-3.3-11.3-6.1c-3.4-2.7-2.8-7,0.3-10.1c5.3-5.4,17.4-6.6,23.7-2.3c6.3,4.3,6.1,11.1-0.6,14.6
		C588.3,894.6,584.5,895.3,579.6,896.9z M572.8,885.6c5.1,5,12.5,5.1,16.3,0.3C584,880.3,578.6,880.2,572.8,885.6z"/>
	<path d="M571.2,700.7c1,0.6,2.8,1.1,3.2,2.1c0.5,1.1,0,3-0.8,4c-1.1,1.3-2.7,2.5-4.4,3c-11.8,3.9-23.7,7.5-35.5,11.3
		c-1.1,0.3-2.4,1-3.3,0.7c-1.4-0.5-3-1.5-3.7-2.7c-0.3-0.7,0.8-2.8,1.8-3.4c2.4-1.4,5-2.6,7.7-3.5c9.9-3.4,19.8-6.7,29.7-10.1
		C567.5,701.6,569.1,701.2,571.2,700.7z"/>
	<path d="M558.1,845c0.8,0,1.7-0.1,2.5,0c6.2,0.5,10.4,3.8,11,8.4c0.5,4.4-2.7,8.2-9.2,9.3c-4.5,0.7-9.2,0.6-13.7-0.1
		c-3.8-0.6-6.4-3.6-6.6-7.8c-0.2-4.1,2.4-6.5,5.9-7.7c3.2-1.1,6.7-1.7,10-2.6C558,844.7,558.1,844.9,558.1,845z M548.7,854.5
		c5.5,4.3,10.3,4.3,15.2,0.3C559.2,849.2,554.6,849,548.7,854.5z"/>
	<path d="M490.4,900c-2.4-1-5.5-1.8-8-3.6c-4.2-3.1-4.1-8.5-0.3-12.1c4.9-4.6,13.8-5.6,19.6-2.3c3.3,1.9,5.1,4.7,4.8,8.6
		c-0.3,3.9-2.7,6-6.1,7C497.4,898.6,494.3,899.1,490.4,900z M500.2,890.7c-6.1-4.6-9.6-4.6-13.5-0.1
		C490.4,895,493.9,895.1,500.2,890.7z"/>
	<path d="M557.5,799.4c-4.2-1.6-8.1-2.5-11.3-4.6c-4.5-3-4.5-8.2-0.5-11.9c5.6-5.3,17.8-5.5,23.6-0.5c4.1,3.5,4.4,8.8-0.1,11.9
		C565.8,796.7,561.6,797.7,557.5,799.4z M549.2,788.7c5.2,4.6,11.6,4.6,16.2,0C560.1,782.1,554.2,782.1,549.2,788.7z"/>
	<path d="M519.1,857.8c5.6,0,9,1.5,9.6,6.1c0.6,4.4-2.3,6.8-6,8c-4.7,1.6-9.4,1.7-13-2.2c-1.2-1.2-1.6-4.3-0.9-5.8
		C510.9,859.1,515.5,857.9,519.1,857.8z"/>
	<path d="M685.7,482.9c-14.5,8.1-30,13.8-46.4,16.3c-10.5,1.6-21.2,1.8-31.8,2.5c-1.5,0.1-3.1,0-4.4-0.5c-1.6-0.7-3-2-4.5-3
		c1.6-1.2,3-2.7,4.8-3.4c1.6-0.7,3.6-0.5,5.4-0.6c21.1-1.2,41.6-5.4,60.9-14.4c13.7-6.4,25.5-15.1,32.1-29.4c4.2-9,1.2-17-8.2-20.6
		c-1.9-0.7-5.1-0.4-6.6,0.8c-19.6,15.1-42.3,22.1-66.2,26.1c-1.4,0.2-3,0-4.3-0.5c-2.3-1-2.5-2.8-0.4-4.1c1.8-1.1,3.9-1.8,6-2.3
		c18.7-4.7,36.7-11.2,52.6-22.2c3.9-2.7,7.5-6.1,10.7-9.6c4.4-4.9,3.8-7.8-1.8-11.2c-10.8-6.4-22.7-9.5-35-10.9
		c-27.9-3.1-55.1,1.1-81.9,9c-2.1,0.6-4.2,1.2-6.3,1.4c-1,0.1-2.8-0.6-2.9-1.2c-0.1-1.1,0.4-2.5,1.1-3.4c0.7-0.8,1.9-1.4,3-1.8
		c36.8-14.3,74.2-19.9,112.8-7.8c5.9,1.9,11.4,5.3,17,8.3c6.3,3.3,7.7,8.9,6.2,15.3c-0.6,2.8-0.5,4.3,2.3,6
		c13.3,7.8,17.2,19.2,10.6,33.1c-2.9,6.2-7.9,11.4-11.7,17.3c-1.2,1.9-2.6,4.5-2.2,6.5c2.3,11.4-1.3,21-8.2,29.8
		c-12.9,16.5-29.7,27.5-49.1,34.9c-35.4,13.5-71.1,15.7-106.6,0.6c-21.1-9-37.9-23-45.2-45.8c-4-12.5-4.8-25.2,0.7-37.6
		c1-2.2,3.6-3.7,5.5-5.5c0.2,2.6,1.1,5.3,0.5,7.7c-4.8,20.3,1.4,37.7,14.9,52.5c14.8,16.1,33.8,25,55.3,27.5
		c35.2,4,68.3-2.7,98.1-22.7c10.1-6.8,18.7-15.1,23-26.9c1.1-3,1.1-6.3,1.6-9.5C686.7,483.4,686.2,483.1,685.7,482.9z"/>
	<path d="M331.7,337.1c0.4-12.6,9.9-21.8,22.1-21.4c12.6,0.4,22.7,11.5,22.3,24.6c-0.3,12.4-10.2,21.9-22.2,21.5
		C341.3,361.4,331.3,350.2,331.7,337.1z"/>
	<path d="M330.2,293c4.6-16.3,17.3-23.8,32.9-20.1c13.2,3.2,22.7,14.9,20.4,26.6c-6.6-8.9-13.4-16.7-24.8-17.8
		C347.5,280.6,338.8,285.7,330.2,293z"/>
	<path d="M277.5,384.1c2.1-4.5,3.9-9,6.3-13.1c0.7-1.1,3.3-1.1,5-1.6c0.2,1.5,0.9,3.2,0.4,4.3c-1.9,4.2-4,8.3-6.5,12.2
		c-0.5,0.9-2.5,1.1-3.8,1.1C278.4,387,278,385.2,277.5,384.1z"/>
	<path d="M796.3,707.2c-0.9,22.9-8.8,41.7-28.4,54.2c-15,9.5-30.4,9.9-43,0.8c-2-1.5-3.5-3.9-4.7-6.1c-0.5-0.9,0.2-3,1.1-3.9
		c0.6-0.6,2.5-0.3,3.7,0.1c1.1,0.3,2,1.2,2.9,1.9c8.9,7.8,18.8,7.5,29,3.2c20.2-8.6,32.7-29.1,31.3-51.1c-0.4-6.1-3-7.8-8.5-5.1
		c-4.8,2.3-9.3,5.2-14.1,7.5c-1.2,0.6-3.1-0.3-4.7-0.4c0.2-1.6-0.2-4.1,0.7-4.8c5.6-4.2,11-8.8,17.3-11.7
		c9.8-4.5,16.2-0.2,17.3,10.5C796.2,704,796.2,705.9,796.3,707.2z"/>
	<path d="M649.9,772.8c0.1-5.6,4.3-9.8,9.7-9.8c5.4,0,9.6,4.5,9.5,10c-0.2,6.3-4.8,11.9-9.8,11.8C654,784.8,649.9,779.4,649.9,772.8
		z"/>
	<path d="M427.9,814.1c5.6,7,4.5,14.1,0.7,20.6c-6.4,11-17,15.7-29.1,16.9c-18.1,1.9-32.7-5.9-45.3-17.9c-4.7-4.5-6.5-10.8-6.8-17.3
		c-0.3-5.7,2.6-11,8.4-12.2c6.9-1.5,14.1-1.4,21.2-1.7c0.9,0,1.9,1.4,2.9,2.1c-1,1.2-1.7,3.1-3,3.5c-3.8,1.2-7.8,1.8-11.6,2.7
		c-10.2,2.4-12,7.1-6,15.6c11.8,16.9,41.1,22.4,58,10.9c5.3-3.6,7.5-9.1,8.8-15.1C426.7,819.5,427.3,816.8,427.9,814.1z"/>
	<path d="M468.5,797.7c0-6.3,3.7-11.2,8.3-11.2c4.6,0,9.2,5.4,9.1,10.7c-0.2,5.5-4.6,11.1-8.8,11
		C472.4,808.1,468.5,803.3,468.5,797.7z"/>
	<path d="M263.1,643.2c-2.4-1.6-4.8-3.1-7-4.8c-3.5-2.8-6.5-6.3-10.2-8.7c-4.8-3.1-8.3-1.4-9.8,4c-7.1,25,16.9,52.2,42.6,48.3
		c5.7-0.9,10.1-4,13.7-8.4c1.4-1.7,3.1-3.3,4.8-5.1c4.2,4,2.5,7.5,0.2,10.6c-5,6.5-11.8,10.2-20,11c-25.6,2.6-48.7-17.8-50.3-44.5
		c-0.3-5.1-0.2-10.4,1-15.4c2.9-12,15.5-15.9,24.3-7.4c4.5,4.3,7.5,10,11.1,15.3c0.7,1.1,0.5,2.7,0.7,4.1
		C263.9,642.6,263.5,642.9,263.1,643.2z"/>
	<path d="M364.2,685.8c-0.1,6.3-4.3,11.1-9.7,11.1c-4.7,0-8.2-3.8-8.1-8.8c0.1-7,4.1-12.1,9.3-12
		C360.5,676.3,364.3,680.6,364.2,685.8z"/>
</g>
</svg>
