<?xml version="1.0" encoding="utf-8"?>
<!-- Generator: Adobe Illustrator 18.1.1, SVG Export Plug-In . SVG Version: 6.00 Build 0)  -->
<svg version="1.1" id="Layer_1" xmlns="http://www.w3.org/2000/svg" xmlns:xlink="http://www.w3.org/1999/xlink" x="0px" y="0px"
	 viewBox="0 0 1024 1024" enable-background="new 0 0 1024 1024" xml:space="preserve">
<g>
	<path d="M309,610.6c2-4.3,3.7-8,5-10.9c-7.1-5.5-14.2-10.3-20.3-16c-3.4-3.2-5.8-7.7-7.6-12.1c-2.6-6.3-0.7-12.4,3.2-18
		c-3.2-2.5-6.3-4.6-9.1-7.2c-11.5-10.2-17.3-22.9-16.4-38.5c0.7-10.9,8-17.3,18.8-15c9.7,2.1,19.2,5.3,28.9,7.8
		c13.5,3.5,27.2,4.6,41.1,2.4c9.9-1.6,18.2-6.1,25.4-13.5c-6.2-3.3-12.3-6.3-18.2-9.6c-13.6-7.7-26.3-16.5-36.9-28
		c-18.8-20.6-28.4-44.4-23-72.8c2.1-11.1,7.8-20.4,14.4-29.3c2-2.8,3.6-6.5,3.9-9.9c2.2-22.3,4.5-44.5,13.1-65.4
		c23.8-57.9,65.1-95.9,126.6-110.7c0.3-0.1,0.5-0.3,1.2-0.7c-1.5-2.1-3.2-4.1-4.5-6.3c-4-6.4-5.2-13.1-1.1-19.8
		c4.1-6.8,11.1-8.9,18.3-7.5c9.3,1.8,18.4,5,27.1,7.5c-0.3-3.4-1-7.8-1-12.2c0.1-11.9,8.8-18.7,20.1-15.3c5.6,1.7,11,4.8,15.7,8.4
		c13.1,10.1,20.3,24.1,23.9,39.9c0.9,3.7,2.6,5.2,6.1,5.9c71.1,14.3,126,78.2,137.2,147c2.5,15.4,3.3,31.1,4.9,46.7
		c0.2,1.9,0.6,4,1.5,5.7c24,41.4,6.8,81.5-23.6,105c-12.3,9.5-26.2,16.9-39.3,25.3c7.6,3.3,16.4,5.8,25.6,6.4
		c16.1,1.1,31.4-2.3,46.2-8.5c6.2-2.6,13-4.5,19.6-5.1c10.3-0.9,17.5,5.5,19,15.8c2.5,17.5-4.8,31.5-16.6,43.5
		c-2.4,2.5-5.2,4.6-7.8,6.9c11.5,20.5,9.4,28.7-12,46.6c1.1,1,2,2,3.1,2.9c1,0.8,2.1,1.6,3.5,2.6c5.2-6.8,10.2-13.4,15.4-19.9
		c4.6-5.9,9.1-12,14.1-17.5c1.9-2.1,5.4-4.1,7.8-3.7c1.9,0.3,4.1,4.1,4.7,6.6c5.3,23.8,6,47.8,4.5,72.1
		c-2.5,38.9-10.7,76.5-26.6,112.1c-31.9,71.4-83.5,121.4-160.5,140.6c-76.4,19.1-149.4,9.4-215.6-35.2c-41.6-28-69.8-67.1-89-113
		c-19.9-47.5-27.9-97.1-26-148.4c0.3-7.1,1.2-14.3,2.7-21.3c1.6-7.6,6.5-9.3,12.3-4.2c10.2,9,20,18.6,29.9,28
		C302.1,604,305.3,607.1,309,610.6z M690.2,603c-4-0.7-7.9-1.1-11.4-2.3c-2.1-0.7-3.8-2.9-5.6-4.4c2-1.1,3.9-2.9,6-3.2
		c8.9-1.3,17.9-1.7,26.8-3.2c9.9-1.6,16-8.3,20-17.1c1.9-4.2,0.3-7.6-2.6-10.9c-2.9-3.2-5.5-1.3-8.6-0.6c-5.1,1.2-10.4,2-15.7,2.3
		c-1.4,0.1-3.9-1.9-4.1-3.3c-0.3-1.3,1.5-3.4,2.8-4.5c1.2-1,3.1-1.2,4.6-1.8c15.1-5.5,27.9-14.2,36.7-27.9c4.2-6.6,6.6-13.9,5-21.9
		c-1.1-5.7-4.4-8.1-10.1-6.7c-5.8,1.4-11.5,3.4-17,5.7c-25.7,10.6-51.6,12-77.1,0.4c-8.6-3.9-15.9-5-25-2.4
		c-7.6,2.1-16.1,1.5-24.2,1.6c-1.6,0-3.2-2.2-4.8-3.3c1.5-1.5,2.8-3.3,4.6-4.3c1.5-0.9,3.5-0.8,5.3-1.1
		c30.8-4.7,58.5-16.6,82.7-36.3c24.8-20.2,40.2-55.4,17.9-90.3c-1.8-2.7-2.1-6.6-2.4-10c-1.1-12.1-1.3-24.3-3-36.3
		c-8.8-60.8-40.5-105.7-94.9-134.3c-11-5.8-22.6-10.3-35-12.5c-0.4,0.8-0.5,1.3-0.8,1.7c-1.3,1.9-2.6,3.8-4,5.6
		c-1.6-1.7-3.5-3.2-4.6-5.2c-1.1-2-1.2-4.5-2-6.7c-3.5-9.5-6.6-19.2-10.9-28.3c-4.4-9.2-11.5-16.3-21.1-20.4
		c-6.5-2.8-9.7-0.8-8.4,6.1c1.6,8.8,4.6,17.3,7.1,25.9c0.6,2.1,2,3.9,2.4,6c0.3,1.4-0.1,3.6-1.1,4.4c-1,0.8-3.1,0.5-4.6,0
		c-1.2-0.3-2.1-1.5-3.2-2.3c-5.6-4.2-10.7-9.2-16.8-12.5c-6.5-3.5-13.7-6-20.8-7.8c-2.6-0.7-6.9,0.8-8.7,2.8
		c-2.6,3.1-0.2,6.7,2.3,9.2c2.6,2.6,5.5,4.8,8.4,7.1c3.8,3,7.8,5.8,11.3,9c1.1,1,1.9,4,1.3,5c-0.7,1.1-3.4,1.7-5.1,1.5
		c-2.1-0.2-4-1.7-6.1-2.2c-2.2-0.5-4.6-1.2-6.7-0.8c-40.1,7.7-73.2,27.7-99.5,58.8c-26.6,31.5-37.7,68.8-39.7,109.2
		c-0.3,5.9-1.8,10.8-5.6,15.5c-8.7,10.5-14.4,22.3-14.6,36.3c-0.3,19.6,7.6,36,20.4,50.1c16.8,18.5,37.8,30.9,61,39.7
		c9.2,3.5,18.6,6.3,27.7,9.9c2,0.8,3.2,3.6,4.7,5.4c-2.2,0.8-4.5,2.4-6.5,2.1c-7.2-1.1-14.4-2.5-21.4-4.6c-3.4-1-5.6-0.5-7.9,1.8
		c-9.5,9.5-17.7,19.9-23.5,32.1c-10.2,21.7-13.5,44.8-14.3,68.5c-0.2,6.7,0.9,13.5,1.4,21.4c2.2-2,3.5-3.1,4.6-4.2
		c9.2-9.1,18.2-18.5,27.8-27.3c6.9-6.3,9.3-5.8,15,1.3c17.3,21.6,34.4,43.3,51.7,64.9c1,1.2,2.1,2.4,3.3,3.8
		c14.8-19.5,29.3-38.6,43.8-57.7c1.8-2.4,3.6-4.8,5.8-6.8c3-2.8,6.3-2.8,9.3,0.3c1.3,1.3,2.4,2.8,3.4,4.3
		c15.7,23.2,31.3,46.4,47,69.6c1.7,2.6,3.7,4.9,5.6,7.5c16.6-17.2,32.8-33.9,49.1-50.8c-1.1-0.8-2.3-1.7-3.5-2.5
		c-11-7.5-20-17-27-28.4c-4.6-7.5-7.5-15.6-7.4-24.5c0-3-1.8-7.6,3.2-8.1c4.5-0.5,4.1,4.1,4.9,6.9c6,21.4,20.2,36.3,38.1,48.3
		c1.1-0.9,1.8-1.5,2.6-2.2c6.3-5.7,9-6,16.4-1.7c2.3,1.3,4.7,2.6,6.8,4.2c5.1,3.9,10.7,4.4,16.6,3c3.4-0.8,6.7-2,10.1-2.8
		C684.9,614.1,688.4,609.9,690.2,603z M266.7,585.8c-0.4,2.8-0.8,4.4-0.8,6c-0.1,15.8-1,31.7,0,47.4c3.1,48.6,16.7,94.3,41.4,136.4
		c22,37.6,51.4,68,90.2,88.4c48,25.2,99.2,32.9,152.7,26.2c59.8-7.5,110.3-33.2,147.9-80.6c50-63.1,67.9-136,61.6-215.5
		c-0.3-4-1.2-7.9-2-12.8c-10.9,13.8-20.9,26.7-31.3,39.3c-8.3,10.2-16.9,20.2-25.7,29.9c-4.7,5.2-6.2,5.1-12.1,1.4
		c-15.4-9.6-30.9-19.1-46.1-28.9c-3.7-2.4-6-1.8-8.9,1.3c-17.4,18.1-35,36.1-52.6,54.2c-1.4,1.5-2.7,3.1-4.1,4.7
		c5.4,2.7,10.2,5,14.9,7.5c4.8,2.6,9.6,5.4,14.4,8.1c6.8,3.9,6.9,4.1,4.3,11.3c-1,2.8-2.1,5.6-3.1,8.4c-2.1,6.1-6.7,12.6-5.7,18.2
		c1,5.8,7.4,10.7,11.1,16.1c1.1,1.6,1.1,4,1.6,6c-2.2-0.4-5-0.2-6.6-1.4c-5.1-4-9.7-8.7-14.6-12.9c-3-2.5-3.7-5-2.3-8.8
		c3.2-8.2,6-16.6,9-24.9c0.8-2.1,0.9-3.5-1.5-4.9c-9.2-5.1-18-10.8-27.4-15.5c-5.8-2.9-10.1-6.8-13.6-12
		c-10.6-15.8-21.2-31.5-31.9-47.2c-5.8-8.5-11.6-17-17.8-25.9c-1.5,1.9-2.5,3.4-3.6,4.8c-13.7,18-27.3,36.2-41.1,54.1
		c-6.9,8.9-11.1,8.7-18.2,0.1c-0.6-0.8-1.3-1.5-1.9-2.3c-15.7-19.7-31.3-39.3-47-59c-1.7-2.2-3.5-4.4-5.2-6.5
		c-0.6,0.2-1,0.2-1.2,0.5c-14.3,14-28.6,27.9-42.8,42c-1.1,1.1-1.6,3.2-1.7,4.9c-0.8,13.4-1.3,26.9-2.2,40.3c-0.2,3,0.4,4.5,3,6
		c8.2,4.7,16.3,9.7,24.5,14.5c5.1,3,5.6,4.4,3,9.7c-3.6,7.5-7.6,14.8-10.9,22.5c-1,2.2-1,5.5-0.1,7.8c2.1,5.4,5,10.5,7.5,15.7
		c1,2.1,2.6,4.7-0.5,5.8c-1.1,0.4-3.7-1.4-4.8-2.9c-4.3-5.7-8.1-11.8-12.3-17.6c-2.3-3.1-2.4-5.7-0.7-9.2
		c4.1-8.1,7.9-16.4,11.9-24.7c-8.6-5.2-16.7-10.5-25.2-15.1c-5-2.8-6.3-6.3-5.8-11.8c1.2-11.4,1.9-22.9,2.4-34.4
		c0.1-2.2-1.5-5.1-3.2-6.6c-10.7-9.5-21.9-18.4-32.6-28C288.3,606.5,277.9,596.4,266.7,585.8z M359.9,512.4
		c-14.8,3.7-28.4,3.9-41.9,1.2c-10.2-2-20.2-5.5-30.3-8.3c-11.8-3.3-14.7-0.7-12.2,11.5c2.5,12.7,10.3,21.4,21.6,27.1
		c5.3,2.7,10.9,4.9,16.1,7.9c1.5,0.8,2.8,3.4,2.7,5.1c0,1-2.8,2.4-4.5,2.7c-2.2,0.4-4.6,0.1-7-0.1c-7-0.3-9.9,3.5-7,10
		c2.9,6.7,8,11.8,14.6,14.4c8.9,3.5,18.2,5.9,28,9C338.7,563.6,346.3,537.7,359.9,512.4z"/>
	<path d="M481.2,354.4c5.5,2.1,11.6,3.3,16.3,6.5c13.2,8.9,23,21.1,31,34.7c3.4,5.8,3.6,11.1-2,16.1c-2.3,2-3.4,5.3-5.4,7.7
		c-7.5,8.9-14.8,17.9-22.9,26.2c-3.3,3.4-8.2,5.7-12.8,7.6c-9,3.7-17.1,2.1-24.3-4.8c-10.1-9.7-16.2-21.5-19.1-34.9
		c-0.9-4.3-2.6-7-6.9-8.6c-8.5-3.2-10.1-9.1-3.8-15.7c8.7-9.1,18-17.8,27.6-25.9c6.8-5.7,14-7.4,21.8-7.5
		C480.9,355.3,481.1,354.8,481.2,354.4z M518.6,400.8c-6.8-12.3-15.4-21.1-24.8-29.2c-6.1-5.3-13.1-6.6-20.5-3.5
		c-13.1,5.5-22.2,16-32.7,27C466.8,403.3,491.7,408.2,518.6,400.8z M453.5,410.6c-0.4,0.4-0.9,0.9-1.3,1.3
		c3,10.9,7.9,20.7,16.4,28.6c3,2.8,6.3,4.3,10.4,3c14.8-4.8,23.1-16.8,33.1-28.9c-6.3,0.5-10.4,1.7-13.9,5.9
		c-3.6,4.3-7.9,8.2-12.5,11.4c-7.4,5.3-14.6,4.1-20.1-3.2c-3.3-4.3-5.6-9.4-8.6-14C456.1,413.2,454.7,412,453.5,410.6z M469.4,413.9
		c-0.4,0.5-0.8,1-1.1,1.5c2.8,2.8,5.5,7.6,8.4,7.8c3.7,0.2,7.6-3.5,11.4-5.5c-0.2-0.6-0.4-1.1-0.6-1.7
		C481.4,415.2,475.4,414.6,469.4,413.9z"/>
	<path d="M548.8,355.3c0.3-10.3,3.2-19.6,8.7-28c11.6-17.5,32.1-19.5,47.1-4.8c15.3,15.1,16.5,44.2,2.5,60.5
		c-12,14-31.6,15.3-45.3,2.8C552.7,377.6,548.9,367.1,548.8,355.3z M587.1,335.7c0-6.1-4.4-10.8-10.1-10.8
		c-5.8,0-10.7,5.4-10.6,11.6c0.1,5.8,4.4,10.5,9.8,10.6C582,347.3,587,342,587.1,335.7z"/>
	<path d="M437.1,342.9c0.4,7.4-0.9,14.8-4.8,21.7c-7.1,12.8-20.2,20.1-32.4,18.2c-12.6-2-23.2-13-25.5-27.5
		c-2.5-15.1,1-29,11.5-40.3c3.9-4.1,9-7.4,14.2-9.8c9.7-4.4,19.1-2,26.3,5.9C434.6,320,437.6,330.7,437.1,342.9z M407.1,329.7
		c0,6.3,4.3,11.3,9.6,11.3c5.3,0,10-5.4,10.1-11.7c0.1-6.5-4.4-11.7-9.9-11.5C411.5,318,407.1,323.3,407.1,329.7z"/>
	<path d="M415.7,261.8c-8-0.8-14.5,2.5-20.6,7.2c-2.2,1.7-4.4,3.6-6.9,0.9c-2.4-2.6-1.4-5.3,0.7-7.6c6.8-7.1,14.8-11.9,24.9-12
		c3.1,0,6.5,1.2,9.3,2.7c1.4,0.8,2.8,3.8,2.4,5.2c-0.4,1.5-3,2.7-4.8,3.4C419.1,262.2,417.3,261.8,415.7,261.8z"/>
	<path d="M589.8,256c11.8,0.5,22,4.1,29.1,14c1.7,2.4,3.9,5.2,0.8,7.9c-3.2,2.9-5.4,0.3-7.4-2c-4.8-5.5-10.9-8.6-18-9.9
		c-1.8-0.3-3.6-0.6-5.4-1.1c-3.2-0.8-8.1-0.3-7.5-5.3C581.9,255,586.6,256.3,589.8,256z"/>
</g>
</svg>
