<?xml version="1.0" encoding="utf-8"?>
<!-- Generator: Adobe Illustrator 18.1.1, SVG Export Plug-In . SVG Version: 6.00 Build 0)  -->
<svg version="1.1" id="Layer_1" xmlns="http://www.w3.org/2000/svg" xmlns:xlink="http://www.w3.org/1999/xlink" x="0px" y="0px"
	 viewBox="0 0 1024 1024" enable-background="new 0 0 1024 1024" xml:space="preserve">
<g>
	<path d="M753.1,887c2.7,2.5,5.3,5,8,7.4c5.2,4.4,6.5,9.2,3.7,14.5c-3.4,6.4-10.1,10-16,8.4c-2.9-0.8-5.6-2-9.4-3.3
		c1.2,5.8-0.1,10.8-5.2,12.8c-4.1,1.6-9,2.6-13.3,2c-6.6-0.9-11.8-5.5-14.3-11.5c-3.2-7.8-5.1-16-7.6-24.1c-0.3-0.9-0.3-1.9-0.5-3.8
		c-1.4,2.1-2.1,3.6-3.2,4.6c-3.7,3.4-7.3,7.3-11.6,9.8c-4.4,2.6-9.1,1-12.8-2.5c-3.7-3.5-4.2-8-2.2-12.4c1.9-4.2,4.4-8.2,6.7-12.2
		c3.5-6.1,5.4-12.4,3.4-19.6c-0.8-2.8-2-3.7-4.9-3.3c-8.6,1.3-17.1,2.6-25.7,3.5c-11.9,1.3-23.6,0.3-35-3.7
		c-25-8.8-36-27.9-38.1-52.9c-0.9-11-0.2-22.2-0.2-33.8c-0.9,0-1.7-0.1-2.5,0c-20.4,2.5-40.2-0.9-59.9-5.5
		c-13.6-3.2-27.2-6.3-41-8.7c-5.1-0.9-10.6,0-15.9,0.4c-3.1,0.2-4.2,2.2-3.5,5.2c2.4,9.9,4.4,19.8,7.1,29.6c2.2,7.8,5,15.5,7.6,23.2
		c2,5.9-3.3,5.8-7,8c1,4,2.1,8.3,3.1,12.6c1.6,7,3.8,13.9,4.7,20.9c2.9,22-14.8,35.4-35.3,26.7c-5.8-2.5-11.4-5.6-17-8.5
		c-13.2-7-27.2-11.6-42.1-13.4c-5.2-0.6-8.5,0.1-10.8,5.7c-3.9,9.7-12.7,13-21.5,9.2c-6.6-2.8-9.2-7.7-7.8-14.8
		c0.2-1.1,0.3-2.2,0.6-4.1c-4.6,2.3-8.4,2.1-11.5-1.5c-3.3-3.8-3.2-8.2-2.3-12.8c0.9-4.7,2-9.4,2.4-14.1c1-12.2,7.3-19,19.5-21
		c1.7-0.3,4-1.7,4.6-3.2c2.8-6.5,7.9-9.7,14.5-10.9c10.9-1.9,21.2,0.8,31.1,4.9c2.4,1,4.8,2,8.2,3.5c-1.4-4.5-2.5-8.1-3.7-11.7
		c-6.6-19.7-11.6-39.7-9.9-60.7c0.4-4.9,1.3-9.9,2.6-14.7c5.8-21.6,19.9-33.1,42.3-33.2c12.9-0.1,25.8,1.4,39.3,2.2
		c-5.4-20.3-6.1-41.8-3-64.8c-11,10.9-23.3,16.3-37,18.7c-19.8,3.6-39.6,3-59-1.5c-11.6-2.7-22.9-6.7-34.9-10.3c1.4,2,2.7,3.9,4,5.8
		c34,48.5,20.7,119-28.8,151.1c-6.9,4.5-14.8,7.7-22.6,10.4c-10.1,3.5-17.8-3.5-16.1-14c0.6-3.7,2.5-7.2,3.8-10.8
		c1.5-4.1,3.1-8.2,4.4-11.5c-9.2,4.6-18.2,9.9-27.9,13.6c-9.6,3.7-19.9,5.5-30.4,3.1c-5.8-1.3-10.5-4.4-12.2-10.5
		c-1.7-5.8,0.8-10.3,4.8-14.3c4.2-4.2,8.1-8.7,12.1-13c-6.6,0-12.6,0.1-18.6,0c-8-0.2-15.4-2.8-22-7.3c-9.7-6.7-9.5-17.5,0.1-24.3
		c9-6.5,18.2-12.9,26.6-20.1c9.9-8.4,16.7-19.4,22.6-30.9c7.6-14.8,14.9-29.7,21.9-43.5c-3.6-4.3-8.6-7.5-9-11.2
		c-1-8.6-2.1-16.7-5.8-24.7c-2-4.5,0.7-9.7,3.9-13.9c0.9-1.2,1.5-3.4,1-4.7c-3.7-10.7-1.7-18.6,7.2-25.6c2.9-2.2,6.1-4.1,9.4-6.3
		c-1.7-3.8-3.5-7.5-4.9-11.3c-3.2-8.7,0.7-14.9,9.8-14c9.5,0.9,19,3.1,28.2,5.7c6.5,1.8,8,9.7,3.9,15.8c-1.4,2-3,3.9-4.5,5.8
		c0.5,0.5,0.7,0.9,0.9,1c16.6,3.3,25.8,14.5,30.3,29.8c2.1,7.1,6.4,11.1,12.5,14.5c34.7,19.2,76.6,15.5,105.1-9.5
		c1.2-1.1,2.7-1.8,3.5-2.4c-12.3-5.4-24.2-9.7-35.2-15.7c-14.8-8.1-26.2-19.7-29.8-36.9c-1.4-6.9-0.9-14.2-1.3-21.7
		c0,0-0.6-0.4-1.2-0.3c-28.2,2.4-55.1-27.4-56.8-55.8c-1-17.2,3.2-32.4,16.4-44.2c9.9-8.9,18.9-9.9,31.2-3.6
		c7.6-44.6,36.4-70.4,77.5-86c-2.9-2.3-5.7-4.1-7.9-6.4c-1.8-1.9-2.9-4.4-4.3-6.6c2.3-1.4,4.6-4.1,6.8-4c6.3,0.4,12.5,1.9,18.5,2.9
		c-1.1-1.7-2.6-4.3-4.5-6.6c-2.3-2.8-5-5.3-7.6-7.9c-3.3-3.3-7.8-6.4-6-11.7c1.8-5.4,7.5-5.6,12.2-6c7.4-0.5,14.1,1.9,20.2,6
		c8.8,6,16,13.5,21.5,22.7c1.1,1.9,2.4,3.8,4.1,6.7c0.7-3.8,0.9-6.5,1.7-9.1c1.3-3.9,2.6-8,4.7-11.5c2.7-4.5,7.8-6.2,12.1-4.8
		c5.2,1.7,6.9,5.8,6.5,10.6c-0.5,5.8-1.8,11.4-2.8,17.6c40.9,5.6,73.3,25.1,94.3,63.6c0.7-6,1.6-10.8,1.9-15.7
		c2.8-41.8-4.4-82-19.7-120.8c-0.9-2.2-2.5-4.3-4.3-5.9c-5.2-4.6-10.7-8.8-16.2-13.2c-8.4,6-17,12.8-26.3,18.7
		c-20.2,12.8-42,22.4-65,28.9c-1.6,0.5-3.5,0.1-5.3,0.1c-0.1-0.5-0.2-1-0.3-1.5c2.3-1,4.6-2.1,6.9-3c22.8-8.1,44.9-18,64.8-32
		c8.7-6.1,17.1-12.8,25.4-19.4c4.3-3.4,2.1-15.7-3.2-16.9c-2.2-0.5-5.7,0.5-7.4,2.1c-36.9,35.6-80.3,57-132.2,57.6
		c-30.1,0.4-58.3-7.9-83.1-25.7c-7.8-5.6-13.6-12.8-16.2-22.1c-0.7-2.3-0.8-6,0.6-7.3c1.6-1.6,5.2-2.1,7.7-1.6
		c6.9,1.4,12.3,5.7,16.4,11.4c3.6,5,7.1,10.1,11.3,14.6c13.2,14.3,30.5,20.6,49.2,23.2c35.3,4.8,67.8-4.5,98.4-21.3
		c12.5-6.9,23.8-15.9,35.6-23.9c2.5-1.7,2.5-3.5,1.9-6.3c-1.1-5.5-1.8-11.2-1.7-16.7c0.1-6.5,3.7-11.4,9.5-14.2c3-1.5,4.5-3,4.6-6.7
		c0.1-5.3,2.8-9.4,7.5-12.3c1.3-0.8,2.7-2.1,3.1-3.4c3.2-10.7,8.4-15.4,19.8-15.1c6.4,0.1,8.7-2.4,10.9-7.8
		c10-24.6,17.9-49.8,23.6-75.7c0.5-2.2,1.4-4.2,2.2-6.4c4.6,1.5,4.1,4.5,3.3,7.2c-5.5,19.7-10.9,39.4-16.9,59
		c-2.7,8.7-6.6,17-10,25.6c4,2.4,7.9,4.8,12.4,7.6c3.7-7.6,7.5-15.1,10.9-22.8c10.2-22.7,19.2-45.7,25.3-69.9
		c0.1-0.5,0.2-1.1,0.4-1.4c1.2-1.5,2.8-4.3,3.8-4.2c3.3,0.7,2.7,3.5,2,6c-8.4,31.7-20.7,61.8-35.9,90.8c-1.1,2-2.7,4.4-2.3,6.3
		c0.8,4,2.6,7.8,4.2,11.7c0.2,0.5,1.4,0.9,2.1,1c12.3,0.8,20.3,12.3,21.4,27.4c1,13.2-0.9,25.9-7.9,37.5c-0.8,1.4-0.8,3.9-0.1,5.4
		c15.6,34,23.9,69.8,27.3,106.9c1.2,12.9,1,26,1.6,38.9c0.1,2.2,0.6,5,2,6.3c20.1,18.2,22.2,41,16.9,65.7
		c-4.6,21.5-16,38.2-35.9,48.5c-4.6,2.4-6.6,5.7-7.9,10.6c-7.7,29.3-22.6,54.7-43.4,76.4c-4.3,4.5-5.8,8.6-3.4,14.2
		c4.6,10.9,8.5,22.1,13.8,32.6c8.9,17.7,18.9,34.8,27.9,52.5c7.7,15.2,12.5,31.5,14,49.2c11.5-0.5,21.9-3,30.8-10.3
		c13.3-10.9,19.6-25.3,20.6-42.3c1.2-19.5-4.8-37.5-12.2-55.1c-7.1-16.9-13.6-34.1-15.3-52.5c-2.7-28.3,2.9-54.3,23.7-75
		c18.4-18.3,40.7-24.7,65.6-16.7c25.7,8.3,40,27.2,45.2,53.2c2.6,13.3,1.1,26.3-5.1,38.4c-4.5,8.6-11.1,14.6-21.6,14.3
		c-8.1-0.2-14-5.8-14.1-13.9c-0.1-4.1,0.9-8.2,1.8-12.3c1.8-8.1,2.5-16.2-0.1-24.2c-3.3-10.2-9.8-17.6-20.7-19.5
		c-11.6-2-21.2,2.4-28,11.7c-8.2,11-10.7,23.9-9.5,37.4c1.5,17.3,7.7,33.3,14.2,49.2c7.7,19,13.5,38.5,12.9,59.1
		c-1.1,33.6-14,61.1-43.3,79.3c-12.9,8-27.3,11.4-42.4,11.2c-2.3,0-4.4-0.3-5.3,3c-4.9,19.9-10.2,39.6-15,59.5
		c-1.6,6.4-0.8,8,5.8,7.7c9.7-0.4,19.7-1.2,29-3.8c27.4-7.5,42.2-1.9,56,23c4.4,8,8.7,16.1,12.8,24.3c4.1,8.3,10.2,14.7,18.4,19.1
		c2.3,1.3,4.6,2.6,6.8,4.1c5.6,3.8,7.3,8.1,5.7,14.1c-1.4,5.6-6.3,9.8-12.3,10.1c-3,0.1-6-0.1-8.9-0.7c-2.8-0.7-5.5-2.1-8.2-3.2
		C753.5,886.5,753.3,886.7,753.1,887z M574.8,585.8c0.5-0.3,1-0.6,1.4-0.9c2.2,2.9,4.9,5.7,6.7,8.9c9.8,17.4,16.5,36,21.4,55.2
		c4.9,19.5,8,39.1,2.7,59.2c-8.5,31.8-33,47.6-64.5,40.6c-30.6-6.7-52.8-24.4-65.5-53.3c-1.8-4-4.2-6.3-8.5-7.3
		c-13.4-3.3-26.9-4.6-40.6-3c-15.7,1.8-26.9,9.5-31.4,25.1c-1.8,6.3-3.1,13.1-3.2,19.6c-0.4,23.9,7,46.2,15,68.4
		c0.4,1.1,1.3,2,2.2,3.2c1.3-2.7,2.3-4.8,3.6-7.5c9.8,6.9,13.6,20.2,27.7,22.5c-1.1-4.7-2.1-8.5-2.7-12.3c-0.2-1.4,0.4-3.3,1.4-4.3
		c0.5-0.5,2.8,0.2,3.9,1c2.9,2.2,5.4,5,8.5,7c1.7,1.1,4.2,0.9,6.4,1.3c0-2.2,0.2-4.3,0-6.5c-0.1-0.9-0.7-1.9-1.1-2.8
		c-5.5-11.7-9.3-23.9-10.5-36.8c-0.9-9.1-1.3-18.3-1.9-27.5c0.7-0.1,1.4-0.2,2-0.4c1.3,3.9,2.6,7.8,4.1,12.3c7.3,0,14.7-1,21.8,0.2
		c16.6,2.7,33,6.3,49.5,9.7c14.7,3,29.5,5.4,44.6,3.9c5.7-0.6,11.1-1.1,11.6-8.5c0-0.4,0.4-1,0.8-1.3c0.9-0.6,2.1-1.5,2.8-1.2
		c0.8,0.3,1.4,1.7,1.5,2.7c0.1,1.1-0.3,2.3-0.6,3.4c-3.9,15.8-4.3,31.7-1.7,47.6c4.6,28.6,25,46.4,53.9,47.2
		c14.6,0.4,28.8-2.8,42.8-6.7c5-1.4,10-3.2,14.9-4.8c0.1-0.7,0.1-1.5,0.2-2.2c-3.9-1.2-7.9-2.4-13-3.9c2.2-1.5,3.6-2.8,5.2-3.5
		c2.1-0.9,4.7-1.1,6.6-2.3c1.8-1.1,2.9-3.2,4.3-4.9c-1.8-1-3.5-2.2-5.4-2.9c-1.9-0.6-4-0.4-5.9-0.9c-1-0.3-2.4-1.1-2.5-1.9
		c-0.2-0.8,0.7-2.5,1.5-2.8c3.1-1.2,6.3-2.1,9.4-3.1c0.4,0.3,0.8,0.5,1.2,0.8c-3.2,4.1,0.2,4.5,2.2,5.6c6.3,3.5,6.9,6.9,1.8,12.1
		c-1,1-2.1,2-3.2,3c7.7,7.3,6.7,11.1-3.4,14.2c-3.3,1-6.6,2-9.8,3c4.7,17.5,4.4,19.4-5.6,34.5c-0.9,1.4-1.8,2.8-2.6,4.3
		c-1.6,2.8-2.3,5.6,0.2,8.3c2.7,2.9,6.3,3.2,9.1,1.2c3.2-2.4,6-5.6,8-9.1c2.3-4,3.4-8.7,5.2-13c0.8-2,2.2-3.7,3.4-5.5
		c0.7,0.1,1.4,0.2,2,0.3c0.7,4,1.4,7.9,2.2,11.9c1.7,9,2.9,18.1,5.1,27c2.2,8.9,9,13.9,16.4,13.3c6.9-0.5,9.2-5.5,5.7-11.5
		c-3.1-5.4-6.1-11.1-8.3-16.9c-2.1-5.5-2.8-11.5,0-18.6c1.4,3.4,2.4,5.7,3.4,8.1c3.6,8.3,7.1,16.7,14.4,22.4
		c2.9,2.2,6.8,4.2,10.2,4.2c2.6,0,5.8-2.7,7.6-5.1c2.3-3.1-0.8-5.1-3.1-6.8c-7.8-5.9-12.5-13.7-14.6-23.1c-0.7-3.2-0.6-6.6-0.9-9.9
		c2.6,2.1,4,4.3,5.8,6.3c1.8,2.1,3.7,4.5,6,5.9c3.9,2.4,8.1,4.8,12.5,5.8c5.7,1.3,10.9-1.6,11.9-5.7c1.4-5.4-2.8-7.4-6.4-9.4
		c-12.5-6.9-21.6-16.7-27.8-29.7c-4.7-9.7-10.2-19.1-16.3-28c-7.8-11.4-19-15.1-32.4-11.8c-6.5,1.6-12.8,3.8-19.4,4.7
		c-8.7,1.2-17.5,1.3-26.3,1.9c0.3,2.7,0.7,5.9,1.1,9.2c-0.6,0.3-1.2,0.6-1.7,0.8c-1.5-2.6-4.1-5.1-4.4-7.9
		c-0.8-7.1-1.9-14.5-0.6-21.3c2.4-13.6,5.3-27.2,9.8-40.2c12.1-34.4,8.2-67.3-7.7-99.2c-7-14.2-15-27.8-22.6-41.7
		c-7.1-12.9-13.1-26.2-16.5-40.6c-0.5-2-1-4-1.5-5.8c-2.7,1.1-4.9,2-7,3c-0.4-0.5-0.8-0.9-1.3-1.4c2.1-2.8,3.9-5.8,6.3-8.3
		c18-18,32.3-38.5,42.2-62c3.1-7.4,5.6-15.2,8.4-22.9c-8.3,0-15.7,0-23.3,0c-4.7,15.8-12.5,29.5-24.3,40.5
		c-15.1,14.1-31.8,26.6-50.4,35.6c-28.8,14-59.7,16.8-91.2,11.7c-3.4-0.5-5.6,0.1-7.9,2.5c-9.8,10.1-21.3,17.7-34.7,22
		c-30.1,9.7-58.4,5.1-85.6-10.4c-5.6-3.2-9.1-6.8-10.6-13.4c-2.3-10.1-7.4-19-16.6-24.7c-7.4-4.6-15.3-6-23.1-1.3
		c-7.4,4.4-12.1,11.4-15.5,19.1c-1.5,3.3-1.2,6.5,1.9,9c4.7,3.9,12.3,4.3,16.6-0.1c3.5-3.6,5.8-8.2,8.4-12.6
		c1.1-1.9,1.6-4.1,2.7-6.8c4.1,5.3,3.5,9.8,1.1,14.3c-3.8,7.1-3.8,7.2,1.6,13.7c2.4,2.9,4.8,5.7,7.8,9.1c-5.2,0.9-4,3.6-3.2,6.1
		c3.6,10.2,11,17.4,19.2,23.8c22.2,17.2,48.3,22.6,75.4,23.9c18.5,0.9,36.6-1.3,52.9-11.4c5.2-3.2,9.4-5.5,7.3-14
		c-2.3-9.3,2-19,6.3-27.7c0.6-1.3,2.2-2.1,3.3-3.1c0.4,0.2,0.8,0.5,1.3,0.7c-0.7,10.1-9.2,18.7-6.9,30.9c4.9-4.7,8.9-8.7,13.4-13.1
		c0.3,1.6,0.4,2,0.3,2.3c-0.4,1.8-0.9,3.6-1.4,5.3c-6.8,23.3-7.7,47-2.4,70.7c7.7,34.5,26.9,59.5,61.5,70.6
		c31.4,10.1,55.7-3.3,64.5-35.1c3.1-11.1,3.7-22.4,2.3-33.7c-3.5-28.6-13.3-55.2-26.1-80.9C576.4,589.6,575.7,587.7,574.8,585.8z
		 M570.8,451.6c0.9-1.9,1.5-3.2,2.3-4.5c11.5-20.4,15-42.2,9.9-65.1c-5.4-24.2-18.8-41.9-42.3-51.2c-7-2.7-14.1-3.6-21.5-2
		c-20.6,4.4-35.1,16.7-45,34.9c-2.9,5.3-3.3,5.1-7.6,1c-6.5-6.2-12.9-12.7-20.3-17.5c-10-6.5-21.1-8.1-31.9-0.9
		c-9.8,6.5-17,15.2-20.3,26.4c-7.7,26.1-5.9,51.4,9.2,74.7c2.7,4.2,2.7,6.9-0.4,10.8c-9.4,11.7-13.5,25.1-11,40.1
		c2.8,16.7,13.4,27.6,27.6,35.3c30.5,16.4,63,20.5,96.9,14.8c24.1-4,46.1-12.8,63.8-30.5c8.4-8.5,14.3-18.4,16.7-30.1
		C600.2,469.9,588.3,452.9,570.8,451.6z M372.5,398c1.6-8.4-0.2-14-5.8-17.3c-6.3-3.7-12-1.4-17.1,2.5c-8.1,6.2-13.2,14.5-15.6,24.4
		c-6,24.7,8.2,53.4,31.6,63.2c5.1,2.1,10.9,2.8,16.5,3.1c2.1,0.1,5-2.2,6.4-4.2c3.2-4.2,5.9-8.9,8.4-13.5c0.8-1.4,1.2-3.9,0.4-5
		c-11.8-18.9-15.1-39.6-13.2-61.4c1.5-18.1,7.6-34.1,22.1-45.9c10.1-8.2,21.3-10.4,33.7-6.1c9.7,3.3,17.7,9.1,25,16.1
		c1.6,1.6,3.2,3.1,5.2,5c5.7-10.6,12.8-19,22.1-25.1c14.7-9.6,30.3-15.5,48.1-9.7c10.6,3.5,20,9.1,27.8,17.1
		c21.5,22.2,25.9,49.2,21,78.3c-1.6,9.4-5.3,18.4-8,27.5c26.5,15.6,26.1,37.7,13.4,63.6c12.2-11.4,21.1-23.3,26.5-37.6
		c1.5-4,2.9-7.7-0.4-11.5c-0.7-0.8-0.1-2.7-0.1-4c1.2,0,2.7-0.4,3.7,0.2c13.8,7.4,26.9,4.5,39.4-2.9c26.3-15.4,39.7-52.7,29.6-81.5
		c-10.2-29-38-38.3-63.5-21.3c-4.7,3.1-7.9,6.8-9,12.5c-0.8,4.5-2.7,8.8-7.9,11.6c0.8-4.6,1-8.4,2.2-12c1.8-5.4,0.5-10-1.7-14.9
		c-5.8-12.5-14.3-22.8-24.5-31.9c-18.6-16.5-40.2-25.9-65-27.3c-6.4-0.4-7-1.4-5.1-7.5c1.8-5.6,2.9-11.5,3.9-17.4
		c0.2-1.4-1.1-4.2-2.1-4.4c-1.6-0.3-3.8,0.6-5.2,1.8c-1.6,1.3-2.9,3.3-3.6,5.3c-1.4,3.7-2.2,7.6-3.3,11.5c-1.3,4.6-2.6,9.2-3.9,13.7
		c-0.6-0.1-1.1-0.2-1.7-0.3c-1.7-3.8-3.4-7.5-5.1-11.3c-5.3-11.7-13.2-21.1-24.5-27.5c-1.6-0.9-3.7-1-5.5-1.1
		c-3.1,0-6.2,0.2-9.3,0.5c-1.7,0.1-3.3,0.4-6.3,0.7c2.8,3,5,4.8,6.6,7c5.6,8,11,16.1,16.2,24.3c0.7,1,0,2.9-0.1,4.5
		c-1.3-0.5-2.8-0.7-3.9-1.4c-4.3-2.9-8.3-6.1-12.7-8.8c-3-1.8-6.2-2-9.5,1c5.5,5,10.9,9.8,17.2,15.5c-2.6,0.7-4,1.2-5.5,1.4
		c-1.8,0.2-3.6-0.2-5.4,0.1c-40,7.5-74.1,48.2-75.3,89.3c-0.5,17.5,1.1,34.6,6.8,51.2c1.4,4,1.4,8.4,2.1,12.6
		c-0.6,0.1-1.3,0.3-1.9,0.4c-2.8-6.9-5.6-13.8-8.6-20.6c-0.8-1.7-2.4-3-3.7-4.5c-2.2,1.8-5.2,3.3-6.3,5.6c-0.9,2-0.3,5.3,0.7,7.7
		c1.3,3.2,3.5,6,5.1,9.1c0.7,1.4,0.8,3.1,1.2,4.6c-1.8-0.4-4-0.3-5.3-1.3c-11.8-9.5-10.7-24.1,2.2-32c1-0.6,2.2-1.2,2.6-2.1
		c1.4-3.1-2.3-11.7-5.5-13.5c-7-3.8-13.9-1.3-16.9,6.6c-1.4,3.7-1.8,7.8-2.6,11.8c-3.7-5.5-3.5-12.7,0.7-18.7
		C356.1,395.9,363.8,394.7,372.5,398z M665.7,722.6c2.2,0.1,3.8,0.3,5.5,0.3c11.9-0.1,23.2-2.7,33.5-8.5
		c32.2-18.2,44.4-47.2,43.5-82.8c-0.4-17.6-6-34-12.5-50.1c-6.3-15.8-12.8-31.5-14.3-48.7c-1.6-17.7,1.2-34.4,13.9-47.9
		c16.2-17.3,43.4-13.3,54.2,7.8c4.2,8.3,5.5,17.1,4,26.2c-0.8,4.9-2.4,9.7-3.2,14.6c-1.3,8,5.8,14,13.1,10.5
		c3.8-1.8,7.3-5.3,9.8-8.8c5.1-7.2,5.9-15.7,6.2-24.3c1.3-34.5-26.7-63.9-60.5-62.5c-24,1-41.4,13.6-52.7,34.4
		c-12.4,22.9-13.1,47.3-5.8,71.7c4.8,16.1,11.3,31.6,17,47.4c6.1,16.9,8.5,34.2,5.6,52c-4.2,26.4-24.6,46.1-51.1,49.3
		c-1.7,0.2-4.5,1.3-4.7,2.3C666.4,711,666.2,716.6,665.7,722.6z M608.5,208c17.7,44.2,24.5,90.2,18,137.5c8.4-3,16.3-6.4,24.5-8.6
		c8.7-2.3,16.8,1.7,25.3,4.8c0.1-2.3,0.3-4.1,0.3-5.9c0.7-36.5-5.9-71.9-16.9-106.5c-3.3-10.4-7-20.9-11.7-30.7
		c-2-4.3-3.2-6.9-0.4-11.3c8.6-13.7,9.9-28.8,5.2-44.1c-2.3-7.5-8.2-11.7-16.1-12.1c-10.2-0.6-25,11.5-26.6,21.6
		c-0.4,2.3-0.3,4.7,0.1,7c1.1,6.1,4.8,7.9,10,4.5c3-2,5.5-4.7,8.4-7.1c1.4-1.2,3-2.3,4.9-3.7c1,4.8-0.7,7.8-3.4,10.5
		c-2.8,2.7-7.3,5.2-7.7,8.3c-0.5,3.6,2.6,7.6,4.2,11.5c0.6,1.4,1.5,2.6,1.9,4.1c0.5,1.8,0.6,3.6,1,6c-6.1-3.3-8.2-6.1-12.1-16
		c-1.8-4.5-5.7-5.2-9-1.4c-1.2,1.4-2.2,2.9-3.5,4.2c-2.8,2.8-6.1,4.3-10,2.5c-3.7-1.7-5.5-0.1-6.8,3c6.7,8.8,10.9,11.4,28.6,17.1
		C613.3,205,611.1,206.4,608.5,208z M290.6,780.9c0.3,0.5,0.6,1.1,0.9,1.6c1.9-0.6,3.9-1,5.7-1.9c25.4-12.8,40.6-34.2,50.4-60.1
		c10.5-27.8,9-54.8-5.8-80.8c-7.4-13-15.2-25.7-26.8-35.7c-8.5-7.4-15.3-16.3-15.4-28.6c0-0.5-0.7-0.9-1-1.5
		c-5.4,5.7-5.4,16.2-1.3,20.6c-0.5,4.8-1.4,8.7-1.1,12.4c1.3,17.1,2.6,34.2,4.6,51.2c4.6,38.5-0.2,75.4-17.9,110.2
		c-0.8,1.6-1.3,3.2-1.7,4.3c3,0.8,5.5,1.7,8.1,2.1c1.1,0.2,2.6-0.4,3.4-1.2c3-2.9,6-5.8,8.5-9.1c19.5-25.7,25.6-55.1,23.4-86.7
		c-1.3-18-6.8-34.9-13.6-51.4c-0.8-1.8-1.4-3.7-2-5.6c-0.6-1.8-1-3.7-1.5-5.5c1.4,0.4,1.9,1,2.3,1.7c17.6,29.4,24.5,61.1,18.7,94.9
		c-4.4,25.8-13.8,49.4-35.5,66.2C292,778.8,291.4,780,290.6,780.9z M379.3,840.4c-0.2,0.5-0.5,1-0.7,1.5c-4.3,0-8.6,0.3-12.8-0.1
		C354.1,840.9,344,846,340,855c-2.1,4.7-1,9.8,2.7,12.1c3.8,2.4,9.4,1.4,12.5-2.6c2-2.6,3.7-5.6,5-8.6c1.6-3.8,4.1-5.5,8.1-4.9
		c8.7,1.4,17.8,1.8,25.9,4.7c12.6,4.5,24.6,10.7,36.9,16.3c8.1,3.7,16.5,6.5,24.5,0.2c8.1-6.3,8-15.4,6.2-24.2
		c-2-9.9-4.9-19.7-7.5-29.5c-1.2-4.6-4.3-7.2-9.7-8.1c0,2.2,0.1,4,0,5.7c-0.3,5.2-2.8,6.9-7.6,4.8c-3.1-1.4-6.1-3.4-8.8-5.6
		c-3.8-3.1-7.2-6.6-10.8-10c-0.4,0.2-0.8,0.3-1.2,0.5c0.9,3.8,1.8,7.7,3,12.5c-3.1-2.1-5.4-3.9-7.9-5.3c-9-4.9-17.8-10.6-27.3-14
		c-7-2.5-15-2.7-22.6-2.6c-8.3,0.2-11.5,5.8-9,13.8c2.1,6.6,6.1,9.6,14,9.5c11-0.2,20.6,2.7,29.2,11.5c-5.2-1.9-9.4-4.5-13.8-4.9
		c-12.2-1.3-24.4-2.3-36.7-2.2c-10,0.1-18.2,8.5-19.5,17.8c-0.4,2.9,0.2,6.2,3.4,6c4-0.3,8.5-1.2,11.5-3.5
		c10.7-8.3,22.2-10,34.9-6.5C376.7,838.2,377.9,839.5,379.3,840.4z M289.5,602c-3.1,1.6-6.7,1.5-7.6,6.2c-1.5,8.5-3.3,17-5.4,25.3
		c-10.9,41.9-25.1,82.1-54.8,115c-0.9,1-1.3,4.1-0.6,4.7c1.2,1,3.8,1.6,5.2,1c9.4-4.6,19.4-8.4,27.7-14.5
		c21.2-15.7,32.9-37.9,40-62.8c0.6-2.1,1-4.3,0.8-6.4C293.1,647.8,291.3,625.2,289.5,602z M197.8,712.4c1.1-0.2,2.1-0.5,3.1-0.6
		c19.1-2,35-10.4,47.8-24.3c3.8-4.1,7.1-9.4,8.9-14.7c5.2-15.2,9.6-30.8,14.1-46.2c1.8-6.3,3.1-12.7,4.7-19.4
		c-1.7-0.2-2.8-0.1-3.7-0.4c-5.4-1.9-7.6,0.8-9.8,5.5c-7.3,15.3-14.9,30.4-23,45.3c-10.4,19.3-24.9,34.8-44.3,45.5
		c-0.9,0.5-1.7,1.3-2.6,2C194.7,707.7,196.1,709.9,197.8,712.4z M295.1,689.8c-0.7,1.6-1,2.1-1.2,2.7
		c-12.7,30.1-32.3,53.2-63.9,64.6c-1.6,0.6-2.5,3.2-3.7,4.9c1.6,1,3.2,2.9,4.7,2.9c23.6,0.2,41.6-10.9,56.1-28.5
		c0.8-1,1.4-2.3,1.9-3.5C294.3,719.4,295.7,705.4,295.1,689.8z M567.2,161.2c1.2-0.4,2.2-0.7,3.1-1c9.1-3,15.4-0.3,19.5,8.3
		c1,2.1,2,4.3,3.4,6c3.4,4.1,8.2,3,10-2c5.5-15.4-5.6-31.9-22-32.7C568.8,139.2,562.2,148.8,567.2,161.2z M275.7,527.6
		c10-3.3,18.1-7.2,22.8-16.2c2.3-4.4,2.5-6.1-2.3-7.3c-8.7-2.1-17.5-3.7-26.3-5c-3.9-0.6-5.9,2-4.4,5.6
		C268.6,512.5,272.3,520.1,275.7,527.6z M248.3,696.7c-0.4-0.3-0.7-0.7-1.1-1c-2.3,1.4-4.7,2.7-6.9,4.3
		c-11.9,8.9-25.1,14.1-40.1,15.1c-1.5,0.1-3.8,1.9-4,3.2c-0.2,1.4,1.4,3.8,2.7,4.4c10.6,4.2,21.4,4.5,32.2,0.7
		c1.5-0.5,3.1-1.7,3.9-3C239.6,712.5,243.9,704.6,248.3,696.7z M619.1,131.2c2.5-1.4,5.2-3.5,8.2-4.6c4.1-1.5,4.3-3.8,2.8-7.3
		c-4.4-10.3-21.6-18-32.1-14c-2.2,0.8-4.3,2.6-5.8,4.4c-2,2.6-1.6,4.5,2.2,5.7c4.8,1.5,9.7,3.3,14,6
		C612.4,124,615.6,127.8,619.1,131.2z M290.6,566.3c-14.6,3.9-14.6,3.9-26.8-5.3c-0.1-0.1-0.2-0.3-0.4-0.3c-2.7-0.5-5.9-2-7.8-1
		c-2.1,1.1-3.9,4.5-4.3,7.1c-0.9,5.4,3.2,11.6,9.7,12.7c7.5,1.3,15.5,1.3,23.1,0.3C290.3,578.8,292.8,572.5,290.6,566.3z
		 M614.6,134.6c-3.6-3-6.9-6.2-10.7-8.7c-5.2-3.5-11.1-5.3-17.5-4.1c-4.4,0.8-6.7,3.7-6.9,7.9c-0.1,1.1,1.4,3.2,2.4,3.4
		c9.2,1.9,17.2,6,23.4,13.2C608.4,142.5,611.1,139,614.6,134.6z M256.4,586.3c-1.2,7.4,0.2,11.1,6.4,12.4c6,1.2,12.4,0.6,18.5,0.1
		c2.1-0.2,4.4-2.4,5.8-4.3c1.1-1.5,1.9-4.7,1.1-5.7c-1.1-1.4-3.9-2.1-6-2.1c-7.2-0.2-14.5,0-21.7,0
		C259.3,586.6,258,586.4,256.4,586.3z M347.1,174.5c-1.1,11.3,22.9,33.5,37.8,34.8c-11.5-7.4-19.1-17.4-26.5-27.7
		C355.7,177.9,352.4,174.8,347.1,174.5z M253.4,545.2c0.9,1.3,2.2,3.9,4.3,5.9c0.7,0.7,4,0,4.6-0.9c3-4.7,5.9-9.6,8.1-14.7
		c0.8-1.9-0.4-4.7-1-7c-0.1-0.5-2-0.8-2.9-0.7C260.2,528.9,253.2,537.4,253.4,545.2z M349.3,817.5c-4-7.7-5-8.5-9.8-7.3
		c-6,1.5-10,6.8-10,12.4C336,820.9,342.6,819.2,349.3,817.5z"/>
	<path d="M492.8,635.7c-4.6-5-5.3-18.3-1.2-22.1C495,618.9,495.8,632.7,492.8,635.7z"/>
	<path d="M458.6,445.5c10.2-2.1,19.8-1.3,28.9,2.4c6.3,2.6,8.5,7.5,6.5,14.4c-1.5-1.5-2.6-2.6-3.7-3.8c-1.5-1.7-2.7-4.3-4.6-5.1
		c-9.2-3.9-18.7-6.2-28.5-2.5c-8.4,3.2-11.5,10.2-9.5,20.8c-4,0-5.1-1.3-6-7.4c-0.3-0.1-0.6-0.5-0.9-0.4c-18.1,3.3-32-11.9-35.3-28
		c-2.6-12.5-0.9-24.2,6.7-34.7c9.4-13,24.3-14.4,36.4-3.7C460.6,408.4,465.4,430,458.6,445.5z M455.6,420.3
		c-2-8.9-6.2-15.3-13.3-19.8c-9.3-5.9-19.3-4-26.2,4.6c-6.6,8.2-8.3,17.6-6.5,27.8c2,10.9,7.1,19.7,17.8,24.2
		c8.3,3.5,17.5,0.8,20.3-5.8c-8.9-0.4-16-3.5-18.8-12.7c-2.2-7.2-0.4-13.6,4.8-18.9C440.5,412.6,447.8,416.5,455.6,420.3z"/>
	<path d="M524.3,485.5c-0.9-0.6-1.8-1.2-2.9-2c3.3-4.7,7.7-4.2,12.1-2.9c4,1.2,5.1,3.4,4.8,7.9c-0.3,0.1-0.6,0.4-0.9,0.4
		c-8.1-2.8-10.3-1.3-10.8,7.3c-0.4,6.6-0.1,13.5-1.9,19.8c-4.9,17.7-19,28.5-34.8,27.2c-15.4-1.3-24.5-10.9-29.7-24.6
		c-1.1-2.9-2.3-3.9-5.4-4.3c-6.4-0.9-12.8-2.3-18.9-4.3c-6.4-2.2-10.5-7-11.6-13.9c-0.3-1.9-0.2-4.2,0.7-5.8c1-1.6,3.1-2.4,4.8-3.6
		c0.2,1.6,0.7,3.3,0.5,4.9c-0.8,5.3,1.3,10,7.4,12c7.7,2.5,15.7,4.7,23.7,5.3c13.1,1.1,25.9-1.9,38.2-6.2
		C509.1,499.3,518,494.7,524.3,485.5z M519.7,507.8c-4.7,2-9.4,3.8-13.7,6.1c-6,3.2-12,6.4-17.4,10.4c-2.8,2.1-4.4,5.8-6.5,8.9
		c4.1,1.2,8.3,2.4,12.4,3.6c0.3,0.1,0.6-0.1,1-0.2C507.6,534.6,517.8,522.5,519.7,507.8z"/>
	<path d="M492.9,420.6c1-14.4,6.9-25.7,17.8-34.3c11.9-9.3,27.1-8.8,38.5,1.1c16.7,14.3,19.7,41.8,6.7,59.5
		c-17.6,23.9-50.6,11.6-58.7-9C495.1,432.4,494.3,426.4,492.9,420.6z M498.7,425.2c1.2,3.4,2.6,10.4,5.9,16.3
		c8.8,15.8,28.5,18.9,42.4,7.4c18.8-15.5,14.8-49.7-7-60.4c-7.3-3.6-14.9-4.1-22,0.3C505.8,396.2,499,407,498.7,425.2z"/>
	<path d="M515.5,361.1c3.1-7.2,10.7-10.5,20.7-9.2c7.9,1,14.4,7,15.3,14c-5.8-2.6-11.3-6.6-17.3-7.4
		C528.3,357.7,521.9,360.1,515.5,361.1z"/>
	<path d="M436.6,367.5c-2.8,0.2-5.1,0.3-7.4,0.6c-6.5,0.9-12.2,3-16,9c-0.7,1.2-3.4,2.4-4.4,1.9c-2.7-1.4-2.2-4-0.4-5.9
		c5.5-5.8,11.6-10.5,19.9-11.5C432.4,361.1,435.5,362.2,436.6,367.5z"/>
	<path d="M473.9,473.2c-0.8-0.6-2.4-1.3-2.7-2.4c-0.2-0.8,1.3-2.2,2.2-3c1.6-1.5,3.4-3,5.2-4.2c1.1-0.7,2.5-1,3.8-1.5
		c0.4,1.5,1.5,3.2,1.1,4.4C482.1,470.6,478.7,472.5,473.9,473.2z"/>
	<path d="M460.7,470c-2,1.6-3.6,3.1-3.7,2.9c-2.3-2.1-4.4-4.3-6.4-6.7c-0.1-0.1,2.1-2.4,2.3-2.2C455.3,465.6,457.6,467.5,460.7,470z
		"/>
	<path d="M625,437c2.9-3.6,4.9-6.1,6.9-8.7c4-5.3,8.3-10.4,11.6-16.1c1.2-2.2-0.1-5.8-0.3-8.7c-2.8,0.3-5.9,0.1-8.4,1.2
		c-2.8,1.2-5.1,3.7-7.7,5.5c-1.7,1.2-3.5,2.2-5.2,3.2c-0.4-0.3-0.9-0.5-1.3-0.8c0.3-2.2,0-4.6,0.9-6.5c3.7-8.3,7.2-16.9,11.9-24.6
		c5.8-9.4,14.4-15.3,26.1-14.5c11.7,0.8,19.3,10.6,17,22.2c-1.1-2.4-1.9-4.5-3-6.4c-4.9-8.8-15.6-12.2-24.6-7.6
		c-9.7,4.9-13.7,14.3-18.8,24.1c3.2-1,5.3-1.8,7.5-2.3c7.4-1.7,13.3,2.6,14,10.1C652.7,417.4,637.5,435.6,625,437z"/>
	<path d="M428.3,842.4c3.5,0.6,10.1,8.4,9.3,11c-0.9,2.9-3.5,2.8-5.1,1C429.4,851.2,426.9,847.4,428.3,842.4z"/>
	<path d="M519.8,425.1c0-11.2,7.3-19.5,17.1-19.5c9.2,0,17.1,8.6,17.2,18.6c0.1,8.7-10.1,18.7-19,18.5
		C526.3,442.5,519.8,435,519.8,425.1z"/>
</g>
</svg>
