<?xml version="1.0" encoding="utf-8"?>
<!-- Generator: Adobe Illustrator 18.1.1, SVG Export Plug-In . SVG Version: 6.00 Build 0)  -->
<svg version="1.1" id="Layer_1" xmlns="http://www.w3.org/2000/svg" xmlns:xlink="http://www.w3.org/1999/xlink" x="0px" y="0px"
	 viewBox="0 0 1024 1024" enable-background="new 0 0 1024 1024" xml:space="preserve">
<g>
	<path d="M714.7,683.6c-11.6-8.8-18.2-20.5-21.3-35.2c-9.6,3.5-18.7,6.5-27.5,10.2c-1.7,0.7-2.8,4.2-3.1,6.6
		c-0.8,6.1-0.4,12.4-1.6,18.4c-1.4,7.2-4,14.2-6,21c4.6-0.7,10.8-2.2,16.8,2.7c-1.8,0.6-3.6,1.4-5.4,1.7c-7.8,1.6-15.9,2.3-23.4,4.9
		c-16.3,5.6-32.8,7.1-49.7,5c-4.4-0.6-6.2,0.4-6.7,5.2c-0.8,9.7-3.9,18.8-9.8,27.3c6.3,1.7,12.9-1.1,18.5,2.3
		c0.1,0.6,0.2,1.1,0.3,1.7c-1.6,0.6-3.2,1.7-4.7,1.7c-11.7-0.6-22.7,2.6-33.7,6.1c-14,4.5-28.4,2.8-42.7,2.5c-8-0.2-16-1-23.8-2.4
		c-21.7-3.9-31-21.2-22.8-41.7c0.2-0.6,0.4-1.2,0.7-2.4c-4.9,0.4-9.5,0.8-14.1,1.2c-8,0.6-8.3,0.3-8.5-7.5c0-0.7-0.1-1.3-0.3-3
		c-2.8,1.5-5.2,2.6-7.4,4.1c-2,1.4-3.7,3.5-5.7,4.8c-1.2,0.8-3.3,1.6-4.4,1c-0.9-0.5-1.3-2.8-1.2-4.3c0.3-3.3,1.1-6.5,0.8-10.5
		c-2.6,3.2-5.1,6.4-7.7,9.5c-1.3,1.6-2.6,3.1-3.9,4.7c-0.9-2-2-3.9-2.7-6c-0.7-2.2-1.1-4.5-1.9-7.7c-2.4,3.5-4.2,6.4-6.3,9.1
		c-2,2.5-4.3,4.7-6.5,7.1c-0.6-0.4-1.2-0.7-1.7-1.1c2.5-5.2,4.9-10.5,7.6-15.6c1.8-3.4,4-6.5,6.2-9.7c0.7-1,2.2-2.2,2.9-2
		c1.1,0.4,2.5,1.7,2.8,2.9c0.8,3.5,1.1,7.1,1.8,11.6c4-4.6,7.2-8.7,10.8-12.5c2.3-2.4,5-4.5,7.8-6.1c1.2-0.7,3.3,0,5,0.1
		c-0.2,1.6,0,3.5-0.7,4.8c-2,3.9-4.4,7.7-6.8,11.8c4.7-1.3,8.7-3.4,12.6-3.4c6.1-0.1,5.7,5.3,5.8,10.8c6.2-0.7,12.1-1.1,17.9-2.1
		c3.3-0.5,4.5-2.9,3.8-6.4c-3-13.4-2.2-26.8-0.1-40.2c0.8-4.9-0.9-6.3-5.3-6.4c-14.1-0.1-27.8-2.9-41-8c-6.4-2.4-11.6-1.1-16.4,3.5
		c-8.2,7.9-13.8,17.5-18,27.9c-2.5,6.2-4.8,12.4-7.2,18.6c-6.8,18-14.2,26.6-40.7,24.1c-22.8-2.1-42.4-13.3-61.1-25.6
		c-10-6.6-10.9-14.8-4.6-25.1c1.4-2.3,3.4-4.2,4.7-6.5c1.8-3.3,3.9-6.6,4.7-10.2c6.6-31.5,21.9-57.3,49.4-75
		c1.8-1.2,3.6-2.4,5.3-3.7c0.8-0.6,1.5-1.3,2.5-2.2c-4.2-8.1-9.3-15.9-12.4-24.3c-3.4-9.3-8.3-12.2-18.5-11.9
		c-26.7,0.7-47.5-11.5-61.7-34c-4.4-6.9-9.6-10.9-17.6-13.2c-27.6-7.8-43.9-37.9-37.4-67.5c2.3-10.3,6.8-19.5,14.5-26.8
		c2.8-2.7,6.4-4.9,10-6.3c6-2.4,9.3-6.3,10.7-12.6c2.3-10.7,4.2-21.7,7.9-31.9c12.7-35.1,39.2-54.4,74.6-62.5
		c44.5-10.3,90.6,17.8,109.2,53.8c11.1,21.4,17.7,44.1,18.7,68.3c0,0.9,0.1,1.8,0.3,4.1c3.2-4.7,5.7-8.3,8.2-11.9
		c17.7-25.9,38.9-48.5,66.8-63.3c53.9-28.7,107.8-26.4,160.8,3c37.5,20.8,62.8,52.7,79.6,91.4c8.4,19.3,13.9,39.8,20.8,59.8
		c0.2,0.5,0.4,1,0.4,1.4c-0.2,12.1,6.2,20.2,16,26c1.9,1.2,4.6,2,6.7,1.7c3.9-0.6,7.7-2.1,11.4-3.5c5.3-2,8.5-1.1,9.1,4.5
		c0.7,6.8,0.8,14.1-0.8,20.7c-5.6,23.4-19.6,40.4-41.4,50.9c-6.7,3.2-7.1,3.6-3.8,10.3c3.7,7.4,8.5,14.2,13,21.2
		c2.3,3.5,5.1,6.6,7.6,9.9c9.7,12.5,13,26.4,9.3,41.8c-6.5,27.2-33.4,58.1-73.4,55.8c-3-0.2-6-0.7-8.8-1.6c-20.7-6-27-24-14.8-41.8
		C712.7,686.5,713.4,685.4,714.7,683.6z M259.5,496.6c-0.4,0.6-0.9,1.2-1.3,1.9c5.9,6.4,11.2,13.7,17.9,19.1
		c26.9,21.4,68.2,19.2,96-4.5c1.9-1.6,4.6-2.4,6.9-3.6c-1,2.6-1.5,5.5-3.2,7.6c-7.9,10.2-18.3,16.9-30.7,20.2
		c-4.8,1.3-5.4,3.4-3.2,7.4c2.7,5.1,4.9,10.6,8,15.5c14.8,23.7,34,42.8,61.7,50.1c26.1,6.9,50,2.8,68.1-19.7
		c4.4-5.4,4.7-7.9,0.4-13.3c-6.7-8.5-13.5-16.9-20.9-24.8c-3.3-3.5-8.1-5.7-12.3-8.4c-0.5,0.5-1,1.1-1.5,1.6
		c4.7,7.6,9.3,15.2,14,22.8c-0.4,0.4-0.8,0.8-1.2,1.3c-2.4-1.5-5-2.7-7.2-4.5c-13.6-11.6-21.5-26.7-25-43.9
		c-4.5-22.4-2.6-44.8,3.4-66.8c6.3-22.9,8.4-46,3.7-69.6c-6.9-34.6-23.1-62.6-54.9-79.8c-45.1-24.4-99.6-8.8-123.6,35
		c-7.8,14.2-10.1,29.6-12.3,45.3c4.1,0.7,7.6,1.3,10.9,1.8c0.9-4,1.2-7.9,2.7-11.3c0.9-2.1,4-4.9,5.4-4.6c2.2,0.5,4.9,3.3,5.3,5.5
		c0.7,3.9,0,8.2-0.3,12.3c-0.2,2.6-0.9,5.2-1.5,8.6c-1-0.2-2.7-0.3-4.2-0.8c-3.2-1-6.2-2.8-9.4-3.2c-18.4-2.6-31.3,5-39.9,23
		c-9.9,20.8-3.9,47.5,13.5,59.9c12.6,9,26.9,12.2,42.1,11.1c20.5-1.6,39.4-7.9,56.5-19.5c11.8-8.1,22-17.8,28.8-30.6
		c1.7-3.3,2.3-5.7-2-7.4c-2-0.8-3.7-2.8-5.2-4.5c-0.7-0.8-1.2-2.7-0.8-3.5c0.4-0.9,2.3-1.8,3.2-1.6c2.8,0.7,5.8,1.5,8.2,3
		c8.1,5.1,16.4,7.2,25.4,2.4c1.4-0.7,3.1-0.9,4.7-1.3c0.2,0.5,0.4,0.9,0.6,1.4c-2.9,2.4-5.4,5.6-8.7,7c-4.4,1.9-9.4,2.5-14.6,3.8
		c-1,4.7-1.9,10.3-3.3,15.8c-5.4,20.5-14,39.2-30.5,53.3c-15.4,13.2-36.4,12.1-49.2-3.6C274,494.7,267.1,495.7,259.5,496.6z
		 M476.8,743.9c2.6-4.7,4.7-9.5,7.7-13.8c3.7-5.3,9.7-6.8,15.6-5.7c5.3,0.9,7.2,6,8.5,10.8c0.5,1.7,0.7,3.4,1.1,5.6
		c2.4-2.6,4.2-5.2,6.5-7.2c7.9-6.8,16.6-5,20.6,4.5c1.7,4.1,2.7,8.6,3,13c0.3,4,1.9,4.6,5.3,4.5c14.6-0.5,26-8.7,30.9-22.7
		c3.4-9.7,3.2-19.7,1.5-29.6c-3.7-22.8-9.9-45.3-7.6-68.7c0.4-3.5-2.2-3.9-4.5-4.8c-12.4-4.9-25-9.3-36.9-15
		c-6.6-3.1-11.5-2.7-16.9,1.6c-12.6,10.2-20.5,23.5-25.5,38.6c-5,14.9-4.4,30.2-2.6,45.5c0.7,6.1,0.5,11.7-3,17.2
		c-2.5,4-4.1,8.7-5.4,13.3C473.8,735.7,473.9,740.3,476.8,743.9z M621.8,394.4c-11.4,0.9-21.6,1.6-31.9,2.4c-5.6,0.5-8.9,3.5-10.6,9
		c-5.8,18.6-11,37.3-13.5,56.7c-1.3,10.2-1.6,10.4,7.8,14.7c17.5,8.1,35.2,15.7,52.7,23.7c5.9,2.7,11,2.1,16.3-1.7
		c12.2-8.7,24.3-17.5,36.9-25.6c7.3-4.7,8.7-10.4,7.1-18.3c-3.7-18.4-11.9-34.8-22.3-50.3c-3.2-4.8-7.7-7.4-13.2-7.9
		C641,396.1,630.9,395.2,621.8,394.4z M636.9,567.5c-1.9-16.7-4-33.3-5.8-50c-0.5-4.6-2.8-7.1-7-8.6c-5.5-1.9-10.9-4.1-16.2-6.5
		c-14.6-6.4-29.1-13.2-43.8-19.4c-3.2-1.3-7.2-1.8-10.6-1.2c-12.2,2.3-24.4,5.1-36.5,8.2c-2.3,0.6-5.1,3-5.9,5.2
		c-2.8,7.1-4.8,14.5-7.3,21.7c-1.6,4.6-0.2,8.2,3.1,11.2c9.6,8.7,18.8,17.9,29,26c25.1,19.9,55.2,25.6,86,27.7
		C639.1,582.9,636.6,583.7,636.9,567.5z M522.7,370.7c-1.5,0.3-3.1,0.5-4.7,1c-13.5,4.5-26.1,11-37.3,19.7c-2.8,2.2-5.8,5.3-6.6,8.5
		c-4,15.6-7.4,31.4-10.7,47.2c-0.8,3.7,0.7,6.7,3.9,9c11.1,7.9,22.2,15.9,33,24.1c3.6,2.8,7,3.8,11.5,2.5c11.4-3.1,22.8-6,34.4-8.6
		c9.2-2.1,10.2-2.7,11.7-12.1c3.1-19.6,6.5-39.1,13.8-57.6c1.9-4.8,0.8-8.9-3.5-12.4c-12.4-9.7-26.4-16-41.3-20.7
		C525.6,371,524.3,370.9,522.7,370.7z M411.6,642.6c-7.1-9.3-14.1-18.5-21.2-27.6c-2-2.6-4.4-5-7-7c-8-6.4-16.5-12.4-24.2-19.1
		c-4.2-3.6-7.2-3.6-11.8-0.7c-22,14-36.5,33.6-45.3,57.9c-1.9,5.4-3.7,10.8-5.9,17.2c8.6,0.7,16.2,1.3,23.9,1.8
		c0.1,0.6,0.2,1.1,0.3,1.7c-9.6,1.7-15.6,7.2-18.7,16.1c-3.6,10.3-2.4,13.4,7.3,18c0.7,0.3,1.5,0.6,2.5,1c0.9-2.2,1.3-4.4,2.5-6.1
		c3.5-5.2,6.7-10.9,11.2-15c6.8-6.1,15.7-4,20.2,4c1.4,2.5,2.6,5.6,2.6,8.4c0,6.8-0.7,13.6-1.1,20.7c1.5,0.2,3.8,0.5,6.1,0.7
		c12.2,1,17.8-1.9,23.2-13c3.6-7.3,6.5-15,9.9-22.4C392.6,665.2,398.2,650.4,411.6,642.6z M644.7,561.9c0,5.7-0.1,9.8,0,14
		c0.1,3.9,2.1,5.6,6.2,5c8.4-1.4,16.8-2.5,25.1-4c20.6-3.8,40.4-9.6,58.5-20.6c8-4.9,10.1-8.9,8.9-18.1c-0.4-3.3-0.3-6.7-0.9-9.9
		c-1.9-11.1-3.8-22.3-6.1-33.3c-1.5-7.3-6-11.9-13.5-13.8c-6.6-1.7-13.2-3.5-19.6-5.8c-6.7-2.4-12.2-0.7-17.7,3.3
		c-13.4,9.6-26.9,19-40.5,28.3c-4.3,2.9-5.8,6.3-5.2,11.4C641.8,533.3,643.3,548.3,644.7,561.9z M590.5,325
		c-20.3-1.7-40.1,6.2-59.5,16c-5.1,2.6-7.4,16.9-3.6,20.9c0.5,0.6,1.4,0.9,2.2,1.2c16.6,5.3,32,13,45.7,24c2.3,1.8,6.3,2.8,9.2,2.4
		c23.7-3.6,47.3-5.1,71,0c1.8,0.4,5-0.7,5.9-2.1c5.5-9.1,10.9-18.3,15.5-27.9c4.5-9.3,3.4-11.2-5.9-15.9
		C646.3,331.2,620.3,324.5,590.5,325z M780,707.3c9.3-9,16.7-19.2,20.7-31.4c3.8-11.6,2-22.4-4.9-32.3c-2.4-3.6-5.4-6.8-8.2-10
		c-8-9.3-15-19.1-18.1-31.3c-0.4-1.7-1.4-3.2-2.2-5.1c-4.5,3-8.6,5.9-12.9,8.5c-14.5,9-30.3,15.2-46.4,20.6
		c-1.9,0.6-4.6,2.6-4.7,4.1c-1.1,14.5-0.3,28.7,9.8,40.6c4,4.8,7.7,9.8,11.5,14.7c-9.5,10.6-11.5,23.5-4.9,30.1
		c1.4-3.7,2.4-7.6,4.2-11c2.6-4.6,5.6-10.3,11.5-9.7c6.2,0.6,8,6.8,9.6,12.2c1.4,4.8,2.2,9.6,3.4,14.9c1.9-0.4,3.4-0.7,5.1-1.1
		c-0.3-2.6-0.7-4.7-0.9-6.8c-0.6-6.8,0.3-13.3,4.7-18.9c3.6-4.5,6.1-5.1,10.4-1.2C772.1,698.1,775.8,702.6,780,707.3z M752.6,437.3
		c-0.8-2.7-1.2-5.5-2.3-8.1c-10.6-25.6-27.7-46.5-48.3-64.6c-2.9-2.5-6-4.7-9.3-6.7c-4.4-2.7-5.7-2-8,2.5
		c-3.8,7.4-7.2,15.1-11.8,21.9c-5.2,7.6-6.6,14.3,0.6,21.2c0.5,0.4,0.7,1.1,1.1,1.7c10.2,17,17.6,35,20.8,54.7
		c0.3,2.1,2.1,5,3.9,5.5c11.1,3.4,22.4,6.3,33.6,9.4c3,0.8,5,0,6.3-3.1c3.5-8.3,7.4-16.4,10.9-24.6
		C751.3,444,751.7,440.7,752.6,437.3z M582.8,624.1c1.9,0.5,4,1.4,6.1,1.6c13.7,1.3,27.5,3.2,41.2,3.4c11.7,0.1,23.5-1.6,35.2-3
		c1.7-0.2,4.5-2.7,4.4-4c-0.2-9.6-1-19.2-1.7-28.8c-0.3-4-2.6-5.5-6.8-5c-23.1,2.7-46.1,2.8-69-2.2c-3.3-0.7-4.9,0.1-5.3,3.7
		C585.6,600.9,584.2,612.1,582.8,624.1z M494.5,580.1c23.4,22.6,50.8,34.6,80.9,42.3c4.3-11.3,5.3-22.1,4.9-33.1
		c-0.1-4-1.3-6.1-5.6-7c-12.7-2.7-24.2-8.2-34.9-15.4c-4.1-2.8-8.1-5.8-12.1-8.8c-2.4-1.8-4.7-2.3-7.2-0.1
		C512,565.2,503.6,572.4,494.5,580.1z M490.5,574.4c7.6-6.9,14.9-13.4,22-20.1c2.2-2,3.4-4.5,0.8-7.4
		c-11.1-12.2-22.5-24.1-36.7-32.8c-10.7-6.6-22.6-9.5-35.1-10.2c-6.2-0.4-8.3,1.9-7.5,8c0.6,4.6,1.9,9.1,2.7,13.7
		c0.8,4.6,3.3,7.4,7.8,8.7c12.5,3.8,22.4,11.4,30.6,21.4C480.5,562.2,485.9,568.7,490.5,574.4z M488.9,587.5
		c-21.9,33.1-51.7,41.6-88.7,28.9c0.6,1.4,0.7,1.7,0.9,2c0.5,0.6,1.1,1.3,1.6,1.9c18.1,18.9,40.9,27.3,66.4,29.8
		c8.2,0.8,8.2,0.5,11.3-7c0.9-2.3,2-4.6,3.1-6.8c5.8-12.3,14.2-22.4,25.7-29.9C502.3,599.9,495.9,593.9,488.9,587.5z M747.4,598.9
		c-3.6-7.9-6.7-15.6-10.4-23c-3.4-6.8-5.2-7.2-12.4-4.8c-11.5,3.8-23,7.7-34.6,11.3c-5.7,1.7-11.5,2.7-16.7,3.9
		c0.6,11.5,1.3,22.4,1.9,33.4c0.2,3.4,1.7,4.8,5.1,3.9c7.6-2,15.2-3.7,22.7-5.9C718.2,613.3,733.1,608.1,747.4,598.9z M495.2,516.9
		c2.4-7.2,4.7-14.1,6.7-21.1c0.4-1.3-0.4-3.6-1.4-4.5c-9.9-8.1-19.8-16.2-30.1-23.8c-12.5-9.2-12.5-8.7-25.7-0.2
		c-8.6,5.6-12.5,12.7-11.1,23.1c0.6,4.3,2,5.5,6.1,5.6c19,0.6,36.1,6.9,51.4,18.1C492.4,515,493.8,515.9,495.2,516.9z M752.3,596.4
		c7-5.9,12.9-10.8,18.6-15.8c10.9-9.3,17.9-21.1,23-34.4c4.2-10.9-1.8-21.9-11.7-29.4c-9.2,20.7-24.9,35.3-43.6,47.4
		C743.2,574.9,747.6,585.1,752.3,596.4z M654.3,663.6c-0.6-0.4-1.2-0.8-1.8-1.2c-23.6,5.2-47.3,10.2-72.6,7.9
		c1.4,5.8,2.6,10.7,3.6,14.9c4.5,0,8.5-0.9,11.9,0.2c3.5,1.2,6.3,4.3,9.4,6.6c6.6-7.3,13-6.8,17.7,2.4c2.4,4.6,3.1,9.9,4.7,15.1
		c11.6-0.4,19.6-5.5,22.6-17.1C652.3,683.1,652.9,673.2,654.3,663.6z M759.3,448.3c-0.6,0.1-1.2,0.2-1.8,0.2
		c-0.8,1.9-1.7,3.9-2.5,5.8c-3.7,8-7.7,15.9-11,24c-1.2,2.8-1.8,6.5-1,9.4c4.4,17.6,8.9,35.2,8.8,53.5c0,0.5,0.3,1.1,0.7,2.3
		c7.5-6,12.5-13.1,17.1-20.6c5.5-8.7,7-17.7,4.2-27.7c-1.8-6.6-3-13.3-5-19.8C765.9,466.3,762.5,457.3,759.3,448.3z M668.8,635.6
		c-0.6-0.2-1-0.5-1.5-0.4c-13.7,1.3-27.4,2.5-41.1,3.9c-1.5,0.2-3.5,1-4.1,2.1c-3.2,6.3-6,12.8-9.2,19.8c5.3-0.4,10-0.5,14.5-1.3
		c7.8-1.4,15.6-3.3,23.4-5C661.2,652.6,666.2,645.3,668.8,635.6z M616.3,639.8c-0.8-0.5-1.1-0.8-1.4-0.8c-10.6-1.6-21.3-3.3-32-4.5
		c-1.1-0.1-3.5,2.1-3.6,3.4c-0.5,6.6-0.7,13.2-0.5,19.9c0,1.1,2.1,2.9,3.4,3c5.4,0.4,10.9,0.6,16.4,0.3c2.3-0.1,5.2-0.9,6.8-2.5
		C610.5,653.3,614.4,647.2,616.3,639.8z M344.6,468.8c-16.6,6.3-44.1,24-43.3,38.6C317.7,511.7,347.1,485.6,344.6,468.8z
		 M437.4,462.6c9.1-5.3,16.4-9.6,18.2-20.6c2.2-13.5,6.9-26.6,10.5-39.8c-0.5-0.2-1-0.4-1.5-0.6C449,418.6,442.3,439.5,437.4,462.6z
		 M344.1,700.5c-1.6-5.1-2.8-10.4-4.8-15.4c-1.5-3.7-4.8-4.2-8.3-1.9c-6.3,4.1-10.2,9.8-12.4,16.9c-1.1,3.4-0.2,5.2,3.3,6.3
		c3.2,0.9,6.2,2.4,9.3,3.4C342,713.4,343.1,712.6,344.1,700.5z M788,577.7c13.4-3.1,31.3-35,28.6-52.1c-1.6,0.3-3.2,0.7-4.8,0.9
		c-5.1,0.6-7.1,2.9-7,8.5c0,5.7-1.1,11.7-3.3,16.9C797.6,560.9,792.5,569.3,788,577.7z M505.8,746.1c-1-4.5-1.7-9.1-3-13.5
		c-0.9-3.1-3.2-4.3-6.6-2.7c-5.1,2.5-9.3,5.8-11.3,11.3c-3,7.9-2.2,9.7,5.8,12.2c1.3,0.4,2.6,0.7,3.9,1
		C505,756.9,505.1,756.8,505.8,746.1z M509.6,755.9c7,0.3,13.5,0.7,19.9,0.9c3.6,0.1,5.3-2.3,4.7-5.6c-0.9-4.5-2.3-9-3.9-13.3
		c-1.5-3.9-4.6-4.5-8.2-2.6C514.1,739.5,511.4,747,509.6,755.9z M520.4,348c-11.1,4.1-35.1,24.4-37.5,30.6c9.9-4.4,20.7-9,31.3-14.1
		c2-0.9,4-3.2,4.7-5.2C520,355.9,520,352,520.4,348z M695,629.7c-3.9,0.9-7.5,1.6-11,2.4c-9.1,2.1-12.3,5.9-13.7,16.5
		c5.8-2.1,11.2-3.9,16.5-5.9C695,639.6,694.9,639.6,695,629.7z M621.4,710.7c-1.9-6.5-3.2-11.9-5-17.1c-1-2.8-3-3.3-5.3-0.8
		c-4.7,5-7.5,10.8-7.5,19C609,711.4,614.2,711.1,621.4,710.7z M741.4,723.1c0.5-0.7,1.1-1.3,1.6-2c-1.4-6.1-2.4-12.2-4.2-18.2
		c-0.7-2.3-3.3-5.5-5.6-1.4c-2.6,4.5-4.3,9.6-6,14.6c-0.4,1.1,0.7,3.6,1.6,3.9C732.9,721.4,737.2,722.1,741.4,723.1z M757.1,720.5
		c5.2-2.4,8.8-3.9,12.3-5.7c6.9-3.6,7.2-6.1,1.5-11.7c-1.5-1.5-3.3-2.8-5.3-3.7c-2.7-1.2-5-0.7-5.6,2.6
		C759,707.7,758.2,713.4,757.1,720.5z M586.8,701c0.1,1.8-0.4,4,0.5,5.4c1.1,1.6,3.1,3,5,3.6c1.3,0.4,4.4-0.5,4.5-1.2
		c0.8-5.3,1.7-10.8,1.3-16.1c-0.2-3.7-3.5-4.4-6.9-2.8C586.5,692.2,586.6,696.6,586.8,701z M292.9,691.5c2.4-7.6,4.7-14.9,7-22.1
		c-5.7-0.8-10.8,3-12.9,10.5C285.4,685.3,287.3,688.9,292.9,691.5z"/>
	<path d="M228.5,677c-1.7-7.1-3.6-14.2-4.9-21.4c-0.4-2.6,0.9-5.4,1.4-8.2c2.6,1,5.9,1.4,7.8,3.2c7.3,7.2,11,16.5,13.1,26.4
		c0.2,0.8,0.3,1.5,0.5,2.5c3.5-5.5,6.7-10.8,10.2-15.9c1-1.4,3.1-2.1,4.7-3.1c1.1,1.7,3,3.4,3,5.1c0.1,10.6-0.3,21.3-0.5,31.9
		c0,0.6-0.2,1.4-0.6,1.9c-0.9,1-2,1.8-3,2.7c-0.6-1.2-1.7-2.3-1.7-3.5c-0.2-8.1-0.1-16.3-0.6-24.6c-6.9,9.9-6.2,22.6-11.5,33.1
		c-0.6-0.1-1.1-0.1-1.7-0.2c-0.3-1.8-0.8-3.6-0.9-5.3c-0.8-14.6-2.5-28.9-10.8-41.5c-0.5-0.7-0.9-1.4-1.4-2c-0.1-0.1-0.3-0.1-1-0.2
		c1.4,6.6,2.9,12.9,3.9,19.4c0.9,6.2,1.4,12.6,1.7,18.9c0.1,1.9-1,3.8-2.5,5.9c-5.3-11.1-10.1-22.2-18.2-30
		c2.5,9.3,5.2,19.3,7.9,29.3c0.2,0.6,0.5,1.3,0.3,2c-0.5,2.5-1.1,4.9-1.6,7.4c-2.1-1.3-4.4-2.3-6.2-3.9c-3.4-2.9-6.6-6-10.6-8.5
		c1.1,2.5,2.3,4.9,3.3,7.4c1.1,2.8,0.4,4.5-3,4.5c-9,0.2-17.9,0.6-26.9,0.6c-1.5,0-3-1.2-4.5-1.9c1.2-1.3,2.3-3.6,3.7-3.8
		c6.2-0.9,12.5-1.3,18.8-1.8c0.8-0.1,1.6-0.1,3.4-1.4c-3.5-3.6-6.9-7.1-10.4-10.7c-1-1.1-1.8-2.4-2.7-3.5c1.4-0.6,2.9-1.7,4.3-1.7
		c2.1,0.1,4.3,0.8,6.1,1.7c5.8,2.9,11.5,6,17.8,9.3c-0.7-2.7-1-5.3-2.1-7.5c-4.1-8.9-8.5-17.6-12.6-26.5c-0.8-1.8-0.7-4-1.1-6
		c2,0,4.6-0.9,6,0.1c5.9,4.2,11.6,8.8,17,13.5c2.2,1.9,3.7,4.6,5.5,7C228.1,677.3,228.3,677.1,228.5,677z"/>
	<path d="M660.6,811.8c-0.5-2.1-1.4-4.2-1.6-6.3c-0.8-13.6,1.3-26.9,5.2-39.9c0.3-0.9,0.5-1.8,1.1-3.9
		c-12.8,14.6-19.2,30.4-20.1,48.5c0,0.8,0.2,1.8-0.2,2.5c-0.6,1.4-1.5,2.7-2.3,4.1c-1.2-1.2-3-2.1-3.5-3.5
		c-2.4-7.2-5.2-14.1-12.9-18.2c1.5,6.9,5.3,13.2,3.5,20.2c-0.5,0.2-1,0.4-1.5,0.6c-1-1.7-2.4-3.3-2.8-5.1c-1.5-7.4-5-13.6-10.1-19.2
		c-1-1.2-1.2-3.2-1.7-4.8c1.5-0.3,3.1-0.8,4.6-0.7c9.3,0.7,16,5.9,21.6,13.7c1-4.3,1.8-8.2,2.8-11.9c3.4-12.8,9.8-24,18.9-33.6
		c2.4-2.5,5.2-4.7,8.2-6.4c1.7-0.9,4.2-0.4,6.4-0.5c0,2.1,0.6,4.5-0.1,6.4c-2.4,7.1-5.5,13.9-7.7,21c-1.4,4.5-1.9,9.3-2,14.4
		c2.1-2.7,3.8-5.9,6.3-8.1c7.3-6.2,14.8-12.2,22.5-17.9c1.4-1,3.9-0.4,5.9-0.6c-0.4,2.1-0.4,4.4-1.3,6.1
		c-5.1,9.8-10.4,19.4-15.1,29.6c7.3-5.8,15.2-9.9,24.2-11.3c1.8-0.3,3.7,0.5,5.5,0.8c-0.5,1.8-0.6,3.8-1.7,5.2
		c-5.3,7.2-10.8,14.2-16.1,21.2c-2.9-3.4-1.9-7.7,5.4-18.7c-7.9,2.7-13.5,7.5-18.9,12.6c-1.9,1.8-4.3,2.9-6.5,4.3
		c0-2.9-0.9-6.1,0-8.5c3.8-9.9,8.1-19.6,12.6-30.2c-13.6,10-21.6,23.2-26.9,38.5C661.9,812.2,661.2,812,660.6,811.8z"/>
	<path d="M316.3,806.1c-2.9-3.6-2-6.8,3.7-16.6c-4.5,3.1-9,6.1-13.3,9.3c-1.6,1.2-2.8,2.9-4.4,4.1c-1.3,1-2.9,1.5-4.4,2.3
		c-0.4-1.8-1.6-3.9-1.1-5.4c2.6-7.7,5.6-15.3,8.5-22.9c0.5-1.4,1.3-2.6,1.6-4.2c-7.4,4.4-12.8,10.6-16.6,18.2
		c-2.1,4.2-3.7,8.5-5.8,12.7c-0.5,1-1.8,1.6-2.8,2.4c-0.6-1-1.6-2-1.9-3.1c-2-8.7-3.6-17.6-5.8-26.2c-0.9-3.4-3.1-6.4-5.4-9.3
		c2,8.5,4,17.1,5.9,25.6c0.5,2.1,1.2,4.3,0.9,6.4c-0.3,2.6-1.4,5.1-2.2,7.6c-1.6-1.7-3.5-3.2-4.7-5.2c-6-10.1-14.6-17.1-25.8-21.7
		c3.6,5.8,6.9,11.2,10.2,16.6c1.4,2.4,2.7,5,3.6,7.6c0.4,1.1-0.4,2.7-0.7,4c-1.2-0.5-2.8-0.8-3.5-1.7c-1.7-2.2-2.8-4.9-4.5-7.2
		c-5.4-7.3-11.1-14.5-16.5-21.9c-1.2-1.7-1.7-3.9-2.6-5.8c2.3-0.3,4.9-1.3,6.8-0.6c10.2,3.8,19.9,8.5,27.9,16.1
		c0.9,0.9,1.9,1.8,2.8,2.7c0.5-0.2,0.9-0.4,1.4-0.6c-2.8-8.9-5.5-17.9-8.3-26.8c-1.1-3.5-2.7-6.8-3.8-10.3c-0.4-1.4,0.2-3.1,0.3-4.6
		c1.7,0.3,3.7,0,4.9,0.9c8.2,5.7,13.6,13.7,17,22.9c2.3,6,3.9,12.3,5.9,19c0.7-1.3,1.4-2.7,2.1-4c4.9-9.5,12.3-16.5,22.1-20.8
		c1.6-0.7,4.8-0.9,5.3-0.1c1,1.5,1.3,4.2,0.6,5.9c-2.7,6.6-5.9,12.9-9.6,20.8c9.2-7.7,17.3-14.7,29.7-8.6
		C327.9,791.5,322.2,798.6,316.3,806.1z"/>
	<path d="M323.5,740.6c3.3-1.6,6.7-3.1,10.3-4.8c-18.1-0.6-35.9-1.1-53.7-1.7c-0.2,0-0.3-0.8-0.5-1.3c10.9-6.1,109.9-4.7,115.8,2.8
		c-24.3,2.6-47.7,5.1-71.2,7.6C324,742.3,323.8,741.4,323.5,740.6z"/>
	<path d="M767.7,775.2c-5.6,3.1-10.5,5.8-15.5,8.4c-1.2,0.6-3.4,1.3-4,0.7c-1-0.9-1.5-2.9-1.4-4.3c0.3-3.3,1.1-6.5,1.7-9.7
		c-0.4-0.4-0.7-0.8-1.1-1.1c-4.5,4.3-9.1,8.7-13.4,12.9c0.4-1.4,0.7-3.8,1.5-5.9c3.5-8.8,11.4-12.7,19-16.8c0.8-0.4,2.9-0.1,3,0.4
		c0.4,1.3,0.5,2.9,0,4.1c-1.5,3.8-3.3,7.5-4.1,11.8c3-1.7,5.9-3.3,8.9-5c1.6-0.9,3.2-1.8,4.9-2.4c6.1-2.1,7.9,0,6.6,7.2
		c5.9-0.8,11.9-2,18-2.4c2.4-0.2,5.1,1.2,7.3,2.4c0.9,0.5,1.1,2.5,1.5,3.8c-1.4,0.5-3.3,1.8-4.3,1.4c-6.8-3.1-13.1-0.8-19.3,1.7
		C768.4,785.8,768,785.6,767.7,775.2z"/>
	<path d="M817.4,710.6c6.1-0.9,10.4-1.4,14.6-2.2c6.6-1.2,7.6-0.2,6.3,6.2c3.5,0.3,7,0.6,10.5,1c0,0.6,0.1,1.3,0.1,1.9
		c-5.9,1.1-11.7,2.5-17.6,3c-1,0.1-2.3-3.1-4.2-5.9c-2.3,0.9-6.3,2.3-10.2,3.9c-3.8,1.6-5.5,0.7-4.9-3.5c0.8-4.9,2-9.7,2-15.4
		c-4.7,5.4-9.4,10.8-14.7,16.9c-0.2-1.6-0.9-3.5-0.4-4.8c1.2-3.2,2.5-6.8,4.9-9.1c6.1-5.8,12.7-11,19.5-16.1
		c1.2-0.9,3.9,0.2,5.9,0.3c-0.4,1.8-0.3,3.8-1.2,5.4C824.8,698.2,821.4,703.8,817.4,710.6z"/>
	<path d="M447.6,757c-14.4,2.7-28.8,5.4-44,8.2c4.3-8.5,35.8-14.7,43.9-9.8C447.5,755.9,447.6,756.5,447.6,757z"/>
	<path d="M432.1,770.1c4.8-9.4,26.5-14.3,30.7-8.5C452.9,764.3,443.1,767,432.1,770.1z"/>
	<path d="M660.6,715.7c1.6-0.8,3.1-2,4.8-2.4c6.5-1.6,13.1-3.1,19.7-4.4c1-0.2,2.3,1.3,3.4,2.1c-0.8,0.9-1.4,2.4-2.4,2.6
		c-7.2,1.7-14.5,3.1-21.8,4.5c-0.7,0.1-1.5-0.3-2.2-0.5C661.6,717,661.1,716.4,660.6,715.7z"/>
	<path d="M615.3,763.7c-1.7,0.4-3.3,1-5.1,1.2c-6.9,0.8-13.9,1.4-20.8,2c-1,0.1-2-0.5-3-0.8c0.6-1,0.9-2.7,1.8-3
		c8.8-3,17.7-3.9,26.6-1.3C615,762.5,615.2,763.1,615.3,763.7z"/>
	<path d="M347.3,387.2c-2.1,6-3.5,12.7-6.7,18.5c-4.5,7.9-12.7,7.5-16.7-0.6c-6-11.9-5.3-23.9,1.8-35.1c4.8-7.6,12.8-7.1,16.8,1.1
		C344.7,375.7,345.5,381,347.3,387.2z M326.7,382.6c1.4,1.6,2.3,2.7,3.3,3.7c1.2-1.8,2.7-3.5,3.5-5.5c0.2-0.4-2-1.8-3.1-2.7
		C329.3,379.5,328.2,380.8,326.7,382.6z"/>
	<path d="M326.9,342.5c0.9-7.2,5.2-11.6,11.3-12.7c14.9-2.6,32,13.4,30.4,28.3c-0.1,1.3-1.1,2.4-2.9,3.5c-0.6-1.6-1.2-3.3-1.8-4.9
		c-2.8-8.2-8.1-14.4-15.5-18.8c-4.3-2.6-8.5-3.3-12.9,0.4C333.3,340.3,330.2,341,326.9,342.5z"/>
	<path d="M272.8,362c-6.1-4.6-11.8-9.7-18.6-1.7c-0.2-5.9,3.9-10.6,8.7-10.6C268.5,349.8,272.9,354.9,272.8,362z"/>
	<path d="M252.8,440.4c-1.9,2.9-3.7,7.6-5,7.4c-4.3-0.5-3.9-4.9-3.4-7.9c0.4-2.4,2.5-4.5,3.8-6.8C249.6,435.3,251,437.5,252.8,440.4
		z"/>
	<path d="M221.6,428.7c3.7,4.9,3.4,10.3-0.7,14.2C216.8,439.1,217,433.1,221.6,428.7z"/>
	<path d="M514.5,703.8c-6,3.6-17.5-0.4-20.8-7.7C500.7,698.7,507.5,701.2,514.5,703.8z"/>
	<path d="M716.6,659.1c12.4,6.9,25.1,8.6,38.2,1.5C745.3,674.7,725.5,673.8,716.6,659.1z"/>
</g>
</svg>
