<?xml version="1.0" encoding="utf-8"?>
<!-- Generator: Adobe Illustrator 18.1.1, SVG Export Plug-In . SVG Version: 6.00 Build 0)  -->
<svg version="1.1" id="Layer_1" xmlns="http://www.w3.org/2000/svg" xmlns:xlink="http://www.w3.org/1999/xlink" x="0px" y="0px"
	 viewBox="0 0 1024 1024" enable-background="new 0 0 1024 1024" xml:space="preserve">
<g>
	<path d="M742.3,446.5c2.5-0.7,4.9-1.4,7.4-2.2c9.7-2.8,19.2-6.5,29.1-8.3c10.2-1.8,20.3,1.1,29.4,6.1c7.9,4.3,15.6,9,23.1,13.9
		c5.6,3.7,7,9.7,2.5,14.6c-18.7,19.9-39.5,35.5-69.3,30.5c-7.3-1.2-13.4-4.7-19.8-10.8c1,9.2,2,17.1,2.7,25
		c2.3,25.5,4.9,51.1,6.5,76.7c1.1,16.6,2.6,32.6,10.6,47.7c4.6,8.6,7.6,18.1,10.7,27.4c7.7,23,7,45.5-5.5,67
		c-1.5,2.6-3.1,5.1,1.4,6.4c4.5-7.5,8.7-15.3,13.7-22.5c3-4.3,6.8-8.2,11-11.4c4.8-3.7,9.7-0.9,9.1,5.1c-0.7,7-2.6,14-3.8,20.4
		c4.5-2.8,9.4-6.3,14.7-9.1c5.3-2.8,8.4-0.5,7.7,5.5c-0.4,3.7-1.3,7.4-2.2,12c2.3-0.8,4.1-1.7,5.9-2.1c2.9-0.7,5.8-1.5,8.8-1.5
		c5.8,0,7.2,2.2,4.8,7.5c-1.2,2.7-2.8,5.2-4.7,8.6c4.2,0,7.9-0.2,11.6,0c5.7,0.3,6,0.8,4.8,6.6c-7.6,1-15.2,2-22.7,3.1
		c-3.2,0.5-3.7-1.4-2.9-3.5c1.6-4.7,3.6-9.3,5.5-14c-5.9,1.8-12,3.3-15.9,9.4c-1,1.6-3.6,2.2-5.4,3.2c-0.4-0.3-0.8-0.7-1.2-1
		c2.1-8.4,4.3-16.8,6.4-25.2c-0.4-0.3-0.9-0.6-1.3-1c-7.3,7.1-14.7,14.1-22.3,21.5c11.6,7.3,19.4,16.5,23.3,28.8
		c5.1,15.9-4.2,42.9-22.8,46.2c-9,1.6-18.6,1.2-27.7,0c-19.6-2.5-39.1-6.1-58.7-9.2c-1.6-0.3-3.3,0-4.8,0c-2,4.5-3.5,9.2-6.1,13.1
		c-6,8.8-14.7,14.1-25.3,13.8c-15.9-0.5-31.8-2.1-47.7-3.4c-11.4-0.9-22.8-2-34.2-2.9c-0.6,1.6-0.9,2.4-1.1,3.2
		c-4.4,16.4-15.5,25.5-32.7,26.1c-3.4,0.1-4.9,1.2-6.1,4.3c-3.9,10.4-12.1,16.1-22.9,16.7c-11.1,0.6-22.3-0.4-33.4-0.7
		c-17.1-0.6-34.3-1.3-51.4-1.7c-6.1-0.2-11.6,0.7-17.1,4.9c-11.5,8.9-26.8,7.7-39.4-2c-3.3-2.5-6.2-3.3-10.6-3.2
		c-24.9,0.6-49.4,4.1-74,7.5c-6.1,0.9-12.7,0.5-18.8-0.7c-15.3-3.1-19.9-12.1-14.3-27.2c-15.7-8.5-25.2-22-28.7-40.8
		c-3,5.7-6,9.9-5.3,15.9c0.9,8.1-1,15.8-4.9,23.1c-3.3,6.3-5,12.6,0.4,19c2,2.4-0.1,5.6-3.9,5.2c-4.9-0.5-10-1.2-14.5-3.1
		c-19.2-8.1-26.9-31.5-17.2-52.2c2.4-5.2,5.8-10.3,10-14.1c8.3-7.5,9.7-16.6,7.7-26.4c-2.3-11.6-5.3-23.1-8.8-34.3
		c-1.3-4.3-4.9-7.9-8-11.3c1.1,6.3,2.1,12.5,3.3,19.6c-9.3-2.3-17.3-4.3-25.7-6.4c0-1.3,0-3.2,0-5.9c5.5,0.3,10.7,0.5,16.7,0.8
		c-1-3-2.4-5.8-2.8-8.8c-0.4-2.9,0.3-6,0.5-9c3.2,0.6,6.4,1,9.4,1.9c1.6,0.5,2.8,2.1,4.8,3.6c0.4-14.8,3.4-28.3,9.5-41.1
		c0.5-1.1,0.5-2.6,0.4-3.9c-1.8-27.1,7.1-51,23.3-72.1c24.4-31.8,54.2-57.7,88.9-77.8c20.4-11.8,42.6-13.7,65.7-12
		c28.2,2,56.5,4.5,85.4-0.9c1.4-13.2,3.3-26.6,4.1-40c1.2-18.3,2-36.6,2.3-54.9c0.1-8.4-1-17-2.3-25.4c-3.4-22.4-15.7-39.6-34-52
		c-16.6-11.3-34.3-21-51.4-31.8c-7.4-4.7-14.4-10.1-21.6-15.1c-1.1-0.8-2.5-1.6-3.9-1.7c-5.1-0.5-10.2-0.7-16.1-1
		c-4.5,22.4-18.2,34.4-42.1,31.8c-16.4-1.8-23.8-10.2-27.1-29c-10,2.5-20.2,5.3-29.6-1.3c-9.9-6.9-9.6-17.4-8.5-28.2
		c-1.5-0.1-2.6-0.2-3.7-0.3c-27.7-0.7-43.6-27.7-30.8-52.3c4.8-9.1,12.1-15.8,20.9-20.9c0.8-0.5,1.6-1,2.7-1.7
		c-0.8-0.7-1.3-1.1-1.7-1.5c-14.9-11.1-17.6-29.3-6.6-44.4c6.4-8.8,13.8-13.7,26.9-17.7c-8.4-10.5-5.5-20.4,1.4-30.1
		c7.4-10.3,17.6-12.2,29.8-9.2c-2.1-22.8,8.1-38.8,27.3-48.4c18.9-9.4,37.9-8.7,56.2,3.8c5.1-10.9,11.4-20.7,24.3-23
		c11.5-2,23-2.5,33.1,6.2c7.6-18,20.1-30.1,40.4-31.5c20-1.4,35.4,6.2,44.3,25.6c6.6-5.7,13.8-8.1,22-7.5c8.4,0.6,14.6,5,19.6,12.3
		c8-16.7,20.7-26.6,38.3-29.3c17.6-2.7,33.1,1.6,44.6,16.7c10.8-9.8,22.7-16.1,37.4-12.1c14.4,3.9,22.8,14.2,28,27.5
		c27.5-11.3,42.3-6.5,51.2,16.7c33.7-10.4,52,14.1,45.3,40.5c34.9,18.9,38.4,49.9,9.2,77.6c5.4,4.2,11.3,8.1,16.3,12.8
		c7.2,6.6,11.1,14.9,10.4,24.9c-0.5,8.7-4.3,15.6-11.4,20.6c-2.4,1.7-5.1,3.1-7.7,4.8c2,5.4,4.5,10.5,5.7,15.9
		c5.3,23.3-10.9,40-34.7,36.3c-2.5-0.4-4.9-0.9-8-1.4c0.5,12.1-2.2,23-12.3,30.5c-6.8,5-14.8,5.8-22.9,5.1
		c-20.4-1.7-27.5-9.7-29.1-31.5c-19.2,5.5-39,10-57.9,16.9c-29,10.7-53.8,27.8-71.6,53.6c-7.5,10.9-10.5,23.3-10.5,36.4
		c0,7.3,0.4,14.7,0.9,22c0.1,1.3,1.4,3.3,2.4,3.5c12.8,2.6,24.3,8,35.5,15.5c1.4-2.7,2.8-5.3,4.4-8.3c-1.7-1-3.2-2-4.7-2.9
		c-23.6-13.8-30.3-38.5-16.5-62.1c2.7-4.7,6.1-9.2,10-13c1.7-1.7,5.8-2.9,7.8-2c1.9,0.9,3.3,4.6,3.6,7.2c1,7.9,0.8,15.9,2.2,23.7
		c1.1,5.8,4.7,10.5,10.3,13.5c4.4,2.3,8.4,3.1,13.3,1.3c10.1-3.7,20.6-3.3,31.1-2.6c4.4,0.3,9,0.6,13.4-0.2c10.6-2,20.5,0,30.1,4.4
		c11.2,5.1,20.4,2.4,27.8-7.7c4.6-6.3,6.3-13.5,6.5-21.1c0.1-4-0.4-8.1,0.3-12c0.5-2.8,2-6.2,4.2-7.6c1.3-0.9,5.6,0.8,7.2,2.6
		c19.6,21.8,27.8,54.2-7,76.5c-3.4,2.2-7.1,4-10.7,6C742,445.4,742.2,445.9,742.3,446.5z M720.4,293.2c-0.6,1.5-1,2.7-1.5,3.9
		c-5.2,12.8,0.2,23.5,13.6,26.7c2.6,0.6,5.2,1,7.9,1.3c14.7,1.4,24.6-6.7,25.7-21.4c0.3-4.4-1-8.8-1.6-13.3
		c-0.2-1.7-0.7-3.3-1.4-6.3c3,1.3,4.7,2.3,6.5,2.8c6.6,1.7,13.1,4.2,19.7,4.5c10.9,0.5,17.5-5.2,19.9-15.8
		c2.5-11.2-1.4-20.3-9.5-27.9c-1.6-1.5-3.3-3-5.5-5.2c4.3-1,7.7-1.5,11-2.5c17-5.4,22.2-20.1,12.2-34.5c-5.7-8.2-13.4-13.8-23-16.6
		c-2.9-0.9-5.9-1.5-10.5-2.6c16.9-9.4,31.7-20,31-40c-0.7-20.2-12.5-32.2-33.8-34.4c1.5-2.3,2.4-3.6,3.2-5c4.8-8,4.4-16.3,0.5-24.4
		c-3.7-7.7-10.1-12.2-18.8-11.6c-5.7,0.4-11.5,1.6-16.8,3.5c-7.3,2.6-8,2.6-8.3-5c-0.3-9.2-5-15.3-13.8-18.1
		c-11.5-3.7-20.9,0.2-29,8.4c-1.9,1.9-4.1,3.5-6.2,5.2c-0.5-0.2-1.1-0.4-1.6-0.6c-0.1-2.7-0.3-5.4-0.4-8.1
		c-0.6-18.9-19.2-33.3-36.2-27C647.2,31.8,641.9,37,636,41c-2.3,1.6-4.6,3.2-7.2,5c-5.7-16.3-18.2-23.7-36.7-22.1
		c-9.1,0.8-17.6,4-24.5,10.2c-9.7,8.6-14.6,19.1-12.2,33c-3-1.6-5.3-3.3-6.9-5.5c-1.2-1.7-1.5-4-2.3-6c-2.9-7.7-7.9-13.4-16.3-14.4
		c-9.1-1.2-15.7,3-19.9,11.1c-1.1,2.1-2.8,3.8-4.2,5.7c-0.5-0.1-1-0.2-1.4-0.3c-0.7-2.6-1.4-5.3-2.1-7.9
		c-2.5-10.2-7.5-18.8-17.3-23.2c-17.5-7.8-40.7-3.6-50.7,16.4c-2.1,4.2-2.6,9.2-4.1,13.7c-0.6,1.8-2.1,3.4-3.2,5.1
		c-1.4-1.2-3-2.2-4.3-3.5c-1.7-1.8-2.7-4.3-4.6-5.8c-10.6-8.8-31.2-6.6-39.2,4.7c-3.5,4.9-5,11.1-7.7,16.6c-0.8,1.6-2.2,3-3.3,4.5
		c-1.3-1.1-2.6-2.3-3.9-3.4c-3.5-3.1-6.6-7.4-10.7-9.2c-15.9-7.2-31.3-4.8-45.6,4.5c-11.1,7.2-17.7,17.4-17.7,31.2
		c0,5.4,0,10.8,0,15.8c-6.2-0.6-12.9-1.9-19.6-1.7c-8.9,0.4-13,6.8-15.6,14.6c-2.4,7.1,1.4,11.4,6.1,15.5c2.3,2,4.6,4,7,6
		c-0.8,0.9-1,1.3-1.3,1.3c-1.3,0.2-2.6,0.3-3.9,0.5c-11.9,1.3-22.7,5.1-30.9,14.5c-10.6,12.1-8.7,27.8,4.8,36.5
		c3,1.9,6.7,2.8,10,4.3c1.2,0.6,2.2,1.7,3.3,2.6c-1,1-1.7,2.5-2.9,3c-2.9,1.3-6,2.1-8.9,3.3c-9.6,4-17.2,10.3-21.9,19.5
		c-5,9.7-6,19.8,0.7,29.4c6.8,9.8,16.4,13.1,28,11.1c3.4-0.6,6.8-1.1,10.8-1.7c-1,2.5-2,4.3-2.4,6.2c-1.1,4.7-2.6,9.4-2.6,14.1
		c0,9.1,5.9,14.7,14.9,14.3c4.9-0.2,9.7-1.7,14.5-3.1c3.4-1,6.6-2.8,10.8-4.6c-0.4,3.9-0.7,7-1.1,10c-1.5,10.3,3.8,19.4,13.4,23.1
		c19.4,7.3,38.5-5.1,39.4-25.7c0.2-3.9,0-7.8,0-13.2c3.9,2.6,6.6,4.6,9.4,6.4c5.4,3.4,11.1,5,17,1.7c6.2-3.5,10.9-8.4,10.4-16.3
		c-0.3-4.5-0.8-8.9-1.2-12.9c5.3,2,10.4,4.4,15.8,5.9c6.4,1.8,12.6,0.5,17.9-3.8c7.7-6.2,8.1-15.3,0.5-21.4
		c-10.3-8.2-21-15.9-31.6-23.6c-1.2-0.9-3.5-1.1-4.9-0.6c-11.8,4.1-21.6,2.2-28.9-8.5c-12.5,5.4-19.3,4.9-24.3-1.5
		c-2.7-3.5-2.8-5.8-0.2-9.3c2.3,6.6,6.7,9.4,13.5,8.3c6.8-1.1,9-7.2,12.7-12.2c1.6,3.5,2.8,6.5,4.2,9.3c3.5,6.9,7.2,9,14.4,8.3
		c6.6-0.6,10.9-4.4,12.5-10.5c1.2-4.8,1.2-9.8,1.6-14.8c0.2-1.8,0-3.7,0-6.6c2.5,1.6,3.8,2.9,5.3,3.3c5.3,1.6,10.8,4.3,16.1,4.1
		c12.5-0.4,19-13.3,13.1-24.3c-1.1-2-1.3-4.5-2.3-8.3c8.8,4,16.2,7.2,23.7,1.8c7.7-5.6,6.6-13.4,4.8-23c4.1,2.9,7,4.9,9.9,7
		c4.5,3.3,10.9,3.3,14.2-0.2c3-3.1,2.7-7.1-1-12.1c-0.2-0.3-0.2-0.7-0.4-1.3c5.7,1.7,8.5,6.4,7.4,11.9c-1.6,7.4-9.3,10.8-20,9.5
		c-3.5,5-5.8,10.5-9.9,13.8c-4.3,3.5-10.4,4.8-16.1,7.2c0.5,6.9,3.7,13.2,7.4,19.4c7.1,11.7,19.9,16.3,32.9,12.1
		c6-2,10-5.7,11.7-11.9c0.5-1.8,1.3-3.5,2-5.2c4.9,5.1,8.8,10.6,14,14.1c5.9,3.9,12.8,2.2,19.2-0.4c7-2.8,9.3-9,11.3-15.9
		c1.7,2.2,3.1,4.2,3.5,6.5c0.7,3.9,0.5,8,1,11.9c1.3,10,2.7,19.9,4.1,29.8c0.6,0,1.2,0,1.8,0c14-23.5,26.6-47.6,31.1-75.4
		c-1.3-0.3-2.5-0.5-3.6-0.8c-12-3-17.7-12.1-13.6-23.8c1.9-5.5,0.4-7.4-4.2-9.7c-10.7-5.4-11.9-21.4-2.2-28.4
		c2.5-1.8,5.8-2.3,8.8-3.4c0.2,0.5,0.3,1,0.5,1.5c-1.6,1.2-3.2,2.4-4.7,3.6c-4.8,3.8-6.7,10-5,15.6c1.6,5,5.8,7.7,12.6,7.8
		c0.7,0,1.3,0,2,0c5.3,0.1,5.8,1.1,3.1,5.9c-1.1,2-2.3,4.1-3.1,6.2c-1.8,4.6-3,9.5,0.8,13.7c3.8,4.3,9,3.9,14,2.8
		c2.7-0.6,5.2-2.1,7.9-3.1c1.3-0.5,2.6-0.9,4.4-1.6c-0.4,4.4-1,8.2-1.1,12c-0.1,4.9,1.4,9.5,5.8,12c4.4,2.5,8.4,0,12.1-2.4
		c2.7-1.7,5.3-3.6,8.2-5.6c0,4.9-0.1,9,0,13.2c0.2,9.7,4.2,16.1,11.5,17.8c8.8,2,19.5,0.5,24.2-9c1.3-2.7,2.8-5.4,4.5-8.6
		c0.7,1.2,1,1.8,1.3,2.3c3.9,8,7.9,10.8,14.8,10.3c7.2-0.5,11.8-4.6,14.2-12.7c1-3.6,1.7-7.3,2.7-12.1c2.7,2.4,4.9,4.3,7,6.3
		c8.7,8,15.8,7.1,21.9-2.8c2.6,3.7,1.8,7.2-1.2,9.9c-2.1,1.9-5.1,4-7.8,4c-5.1,0.1-10.2-1.3-15.4-2c-3.7,15.7-23.8,22.2-37.2,12.1
		c-5.8,8.4-14.5,11.1-24,10.2c-6.6-0.7-10.6,1.6-14.2,6.5c-2.8,3.9-6.4,7.3-9,11.3c-2.8,4.4-5.5,9.2-7.1,14.2
		c-2.8,8.6,2,14.7,11.1,15.3c9.1,0.6,16.1-3.4,21.6-10.3c1.6-2,3.1-4,5.3-6.6c1.1,3.2,1.6,5.5,2.5,7.6c1.4,3.1,2.8,6.5,4.9,9.1
		c5.7,7.1,19.7,7.9,25.4-0.5c2.6-3.9,6.1-7.1,9.2-10.6c0.5,0.2,0.9,0.4,1.4,0.6c0.1,3.1,0.8,6.3,0.3,9.3
		c-1.3,9.6,7.5,14.4,15.4,10.8c3.1-1.4,6.1-3,10-4.9c-0.3,3.5-0.3,6.3-0.7,9C698.9,287.4,702.7,292.1,720.4,293.2z M326.7,597.7
		c-0.1-0.5-0.2-1.1-0.3-1.6c4.9-5.6,11.5-6.4,18.4-5.7c17.9,1.7,27.8,13.1,33.3,29c5.7,16.4,6.1,33.3,3.5,50.4
		c-2.2,14.3-5.9,28.2-12.8,42.1c12.5-1.4,24.2-2.9,35.9-4.1c22.7-2.4,43.1-9.9,59-27.1c0.8-0.9,1.5-1.9,2.7-3.3
		c-21.5,3.7-37.4-5-50.5-20c-5.8-6.7-4.9-12.7,1.7-18.2c2.8-2.3,5.8-4.5,8.9-6.5c15.4-9.8,31.5-12.1,48.5-4.4c1.4,0.7,3,1.1,4.4,1.6
		c2-4,3.6-7.6,5.7-11c10.7-17.8,27.2-24.5,47.2-19.7c2.7,0.6,5.6,0.5,8.3,0.2c7.8-1.1,15.1,0.1,21,5.6c5,4.6,9.8,9.5,14.3,14.6
		c2.2,2.5,4,3.1,7.3,2.4c4.7-1,9.6-1.8,14.3-1.4c12.2,1.2,23,6.4,33.3,12.7c5.2,3.2,6.5,9.1,3.3,14.4c-8,13.4-19.6,21.5-35.3,23.3
		c-8.3,0.9-8.7,1.1-9.4,9.4c-0.2,2.1-0.6,4.5,0.1,6.5c2,5.8,2.9,13.4,7.1,16.9c9.9,8.4,14,22.6,5.3,32.3
		c-7.1,7.9-16.1,14.3-25.1,20.1c-7.2,4.7-15.9,3.9-24.6,2.4c-2.3,7.8-2.4,15.4-1,22.9c0.3,1.8,2.2,4.2,3.9,4.7
		c12,3.6,23.9,7.3,36.1,9.8c13,2.7,26.4,3.6,39.4,6.2c4.6,0.9,9.3,3.6,13.1,6.5c3.5,2.8,2.6,5.7-1.4,8.3c-0.3-4.8-4-5.7-7.6-6.5
		c-2.4-0.6-4.9-1-7.4-1.4c-18-3.1-36.1-5.8-54.1-9.3c-7.2-1.4-14.2-4.4-21.6-6.7c-0.5,7.1-1,13.7-1.5,20.8c2.1,0,3.7-0.1,5.4,0
		c12.9,0.6,24.5,3.5,30.5,16.8c0.4,0.8,2,1.4,3.1,1.5c15.3,1,30.5,1.8,45.8,2.8c11.4,0.7,22.9,2.4,34.3,2
		c14.9-0.5,26.1-13.6,25.8-28.5c-0.2-11.4-6.4-19.5-15.6-25.3c-13.9-8.8-28.2-17.1-42.3-25.6c-4.9-2.9-10.1-5.6-11.9-11.7
		c3.8,0.4,7.2,0.8,10.9,1.1c1.3-12.2-0.5-23-4.5-33.7c3.7,4.2,7.4,8.6,8.8,13.6c1.8,6.3,2.2,13.1,2.6,19.7c0.2,3,0.8,4.8,3.5,6.3
		c6.6,3.6,13.1,7.3,19.5,11.2c14.8,9.3,30.7,17.4,37.1,36.6c17.4-16.9,18.8-40,28.1-59.7c0,5.2,0,10.5,0,17.4
		c5.5-3.2,10.3-5.2,14.2-8.2c19.9-15.4,31.8-45.2,23.9-73.1c-3.8-13.2-9.4-25.9-14.3-38.9c-0.3-0.9-1-1.7-2-3.4
		c-2.8,22.2-3.5,43.9-18.4,61.2c4.2-26.1,13-51.5,12.2-78.2c-0.8-26.5-3-53-4.6-79.7c-0.9,0.3-1.2,0.3-1.2,0.4
		c-1.1,2.9-2.2,5.9-3.4,8.9c-8.6,21.6-23.9,35.6-46.4,41.8c-1.7,0.5-3.7,2.3-4.3,3.9c-4.9,12.8-13,21.9-26.6,25.6
		c-1.2,0.3-2.2,1-3.1,1.5c10.6,25,26.3,47.7,26.8,75.8c-7.9-22.4-19.2-43.1-29.5-64.3c-3.4-7.1-6.7-12.7-15.8-10.9
		c-0.2,0-0.3-0.1-0.5-0.1c-16.2-0.7-27.7-11.9-41.2-18.7c-1.1-0.6-1.9-1.8-2.7-2.9c-9.1-12.1-8.1-35.4,1.9-46.6
		c1.1-1.2,2.5-2.7,2.5-4.1c0.2-8.2,0.1-16.5,0.1-24.3c-7.8,2.6-16,6.5-24.5,8c-16.7,3-33.6,4.6-50.4,6.8
		c-11.9,1.5-14.1,3.5-16.5,15.4c-0.3,1.3-0.6,2.6-0.7,3.9c-0.6,6.4-4.1,10.8-9.7,13.6c-2.7,1.3-5.4,2.7-8.2,3.6
		c-6.3,2.1-11.1,6-14.8,11.4c-4,5.9-7.9,11.9-12.4,17.6c-7,8.9-16.2,13.6-27.8,12.9c-11-0.7-21.1-6.5-22.8-14.8
		c-1.8-8.7-6.5-14-14.3-17.7c-7.8-3.7-10.4-10.3-8.5-18.8c1.7-7.9,4.9-15.1,12.1-20.5c-3.3-0.3-5.7-0.5-8.2-0.8
		c-23.8-2.2-47-1.3-68.2,11.5c-33.6,20.3-63.1,45.4-86.2,77.2c-17.6,24.3-24.8,51.5-15.9,81.3c5.8,19.4,16.6,36.2,27.3,53.1
		c0.1,0.2,0.6,0.1,1.2,0.3c1.6-2.1,3.4-4.3,5-6.6c17.8-24.9,41.6-39.7,72.1-43.6c8.9-1.1,17.8-2.4,26.7-3.8c1.9-0.3,4.4-1.5,5.2-3
		c13.5-26.7,19.3-54.6,12-84.1c-5-20.1-17-28.5-37.7-28.4C331.5,598.2,329.1,597.9,326.7,597.7z M297.7,772.8c-0.3-0.3-0.7-0.7-1-1
		c1.1-1.4,2-2.9,3.2-4.2c5.7-6.4,13.2-9.3,21.4-11c25.4-5.3,47.5,9.9,51.1,35.5c2.6,18.3-3.3,34.1-15.3,47.9c-0.9,1-1.7,2-2.5,3.1
		c18.5-4.7,35.6-1.7,51.8,6.7c6.6,3.4,11.2,0.8,16.4-1.9c-3.6-11.3,0.5-27.6,10.2-37.8c-0.7,4.2-1.1,7.2-1.7,10.1
		c-1.1,6.2-2.5,12.4-3.4,18.6c-0.7,5.6,1.7,10.1,7.1,11.9c7.4,2.5,14.9,4.9,22.5,6.1c12.3,1.9,24.8,2.6,37.2,4.2
		c3,0.4,5.9,2.2,8.8,3.4c-0.2,0.6-0.4,1.2-0.6,1.8c-1.5,0-3,0.1-4.4,0c-14.3-1-28.6-1.5-42.8-3.4c-8.5-1.1-17.2-3.3-24.7-7.1
		c-5-2.5-7.5-1.7-11.1,1.4c6.6,6.3,10.8,13.6,11.1,21.7c7.3,0,14.1-0.1,20.9,0c10.2,0.2,20.3,0.6,30.5,1.1c13,0.6,25.9,1.9,38.9,2
		c11.8,0,19.5-6.4,21.7-16.3c2.4-10.9-2.3-20.8-13-25.9c-5.2-2.5-11-3.8-16.4-5.7c-7.3-2.6-14.8-5-21.9-8.2
		c-4.1-1.8-7.7-4.8-8.9-9.8c6.2,2.5,12,4.9,17.8,7.2c2.7,1.1,4.3,0.5,5.2-2.5c5-16.2,4.4-31.9-4.7-46.7c-2.4-3.9-4.7-7.8-7-11.7
		c8.1,4.6,13.6,11.2,17.1,19.4c6.1,14.5,5.8,29.1,0.5,43.9c4.2,1.4,8.2,3.3,12.4,4c2.6,0.4,6.2-0.3,8.1-2c2.9-2.5,5.2-6,7.1-9.5
		c4.8-9,4.9-18.9,4.3-28.8c-0.8-11.5-2.1-22.9,2-35.1c-5.4-2.1-10.6-4.3-15.8-6.1c-5.2-1.7-10.7-2.6-15.8-4.5
		c-17.3-6.5-30.4-17.2-34.3-36.4c-0.6-3.2-0.9-6.5-1.3-9.7c0.4-0.1,0.9-0.2,1.3-0.2c1.7,3.2,3.7,6.3,5,9.7
		c6.1,15.8,18.2,25.1,33.5,30.7c12.1,4.4,24.7,7.5,36.6,13c9,4.2,18.2,0.4,26.3-5c-9.1,1.6-18.2,4.6-27.4,0.3
		c-8.8-4.1-14.6-15-12.1-22.7c15.8,26.5,22.1,20.8,43,16c8-1.8,13.5-9.1,14.1-17.2c-0.8,1.4-1.1,2.7-2,3.3c-1.4,1-3,2-4.6,2.1
		c-1.2,0-3.4-1.6-3.4-2.2c0.2-1.6,1.2-3.3,2.4-4.4c2-1.9,4.4-3.4,6.5-5c-2.6-5.2-6.6-5.2-10.9-5c-5.8,0.3-11.6,0.7-17.4,0.5
		c-7.5-0.3-11.2,1.9-13.2,9.1c-0.8,2.8-1.3,5.6-2.1,9c-7.2-13.1-0.9-24.5,13-24.8c2.3,0,4.7,0.3,7,0.3c3.9,0.1,7.8,0,12.1,0
		c-1.6-5.1-2.9-9-3.9-13c-1.2-4.5,0.3-10-5.1-13c-0.7-0.4-0.9-2.1-1-3.2c-0.8-7.4,1.4-13.2,8.9-15.4c-2-17.3-16.1-40.9-29.6-50.6
		c-4.2-3-8.5-3.1-13.3-2.9c-4.4,0.1-9,0.2-13.2-0.9c-9.3-2.4-17.9-1.3-24.9,5c-7.2,6.4-13.4,14-19.9,20.8c2.2,2.8,3.6,4.6,5,6.3
		c-0.2,0.5-0.5,1.1-0.7,1.6c-4.1-0.5-9.2,0.5-12.1-1.6c-17.3-12.5-39.5-6.3-54.2,7.5c-1.9,1.8-2.1,3.5-0.3,5.6
		c9.6,10.9,20.6,19.1,36,18.7c6.6-0.2,13.1-1,19.6-1.5c-3.6,11-9.4,20.8-18.9,28.3c-10.2,8.1-21.6,13.7-34.4,16.2
		c-6.9,1.4-10,6-8.2,13c0.8,2.9,2.9,5.5,4.2,8.4c2.1,4.6,5.1,9.2,5.7,14.1c1.5,11.8-6.4,22.5-18,26.3c-11.6,3.7-21.3,0-27.8-11.4
		c-3.9-6.7-9.2-11.2-16.6-13.5c-4.1-1.3-8.2-2.7-12.2-4.3c-11-4.5-13.5-10.6-8.4-22.7c-11.7,2.5-22.8,4.1-33.4,7.3
		c-33,10-66.6,48.4-63.2,91.6c1.4,17.8,12.2,29,25.1,40.1c6-8.4,11.5-16.2,17.1-24c0.4,0.1,0.8,0.2,1.2,0.3c-0.9,3.9-1,8.2-2.8,11.6
		c-3.5,6.8-7.8,13.2-12.1,19.4c-5.1,7.4-4.2,12.8,4.5,15.5c6,1.9,12.9,2.4,19.1,1.6c22.8-2.8,45.5-6.8,68.6-6.1c0.5,0,1-0.3,2.4-0.7
		c-3-1.3-5-2.2-7.7-3.3c5.9-2.6,10.9-1.3,15.4,1.2c5.1,2.8,9.8,6.2,14.9,9.1c7.3,4.1,15.1,4.3,23.7,2.4
		c-4.6-11.7-5.9-24.7-20.4-28.5c5.4-3.5,13.4-0.3,16.8,5.5c3.5,6.2,6.5,12.6,10.2,19.7c0.6-2,1.8-3.7,1.5-5.2
		c-1.6-8.3-4.3-17.1-12.1-21c-14-7-28.7-13.2-45-10.5c-9.8,1.6-19.5,4.2-29.2,6.4c-6.2,1.4-12.4,2.8-18.6,4.2
		c-0.2-0.6-0.5-1.2-0.7-1.9c3.7-1.9,7.4-3.9,11.2-5.7c4.5-2.1,10-3.1,13.5-6.3c14.3-13.3,23.8-29,22.3-49.6
		c-1.3-16.7-12.6-30.3-27.3-31.9c-12.6-1.4-24.6,0.4-35.8,6.6C300.6,771.4,299.1,772.1,297.7,772.8z M513.5,319.8
		c-5.4-4-11.1-7.6-15.9-12.1c-12.5-11.7-25.1-23.4-36.9-35.8c-21.9-23.2-47.3-42.3-71.5-62.2c-1.8,5.2-3.5,10.5-5.4,15.9
		c4.5,2.9,9.5,6,14.2,9.4c18.6,13.4,34.8,29.6,49.9,46.7c9.2,10.4,17.2,22.1,24.4,33.9c5.1,8.4,8.2,18.1,11.8,27.4
		c0.7,1.8,0.6,4.8-0.5,6c-0.9,1-4.1,0.6-5.9-0.1c-27.5-11.5-53-26.1-70.8-51c-5-7-10.9-10.1-19.3-9.5c-2.2,3.4-1.1,6,2,8.8
		c7.6,7,15,14.2,22.4,21.4c1.3,1.3,2.1,3,3.1,4.6c-0.4,0.4-0.8,0.9-1.3,1.3c-11.9-4.9-21.2-13.7-30.6-22.5c-2.2,2.4-4.3,4.7-7,7.6
		c6.7,4.9,12.9,9.9,19.5,14.1c17.2,10.9,34.9,20.9,51.8,32.2c18.6,12.4,32.3,29.3,36.4,51.8c2.8,15.3,4.2,31.1,4.1,46.7
		c-0.1,18.8-2.5,37.5-4,56.3c-0.6,7.7-1.5,15.4-2.4,23.7c17-1.6,33.3-3,49.5-4.7c10.4-1.1,20.8-2.4,31.2-3.9
		c1.6-0.2,4.2-1.8,4.3-2.8c0.3-8.9,0.2-17.9,0.2-24.8c-10.2-4.3-19.3-6.9-27-11.6c-8.3-5.1-15.6-11.9-22.9-18.5
		c-7.2-6.5-6.6-11.9,1.4-17.5c13.3-9.2,26.9-18.1,43.8-17.6c0.3-0.8,0.5-1.1,0.5-1.4c-0.2-4.7-0.4-9.3-0.7-14
		c-1.6-26.7,6.8-49.3,26.2-68c23.9-23.1,52.1-37.7,84.2-45.4c9.5-2.3,19-5,28.8-7.6c-2-2.3-3.3-4.3-5-5.8c-0.9-0.8-2.6-1.3-3.7-1.1
		c-14.8,3.9-29.5,8-44.3,11.9c-2.5,0.7-5.2,0.7-9.2,1.2c9-12.3,17-23.2,25.4-34.8c-3,0.7-5.3,1.7-7.5,1.6c-5.5-0.3-8.7,2.7-12.1,6.4
		c-24.8,26.7-53.6,48.3-86.3,66.9c-0.6-5.3-1.9-9.9-1.5-14.4c1.3-14.9,3.2-29.8,4.8-44.7c2.7-25.6,7.5-50.7,17.3-74.7
		c2.9-7.1,6-14,9.2-21.6c-9.9-2.6-12-11.1-14.7-19.9c-0.8,4.4-1.4,7.9-2.1,11.4c-4.5,22.2-14.9,41.9-26,61.3
		c-7.7,13.6-16.7,26.6-20,42.2c-1.8,8.5-3.1,17-4.7,25.5C520,312.8,518.5,317.3,513.5,319.8z M828.2,463.5
		c-8.2-4.7-15.8-9.4-23.6-13.7c-12.4-6.8-25.4-7.4-38.6-2.7c-6.6,2.3-13,5.1-19.6,7.4c-5,1.8-10.5,1.9-13.8-2.6
		c-5.6-7.7-11.9-15.6-14.9-24.5c-2.5-7.6-6.2-12.1-13.2-13.5c-6.4-1.3-13.1-1.2-19.6-1.4c-4.3-0.1-8.6,0.4-12.9,0.5
		c-9.1,0.3-18.2,0.1-27.3,0.9c-8.1,0.7-13.5,5.3-16.5,13.2c-4.8,12.8-10.9,24.9-19.3,36c-3.9,5.2-5,11.4-3.7,17.9
		c9.9-0.9,18.2,10.6,14.6,20.3c-0.9,2.5-3.5,5-6,6c-1.2,0.5-3.8-2.6-5.7-4.1c-0.2-0.1-0.6,0-0.7,0c0,13.7,0,27.4,0,41.2
		c0.3,0.2,0.7,0.4,1,0.7c4.3-7,9-13.8,12.7-21c6.1-11.9,9.3-24.5,7.5-38.2c1.7,4.7,3,9.5,3.3,14.3c1.2,18.2-7.1,33.1-17.5,47.8
		c10.7,2.3,20.8,3.1,31.1,1.6c12.5-1.7,22.3,4.5,26,16.7c2.9,9.4,2.1,18.8-1.6,27.9c-3.5,8.7-9.3,12.2-18.8,11.7
		c-3.6-0.2-7.3-0.9-10.9-1.4c-7-0.9-14-1.9-21.2,0.3c20.7,16.6,54.8,6.2,61.7-18.5c1.3-4.6,2.4-9.2,7.1-12.8
		c0.7,3.3,1.2,5.8,1.8,8.6c0.8-0.2,1.6-0.2,2.3-0.5c2-0.8,4-1.6,5.9-2.7c17.1-9.4,28.7-23.4,35-41.9c6.3-18.8,4.5-38.1,4.6-57.4
		c0-1.2,0-2.3,0-4.3c2.2,2.1,3.6,3.4,5,4.8c12.5,11.8,27.4,17.1,44.1,12.5c15.7-4.3,28.6-13.9,39.7-25.7
		C826.9,466.1,827.2,465.3,828.2,463.5z M764.1,798c-0.4,0.2-0.9,0.5-1.3,0.7c-1.4-1-2.8-2-4.3-2.9c-1.7-1-3.3-2.3-5.1-2.6
		c-8.8-1.6-17.8-2.7-26.6-4.3c-3-0.5-4.3,0.4-6,2.8c-4.1,5.6-8.8,10.7-13.3,16c-0.5,0.6-1.1,1.3-1.5,1.6c17.5,3,34.9,6,52.3,8.8
		c8,1.3,16.1,2.6,24.2,2.8c10.4,0.3,18-4.8,22.5-14.4c8-17,3.1-33.8-13.7-44.5c-9.2-5.8-18.9-10.9-28.7-16.5
		c-7.5,9.4-17.4,16.6-30.5,18.5c-0.9,0.1-2,1.2-2.3,2.1c-1.6,5-2.9,10.1-4.5,15.8c14,1.9,27.5,3.8,41,5.6
		C764.4,789.9,759.5,792.6,764.1,798z M599,187c-0.8,0.6-3.1,1.5-3.7,3c-6,15.2-12.1,30.2-17.2,45.7c-6.6,19.9-7.6,40.8-10.1,61.4
		c-1.3,10.8-2.8,21.6-4.3,33.8c29.5-18.5,56.1-38.1,76.7-61.4c-4.4-4.5-8.2-8.5-12.3-12.7c-6.4,5.8-15,9.1-25.4,7.4
		c-10.6-1.8-17.3-10.4-16-21c1-8,4.4-15,9.6-21.1c4.7-5.5,9.8-10.6,13.9-14.9C606.5,200.6,603,194.2,599,187z M461.5,225.4
		c3.3,11.8,6.5,24.8,10.7,37.6c2,6.1,4.6,12.4,8.7,17.1c7.9,9,17,16.9,25.7,25.1c1.4,1.3,3.2,2.1,6,3.8c1.1-4.9,2.2-8.8,2.7-12.8
		c1.4-9.5,3.7-19.2,0.5-28.7c-5-14.5-10.5-28.8-15.9-43.1c-0.5-1.3-1.4-2.8-2.6-3.4c-5.3-2.7-10.7-5-14.9-6.9
		C475.3,218.1,468.4,221.7,461.5,225.4z M596.2,574c0.4,4.6,0.4,7.8,1,10.9c2.3,11.2,8.5,14.8,19.7,13.6c7.3-0.8,14.8,0.1,22.2,0.5
		c3.8,0.2,7.6,1.3,11.4,1.5c7.1,0.4,11.4-2.3,13.6-8.6c3.2-9,2.8-18.1-1.1-26.7c-3.1-6.7-9-9.3-16.4-8.2c-5.2,0.7-10.6,1.1-15.9,0.9
		c-6.3-0.2-12.6-1.1-18.8-2c-7.3-1-11.7,3.5-14.1,8.8C596.3,567.8,596.5,571.7,596.2,574z M595.9,470.1c-6.4,3.3-11.8,0.2-17.1-3.1
		c-2.1-1.3-4.3-2.5-6.4-3.9c-5.9-3.9-12.4-5.7-19.4-5.4c-5.5,0.3-11,0.9-16.7,1.4c0.6-0.6,1-1.1,1.5-1.4c1-0.6,2-1.2,3.1-1.7
		c16.2-7.1,31.2-4.2,45.4,5.3c3.4,2.2,6.8,4.3,10.3,6.5c2.4-4.7,4.3-8.3,6.2-12c-24.4-19.9-64.6-18.1-81.6,3.9
		c6.5,8.6,15.1,14.9,24.2,20.6c15.5,9.6,31.1,9.1,46.8,0.1C596.4,478,597.7,475.2,595.9,470.1z M223,854.4c0.5,0,1,0,1.5-0.1
		c0-6,0.3-12.1-0.1-18.1c-0.7-9.6-3.7-18.7-2-28.8c1.4-8.3-0.4-17.2-1.1-25.8c-1.2-14.9-3.7-29.8-3.6-44.6
		c0.1-8.9-2.9-16.4-5.1-25.9c-4.5,13.7-6.5,26.3-4,39.1c2.4,12.7,5.6,25.3,8.3,38c2.7,12.5,1.7,23.8-8.1,33.7
		c-4.9,5-8.8,11.8-11.2,18.5c-3.7,10.4-1.2,20.6,5.5,29.8c0-6.9,0-13.9,0-20.8c0.5,0,1.1-0.1,1.6-0.1c0.8,5.1,1.4,10.3,2.5,15.4
		c1.1,5.3,3.4,10,7.5,13.1c1.5-16,3-31.9,4.5-47.5C224.3,837.3,222.9,846,223,854.4z M408.6,288c17.3,23.3,38.4,40.6,66,50.1
		c-10.9-27.5-28.9-49-49.6-69.8C422.7,278,417.4,284.4,408.6,288z M551.3,860.9c10-1,19-3.5,25.3-11.7c6.5-8.5,4.4-19.8-5.4-23.9
		c-6.6-2.8-14.1-3.5-21.2-5c-1-0.2-2.7,0.5-3.4,1.4c-3.5,4.3-6.8,8.8-10.1,13.2C546.7,842.9,547.6,844.4,551.3,860.9z M755.8,371.8
		c-0.1,0.1-0.3,0.2-0.3,0.3c2.5,21.8-7.3,40.8-28.4,48.2c-1,0.4-2.4,2.3-2.1,3.1c1.1,3.9,2.2,8,4.2,11.5c1.6,2.8,4.7,4.1,8.3,2.5
		c9.2-4.2,17.3-9.7,23.7-17.8C772.4,405.6,768.9,386,755.8,371.8z M461,260.4c-2.9-11.3-5.8-21.7-8.1-32.2c-0.7-3.1-1.9-4.5-4.8-5.2
		c-10.8-2.5-18.2-9.2-23.2-18.9c-0.9-1.7-1.9-3.3-2.1-3.6c-7,3.8-13.4,7.4-19.2,10.5C421.9,226.8,441.2,243.4,461,260.4z M229.5,824
		c5.5-3.9,7-6.4,8.3-14.8c1.9-11.5,3.8-22.9,9.4-33.4c0.5-0.9,0.1-2.8-0.6-3.8c-3.8-5.4-8-10.6-11.8-16c-3.8-5.3-7.4-10.8-11-16.2
		c-0.4,0.1-0.8,0.2-1.2,0.4c2,26.8,9.7,53.3,6.3,80.5C228.8,821.6,229.3,822.7,229.5,824z M593.8,662.5c13.7,1.2,29.9-9,33.8-21.2
		C612.7,630.8,595,624.8,583,630c1.7,3.5,3.4,7,5.1,10.6c7.6-5.1,14.8-4.7,21.6-1.4c-5.2,1.6-10.8,3.1-16.2,5.1
		c-1.2,0.4-2.5,2.8-2.4,4.2C591.7,653.2,592.8,657.8,593.8,662.5z M624.6,414.7c-17.3-9.2-21-24.5-19.6-42.5
		c-20.5,22.9-13,49.4,11.7,60.7C619.3,426.8,621.9,420.8,624.6,414.7z M597.9,488.2c-7.2,2.4-13.7,4.6-20.3,6.9
		c-1.2,0.4-3.1,1.5-3.1,2.3c-0.2,8.3-0.1,16.7-0.1,26.7c8.3-3.8,15.2-6.8,21.8-10.1c1.3-0.7,2.9-2.7,2.8-4.1
		C598.9,502.4,598.3,495,597.9,488.2z M522.2,264.2c5.3-5.3,6.4-6.9,5.6-11.5c-2.1-12.2-4.6-24.3-7-36.9c-4.5,1.8-9.2,3.7-14.1,5.6
		C512,236,517.1,250,522.2,264.2z M692.1,273.6c-7.7,2.6-14.7,1.9-20.1-4.4c-5.2,7.7-10,14.7-15.3,22.6c3.4-0.8,5.8-1.3,8.2-2
		c8-2.6,16.1-5,24-7.9C692,280.8,694.2,278.4,692.1,273.6z M787.7,751.1c3.6-12.8,7.1-24.8,10.5-36.9c-0.5-0.3-1-0.5-1.5-0.8
		c-7,10.4-13.9,20.8-21.2,31.7C779.6,747.1,783.1,748.8,787.7,751.1z"/>
	<path d="M268.2,959.7c-5.7-12.1,2.7-33,13.8-36.8c1-0.3,2.2-0.1,3.2-0.1c0,1.2,0.2,2.5-0.1,3.7c-0.2,0.9-0.8,1.9-1.4,2.6
		c-5.7,7.1-9.7,15-11.9,23.9C271.3,955.1,269.7,956.9,268.2,959.7z"/>
	<path d="M740.4,993c-3.4-12.8,4.8-27,16.1-30.3c1.7-0.5,3.6,0.2,5.5,0.3c-0.8,1.6-1.5,3.2-2.5,4.6c-4.9,6.6-9.9,13.2-14.9,19.8
		C743.3,989.2,741.8,991.1,740.4,993z"/>
	<path d="M645.6,927c-0.7-1.8-1.1-3-1.7-4.3c-4.5-10.8-9.1-21.5-13.9-32.8c5.2-0.6,8.2,2.6,10.9,6.4
		C647.7,905.8,650.5,919.3,645.6,927z"/>
	<path d="M607.9,900c7.8-0.9,14.5,0.9,19.4,6.6c4.7,5.4,7.8,11.7,5.8,20.2C624.5,917.7,616.6,909.2,607.9,900z"/>
	<path d="M781.2,908.4c-5.2-12,10.7-32.1,22.7-30.9C796.5,887.6,789.2,897.5,781.2,908.4z"/>
	<path d="M237.3,921c12.9,2.9,25.3,24.8,21.2,36.4C251.5,945.2,244.7,933.7,237.3,921z"/>
	<path d="M736.1,883.8c7.5-0.2,15,0.7,20.2,7.7c3.9,5.2,6.4,10.7,3.3,17.3C751.7,900.5,744,892.2,736.1,883.8z"/>
	<path d="M245.2,960.4c-9.9-8.8-18.9-16.9-28.6-25.5c6.2-1.4,11.5-0.1,15.9,3.5C239.2,943.8,244.5,950.4,245.2,960.4z"/>
	<path d="M394.8,983.4c-4-6.2-1.1-11.3,1.6-16c3.9-6.8,9.3-11.5,18.9-11.1C408.2,965.7,401.7,974.3,394.8,983.4z"/>
	<path d="M773.4,907.6c-5.4-11.6-10.6-22.5-15.6-33.3C768.6,874.1,779.5,895.5,773.4,907.6z"/>
	<path d="M713.7,964c11.1-0.3,20.3,20.2,14.5,31C720.8,985.6,720.4,973.8,713.7,964z"/>
	<path d="M655.7,925.6c-0.3-2.6-1.1-5.3-0.8-7.8c1.3-8.3,6.1-14.3,13.6-17.9c1.2-0.6,3,0,4.5,0.1c-0.4,1.4-0.6,3-1.3,4.2
		c-4.1,6.6-8.4,13-12.7,19.5c-0.4,0.7-1,1.2-1.5,1.9C656.9,925.6,656.3,925.6,655.7,925.6z"/>
	<path d="M809.7,842.3c-1.3-8.2,5.1-18.1,14.7-22.3c3.8-1.6,4.1-1.6,6.8,1.9C824.1,828.7,816.9,835.5,809.7,842.3z"/>
	<path d="M503.6,960.3c-6.4-7.5-12.6-14.8-18.7-21.8c5-2.1,11.1-0.1,16,5.8C505.6,950.1,506.6,955.7,503.6,960.3z"/>
	<path d="M510.6,928.5c7.5,2.3,10.9,24,5.1,30.3C512,954.6,508.9,936.9,510.6,928.5z"/>
	<path d="M712.6,993.1c-7.2-6.6-14-12.8-21.6-19.9c8.2-0.8,14.4,0.8,19.2,6.2C713.6,983.3,715.5,987.8,712.6,993.1z"/>
	<path d="M304.7,933.2c-5.8,8.6-10.9,16.2-16.2,24.1c-4-3.3-2.9-6.6-1.6-9.7C290.4,938.9,296.6,933.3,304.7,933.2z"/>
	<path d="M383.7,984.6c-4.4-9.2-8.7-18.4-13.2-27.9c8.4-1.3,18,17,15,27C384.9,984,384.3,984.3,383.7,984.6z"/>
	<path d="M542.4,933.6c-4.4,7.6-8.6,14.8-12.9,22c-0.5,0.9-1.8,1.9-2.5,1.8c-0.8-0.1-1.8-1.4-2-2.4c-1.8-7.6,8.1-21.2,16-22
		C541.5,933.1,542.1,933.5,542.4,933.6z"/>
	<path d="M411.9,986.6c-2-5.7-0.2-10.2,5.3-14.6c5.2-4.2,9-4.9,13.7-2.1C424.7,975.4,418.5,980.8,411.9,986.6z"/>
	<path d="M672,927.5c-1.9-9.8,6.9-19.1,15.1-17.7c2.7,0.4,3.1,2.1,1.3,3.7C683.3,918.1,678,922.5,672,927.5z"/>
	<path d="M779.3,977.2c-7,5.5-13,10.3-19.1,15.3C757.4,983,767,974.9,779.3,977.2z"/>
	<path d="M352.3,967.7c7.5-1.5,18.7,6.8,18.7,12.7c0,1-0.6,2.3-1.3,3.1c-0.4,0.4-2.1,0.3-2.6-0.2
		C362.3,978.4,357.6,973.3,352.3,967.7z"/>
	<path d="M818.6,893.7c-8,3.9-12.3,11.4-20.9,12.8C797.9,898.3,809.3,890.8,818.6,893.7z"/>
	<path d="M302.8,959.8c-2.8-7.8,6.1-15.2,17.7-14.5C315.1,951.7,308.7,955,302.8,959.8z"/>
	<path d="M540.1,961c-2.1-9.2,5.2-15.5,15.9-14.8C550.5,951.3,545.7,955.8,540.1,961z"/>
	<path d="M825.9,843.6c-2.4-4.5,0-6.6,2.5-8.2c3.9-2.5,8-4.3,14.3-0.9C836.4,838,831.2,840.8,825.9,843.6z"/>
	<path d="M310,649.4c0,1,0,2-0.2,3c-1.9,13.1-3.3,26.3-5.8,39.4c-3,15.8-23,32.2-38,32.1c-6.5-0.1-9.5-1.9-10.7-8.1
		c-1.7-9-6.1-16.2-11.8-23.2c-9.8-11.9-5.4-31.8,8.1-39.3c1.9-1,3.8-2.1,5.8-2.8c6.8-2.3,11.3-7,15.7-12.5c3.4-4.2,8-8.3,12.9-10.4
		c9.7-4.1,18.4,0.3,21.9,10.2c1.3,3.7,1.8,7.7,2.6,11.6C310.4,649.3,310.2,649.4,310,649.4z"/>
	<path d="M526.4,683.3c-1.9-2.1-3.4-3.6-4.8-5.2c-5.2,7.2-8.2,8.5-12.2,5.4c-4.4-3.4-4.6-10.3-0.3-15.2c-1.3-0.7-2.5-1.4-3.7-2
		c0-0.4,0-0.9-0.1-1.3c3.6-0.2,7.3-1.2,10.7-0.5C523.9,666,528.9,675.3,526.4,683.3z"/>
	<path d="M433.9,648.6c6.2-5.3,12.8-7.4,20.2-6.1c6,1,12,2.6,17.9,4.3c1.3,0.4,2.2,2,3.3,3c-1.2,1-2.3,2.8-3.5,2.9
		c-2.7,0.3-5.7,0.2-8.3-0.7C448.3,647.4,448.3,647.3,433.9,648.6z"/>
	<path d="M563.1,715.7c4,2.1,8.3,3.8,11.9,6.4c1.1,0.9,1.3,4.7,0.4,6.3c-1.6,2.7-4.9,2.7-6.8,0.3c-2.7-3.4-4.7-7.4-7-11.2
		C562,716.9,562.6,716.3,563.1,715.7z"/>
	<path d="M504.9,647.4c6.7-4.3,13.4-2.5,17,4.4C516.1,650.3,511,649,504.9,647.4z"/>
	<path d="M496.9,347.4c10,21.5,12.8,44.9,9,69C502.8,393.2,499.8,369.8,496.9,347.4z"/>
	<path d="M719,486c-2.5,0-4.7,0-6.1,0c-0.4,4.8-0.1,9.3-1.4,13.3c-1.4,4.2-4.9,7.6-9.7,7.5c-4.9-0.1-6.7-4.3-8.4-9.4
		c-1.6,2.4-2.9,4.4-4.7,7.2c-1.9-8.4,4.9-19.5,12.6-22.8C708.5,478.6,715,480,719,486z"/>
	<path d="M745.2,473.1c5.6-2.9,11.3-5.8,16.9-8.9c14.9-8.3,30.1-9.7,45.9-3c1.7,0.7,3.3,1.9,4.5,3.8c-4.5-0.8-9-1.4-13.4-2.3
		c-8.8-1.7-16.8,0.1-24.4,4.6c-2.9,1.7-5.8,3.3-8.5,5.2C759,477.5,751.9,476.8,745.2,473.1z"/>
	<path d="M694.5,458.5c6.6-5.5,15.5-5.2,19.7,0C708,458.5,701.9,458.5,694.5,458.5z"/>
	<path d="M640.9,587.8c-0.7-0.4-2.8-1-3.4-2.3c-0.6-1.3-0.3-4.1,0.7-4.9c4-3.2,8.3-5.9,12.7-8.5c0.5-0.3,2.9,1,3,1.8
		C654.5,577.9,645.9,587.7,640.9,587.8z"/>
	<path d="M598.4,568.5c7.5,2.4,11.9,6.4,15.3,11.5c0.7,1-0.1,4.3-1.1,4.7c-1.6,0.8-4.5,0.9-5.8-0.1C602,581,599.9,575.7,598.4,568.5
		z"/>
</g>
</svg>
