<?xml version="1.0" encoding="utf-8"?>
<!-- Generator: Adobe Illustrator 18.1.1, SVG Export Plug-In . SVG Version: 6.00 Build 0)  -->
<svg version="1.1" id="Layer_1" xmlns="http://www.w3.org/2000/svg" xmlns:xlink="http://www.w3.org/1999/xlink" x="0px" y="0px"
	 viewBox="0 0 1372 1344" enable-background="new 0 0 1372 1344" xml:space="preserve">
<g>
	<path fill="#642C09" d="M1106.9,611.8c-1.4,0-2,1.1-2.6,2c-19.5,31.4-48.8,48.6-83.5,58.2c-27,7.4-53.6,15.6-78.9,28
		c-22.8,11.2-44.9,23.6-62.7,42c-13.6,14.1-23.4,30.3-27.9,49.8c-2.8,12-3.9,24-4.2,36.2c-0.8,36.7,2.1,73.2,5.4,109.8
		c2.1,22.6,4.6,45.1,7.8,67.5c6,41.9,12.2,83.8,26.6,124c5.5,15.2,12.5,29.7,21.8,43.1c7.3,10.3,16.9,17.8,27.9,23.8
		c13,7,26.5,13.4,38.5,22.3c6.6,4.9,12.8,10.2,17.2,17.2c6.1,9.5,3.5,16.4-7.6,18.6c-20.1,4-40.4,3.6-60.7,1.4
		c-9.1-1-18.1-2.5-27.1-4.3c-11.4-2.2-22.6-0.7-33.8,0.8c-6.9,0.9-13.9,0.8-21.3,0.6c2.1,4.2,4,7.9,5.6,11.6
		c5.5,13,1.9,18.9-12.3,20.5c-16.7,1.9-33.3,0.4-49.8-2.3c-22.1-3.6-43.4-10.4-64-19.1c-11-4.6-21.7-4.9-33-1.1
		c-43.3,14.5-87.8,22.6-133.6,23.5c-6.3,0.1-12.7-0.5-18.9-1.9c-7.4-1.7-9.9-5.8-8.2-13.2c1.3-5.5,4.5-10.2,7.2-15.2
		c-10.5-2.4-20.6-1-30.8,1c-23.7,4.6-47.6,6.2-71.6,2.6c-1.5-0.2-3-0.5-4.4-0.8c-11.1-2.5-13.5-8.3-7.3-18
		c5.8-9,14.3-15.3,23.2-20.9c7.3-4.6,14.7-9.1,22.4-13.1c23.4-12.2,37.1-32.1,45.7-56.4c9.4-26.5,14.3-54,17.8-81.8
		c6-47,10.1-94.1,11.8-141.4c1.3-34.6,1.4-69.3-1.7-103.9c-4.1-44.6-27.3-77-64.3-100.4c-23.8-15.1-50.2-22.8-77.9-26.2
		c-19.7-2.5-39.4-4.6-58.3-10.9c-20.3-6.8-37.8-17.9-52.8-33c-2.2-2.2-4.5-4.4-6.7-6.7c-1.5-2.3-2.8-4.9-5.9-5.6
		c0-1.3-0.9-2.1-1.6-3c-3.8-5.2-8.5-9.8-11.6-15.5c2.9-2,6.1-1.1,9.3-1.1c2.1,5.5,6.9,8.8,10.5,13.1c16,19.1,35,33.8,58.8,42.1
		c19.9,6.9,40.7,8.9,61.4,11.6c22.6,2.9,44.2,9,64.7,18.9c20.2,9.7,37.6,22.9,52.1,40.1c13,15.4,22.5,32.4,27.8,51.8
		c5.8,21,5.8,42.7,6.4,64.2c0.9,34.4,0.2,68.8-2.6,103.2c-1.4,17.3-2.4,34.7-4,52c-2.2,23.2-4.3,46.5-8.1,69.5
		c-3.9,23.6-8.3,47-17.2,69.4c-5.5,14-12.3,27.3-22.6,38.5c-11.6,12.6-26.8,20.1-41.2,28.6c-9.6,5.7-19.1,11.4-26.1,20.5
		c-0.9,1.2-2.2,2.2-1.8,3.9c0.5,2.1,2.4,1.2,3.7,1.6c6.5,1.9,13.2,1.2,19.8,1.7c17.5,1.2,34.8-1.1,51.9-4.4
		c8.8-1.7,17.5-3.1,26.6-1.7c5.5,0.9,11.5,1.9,16.6-3.7c8.5-9.4,19-16.6,30-22.9c6.8-3.9,13.3-8.1,17.6-15
		c8.9-14.4,14.9-30,19.7-46.1c4.4-14.7,7.3-29.7,9.6-44.8c0.3,13,1.1,26-1,38.8c-3.1,18.7-7.8,37-17.7,53.6
		c-1.7,2.9-0.5,3.5,2.2,3.5c3.1,0,6.1,0,9.6,0c-0.6,2-1.5,2.4-2.4,2.7c-12.9,4.6-25,10.9-36.6,18c-16.5,10-30.2,22.8-39.5,40
		c-2.4,4.3-1.4,5.9,3.4,6.4c11.1,1.1,22.1,1.2,33.3,0.1c13.2-1.4,26.3-2.6,39.4-4.9c24.6-4.2,48.9-9.4,72.4-17.6
		c13-4.6,25.6-3.5,38.2,1.7c4.7,2,9.6,3.8,14.4,5.6c20.2,7.5,40.9,12.8,62.3,14.8c10.9,1,22,0.5,33,0.1c5.7-0.2,6.2-1.2,4.1-6.3
		c-4.9-12.2-13-22.4-21.8-31.9c-9.4-10.2-20.9-17.9-31.8-26.4c-11.4-8.9-21-19.2-28.1-32c-13.3-24.1-17.1-50.3-17.9-77.3
		c-0.2-8.8,1.1-17.6,1.1-26.4c0-3.7,0.8-7.5,0.8-12.2c2.2,2.6,1.8,4.6,1.9,6.6c0.3,6.8,0.4,13.6,1.1,20.4c1.8,16.1,4,32.2,7.8,48
		c6.5,27.6,19.1,51.4,42.7,68.1c14.3,10.1,27.3,21.6,38.4,35.2c1.1,1.3,1.9,2.5,3.9,2.6c10.7,0.3,21.3-0.1,31.8-1.6
		c9.6-1.4,19.1-1.8,28.6,0.1c21.6,4.2,43.4,6.5,65.3,5.3c6.4-0.3,12.9-0.8,19.2-2.5c3-0.8,3.7-1.5,1.8-4.2c-3-4.3-6.7-7.8-10.7-11.1
		c-12.9-10.5-28.1-17.1-42.4-25.2c-12-6.8-22.6-15.4-30.4-26.8c-6.9-10-12.4-20.8-17.2-32c-11.3-25.7-17.7-52.8-22.9-80.3
		c-3.8-20-7-40.1-9.7-60.3c-2.2-16.6-4.4-33.1-6.2-49.8c-1.4-13.2-1.9-26.5-3.2-39.6c-2.3-23.3-3.3-46.7-3.8-70.1
		c-0.2-7.3,0.2-14.6,0.8-21.9c1.5-16.3,2.4-32.5,9-48c6.7-15.7,15.5-29.9,27.5-41.8c14.1-14,30.8-24.7,48.2-34.2
		c32.5-17.7,67.7-28.2,103.1-38.2c16.1-4.5,31.3-11.1,44.5-21.6c13.8-11,24.6-24.4,33.4-39.6c4.6-8,9.6-15.9,14.4-23.9
		c2.8,2,3.2,5.1,3.9,8.1c-3.6,7-8.8,13.1-11,20.9C1107.9,606.2,1107.4,609,1106.9,611.8z"/>
	<path fill="#285A0B" d="M274,639.8c3.1,0.7,4.4,3.3,5.9,5.6c-15.9,12.7-39.4,13.1-55.7,0.7c-2.5-1.9-3.9-1.7-6.2,0
		c-31.7,23.3-75.8,24.7-105.7,2.8C90.5,633,80,611.1,84.4,584.1c4.2-26.4,19.4-45.1,45-53.7c6.4-2.2,8.8-4.2,9.1-11.3
		c0.6-12.6,8-22.3,17.5-30.3c13.5-11.4,29.2-17,46.7-17.7c2-0.1,3.7,0.1,5.3-1.8c9.6-12,22.9-16.5,37.5-18.4
		c1.1-0.1,2.2-0.2,3.7-0.3c-0.8-2.2-1.9-4-2-5.9c-0.3-4-2.2-3.6-5.2-2.7c-16.8,4.6-33.3,4-49.3-3.4c-20.2-9.3-30.1-26.1-32.6-47.5
		c-2.6-21.7,4-41.4,15.9-59.1c20.9-31.3,50-49.6,88.1-52.5c8.2-0.6,16.2,0.8,24.8,1.8c-2.8-12-3.7-23.6-1.3-35.3
		c5.5-26.2,20.5-46.3,42.6-60.5c39.6-25.3,82.4-31.8,127.9-19.2c6.6,1.8,12.8,4.8,18.7,8.2c1.6,0.9,2.9,1.8,3.3-1.2
		c3.3-25.4,16.7-45.4,36-60.8c43.7-35.1,93.4-46.7,148.2-33.5c9.9,2.4,18.8,7.1,27.3,12.6c2.3,1.5,3.7,1.7,6.1,0.2
		c25.9-15.4,54-20.3,83.6-16.4c25.5,3.3,48.4,13.1,68.2,29.6c17.8,14.8,28.6,33.5,31.1,56.7c0.1,0.9,0.2,1.9,0.4,3.6
		c8.2-6.6,16.5-12.1,25.5-16.4c36.6-17.8,73.9-20.6,111.5-3.6c20.3,9.2,36.3,23.5,44.4,45.1c2.7,7.3,4,14.8,3.8,22.5
		c-0.1,2.9,0.7,3.2,3.4,2.7c50.2-9.7,97.5,22.4,107,72.4c2.6,13.9,1.5,25.8-4.9,47.7c2.2,0,4.2,0,6.3,0
		c27.3,0.1,51.7,19.2,57.7,45.2c6.6,28.7-13.9,56.2-43.3,58.1c-0.5,0-1,0.1-1.5,0.1c-9.4-1.6-16.9-0.2-17.9,11.6
		c8.3-0.3,17.1,0.2,25.7,3.1c14.5,4.9,26.6,13,35.2,25.8c5.1,7.5,8.2,15.6,7.9,24.8c0,1.5-0.8,3.2,2,3.7
		c26.6,5.2,41.1,22.9,48.5,47.6c8.6,28.7-0.3,60.3-22.4,77.4c-22.1,17-46.4,18.5-71.5,7.2c-2.5-1.1-3.9-1-6.1,0.5
		c-18.1,12.3-43.6,12.5-61.4,0.7c-9.1-6.1-15-14.1-14.8-25.6c0-2-0.4-2.7-2.4-2.7c-2.3,0-4.7,0-6.8-1.4c0.5-2.8,1-5.6,4-7
		c3.8,0,7.4,1.5,11.3,0.4c2.5-0.7,4,0.7,3,3.8c-1.7,5.3-0.7,10.5,1.9,15.3c6.5,11.7,17.7,15.4,30,16.7c12.8,1.3,24.2-2.9,34.7-10.1
		c1.7-1.2,3.3-2.3,5.8-0.8c14.1,8.4,29.4,9.7,45.1,6c15.8-3.7,28-12.8,35.7-27.3c4.4-8.4,8-17.2,7.3-27c1.6-11-0.7-21.6-4.8-31.7
		c-8-19.4-22.3-31.6-43.2-35c-4-0.6-4.9-1.7-4.6-5.5c0.9-10.4-1.7-19.9-8.6-27.8c-15.4-17.8-35-25.1-58.3-22
		c-2.6,0.3-4.9,0.2-6.3-2.6c-5.6-10.9-14.9-17.5-25.8-22.3c6-6.9,7.3-7.1,14.3-2.3c3.8,2.6,7.6,5.4,10.7,8.9
		c1.6,1.8,2.6,5.4,5.1,4.8c2.9-0.6,3.3-4.2,4.1-6.9c0.4-1.4,0.8-2.9,0.7-4.4c-0.3-4.3,1.6-5.8,5.6-5.2c7.8,1.2,15.4,1,23.1-1
		c21.2-5.6,31-21.6,29.9-39.4c-1-16.9-10.1-30-25.1-38.3c-14.4-8-29.7-8.3-45.5-5.3c0.2-0.6,0.3-1.3,0.6-1.9
		c8.6-15.3,12.9-31.7,10.4-49.3c-4.6-32.8-22.9-54.9-53.4-67c-17.1-6.8-34.8-6.2-52.5-2.1c-3,0.7-5.1,2.2-4.6-3.5
		c1.6-17-2.7-32.7-13.8-46c-17-20.4-39.8-29.8-65.4-32.1c-34.6-3.1-65.3,7.5-92.7,28.4c-4.4,3.3-8.7,6.7-13.8,10.7
		c0-8.6,1-16.1-0.2-23.2c-3.6-21.2-14.4-38.4-31.9-51.2c-29.4-21.6-62.5-28.7-98.2-23.6c-15.9,2.3-30.9,7.8-44.3,16.9
		c-2.6,1.7-4.4,0.3-6.3-1c-18.2-13-39-17-60.7-17.8c-11.8-1-23.6,0-35.1,2.3c-27,5.3-51.8,15.6-73,33.5c-10.4,8.9-19.7,18.8-25,31.8
		c-6,10.6-9.2,22-10,34.1c-0.2,3.8-0.6,4.9-4.4,2.5c-19.7-12.4-41.3-18-64.5-17.3c-6.8-0.1-13.6-0.2-20.4,0.7
		c-24.3,3.1-47,10.4-66.8,25.2c-28.7,21.5-43.6,54.4-31.8,91.7c1.1,3.5,0.7,4.6-3.2,3.6c-13.2-3.3-26.8-3.8-40.1-1.9
		c-23.4,3.4-43.4,14.4-59.5,31.8C177.4,341.5,166,364.5,170,393c2.2,15.7,9.7,28.4,24,35.9c18,9.3,36.8,8.6,55.6,2.4
		c1.5-0.5,3.2-2,4.7-0.7c1.4,1.2,0.5,3,0.1,4.7c-1,4.1,2.7,13.6,5.8,15.7c3,2,13.2,1.7,16.5-0.4c1.5-1,3.1-1.9,4.7-2.8
		c5-3,5-3,1.2-7.6c-3.6-4.4-6.8-9-6.6-15.1l0,0c0.5,0.4,1.2,0.7,1.6,1.2c8,9,17.6,15.6,29,19.8c2,0.7,4.7,1,5.3,3.9
		c-9.7-0.2-19.2,0.9-28,5.7c-3.2,1.7-5.1,3.2-1,6.1c1.4,1,3,2.2,3.1,4.3l-0.1,0.1c-3.5-0.2-6.7-1.9-10-3
		c-15.5-5.1-30.9-5.3-46.1,0.8c-10,4-17.7,10.4-20.9,21.1c-0.8,2.6-1.7,5.1-2.9,8.8c-0.9-2.4-1.4-3.4-1.7-4.5c-0.9-3,0.5-7.4-2.1-9
		c-2.8-1.7-6.7,0.5-10.2,0.8c-14.9,3.3-28.1,9.6-37.5,21.9c-6,7.9-11.4,16.6-7,27.5c1.1,2.7,0.1,4-3.1,4.5
		c-16.5,2.9-30.4,10.4-40.4,24.2c-13.8,19-15.4,39.6-5,60.2c12.1,23.9,33.8,33.9,59.6,35.3c19.6,1,37.7-4.7,54.2-15.4
		c6.2-4.1,10.7-3.7,16.9,0.8c1.7,1.2,3.8,2,5.8,2.8C249,648.1,261.7,646.6,274,639.8z"/>
	<path fill="#AD4E27" d="M1118,575.9c-4.8,8-9.7,15.8-14.4,23.9c-8.8,15.2-19.6,28.6-33.4,39.6c-13.2,10.5-28.5,17.1-44.5,21.6
		c-35.4,10-70.5,20.5-103.1,38.2c-17.5,9.5-34.1,20.2-48.2,34.2c-12,11.9-20.8,26-27.5,41.8c-6.6,15.5-7.5,31.7-9,48
		c-0.7,7.3-1,14.6-0.8,21.9c0.5,23.4,1.6,46.8,3.8,70.1c1.3,13.2,1.8,26.5,3.2,39.6c1.8,16.6,4,33.2,6.2,49.8
		c2.7,20.2,5.9,40.3,9.7,60.3c5.2,27.4,11.6,54.5,22.9,80.3c4.9,11.2,10.4,22,17.2,32c7.9,11.4,18.4,19.9,30.4,26.8
		c14.3,8.1,29.5,14.7,42.4,25.2c4,3.3,7.8,6.7,10.7,11.1c1.8,2.7,1.2,3.4-1.8,4.2c-6.3,1.7-12.8,2.2-19.2,2.5
		c-22,1.2-43.8-1-65.3-5.3c-9.6-1.9-19-1.6-28.6-0.1c-10.5,1.6-21.2,2-31.8,1.6c-2-0.1-2.9-1.3-3.9-2.6
		c-11.1-13.6-24.1-25.1-38.4-35.2c-23.6-16.7-36.2-40.5-42.7-68.1c-3.8-15.8-5.9-31.9-7.8-48c-0.8-6.7-0.8-13.6-1.1-20.4
		c-0.1-1.9,0.3-4-1.9-6.6c0,4.7-0.8,8.5-0.8,12.2c0,8.8-1.4,17.6-1.1,26.4c0.7,26.9,4.6,53.2,17.9,77.3c7.1,12.8,16.7,23.1,28.1,32
		c10.9,8.5,22.4,16.2,31.8,26.4c8.8,9.5,16.9,19.7,21.8,31.9c2.1,5.2,1.6,6.1-4.1,6.3c-11,0.4-22.1,0.9-33-0.1
		c-21.4-1.9-42.1-7.3-62.3-14.8c-4.8-1.8-9.7-3.6-14.4-5.6c-12.5-5.3-25.1-6.3-38.2-1.7c-23.5,8.3-47.8,13.5-72.4,17.6
		c-13.1,2.2-26.2,3.5-39.4,4.9c-11.1,1.2-22.2,1.1-33.3-0.1c-4.8-0.5-5.8-2.1-3.4-6.4c9.3-17.1,23-29.9,39.5-40
		c11.7-7.1,23.7-13.4,36.6-18c0.9-0.3,1.8-0.7,2.4-2.7c-3.5,0-6.5,0-9.6,0c-2.7,0-3.9-0.7-2.2-3.5c9.9-16.5,14.7-34.8,17.7-53.6
		c2.1-12.8,1.3-25.8,1-38.8c-2.4,15.1-5.3,30.1-9.6,44.8c-4.8,16.1-10.8,31.7-19.7,46.1c-4.3,6.9-10.8,11.1-17.6,15
		c-11,6.3-21.5,13.5-30,22.9c-5.1,5.6-11.1,4.5-16.6,3.7c-9.2-1.5-17.9-0.1-26.6,1.7c-17.2,3.3-34.5,5.7-51.9,4.4
		c-6.6-0.5-13.3,0.2-19.8-1.7c-1.3-0.4-3.2,0.5-3.7-1.6c-0.4-1.7,0.9-2.7,1.8-3.9c7-9,16.5-14.8,26.1-20.5
		c14.4-8.5,29.5-16,41.2-28.6c10.4-11.2,17.1-24.5,22.6-38.5c8.9-22.3,13.3-45.8,17.2-69.4c3.8-23.1,5.9-46.3,8.1-69.5
		c1.6-17.3,2.6-34.7,4-52c2.8-34.4,3.6-68.8,2.6-103.2c-0.6-21.5-0.6-43.1-6.4-64.2c-5.3-19.4-14.9-36.4-27.8-51.8
		c-14.5-17.2-32-30.4-52.1-40.1c-20.5-9.9-42.1-15.9-64.7-18.9c-20.7-2.7-41.5-4.7-61.4-11.6c-23.8-8.3-42.8-23-58.8-42.1
		c-3.6-4.3-8.4-7.6-10.5-13.1c7.1-0.4,13.3-4,19.8-6.1c3.3,5.8,8.5,9.6,13.4,13.8c11.5,9.9,24.6,16.7,39.1,21.2
		c16.4,5,33.3,5.5,50.2,4.9c6.8-0.2,13.2,0.5,19,4.3c1,0.7,2.2,2,4.1,0.9c-7-7.6-13.8-14.9-19.2-23.5c-7.8-12.7-15.7-25.4-25.6-36.6
		c-4.7-5.3-9.3-10.6-14-15.9c9.2-1.1,16.6-6,23.8-11.3c0.8,0.7,1.7,1.2,2.2,2c12.6,17,27.2,32.3,42.2,47
		c16.6,16.3,36.7,26.7,58.5,33.8c14.8,4.8,30,8.3,44.7,13.6c23.1,8.4,44.1,20.1,61.3,38c3.9,4,7.5,8.2,11.3,12.5
		c1-1.6-0.1-2.5-0.5-3.4c-3.4-7.4-7.5-14.5-12.7-20.8c-1.8-2.2-2.2-4.4-1.8-6.9c1.9-11.3,3-22.5,2.2-34.1
		c-1-14.1-4.6-27.2-10.5-39.7c-15.4-32.8-41.2-56.1-71-75.5c-14.9-9.7-29.7-19.5-42.3-32.2c-6.9-7-13.2-14.5-18.8-22.5
		c-5.3-7.6-11.5-14.7-14.6-23.6c7.6-0.3,14.7-2.3,21.8-4.9c2.1,5.2,5.6,9.4,9.2,13.6c9.2,10.8,19.1,20.5,31.3,28.1
		c12.3,7.6,26.9,11.5,36.7,23.1c0,0.1,0.1,0.2,0.2,0.3c0,0.1,0.2,0.1,0.2,0.1c-0.1-0.1-0.3-0.3-0.4-0.4c-0.2-1.1-0.2-2.4-0.8-3.3
		c-5.6-8.4-8.2-17.8-10.2-27.6c-4.5-21.9-7.3-43.9-9-66.2c6.7-1,13.3-2,20-3c0.3,2,0.7,3.9,1,5.9c2.2,13.5,3,27.3,6.1,40.7
		c7.4,31.5,23.5,57.1,49.9,76.1c11,7.9,22.2,15.7,32.9,23.9c12.1,9.2,23.7,19,34.6,30.7c-0.4-4.1-1.2-7.3-2.7-10.2
		c-0.8-1.6-0.8-3-0.2-4.7c5.2-14.2,9.2-28.8,10.7-43.8c1.1-11.3,1.7-22.7,0.1-34.2c-2.8-20.1-14.1-35.5-26.4-50.4
		c-14.9-18-25.2-38.2-30.4-60.9c6.6,1.4,13.3,1.2,20,1.3c3.1,13.9,10.1,25.7,19.3,36.5c11.8,13.9,30.7,20.3,39.7,37.3
		c-1.1-6-1.8-12.1-0.6-17.9c4.6-23.5,4.8-47.4,5.6-71.2c0.2-7.2-0.6-14.4-0.9-21.6c0-1.7,1.2-2.1,2.5-2.5c4.5-1.5,8.2-4.2,11.7-7.4
		c3.6-3.3,4.7-3,6.8,1.9c0.1,5.3-1.3,10.7-0.7,15.8c1.1,10,0.2,19.9,0.7,29.9c0.1,2.4-0.6,5.1,3.4,5.3c2.1,0.1,1.6,2.2,1.6,3.6
		c-0.3,16.1-0.6,32.2-1,48.3c0,1-0.4,1.9-0.6,2.9c-1.5,5.2-2.9,10.4-3.3,15.8c-0.8,12.7,3.9,24.7,5.6,37.2c1.4-4.2,2.5-8.5,3.3-12.9
		c0.3-1.5,0.3-3,1.5-4.1c4.4-4,8.2-8.7,13-12.4c10.7-8.1,21.5-16.2,30.6-26.2c10.6-11.7,17.8-25.1,21.1-40.6c3.5-16.5,4.6-33.1,4-50
		c5.9-7.6,13.2-14.3,14.9-25.6c2.1,5,3.7,8.8,5.3,12.6c-1.2,0.8-1.1,1.9-1.1,3.1c0.1,16.3-0.5,32.5-1.9,48.8
		c-1,12.3-2.8,24.4-6.6,36c-5.8,17.7-16.2,32.5-28.8,46.1c-10.2,11.1-19,23.2-22.9,38.3c-4.6,17.4-4.6,34.7-1.4,52.2
		c0.7,3.5,0.5,6.3-1.5,9.4c-3.4,5.2-6.7,10.5-8.6,16.7c0.8,0,1.2,0.1,1.4,0c0.5-0.4,0.9-0.9,1.4-1.4c12.2-13.9,26-25.9,41.3-36.4
		c15.9-10.9,33.4-19.2,48.9-30.8c17.4-13,29.1-29.9,34.9-50.8c6.7-24.6,13.5-49,26.5-71.3c0.8-1.4,1.6-2.9,1.6-4.7
		c3-0.9,5.5-4.3,9-2.3c3.5,2,6.7,4.7,10,7.1c-14.8,23.6-21.9,49.6-23.9,77.1c-0.3,4.7-2.2,7.7-5.3,10.6c-2.1,1.9-4.1,4-4.7,8.1
		c8.9-7.1,18.2-11.5,27-16.6c16.4-9.5,31.8-20.4,45.9-33c6.2-5.6,13-10.9,16.8-18.8c7.6,1.1,15.1,2.5,22.8,1c-1.2,3.8-4.2,6.4-6.8,9
		c-18.8,19.3-37.5,38.6-58.9,55.2c-25.1,19.5-51.1,38.1-75.2,59c-17.4,15.1-32.1,31.9-41.9,53.1c-11.7,25.4-14.4,51.5-8.8,78.6
		c0.9,4.3,0.1,7.3-2.4,10.5c-5.9,7.7-9.5,16.5-13.1,25.7c0.9-0.1,1.3,0,1.5-0.2c0.7-0.9,1.4-1.8,2.1-2.8c7.9-11,16.9-21,27.5-29.4
		c24.2-19.1,51.8-31.7,81.3-39.9c24-6.7,45.6-17.3,62.9-35.7c17.2-18.2,32.3-38.2,47-58.4c2,0.8,3.9,1.6,5.9,2.4
		c5.5,3.3,11.6,4.4,17.9,4.5c-6.9,8.4-13.5,17.2-19.9,26c-7.5,10.4-12.2,22.5-19,33.3c-1.6,2.6-3.3,4.9-6,6.4
		c-4,2.2-7.7,4.8-11.6,7.3c0.2,0.5,0.3,0.9,0.5,1.4c14.7-6.4,30.8-5,46-8.6c11.3-2.7,22.7-5,32.9-10.7c22.8-12.6,37.7-32,47.2-55.8
		c3.3-0.1,6.6,0.1,9.8-0.4C1118.1,566.3,1118.1,566.2,1118,575.9z M842,719c0.1,0,0.2-0.1,0.3-0.2c0.1,0,0.1-0.2,0.1-0.3
		C842.3,718.7,842.1,718.9,842,719c-0.3,0.3-0.7,0.7-1,1c-0.8,0.4-1,1.1-1,2c-2.2,0-3.2,1.7-4.4,3c-14.4,15.2-23,33.5-27.5,53.8
		c-2.2,10.2-3.1,20.6-3.1,31.1c0,3.2,0,6.3,0,9.5c0.5,0,0.9,0,1.4,0c0.5-3.5,0.9-7,1.5-10.4c3.7-22.1,9.2-43.7,19-64.1
		c3.8-7.9,9.1-15,13.1-22.8c0.8-0.4,1-1.2,1-2C841.3,719.7,841.7,719.3,842,719z M897,1201c0.1,0.1,0.3,0.2,0.4,0.2
		C897.3,1201.2,897.1,1201.1,897,1201c-0.5-0.8-1.2-1-2-1c0.1-1.7-1.2-2.7-2.3-3.7c-12.7-12.1-22.2-26.4-30.2-41.9
		c-2.9-5.6-5.2-11.6-8.9-17.9c1.7,13.5,9.9,33,17.8,43.2c6.5,8.3,14.1,15.4,23.6,20.1C895.4,1200.8,896.2,1201,897,1201z
		 M816.1,1050.6c0,3.2-0.3,6.4,0.1,9.5c0.4,3.4,1.1,6.9,2.2,10.2c1.7,5.5,3.8,10.8,7.7,15.5c4.7,5.6,12,3.5,14.3-3.2
		c2.5-7.1,1.8-14.2,1.5-21.2c-0.5-10-4-19.2-9.9-27.3c-4.2-5.8-10-5.2-13.5,1C815.7,1040,815.9,1045.3,816.1,1050.6z M801.1,970.1
		c-1,11-2.4,21.9-3,32.9c-1.1,21.3,1.1,42.4,5,63.3c1.1,5.7,2.7,11.3,4.1,16.9c0.6,2.3,2.4,3.4,4.4,3.4c2,0,1.4-2,1.2-3.1
		c-2.6-14.3-4.6-28.7-6.2-43.2c-1.8-16.1-3.1-32.3-3.7-48.5C802.7,984.5,801.6,977.4,801.1,970.1z M594.1,901.5
		c8.8-18,0.6-90-11.7-103.9C589.9,831.8,591.7,866.4,594.1,901.5z M668.2,1224.3c-19.8,19.9-45.3,27.9-72.8,35
		C623.9,1263.5,656.7,1247.5,668.2,1224.3z M575,851.7c0,28.7,0,57.5,0,86.2C581.9,909.1,582.8,880.3,575,851.7z M780.4,876.2
		c2.4-9.1,0.8-18,1.9-26.7c1.2-8.8,0.4-17.6,0.6-26.4c0.2-8.6,0-17.3,0-27.3C777.4,808.3,776.5,844.3,780.4,876.2z"/>
	<path fill="#509717" d="M274,639.8c-12.3,6.8-25,8.3-38.3,3.2c-2-0.8-4.1-1.6-5.8-2.8c-6.2-4.4-10.7-4.8-16.9-0.8
		c-16.5,10.7-34.6,16.4-54.2,15.4c-25.8-1.3-47.5-11.3-59.6-35.3c-10.4-20.5-8.7-41.1,5-60.2c10-13.8,23.9-21.3,40.4-24.2
		c3.2-0.6,4.2-1.8,3.1-4.5c-4.4-10.9,1-19.6,7-27.5c9.3-12.3,22.6-18.7,37.5-21.9c-0.9,2.7-2.6,5-4.7,6.9c-6,5.5-9.3,12.4-11,20.3
		c-1.5,6.9,2.2,15.7,8.1,19.6c1.7,1.1,2.3,0.4,3-0.9c3.7-6.6,10.1-9.9,16.9-11.5c9.5-2.2,18.5-0.1,26.9,7.5c-3-0.2-4.8,0-6.6-0.4
		c-15.5-3.4-28.2,4.2-33.9,18.4c-1.4,3.5-2.5,3.5-5.5,2.6c-10.4-3.1-22.1,1.3-28.6,10.4c-5.8,8.1-5.9,20.6-0.7,29.3
		c10.3,17.2,36.4,17.2,47.7,2.3c1.3-1.8,2.1-3.4,4.5-1.2c6.3,6,19.3,5.5,26.7,1.4c9.9-5.5,14.1-14.3,15.6-25.6
		c6.9,9.2,15.5,12.7,26.4,10.7c11.6-2.1,16.4-10.6,19-21.2c10.9,7.8,22,9.3,33.8,3.9c12.5-5.7,16.2-16.5,16.8-29.5
		c2.6,1.2,4.6,2.2,6.7,3.3c12.5,6.2,24.8,6.4,37-1c9.2-5.6,16.6-18.3,11-29.9c-1.7-3.6-3.3-7.2-4.9-10.8
		c13.9,3.6,23.2,12.3,28.6,25.5c4.5,10.8,1.9,23.2-7.1,30.3c-8.7,7-18.8,10.2-30.2,8.5c-4.5-0.7-9-2.1-14-0.8
		c0.5,0.8,0.8,1.3,1.3,1.8c5.3,5.1,5.3,5.3,1,11.8c-1.2,1.8-2.7,3.3-4.5,4.6c-9,6.3-18.9,8.6-29.7,6.7c-2.3-0.4-5.4,0.1-6.6-1.6
		c-1.8-2.6,2.4-3.3,2.9-5.4c0.3-1.2,1.8-2.4,0.4-3.6c-1.4-1.1-2.5,0.1-3.4,1.1c-4.6,5.1-10.5,8.3-16,12.2c-2.7,1.9-5.8,3-8.8,3.1
		c-6.5,0.1-12.6,2.3-19.7,2.3c2.6,2.3,5.5,2.8,8,3.9c2.1,1,2.7,2,1.5,4.2c-4.4,7.7-10.1,14.1-18.4,17.6c-13.5,5.8-26.8,4.9-39.9-1.6
		c-2-1-3.7-1.9-6-0.5c-8.1,5.1-16.9,8.5-26.9,8.6c0.3,0.5,0.7,0.8,1.2,0.9c8,2,16,2.8,24-0.4c2.1-0.8,4.1-1.7,6.2-0.4
		c6.4,3.8,13.7,5.1,20.8,6.6c3.1,5.7,7.8,10.3,11.6,15.5C273.1,637.7,274,638.5,274,639.8z"/>
	<path fill="#509717" d="M1028.9,568.9c-6.3-0.1-12.4-1.3-17.9-4.5c1.4-3.4-3.2-4.2-2.9-7.4c0.6-5.3-2.2-7.4-7.1-5.9
		c-10.8,3.4-21.2,2.8-31.2-2.7c-7.5-4.1-12.3-15.2-10.3-23.5c3.1-13.2,11.7-20.7,24.5-23.9c1.3,5.2,5.2,5.1,9.7,4.4
		c-0.5,2.5-1,4.8-1.4,7c-0.9,5.6,1.3,10.2,5.4,13.7c3.8,3.2,8.6,4.5,13,1.9c5.1-3,8.9-3.1,13.8,0.8c4.9,3.9,10.1,1.3,10.4-4.4
		c13.6,8.5,22.6,0.5,31.4-9.2c2.3,4.9,5.2,9,9.4,11.7c11.7,7.7,30.4,9.5,42-3.2c0.9-1,2.4-4.4,4.1-0.3c3,7.2,8.7,11.1,16.1,12.8
		c7.7,1.7,15.4,0.9,23.4,0.1c-0.6,1.2-1.1,2.2-1.7,3.2c-10.1,16.6,1,33.2,17.4,37.2c13.4,3.3,26.1,1.4,36.8-8.2
		c1.7-1.6,2.6-1.7,3.1,1.1c0.8,5.3,2.5,10.2,5.5,14.8c13.6,20.6,45.3,21,59.4,0.6c1-1.4,1.9-2.7,3.7-3.1c0.7,9.8-2.9,18.6-7.3,27
		c-7.6,14.5-19.8,23.5-35.7,27.3c-15.7,3.7-31,2.3-45.1-6c-2.5-1.5-4.1-0.4-5.8,0.8c-10.5,7.2-21.8,11.3-34.7,10.1
		c-12.3-1.2-23.5-5-30-16.7c-2.7-4.8-3.6-10-1.9-15.3c1-3.1-0.5-4.5-3-3.8c-3.9,1.1-7.5-0.3-11.3-0.4c2.2-7.7,7.3-13.9,11-20.9
		c1,0.9,2.1,1.6,3,2.6c7.4,7.9,16.7,9.9,27.1,9c-5.4-3.1-11.1-5.6-16.1-9.4c-10.8-8.4-11.9-19.3-2.5-29c1.1-1.1,3.2-2.1,2.3-4
		c-1-2-3.3-1.1-5-1c-1.1,0.1-2.2,0.7-3.2,1.2c-15.9,7.4-31.9,8-48,0.5c-3.2-1.5-4.3-2.4-0.5-4.4c1.1-0.6,2.3-1.6,1.8-3.2
		c-0.4-1.2-1.5-1.2-2.5-1.1c-10.1,0.7-19.6-2.3-29.2-5c-0.3-0.3-0.5-1.2-1.2-0.3c0.4,0.1,0.8,0.2,1.2,0.3c0,1.7,1.6,2.3,2.5,3.3
		c3.6,4.4,9.8,5.9,12.6,11.3c-0.8,1.7-2.5,2.6-3.9,3.7c-5.9,4.9-13,7.1-20,9.6C1036.4,567.8,1032.6,567.5,1028.9,568.9z"/>
	<path fill="#285A0B" d="M260.8,621.3c-7.1-1.6-14.4-2.8-20.8-6.6c-2.1-1.2-4.1-0.4-6.2,0.4c-7.9,3.2-15.9,2.4-24,0.4
		c-0.5-0.1-0.9-0.4-1.2-0.9c10-0.2,18.8-3.5,26.9-8.6c2.3-1.5,4.1-0.5,6,0.5c13,6.5,26.3,7.4,39.9,1.6c8.3-3.6,14-9.9,18.4-17.6
		c1.2-2.2,0.6-3.2-1.5-4.2c-2.5-1.2-5.3-1.6-8-3.9c7.1,0,13.2-2.2,19.7-2.3c3,0,6.1-1.1,8.8-3.1c5.5-3.9,11.4-7.1,16-12.2
		c0.9-1,2-2.3,3.4-1.1c1.4,1.2-0.1,2.4-0.4,3.6c-0.5,2.1-4.7,2.8-2.9,5.4c1.2,1.7,4.3,1.2,6.6,1.6c10.9,1.9,20.7-0.3,29.7-6.7
		c1.8-1.3,3.3-2.8,4.5-4.6c4.3-6.4,4.3-6.7-1-11.8c-0.4-0.4-0.7-1-1.3-1.8c5-1.3,9.5,0.1,14,0.8c11.4,1.7,21.5-1.6,30.2-8.5
		c8.9-7.1,11.5-19.5,7.1-30.3c-5.4-13.1-14.7-21.9-28.6-25.5c-1.6-0.8-3.2-1.6-4.8-2.3c-6.1-2.7-12.7-1.2-19-1.8
		c-0.8-1.6-1.5-3.2-2.3-4.8c-2.7-4.7-5.9-8.9-10.6-12.1c-7.6-5.2-16-8.7-24.5-11.9c3.3-3.1,7.5-4.3,11.6-4.9
		c12-1.7,21.9-7.3,30.9-15.1c1.8-1.5,2.4-3.1,1.8-5.6c-0.7-2.9-0.7-6.1,0.3-9.3c2.6,0.8,3.2,2.9,4.2,4.5c3.7,5.8,8.1,10.9,13.1,15.7
		c13.2,12.5,38.6,16.3,54.3,7.1c11.5-6.7,16.5-16.9,13.8-29.7c-1-4.9-4.2-8.8-6.8-13.2c2.4-0.4,3.9,1,5.4,1.7
		c12.8,6.2,26.4,9.2,40.4,9.4c11.6,0.1,23.1-2.3,33.8-7.3c16.4-7.6,28.4-19.3,34.5-36.7c2.6-7.3,4.3-14.6,3.8-22.4
		c-0.1-1.1-0.6-4,2-2.3c2.7,1.8,5.5,3.4,6.1,7.8c1.7,12,6.6,22.4,18,28.9c12,6.9,27.3,5.3,36.1-4.3c2.5-2.8,3.3-4.9,0-7.9
		c-2.4-2.1-5.5-3.9-6.3-7.5l0,0c16.1,6.3,32.4,11.6,50,10.2c0,2.8,0,5.6,0,8.4c-10.2,1.4-20.2-0.3-29.9-3.2
		c-2.1-0.6-3.4-0.8-4.8,1.6c-3.3,6.2-8.6,10.5-15.1,13.1c-1.9,1.2-4.6,0.1-6.3,2c-6.7-0.1-13.4,0-20-1.3c-2.5-2-5.6-2.4-8.6-3
		c-5.9-5.2-12.3-9.9-16-18.5c-4.6,13.9-12,24.3-22.2,32.7c-6.3,5.2-13.6,8.8-20.6,12.8c-3,0.5-5.9,1.4-8.5,2.9c-6.7,1-13.3,2-20,3
		c-2.7,0-5.3,0.1-8,0.1c-9.4-0.5-18.6-2.1-27.7-5c1.3,13.3-3,23.6-13.1,31.5c-0.8,0.6-1.7,1.1-1.6,2.3c-2.6,0.3-4.9,1.4-6.7,3.3
		c-7.1,2.6-14.2,4.5-21.8,4.9c-3.4-0.1-6.8,0.1-10.2-0.9c-13.4-2.2-24.8-8.3-34.2-18.1c-1-1-1.7-3.3-3.8-1.1
		c-6.6,6.8-14.7,11.2-24,14.3c6.7,4.5,12.8,9,16.7,15.5c1.6,2.6,3.4,3.4,6.3,3.6c18.6,1.1,34,8.7,45.3,23.7
		c6.9,9.1,10.1,19.5,7.9,31c-3.5,18.9-20.9,31.5-42,30.9c-6-0.2-6.6,0.3-7.1,6.9c-3.3,0.7-4.1,3.5-5.3,6
		c-7.2,5.2-14.6,10.2-23.8,11.3c-3.5,0.3-7,0.6-10.4,1c-5.7-1.2-11.6-1.1-17-3.6c-1.1-0.5-1.9-0.1-2.7,0.6
		c-4.5,4.1-10.1,5.7-15.8,6.8c-1.3,0.3-2.7,0.4-3,2.1c-1.3,8.4-7.2,14-12.3,20.1c-2.5,0.6-4.6,1.8-5.9,4.1
		c-6.6,2.2-12.7,5.7-19.8,6.1C266.9,620.2,263.7,619.3,260.8,621.3z"/>
	<path fill="#285A0B" d="M1064.1,554.6c-2.8-5.3-9-6.9-12.6-11.3c-0.9-1.1-2.5-1.6-2.5-3.3l0,0c9.6,2.7,19.1,5.7,29.2,5
		c1-0.1,2.2-0.1,2.5,1.1c0.5,1.6-0.7,2.6-1.8,3.2c-3.8,2-2.7,2.9,0.5,4.4c16.1,7.5,32.1,6.9,48-0.5c1-0.5,2.1-1.2,3.2-1.2
		c1.7-0.1,4-1,5,1c0.9,1.9-1.2,2.9-2.3,4c-9.4,9.7-8.3,20.5,2.5,29c5,3.9,10.7,6.3,16.1,9.4c-10.4,0.9-19.7-1.1-27.1-9
		c-0.9-1-2-1.7-3-2.6c-0.8-3-1.1-6.1-3.9-8.1c0.1-9.7,0.2-9.6-9-8.1c-3.2,0.5-6.5,0.3-9.8,0.4c-2.3-0.7-4.7-1.4-7.2-1
		c-8.7-1.8-16.6-5.1-23.6-10.7C1067.2,555.6,1066.2,553.7,1064.1,554.6z"/>
	<path fill="#73AB1B" d="M418.1,170.1c23.2-0.7,44.8,4.9,64.5,17.3c3.8,2.4,4.2,1.3,4.4-2.5c0.7-12.1,3.9-23.5,10-34.1
		c3,3,7,4.1,10.8,5.1c6.2,1.6,12,4,17.7,7c4.8,2.5,9.7,5.3,14.8,6.8c3.9,1.2,6.3,3.1,7.9,6.7c1.4,3.1,3.8,5,6.8,6.9
		c3.6,2.4,9,2.7,10.9,6.5c2,3.9,5,5,8.4,6.2c3.6,1.4,5.5-0.3,4.9-4.2c-1.1-6.7,0-13.1,3-19.2c3.1-6.4,7.8-11.6,14.2-16.8
		c-12.2,1.4-22.2,4.9-31.3,10.9c-2.3,1.5-3.3,1.2-4.8-0.9c-3-4.4-4.5-9.3-4.1-14.6c1.2-16.6,9.1-30.2,20.8-41.3
		c14.3-13.6,31.6-21.7,51.1-25c1.1-0.2,1.9-0.6,2.2-1.7c21.7,0.8,42.5,4.8,60.7,17.8c1.9,1.3,3.7,2.7,6.3,1
		c13.5-9.1,28.4-14.6,44.3-16.9c35.8-5.1,68.8,2,98.2,23.6c17.4,12.8,28.2,30,31.9,51.2c1.2,7.1,0.2,14.6,0.2,23.2
		c5.1-4,9.5-7.3,13.8-10.7c27.4-20.9,58.2-31.5,92.7-28.4c25.6,2.3,48.4,11.7,65.4,32.1c11.1,13.3,15.5,29,13.8,46
		c-0.5,5.7,1.6,4.2,4.6,3.5c17.7-4.2,35.3-4.8,52.5,2.1c30.5,12.1,48.8,34.3,53.4,67c2.5,17.6-1.7,34-10.4,49.3
		c-0.3,0.6-0.4,1.2-0.6,1.9c-2.4-0.2-4.6,0.4-6.5,2c-1.3,1.1-2.5,1-4.1,0.1c-8.7-4.8-18.3-6-28.5-7.8c2.3,2.8,4.2,5,6,7.3
		c11.5,15.1,0.7,31.7-12.6,35.6c-11.5,3.3-22.6,2.5-33.5-2.3c-2.6-1.1-4.1-0.8-5.9,1.5c-5.2,6.8-12.6,9.8-20.7,10.6
		c-20.5,2-37.7-5.3-52.3-19.4c-5.5-5.3-9.5-11.8-13.5-18c-1.6,0.1-1.9,1.3-2.3,2c-7.8,12.8-19.1,20.2-33.9,23
		c-11,2.1-25.3-3-31.6-12.3c-1.2-1.8-2.4-2.7-4.5-1.7c-13.2,6.3-26.1,3.1-39.1-0.9c-1.1-0.4-2.4-0.9-3.4-0.3
		c-4.6,2.7-10.2-0.5-14.7,2.6c-0.7,0.5-2.3,0.4-2.9-0.1c-5.6-4.9-10.4-1.3-15.3,1.3c-0.2-3.8,0.7-7.3,2.9-10.3
		c2.5-3.4,0.8-4.3-2.3-4.7c-0.8-0.1-1.7-0.1-2.5-0.1c-14.7-1.4-24.7-12.1-23.8-25.9c0.5-7,4.2-12.8,8.4-18.3
		c1.3-1.7,2.8-3.3,2.4-5.8c2.8-1.4,3.7-3.7,3.5-7c-3.2,1.2-6,2.1-8.7,3.2c-2.9,1.2-5.9,0.4-8.8,0.8c-3.6,0.4-6.5-2.4-10.1-1.8
		c-1.7-0.6-3.3-1.4-2.4,1.8c1.5,5.2,2,10.6,1.6,16c-6,1-11.2,3.8-15.6,7.6c-5,4.3-9.7,5.6-15.2,2.5c-1-0.6-2.2-0.8-3.3-1.2
		c-6.8-2.2-13.4,0.7-20.2,0.2c-16.5-1.2-29.7-8.2-38.5-22.2c-2.5-4-3.4-3.6-6-0.4c-14,17-30.7,28.7-54.1,27.5
		c-9.9-0.5-18.1-3.8-23.6-12.4c-1.5-2.4-2.6-3.1-4.8-0.8c-8.4,8.9-19.2,9-30.1,7.7c-7.5-0.9-14.2-4.3-20.7-8.1
		c-5.6-3.3-5.7-3.1-5.8,3.3c0,5.1-0.3,10.1-1.7,15.2c-6.5,24.3-34,29.5-50.6,19.2c-3.4-2.1-5.9-5.3-9.2-7.9
		c-1.9,7.2-4.5,13.6-8.6,19.2c-8.8,12.2-21.1,18.8-35.7,20.2c-13.6,1.3-26.7-0.8-36.2-12.3c-2.3-2.8-4.2-5.9-6.4-9
		c-1.7,1.8-1.9,4-2.6,6c-3.7,10.2-14.3,17.8-25.5,17.5c-12-0.3-18.9-4.9-23.4-17.2c-1.3-3.6-2.4-2.8-4.4-1
		c-12.3,11.2-26.4,17.2-43.5,16.5c-10.7-0.4-19.6-3.6-26.4-11.7c-11.4-13.7-8.7-31.5,4-42.2c11.9-10.1,25.8-10,39.7-3.8
		c2.9,1.3,3.9,1.8,4.7-2.2c1.7-8.1,6-14.7,12.2-20.6c5.5-5.2,12.2-7.7,19.1-11.1c-2.5-0.6-4.4-1.5-6.2-1.4c-6.9,0.7-10.1-3.7-12.2-9
		c-8.6-21.3-9.4-42.9,0.3-63.8c13.2-28.4,37-43.4,67.1-49.3C416,171.8,417.7,172.2,418.1,170.1z M649.7,181.9
		c-8.7-3.5-16.2-1.6-23.5,0c-13.5,2.9-25,9.6-34.5,19.7c-0.9,1-1.8,2.7-3.7,1.7c-5-2.6-3.2,1.5-2.7,3c0.9,2.6,1.8,4.2-0.7,7
		c-2,2.2,0.4,5.6,2.8,7.6c2.6,2.2,3.5-0.2,5-1.8c3.5-3.9,7.4-7.5,11-11.4C616,194.9,631.2,187,649.7,181.9z"/>
	<path fill="#509717" d="M418.1,170.1c-0.4,2.1-2.1,1.7-3.5,1.9c-30.1,5.9-53.8,20.8-67.1,49.3c-9.8,21-8.9,42.6-0.3,63.8
		c2.1,5.3,5.3,9.7,12.2,9c1.8-0.2,3.8,0.8,6.2,1.4c-6.9,3.4-13.6,5.9-19.1,11.1c-6.2,5.8-10.6,12.5-12.2,20.6
		c-0.8,4-1.8,3.5-4.7,2.2c-13.9-6.1-27.8-6.2-39.7,3.8c-12.7,10.7-15.4,28.6-4,42.2c6.8,8.2,15.7,11.3,26.4,11.7
		c17.1,0.7,31.1-5.4,43.5-16.5c2-1.8,3-2.5,4.4,1c4.5,12.4,11.4,16.9,23.4,17.2c11.2,0.3,21.8-7.3,25.5-17.5c0.7-2,0.9-4.2,2.6-6
		c2.2,3.2,4.1,6.3,6.4,9c9.5,11.5,22.6,13.6,36.2,12.3c14.6-1.4,26.9-8,35.7-20.2c4.1-5.7,6.7-12.1,8.6-19.2
		c3.3,2.6,5.8,5.8,9.2,7.9c16.6,10.3,44.1,5,50.6-19.2c1.4-5.1,1.7-10.1,1.7-15.2c0-6.4,0.1-6.6,5.8-3.3c6.5,3.8,13.2,7.2,20.7,8.1
		c10.9,1.3,21.7,1.1,30.1-7.7c2.2-2.3,3.3-1.6,4.8,0.8c5.5,8.6,13.7,11.9,23.6,12.4c23.4,1.2,40.1-10.5,54.1-27.5
		c2.6-3.2,3.5-3.6,6,0.4c8.9,14,22,21,38.5,22.2c6.8,0.5,13.5-2.3,20.2-0.2c1.1,0.4,2.3,0.6,3.3,1.2c5.4,3,10.1,1.8,15.2-2.5
		c4.4-3.8,9.7-6.6,15.6-7.6c0.9,14.9-4.7,27.3-15.1,37.6c-9.5,9.4-21.4,14.4-34.3,17.3c-3.3,0.7-5.1,2.3-5.5,5.4
		c-0.3,3.1-2,3.8-4.7,3.8c-1.6,0-3.9-0.9-4.4,1.9c-5.6,1.3-11.2-0.2-16.8-0.2c-0.1-9-0.1-18-0.3-27c-0.1-5.4-1.3-6.5-6.9-6.5
		c-2.1-5-3.2-5.3-6.8-1.9c-3.4,3.2-7.2,5.9-11.7,7.4c-1.3,0.4-2.6,0.8-2.5,2.5c-6.9-0.4-6.9-0.4-6.9,6.1c0,3-0.1,5.9-0.1,8.9
		c-17.6,1.3-33.9-4-50-10.2c-0.3-0.3-0.7-0.7-1-1c-0.1-0.1-0.2-0.1-0.3-0.2c0.1,0.1,0.2,0.1,0.3,0.2c0.3,0.3,0.7,0.7,1,1
		c0.8,3.6,3.9,5.4,6.3,7.5c3.3,2.9,2.5,5.1,0,7.9c-8.9,9.6-24.1,11.2-36.1,4.3c-11.4-6.5-16.2-16.9-18-28.9c-0.6-4.4-3.4-6-6.1-7.8
		c-2.6-1.7-2,1.2-2,2.3c0.4,7.8-1.3,15.1-3.8,22.4c-6.1,17.4-18.1,29.1-34.5,36.7c-10.7,5-22.2,7.4-33.8,7.3
		c-14-0.2-27.7-3.2-40.4-9.4c-1.6-0.8-3-2.1-5.4-1.7c2.6,4.4,5.8,8.4,6.8,13.2c2.7,12.8-2.3,23-13.8,29.7
		c-15.8,9.2-41.2,5.4-54.3-7.1c-5-4.7-9.4-9.9-13.1-15.7c-1-1.6-1.6-3.7-4.2-4.5c-1,3.1-1,6.3-0.3,9.3c0.6,2.6,0,4.1-1.8,5.6
		c-9,7.7-18.9,13.3-30.9,15.1c-4.2,0.6-8.4,1.8-11.6,4.9c-7.7-0.9-15.1-3.6-23-3.2c-0.5-2.9-3.3-3.2-5.3-3.9
		c-11.3-4.2-20.9-10.8-29-19.8c-0.4-0.5-1.1-0.8-1.6-1.2c-0.1-0.4-0.3-0.9-0.4-1.3c-0.1,0.1-0.4,0.3-0.3,0.3c0.2,0.4,0.5,0.7,0.7,1
		c-0.2,6.1,3,10.7,6.6,15.1c3.8,4.6,3.8,4.6-1.2,7.6c-1.6,0.9-3.2,1.9-4.7,2.8c-3.3,2.1-13.4,2.4-16.5,0.4
		c-3.2-2.1-6.8-11.7-5.8-15.7c0.4-1.6,1.3-3.5-0.1-4.7c-1.5-1.3-3.2,0.2-4.7,0.7c-18.9,6.2-37.6,6.9-55.6-2.4
		c-14.3-7.4-21.8-20.2-24-35.9c-4-28.5,7.4-51.5,26.2-71.7c16.2-17.4,36.1-28.4,59.5-31.8c13.3-1.9,26.9-1.3,40.1,1.9
		c4,1,4.3-0.1,3.2-3.6c-11.7-37.4,3.2-70.2,31.8-91.7c19.8-14.8,42.5-22.1,66.8-25.2C404.5,169.9,411.3,170,418.1,170.1z"/>
	<path fill="#73AB1B" d="M1285.7,581.9c-1.8,0.4-2.7,1.7-3.7,3.1c-14.1,20.3-45.8,20-59.4-0.6c-3-4.5-4.7-9.5-5.5-14.8
		c-0.4-2.8-1.3-2.6-3.1-1.1c-10.7,9.6-23.4,11.5-36.8,8.2c-16.4-4.1-27.5-20.6-17.4-37.2c0.6-1,1.1-2,1.7-3.2
		c-8,0.8-15.8,1.6-23.4-0.1c-7.4-1.6-13.1-5.5-16.1-12.8c-1.7-4.1-3.2-0.7-4.1,0.3c-11.6,12.7-30.3,10.8-42,3.2
		c-4.2-2.8-7.1-6.8-9.4-11.7c-8.8,9.6-17.8,17.7-31.4,9.2c-0.4,5.7-5.5,8.3-10.4,4.4c-4.9-3.9-8.7-3.8-13.8-0.8
		c-4.4,2.6-9.2,1.3-13-1.9c-4.2-3.5-6.3-8.1-5.4-13.7c0.3-2.2,0.9-4.5,1.4-7c-4.5,0.8-8.4,0.8-9.7-4.4c2.3-0.4,4.5-0.8,6.8-1.2
		c3,0.5,6.2-0.3,9.1,1.8c1.9,1.4,3.8-0.6,5.2-1.9c1.5-1.4-0.3-2.3-1.1-3.2c-0.9-1.1-0.9-2.4-1.1-3.7c-1.2-7.9,3.2-13.3,8.1-18.3
		c4.9-5,6.6-4.6,8.5,1.8c1.1,3.6,2.1,4.3,5.3,1.5c6-5.1,13.3-6.3,21-5.4c1.3,0.2,2.8,1.3,3.6-0.2c0.8-1.5-0.9-2.4-1.9-3.1
		c-4.2-3.2-4.2-7.2-2.5-11.6c1.1-3,2.6-5.7,4.2-8.4c1.8-3.1,4.8-5.5,5.7-9.1c3.1-2,6.3-4,10-5c1.4-0.4,2.9-0.7,4.3-1.2
		c21.7-6.8,43.3-7,64.8,1.2c10.9,4.8,20.3,11.4,25.8,22.3c1.4,2.8,3.7,2.9,6.3,2.6c23.4-3,42.9,4.2,58.3,22
		c6.8,7.9,9.4,17.5,8.6,27.8c-0.3,3.8,0.6,4.8,4.6,5.5c20.9,3.4,35.2,15.5,43.2,35C1285,560.3,1287.2,570.9,1285.7,581.9z"/>
	<path fill="#73AB1B" d="M311.8,449.9c7.9-0.4,15.3,2.3,23,3.2c8.5,3.2,16.9,6.7,24.5,11.9c4.7,3.2,7.9,7.3,10.6,12.1
		c-4.9,0.7-8.4,3.6-11.4,7.6c4.6-1,9.1-1.9,13.7-2.9c6.3,0.6,12.9-0.9,19,1.8c1.6,0.7,3.2,1.6,4.8,2.3c1.6,3.6,3.2,7.2,4.9,10.8
		c5.5,11.6-1.8,24.3-11,29.9c-12.2,7.4-24.5,7.2-37,1c-2.1-1-4.1-2-6.7-3.3c-0.6,13-4.4,23.8-16.8,29.5c-11.8,5.4-22.9,3.9-33.8-3.9
		c-2.7,10.6-7.4,19.1-19,21.2c-10.8,2-19.5-1.5-26.4-10.7c-1.5,11.2-5.6,20.1-15.6,25.6c-7.4,4.1-20.4,4.7-26.7-1.4
		c-2.4-2.3-3.1-0.6-4.5,1.2c-11.3,14.9-37.5,14.8-47.7-2.3c-5.2-8.6-5.1-21.2,0.7-29.3c6.5-9.1,18.3-13.5,28.6-10.4
		c3,0.9,4.1,0.9,5.5-2.6c5.7-14.2,18.4-21.8,33.9-18.4c1.7,0.4,3.6,0.3,6.6,0.4c-8.4-7.6-17.3-9.7-26.9-7.5
		c-6.8,1.6-13.2,4.8-16.9,11.5c-0.7,1.3-1.3,2.1-3,0.9c-5.9-3.9-9.6-12.7-8.1-19.6c1.7-7.8,5-14.7,11-20.3c2.1-1.9,3.8-4.2,4.7-6.9
		c3.4-0.4,7.3-2.5,10.2-0.8c2.6,1.6,1.2,6,2.1,9c0.3,1.1,0.8,2.1,1.7,4.5c1.2-3.7,2.2-6.2,2.9-8.8c3.2-10.8,10.9-17.1,20.9-21.1
		c15.3-6.1,30.6-5.9,46.1-0.8c3.3,1.1,6.4,2.7,10,3c0.2,0.1,0.3,0.3,0.5,0.4c-0.1-0.2-0.3-0.4-0.4-0.5c-0.2-2.1-1.7-3.3-3.1-4.3
		c-4.1-2.9-2.2-4.4,1-6.1C292.6,450.8,302.1,449.7,311.8,449.9z"/>
	<path fill="#509717" d="M1134,435c-21.5-8.1-43.1-7.9-64.8-1.2c-1.4,0.4-2.9,0.8-4.3,1.2c-2.2-4.4-8.5-6.6-12.5-3.8
		c-7.7,5.2-15.7,7-24.9,5c-7.6-1.7-14.6-4.4-21.1-8.5c-1.4-0.9-2.6-1.9-4.5-1.2c-7.6,2.7-15.7,3.1-23.6,2.4
		c-11.1-1-21.1-4.5-27.6-14.5c-2-3.1-1.9-5.1,1.6-7.2c3.1-1.9,6.8-3.6,8.6-7.8c-8.3,1.6-16,3.6-23.8,4.5
		c-12.6,1.4-24.1-1.5-33.3-10.7c-1.9-1.9-3.6-1.8-5.8-1c-5.9,2.2-11.6,4.8-18,5.4c-10.4,1-20.7,1.5-30-4.1
		c-8.8-5.3-15.2-14.1-12.2-24.3c4.9-2.7,9.7-6.2,15.3-1.3c0.6,0.5,2.2,0.6,2.9,0.1c4.5-3.2,10.1,0.1,14.7-2.6c1-0.6,2.2-0.1,3.4,0.3
		c12.9,4.1,25.9,7.3,39.1,0.9c2-1,3.2-0.1,4.5,1.7c6.2,9.3,20.6,14.5,31.6,12.3c14.7-2.8,26.1-10.2,33.9-23c0.5-0.8,0.8-1.9,2.3-2
		c4.1,6.2,8,12.7,13.5,18c14.6,14.2,31.8,21.4,52.3,19.4c8.1-0.8,15.6-3.8,20.7-10.6c1.8-2.3,3.3-2.6,5.9-1.5
		c10.9,4.7,22,5.6,33.5,2.3c13.4-3.9,24.1-20.5,12.6-35.6c-1.8-2.3-3.7-4.5-6-7.3c10.2,1.9,19.8,3,28.5,7.8c1.5,0.9,2.7,1,4.1-0.1
		c1.9-1.6,4.1-2.2,6.5-2c15.7-3,31.1-2.6,45.5,5.3c15.1,8.3,24.2,21.4,25.1,38.3c1,17.8-8.8,33.8-29.9,39.4c-7.7,2-15.4,2.2-23.1,1
		c-4-0.6-6,0.9-5.6,5.2c0.1,1.4-0.3,3-0.7,4.4c-0.8,2.6-1.2,6.3-4.1,6.9c-2.5,0.5-3.5-3-5.1-4.8c-3.1-3.5-6.8-6.3-10.7-8.9
		C1141.3,427.9,1140.1,428.1,1134,435z"/>
	<path fill="#509717" d="M630.1,83.3c-0.3,1.1-1.1,1.5-2.2,1.7c-19.5,3.3-36.9,11.4-51.1,25c-11.6,11.1-19.5,24.7-20.8,41.3
		c-0.4,5.3,1.1,10.1,4.1,14.6c1.4,2.1,2.5,2.4,4.8,0.9c9.1-5.9,19.2-9.5,31.3-10.9c-6.4,5.2-11.1,10.4-14.2,16.8
		c-3,6.1-4.1,12.5-3,19.2c0.7,3.9-1.3,5.6-4.9,4.2c-3.3-1.3-6.4-2.3-8.4-6.2c-1.9-3.8-7.3-4.1-10.9-6.5c-2.9-1.9-5.4-3.8-6.8-6.9
		c-1.6-3.6-4-5.5-7.9-6.7c-5.2-1.6-10-4.3-14.8-6.8c-5.7-3-11.5-5.4-17.7-7c-3.8-1-7.8-2.1-10.8-5.1c5.3-13,14.6-22.9,25-31.8
		c21.2-17.9,46-28.2,73-33.5C606.6,83.3,618.3,82.3,630.1,83.3z"/>
	<path fill="#285A0B" d="M837.8,369.1c-3,10.3,3.4,19,12.2,24.3c9.3,5.6,19.7,5.1,30,4.1c6.4-0.6,12.1-3.3,18-5.4
		c2.2-0.8,3.9-0.8,5.8,1c9.2,9.2,20.7,12.2,33.3,10.7c7.8-0.9,15.4-2.9,23.8-4.5c-1.8,4.2-5.5,5.9-8.6,7.8c-3.5,2.1-3.5,4.1-1.6,7.2
		c6.5,10,16.5,13.5,27.6,14.5c7.9,0.7,16,0.3,23.6-2.4c2-0.7,3.1,0.3,4.5,1.2c6.5,4.1,13.5,6.8,21.1,8.5c9.2,2,17.2,0.2,24.9-5
		c4-2.7,10.3-0.6,12.5,3.8c-3.7,1-6.9,2.9-10,5c-9.4,3.4-17.8,9.3-22.1,17.6c-4.6,8.9-10.9,10.5-19.4,11.9c-10.9,1.7-19,8.1-22,19.6
		c-0.9,3.6,0,7.3-0.7,10.9c-2.3,0.4-4.5,0.8-6.8,1.2c-12.9,3.2-21.4,10.7-24.5,23.9c-2,8.3,2.8,19.4,10.3,23.5
		c10,5.5,20.4,6.1,31.2,2.7c4.9-1.6,7.7,0.5,7.1,5.9c-0.3,3.2,4.3,4,2.9,7.4c-2-0.8-3.9-1.6-5.9-2.4c-2.8-3.4-6-2.2-9.2-0.9
		c-3.6,0.2-7.3,0.7-10.9,0.7c-17.7-0.5-31.6-11.5-34.3-27c-3.1-17.6,8.9-35.1,27.9-40.3c2.7-0.7,3.7-1.6,3.9-4.5
		c0.3-5.6,2.6-10.6,6.1-15c7-8.9,16.4-13.2,27.5-14.4c1.7-0.2,4.1,0.7,5.1-1.2c2.5-5.2,6.4-9.4,10.5-14.1
		c-10.5-1.2-19.7-3.4-27.7-9.5c-0.2-0.1-0.5-0.3-0.7-0.4c-0.6,0.2-1.3,0.5-1.9,0.7c-4-1.4-7.6,0.8-11.4,1.1
		c-7.7,1.5-15.2,0.1-22.8-1c-1.5-2-3.7-2.2-5.9-2.2c-9.1-4.5-17.2-10-20-20.6c-0.5-2.1-1.9-1.5-3.1-1.2c-6.6,1.4-13.2,0.4-19.7-0.9
		c-2.2-1.3-4.5-2.5-7.2-2.4c-3.3-2.4-6.5-5-10-7.1c-3.4-1.9-6,1.5-9,2.3c-3.2-0.1-6,1.3-9,1.9c-6.9,1.4-13.9,1.6-20.9,0.7
		c-23-2.9-37.9-21.1-33.5-40.6c0.9-1.9,2.7-4.6-0.1-5.5c-4.7-1.6-8.7-4.7-13.5-5.8c-1-3-2.9-5.1-6-6c-1.6-3.8-3.2-7.6-5.3-12.6
		c-1.7,11.3-8.9,18-14.9,25.6c-3.2,1.3-5.4,3.9-7.9,6c-14.3,9.4-29.9,14.7-47.1,15c0.5-2.8,2.8-1.9,4.4-1.9c2.7,0,4.4-0.7,4.7-3.8
		c0.3-3.1,2.1-4.6,5.5-5.4c12.8-2.8,24.7-7.9,34.3-17.3c10.5-10.3,16-22.7,15.1-37.6c0.4-5.4-0.1-10.8-1.6-16
		c-0.9-3.2,0.7-2.3,2.4-1.8c1.7,4.5,3.3,9,5.1,13.5c2.1,5.1,2.6,5.1,6,0.7c3.4-4.4,7.1-8.4,13-9.3c0.4,2.4-1.1,4-2.4,5.8
		c-4.1,5.5-7.9,11.2-8.4,18.3c-0.9,13.8,9,24.5,23.8,25.9c0.8,0.1,1.7,0,2.5,0.1c3.1,0.4,4.8,1.3,2.3,4.7
		C838.5,361.8,837.6,365.3,837.8,369.1z"/>
	<path fill="#642C09" d="M989.8,437.2c3.8-0.3,7.5-2.5,11.4-1.1c-17.4,21.3-36.5,40.9-57.3,58.8c-24.7,21.3-51.4,40.3-76.6,61
		c-17.2,14.1-33.8,28.7-45.6,47.9c-16.3,26.4-20.4,54.7-14.3,85.2c5.5-3.9,10.5-7.8,15.7-11.2c20.1-13.1,42.3-21.6,65-28.8
		c6.7-2.1,13.3-4.3,19.9-6.6c15.9-5.3,29.8-14,41.7-25.7c17.2-17,32-36.1,46.1-55.7c3.2-1.3,6.4-2.5,9.2,0.9
		c-14.7,20.2-29.8,40.2-47,58.4c-17.3,18.3-38.9,29-62.9,35.7c-29.5,8.2-57.1,20.8-81.3,39.9c-10.6,8.4-19.6,18.4-27.5,29.4
		c-0.7,0.9-1.4,1.9-2.1,2.8c-0.1,0.2-0.6,0.1-1.5,0.2c3.6-9.2,7.3-18,13.1-25.7c2.5-3.2,3.3-6.2,2.4-10.5
		c-5.6-27.1-2.9-53.2,8.8-78.6c9.7-21.2,24.5-38.1,41.9-53.1c24.1-20.9,50-39.4,75.2-59c21.4-16.6,40.1-35.9,58.9-55.2
		C985.6,443.5,988.6,440.9,989.8,437.2z"/>
	<path fill="#642C09" d="M420.9,459.2c3.3,0.9,6.8,0.8,10.2,0.9c3.1,9,9.3,16.1,14.6,23.6c5.6,8,11.9,15.5,18.8,22.5
		c12.6,12.7,27.4,22.5,42.3,32.2c29.8,19.4,55.6,42.7,71,75.5c5.9,12.5,9.5,25.6,10.5,39.7c0.8,11.6-0.3,22.8-2.2,34.1
		c-0.4,2.5,0,4.7,1.8,6.9c5.2,6.3,9.3,13.3,12.7,20.8c0.4,1,1.5,1.9,0.5,3.4c-3.8-4.2-7.5-8.4-11.3-12.5
		c-17.2-17.9-38.2-29.7-61.3-38c-14.7-5.3-29.9-8.8-44.7-13.6c-21.9-7.1-41.9-17.5-58.5-33.8c-15.1-14.8-29.6-30.1-42.2-47
		c-0.6-0.8-1.5-1.3-2.2-2c1.2-2.5,2-5.4,5.3-6c9.3,9,17,19.4,25.4,29.1c24.8,28.7,55,47.7,92.1,56.2c21.3,4.9,41.8,12.4,60.7,23.7
		c4.4,2.6,8.5,5.5,13.2,8.5c0.2-1.2,0.3-1.8,0.4-2.4c5.6-37.3-5.8-69.3-30.3-97.2c-14.7-16.7-32.5-29.7-51.2-41.2
		C463,522,438.6,493.7,420.9,459.2z"/>
	<path fill="#642C09" d="M883.1,406.1c3-0.7,5.9-2,9-1.9c0,1.7-0.7,3.3-1.6,4.7c-13,22.2-19.8,46.7-26.5,71.3
		c-5.7,20.9-17.5,37.8-34.9,50.8c-15.5,11.6-33,19.9-48.9,30.8C765,572.2,751.2,584.2,739,598c-0.4,0.5-0.8,1-1.4,1.4
		c-0.2,0.2-0.6,0-1.4,0c2-6.2,5.3-11.5,8.6-16.7c2-3.1,2.2-5.9,1.5-9.4c-3.3-17.5-3.2-34.8,1.4-52.2c4-15.1,12.7-27.2,22.9-38.3
		c12.6-13.6,23-28.5,28.8-46.1c3.8-11.7,5.6-23.8,6.6-36c1.4-16.2,2-32.5,1.9-48.8c0-1.2,0-2.4,1.1-3.1c3.1,0.9,5,3,6,6
		c0.1,4.3,0.2,8.7,0.2,13c-0.4,10.5-0.8,21-1.3,31.4c-1.4,33.2-12.6,62.3-35.8,86.6c-13.7,14.3-23.5,30.8-25.4,51.1
		c-0.9,0.5-1,1.1-0.1,1.8c-0.5,10.4-0.3,20.8,2,31.6c4.4-3.5,8.2-6.6,12.2-9.6c15.1-11.3,31.4-20.7,47.7-30.1
		c22.7-13.2,36.9-32.4,43.5-57.7c4.7-18.4,9.7-36.7,18.4-53.7C878.7,414.9,881.7,410.9,883.1,406.1z"/>
	<path fill="#642C09" d="M530,419.9c2.6-1.5,5.5-2.4,8.5-2.9c1.4,15.5,2.9,30.9,6.6,46.1c6.1,25.4,16.8,48,37.5,64.9
		c20.1,16.4,43.2,28.8,61.8,48.1c4.5-11.5,7.4-22.7,9.1-34.2c2.7-17.9,3.5-35.8-3.6-53.1c-4.7-11.4-12.3-20.9-20.1-30.2
		c-17-20-27.4-43.1-32.5-68.7c3,0.6,6.1,0.9,8.6,3c5.2,22.8,15.5,43,30.4,60.9c12.3,14.9,23.7,30.4,26.4,50.4
		c1.6,11.4,1,22.9-0.1,34.2c-1.5,15-5.6,29.6-10.7,43.8c-0.6,1.7-0.6,3.1,0.2,4.7c1.4,3,2.3,6.1,2.7,10.2
		c-10.9-11.7-22.5-21.5-34.6-30.7c-10.8-8.2-21.9-16-32.9-23.9c-26.4-18.9-42.5-44.6-49.9-76.1c-3.1-13.4-3.9-27.1-6.1-40.7
		C530.7,423.8,530.3,421.9,530,419.9z"/>
	<path fill="#642C09" d="M781.1,368c2.6-2.1,4.8-4.7,7.9-6c0.7,16.8-0.4,33.5-4,50c-3.3,15.5-10.5,28.9-21.1,40.6
		c-9.1,10-19.8,18.1-30.6,26.2c-4.8,3.6-8.6,8.3-13,12.4c-1.2,1.1-1.2,2.6-1.5,4.1c-0.9,4.3-2,8.6-3.3,12.9
		c-1.6-12.5-6.4-24.5-5.6-37.2c0.3-5.4,1.8-10.6,3.3-15.8c0.3-0.9,0.6-1.9,0.6-2.9c0.4-16.1,0.7-32.2,1-48.3c0-1.4,0.5-3.5-1.6-3.6
		c-4-0.1-3.3-2.8-3.4-5.3c-0.5-9.9,0.4-19.9-0.7-29.9c-0.5-5.1,0.9-10.5,0.7-15.8c5.6,0,6.8,1.1,6.9,6.5c0.1,9,0.2,18,0.3,27
		c0.3,32.6-3.8,65.4,1.4,98.7c10.9-10.4,23.1-18.1,33.7-27.7C777.9,430.5,782.3,400.2,781.1,368z"/>
	<path fill="#642C09" d="M1091.9,567.1c2.5-0.4,4.9,0.3,7.2,1c-9.5,23.9-24.5,43.2-47.2,55.8c-10.3,5.7-21.6,8.1-32.9,10.7
		c-15.3,3.6-31.3,2.2-46,8.6c-0.2-0.5-0.3-0.9-0.5-1.4c3.9-2.4,7.6-5.1,11.6-7.3c2.8-1.6,4.4-3.8,6-6.4c6.8-10.8,11.5-22.9,19-33.3
		c6.4-8.9,13-17.6,19.9-26c3.7-1.4,7.5-1.1,11.3-0.9c-16.1,18.5-30.2,38.3-40.7,60.6C1042.3,627.6,1074.8,606,1091.9,567.1z"/>
	<path fill="#642C09" d="M346.6,584.1c3.5-0.3,7-0.6,10.4-1c4.7,5.3,9.3,10.6,14,15.9c9.9,11.2,17.8,23.9,25.6,36.6
		c5.3,8.7,12.2,16,19.2,23.5c-1.9,1.1-3.1-0.2-4.1-0.9c-5.8-3.8-12.2-4.6-19-4.3c-16.9,0.6-33.8,0.2-50.2-4.9
		c-14.4-4.4-27.6-11.3-39.1-21.2c-4.9-4.2-10.1-8.1-13.4-13.8c1.3-2.3,3.4-3.5,5.9-4.1c27.7,27.2,69,41.9,96.6,34.2
		c-3-4.7-5.9-9.3-8.8-13.9C373,613.5,360.1,598.5,346.6,584.1z"/>
	<path fill="#642C09" d="M682,372.3c0-3,0.1-5.9,0.1-8.9c0-6.6,0-6.6,6.9-6.1c0.3,7.2,1.1,14.4,0.9,21.6c-0.8,23.8-1,47.7-5.6,71.2
		c-1.1,5.8-0.5,11.9,0.6,17.9c-9-17-27.9-23.4-39.7-37.3c-9.2-10.8-16.2-22.6-19.3-36.5c1.7-2,4.4-0.8,6.3-2
		c7.2,24.3,23.8,40.9,44.7,54.4c4.1-21.8,5.4-43.8,5.1-65.9C682,377.9,682,375.1,682,372.3z"/>
	<path fill="#642C09" d="M452.9,455.2c1.8-1.9,4.1-3,6.7-3.3c4,5.3,7.8,10.8,12.1,15.9c11,12.9,24.5,22.6,40.9,30
		c-5.5-25.2-9-49.9-10.5-74.8c2.7,0,5.3-0.1,8-0.1c1.7,22.2,4.5,44.3,9,66.2c2,9.8,4.6,19.2,10.2,27.6c0.6,0.9,0.5,2.2,0.8,3.3l0,0
		c-9.7-11.6-24.4-15.5-36.7-23.1c-12.1-7.6-22.1-17.3-31.3-28.1C458.5,464.6,455,460.4,452.9,455.2z"/>
	<path fill="#642C09" d="M961.1,433.9c2.3,0,4.4,0.2,5.9,2.2c-3.8,7.9-10.6,13.2-16.8,18.8c-14.1,12.6-29.5,23.6-45.9,33
		c-8.9,5.1-18.2,9.5-27,16.6c0.6-4.1,2.6-6.2,4.7-8.1c3.1-2.9,4.9-5.8,5.3-10.6c2-27.5,9.1-53.5,23.9-77.1c2.7-0.1,5,1.1,7.2,2.4
		c-12.8,20.3-19.4,42.7-23.2,66.1c-0.3,2.2-0.5,4.5,0.8,6.8C920.5,470.6,942.1,454,961.1,433.9z"/>
	<path fill="#642C09" d="M816.1,1050.6c-0.2-5.3-0.4-10.6,2.4-15.6c3.5-6.2,9.3-6.8,13.5-1c5.8,8.1,9.4,17.3,9.9,27.3
		c0.4,7.1,1,14.2-1.5,21.2c-2.3,6.6-9.6,8.7-14.3,3.2c-3.9-4.7-6-9.9-7.7-15.5c-1-3.3-1.8-6.8-2.2-10.2
		C815.8,1056.9,816.1,1053.8,816.1,1050.6z M836,1067.8c-1-9.2-2.6-18.3-6.9-26.6c-0.8-1.6-1.8-3.4-4.1-3c-2.1,0.4-2.2,2.4-2.5,3.9
		c-1.2,4.7-0.8,9.6-0.4,14.4c0.6,7.6,2.4,15,6.1,21.8c0.8,1.4,1.9,3,3.9,2.5c1.8-0.4,2.9-1.8,2.9-3.6
		C834.9,1074,836.6,1071.1,836,1067.8z"/>
	<path fill="#642C09" d="M801.1,970.1c0.5,7.3,1.6,14.5,1.8,21.7c0.6,16.2,1.9,32.3,3.7,48.5c1.6,14.5,3.6,28.8,6.2,43.2
		c0.2,1.2,0.8,3.1-1.2,3.1c-2,0-3.8-1-4.4-3.4c-1.4-5.6-3-11.2-4.1-16.9c-3.9-20.9-6.1-42-5-63.3C798.7,992,800.1,981,801.1,970.1z"
		/>
	<path fill="#642C09" d="M840,722c-3.9,7.8-9.2,14.9-13.1,22.8c-9.8,20.3-15.3,41.9-19,64.1c-0.6,3.5-1,7-1.5,10.4
		c-0.5,0-0.9,0-1.4,0c0-3.2,0-6.3,0-9.5c0-10.5,0.8-20.9,3.1-31.1c4.5-20.3,13.1-38.6,27.5-53.8C836.8,723.7,837.8,721.9,840,722
		C840,722,840,722,840,722z"/>
	<path fill="#642C09" d="M594.1,901.5c-2.4-35-4.2-69.7-11.7-103.9C594.8,811.4,602.9,883.5,594.1,901.5z"/>
	<path fill="#642C09" d="M668.2,1224.3c-11.5,23.3-44.3,39.2-72.8,35C622.9,1252.2,648.4,1244.2,668.2,1224.3z"/>
	<path fill="#642C09" d="M575,851.7c7.8,28.6,6.9,57.4,0,86.2C575,909.2,575,880.4,575,851.7z"/>
	<path fill="#642C09" d="M780.4,876.2c-4-31.9-3.1-67.9,2.5-80.4c0,10,0.1,18.7,0,27.3c-0.2,8.8,0.6,17.6-0.6,26.4
		C781.2,858.2,782.8,867.1,780.4,876.2z"/>
	<path fill="#642C09" d="M895,1200c-9.5-4.8-17.1-11.8-23.6-20.1c-7.9-10.2-16.1-29.7-17.8-43.2c3.7,6.3,6,12.2,8.9,17.9
		c8,15.5,17.5,29.8,30.2,41.9C893.8,1197.3,895.1,1198.3,895,1200C895,1200,895,1200,895,1200z"/>
	<path fill="#642C09" d="M841,720c0,0.8-0.2,1.6-1,2c0,0,0,0,0,0C840,721.1,840.2,720.4,841,720z"/>
	<path fill="#642C09" d="M897,1201c-0.8,0-1.6-0.2-2-1c0,0,0,0,0,0C895.8,1200,896.6,1200.2,897,1201L897,1201z"/>
	<path fill="#642C09" d="M842,719c0.1-0.1,0.3-0.3,0.4-0.4c0,0.1,0,0.2-0.1,0.3C842.2,718.9,842.1,718.9,842,719L842,719z"/>
	<path fill="#642C09" d="M530,520c0.1,0.1,0.3,0.3,0.4,0.4c-0.1,0-0.2,0-0.2-0.1C530.1,520.2,530.1,520.1,530,520
		C530,520,530,520,530,520z"/>
	<path fill="#642C09" d="M897,1201c0.1,0.1,0.3,0.1,0.4,0.2C897.3,1201.1,897.1,1201.1,897,1201C897,1201,897,1201,897,1201z"/>
	<path fill="#642C09" d="M842,719c-0.3,0.3-0.7,0.7-1,1C841.3,719.7,841.7,719.3,842,719C842,719,842,719,842,719z"/>
	<path fill="#285A0B" d="M1049,540c-0.4-0.1-0.8-0.2-1.2-0.3C1048.5,538.8,1048.6,539.7,1049,540C1049,540,1049,540,1049,540z"/>
	<path fill="#509717" d="M372.3,481.7c-4.6,1-9.1,1.9-13.7,2.9c3-4,6.5-7,11.4-7.6C370.7,478.6,371.5,480.2,372.3,481.7z"/>
	<path fill="#509717" d="M649.7,181.9c-18.5,5-33.7,13-46.1,25.9c-3.7,3.8-7.5,7.4-11,11.4c-1.5,1.7-2.4,4-5,1.8
		c-2.4-2-4.8-5.3-2.8-7.6c2.4-2.8,1.5-4.4,0.7-7c-0.5-1.6-2.3-5.7,2.7-3c1.9,1,2.7-0.8,3.7-1.7c9.5-10.1,21-16.8,34.5-19.7
		C633.5,180.3,641,178.4,649.7,181.9z"/>
	<path fill="#509717" d="M822.8,304c-5.9,0.9-9.6,4.9-13,9.3c-3.4,4.5-4,4.5-6-0.7c-1.8-4.5-3.4-9-5.1-13.5
		c3.6-0.6,6.5,2.2,10.1,1.8c2.9-0.3,5.9,0.4,8.8-0.8c2.7-1.1,5.5-2,8.7-3.2C826.5,300.4,825.6,302.6,822.8,304z"/>
	<path fill="#285A0B" d="M276,425c-0.3-0.3-0.5-0.7-0.7-1c0,0,0.2-0.2,0.3-0.3C275.7,424.1,275.9,424.6,276,425
		C276,425,276,425,276,425z"/>
	<path fill="#285A0B" d="M632,362c-0.3-0.3-0.7-0.7-1-1l0,0C631.3,361.3,631.7,361.7,632,362C632,362,632,362,632,362z"/>
	<path fill="#285A0B" d="M631,361c-0.1-0.1-0.2-0.1-0.3-0.2C630.8,360.9,630.9,360.9,631,361C631,361,631,361,631,361z"/>
	<path fill="#509717" d="M990.8,499.8c0.6-3.6-0.3-7.3,0.7-10.9c3-11.5,11-17.9,22-19.6c8.6-1.3,14.8-2.9,19.4-11.9
		c4.3-8.3,12.7-14.2,22.1-17.6c-1,3.6-3.9,6-5.7,9.1c-1.6,2.7-3.1,5.5-4.2,8.4c-1.7,4.4-1.7,8.4,2.5,11.6c0.9,0.7,2.6,1.7,1.9,3.1
		c-0.8,1.5-2.3,0.4-3.6,0.2c-7.7-1-15,0.3-21,5.4c-3.2,2.7-4.2,2-5.3-1.5c-1.9-6.4-3.6-6.8-8.5-1.8c-5,5.1-9.3,10.5-8.1,18.3
		c0.2,1.3,0.1,2.6,1.1,3.7c0.7,0.9,2.6,1.8,1.1,3.2c-1.4,1.3-3.3,3.3-5.2,1.9C997,499.6,993.8,500.3,990.8,499.8z"/>
	<path fill="#285A0B" d="M286.1,466c0.1,0.2,0.3,0.4,0.4,0.5c-0.2-0.1-0.3-0.3-0.5-0.4C285.9,466.1,286.1,466,286.1,466z"/>
	<path fill="#73AB1B" d="M828.7,366.2c-4.4,1-8.8,2-13.4,1.7c-0.1-4.3-0.2-8.7-0.2-13c4.9,1,8.8,4.2,13.5,5.8
		C831.4,361.6,829.6,364.3,828.7,366.2z"/>
	<path fill="#642C09" d="M1003.9,435.8c-0.4,0-0.6-0.1-0.7-0.4C1003.4,435.5,1003.7,435.6,1003.9,435.8z"/>
	<path fill="#9A4A12" d="M752.9,537.1c0,0.6-0.1,1.2-0.1,1.8C751.9,538.2,752,537.6,752.9,537.1z"/>
	<path fill="#9A4A12" d="M836,1067.8c0.5,3.2-1.1,6.2-1.1,9.4c0,1.8-1.1,3.2-2.9,3.6c-2,0.5-3.1-1.1-3.9-2.5
		c-3.6-6.8-5.5-14.2-6.1-21.8c-0.4-4.7-0.8-9.6,0.4-14.4c0.4-1.5,0.5-3.5,2.5-3.9c2.2-0.4,3.2,1.4,4.1,3
		C833.5,1049.5,835,1058.6,836,1067.8z"/>
</g>
</svg>
