<?xml version="1.0" encoding="utf-8"?>
<!-- Generator: Adobe Illustrator 18.1.1, SVG Export Plug-In . SVG Version: 6.00 Build 0)  -->
<svg version="1.1" id="Layer_1" xmlns="http://www.w3.org/2000/svg" xmlns:xlink="http://www.w3.org/1999/xlink" x="0px" y="0px"
	 viewBox="0 0 1024 1024" enable-background="new 0 0 1024 1024" xml:space="preserve">
<g>
	<path d="M532.9,423.8c-11.6-2-23.4-3.3-34.8-6c-14.4-3.3-27.6-9.6-39.5-18.6c-23.1-17.5-31.8-41.4-31.3-69.5
		c0.1-6.5,0.3-13-0.4-19.4c-0.9-8-2.7-16-4-24c-0.4,0-0.8,0-1.2-0.1c-0.5,5.1-1,10.3-1.5,15.4c-0.7,7.6-1.5,15.2-2.1,22.9
		c-0.1,1.2,0.6,2.4,1,3.6c0.7,2,2.4,4.3,2,6c-1.8,7-1.4,14-1.9,21c-0.3,5.1-4.3,8.1-9.4,9c-7,1.2-11.9-3.3-11-10.3
		c0.3-2.9,1.5-5.7,2.3-8.8c-5.9-7.9-6-10.7-0.8-18.9c0.3-0.5,0.9-1.2,0.8-1.7c-0.3-6.5-0.7-13-1.2-19.5c-0.1-0.8-0.4-1.7-0.3-2.5
		c1-7.6,2.1-15.2,3.2-22.8c0.2-1.4,0.5-2.9,0.3-4.3c-0.9-5.2,0.9-9.6,2.8-14.4c2.4-6,5.1-12.4,2.9-19.4c-2.1-6.6-0.6-12.8,2.9-18.7
		c0.9-1.6,0.9-3.8,1.1-5.8c0.1-0.8-0.7-1.6-0.5-2.4c2.3-15.7,1.6-32.4,16-43.7c1.1-0.9,1.4-2.8,2-4.2c2.2-4.6,4.4-9.1,6.7-13.7
		c0.7-1.3,1.8-2.4,2.4-3.8c4.4-9.6,12.2-14.3,22.3-15.4c3.6-0.4,5.8-1.6,7-5.1c2.5-6.9,7.5-11.2,14.8-12.7c1.2-0.3,2.5-0.9,3.4-1.7
		c9.6-8.8,20.8-10.4,33-7.7c1.8,0.4,4-0.2,5.9-0.8c8.3-2.6,15.5-9.2,24.8-7.8c5.4,0.8,10.7,3.2,16,4.9c1.2,0.4,2.4,1.7,3.4,1.5
		c5-0.9,10-2,14.9-3.3c11.2-3,20.7,0.2,27,9.6c1.7,2.5,3.3,3.3,6.2,2.2c8.1-3.1,15.7-2,22.5,3.5c0.8,0.6,1.7,1.1,2.6,1.4
		c9.3,2.5,13.1,9.1,16,18c1.4,4.5,7,9.3,11.7,10.8c12.8,4,19.7,11.8,20.2,25.1c0.1,1.6,1.1,3.8,2.3,4.6c6.7,4.2,9.6,10.2,8.7,17.8
		c-0.5,4.2,0.4,7.4,2.4,11.1c3.6,6.3,4.1,13.3,3,20.4c-0.2,1.6-0.5,3.2-0.8,5.1c10.3,3.3,13.7,11.1,14.1,20.9
		c0.1,1.6,1.5,3.1,2.3,4.6c2.6,4.3,5.2,8.6,7.8,13c0.5,0.8,0.7,1.9,1.4,2.6c4.8,4.7,7.4,10.1,6.8,17c-0.1,1.2,0.9,2.4,1.3,3.6
		c0.8,2.2,2.2,4.3,2.3,6.5c0.2,5.4,0.5,10.4,4.7,14.9c1.8,1.9,0.5,6.5,0.8,9.9c0.1,1.8,0.3,3.6,0.7,5.3c0.3,1.1,1.2,2,1.6,3.1
		c1.9,4.9,0.2,10.8-3.6,12.9c-4,2.2-9.7,0.8-12.9-3.4c-1-1.3-2.1-2.8-2.3-4.3c-0.6-4.5-2.9-8-5.2-11.8c-1.7-2.8-0.5-7.5-0.7-11.3
		c-0.1-1.8-0.1-3.6-0.3-5.3c-0.1-0.8-0.8-1.5-1-2.2c-2.2-6.7-4-13.5-6.6-20c-1.1-2.8-3.6-4.9-5.6-7.6c-1.6,1.4-2.9,2.6-4,3.6
		c3,7.7,6.2,15.2,8.8,22.8c1.2,3.5,1,7.4,1.4,11.2c0,0.5-0.4,1.1-0.2,1.4c4.1,6.3,2.8,13.4,3.4,20.2c0.1,1,0.5,1.9,0.6,2.9
		c0.4,5.6,0.9,10.8,5.5,15.3c3.5,3.4,2.4,8.6,0,13.1c-0.8,1.6-0.7,3.8-0.7,5.7c0,1.3,0.8,2.6,0.9,3.9c0.5,4.3,0.3,8.5-4,11
		c-3.8,2.3-7.7,1.8-11.3-0.5c-4-2.5-6.4-6.5-5.2-11c1.1-4.2,0.2-7.2-1.7-10.9c-1.4-2.7-1.2-6.8-0.4-10c0.6-2.6,0.6-4.3-0.4-6.8
		c-1.9-4.4-2.7-9.3-4.3-15.1c0.4,5.1,1,9.3,0.9,13.4c-0.1,7.4-0.7,14.8-0.9,22.3c-0.1,1.9,0.5,3.9,1,5.9c0.7,2.4,2.4,4.7,2.2,7
		c-0.6,6.1-1.7,12.3-3.3,18.2c-1.5,5.4-7.4,8.9-12.8,8.6c-5.8-0.3-9-4.4-6.9-9.9c1.7-4.4,2.6-7.8-0.5-12.4
		c-1.6-2.3-0.8-7.3,0.6-10.2c1.5-3,1.8-5.3,0.8-8.2c-0.5-1.4-0.5-2.9-0.5-4.4c-0.1-4.7,0-9.4,0-14.6c-4.7,1.2-8.8,1.6-12.1,3.5
		c-1.7,1-2.5,4.5-2.8,6.9c-1.1,9.3-1.9,18.7-2.9,29.6c3.5,3.5,4.7,9.1,0.5,15.5c-0.5,0.7-0.1,2.5,0.5,3.5c2.4,3.7,3.5,7.9,0.2,11
		c-2.2,2.1-6.2,3.4-9.3,3.4c-4.6-0.1-8.3-3.3-9.1-8c-0.9-5.2-1.6-10.2-3.8-15c-0.9-2-0.2-5.6,1-7.6c4.6-7.4-0.5-15.1,1.8-22.6
		c-13,16.8-29.4,28.6-48.1,37.1c-4,1.8-2.6,4.7-2.1,7.1c0.3,1.3,2.3,2.9,3.8,3.2c9.4,2.3,18.9,4,28.2,6.6
		c17.7,4.8,32.5,14.4,43.9,28.9c11.2,14.3,22.2,28.8,33.3,43.1c3.2,4.2,2.3,7.8-1.2,11c-2.6,2.4-2.2,4.3-1,7.4
		c4.1,10.5,8.2,21.1,11.2,31.9c3.6,13.1-0.3,25-9.9,34.3c-7.1,6.9-15.4,12.6-23.3,18.8c-1.5,1.2-3.2,2.2-5.2,3.4
		c39.6,14,44.2,28.4,48.6,51c6.1,2.2,15.3-2,17.4,8.3c0.5-0.1,1,0,1.1-0.1c6.5-8.5,15.5-10.1,25.4-9.6c6.5,0.3,13,0.7,19.5,0.9
		c5.1,0.2,9.1,1.8,10.4,7.4c0.7-0.4,1.3-0.5,1.5-0.9c6.2-8.1,14.9-9.4,24.2-8.7c3,0.2,4.9-0.4,5.9-3.7c1.5-4.7,4.8-8.5,9.7-9.3
		c5.6-1,8.3-4.2,10-9.6c-1.7-0.6-3.5-1.2-5.3-2c-19.2-7.8-31.2-21.5-34.3-42.4c-0.3-2.1-0.6-4.3-0.9-6.4c-0.9-6.5-2.3-12.1-9.7-15
		c-6.6-2.7-6.7-6.3-0.4-10.3c5.2-3.2,8.1-7.4,10.8-12.7c10.1-19.7,38.5-20.8,50.5-2.2c2.8,4.3,5,9.1,6.4,14
		c4.7,16.6,18.7,25,34.2,28.2c1.4-4,2.6-8.1,4.4-12c2.2-4.5,4.5-9,7.5-12.9c4.3-5.5,8.3-4.9,11.8,1.2c3.8-2.1,7.4-6.7,12-3.2
		c5.1,4,0.6,8.8-0.1,12.2c2.8,1.8,7.1,3.2,7.2,5c0.3,3-1.1,7.4-3.4,9.1c-7.2,5.3-14.9,9.9-22.7,14.2c-3.5,1.9-6.1,3.9-7.8,7.7
		c-6.9,15-18.5,24.5-34.8,28c-1.8,0.4-3.7,2.3-4.8,4c-1.4,2-2,4.5-3.3,7.5c8.6,2,8.7,8.6,8.4,15.6c-0.4,7.7-0.3,15.3-0.5,23
		c-0.1,3.8,1.3,5.7,5.5,5.9c7.7,0.5,10.5,3.7,10.8,11.5c0.1,2.6-0.2,5.3-0.8,7.9c-2,7.9-4.5,9.7-12.6,9.6c-1.3,0-2.6,0-4.5,0
		c-0.3,5.9-0.6,11.5-0.9,17.7c7.8,0.7,15.6,1.2,23.3,2c16.1,1.6,32.1,3.2,48.2,5.2c2.7,0.3,5.2,2.4,7.8,3.5c1.3,0.5,2.7,1,4,1.1
		c4.2,0.2,8.3,0.1,12.5,0.4c1.9,0.2,3.7,1.1,5.4,2.5c-7.4,3.4-15.7-1-22.8,2.3c0,0.5,0.1,0.9,0.1,1.4c6.1,0.7,12.3,1.5,18.4,2.2
		c0,0.7,0,1.4,0,2.1c-1.6,0.3-3.2,1-4.8,0.9c-4.5-0.2-9-0.5-13.5-1c-4.1-0.4-4.1-0.5-5.9,3.6c5.5,0.9,11,1.7,16.5,2.7
		c0.4,0.1,0.6,0.7,1.3,1.6c-7.8,3.6-16.7-2.5-24,1.8c0.1,0.6,0.1,1.2,0.2,1.8c6.4,1.2,12.9,2.3,19.3,3.5c0,0.7-0.1,1.5-0.1,2.2
		c-1.4,0.2-2.8,0.8-4.2,0.7c-4.6-0.5-9.4-0.6-13.8-1.9c-5.1-1.5-7.4,0.9-9.1,5.2c6.4,2.1,13.9,0.1,19.5,4.6
		c-0.1,0.6-0.2,1.3-0.3,1.9c-5.3-0.6-10.7-0.6-15.8-1.8c-5.9-1.4-9.6,0.2-12.1,5.9c7,1.4,13.9,2.8,20.9,4.2c0,0.7-0.1,1.4-0.1,2
		c-1.6,0.2-3.2,0.8-4.7,0.6c-5.3-0.7-10.6-1.3-15.8-2.6c-3.8-0.9-5.6,0.5-6.9,3.7c7,1.4,13.9,2.8,20.8,4.2c-0.1,0.8-0.1,1.5-0.2,2.3
		c-1.4,0.2-2.9,0.6-4.3,0.4c-4.1-0.5-8.3-1.1-12.4-1.8c-7.9-1.4-7.9-1.4-13.3,6.4c7.5,1.5,14.8,2.9,22.2,4.3
		c-0.1,0.6-0.2,1.2-0.3,1.8c-9,3.9-19.1-5.8-29.4,1.4c8,3.1,15.9,1.6,22,5.8c-0.1,0.6-0.2,1.2-0.3,1.7c-2.5-0.2-5-0.2-7.5-0.5
		c-3.5-0.4-7.1-0.6-10.3-1.8c-5.5-1.9-8.4,0.5-10.6,5.5c8,0.9,15.8,1.8,23.6,2.7c0,0.6,0.1,1.2,0.1,1.8c-1.7,0.4-3.5,1.3-5.2,1.3
		c-5.3-0.2-10.7-0.3-15.9-1.4c-5.2-1.1-8.3,0.3-10.1,5.4c7,2.9,15.2,2.4,21.4,7.2c-0.1,0.5-0.2,0.9-0.3,1.4c-1.5,0-3,0.3-4.4,0
		c-5.2-1.2-10.5-2.2-15.5-3.9c-4.1-1.4-6.3-0.1-7.8,4c7.4,1.5,14.7,3,22,4.5c-0.1,0.7-0.2,1.5-0.3,2.2c-1.8,0.2-3.7,0.6-5.5,0.4
		c-4.3-0.5-8.6-1.3-12.8-2.1c-7.5-1.3-7.5-1.3-11.7,6c7,1.5,13.8,3,20.7,4.4c-0.1,0.7-0.2,1.5-0.3,2.2c-1.6,0.1-3.3,0.5-4.8,0.3
		c-4.6-0.7-9.2-1.4-13.8-2.4c-4.3-1-7.1-0.1-8.4,4.7c6.4,2.5,14.1,1.9,19.8,6.5c-0.1,0.5-0.2,1.1-0.4,1.6c-1.8-0.1-3.7-0.1-5.5-0.4
		c-4.1-0.8-8.2-1.6-12.1-2.9c-4.4-1.5-7-0.1-8.9,4.3c7.2,1.4,14.3,2.7,21.4,4.1c0,0.7,0,1.5-0.1,2.2c-1.9,0.2-3.8,0.6-5.7,0.5
		c-4-0.4-7.9-1.1-11.9-1.7c-8-1.2-8-1.2-12.6,6.2c7.1,1.7,14.2,3.3,21.3,4.9c-0.1,0.7-0.1,1.5-0.2,2.2c-1.7,0.1-3.5,0.5-5.1,0.3
		c-4.1-0.6-8.2-1.6-12.3-2.4c-8.2-1.5-8.2-1.5-12.9,6.5c7,1.7,13.9,3.4,20.8,5.1c0,0.6-0.1,1.3-0.1,1.9c-1.6,0.2-3.2,0.9-4.7,0.6
		c-4.4-0.7-9-1.1-13.2-2.7c-5.4-2-8.5-0.2-10.7,4.9c6.9,2,13.8,4.1,20.8,6.1c-0.1,0.7-0.3,1.4-0.4,2.1c-2.1,0-4.3,0.4-6.3-0.1
		c-4.4-0.9-8.8-2.1-13-3.5c-4.2-1.4-6.5,0.1-7.9,4.2c6.6,1.7,13.1,3.3,19.5,4.9c0,0.6-0.1,1.2-0.1,1.7c-1.6,0.2-3.2,0.7-4.7,0.5
		c-3.9-0.6-7.9-1.3-11.8-2.2c-7.2-1.6-7.5-1.5-11.2,5.7c7,1.9,14,3.8,21,5.7c-0.1,0.8-0.3,1.5-0.4,2.3c-2,0-4,0.3-5.8-0.1
		c-4.6-0.9-9.2-1.7-13.6-3.2c-4.6-1.6-6.8,0.2-8.5,4.5c6.4,2.3,13.5,2.4,19.2,6.2c-0.1,0.6-0.2,1.2-0.4,1.7
		c-2.2-0.2-4.4-0.2-6.5-0.7c-3.9-0.8-7.9-1.6-11.6-2.9c-3.7-1.3-5.6,0.1-7,3.5c6.6,2.8,14.5,2.1,20.7,7.9
		c-9.5,2.3-17.5-6.1-26.1-2.7c-0.1,0.6-0.2,1.2-0.2,1.8c6.3,1.9,12.6,3.8,18.9,5.7c-0.1,0.6-0.2,1.1-0.3,1.7c-1,0.3-2,0.7-3,0.8
		c-0.8,0.1-1.7-0.1-2.5-0.3c-7.9-1.8-15.5-3.7-24.1-3.2c-10.4,0.6-21.1-2.6-31.7-3.7c-18-1.9-36.2-3.1-54.2-5.4
		c-18.8-2.4-37.5-6.1-56.3-8.5c-23.6-3-47.3-6.1-71-7.8c-31.6-2.3-62.9-6.4-94-12.5c-12.5-2.4-25.5-2.8-38.3-3.2
		c-25.6-0.9-50.5-5.6-75.6-10.2c-22.2-4.1-44.9-6.1-67.4-8.1c-32.1-2.9-63.8-7.4-95.2-14.5c-11.6-2.6-23.8-2.8-35.7-4.1
		c-13.4-1.5-26.8-2.9-40.1-4.6c-15.5-1.9-31-4-46.5-6.2c-5.2-0.7-10.7-0.7-14.1-6c-0.5-0.8-2.4-0.8-3.7-0.9c-4-0.4-8-0.6-11.9-1.1
		c-1.4-0.2-2.8-1-4.1-2.2c7.3-3.5,15.5,1.5,22.7-1.7c0-0.5-0.1-1-0.1-1.5c-6-1.3-12.1-2.7-18.1-4c0.2-0.9,0.4-1.9,0.5-2.8
		c5.6,0.8,11.3,1.2,16.7,2.6c4.4,1.1,7.4,0.5,9.9-3.6c-6.1-2.6-13.5-1-19-5.1c0.1-0.5,0.1-1,0.2-1.4c2.7,0,5.4-0.2,8,0.1
		c3,0.3,5.9,1.1,8.8,1.7c7.5,1.4,8.5,1,14-5.9c-6.4-1.2-12.6-2.3-18.7-3.4c0-0.6,0-1.2,0-1.9c1.2-0.3,2.5-0.9,3.7-0.8
		c4.8,0.5,9.7,0.7,14.3,2c5,1.5,7.6-1.1,10.8-4.4c-6.6-1.2-12.7-2.4-18.9-3.5c0.1-0.7,0.1-1.3,0.2-2c1.8-0.2,3.6-0.7,5.4-0.5
		c4,0.3,7.9,1,11.9,1.5c6.6,0.9,6.6,1,11.7-4.9c-6-1.3-11.9-2.7-17.8-4c0.1-0.7,0.2-1.4,0.3-2.1c1.5-0.1,3-0.5,4.5-0.3
		c4,0.5,8,0.9,11.8,2.1c5.5,1.7,9.2-0.2,12.3-4.7c-5.7-1.5-11.3-2.9-16.9-4.4c0.1-0.7,0.2-1.3,0.3-2c1.6-0.1,3.3-0.4,4.9-0.2
		c4.1,0.7,8.3,1.3,12.2,2.6c3.8,1.2,5.9-0.3,8.1-3.6c-6.4-1.3-12.4-2.5-18.3-3.8c0.1-0.7,0.1-1.5,0.2-2.2c1.9-0.1,3.9-0.6,5.7-0.3
		c4.6,0.7,9.1,2,13.7,2.5c1.5,0.2,3.9-0.9,4.5-2.1c1.3-2.6-0.7-3.6-3.2-4.2c-3.1-0.8-6.1-2.1-9.2-3.2c0.2-0.8,0.4-1.5,0.6-2.3
		c3.6,0.4,7.2,0.9,11.2,1.4c0.1-0.6,0.4-1.3,0.4-2.1c-1-17.2-2.1-34.4-2.8-51.6c-0.2-5.1-2.1-7.8-7.1-9.1
		c-10.3-2.7-14.3-17.5-6.9-25.3c1.7-1.8,4.9-3,7.5-3.1c3.5-0.2,4.4-1.6,4.2-4.5c-0.4-7.8-0.7-15.6-1.1-23.5
		c-0.5-10.3,2.7-13.8,13.1-14.4c1.7-0.1,3.3-0.1,5,0.1c7.2,0.6,9.6,2.9,10.6,10c0.4,2.7,0.7,5.5,1,8.8c2.9-1.6,5.5-3.1,8.1-4.5
		c14.5-7.9,28.9-15.9,43.4-23.6c2.8-1.5,3.7-3.2,3.3-6.2c-0.6-5.3-0.8-10.6-1-16c-0.2-6.8,2.6-10.2,9.4-11.2c2.9-0.4,6-0.4,9-0.1
		c5.5,0.6,7.9,3.1,8.5,8.7c0.6,5.6,0.9,11.2,1.3,18c8.2-5.7,16.7-8.4,26.1-5.7c8.3,2.3,18.5,0,23.7,9.8c13.9-7.3,41.4-3.2,45.9,6.3
		c5.3-1.7,10.6-3.4,16.6-5.4c0.1-11.4,7.7-20.2,16-28.2c8.6-8.2,20-10.3,31.1-12.4c22.4-4.1,45.1-3.7,67.8-2.9
		c5.4,0.2,8.3-1.2,9.5-6.6c3.1-13.7,6.5-27.4,9.8-41.1c-0.5-0.2-1-0.4-1.5-0.5c-1.9,2.4-4,4.7-5.8,7.2
		c-11.8,16.8-28.1,21.3-47.1,16.1c-12-3.3-23.5-8.1-35.3-12.3c-1.5-0.5-2.9-1.3-5.6-2.5c2.5,5.7,4.5,10.3,6.5,14.9
		c3.2,7.5,2,12-3.8,14.8c-6.3,3-11.2,1-14.8-6.4c-2.9-5.8-5.5-11.7-7.7-16.4c-5.5-0.5-11.2,0.6-14.4-1.8
		c-6.5-4.9-12.8-10.6-15.2-19.1c-0.5-1.7-1.4-3.2-2.1-4.8c-0.1-0.1-0.3-0.2-0.3-0.4c-1.9-8.1-4.9-16.1-5.2-24.3
		c-0.1-3.5,5.2-7.3,8.5-11.6c-7.5-16.9-15.6-35.1-23.7-53.3c-1.1-2.6-2.5-5.1-3.4-7.8c-2.2-6.5-5-10.8-13.3-11.9
		c-11.6-1.6-18.6-14.7-16.9-27.4c1.6-11.5,12.5-20.7,24.6-20.9c11.9-0.2,22.6,8.7,24.4,20.2c1,6.9-0.1,13.2-4.4,18.9
		c-1,1.3-1.2,4.1-0.5,5.6c10.8,23.2,21.8,46.4,32.8,69.6c1.7,3.5,3,5.8,8,4.6c9.6-2.2,17.2,2.9,22.2,10.3c4.4,6.5,10,8.4,17.2,8.8
		c9,0.4,18,1.1,26.9,1.8c6.5,0.5,6.4-5.8,9.3-8.9c0.6-0.6-0.8-3.7-1.9-5.2c-4.6-6.1-4.7-7.5,0.1-13.5c9.7-12.3,19.7-24.3,29.2-36.8
		c14.6-19.1,34.5-28,57.6-31.5C531.2,424,532,423.9,532.9,423.8z M527.7,578.6c1.8,1.7,4.4,3,5.4,5c3.6,7.3,6.8,14.9,10.4,23
		c3.6-5.4,6.8-10.2,10-15.2c-6.4-4.4-12.6-8.3-18.4-12.7c-2.7-2.1-4.9-2.3-7.3,0c-9.4,3.7-17.8,1.2-26.6-5.7
		c2.8,9.3,5.2,17.1,7.7,25.4C515.5,591.5,521.6,585,527.7,578.6z M676.4,273.9c0.2-0.6,0.3-1.1,0.5-1.7c-2.5-1.1-4.9-2.3-7.5-3.1
		c-6.6-2.1-13.2-4-19.7-6.2c-1.5-0.5-2.8-1.7-4-2.9c-4.9-4.8-3.8-10.7,2.8-12.8c3.1-1,6.6-1.3,9.8-1.1c7.2,0.6,14.4,1.8,21.6,2.6
		c1.5,0.2,3.1,0,4.6,0c-5.8-1.5-10-7.2-16.7-6c-1.6,0.3-3.4-1.1-5.1-1.5c-1.2-0.3-2.4-0.4-3.7-0.5c-5.4-0.2-11,0.4-16.3-0.5
		c-8-1.4-12.1-5.5-11.5-10.2c0.6-5,6-8.4,13.4-8.9c2.5-0.2,5-1.4,7.5-1.7c8.6-1.2,17.2-2.2,25.8-3.2c0.5-0.1,0.9,0.3,1.4,0.4
		c4.4,0.9,8.8,1.7,14.4,2.8c-0.9-5.5-1.2-10-2.5-14.2c-0.5-1.7-3.3-4.1-4.8-4c-4.3,0.3-8.8,1.3-12.8,3c-6.3,2.5-12.3,5.9-18.4,8.8
		c-1.2,0.6-2.6,0.6-3.8,1c-2,0.6-4,1.2-5.8,2.2c-7.1,3.7-14.6,4.9-22.3,3.4c-2.6-0.5-6-3.2-6.7-5.6c-0.7-2.1,1.3-5.7,3.1-7.7
		c2-2.2,5.3-3.3,8-4.9c1.4-0.8,2.7-1.7,4.1-2.5c7.5-4.5,15-9.1,22.5-13.6c0.7-0.4,1.7-0.1,2.4-0.4c1.2-0.4,2.6-0.7,3.5-1.5
		c3.8-3.4,8.2-4.9,13.3-4.7c1.6,0,3.2-1,5.5-1.9c-8.7-6-16.6-3.3-23.8-0.7c-6.4,2.3-12.1,6.8-18.1,10.3c-1.3,0.7-2.8,1-4.2,1.6
		c-0.9,0.4-2,0.7-2.5,1.4c-6.3,9.1-16.7,10.1-25.9,13.3c-1.6,0.6-3.7,0.2-5.5,0c-8-1.2-10.6-7-6.3-13.8c0.9-1.4,1.8-2.9,3.1-3.9
		c5.5-4.4,11.3-8.4,15.7-14.1c1-1.3,3.2-1.7,4.7-2.6c1.2-0.7,2.4-1.6,3.5-2.4c3.9-2.7,7.7-5.3,11.6-8c1.3-0.9,2.6-1.9,4.1-2.6
		c4-2,8.1-4.2,12.3-5.9c3.5-1.4,7.2-2.1,11.3-3.3c-9.8-9.2-20.1-10.2-31.3-5.4c-5,2.2-8.8,5.4-13.1,8.2c-4,2.7-7,5.9-10.3,9.2
		c-5,4.9-9.5,9.9-13.5,15.7c-2.5,3.6-6.2,6.3-9.3,9.4c-4.4,4.3-9.4,7.5-15.6,8.2c-7.3,0.7-12.1-4-9.9-11c1.6-5.2,4.2-10.7,8-14.5
		c5.9-5.9,6.7-15.8,15.4-19.4c0.4-0.2,0.5-1.2,0.6-1.8c1.7-5.8,5.8-9.1,11-11.5c1-0.5,2.8-0.7,3.1-1.4c2.5-6.5,7.6-10.1,13.9-12.3
		c-8.1-0.3-15.5,1.2-21.9,6c-4,3-8.2,5.9-11.9,9.3c-4.5,4.1-9.2,8.2-12.9,13.1c-4,5.3-6.9,11.4-10.3,17.2c-0.5,0.8-1.3,1.5-1.9,2.3
		c-1.9,2.4-4.1,4.7-5.6,7.3c-3.6,6-8.5,10.3-15.3,11.9c-5.3,1.3-9.3-1.6-9.1-6.9c0.3-5.2,1.5-10.4,2.8-15.5c1-3.9,2.4-7.8,4.3-11.4
		c3.3-6.4,7.1-12.5,10.8-18.7c0.5-0.8,1.6-1.2,2.2-2c2.6-3,5.1-6,7.6-9.1c-0.4-0.4-0.8-0.7-1.2-1.1c-2.1,1.3-4.6,2.2-6.2,4
		c-4.9,5.4-9.8,11-14.2,16.9c-3.1,4.2-6.1,8.6-8,13.4c-2.5,6.2-3.8,12.9-5.6,19.3c-0.6,1.9-1.2,3.8-2.2,5.6c-2.2,4.3-5.6,7-10.8,6.3
		c-5-0.7-6.4-4.7-7.5-8.8c-2.9-10.6,1.9-20.5,2.7-30.8c0.1-0.8,0.6-1.5,1.1-2.2c3.5-6.2,4.6-13.7,10.3-18.7c0.4-0.3,0.4-1,0.6-1.6
		c-3.4,1.2-6.5,2.7-8.5,5.1c-3.2,3.8-6.1,7.9-8.3,12.3c-2.4,4.9-4.8,10.3-5.3,15.6c-0.7,6.9,0.3,14,0.5,21.1
		c0.1,1.8,0.5,3.9-0.2,5.4c-1.4,2.8-2.9,6.6-5.3,7.5c-2.4,0.9-6.9-0.4-8.9-2.3c-6.1-6-8.6-13.4-8.7-22.4c-0.1-7.6-0.7-14.9,1.8-22.1
		c0-0.1-0.1-0.2-0.2-0.4c-0.3,0.1-0.7,0.2-0.8,0.4c-0.5,0.6-1.1,1.3-1.5,2c-5.5,9.2-6.1,19.2-4,29.4c1,5,2.9,9.8,3.8,14.9
		c0.7,4.2,0.2,8.6-4.5,10.6c-4.6,2-8.5,0.2-11.6-3.3c-3-3.3-5.7-6.7-8.6-10.1c0.2,4.7,1,9.4,2.8,13.7c3.8,9,2.9,13.3-4.6,19.3
		c-0.8,0.6-1.2,1.8-1.4,2.9c-1.2,7.1-2.7,14.2-4,21.2c-2.3,12.3-1.7,24.2,0.5,36.2c3.1,17.2,6,34.4,5.2,52.1c-0.3,7.5,1,15.4,3,22.6
		c7.3,26.4,26.3,41.8,50.7,51.2c36.6,14,72.7,10.2,107.7-5.6c25.3-11.4,45-28.9,54.8-55.8c1-2.7,2.4-2.2,4.6-1.4
		c4.2,1.4,8.6,3.3,12.8,3c20.8-1.8,35.2-29,25.5-47.6c-4.4-8.5-13.7-12.4-22.4-8.6c-4.1,1.8-7.4,5.4-11,8.2c-1.3,1-2.4,2.3-3.3,3.1
		c-1.7-4.9-3.4-9.3-4.8-13.7c-0.4-1.3,0-2.9,0-4.4c0-1,0.3-2.2-0.1-2.8c-3.5-5-1.8-9.6,0.2-14.2C660.2,270.1,668.3,272,676.4,273.9z
		 M871,738.2c-0.8,19.8-1.5,38.6-2.2,57.3c12.8,3.4,15,5.5,14,14.9c-0.4,3.5-1.4,7.8-3.8,9.9c-2.6,2.3-7.1,2.3-11,3.4
		c-2.7,17.9-5.8,19.8-24,14.5c-15.2,15.8-30.4,31.7-45.8,47.4c-3.9,4-7,7.1-5.3,14.2c2.9,11.6-3.2,17.5-15.3,17.3
		c-0.5,0-0.9,0.2-1.8,0.4c-0.2,2.9-0.2,5.9-0.8,8.8c-0.5,2.3-1.4,5.1-3.1,6.4c-5.9,4.5-12.5,3.7-19,1c-5.4-2.3-5.2-7.2-5.1-11.9
		c0-1-0.1-2,0-3c0.4-3.9-1.1-5.6-5.2-6.1c-39.1-5.1-78.2-10.3-117.3-15.7c-49.2-6.8-98.3-13.6-147.4-20.5
		c-47.5-6.7-95-13.4-142.4-20.3c-49.3-7.2-98.5-14.5-147.7-21.8c-7.7-1.1-15.3-2.3-23.4-3.6c0,3.1,0.2,5.6-0.1,8.1
		c-0.2,1.9-0.4,4.1-1.4,5.7c-2.7,4.2-11.3,6-18,4c-5.7-1.7-7.6-4.4-8.1-11c-0.1-2.2,0.1-4.5-0.7-6.4c-0.9-1.9-2.6-4.4-4.4-4.9
		c-5.5-1.3-7.1-5-7.6-9.8c-0.2-1.7-0.2-3.4-0.4-6.2c-18.3,16-35.8,31.3-54.4,47.5c3.5,0.8,5.1,1.3,6.9,1.6c15.2,2,30.5,3.3,45.5,6.1
		c15.4,2.8,30.8,5.2,46.5,5.2c10.1,0,20.4,1.1,30.2,3.4c34.5,7.9,69.3,12.9,104.6,15.7c19.7,1.6,39.5,3.5,59,7.1
		c23.4,4.3,46.7,9.3,70.6,10.2c14.3,0.5,28.8,0.5,42.8,3.2c31,5.9,62,10.7,93.5,12.7c21.9,1.4,43.8,3.9,65.6,6.7
		c18.1,2.3,36.1,6.4,54.2,8.7c30.7,3.9,61.5,6.9,92.3,10.6c4.3,0.5,7-0.2,9.7-3.8c29.4-38.1,58.8-76.2,88.5-114.2
		c20.7-26.5,41.8-52.8,62.7-79.1c1.2-1.5,2.2-3.2,4-5.8C920.5,743.2,896.2,740.7,871,738.2z M347.3,781.2c-0.2,0.6-0.3,1.4-0.7,1.9
		c-24.7,31-68.7,23.1-84.6-3.5c-0.6-1-1.8-2.3-2.9-2.4c-4.2-0.7-8.5-0.9-13.3-1.4c0,4.8,0.6,9.2-0.1,13.4c-0.9,5.4-5.6,6.8-10.3,6.8
		c-3.7,0-8-0.3-11-2.1c-2.4-1.5-3.2-5.5-4.8-8.6c-10.6,6.7-21.6,13.7-32.5,20.6c-0.3,0.2-0.5,0.7-1.1,1.6
		c187.3,27.8,374.5,53.3,562.4,77.7c0-6.6,0-12.5,0-18.5c-40,23-93.8,1.7-106-44.8c-14.2,22.7-34.4,34.5-61.1,32.5
		c-26.9-2-45.3-16.3-55.1-42c-13.4,15.3-29.6,22.7-49.2,20.4c-19.8-2.3-34.3-12.7-43-30.9C408.2,827.5,362.8,821.1,347.3,781.2z
		 M639.2,517.8c13.7-3.9,36.5-18.7,48.9-31.7c-14.8-17.6-26.2-38.3-48.2-49.4c-0.6,1.4-1,2.2-1.3,2.9c-7.9,20.6-19.8,37.6-40.2,47.7
		c-1.6,0.8-2.6,3.2-3.4,5c-2.4,5.6-3.5,12.1-6.9,16.9c-9.4,13.3-22.6,22.9-36.1,33.5c-7-7.4-13.5-14.6-20.3-21.7
		c-9.4-9.7-14.7-21.2-15.6-34.8c-0.1-1.7-0.8-3.8-2-4.9c-10.5-10.4-17.2-22.6-19.3-38.3c-15.4,11.8-25.1,27.3-37.4,42
		c10.6,9.2,20.6,17.9,31.3,27.2c1.9-11.8,3.6-22,5.3-32.1c0.7,0.1,1.3,0.1,2,0.2c0.1,1.9,0.5,3.7,0.3,5.6
		c-1.2,17.3-2.2,34.6-3.8,51.8c-0.5,5.1,0.7,7.5,5.9,7.9c5.3-9,13.1-13.8,23.7-12.1c12.4,2,19.1,9.9,20.5,22.1
		c19.5,3.6,51.4,2.7,74.4-2.2c8.6-1.8,17.1-4.2,25.6-6.7c1-0.3,2.5-2.9,2.2-3.6c-2.5-5.4-5.6-10.4-8-15.8c-3.3-7.5-5-15.9-12.1-21.3
		c-0.6-0.5-0.8-1.6-1.9-3.7c2.7,2,4.3,3.1,5.8,4.3c-0.9-4.6-1.8-9-2.7-13.4c0.7-0.2,1.3-0.3,2-0.5
		C631.5,501,635.2,509.3,639.2,517.8z M748.2,907.5c0-3.9,0-6.9,0-9.8c-0.1-6.7-0.3-6.8-6.9-7.6c-14-1.7-28.1-3.5-42.1-5.4
		c-38.9-5.2-77.9-10.3-116.8-15.6c-45.7-6.1-91.4-12.2-137.1-18.5C404,844.9,362.9,839,321.7,833c-51.4-7.4-102.8-14.9-154.2-22.4
		c-4.8-0.7-6.7,0.7-7.3,5.5c-0.7,4.7,1.5,8.4,5.5,9c44.5,6.6,88.9,13.3,133.4,19.8c47.6,7,95.2,13.8,142.9,20.5
		c48.8,6.9,97.6,13.8,146.4,20.6c43,6,86.1,11.7,129.2,17.6C727.3,904.9,737.2,906.1,748.2,907.5z M939.3,574
		c-0.4-0.7-0.9-1.3-1.3-2c-9.9,0.8-15.7,10.2-24.7,13c7.1-8.6,17.7-14.6,20.4-28.1c-11.9,5.3-16.1,16.4-23.8,23.9
		c1.3-8.4,9.5-14.3,8-23.5c-7.9,8-12,17.6-13.9,28.9c0.4-0.1-0.1,0.2-0.6,0.2c-16.8,0-34.6-12.3-41-28c-2.2-5.4-4.1-11-6.9-16
		c-5.2-9.3-13.7-13-24-11.5c-10.1,1.5-16.7,7.4-20.3,17.1c5.9,2.5,9.7,6.6,9.5,12.9c-0.2,5.6-4.6,7.5-9.2,8.6
		c0.8,4.6,1.6,8.8,2.2,13.1c1.6,11.4,5.8,21.4,14.1,29.6c21.5,21.3,63.8,19.5,77.7-13.9c1.5-3.7,4.2-5.6,7.7-7.2
		c6.3-2.9,12.5-6.2,18.4-9.9C934.4,579.5,936.7,576.5,939.3,574z M779.8,748.4c1.6-1.8,2.8-3.2,4-4.6c18.9-19.7,37.6-39.6,56.8-59
		c4.5-4.6,4.8-9.2,4-15c-12.1,12.4-23.7,24.5-35.5,36.5c-11.6,11.8-22.8,24.1-35.7,34.7c1.1-2.8,2.8-5,4.7-6.9
		c13.2-13.7,26.3-27.3,39.5-41c8.6-8.9,17.2-17.6,25.6-26.7c1.3-1.4,1.5-3.8,2.3-5.7c-1.7-0.6-3.3-1.5-5-1.6
		c-7.6-0.4-15.3-0.7-22.9-0.9c-5.3-0.2-9.6,1.6-13.4,5.4c-35.8,35.4-71.6,70.6-107.4,106c-1.2,1.2-2.3,2.6-3.6,4
		c10,0.8,19.9,0.4,29.1,2.8c8.6,2.3,13.3-0.9,18.7-6.4c5.5-5.6,10.6-10.7,10.1-19.3c-0.1-2,1.9-4.7,3.7-6
		C760.2,740.5,774.8,740.1,779.8,748.4z M621.9,622.6c0.7,0.4,1.4,0.8,2.1,1.2c-1.4,2.8-3,5.5-4,8.4c-0.7,1.9-0.4,4.1-0.6,6.1
		c2.3-0.4,5.8,0.1,6.7-1.2c3.8-5.9,9.4-9.2,14.9-12.9c2-1.3,3.9-3.6,4.5-5.8c1.9-7,7.3-9.7,13.1-12.6c15.1-7.6,30-15.7,41-28.8
		c3.8-4.5,7.4-10.4,8.2-16.1c2.3-16.4-5.8-30.4-11.6-43.8c-12.7,7.9-24.8,15.6-37.3,23.4c1.2,2.4,2.7,5.3,4.2,8.3
		c6-2.9,11.6-6,18.2-3.8c-0.8,1.3-1.9,2.1-3,2.4c-8.5,2-14.8,7.1-20.5,13.5c-7,8-14.5,15.6-21.8,23.4c-4.1,4.4-9,6.2-15.2,6.1
		c-5.9-0.1-11.9,1-17.8,1.8c-1.5,0.2-4.3,1.8-4.2,2.2c1.2,5-4,5.8-5.6,8.9c-1.8,3.5-4.2,6.8-5.5,10.5c-1.1,3-0.4,6.2,3.4,8
		c4-5,6.1-11.3,12.1-14.5c0.1,2-0.4,3.6-1.2,5.1c-1.6,3.3-3.5,6.4-5,9.7c-1.4,3-0.7,5.5,2.4,7c3.5,1.8,3.7-1.5,4.9-3.2
		c2.4-3.4,4.7-6.8,7-10.2c0.6,0.3,1.2,0.6,1.8,1c-0.4,1.4-0.7,2.8-1.3,4.2c-1.1,2.4-2.5,4.7-3.7,7.1c-1.1,2.3-2.3,4.7,0.8,6.5
		c3.1,1.8,4.8,0.1,6.5-2.4C617.3,628.7,619.6,625.7,621.9,622.6z M646.4,800c-0.5,16.2,3.5,30.3,12.5,43
		c18.9,26.6,58.3,35.4,85,19.1c3.4-2.1,5.1-4.4,5.1-8.7c-0.1-12.8,0.2-25.6,0.7-38.4c0.2-4.4-1.2-6.4-5.7-6.7
		c-13.6-0.9-27.2-2.1-40.8-3.2c-3.9-0.3-7.9-0.6-12.2-1c0.3,2.4,0.7,4.3,0.8,6.3c0.2,4.2-0.2,8.2-5.2,9.5c-3.8,1-7.7-1.5-9.5-6.3
		c-1.2-3.4-1.8-7-2.8-11C665.4,801.7,656.2,800.9,646.4,800z M689.9,764.2c-0.6-0.6-1.2-1.2-1.7-1.9c34.2-33.2,68.5-66.4,102.7-99.7
		c-0.5-0.7-0.9-1.5-1.4-2.2c-8.3-0.2-16.6-0.2-24.8-0.8c-7.5-0.5-13.3,2.1-18.7,7.4c-33.2,32.7-66.7,65.2-100.1,97.8
		c-1.3,1.3-2.5,2.8-3.7,4.1c9.2,0.9,18,1.3,26.6,2.8c10.3,1.8,10.3,2.2,11.7,13.7c1.6-2.8,2.7-4.4,3.5-6.2c1.6-3.2,2.5-7,4.9-9.5
		c8.6-9.3,17.6-18.2,26.7-27c24.1-23.7,48.2-47.4,72.4-71.1c2.5-2.5,5-4.9,3.4-8.9C757.5,696.6,723.7,730.4,689.9,764.2z
		 M528.9,788.2c0,1.9,0,3.6,0,5.2c0.7,27,17.9,48.2,44,54.1c26.4,6,53-6.5,65.2-30.2c2.9-5.7,3.2-11.3,2.3-17.7
		c-23-2.2-45.9-4.4-68.8-6.6c0.1,2.8,0.4,4.8,0.3,6.7c-0.1,3.3-1,6.4-4.7,7.3c-3.9,1-7.1-0.5-8.8-4c-1.3-2.6-1.6-5.7-2.7-8.5
		c-0.6-1.4-1.8-3.3-3-3.5C545,789.9,537.2,789.1,528.9,788.2z M603.4,639.3c0-0.5,0-1.1,0.1-1.6c-1.4-0.8-2.9-1.6-4.3-2.5
		c-2.1-1.2-5.1-2-6.1-3.8c-3-5.1-7.1-5.2-12-4.3c-2.8,0.5-5.6,0.8-8.4,1c-31.9,2.3-61.6-5.2-88.8-21.7c-11.1-6.7-22.6-3.4-34.1-4.7
		c12.4,8.8,24.3,17.3,36.3,25.7c13,9.2,26.9,16.6,42.9,19.1c5.7,0.9,11.5,1.2,17.3,1.8c0,0.4,0,0.8-0.1,1.2
		c-5.9,0-11.8,0.6-17.6-0.1c-18.4-2.4-33.7-11.6-48.5-22.2c-10.9-7.8-22.3-15-33.5-22.5c-5.3-3.5-11.2-3.1-18.7-2.2
		c19.9,8.4,35.5,20.8,51.8,32.3c14.1,10,29.4,17.3,46.5,21c3,0.7,5.5,4.1,7.9,6c4.3-1.6,9.4-4.7,14.6-5c8.6-0.6,17.3,0.5,25.9,0.9
		c4.6,0.2,8.5,1.6,9.6,5.8c4.5-2,8.7-5.3,13.1-5.5c7.4-0.3,13.5-2.6,19.5-6.5c4.5-2.9,9.1-5.4,14-8.2c-0.9-0.5-1-0.7-1.1-0.7
		c-0.5,0-1,0-1.4,0.3c-4.9,2.7-9.1,2-14-0.8c-2.7-1.5-7.4-1-10.7,0.1c-10.1,3.3-19.9,7.5-29.9,11.1c-3.1,1.1-6.5,1.1-9.8,1.6
		c-0.1-0.4-0.1-0.7-0.2-1.1C576.9,649,590.2,644.2,603.4,639.3z M387.9,550.7c2.8,0,4.9-0.7,6.1,0.1c12.4,7.6,25.9,12.1,39.9,14.9
		c10.5,2.1,21.6,3.8,30.4-4.5c7.2-6.8,13.3-14.6,19.5-21.7c-11.8-8.6-22.6-16.5-33.6-24.5c-1.4,2.2-3,4.8-4.5,7.1
		c2.7,2.8,5.2,5.3,7.7,7.9c-0.3,0.4-0.7,0.8-1,1.1c-0.9-0.3-1.7-0.6-2.6-0.8c-5.3-1.5-10.6-3.5-16.1-4.3c-6.9-1-13.9-1.1-20.9-1.4
		c-11.1-0.4-20-3.3-27.1-13.3c-7.6-10.7-17.5-8.7-23.1,3.1c-1.4,3-5,7.3-0.9,9.7c4,2.2,7-2.1,9.4-5.3c1.1-1.4,2.3-2.6,3.5-4
		c0.5,0,1.1,0,1.6,0c-3.5,11.5,2.5,17.3,12.3,20.9c-0.3,0.3-0.5,0.7-0.8,1c-1.8,0.2-3.6,0.5-5.8,0.7
		C384,542.1,386.1,546.6,387.9,550.7z M594.1,763.5c10.5,1.6,20.9,3.3,31.3,4.8c1.1,0.2,2.7-1,3.6-1.9c25.5-25.3,51-50.7,76.5-76
		c9.1-9.1,18.3-18.2,27.4-27.3c-0.1-0.5-0.2-1.1-0.3-1.6c-9.9,0-19.8-0.4-29.6,0.2c-3.4,0.2-7.2,2.6-9.8,5
		c-32.4,31.3-64.7,62.9-97,94.4C595.3,762,594.6,763,594.1,763.5z M487.8,765.1c0.8-2.1,1.6-3.3,1.5-4.3c-0.3-6.6,3.5-10.8,7.8-14.9
		c10.2-9.6,20.2-19.4,30.5-28.9c16.1-15,32.3-29.8,48.5-44.7c3.4-3.1,3.3-3.1,1.9-6.5c-18.9,18-37.9,36.1-57,54.2
		c-0.4-0.4-0.8-0.8-1.2-1.2c18.6-18.1,37.3-36.3,56.8-55.3c-6.2-0.5-11.4-0.6-16.4-1.3c-11.3-1.7-20,2-28.3,9.8
		c-25.9,24.5-52.3,48.4-78.5,72.6c-0.7,0.7-1.3,1.6-2,2.5c7.1,0.7,13.7,1.2,20.3,2.2C484.9,751.3,484.9,751.4,487.8,765.1z
		 M546.1,758.4c9.6,1.2,18.3,1.9,26.8,3.7c4.4,1,7.1,0.4,10.3-2.8c31.5-31.3,63.2-62.4,94.9-93.6c0.3-0.3,0.3-0.9,0.6-2
		c-8.1-0.4-15.9-0.7-23.6-1.2c-6.6-0.4-11.7,1.9-16.4,6.5c-28.3,27.7-56.9,55.1-85.3,82.7C551.1,754,548.6,756.1,546.1,758.4z
		 M627,664.2c-8.6-0.4-16.6-0.6-24.5-1.2c-5.2-0.4-9.3,1.4-13.1,4.9c-28.8,26.7-57.7,53.3-86.6,80c-1.4,1.3-2.6,2.8-3.6,3.8
		c10.8,2.1,21.3,4.1,31.8,6c1.1,0.2,2.7-0.7,3.6-1.6C565.3,725.7,595.7,695.4,627,664.2z M436,776.8c-0.4,0.9-0.6,1.2-0.6,1.5
		c-1.1,20.6,12.1,40,31.7,46.5c21,7,44.2-0.6,55.7-18.2c0.6-0.9,1.3-2.1,1.2-3.2c-0.3-5.3-0.9-10.5-1.4-15.9
		c-16.5-2-32.8-3.9-49.3-5.8c0.1,2.1,0.7,3.8,0.2,5c-1.1,2.5-2.3,5.8-4.5,6.9c-3.2,1.8-6.6-0.2-8.4-3.3c-1.3-2.4-1.8-5.3-2.8-7.9
		c-0.4-1.1-1.2-2.7-2-2.8C449.2,778.5,442.5,777.7,436,776.8z M525.8,661.3c-7.6-0.5-14.3-0.6-20.8-1.4c-8.3-1-14.6,1.7-20.8,7.1
		c-27.3,23.9-54.9,47.4-82.4,71.1c-0.7,0.6-1.3,1.5-1.5,1.8c10.3,1.5,20.5,2.8,30.6,4.8c3.3,0.7,5.3,0.3,7.8-2
		C467.2,715.9,495.9,689.1,525.8,661.3z M150.4,715.9c-0.2,0.5-0.5,0.9-0.7,1.4c3.8,2.2,7.3,5.5,11.3,6.3
		c33.9,6.9,67.8,13.8,101.9,19.8c41.1,7.3,82.3,14.4,123.6,20.4c44.8,6.5,89.7,12.1,134.7,17.3c45.3,5.2,90.8,9.4,136.2,13.8
		c28.5,2.8,57.1,5,85.6,7.6c5.5,0.5,7.4-0.7,7.4-6.3c0-3.3-0.9-6.7-1.6-10.9c-3,2.8-5.3,4.7-7.3,6.8c-4.6,4.9-10.1,6.4-16.7,5.7
		c-10.1-1.2-20.2-1.9-30.3-2.8c-4.5-0.4-8.5-1.6-10-7.3c-4.1,6-9.8,6-15.6,5.4c-8-0.8-15.9-1.5-23.9-2.4c-4.7-0.5-9.7-1-11.6-6.6
		c-9.5,6.5-41.3,3.7-48.9-4.1c-9.4,5.7-41.1,2.2-47-5.2c-8.8,6.1-41.1,2.2-47.2-5c-4.1,0.9-7.7,2.5-11.2,2.3c-8.5-0.5-16.9-2-25.3-3
		c-5.1-0.6-9.6-2.3-11-6.7c-4.2,1.1-8,3.1-11.6,2.9c-9.6-0.6-19.2-2.1-28.8-3.3c-5.3-0.6-10.4-1.4-11.2-6.9
		c-4.2,1.3-7.9,3.6-11.5,3.3c-10.6-0.9-21.1-2.9-31.6-4.4c-5.2-0.8-9.6-2.6-10.2-7.4c-4.8,1.1-9.5,3.5-13.9,3
		c-10.6-1-21-3.3-31.5-5.2c-4-0.7-7.2-2.6-7.9-7.6c-5.7,4.9-11.9,4.7-18.3,3.3c-7-1.5-14-2.8-21.1-4.2c-4.9-0.9-9.4-2.5-10.9-8.5
		c-5.5,5-11.5,4.8-17.7,3.4c-7.3-1.7-14.6-3.3-21.9-4.9c-4.9-1.1-9.6-2.5-10.4-9.2c-5.5,4.8-11.2,4.5-17.1,3
		C161.7,718.4,156,717.2,150.4,715.9z M475.4,659.2c-8.4-0.9-15.7-1.3-22.8-2.4c-7-1.1-12.4,1.3-17.8,5.6
		c-27.6,22.3-55.4,44.3-83.1,66.4c-1.4,1.1-2.6,2.3-4.9,4.3c2.8,0,4.4-0.2,6,0c9,1.4,18.1,2.6,27,4.5c2.8,0.6,4.4,0.5,6.5-1.3
		c22.1-19.3,44.2-38.4,66.4-57.6C459.8,672.5,467,666.4,475.4,659.2z M424.4,655.9c-0.1-0.5-0.1-1-0.2-1.5c-10-0.8-20-1.8-30.1-2.3
		c-1.6-0.1-3.5,1.1-4.9,2.1c-30.4,22.1-60.8,44.3-91.2,66.6c-1.2,0.8-2.2,1.8-3.2,2.7c10.2,1.9,20.2,3.4,30.1,5.7
		c3.2,0.8,5,0.5,7.5-1.4c27.2-21.4,54.6-42.7,81.9-64.1C417.6,661.1,421,658.5,424.4,655.9z M260.2,749c-0.1,1.3-0.3,2.2-0.3,3.2
		c-0.3,19.5,12.2,36.6,31.3,42.8c19.1,6.1,40-0.6,51.2-16.2c3.2-4.5,4.7-9,3.4-14.9c-15.6-2.6-31.4-5.2-47.4-7.9
		c0.1,1.2,0.1,1.7,0.1,2.2c0.4,4.2,0.3,8.3-4.6,9.8c-3.9,1.1-7.9-2.5-9.1-7.9c-0.5-2.2-0.8-4.5-1.2-6.8
		C275.7,751.8,268.1,750.4,260.2,749z M245.2,714c10.4,2.5,20.5,4.9,30.7,7.2c1,0.2,2.4-0.4,3.3-1.1c31.2-22.5,62.3-45.1,93.5-67.6
		c0.7-0.5,1.2-1.3,2.4-2.6c-8.3-1.1-15.7-2-23.1-3c-5.1-0.7-9.4,0.8-13.6,3.7c-21.6,14.7-43.4,29.2-65,43.9
		C263.9,700.9,254.4,707.6,245.2,714z M195.3,704.3c10.3,2.5,20.4,4.9,30.5,7.2c1.1,0.2,2.5-0.3,3.5-0.9
		c32.3-21.4,64.6-42.9,96.9-64.4c0.5-0.3,0.7-0.9,1.7-2c-7-1.2-13.2-1.9-19.3-3.3c-6.8-1.6-12.6,0.2-18.4,3.8
		c-30.7,19.3-61.6,38.4-92.3,57.7C196.8,703.1,195.8,703.9,195.3,704.3z M375.5,768.4c-7.9-1.2-15.5-2.3-23.7-3.5
		c0.4,3.8,0.6,6.7,1.2,9.6c3.7,17.4,13.7,29.5,30.8,34.7c16.9,5.1,32.3,1.6,45.1-10.9c1.2-1.2,2.3-3.4,2.2-5.1
		c-0.3-5.6-1.3-11.2-2-17.4c-12.6-1.7-25.5-3.5-38.7-5.3c-0.4,5.1,1.5,10.8-5.5,11.5C379.8,782.6,376.9,778.3,375.5,768.4z
		 M614.5,427.9c-4.8,21-18,33.5-37.8,39.8c-1.9,0.6-3.8,3.1-4.6,5.1c-3.2,8.8-5.6,17.8-8.8,26.5c-1.7,4.7-5.2,8.5-10.8,8.3
		c-5.5-0.3-8.2-4.5-10.1-9.2c-0.4-1.1-0.9-2.2-1.2-3.3c-1.5-7.3-3-14.7-4.2-22.1c-0.6-3.8-2.2-6.4-5.4-8.9c-4.5-3.5-9-7.7-11.7-12.5
		c-2.8-5.2-3.5-11.5-5.2-17.6c-3.3,0-0.8,2.5-1,4.3c-0.2,1.7-1.8,3.2-2.8,4.8c-1.3-1.3-2.6-2.6-3.8-4c-0.3-0.3,0.2-1.3,0.3-1.9
		c-0.4-0.1-0.8-0.2-1.2-0.3c-0.4,1.2-1.2,2.5-1,3.6c2.2,11.8,5.7,23.2,15.2,31.3c4.4,3.7,5.8,8,6.7,13.3c1.1,6.2,2,12.9,5.2,18
		c5.6,8.8,12.8,16.4,19.9,25.2c6.5-6,12.2-11.5,18-16.6c7.9-6.8,12.7-15.4,14.3-25.6c0.7-4.5,3-6.9,7-8.7
		c19.6-8.8,29.9-25.4,37.4-44.9C624.1,430.8,619.7,429.5,614.5,427.9z M281.9,637.7c-6-1.1-11.4-1.8-16.6-3.1
		c-7.5-1.8-14.2-0.5-21,3.4c-31.2,18.1-62.7,35.8-94.1,53.7c-1.2,0.7-2.3,1.5-3.9,2.6c5.6,0.9,10.5,1.6,15.4,2.6
		c5.6,1.1,11.4,4.3,16.5,3.3c5.5-1.1,10.1-6,15.3-9.1C222.7,673.5,251.9,655.9,281.9,637.7z M552.4,484.3c0.4,0.1,0.7,0.1,1.1,0.2
		c2.1-6.9,4.3-13.8,6.1-20.8c1.4-5.4,4.4-8.6,10-9.6c3.5-0.6,7.1-1.9,10.3-3.5c9.9-5,17.2-12.3,19.2-23.7
		c-1.2-0.5-11.1-12.6-11.3-13.1c-15.6,3.3-30.9,6.5-46.7,9.9c-1.1,2.9,2.2,7.9-3.1,10.8c-1.1-1.8-1.9-3.2-2.7-4.5
		c-5,0.9-5.3,1.2-5.3,5.6c0,8.6,4.1,14.6,11.9,17.9c4.5,1.9,6.6,5,7.2,9.8C550,470.2,551.3,477.2,552.4,484.3z M357.9,641.1
		c8.7,3.5,20-0.5,26,10.3c4.5-4.3,9.7-5.9,15.7-5.2c7.3,0.9,14.5,1.8,21.8,2.5c5.5,0.5,10.1,2.1,11.3,9.4c5.4-6.8,12.1-7.9,20.8-6.9
		c-15.4-12-31.4-19.1-49.2-22.6c0.2-0.6,0.4-1.3,0.6-1.9c4.6,0.3,9.1,0.5,13.7,0.8c-7.3-5.6-19.4-10.3-30.8-12
		C371.9,613.2,358.5,624.5,357.9,641.1z M655.9,635.4c0.6,1,1,1.5,1.4,2c2.9,4,3.1,8,0.1,12c-2.6,3.4-7.9,4.5-12.3,2.5
		c-2.3-1-4.3-2.6-6.5-3.6c-1.2-0.6-3-1.1-4-0.6c-5.7,3-11.1,6.3-17.2,9.8c6.7,1.9,14.4-0.8,18.3,7.3c6.1-7.7,14.3-8,22.6-7.7
		c5.6,0.2,11.3,0.5,16.9,0.8c5,0.2,10,0.5,12.6,6.8c7.4-11.3,18.9-8,28.9-9.3c-0.5-12.9-7.8-23-19.7-26.2
		C682.5,625.2,669.1,629.1,655.9,635.4z M216,740.6c0,1.8,0.3,2.8-0.1,3.4c-1.3,2.1-2.7,5.6-4.2,5.6c-2.2,0.1-4.9-1.9-6.7-3.7
		c-1.1-1.1-0.9-3.4-1.4-5.1c-0.3-1-0.8-2.5-1.5-2.7c-5.8-1.4-11.7-2.6-18-4c0.3,9.6,3,17.3,8,24.2c12.3,17.1,37.4,21.1,53.7,8.6
		c6.1-4.7,10.6-10.1,7.7-19C241.4,745.5,229,743.1,216,740.6z M778.9,835.5c38.3-9,56.3-50.5,44.8-78.8
		c-7.9,8.3-15.5,16.6-23.4,24.7c-2.2,2.2-3,4.1-2,7.3c1.8,6.3,0.7,12.5-2.9,18.2c-3.3,5.2-8.5,4.2-13.5,4.3c-1,0-2.9,1.8-2.9,2.8
		C778.8,821,778.9,828.1,778.9,835.5z M775.8,881.1c1.3,2.8,1.8,6.5,3.6,7.3c3.4,1.6,7,1.7,10.5-2.1c19.7-21.1,39.7-41.7,59.6-62.6
		c1.7-1.8,3.5-3.6,4.7-5.8c1.8-3.4,1.5-6.9-1.7-9.4c-3.1-2.4-6.2-1.9-8.9,1c-0.9,1-1.9,1.8-2.9,2.8c-20.4,20.6-40.8,41.2-61.1,61.9
		C778,876,777.2,878.6,775.8,881.1z M760,893c10.9-6.7,10.9-6.7,11.2-18.6c0.6-19.3,1.3-38.6,1.8-57.8c0-1.7-0.6-4.1-1.8-5
		c-3-2.4-6.6-4.2-9.7-6.2c-5.2,2.6-6.3,6.9-6.4,12.4c-0.1,19.8-0.4,39.6-1,59.3C753.9,883.3,754.9,888.6,760,893z M631.9,433.5
		c-1,2.3-1.7,4.1-2.4,6c-7.4,18.4-18.9,33.1-37.6,41.4c-1.8,0.8-3.6,3.5-3.9,5.5c-3.5,21.5-20.7,31.9-35.2,45.2
		c-13.9-13.7-27.9-26.3-28.9-46.9c-0.2-4.3-1.9-7.6-5.4-10.6c-6.6-5.6-10.9-13-13.4-21.3c-1.3-4.4-2.3-8.9-3.5-13.3
		c-3.8,0.6-3.9,3-3.3,5.9c2.2,11.5,6.7,22,15.1,30.4c3.8,3.8,6,8.2,6.5,13.6c2,22.1,19.2,33.9,32.5,49.3c8-6.9,15.1-13.4,22.5-19.6
		c8.9-7.5,14.6-16.6,17.1-28c0.5-2.4,2.5-5.3,4.7-6.4c20.1-10.3,31.9-27.2,39.4-47.7c0.2-0.4,0.1-1,0.1-1.6
		C634.9,434.8,633.7,434.3,631.9,433.5z M147.1,808.2c1.8-1.2,3.3-2.7,5.1-3.4c4.3-1.9,5.3-5.1,5-9.5c-0.8-10.5-1-21-1.5-31.4
		c-0.5-11.1-1.1-22.3-1.7-33c-3.1-1.2-5.8-2.5-8.7-3.4c-2.8-0.8-5.8-1.2-9-1.9c0.7,12.6,1.2,23.9,1.9,35.2
		c0.7,11.3,1.7,22.6,2.1,33.9C140.5,800.2,142.3,804.6,147.1,808.2z M290.8,405.3c0.1,10.4,7.9,18.7,17.5,18.6
		c10.9-0.1,20.2-9.1,20.2-19.3c0-10.1-8.3-18.4-18.4-18.4C299.3,386.1,290.7,394.7,290.8,405.3z M479.7,597.6
		c31.7,19.4,65.1,29,102.2,23.9c-0.5-5.1,0.6-10.2-4-13.4c-7.2-5-14.5-9.8-22.2-14.9c-3.5,5.4-6.6,10.4-9.8,15.3
		c10.1,5.4,10.3-5.3,15.6-9.2c2.1,3.2,3.5,7,6.3,8.9c2.6,1.8,6.6,1.7,11.6,2.8c-2.5,1-3.8,1.9-5.2,2c-20.1,1.2-40,0-59.1-6.9
		c-11.2-4-22-8.9-33.2-13.4C481.3,593.9,480.6,595.6,479.7,597.6z M866.1,716.8c-0.4-0.5-0.8-1-1.2-1.5c-2,1.1-4.1,2-5.8,3.4
		c-7.7,5.9-10.1,13.7-9.9,23.5c0.4,15.1-0.7,30.3-1,45.4c-0.2,7.6,2.2,9.7,10,9.3c3.4-0.2,5.4-1.2,5.5-5.3c0.1-9.5,0.6-18.9,1-28.4
		C865.1,747.7,865.6,732.2,866.1,716.8z M605.7,426.3c-1.6,4.2-2.7,8.1-4.5,11.5c-6.4,12.2-17.3,18.6-30.3,21.5
		c-3.7,0.8-5.3,2.5-6.2,5.9c-2.1,7.7-4.2,15.4-6.9,22.9c-1,2.8-3.3,5.1-5,7.6c-1.6-2.7-3.8-5.2-4.6-8.1c-1.7-6.8-3.1-13.7-3.8-20.6
		c-0.5-5.2-2.8-7.8-7.2-10.1c-7.7-4-12.1-10.7-12.6-19.6c-0.1-2,0-3.9,0-5.9c-5.1-0.5-6,2.2-5.7,6.4c0.7,10.3,5.7,18.1,14.2,23.4
		c4.5,2.8,6.2,6.4,6.9,11.2c1,7.1,2.3,14.1,4.1,21c1.2,4.6,2.5,10.2,8.4,10.5c5.9,0.3,7.7-5.2,9.3-9.7c2.7-7.5,5-15.2,7.1-22.9
		c1.1-4,3.5-5.9,7.2-7.4c5.7-2.3,11.4-4.7,16.5-8c10.2-6.7,15.7-16.7,18.5-28.7C609,427,607.4,426.7,605.7,426.3z M519.2,538.9
		c-9.6-0.1-17.9,8.4-18,18.3c-0.2,9.1,8.2,17.5,17.5,17.7c9.2,0.1,17.5-9.1,17.5-19.4C536.2,546.2,528.8,539,519.2,538.9z
		 M782.1,779.3c7.2,2.2,12.3,1.2,17.4-4.6c16-17.9,32.7-35.1,49.1-52.5c2.8-3,5.7-6.1,8.2-9.4c0.8-1,0.7-2.8,1-4.3
		c-0.8-0.4-1.6-0.9-2.5-1.3c-3.8,4-7.7,8-11.5,12.1c0,0,0-0.1,0-0.1c3.9-4.4,7.8-8.8,11.6-13.3c-0.6-0.5-1.2-1.1-1.8-1.6
		C829.9,729.2,806.2,754.1,782.1,779.3z M316.6,428c0.2,1,0.3,1.6,0.5,2.2c11.1,25.1,22.1,50.2,33.3,75.2c1.2,2.6,4,4.5,6,6.7
		c4.1-4.2,4.3-7.4,2.2-11.6c-5.9-11.5-11.2-23.4-16.8-35.1c-6.3-13.3-12.7-26.7-19.1-40.2C320.5,426.3,318.6,427.1,316.6,428z
		 M541.3,560c0.9,1,1.6,2,2.5,2.7c4.3,3.5,9.3,4.5,14.8,4.8c28.7,1.4,56.7-1.7,84-11.1c4.1-1.4,5.4-3.2,3.8-5.6
		c-17.9,3.2-35,7.4-52.2,8.9C576.9,561.1,559.4,560,541.3,560z M777.9,866.2c16-15.6,32.3-31.7,48.9-47.9c-5-1.7-9-1.8-12.4,2.9
		c-2.3,3.2-5.4,6-8.8,8c-8.7,5-17.7,9.5-27.7,14.8C777.9,850.6,777.9,858.8,777.9,866.2z M205.6,776.6c-2.8-2.4-5.2-2.5-8.2-0.5
		c-10.5,6.8-21.2,13.2-31.8,19.8c-3.5,2.2-3.5,7.5,0.4,8.6c4.2,1.2,8.7,2.9,13.4-0.2c11.5-7.6,23.3-14.8,35-22.2
		c0.9-0.5,1.6-1.3,2.5-2c-5.6-3-9.8-1.5-14.5,1.7c-9,6-18.4,11.4-27.6,17c-1,0.6-2.1,0.9-3.2,1.4c-0.1-0.3-0.3-0.6-0.4-0.9
		C182.5,791.7,193.9,784.3,205.6,776.6z M842.6,736.5c-4.1,4.4-8.4,8.7-12.3,13.4c-0.9,1-0.5,3.2-0.3,4.9c0.8,8.9,2.1,17.7,2.6,26.6
		c0.2,3.7-1,7.4-1.6,11.5c3.7,0.4,7.1,0.7,11.7,1.2C842.6,774.7,842.6,755.8,842.6,736.5z M482.8,662.1c7.1-9.1,15.9-7.9,24.4-7.2
		c-11.4-6.5-22.8-12.9-34.2-19.4c1.1,5.3,2.3,10.6,3.5,15.9c-0.7,0.2-1.5,0.4-2.2,0.5c-1.4-5.2-2.8-10.5-4.4-16.4
		c-6.7,1.4-13.4,2.8-21.5,4.4c9.1,5.6,15.4,13.3,26,13.4C478.5,653.4,481.8,656,482.8,662.1z M164.8,757.6c0.2-0.8,0.4-1.6,0.6-2.4
		c4.4,0.8,8.7,1.8,13.1,2.3c1.5,0.2,3.1-0.9,4.6-1.4c-1-1.1-1.8-2.6-3.1-3.2c-2.5-1.2-5.2-1.9-7.9-2.8c0.1-0.5,0.2-1,0.3-1.5
		c2.5,0,4.9,0,7.5,0c-0.6-5.4-1.1-10.3-1.7-15.7c-5.8-1.1-11.8-2.2-17.1-3.2c0,10.8,0,21.2,0.1,31.6c0,0.9,0.9,2.2,1.7,2.6
		c5.2,2.5,9.2,1.7,13.1-2.4C172.3,760.1,168.6,758.9,164.8,757.6z M780.4,772.3c1.8-1.6,3-2.6,4.1-3.8c8-8.1,16-16,23.8-24.3
		c7.3-7.8,8.8-5.4-0.6-14.7c-0.2-0.2-0.6-0.1-0.9-0.2c0.4,0.4,0.8,0.8,1.1,1.2c-6.1,5.4-11.9,11.2-18.3,16.2
		c-8,6.1-10.6,14-9.4,23.5C780.2,770.5,780.2,770.9,780.4,772.3z M427.3,658.9c-0.5-0.4-0.9-0.7-1.4-1.1c-0.8,0.6-1.5,1.1-2.3,1.7
		c-29.1,23-58.2,46-87.3,68.9c-6.2,4.9-6.5,5.7-3.6,14.2c2.1-2.3,4-4.1,5.6-6.3c2.1-2.7,3.4-6.1,5.8-8.4c4.3-4.1,9.1-7.7,13.8-11.5
		c21.9-17.6,43.9-35.1,65.8-52.7C425.3,662.6,426.1,660.5,427.3,658.9z M857.8,690.1c2.5-1.7,5.2-3.4,7.7-5.3c1-0.7,2.2-1.9,2.3-2.9
		c0.2-8.9,0.1-17.8,0.1-26.7c-5.4,0-10.8,0-16.9,0c0,7.2,0.4,14.8-0.1,22.4C850.4,683.3,851.6,687.7,857.8,690.1z M732,792.3
		c-0.2-2.9,0-5.2-0.7-7.2c-0.5-1.5-2.1-3.7-3.3-3.9c-11.2-1.3-22.5-2.3-33.8-3.3c-2.8-0.3-4.2,1-4.3,4.1c-0.2,6.1,0.7,7.3,6.8,7.9
		c9.5,0.9,18.9,1.6,28.4,2.4C727.2,792.4,729.3,792.3,732,792.3z M589.3,598.7c-16.7-10.8-33.3-21.5-50.1-32.4
		c-1.5,2.4-2.6,4.1-3.8,6.1c16.6,11.2,32.8,22.2,49.2,33.2C586.3,603.3,587.6,601.3,589.3,598.7z M381.3,753.7
		c1.8-11.1,1.3-12.1-8.4-13.8c-7.9-1.4-15.8-2.4-23.7-3.4c-2.2-0.3-5.3-1.1-5.3,2.5c0,3.2-2.4,8,3.2,9
		C358.5,750,369.8,751.8,381.3,753.7z M434.1,760.6c1.2-12.1,0.9-12.5-9.6-13.8c-6.7-0.8-13.5-1.6-20.3-2.2
		c-7.5-0.7-7.6-0.4-7.5,6.9c0,3.4,1.5,4.8,4.6,5.2c2.3,0.3,4.6,0.7,6.9,0.9C416.7,758.6,425.2,759.6,434.1,760.6z M530.8,773
		c0-3.7,0.4-6.3-0.1-8.6c-0.4-1.6-2-3.8-3.3-4c-9.5-1.5-19-2.7-28.6-3.7c-1.1-0.1-3.1,0.9-3.5,1.8c-2.4,6,0.6,10.7,7,11.5
		c1.2,0.1,2.3,0.4,3.4,0.5C514,771.4,522.2,772.2,530.8,773z M735,665.1c-33.7,33.2-67.2,66.5-101.2,99.4c-4.8,4.7-6,8.8-3.2,15.3
		c1-1.6,2.4-2.9,2.4-4.1c0-5.2,2.9-8.7,6.2-12.1c3.5-3.6,7-7.1,10.6-10.6c27.5-26.9,55-53.8,82.5-80.7
		C734.5,670.2,736.9,668.2,735,665.1z M756,755.5c0,5.5,0.4,11.5-0.1,17.4c-0.5,6.2,2.5,10.3,6.3,14.2c3.6-2.8,7.1-5.4,10.5-8.1
		c0.6-0.5,1.4-1.2,1.4-1.8c0.1-7.4,0.1-14.8,0.1-21.7C767.9,755.5,762.3,755.5,756,755.5z M294.9,727.5c-1.1,0.5-3.3,0.7-4,1.9
		c-2.6,3.8-0.1,9.3,4.4,10.2c9.5,1.8,18.9,3.4,28.4,5c1.1,0.2,2.9,0,3.6-0.8c2.3-2.8-0.6-10.7-4.2-11.3
		C314,730.7,304.8,729.2,294.9,727.5z M386.1,749.7c0.5,0.5,1.1,1,1.6,1.4c1.1-1.6,2.9-3.2,3.1-4.9c0.5-7.2,5.7-11,10.5-15.1
		c24.1-20.9,48.3-41.8,72.4-62.8c1.8-1.5,2.7-4,4-6.1c-0.4-0.3-0.8-0.6-1.3-0.9c-0.4,0.2-0.9,0.3-1.2,0.6
		c-27.8,24.3-55.4,48.8-83.5,72.8c-4.9,4.1-7.4,7.7-5.7,13.9C386,749.1,386.1,749.4,386.1,749.7z M675.4,788.3
		c1.8-10.5,1.5-11-7.7-12.6c-3.6-0.6-7.2-1.3-10.9-1.4c-5.9-0.2-11.8-0.1-17.9-0.1c0,2,0.1,3.9,0,5.7c-0.3,3.1,1.1,4.8,4,5.1
		C653.7,786.1,664.4,787.2,675.4,788.3z M483.2,767.4c0-2.8-0.1-4.1,0-5.4c0.5-4.8-1.2-7.4-6.3-7.9c-7.9-0.8-15.8-2.1-23.7-3
		c-1.9-0.2-4.9-1.1-4.9,2.4c0,3.3-2.3,8.4,2.7,9.4C461.3,764.9,471.9,765.9,483.2,767.4z M526.8,663.5c-1.9,1.7-3.4,3.2-5,4.7
		c-26.4,24.8-52.8,49.7-79.3,74.5c-5.5,5.2-5.9,6.6-2.8,14.9c1.3-2.4,2.2-4.2,3.2-6c1.8-3.3,3-7.1,5.5-9.7
		c7.4-7.6,15.3-14.8,23.1-22c17.9-16.5,35.8-32.8,53.7-49.2C527.1,668.8,529.3,667.2,526.8,663.5z M577.9,778.3c0-2.4,0-3.6,0-4.8
		c-0.1-6.9-0.3-7.4-7-8.3c-7.7-1-15.5-1.6-23.3-2.1c-1.4-0.1-4.1,1.7-4.1,2.6c0,3-2.3,7.7,2.3,8.5
		C556.2,776.2,566.7,777,577.9,778.3z M135.5,694.9c4.9-3.4,9.2-6.1,13.2-9.1c1.4-1,3-2.9,3-4.4c0.1-5.9-0.5-11.8-0.8-16.9
		c-6.2,0-11.9,0-18,0C134,674.6,133.4,685,135.5,694.9z M704.4,323.4c-0.9,10.1,6.9,12.9,12.3,18c-2.3-7.6,1.4-16-4.4-22.5
		c-0.2-0.2-0.1-0.7,0-1c2.9-10.8-4.6-19.2-7-28.7c-0.8-3-3.5-4.7-6.7-3.3c-1.9,0.8-3.3,2.6-5.4,4.4c5.3,2.9,9.3,5.1,13.3,7.4
		c-0.2,0.5-0.4,1-0.7,1.4c-2.1-0.4-4.2-0.7-6.4-1.1c-0.3,0.4-0.6,0.9-0.9,1.3c4,4.2,8,8.5,12,12.7c-0.3,0.3-0.6,0.5-0.9,0.8
		c-2.1-1-4.3-2-6.3-2.9c-3.9,9.9,8.1,10.6,10.2,18.5c-2.4-1.2-3.7-1.9-4.9-2.5C707.4,325.2,706.1,324.4,704.4,323.4z M191.6,708
		c-2.4,10.1-1.7,11.2,6.5,13c4.2,0.9,8.4,1.9,12.7,2.7c4.8,0.9,9.6,1.7,14.7,2.6c0-3.4,0.3-5.9-0.1-8.3c-0.2-1.4-1.3-3.5-2.4-3.7
		C212.7,712.1,202.3,710.1,191.6,708z M241.2,718.9c-2,7.3-1.3,10.2,2.8,11.1c8.9,1.9,17.9,3.4,26.9,5c1.5,0.3,3.1,0,6.2,0
		c-1.5-4.3-1.9-9.6-3.9-10.4C262.9,721,252.1,718.9,241.2,718.9z M626.6,782.9c-2-4.6,1.3-10.2-4.9-11.2c-9.1-1.6-18.4-2.5-27.6-3.4
		c-1.1-0.1-2.9,0.9-3.3,1.9c-2.1,5.3,0.4,9.2,6,10c1,0.1,2,0.4,2.9,0.5C608.3,781.4,616.8,782.1,626.6,782.9z M186.1,760.6
		c-6.4,5.3-12.7,10.5-18.9,15.7c-5.9,4.9-6.4,6.5-3.8,14.3c10.8-6.6,21.5-13.2,32.3-19.9C192.5,767.3,189.4,764.1,186.1,760.6z
		 M647.3,537.1c20.9-6.9,38.4-18.2,52.9-34.6c-1.4-1.7-2.5-3.1-3.1-3.8c-8.4,6.6-16.1,13.6-24.7,19.2c-8.5,5.6-18,9.8-27.3,14.7
		C645.7,533.7,646.4,535.1,647.3,537.1z M630.5,666.9c-0.5-0.2-0.9-0.4-1.4-0.6c-29.8,29-59.4,58.3-89.5,86.9
		c-5.3,5.1-6.4,9.6-4,16.6c0.8-1.6,1.7-2.7,1.7-3.8c0.2-6.2,4-10.3,8.2-14.3c5-4.9,9.9-9.9,14.9-14.7c22.1-21.4,44.2-42.8,66.3-64.3
		C628.2,671,629.2,668.8,630.5,666.9z M175.1,715.5c1.7-9.7,1.1-10.7-7.1-12.8c-1.8-0.5-3.5-1-5.3-1.4c-6.6-1.2-13.2-2.4-19.7-3.6
		c-0.5,0.5-1,0.9-1.6,1.4c1.1,3.3,1.5,8.8,3.5,9.5C154.7,711.5,164.8,713.2,175.1,715.5z M582.8,775.5c0.8-2,1.9-3.4,1.8-4.8
		c-0.2-5.2,2.7-8.7,6.1-12c11.5-11.3,22.9-22.8,34.5-34c18-17.6,36.1-35.1,54.1-52.6c1.7-1.7,4.2-3.4,1.9-6.6
		c-2.1,2.3-3.9,4.5-5.9,6.4c-29.4,29-58.7,58.1-88.4,86.8C581.7,763.5,579.9,768.1,582.8,775.5z M377.9,653.3
		c-0.4-0.3-0.8-0.7-1.2-1c-1.8,1.4-3.5,2.9-5.3,4.2c-29.1,21.2-58.1,42.3-87.2,63.4c-6.2,4.5-6.4,4.9-3.8,13.4c1.7-1.7,4-3,4.2-4.7
		c0.7-5.2,4.2-8.2,7.9-11c14.9-11,29.7-22,44.6-32.9c12.4-9,24.8-17.9,37.2-27C375.8,656.7,376.7,654.8,377.9,653.3z M180.1,712.6
		c0.6,0.5,1.1,0.9,1.7,1.4c1-1.6,2.7-3.2,3-4.9c0.8-5.1,4.3-7.7,8.1-10.2c6.7-4.4,13.4-8.7,20.2-12.9c22.1-13.8,44.3-27.6,66.4-41.5
		c1.5-0.9,2.7-2.3,4-3.5c-0.3-0.3-0.6-0.6-0.9-0.9c-4.6,2.9-9.2,6-13.8,8.8c-27.8,17-55.7,33.9-83.5,50.8
		C178,704.1,178,704.1,180.1,712.6z M590.4,162.6c-6.6,1.3-12.5,1.8-18,3.7c-6.8,2.4-10.1,8.3-11.5,15.2c-0.7,3.5,0.9,5,4.4,4.6
		c6-0.7,10.1-4.2,14.1-8.7c-2.4-0.5-4.1-0.8-5.9-1.1c-0.1-0.6-0.3-1.1-0.4-1.7C579.5,172.5,588.3,173.8,590.4,162.6z M230.4,724.7
		c1.9-2.2,4.2-3.7,4.3-5.3c0.5-4.8,3.4-7.3,7-9.7c27.6-18.9,55.2-37.7,82.8-56.7c2-1.4,3.8-3,5.7-4.5c-0.3-0.4-0.6-0.8-0.9-1.1
		c-1.1,0.6-2.1,1.2-3.2,1.9c-30.1,20.2-60.2,40.4-90.4,60.5C228.4,714.7,228.3,714.6,230.4,724.7z M216.9,621.2
		c0.6,7.7,1.3,15.9,2,24.7c4.9-2.6,9-4.7,13-7.1c0.9-0.6,1.8-2.1,1.8-3.1c-0.1-5.3-0.5-10.6-0.7-15.2
		C227.5,620.6,222.4,620.9,216.9,621.2z M377.4,540.5c-0.5,0.1-1.1,0.3-1.6,0.4c0.5,2,0.6,4.1,1.5,5.9c1.7,3.5,1.5,6.6-0.4,9.9
		c-0.7,1.2-1.2,3.2-0.7,4.3c2.5,6,5.4,11.8,8.2,17.6c1.3,2.7,3.2,3.7,6.1,2.5c3.1-1.2,3.4-3.6,2.2-6.1
		C387.7,563.4,382.5,552,377.4,540.5z M486.4,532.9c0.5-0.3,1-0.6,1.4-0.9c-0.9-2.1-1.3-5.1-2.9-6.1c-13.4-8.3-25.2-18.3-36.4-30.2
		c-0.8,2-1.7,4.5-0.8,5.7C458,515.1,471.2,525.3,486.4,532.9z M699.9,624.2c-10.4-11.3-43.7-8.4-55.7,5.6c3.5,0.4,6.5,1.8,8.6,0.9
		C667.7,623.8,682.9,619.1,699.9,624.2z M699.8,279.6c6.9-1,12.8-8.7,14.1-20.3c1-8.1,2.2-16.6-6.6-22.5c0.6,14.1,0.3,16-2.9,23.5
		c-0.4,1.1-0.8,2.2-1.1,3.3C702.1,269,701,274.3,699.8,279.6z M540.5,608c-3.8-8.8-7.4-17.2-11.4-26.5c-6.5,6.9-12.2,13-18,19.3
		c4.5,3,7.8,3.2,10.6-1.2c1.3-1.9,3.2-3.5,5.4-5.8c1.3,3.3,2.6,5.5,3.1,7.8C531.3,607.1,534.5,608.9,540.5,608z M627.3,187.5
		c-10.8-7.1-23-5.6-29,2.3c-1.2,1.6-1.4,3.8-2.1,5.8c1.9,0.7,4.2,2.3,5.8,1.8c7.2-2.2,14.2-4.9,21.2-7.6
		C624.4,189.4,625.5,188.5,627.3,187.5z M547.9,157.4c-16.4-0.7-26.6,8.5-22.8,24c6.5-0.5,11.9-4.7,13.6-10.7
		c-1.9,0.1-3.7,0.3-6.7,0.5C536.5,164.5,547.7,167.5,547.9,157.4z M494.5,580.6c0.9,3.8,2.2,6.6,2.3,9.4c0.2,5.8,3.4,8,8.9,8.9
		c-3-10.6-6-20.9-9-31.3c-7.6,5.1-13.1,11.1-12.7,21.5C487.5,586.2,490.6,583.7,494.5,580.6z M602.2,569.2c4.1,5,7.4,9.6,11.4,13.5
		c1.1,1.1,5.6,0.9,6,0.1c2.8-5.6,5-11.6,7.6-18.1C618.6,566.3,610.8,567.7,602.2,569.2z M723.3,284.7c0.4,9.4,7.3,11.8,14,14.5
		c-1-2.5-3-4.6-3.8-7c-0.8-2.6,0.5-5.9-0.6-8.2c-3.7-7.8-8.1-15.3-12.9-24.1c-1,3.9-1.6,6.4-2.2,8.8c2,1.1,3.8,2.1,5.6,3.1
		c-0.1,0.3-0.3,0.6-0.4,1c-2.1,0.2-4.1,0.3-6.2,0.5c0.1,9.2,11,6.2,14.3,12.9C728.2,285.5,725.9,285.1,723.3,284.7z M402.1,609.5
		c-0.1-0.5-0.2-1-0.3-1.5c2.6-0.6,5.4-1.8,7.9-1.4c1.3,0.2,3,3,3.2,4.8c0.7,4.9,2.3,8.7,8.4,9.4c-0.8-6-1.6-11.7-2.4-18
		c-11.6,2.2-23,1.5-34.3,6.5c5,1,9.1,1.6,13.1,2.7c4.1,1.1,8.1,2.7,12.8,4.2c-0.4-2.6-0.7-4.8-1-7.2
		C406.6,609.2,404.3,609.3,402.1,609.5z M585.3,146c6.1,0,12-0.8,17.6,0.3c4.6,0.9,7.8-0.3,10.8-3.1c3.6-3.3,3.1-5.5-1.3-7.4
		C604.3,132.3,589.6,137.7,585.3,146z M574.1,571.1c-0.3,0.4-0.5,0.7-0.8,1.1c5.5,4.9,5.8,13.5,12.7,17.6
		c3.8-6.9,7.3-13.2,11.1-20.1c-7.2,0.4-13.7,0.8-20.1,1.2C576,571,575,571,574.1,571.1z M759.3,910.4c-6.8,3.4-6,9.6-5.4,15.8
		c0.1,1,1.1,2.6,1.8,2.6c3.8,0.3,7.9,1,11.4-0.1c1.6-0.5,2.2-4.8,2.6-7.5c0.2-1.3-1.2-3.1-2.3-4.2
		C765,914.6,762.3,912.7,759.3,910.4z M513.2,155.6c-16,0.5-22.8,12.8-15.7,24.8c1.7,2.9,4.2,2.6,5.6,0.3c2-3.3,3.2-7.1,5.1-11.7
		c-3.4,1.1-5.1,1.6-6.8,2.1c-0.3-0.5-0.6-1.1-0.9-1.6c2.4-1.8,5.1-3.4,7.1-5.5C509.6,161.9,511,159.1,513.2,155.6z M811.2,724.5
		c3.7,5,7.7,7,10.9,4.3c5.1-4.3,9.5-9.4,14.3-14.2C824.3,709.9,816.9,715.2,811.2,724.5z M214.3,646.7c-0.5-0.4-0.9-0.9-1.4-1.3
		c-18,10-36,19.9-53.8,30c-1,0.6-1.1,2.8-1.7,4.2c19-9.5,36.9-19.7,54.7-29.9C213,649.1,213.5,647.7,214.3,646.7z M664.1,262.1
		c7.4,4.3,13.5,0.8,14-7.9c-7.3-3.7-25.1-4-30.9,0.1c2.6,1.8,4.8,3.8,7.2,5.1c6,3,8.8-3.1,13-5.4c0.3,0.4,0.7,0.7,1,1.1
		C667,257.4,665.6,259.8,664.1,262.1z M654.7,352.5c-2.7,7.6-6.7,14.6-3,22.7c0.3,0.7-0.4,1.8-0.3,2.7c0.2,3.3,0.4,6.7,0.8,10
		c0,0.2,2.3,0.7,2.6,0.3c1.8-2.5,3.5-5.2,5-7.9c0.3-0.5-0.1-1.4-0.2-2.8c-2.6,2.1-4.7,3.7-6.8,5.3c-0.5-0.5-0.9-0.9-1.4-1.4
		c2.3-2.5,4.6-5.1,6.9-7.6c2.9-3.2,3.5-5.5,2.2-9.7c-2.2,1.8-4.4,3.7-6.7,5.5c-0.4-0.3-0.8-0.7-1.2-1c3.1-4.4,6.2-8.8,9.6-13.6
		c-2.7-1-4-1.5-5.4-2C656.3,352.8,655.8,352.8,654.7,352.5z M602.7,150.3c-10.8-4.3-26.2,1.5-28.1,10.5c4.6-0.3,9.2-0.8,13.8-0.8
		C595.9,159.9,599.6,157.5,602.7,150.3z M600.7,131c10.7,0.3,10.7,0.3,18.6,5.6c0.6,0.4,1.7,0.8,2.3,0.5c2.7-1.3,5.3-2.9,8-4.4
		c-1.6-2.4-2.7-5.4-4.8-6.9C618.3,121.2,607.5,123.6,600.7,131z M146.4,825c-4.9,4.1-4.8,4.1-3.5,13.6c0.5,3.7,3.2,4.9,5.9,4.6
		c3.2-0.3,7.7-0.9,9-3c1.4-2.2,2.4-7-1.7-9.5C153,828.8,149.9,827,146.4,825z M470,632.4c-7.7-5.5-14.5-10.3-21.6-15.3
		c0,7,0,13.3,0,19.7C455.6,635.3,462.1,634,470,632.4z M444.7,637.1c0-6.7,0-12.8,0-19.7c-7.3,1.7-14.1,3.3-21.8,5.2
		C430.6,627.7,437.4,632.3,444.7,637.1z M477.8,159.6c-5.4,2.1-10.2,5-10.9,10.8c-0.8,6.4,2.3,12,7.2,16.2c2.2,2,4.5,0.8,4.7-1.8
		c0.4-3.7-0.2-7.6-0.3-11.4c-0.4,0-0.9-0.1-1.3-0.1c-1.5,1.8-3.1,3.6-5,5.9c-1.5-4.7,1.1-7.1,3.5-9.4
		C478.6,166.9,479.4,163.8,477.8,159.6z M696.8,338.1c-0.4-0.2-0.9-0.5-1.3-0.7c-2.8,3.2-5.7,6.3-8.5,9.6c-0.6,0.7-1.2,1.9-1,2.7
		c1.7,6.6,0.8,13.3,1.2,19.9c0.1,1.2,2.3,2.8,3.9,3.3c2.6,0.9,4-0.8,4.4-3.3c0.3-1.5,0.4-3.1,0.7-5.6c-2.4,1.9-3.9,3.1-6.6,5.2
		c1.4-7.7,9.6-11.7,6.1-19.5c-2.1,2.4-4.1,4.8-6.1,7.1c-0.4-0.3-0.9-0.6-1.3-0.9C691.2,349.9,694,344,696.8,338.1z M443.2,173.7
		c0.7,0.6,1.3,1.2,2,1.7c-1.9,5-7.1,9.7-1.7,15.3c1.7-2.5,2.8-5.3,4.8-7c2.6-2.1,3.2-4.3,2.5-7.3c-0.6-2.9-0.7-5.9-1.4-8.8
		c-0.1-0.6-2-1-3.1-1c-7.5-0.1-11.9,7.5-8.9,12.8C439.2,177.7,441.2,175.7,443.2,173.7z M611.8,178.2c4.9,1.3,9.8,2.3,14.4,4
		c5.7,2.2,10.5,0.2,12.7-5.8C630.1,169.4,617.5,170.4,611.8,178.2z M626,166.8c5.4,2.6,10.9,5.8,16.9,7.7c2.3,0.7,5.6-1.6,8.4-2.5
		c-0.8-1.9-1.1-4.4-2.5-5.7C642.1,160.2,630.9,161,626,166.8z M639.5,158.5c6.9,1.6,12.4,4,16.1,9.8c0.7,1.1,4.4,0.8,6.6,0.4
		c0.9-0.2,2.3-2.6,2-3.6c-1.5-5.4-5.3-8.8-10.6-10.2C648.6,153.6,643.9,154.4,639.5,158.5z M415.6,270.5c-0.4,0.2-0.7,0.4-1.1,0.6
		c-1.5-2-3-3.9-4.5-5.9c-3.1,6.4-2.3,11.2,2.6,16.6c10.6-8.8,11.1-23.3-0.2-28.6C413.6,259.5,414.6,265,415.6,270.5z M769.1,795.8
		c5.1,4.3,7.8,10.8,14.8,9.1c0.5-6.5,1-12.6,1.5-19C776.6,783.4,775.5,793.1,769.1,795.8z M555.6,145.8
		c-11.5-4.6-25.1,1.7-24.1,10.4c4.8-0.8,9.7-1.9,14.6-2.3C551.4,153.3,554.1,151.4,555.6,145.8z M672,221.7
		c1.8,5.2,3.2,10.5,5.6,15.4c1,2.1,4,3.2,6.1,4.7c1.1-1.8,3.4-3.8,3.1-5.4c-0.8-3.9-2.2-8-4.3-11.4C679.9,220.8,676,220.2,672,221.7
		z M587.5,592.8c8.3-3.4,15.3-6.2,22.6-9.2c-3.1-3.7-6.4-7.8-10.2-12.3C595.8,578.4,592,584.9,587.5,592.8z M368.2,530.2
		c-8.8-1-17.2-1.9-25.6-2.8c-1.3,5.3,1,8.2,7.5,9.4C359.4,538.5,367.4,535.5,368.2,530.2z M548.9,128.6c5.4,0.6,10.6,0.5,15.3,2
		c3.6,1.1,6,0.4,8.6-1.7c3.5-2.8,3.3-4.7-0.8-6.4c-6.6-2.7-13-1.6-19.1,1.6C551.1,125.1,550,127.3,548.9,128.6z M133.7,718
		c-2.3-6-4.2-11.1-6.1-16.2c-0.1-0.3-0.2-0.6-0.4-0.9c-1.3-2.7-4.5-2.9-6.4-0.6c-4.5,5.8-1.8,14,5.3,15.8
		C128.4,716.7,130.6,717.3,133.7,718z M736.7,789c12.3-9.2,15.3-14.8,12.5-23.9c-2.6,2.7-5,5.5-7.8,7.8
		C736.1,777.2,732.5,781.8,736.7,789z M664.8,186.7c3.4,3.1,7,5.8,9.8,9.1c2.5,3,5.1,2.5,7.3,0.8c1.3-1.1,2.1-4,1.7-5.7
		C681.4,183.1,671.9,181.2,664.8,186.7z M421.7,603.1c0.9,6.3,1.6,11.1,2.3,16c6.7-1.6,12.8-3,20.4-4.9
		C436.4,610.4,429.7,607.1,421.7,603.1z M498.4,155.2c4.2-1.2,8.1-2.5,12.1-3.4c5.1-1.1,7.4-3.8,7.2-9.3
		C506.9,139.9,497.8,145.8,498.4,155.2z M538.6,141.7c4.3-0.3,7.9-0.8,11.5-0.8c2.1,0,4.3,0.5,6.4,0.8c3.2,0.4,7.6-2.7,7.6-5.7
		c0.1-4.4-3.7-3-5.9-3.2c-2.9-0.2-6,0.2-8.8,0.9C544.8,134.8,540.5,136.5,538.6,141.7z M822.9,811.6c11.7,1.6,18.5-3.1,17.7-12.1
		c-11-1.8-11-1.8-12.6,2.6c1.9,0.4,3.7,0.8,5.6,1.3C827.8,803.1,824.2,805.5,822.9,811.6z M659.3,234.9c-4.6-7.9-12.7-10.7-19.8-7.3
		c-2.8,1.3-4.4,3.3-1,5.3C644.9,236.6,651.7,237.8,659.3,234.9z M843.9,691.9c-0.7-0.1-1.3-0.3-2-0.4c-4.8,5-9.7,10.1-14.5,15.1
		c0.3,0.4,0.6,0.8,0.9,1.2c4,0,7.9,0.2,11.9-0.1c1.3-0.1,3.5-1.4,3.6-2.3C844.1,701,843.9,696.5,843.9,691.9z M717,355.2
		c-3.9-0.1-7,2.7-7.2,6.6c-0.2,4,3,7.6,6.7,7.8c3.9,0.2,7.3-3.1,7.5-7.1C724.2,358.6,721.1,355.4,717,355.2z M371.3,539
		c-8.9,1.4-16.4,2.5-24.2,3.7c0.6,3.7,3.7,5.4,7.4,5.9c6.2,0.8,12-0.4,16.3-5.3C371.8,542.2,371.3,539.9,371.3,539z M355.1,516.1
		c-2.8-3.3-9.7-0.2-9.9-7.7c-2.5,1.7-5.5,3.4-5.9,5.6c-0.4,2.2,1.1,6,2.9,7c3.5,2,7.9,2.6,11.9,3.8
		C354.6,521.1,354.8,518.7,355.1,516.1z M225.2,780.8c1,3.1,1.2,7.9,3,8.7c3.1,1.3,8.6,1.4,10.5-0.6c2.2-2.2,1.6-7.3,2.2-11.5
		C235.4,778.6,231,779.5,225.2,780.8z M655.4,223.8c2.9,4,5.1,8.1,8.3,11.2c1.8,1.7,5.1,1.9,7.9,2.3c0.5,0.1,2.1-2.1,2-3.1
		C672.4,227.2,662.8,219,655.4,223.8z M621.6,213.2c6.9,3.4,18.9,1.5,22.4-3.3C636.8,202.5,624.3,204.6,621.6,213.2z M632.9,637.6
		c4.4,2.9,8.5,5.6,12.7,8.2c2.4,1.5,5.1,2.3,7-0.6c1.9-2.9-0.4-4.6-2.4-6.1c-1.9-1.4-3.8-2.6-5.8-3.9
		C638.9,631.6,637.8,631.8,632.9,637.6z M449.8,150.6c-5.3,4.8-12.4,7.6-12.9,15.2c4.2-1.2,8.4-2.5,12.1-3.5
		c2.3-6.8,4.6-13.6,7.1-21.3c-3.6,2.8-6.8,5.3-10.7,8.5C447.6,150,448.6,150.3,449.8,150.6z M620,118.7c3.8,2.9,9.1,5.2,11.5,9.3
		c2.7,4.5,4.9,5.3,9.3,3.2c0.7-5.2-2-8.8-6.1-11.4C629.7,116.5,624.3,116.5,620,118.7z M672,198.5c-6.3-9.4-17-11.3-21.2-4.3
		c2.9,1.6,5.9,2.9,8.6,4.9C664.7,203,666.5,203.1,672,198.5z M524.1,115.6c3,0.6,6.1,0.4,8.1,1.7c6.6,4.5,10.7-0.5,15.7-3
		C541.4,106.6,533,107,524.1,115.6z M686.3,223.3c3.1,6.3,5.5,11.8,3.3,18.3c-0.7,1.9,0.2,4.4,0.4,6.6c6.8-5,7.8-11.2,6.4-17.8
		C695.4,225.8,691.7,223.8,686.3,223.3z M636.2,201.7c1.6,0.6,3.2,1,4.7,1.7c1.6,0.8,3.2,1.7,4.7,2.7c5.3,3.7,8.3,3.2,13-2.2
		C652,196.7,642.7,195.7,636.2,201.7z M488.2,524.1c-0.6-4.6,2.5-8.4-2.4-10.8c-5.8-2.8-10.4-10-18.8-4.5c2.8,2.1,5.3,4,7.9,6
		c1.2-1.9,1.9-3.1,2.7-4.4c0.2,0.1,0.4,0.1,0.6,0.2c-0.3,2-0.6,4.1-0.9,6.2C480.6,519,483.9,521.2,488.2,524.1z M682.5,180.8
		c1.9,4.5,3.5,8.9,5.6,13c0.9,1.7,3.1,2.9,5,4c0.4,0.2,2.4-1.2,2.6-2.2c1.2-4.6,0.5-9-3-12.4C689.5,179.9,685.6,179.4,682.5,180.8z
		 M876,709.3c0.4-5.9,0.9-11.4,1.3-17.3c-6.2-1.9-7.7,4.5-11.7,6.8C871.4,709.8,871.4,709.8,876,709.3z M511.3,127.7
		c4.2,0,8.5-0.6,12.6,0.1c5.9,1.1,8.1,0.4,10.7-5.3C525.8,117.3,514.4,119.8,511.3,127.7z M408,328.5c-3.5,0.5-5.9,2.4-6,6.4
		c-0.1,3.8,3.3,7,7.1,6.8c3.5-0.2,6.6-3.6,6.4-7C415.3,331.2,412,328.4,408,328.5z M780.3,894.8c-6.6-2.4-8.7,4.5-13.9,7.1
		c4.6,3.5,6.3,9.2,12.1,9.5C779.2,905.7,779.7,900.5,780.3,894.8z M698.3,383.6c-0.2-3.5-2.4-5.5-6.3-5.7c-4.2-0.2-7.3,2.6-7.2,6.4
		c0,3.6,3.1,6.4,6.8,6.4C695.3,390.7,698.2,387.8,698.3,383.6z M658.8,151.9c2.8,3.7,7,7.3,8.6,11.8c1.5,4.3,3.7,5,7.3,5.1
		C675.9,156.6,667.7,148.8,658.8,151.9z M481.1,146c-11.1,0-18.1,8.3-13.9,15.7c2.3-1.5,4.4-3.6,7-4.5
		C479.5,155.3,480.7,151.3,481.1,146z M743.3,319.2c0-3.9-2.4-6.3-6.2-6.2c-3.9,0.1-6.7,2.8-6.8,6.5c-0.1,3.3,2.9,6.3,6.4,6.3
		C740.4,325.8,743.3,323,743.3,319.2z M503.3,139.7c4.7-0.4,9.2-1.3,13.7-1.1c4.9,0.2,7.1-1,8.2-6.4
		C516.9,128.6,505.5,132.6,503.3,139.7z M584.3,119.7c-6.6-9.1-16.4-10-22.6-2.8c4.4,1.1,9.6,1.4,13.5,3.8
		C579.1,123.1,581.3,122.5,584.3,119.7z M622.3,584.6c8.4-0.9,11-7.5,16.3-11.1c-3-2.7-5.5-5.1-8.5-7.8
		C627.5,571.9,625.1,577.7,622.3,584.6z M654.2,393.9c-3.8-0.2-6.6,1.4-6.6,5.6c0,3.9,2.5,6.1,6.3,6.4c3.8,0.3,7.1-2.6,6.9-6.2
		C660.6,395.5,658.2,393.7,654.2,393.9z M688.8,287.7c0.7-1.4,1.3-2.1,1.4-2.9c0.2-1.7,0.1-3.4,0.2-5.1c-1.6,0-3.3-0.3-4.8,0.1
		c-2.3,0.6-4.5,1.7-6.7,2.6c0.1-0.5,0.1-0.9,0.2-1.4c-1.3-0.9-2.4-2.1-3.8-2.5c-5.5-1.6-5.8,4.7-9.4,6.8
		C673.7,284.5,681.4,282.7,688.8,287.7z M679.2,612.9c-8.1-5.1-11.8-5.1-21.7,0.3c-2.6,1.4-5.8,2.5-5.3,6.1
		C661.4,617.1,670.4,614.9,679.2,612.9z M864.6,631.7c-1-0.2-1.7-0.4-2.3-0.4c-2-0.2-3.9-0.3-5.9-0.4c-2.7-0.1-7.3,6-6,8.4
		c0.6,1.1,2.5,2.4,3.7,2.3C861.3,641,862.5,639.7,864.6,631.7z M469.1,145.5c2.9-1.1,5.8-2.9,8.7-3.1c5.4-0.3,7.3-3.6,8.7-7.9
		C476.9,132,468.8,137.2,469.1,145.5z M493.6,125.1c-7.1-5.8-15.2-3-19.2,6.1c3.2-0.4,6.7-1.6,9.7-0.9
		C489.2,131.6,491.3,128.9,493.6,125.1z M677.1,266.7c3,1.8,6.7,2.2,8.8-1.4c1.5-2.6,1.9-6.2,1.5-9.2c-0.2-1.2-4.1-1.8-5-2.1
		C680.3,258.9,678.8,262.6,677.1,266.7z M849,832.9c0.2,0.7,0.4,1.4,0.5,2.1c3.6-0.4,8.1,0.3,10.5-1.6c2.1-1.6,1.7-6.3,2.6-10
		C854.8,823.7,852.8,829.5,849,832.9z M641.2,571.3c1.6-5,9.1-6.3,5.6-13.1c-4.8,1.8-9.3,3.4-14.3,5.2
		C635.4,566,637.8,568.2,641.2,571.3z M132.7,696.2c-0.5,0.2-1,0.3-1.6,0.5c-0.7,10.8,10.8,26.1,22.2,28.2c-4.5-4-8.2-7.8-12.3-10.9
		c-2.6-1.9-4-3.7-4.5-7.1C135.9,703.2,134,699.7,132.7,696.2z M407.9,282.6c-0.5,0.2-1,0.3-1.6,0.5c0.9,4.9,1.9,9.8,2.9,15.5
		c5.5-4.2,7.9-8.4,6.8-14c-0.1-0.4-0.7-0.6-1.2-1c-1.2,0.7-2.4,1.4-3.6,2.1C410,284.5,409,283.6,407.9,282.6z M687.7,271.2
		c1.9,0.5,5.2,2.5,6.5,1.6c1.8-1.3,2.8-4.7,3-7.2c0.3-3.8-1.8-6.7-4.8-8.2C690.9,261.9,689.4,266.2,687.7,271.2z M431.9,199.6
		c-6.2,5.7-6.9,10.4-3.4,14.7c0.8,1,2.7,2.4,3.5,2.1c1.3-0.5,2.9-2.4,2.8-3.5C434.2,208.8,433.1,204.8,431.9,199.6z M774.4,807.7
		c-7.1-8.2-14.2-16.3-21.3-24.4C753.3,791.4,766.6,806.6,774.4,807.7z M563.4,108.1c-6.7-4.2-13.3-5.1-20.7-2.7
		C548.9,111.2,555.3,113.9,563.4,108.1z M594.7,115c-5.2-7.5-10.8-9.3-17.7-6.2c3.7,2.8,7.6,5.7,11.8,8.9
		C590.2,117,592.3,116.1,594.7,115z M849.2,643.2c-0.1-0.3-0.3-0.6-0.4-0.9c-2.6,2.1-5.2,4.2-8.2,6.6c-0.5-1.8-0.8-3-1.4-5.3
		c-2.9,3.2-5.1,5.7-8.1,9.1c5.8,0.3,10.1,0.6,14,0.8C846.6,649.7,847.9,646.5,849.2,643.2z M678,803.3c1.3,3.7,2.1,7.1,3.6,10.2
		c0.6,1.1,2.8,2.3,4,2c1.1-0.3,2.3-2.3,2.4-3.7C689,804.3,687.4,802.9,678,803.3z M557.6,571.6c6.7,4.4,13.2,8.6,19.7,12.8
		C573.1,576.4,569.9,566.9,557.6,571.6z M406,297.9c-0.6,0.2-1.2,0.4-1.8,0.6c1.3,4.8,2.5,9.7,3.8,14.5c0.8,0.1,1.6,0.1,2.5,0.2
		c1.6-4.1,3.2-8.2,4.8-12.4c-0.5-0.3-1-0.5-1.4-0.8c-1.3,0.8-2.6,1.6-4.1,2.5C408.5,300.8,407.3,299.3,406,297.9z M424.7,230.2
		c5-10.3-2.8-15.5-6.2-22.2C416.9,216.2,421.2,222.6,424.7,230.2z M675.5,154.5c1.1,3.7,3,7.4,2.9,11c-0.1,5,2.2,6.6,6.3,7.5
		C685.4,164.1,682.1,157.8,675.5,154.5z M373.2,549.4c-6.1,1.7-11.4,3.2-16.7,4.7c2.3,4,6.7,5,12.2,2.4
		C371.7,555.2,374.6,553.4,373.2,549.4z M848.3,689.4c3.2,9.3,12.6,13.6,17.5,21.6C863.1,701.4,856.2,695,848.3,689.4z M846.1,800.3
		c0,0.7,0,1.4,0,2.1c11.4-0.9,14.1,6.4,15.3,15.5c0.6-5.5,1.2-11.1,1.8-16.6c-2.6,0-5.7,0.1-8.8,0
		C851.5,801.1,848.8,800.6,846.1,800.3z M712.4,374.1c0.6,4.5,0.9,7.3,1.4,11.4c1.9-2,2.6-2.7,3.3-3.5c0.9,1.7,1.5,2.9,2.3,4.5
		c4.1-2.4,3.6-5.5,2.7-8.8C720.7,372.4,716.6,376.3,712.4,374.1z M675.6,512.2c-12.1-5-13.8-4-14.1,8.4
		C666.2,517.9,670.5,515.3,675.6,512.2z M789.4,804.7c4.7-4.8,5.3-13.3,1.2-17.7C786.6,791.2,786.1,798.9,789.4,804.7z M428.4,188.4
		c-6.8,2.5-8.5,7.5-5.1,15.9C425.9,199,433,195.7,428.4,188.4z M558.7,792.4c1.2,3.1,2.1,6.3,3.6,9.1c0.5,0.9,2.5,1.6,3.7,1.5
		c0.8-0.1,1.8-1.8,2-2.9C569.4,793,567.4,791.2,558.7,792.4z M134.3,804.7c-4.3,3.8-6,10.2-3.9,13.5c0.9,1.5,3.2,2.1,4.8,3.1
		c0.5-0.4,1-0.9,1.5-1.3C135.9,815.1,135.2,810.3,134.3,804.7z M771.6,888.8c0.6,0.5,1.1,1.1,1.7,1.6c-7.6,1.9-21.4,15-21.6,20.8
		C758.4,903.6,765,896.2,771.6,888.8z M133.5,659.7c5.6,3.6,12.6,3.3,16.5-0.8C145.4,655.1,138.4,655.4,133.5,659.7z M694.6,495.8
		c-11.1-2.7-13.1-0.9-12,10.5C686.6,502.9,690.2,499.6,694.6,495.8z M774.3,750.8c-5-4.7-12.9-4.5-17.6,0.1
		C762.6,754.2,768.1,753.3,774.3,750.8z M736.3,331.6c0.6,5.6,4.1,9.9,6.8,8.4c1.5-0.8,2.6-4.1,2.3-5.9
		C744.1,327.6,739.8,331.1,736.3,331.6z M487.5,570.3c0.4,0.2,0.8,0.4,1.2,0.6c1.7-4.1,8.5-4.7,6.9-10.7c-0.5-1.7-3-2.9-5.2-4.8
		C489.3,561.2,488.4,565.8,487.5,570.3z M799.6,558.5c6.1,0,11.1,0,16.1,0C814.2,551.4,809.1,550.3,799.6,558.5z M685.6,404.7
		c7.1,1.2,10.6-2,10-8.8c-2.4,0.1-4.8,0.2-7.4,0.3C687.4,399,686.5,401.6,685.6,404.7z M667.8,276.6c-3.6-0.9-6.8-1.8-10.1-2.4
		c-1-0.2-2.8,0.2-3,0.7c-0.3,1.1-0.1,2.7,0.5,3.7C657.7,282.8,663.9,282.2,667.8,276.6z M452.9,185.1c-0.8-0.1-1.5-0.2-2.3-0.3
		c-1,3-2.5,5.9-2.7,9c-0.1,1.2,2.7,2.7,4.1,4c1-1.4,2.9-2.9,2.8-4.3C454.7,190.7,453.6,187.9,452.9,185.1z M702.1,238.2
		c-0.3,0-0.7,0-1,0c-2.2,4.5-4.3,9-6.6,13.6c1.6,1.2,3.3,2.6,6.2,4.8C701.2,249.7,701.6,244,702.1,238.2z M421.6,250.8
		c0.5-4.6,1-9.2,1.6-14.5C414.9,239.8,414.3,244.3,421.6,250.8z M708.5,338.5c-0.7,0.4-1.4,0.9-2.1,1.3c1.5,3.4,2.7,7.1,4.7,10.1
		c0.6,0.9,3.7,0.1,5.6,0.1c0.3-0.6,0.6-1.1,1-1.7C714.6,345.1,711.6,341.8,708.5,338.5z M785.9,896c-4,4-4.7,10-1.7,15
		C788.8,907.2,789.5,900.3,785.9,896z M497.3,122.9c2.6-1.7,4.9-3.2,7.3-4.7c-4.8-5.4-8.8-4.9-12.4,1.2
		C493.8,120.5,495.5,121.6,497.3,122.9z M139.7,824.5c7.2-6.6,13.7-12.6,20.7-19C152.3,807.6,141.7,817.3,139.7,824.5z M651.2,411.5
		c0,5.1,2.4,8.3,6.1,7.7c1.3-0.2,3.5-2.2,3.4-3.1C660,410.3,655.8,410.6,651.2,411.5z M412.8,323.5c0.3-2.8,0.6-5.6,0.9-8.4
		c-3.7,2.7-6.2,2.3-8.5-1.2C404.4,322.2,405,323.1,412.8,323.5z M460.7,780.6c1.4,3.2,2.3,5.8,3.6,8.2c0.5,0.9,2.4,1.6,3.3,1.4
		c0.9-0.3,1.9-1.8,2.1-2.9C470.8,782.3,469.2,781.1,460.7,780.6z M871.7,801.6c-1.4,0.6-3.9,1.1-4,2c-0.7,4.1-0.8,8.3-0.7,12.5
		c0,0.3,2.3,0.7,2.8,0.8C870.4,811.7,871,807,871.7,801.6z M699.3,224.2c0.6-0.2,1.2-0.3,1.8-0.5c2-7.6-0.2-16.3-4.7-18.9
		C697.4,211.2,698.3,217.7,699.3,224.2z M882.5,692.9c-3.7,4.2-4,11.6-0.8,15.9C885.3,703.6,885.6,697.4,882.5,692.9z M680.2,498
		c-4.2,3.2-7.6,5.7-11.5,8.6c3.7,1,6.6,1.7,9.8,2.6C679.1,505.4,679.5,502.2,680.2,498z M606.2,113.2c-3-4.9-8.4-7.5-13.8-6.5
		C596.2,110.4,598.6,117.4,606.2,113.2z M656.1,523.7c-4.5-1.6-7.7-2.7-11.8-4.1c-0.4,3.3-0.7,5.7-1.2,9.4
		C648,526.9,651.4,525.5,656.1,523.7z M287.6,754.2c0.6,4.1,0.3,8.1,4.8,9.6c0.5,0.2,2.3-1.9,2.6-3.2
		C296.3,755.1,292.5,754.5,287.6,754.2z M379.4,769.1c0.8,4.2,0.3,8.4,5.4,8.8c0.6,0,2-2.6,2.1-4.1
		C387.2,768.5,383.1,769.6,379.4,769.1z M461.9,504.3c0-4.2,0-7.1,0-10c-3.1,0-5.9,0-9.6,0C455.7,497.9,458.4,500.7,461.9,504.3z
		 M231.8,616.8c0-0.5,0-1.1,0-1.6c-5.2-2.9-10.2-2.5-14.8,1.6C222.3,616.8,227,616.8,231.8,616.8z M855.5,645.8c-2,1.9-3,2.9-4,3.9
		c0.4,0.6,0.8,1.2,1.2,1.8c5.2,0,10.4,0,16.3,0c-3.7-5.2-5.6-5.6-8.8-2.3C857.5,652,856.2,651.6,855.5,645.8z M729.5,299.8
		c-0.4,0.3-0.8,0.6-1.1,1c0.9,2.1,1.4,4.4,2.7,6.1c0.7,0.9,2.8,1.1,4.2,1c0.8-0.1,2.4-1.5,2.3-1.9c-0.4-1.2-1.3-2.6-2.3-3.3
		C733.5,301.5,731.4,300.8,729.5,299.8z M653.1,556.4c2-1.9,3.4-3.2,4.9-4.5c-2-3.6-3.8-6.9-5.6-10.2c-0.5,0.2-1,0.4-1.5,0.6
		C651.6,546.6,652.3,551,653.1,556.4z M659.7,512.1c-3.9,2-7,3.7-11,5.7c3.4,1.3,6.1,2.4,9.1,3.5C658.5,518.2,659,515.5,659.7,512.1
		z M651.7,134.4c0.4-0.4,0.8-0.7,1.2-1.1c-2.6-3-5.1-6.1-8.3-9.8C643.1,131,646,133.8,651.7,134.4z M765.9,791.6
		c3.7-2.9,7.4-5.8,11.1-8.8C768.4,785,764.2,789.7,765.9,791.6z M413.3,238.3c3.1-2.5,5.1-4.1,7.1-5.7c-1.2-2.2-2.2-4-3.2-5.9
		c-0.4,0.1-0.9,0.2-1.3,0.2C415.1,230.3,414.3,233.7,413.3,238.3z M516.9,113.1c-0.1-0.4-0.2-0.7-0.3-1.1c-3.7,0-7.5,0-12.1,0
		c1.7,1.9,2.7,3.1,3.9,4.5C511.4,115.4,514.1,114.2,516.9,113.1z M877.5,804.2c-4.5,3.3-4.9,7.3-1.2,11.9
		C876.7,812.1,877.1,808.2,877.5,804.2z M472.8,503.5c-2.8-2.5-4.9-4.4-7.6-6.9c0,3.3,0,5.7,0,8.6
		C467.6,504.8,469.6,504.3,472.8,503.5z M407.1,347.2c1.9,2.8,3.7,5.4,5.6,8.2C415.6,348.4,414.3,346.4,407.1,347.2z M495.4,553.9
		c0.5-1.8,0.9-3.4,1.5-5.3c-1.8-0.6-3.4-1.1-5.1-1.7C490.5,550.7,490.1,553.6,495.4,553.9z M869.5,687.1c-2.9,2-5.8,3.9-8.9,6
		C863.7,695.8,866.2,694.2,869.5,687.1z M658.4,292.4c2.3-1.8,3.8-3.1,6.1-4.9c-3.4-0.7-5.7-1.2-9.1-1.9
		C656.6,288.3,657.3,290,658.4,292.4z M208.7,738.3c-0.8,0.7-1.6,1.3-2.4,2c1.5,1.9,2.9,3.7,4.4,5.6c0.6-1,2-2.4,1.8-2.9
		C211.5,741.2,210,739.8,208.7,738.3z M494.5,594.4c-0.7-3.5-1.2-5.8-1.8-8.8c-2.1,1.9-3.6,3.2-5.5,4.9
		C489.7,591.9,491.5,592.9,494.5,594.4z M815.6,562.6c-3.5,0-7,0-11.2,0C811.1,566.1,812.5,566.1,815.6,562.6z M521.1,604.6
		c2.9,0.6,4.8,1.1,7.6,1.7c-1-2.8-1.6-4.7-2.5-7.3C524.4,601,523.1,602.4,521.1,604.6z M757.8,800.4c-0.5-0.3-1.1-0.6-1.6-0.9
		c-1.4,2.1-2.9,4.1-4.3,6.2c0.4,0.3,0.8,0.5,1.2,0.8C755.3,804.9,758.5,804,757.8,800.4z"/>
	<path d="M273.6,623.3c-6.3-26.2-14.8-51.3-33.3-71.6c8.2,21.8,13.6,44.2,15.1,67.3c-0.5,0.2-1,0.4-1.5,0.5
		c-3.2-6.1-5.9-12.6-9.9-18.3c-3.9-5.6-9-10.2-13.6-15.3c-0.5,0.3-0.9,0.7-1.4,1c0.2,1.4,0.4,2.9,0.6,4.3c-0.2,0.1-0.4,0.2-0.6,0.2
		c-1.3-3.1-2.7-6.1-4-9.2c0.4-0.3,0.8-0.6,1.3-0.9c10.8,3.3,16.7,12.3,23.6,21.7c-2.7-19.9-8-38-15.9-55.3c-0.8-1.8-0.7-4.1-1-6.2
		c2,1,4.5,1.5,5.8,3.1c5.8,6.8,11.3,13.9,16.9,21c1,1.3,1.8,2.7,3.6,3.8c-1.4-15.8-2.7-31.7-4.1-47.5c0.8-0.2,1.5-0.3,2.3-0.5
		c10.4,15.5,13.6,33.7,17.7,52.6c2.5-8.9,4.1-17.1,7.2-24.8c3.9-9.8,8.9-19.3,13.7-28.8c0.8-1.6,3.1-2.4,4.7-3.5
		c0.1,1.8,0.7,3.8,0.3,5.5c-4.1,21.5-5.5,43.2-4.4,65.2c1.4-5.1,2.6-10.3,4.2-15.4c0.4-1.2,1.6-2.2,2.4-3.3c0.9,1.1,2.3,2,2.6,3.2
		c2.3,8.1,4.3,16.3,6.6,25.3c2.6-11.6,5.3-22.4,11.2-32c0.8,0,1.6,0.1,2.4,0.1c1.3,7.4,2.9,14.7,3.7,22.1c0.8,7.4,0.8,14.9,1.2,22.5
		c3.4-4.9,6.5-9.9,10.3-14.4c2.8-3.2,6.3-5.9,9.8-8.4c1.7-1.3,4.2-0.8,3.6,1.8c-2.3,10.2-5,20.4-7.6,30.5c-0.8-0.2-1.6-0.4-2.4-0.6
		c1.8-8.6,3.5-17.2,5.5-26.7c-10.9,8.4-14.9,20.5-20.9,31.2c-0.4-0.2-0.9-0.4-1.3-0.6c-0.9-16.5-1.8-32.9-2.8-49.4
		c-0.6,0-1.1,0-1.7,0c-6.7,13.9-8.7,28.9-9.7,44.2c-0.5,0-1,0-1.4,0c-2.6-13.6-5.2-27.2-7.8-40.9c-0.4,0-0.9,0.1-1.3,0.1
		c-4.5,13.5-4.3,27.6-4.9,41.6c-0.5,0.1-1,0.2-1.5,0.2c-0.8-3.7-2-7.3-2.5-11.1c-3.3-25.1-2-50.2,1.5-75.2c0.2-1.3,0.3-2.6,0.1-4.1
		c-5.8,9.2-9.8,19.3-12.4,29.7c-2.6,10.6-4.7,21.5-6,32.3c-1.3,10.7-1.2,21.6-1.7,32.4C274.8,623,274.2,623.1,273.6,623.3z
		 M272.4,602.7c2.6-19.1-5.7-61.3-13.9-71.8c0.7,11.4,1.4,22.9,2.2,34.3c0.3,3.8-0.1,7.8,1.1,11.3
		C264.8,585,268.6,593.3,272.4,602.7z"/>
	<path d="M145.9,561.4c7.7,4.2,10.2,7.9,9.3,13.5c-0.8,4.9-4.1,7.4-10.3,8.3c5.7,13.7,11.5,27.4,16.6,39.6
		c1.6-8.7,2.7-19.5,5.8-29.7c2.5-8.3,7.3-15.9,11.3-23.7c0.6-1.2,2.5-1.8,3.8-2.7c0.7,1.4,1.9,2.8,1.9,4.2
		c-0.1,13.6-0.4,27.3-0.6,40.9c-0.1,3.2,0,6.5,0.3,9.8c3.6-12,7.3-24,18.8-32.6c2.6,9.2,0.4,17.1-1.8,25.1c0-5.9,0-11.7,0-17.6
		c-11.8,12.9-13.8,29.3-16.2,46c-3.9-4.8-4.9-16.5-4.3-34.2c0.4-11.3,0.1-22.6,0.1-34.7c-1.1,1.6-2.1,2.9-2.9,4.3
		c-7.3,12.7-10.5,26.6-11.3,41c-0.5,8.8-0.2,17.6-0.4,26.5c-0.1,1.9-1,3.7-1.5,5.6c-0.9-1.8-2.3-3.4-2.8-5.3
		c-2-8.4-3.7-16.8-5.3-24.5c-7.3-0.8-14.1-0.7-20.3-2.6c-5.2-1.6-10.1-4.9-14.4-8.5c-3.8-3.2-2.7-6.4,2.2-8c8.3-2.8,15.7,0,22.8,4
		c1.7,1,3.3,2.2,6,4.1c-4.7-11.6-9.2-22-16.6-29.9c-3.1,4-5.7,8.1-9.1,11.2c-1.4,1.3-4.8,1.1-7.1,0.5c-6.3-1.7-8-6.8-6-15.6
		c-4.3-1.8-8.6-3.2-12.3-5.5c-1.4-0.9-2.1-3.8-2.2-5.8c-0.2-5.7,4.4-9.3,13.2-10.8c-3.1-10.2-1.9-15.4,3.8-17.8
		c5.6-2.4,10.4,0.6,14.1,8.4c4.5-1.7,8.8-3.7,13.3-4.8c1.5-0.4,4.1,1.4,5.5,2.9C153.7,547.8,152.6,553.4,145.9,561.4z M131.5,573.7
		c-4-1-6.8-1.8-10.8-2.8c-1.3,3.3-3.2,6.8-4.1,10.5c-0.8,3.1,0.2,6.7,3.8,7c2.5,0.3,6.5-1,7.5-2.8C130,582,130.5,577.6,131.5,573.7z
		 M153.6,616.8c-9.5-10.2-22.1-14.3-30.4-9.8C131.5,615.7,141.6,617.5,153.6,616.8z M138.2,561.9c3-3,6.6-5.6,8.8-9.1
		c1-1.7,0.2-6-1.3-7.3c-1.5-1.3-5.8-1.5-7.4-0.3c-3.1,2.3-5.2,5.9-7.4,8.6C133.5,556.7,135.4,558.8,138.2,561.9z M138.3,564
		c-1.7,3-3,5.4-4.4,7.8c4.6,5.9,10.7,9,14,6.6c1.8-1.3,3.6-4.6,3.1-6.5C149.6,565.3,143.6,564.9,138.3,564z M128.5,554
		c-1-3.3-1.6-6.9-3.1-10.1c-1.4-3.1-4.2-5.2-7.7-3.8c-3.5,1.4-4.3,4.8-3.1,8c1.3,3.6,3.4,6.9,5.1,10.2
		C123.1,556.6,125.4,555.5,128.5,554z M120,569.1c-0.3-3.4-0.6-6-0.9-9.5c-3.6-0.2-7.3-0.9-10.7-0.4c-3.2,0.5-5.8,3-5.2,6.8
		c0.5,3.5,3.2,5.2,6.4,5C113.1,570.7,116.5,569.7,120,569.1z M134,565.5c0-0.8,0.1-1.5,0.1-2.3c-1.8-1.5-3.5-3.8-5.5-4.2
		c-3.2-0.7-5.8,1.8-5.3,4.9c0.3,1.9,2.9,4.5,4.7,4.9C129.8,569,132,566.7,134,565.5z"/>
	<path d="M960.2,692.7c-5.1,1.6-10.1,3.4-15.2,4.9c-1.4,0.4-3.1,0.3-4.6,0.4c0.4-1.5,0.5-3.2,1.4-4.3c5.3-6.4,10.9-12.6,16.4-18.9
		c1.5-1.7,2.9-3.4,5.3-6.2c-16.2,2.3-26.8,11.1-36.5,21.4c-0.5-0.3-1.1-0.6-1.6-0.9c0.8-2.1,1.2-4.6,2.5-6.3
		c4.9-6.5,10.1-12.8,15.1-19.2c1.5-1.9,2.9-4,3.9-6.4c-16.4,4.4-24.4,16.2-27.4,32.6c-0.6-0.2-1.1-0.5-1.7-0.7
		c-0.7-13.6-1.3-27.2-2-40.7c-0.6-0.1-1.2-0.2-1.9-0.2c-7.3,10.8-7.2,24.1-10.5,36.2c-0.4,0-0.8,0-1.3,0c-0.4-2.4-1-4.8-1.1-7.3
		c-0.4-10.2-0.6-20.3-1-30.5c-0.1-2.1-0.6-4.2-0.9-6.2c-0.5-0.1-1-0.2-1.5-0.3c-2.4,8.2-4.7,16.4-7.1,24.6
		c-3.5-6.4,2.6-27,10.6-31.9c1.2,9,2.2,17.4,3.2,25.3c2.1-4,4.3-8.6,6.9-12.9c0.8-1.3,2.9-1.8,4.4-2.6c0.8,1.4,2,2.7,2.3,4.2
		c1.1,6.1,1.9,12.2,2.8,17.9c4.9-9.6,10-19.6,15-29.5c-3.8-0.5-7.8-1.6-8.8-6.7c-1.1-5.8,2.2-9,7-11.1c-3.2-7.3-3-11.4,0.7-14.3
		c3.8-3.1,7.5-2.6,13,1.9c3.5-3.9,7.6-6.4,12.7-3.5c5.3,3.1,4.1,8.1,2.6,12.7c7,4.3,8.7,7,7.5,11.6c-1.2,4.7-4.2,6.5-11.1,6.8
		c-0.8,4.9-1.6,10.1-7.8,11.2c-5.6,1-8.4-2.7-11.3-8.8c-5.4,10.4-10.2,19.7-15,28.9c0.4,0.2,0.7,0.4,1.1,0.5c3.5-2.7,7-5.5,10.7-8
		c1.8-1.2,3.8-2.3,5.9-2.6c2.8-0.4,5.6,0.1,8.5,0.2c-0.8,2.4-1.3,5-2.6,7.1c-2.3,3.6-5,6.9-8.4,11.5c9.6-4.7,17.9-9.1,28.7-7
		c-4.7,10.4-13.9,16.3-20.1,25.4c2.9-0.5,5.2-1.3,7.5-1.2c3,0.1,6,0.9,9,1.4c-0.6,2.4-1.2,4.8-1.8,7.4c6.5,0.8,13.3,1.5,18.3,7.6
		c-8.8-1.5-17.7-2.9-27.3-4.5c2.1-2.5,4.2-5,6.2-7.4C960.6,693.8,960.4,693.2,960.2,692.7z M945,628.2c-1.6-2.6-3.2-5.2-4.8-7.8
		c-1.2,0.1-2.7-0.1-3.8,0.5c-2,1.2-4.2,2.5-5.4,4.4c-0.6,0.9,0.4,4.3,1.3,4.6c2.1,0.7,4.6,0.5,6.9,0.1c2-0.3,3.9-1.3,5.8-2
		c0,2.3-0.8,4.9,0,6.8c0.9,2.1,3,4.7,4.9,5c3.4,0.6,4.8-2.6,4.7-5.6c0-2.3-1-4.7-1.4-6.7C950.2,627.8,947.6,628,945,628.2z
		 M955.4,616.9c0.7-0.6,1.8-1.2,2.1-2c1-2.7,2-5.4,2.3-8.2c0.1-0.7-3-2.7-3.6-2.4c-2.3,1.4-4.3,3.5-6.3,5.5c-1,1-1.6,2.2-2.8,3.8
		c-1.9-4.6-3-8.8-7.9-8.4c-1.4,0.1-3.4,1.9-3.7,3.3c-1.1,4.9,2.5,7.4,5.8,9.9C946,612.6,948.9,612.3,955.4,616.9z M954.8,626.2
		c3.5,1.9,6.9,4.5,10.5,0.9c1.1-1.1,1.5-4,0.9-5.3c-2.2-4.5-6.3-2.9-9.9-2.6C955.8,621.6,955.4,623.6,954.8,626.2z M948.6,626.3
		c1.7-2.5,3.6-4,3.4-5.1c-0.3-1.5-2.2-2.7-3.4-4c-1.2,1.2-3.2,2.3-3.3,3.5C945.3,622.2,946.9,623.7,948.6,626.3z"/>
	<path d="M729.5,638.2c-3.2-12.5-6.4-25.1-9.7-38.2c6.6,1.3,8.3,3.2,19.7,20.6c-0.3-7.1-0.8-13.3-0.8-19.4c-0.1-5.5,0.2-11,0.6-16.4
		c0.1-1.3,1.2-2.5,1.9-3.8c1.2,0.9,3.2,1.5,3.6,2.7c3.9,10.4,7.5,20.9,11.2,31.4c0.5,1.5,0.8,3.1,1.5,4.7c3.4-21.4,6.1-43,21-60.5
		c3,21.5-1,42.6-2.6,63c5.6-5.9,11.3-12.3,17.5-18.2c1.9-1.8,5.3-2,8-2.9c-0.3,2.7-0.1,5.5-0.9,7.9c-2.2,6.4-4.9,12.7-7.5,19.1
		c5.3-3.3,10.4-6.5,15.5-9.7c0.5,0.6,1,1.3,1.4,1.9c-4.4,3.4-9.3,6.4-13.2,10.3c-4.2,4.1-7.5,9-11.9,13.3
		c0.8-13.6,9.3-24.7,12.9-38.5c-14.4,9.8-20.5,24.1-26,38.8c-0.6-0.2-1.2-0.4-1.8-0.6c2.4-24.9,4.9-49.7,7.3-74.6
		c-0.7-0.1-1.4-0.2-2.1-0.3c-12.4,23.5-13.6,49.6-15.9,75.5c-0.7,0-1.4,0-2.1,0c-1.6-9.4-2.7-19-4.8-28.3c-2.1-9.3-5.3-18.4-8-27.5
		c-0.9,0.1-1.8,0.3-2.6,0.4c0.8,15.6,1.6,31.3,2.4,46.9c-0.6,0.2-1.3,0.4-1.9,0.6c-2.2-4.8-4.3-9.8-6.8-14.5
		c-2.6-4.8-5.7-9.2-8.6-13.8c-0.4,0.2-0.8,0.3-1.2,0.5c2.1,9.6,4.3,19.2,6.4,28.8C731.3,637.7,730.4,637.9,729.5,638.2z"/>
	<path d="M70.8,668.1c6.2,4,11.6,7.3,16.8,10.9c2.5,1.7,4.7,3.7,6.8,5.9c0.9,0.9,0.9,2.6,1.4,3.9c-1.4,0.1-2.9,0.5-4.1,0.1
		c-8.9-3.5-17.6-2.7-26.2,1.3c-2,0.9-3.8,2.2-5.8,3c-1,0.4-2.3,0-3.5,0c0.5-1.1,0.7-2.6,1.5-3.2c7.4-4.9,15.4-7.8,24.4-7.3
		c1.1,0.1,2.2,0.2,3.7-0.6c-4.9-3-9.9-5.8-14.7-9.1c-1.8-1.2-3-3.2-4.5-4.9c1.9-1.4,3.5-3.5,5.7-4.2c6.9-2.5,13.8-1.4,20.5,1
		c2.2,0.8,4.3,1.7,7.2,1.6c-8.6-9.3-17.2-18.7-25.7-28c0.4-0.5,0.8-1,1.2-1.5c10-0.6,17.8,5.1,27.3,10.4c-2-3.7-3.5-6.2-4.9-8.8
		c-5.5-10.1-11.1-20.1-16.2-30.3c-1.3-2.7-0.8-6.3-1.2-9.5c2.9,0.8,6.1,1.2,8.7,2.5c12.1,6.1,20,16.3,26.6,27.7
		c1.4,2.4,2.7,4.8,4.8,6.9c-0.5-5.9-1-11.7-1.5-17.6c6.7,0.2,18.5,16.5,18.9,26.7c-5.1-7.7-9.6-14.3-14.1-21c-0.5,0.2-1,0.4-1.6,0.6
		c0.7,9.1,1.3,18.2,2,27.4c-10.2-19-18.6-39-41.2-49.4c1.8,4.4,2.8,7.9,4.5,11c8,14.4,16.3,28.7,24.3,43c1.4,2.6,2.2,5.5,2.3,9
		c-7.8-11.6-18.1-19.3-31.2-23.2c9.6,10.8,20.5,20.6,25.5,35C97.3,670.1,86.1,663.1,70.8,668.1z"/>
	<path d="M867.8,425.5c-11.2,2.1-21.8,4-32.6,6.1c0,9.7,0.1,19.2,0,28.6c-0.1,7.4-4.5,12.2-11.6,13.3c-5,0.8-9.5-1.5-11.2-5.6
		c-1.6-4-0.2-9.6,4.1-11.7c4.1-2,8.8-2.5,13.8-3.8c0-4.6,0-10.7,0-16.8c0-5,0-10-0.1-15c-0.1-3.2,1.3-4.9,4.5-5.5
		c10.6-1.9,21.3-3.8,31.9-5.8c3.7-0.7,5.7,0.4,5.7,4.5c0.1,13,0.5,26,0.5,39c0,8-5,13.6-12,14.1c-4.1,0.3-7.7-0.7-9.8-4.5
		c-2.2-3.9-1.4-7.7,1.3-11.1c4-5,9.2-6.2,15.6-4.4C867.8,439.9,867.8,433.1,867.8,425.5z M867.4,413.4c-9.1,1.8-18.1,3.5-27.2,5.3
		c-6.4,1.3-6.4,1.4-5,8.2c0.3,0.1,0.6,0.2,0.9,0.2c8.6-1.6,17.3-3.2,25.9-4.8C868.7,421.1,868.7,421.1,867.4,413.4z M820,469.4
		c6.2-0.1,11-4,11-7.7c-0.1-3.9-3.2-4.3-6-4.4c-4.6-0.2-9.7,3.9-8.9,7.4C816.6,466.8,819.1,468.4,820,469.4z M857.7,462.8
		c6.1-0.1,11-4.5,10.7-8.5c-0.3-3.8-3.3-3.7-6-3.7c-4.6,0-9.3,3.6-8.6,7.1C854.3,460,856.8,461.7,857.7,462.8z"/>
	<path d="M222.2,482.7c-1.7-7.3-3.4-16.3-5.8-25.1c-1.5-5.3-0.1-7.9,5-9.8c7.9-3,15.7-6.5,23.4-10c3.7-1.6,5.8-0.5,6.7,3.2
		c2.8,11.6,5.8,23.2,8.3,35c1.5,7.2-1.6,12.8-7.5,15.2c-4.2,1.7-8.3,1.4-11.4-2.2c-3-3.5-2.5-7.4-0.3-11.2c2.9-5,7.7-6.4,13.5-6.4
		c-1.6-6.5-3.1-12.5-4.7-19.1c-8.6,3.7-16.7,7.1-24.6,10.9c-0.9,0.4-1.5,3-1.2,4.4c1.4,7.5,3.4,14.9,4.8,22.4
		c1.2,6.7-2.3,12.3-8.7,14.3c-4.3,1.3-8.4,1.1-11.1-3c-2.6-3.9-2.3-8.6,0.9-11.5C212.7,487,217.3,485.4,222.2,482.7z M221.6,459.8
		c8-3.4,15.2-6.8,22.6-9.7c4.7-1.8,4.7-4.3,2.4-8.4c-8.8,3.9-17.6,7.7-26.5,11.7C220.6,455.5,221,457.3,221.6,459.8z M253.4,475.9
		c-5.9-0.2-10.5,3.5-9.9,7.3c0.3,1.8,2.7,4.2,4.4,4.5c3.8,0.7,8.1-3.7,7.8-7.8C255.7,478.2,253.9,476.7,253.4,475.9z M221.2,488.9
		c-5.8-0.1-9.7,3.3-9.7,7.2c0,3,1.6,4.7,4.6,4.7c4,0,8.6-4.3,8-8C223.8,491.1,221.8,489.7,221.2,488.9z"/>
	<path d="M766.8,486.2c0,8.9,0.1,17.3,0,25.8c-0.1,7-3.5,11.6-9.6,13.7c-7.1,2.4-14-0.6-15.4-6.7c-1.4-6,3.8-13.1,10.6-13.9
		c3-0.4,6.2,0.2,9.6,0.4c1-13.6-1-27.6,1.1-42.6c7.2,6.8,13.4,11.9,18.7,17.9c4.3,4.8,3.9,13,0.2,18.3c-0.7,1-2,1.7-4.2,3.4
		C779,492.7,774.7,488.4,766.8,486.2z M752.3,522.3c5.8-0.1,10.4-4.2,10-8.9c-0.4-4.6-4.2-4.6-7.5-4.6c-4.8-0.1-9.2,4.1-9.1,8.1
		C746,521.4,749.3,522,752.3,522.3z M780.7,489.6c-0.4-8.8-8.1-11.5-14.4-15.7c0.3,3.1,0.8,6.5,2.8,8.3
		C772.4,485.2,776.7,487.1,780.7,489.6z"/>
	<path d="M218.9,600.2c-1-2.5-2-5-2.9-7.6c-3-8.4-6-16.9-9.2-25.3c-0.5-1.4-1.8-2.7-3-3.7c-3.9-3.2-9.1-5.5-11.7-9.5
		c-4.9-7.4-8.8-15.6-12.4-23.7c-1-2.4,0.7-6.1,1.1-9.1c3,0.8,6.8,0.8,9,2.6c8.7,7.7,15.2,17.1,18.8,28.3c0.1,0.5,0.4,1,0.3,1.5
		c-1.5,10.7,4.9,19.3,7.6,28.9c1.6,5.6,3.1,11.3,4.6,16.9C220.4,599.7,219.7,600,218.9,600.2z M204.5,559.6c4.3-8-12.1-34-21.7-34.6
		C182.2,535,195.9,556.8,204.5,559.6z"/>
	<path d="M91.8,738.4c0.6-0.8,1.1-2,2-2.5c2.1-1.3,4.4-2.3,6.7-3.4c1.1,2.3,3,4.5,3.1,6.8c0.2,3.5-1,7-1.5,10.5
		c-0.7-0.1-1.4-0.2-2.1-0.3c0-4.3,0-8.5,0-12.8c-0.6-0.2-1.2-0.5-1.8-0.7c-1.6,2.8-3.3,5.7-4.9,8.4c-0.8,1.3-1.7,2.5-2.6,3.8
		c-0.8-1.5-1.8-2.9-2.4-4.4c-1.5-4.2-2.6-8.5-4.2-12.7c-0.6-1.5-2.1-2.8-3.6-4.7c-3.4,8.4,0.4,15.8,0.7,24c-5.4-4-10.3-7.5-15.1-11
		c-0.6,0.6-1.2,1.2-1.8,1.8c3.2,4.5,6.4,9,9.6,13.4c-0.4,0.4-0.7,0.9-0.8,0.9c-5.1-0.9-13.1-11.2-11.9-16c0.3-1.3,3.2-3.2,4.5-2.9
		c3.5,0.7,6.8,2.3,9.9,3.5c0.2-4,0-8.3,0.7-12.5c0.3-1.8,2-4.1,3.6-4.7c1.2-0.4,4,1,4.9,2.4C87.3,729.6,89.4,733.9,91.8,738.4z"/>
	<path d="M903.5,707.3c0.7,4.2,1.2,7.3,1.9,11.6c-4.5-4-5.5-7.9-4.9-12.3c0.4-3.2,2.9-3.5,5.3-2.2c2.2,1.2,4,2.9,6.1,4.5
		c1.7-3.7,3-7.6,5.1-11c1.1-1.8,3.5-2.7,5.3-4c1.2,1.8,3,3.5,3.6,5.5c1.1,3.9,1.5,8.1,2.1,12.1c4.1-1.3,8-3.1,12.1-3.8
		c4.7-0.8,6.4,1.5,4.6,5.8c-1.6,4-3.2,8.2-7.4,10.3c-0.4-0.2-0.9-0.5-1.3-0.7c1.8-3.7,3.5-7.4,5.5-11.6c-7.4-0.3-11.2,5.1-16.9,8.9
		c-0.8-7.7-1.5-14.5-2.3-22.3c-6.2,5.2-5.2,12.2-7.8,18.8C910.8,713.8,907.6,711,903.5,707.3z"/>
	<path d="M808.1,628.1c-0.3,2-0.6,4-0.8,6.1c3.1-0.3,6.2-0.6,9.3-1c0,0.4,0.1,0.8,0.1,1.2c-4.8,2.8-9.7,5.5-15.7,9
		c2.2-5.8,4.1-10.7,6.1-15.7C807.3,627.9,807.7,628,808.1,628.1z"/>
	<path d="M607.2,285.4c-1.2,2.6-1.9,4.1-2.6,5.6c-0.4,0.9-0.9,1.9-1.3,2.8c1.2,0.4,2.3,1.1,3.5,1.1c1.6,0,3.1-0.6,4.7-0.9
		c0.3,0.4,0.6,0.8,0.9,1.1c-1.1,1.3-2,3.2-3.4,3.8c-2.8,1.2-2.9,2.9-2.7,5.4c1.7,19.2-18,33.2-35.8,25.4c-6.4-2.8-9.2-8.4-10.8-14.7
		c-4.6-17.8,8.1-34.4,25.3-33.2c2.9,0.2,5.9,1.2,8.5,2.4C600,287.6,599.9,287.8,607.2,285.4z M586.6,326.7
		c12.1-2.6,17.9-11.7,15.1-22.9c-2.9-11.8-13.7-18.7-24.8-15.9c-10.2,2.6-16.9,13.7-14.1,23.4c4.5-10.9,11.6-14.2,17.7-10
		c0,3.7-0.9,6.9,0.3,8.7c0.8,1.2,4.6,0.5,7.9,0.7C591.2,315.4,589.5,320.8,586.6,326.7z"/>
	<path d="M445.7,299.5c-1.4-3.3-2.4-5.6-3.4-7.8c0.4-0.4,0.7-0.7,1.1-1.1c4,3.4,6.9,1.9,10.4-0.8c8-6,19.9-3.7,26.3,4.6
		c6.2,8,7.9,17.2,5.4,26.9c-1.8,7.3-7.1,11.8-13.9,12.5c-10.2,1-19.2-1.3-24.4-10.8c-2.1-3.9-2.6-8.8-3.2-13.4
		c-0.3-2.6-0.1-4.7-3.1-5.9c-1.2-0.4-1.7-2.4-2.6-3.7c1.3-0.1,2.6-0.2,4-0.3C443.4,299.8,444.5,299.7,445.7,299.5z M482.2,319.9
		c3.3-11.6-2.9-24.5-13-27.5c-8.7-2.6-17.4,3.1-20.5,12.8c-2.5,7.9,0.6,21.4,10.1,23.1c-4.4-9.7-3.8-17.3,1.9-21.8
		c4.1-3.3,9.2-3.3,12.5-0.8c-0.3,3.3-0.6,5.8-0.8,8.3c2.5,0.1,4.9,0.3,8,0.4C480.9,315.6,481.5,317.6,482.2,319.9z"/>
	<path d="M574.9,259.1c-1.7,0-3.5,0.5-4.9-0.1c-2.2-0.9-4-2.6-5.9-4c1.5-2.1,2.6-5.2,4.6-6.1c2.9-1.2,6.5-1.2,9.7-1
		c9,0.8,17.2,3.9,23.5,10.6c1.1,1.2,1.1,3.4,1.6,5.2c-1.8,0.1-3.7,0.7-5.4,0.3c-7.6-1.9-15.2-4.2-22.8-6.3
		C575.2,258.2,575.1,258.7,574.9,259.1z"/>
	<path d="M554.4,359.8c2.4-1.8,7.5,0.3,8.1,3.3c0.2,0.8-0.8,2.2-1.7,2.7c-1.6,1-3.8,1.3-5.1,2.5c-13,13-39.5,16.6-55.5,7.4
		c-0.9-0.5-1.9-0.9-2.5-1.7c-1.1-1.5-1.8-3.2-2.7-4.8c1.7,0.2,3.7,0,5.1,0.8c15.1,8.9,37.1,7.2,50.6-4.2
		C552.5,364.4,553.2,361.8,554.4,359.8z"/>
	<path d="M464.3,253.6c1.6,0.2,3.1-0.1,3.8,0.6c1.6,1.6,3.5,3.5,3.8,5.5c0.2,1.2-2.3,3.8-3.9,4.1c-8.3,1.3-16.2,3.3-23.4,7.8
		c-0.9,0.6-3.6,0.1-3.8-0.4c-0.4-1.4-0.5-3.4,0.3-4.5C446.8,258.4,455.1,254.9,464.3,253.6z"/>
	<path d="M686.3,308.7c-8.9-3.5-11.5-2.8-17,4.7c5.6,2.3,8.7,6.3,8.1,12.5c-0.4,3.9-2,5.7-6.5,7.2c0.6-1.6,1.2-2.6,1.3-3.8
		c0.3-2.6,0.8-5.3,0.2-7.7c-0.3-1.3-2.5-2.7-4.1-3c-0.9-0.2-2.2,1.8-3.3,2.8c-0.9,0.8-1.8,1.6-2.7,2.4c-0.4-1.3-1.4-2.7-1.1-3.7
		c1.9-8,5.8-14.6,13.9-17.6C681.1,300.2,686.6,303.4,686.3,308.7z"/>
	<path d="M511.5,328.6c-1.4,0.7-3.2,1.1-4.2,2.3c-1.8,2-4.3,4.3-4.3,6.5c0,2.3,2.1,5.8,4.1,6.6c4,1.5,8.6,1.5,13,1.9
		c1.5,0.1,3.1-0.4,4.7-0.7c0.1,1,0.3,1.4,0.1,1.6c-3.9,4.9-9.2,4.8-14.5,3.9c-5.5-1-10.6-3.6-11.8-9.3c-0.7-3.3,0.4-7.6,2.3-10.5
		C502.8,327.3,506.9,326.1,511.5,328.6z"/>
	<path d="M171.8,858.9c4.7-5.8,10-10.8,17-13.7c0.3,0.4,0.6,0.8,1,1.2c-5.7,4.6-11.4,9.1-17,13.7
		C172.5,859.7,172.1,859.3,171.8,858.9z"/>
	<path d="M904.6,752c-3.5,4.2-7.1,8.5-10.6,12.7c-0.6-0.5-1.1-0.9-1.7-1.4c3.5-4.3,7-8.6,10.5-12.9C903.4,751.1,904,751.6,904.6,752
		z"/>
	<path d="M116.2,841c-4.1,3.4-8.2,6.8-12.4,10.3c-0.4-0.5-0.9-1-1.3-1.5c4-3.5,8-7.1,12-10.6C115.1,839.7,115.6,840.4,116.2,841z"/>
	<path d="M243.4,871.8c2.7-5.2,6.3-9.5,11.7-11.8C251.2,863.9,247.3,867.8,243.4,871.8z"/>
	<path d="M255.4,869.7c3-3,6.1-6.1,9.1-9.1c0.6,0.6,1.1,1.1,1.7,1.7c-3.2,2.9-6.4,5.8-9.6,8.7C256.2,870.5,255.8,870.1,255.4,869.7z
		"/>
	<path d="M196.2,852.1c-3.5,2.8-7,5.5-10.4,8.3c-0.4-0.5-0.8-1-1.3-1.6c3.4-2.8,6.9-5.6,10.3-8.4C195.3,851,195.7,851.6,196.2,852.1
		z"/>
	<path d="M462.6,896.6c2.6-3.4,5.3-6.7,7.9-10.1c0.6,0.4,1.1,0.8,1.7,1.3c-2.6,3.4-5.3,6.8-7.9,10.2
		C463.7,897.5,463.1,897,462.6,896.6z"/>
	<path d="M904.3,761.9c2.5-3.1,5-6.3,7.6-9.4c0.6,0.4,1.1,0.9,1.7,1.3c-2.5,3.1-5.1,6.3-7.6,9.4
		C905.4,762.8,904.9,762.4,904.3,761.9z"/>
	<path d="M690.9,925.7c2.8-3.4,5.6-6.7,8.4-10.1c0.5,0.4,1,0.8,1.6,1.3c-2.7,3.4-5.5,6.8-8.2,10.2
		C692.1,926.6,691.5,926.1,690.9,925.7z"/>
	<path d="M461.8,888c-2.2,3.2-4.4,6.4-6.6,9.6c-0.6-0.4-1.2-0.8-1.7-1.2c2.1-3.3,4.3-6.5,6.4-9.8C460.6,887.1,461.2,887.5,461.8,888
		z"/>
	<path d="M579.5,913.1c2.3-2.9,4.7-5.8,7-8.7c0.6,0.4,1.1,0.9,1.7,1.3c-2.3,3-4.6,5.9-6.9,8.9C580.7,914.1,580.1,913.6,579.5,913.1z
		"/>
	<path d="M677.6,923.5c2.5-2.9,5-5.8,7.5-8.6c0.5,0.5,1.1,0.9,1.6,1.4c-2.5,2.9-5.1,5.8-7.6,8.7C678.5,924.4,678,924,677.6,923.5z"
		/>
	<path d="M738.7,897c-38.6-4.7-77.4-8.4-115.6-15.7c0.1-0.4,0.1-0.8,0.2-1.2c38.6,5,77.1,10,115.7,15
		C738.8,895.8,738.8,896.4,738.7,897z"/>
	<path d="M186.8,819.5c39.3,5.7,78.5,11.3,117.8,17c-0.1,0.7-0.2,1.3-0.3,2c-39.3-5.7-78.6-11.5-117.9-17.2
		C186.6,820.8,186.7,820.1,186.8,819.5z"/>
	<path d="M410.5,853.3c-30-4.3-60-8.6-90-12.9c0.1-0.8,0.2-1.6,0.3-2.4c30,4.5,60,8.9,89.9,13.4
		C410.6,852.1,410.6,852.7,410.5,853.3z"/>
	<path d="M543.7,873.2c-12.7-1.9-25.5-3.8-38.2-5.7c0.1-0.6,0.2-1.3,0.3-1.9c12.7,2,25.5,3.9,38.2,5.9
		C543.8,872,543.7,872.6,543.7,873.2z"/>
	<path d="M598.8,879.6c-8.1-1.3-16.3-2.6-24.4-3.9c0.1-0.6,0.2-1.3,0.3-1.9c8.1,1.2,16.3,2.5,24.4,3.7
		C599,878.2,598.9,878.9,598.8,879.6z"/>
	<path d="M849.7,578.3c-3.8,10.2-1.3,19.8,7,26.9c7.7,6.7,19.6,9.3,26.5,5.5c-4.6-2.8-9-5.5-13.4-8.3c0.2-0.5,0.5-1,0.7-1.4
		c6.8,2,13.2,7.7,22.3,2.6c-5.7-2.5-10.5-4.5-15.2-6.6c0.1-0.5,0.3-1,0.4-1.5c3.3,0.3,6.5,0.5,9.8,0.8c0.1-0.3,0.3-0.6,0.4-1
		c-3.3-2.5-6.6-5.1-10.4-8c7.1-0.4,13.1,4,14.4,9.7c0.2,1,0.9,2,1.6,2.8c3.3,3.7,2.6,6.6-1.9,9c-1.8,0.9-3,3-4.8,4.1
		c-2.3,1.5-4.7,3.4-7.2,3.8c-15.9,2.6-32.9-9.4-35.5-25.3c-0.5-3.3,0.2-6.9,0.9-10.3c0.3-1.5,2.2-2.7,3.4-4
		C849.1,577.6,849.4,578,849.7,578.3z"/>
	<path d="M825.6,552.3c3.5-2.7,5.5-5.3,7.8-5.7c3.1-0.6,5,2.1,5.2,5.4c0.2,3.4-2.8,6.9-5.7,6C830.7,557.3,829,555,825.6,552.3z"/>
	<path d="M734.8,746.9c2.8,0.2,6,1,6.3,5.4c0.2,3.2-3.8,5.9-8.6,5.7c-3.6-0.1-6.8-1.2-7.2-5.3C725,749.6,729.5,746.8,734.8,746.9z
		 M737.8,753.5c-0.1-1-0.2-2-0.3-3.1c-2.9,0.3-5.8,0.6-8.6,1c0.1,0.9,0.2,1.9,0.3,2.8C732,754,734.9,753.8,737.8,753.5z"/>
	<path d="M806.1,686.3c-3.5-0.2-6.8-0.6-7.1-4.8c-0.2-3.2,3.8-5.9,8.5-5.9c3.4,0,6.7,1,6.4,5.1C813.7,685.6,809.6,685.9,806.1,686.3
		z M810.7,681.9c-0.1-0.9-0.3-1.9-0.4-2.8c-2.6,0.4-5.2,0.8-7.8,1.2c0.1,0.8,0.2,1.6,0.3,2.4C805.4,682.4,808.1,682.1,810.7,681.9z"
		/>
	<path d="M672.3,843.2c-9.3-3.8-15.4-18.7-13.3-32.2c0.7,3.6,1.1,7.3,2,10.9c1,3.7,2.1,7.4,3.9,10.7
		C666.8,836,669.4,839,672.3,843.2z"/>
	<path d="M749.3,686.5c-2.8-0.3-6-0.6-6.2-4.6c-0.2-3.1,3.8-5.9,8-5.8c3.5,0,6.4,1.2,6.7,5.1C758,684.3,754.3,686.6,749.3,686.5z"/>
	<path d="M679.3,754c-2.8-0.3-6.2-0.7-6.6-5.1c-0.2-3.3,3.8-6,8.5-5.7c3.5,0.2,6.7,1.2,7,5.5C688.4,751.8,684.9,754,679.3,754z
		 M684.8,749.5c-0.1-0.5-0.1-1.1-0.2-1.6c-3-1.6-5.9-2.3-8.2,2.5C679.3,750.1,682.1,749.8,684.8,749.5z"/>
	<path d="M540.2,798.9c1.8,10,5.1,19.3,13.1,27.3C545.3,824.4,538.3,809.2,540.2,798.9z"/>
	<path d="M573.5,637.5c-16.6,5.4-33,6.6-49.3-1.3C540.6,640.2,557.1,639.2,573.5,637.5z"/>
	<path d="M694.4,687c-2.6-0.4-6-0.9-6.1-5.1c-0.1-2.9,4.2-5.5,8.5-5.3c3.3,0.2,6,1.4,6.1,5.2C703,684.7,699.2,687.1,694.4,687z"/>
	<path d="M630.2,750.1c-3.5-0.3-7-0.5-7.5-4.9c-0.4-3.3,3.7-6.2,8.3-6c3.5,0.2,7.1,1.3,6.9,5.5C637.6,749.1,633.7,749.7,630.2,750.1
		z M634.3,745.5c-0.1-0.8-0.2-1.7-0.2-2.5c-2.7,0.2-5.4,0.4-8,0.6c0.1,0.9,0.2,1.7,0.2,2.6C628.9,746,631.6,745.8,634.3,745.5z"/>
	<path d="M541,684.3c-3.4-0.2-7-0.7-6.8-4.8c0.2-4.2,3.9-5.4,7.6-5.4c3.4,0,6.5,1.2,6.4,5.2C547.9,683.7,544.3,684,541,684.3z"/>
	<path d="M486,735.4c-3.3-0.3-7.2-0.5-7-5.1c0.2-4.5,4-5.2,7.6-5.4c3.6-0.2,7.1,1,7.1,5.1C493.6,734.5,489.7,735.1,486,735.4z
		 M482.5,729.2c0,0.8,0,1.6,0,2.4c2.5-0.2,5.1-0.3,7.6-0.5c0-0.6-0.1-1.3-0.1-1.9C487.5,729.2,485,729.2,482.5,729.2z"/>
	<path d="M644.9,676.2c2.8,0.5,6.3,1.3,5.9,5.4c-0.4,4.4-4.3,5.1-7.9,5c-3,0-6.2-0.8-6.5-4.7C636.1,678.8,640.2,676,644.9,676.2z"/>
	<path d="M582.8,734.7c3.7,0.2,6.6,1.6,6.7,5.8c0,3.1-4,5.4-8.5,5c-3.2-0.3-6.6-0.9-6.8-5.1C574,737.2,578.2,734.5,582.8,734.7z
		 M577.9,739c0.1,1,0.1,1.9,0.2,2.9c2.6-0.3,5.3-0.6,7.9-0.9c-0.1-0.9-0.2-1.7-0.2-2.6C583.2,738.6,580.5,738.8,577.9,739z"/>
	<path d="M592.4,675.8c3.8,0.1,7.3,0.9,7.4,4.8c0.1,4.2-3.4,5.3-7,5.4c-3.4,0-7.3-0.4-7.1-4.9C585.7,676.9,589.3,676.1,592.4,675.8z
		"/>
	<path d="M533.2,740.1c-2.9-0.2-6.4-0.5-6.9-4.9c-0.4-3,3.8-5.9,8.1-5.7c3.3,0.2,6.5,1,6.9,5.1C541.7,737.8,538.4,740.1,533.2,740.1
		z M529.9,734c0.1,0.9,0.2,1.8,0.3,2.6c2.6-0.3,5.2-0.6,7.7-0.9c-0.1-0.8-0.2-1.7-0.3-2.5C535.1,733.5,532.5,733.7,529.9,734z"/>
	<path d="M463,813.4c-8.7-1.4-17.1-14.1-15.5-24.3C450.3,799.8,455.3,807.5,463,813.4z"/>
	<path d="M434.5,730.5c-2.1-1.9-5-3.5-5.9-5.8c-1.1-2.8,3.3-5.9,7.6-5.8c3.6,0,6.7,0.9,7,5.3C443.3,727.3,440.1,729.4,434.5,730.5z"
		/>
	<path d="M488.4,681.8c-0.9-0.9-3.5-2.6-4.3-4.9c-1-2.7,3.3-5.9,7.3-5.7c3.3,0.1,6.4,1.1,6.6,5.2C498.2,679.6,494.7,682,488.4,681.8
		z"/>
	<path d="M384.1,724.3c-4.4-1.4-8.1-1.8-8-6.3c0.1-4.1,3.6-5.2,7.1-5.3c4.2-0.1,8.4,2.8,7.2,5.5
		C389.3,720.7,386.3,722.3,384.1,724.3z"/>
	<path d="M439.5,667.6c3.6,0.2,7,1,7,5c0.1,4.2-3.5,5.3-7,5.4c-3.3,0-6.8-0.6-6.8-4.8C432.7,668.9,436.2,667.9,439.5,667.6z"/>
	<path d="M329.7,716.7c-1.9-2.1-4.7-3.8-5.5-6.3c-1-2.9,3.4-5.8,7.8-5.6c3.7,0.2,7,1.5,6.7,5.6C338.4,715,334.3,715.2,329.7,716.7z"
		/>
	<path d="M389.7,672.7c-3.1-0.4-6.7-0.7-6.7-4.9c-0.1-4.3,3.4-5.3,6.8-5.6c3.4-0.2,6.6,1.1,6.8,5
		C396.8,671.5,393.2,672.2,389.7,672.7z"/>
	<path d="M271.3,763.3c1.3,3.1,2.3,5.9,3.7,8.4c1.3,2.4,3.1,4.6,4.8,7.1C274.4,777.8,270.6,770.8,271.3,763.3z"/>
	<path d="M280.7,707.1c-3.5-0.3-7.3-0.8-7.4-5c-0.1-4.2,3.5-5.2,7.1-5.3c3.6-0.1,7.1,0.9,7.3,5.1
		C287.9,706.3,284.1,706.8,280.7,707.1z"/>
	<path d="M340.9,666.4c-3.2-0.4-6.8-0.5-6.9-4.7c-0.1-4.4,3.4-5.3,6.9-5.5c3.5-0.2,6.5,1.4,6.7,5.1
		C347.8,665.5,344.2,666,340.9,666.4z"/>
	<path d="M231.1,700.6c-3-2.9-5.9-4.6-6.9-7c-1.1-2.6,3.3-5.8,7.3-5.6c3.6,0.2,7.2,1.7,6.4,5.8C237.5,696.1,234.1,697.7,231.1,700.6
		z"/>
	<path d="M292,660c-1.8-1.9-4.9-3.6-5.2-5.7c-0.5-4.1,3.1-5.4,6.7-5.4c3.4,0.1,6.5,1.3,6.4,5.3C299.8,658.4,296.3,658.8,292,660z"/>
	<path d="M373.9,795.4c-6.9-3.9-10.6-10.7-10.4-17.1C366.6,783.4,369.9,788.9,373.9,795.4z"/>
	<path d="M552.7,521.2c-2.4-3.1-6.5-5.6-3.7-9.2c1.1-1.4,7.6-1.2,8.4,0.2C559.5,515.8,555.9,518.4,552.7,521.2z"/>
	<path d="M585.2,471.4c-2.8,5.3-4.7,8.7-6.5,12.2c-0.4,0.1-0.8,0.3-1.2,0.4c-0.8-3.4-2.6-7.1-1.8-10.1
		C575.9,472.5,581.3,472.4,585.2,471.4z"/>
	<path d="M573.3,491.5c1,2.8,3.1,5.8,2.6,8.2c-0.3,1.4-4.8,2-7.4,3c-0.5-0.5-1-1-1.5-1.5c1.2-3.2,2.5-6.5,3.7-9.7
		C571.6,491.5,572.5,491.5,573.3,491.5z"/>
	<path d="M530.8,480c-2.1-3.4-4.1-6.7-7.1-11.6c3.7,0.7,8.4,0.5,8.8,1.8c1,2.9-0.1,6.5-0.3,9.8C531.7,480.1,531.2,480.1,530.8,480z"
		/>
	<path d="M622,445.2c-3,1.7-4.8,3.4-6.7,3.6c-1,0.1-3.5-3-3.3-3.4c1.2-2,3.1-3.7,4.8-5.4C618.1,441.3,619.4,442.6,622,445.2z"/>
	<path d="M606.1,463.1c-2.9,2.2-4.4,4.3-6.1,4.5c-1.3,0.1-4.1-2.7-3.9-3.5c0.5-1.8,2.3-3.9,4-4.5
		C601.2,459.2,603.2,461.3,606.1,463.1z"/>
	<path d="M540.9,497.2c-2.1,1.7-3.7,3.7-4.3,3.4c-1.8-0.8-4.3-2.4-4.4-3.8c-0.1-1.7,1.9-3.7,2.9-5.5
		C536.7,493,538.4,494.6,540.9,497.2z"/>
	<path d="M515.5,451.4c1.8,2.8,3.5,4.4,3.8,6.1c0.2,1.1-1.8,2.5-2.9,3.8c-1.4-1.5-3.4-2.8-4.1-4.6C512,455.8,513.9,454,515.5,451.4z
		"/>
	<path d="M182.2,689.5c-2-2-4.8-3.6-5.8-6c-1.1-2.6,2.9-5.6,6.8-5.4c3.4,0.2,6.6,1.3,6.7,5.3C190,687.5,186.6,688.2,182.2,689.5z"/>
	<path d="M248.4,640.4c3.4,0.4,6.6,1.2,6.7,5.2c0.1,4.3-3.5,4.9-6.7,5c-3.1,0.1-6.3-1-6.4-4.8C241.9,641.8,245.2,641,248.4,640.4z"
		/>
	<path d="M201.6,760.4c-2.4-3.7-4.8-7.5-7.3-11.2c0.4-0.3,0.9-0.6,1.3-0.9c2.6,3.6,5.1,7.2,7.7,10.8
		C202.8,759.6,202.2,760,201.6,760.4z"/>
	<path d="M788.7,874.8c19.9-20.4,39.9-40.8,59.8-61.1c0.5,0.5,1.1,1.1,1.6,1.6c-20,20.3-40,40.6-60,61
		C789.7,875.8,789.2,875.3,788.7,874.8z"/>
	<path d="M764.4,823.7c0,18.4,0,36.8,0,56.2C761.7,875.9,761.7,833.7,764.4,823.7z"/>
	<path d="M149.2,754.5c0.7,14,1.4,28,2.1,41.9c-0.7,0-1.5,0.1-2.2,0.1c-0.6-14-1.2-28-1.8-42C148,754.6,148.6,754.6,149.2,754.5z"/>
	<path d="M141.6,775.1c-0.8-13.1-1.6-26.2-2.4-39.2c0.6,0,1.3-0.1,1.9-0.1c0.7,13.1,1.4,26.3,2.1,39.4
		C142.8,775.1,142.2,775.1,141.6,775.1z"/>
	<path d="M856.8,789c0.7-14.4,1.4-28.7,2-43.1c0.6,0,1.3,0.1,1.9,0.1c-0.6,14.4-1.2,28.7-1.8,43.1C858.3,789.1,857.6,789,856.8,789z
		"/>
	<path d="M856.4,728.8c-0.4,6.2-0.8,12.4-1.2,18.6c-0.2,0-0.3,0-0.5-0.1c0-6.2,0-12.5,0-18.7C855.3,728.7,855.8,728.7,856.4,728.8z"
		/>
	<path d="M862.2,659.6c0,7.3,0,14.5,0,21.8c-0.3,0-0.6,0-0.9-0.1c0-7.2,0-14.4,0-21.7C861.6,659.7,861.9,659.7,862.2,659.6z"/>
	<path d="M765.7,778.6c0-6,0-12.1,0-18.1c0.4,0,0.8,0,1.1,0.1c0,6.1,0,12.1,0,18.2C766.5,778.7,766.1,778.7,765.7,778.6z"/>
	<path d="M142.1,683.3c-0.3-4-0.6-8-1-12c0.6,0,1.2-0.1,1.7-0.1c0.2,4,0.5,8,0.7,12C143.1,683.2,142.6,683.2,142.1,683.3z"/>
	<path d="M224.4,625.5c0.3,4.6,0.7,9.2,1,13.8c-0.6,0.1-1.3,0.1-1.9,0.2c-0.3-4.6-0.6-9.2-0.8-13.8
		C223.3,625.6,223.9,625.6,224.4,625.5z"/>
</g>
</svg>
