<?xml version="1.0" encoding="utf-8"?>
<!-- Generator: Adobe Illustrator 18.1.1, SVG Export Plug-In . SVG Version: 6.00 Build 0)  -->
<svg version="1.1" id="Layer_1" xmlns="http://www.w3.org/2000/svg" xmlns:xlink="http://www.w3.org/1999/xlink" x="0px" y="0px"
	 viewBox="0 0 612 792" enable-background="new 0 0 612 792" xml:space="preserve">
<g>
	<g>
		<path display="none" fill="#904B15" d="M352.3,353.4c2.2,7.3,5.6,14.3,9.3,21c3,5.4,7.3,8.8,11.4,13.1c-0.9,0.9-1.9,1.8-2.8,2.4
			c-0.8,0.6-1.4,1-2.2,1.6c-6.8-2.5-15.1-20.4-16.5-23.6c-5.4-11.9-7.4-25.4-8.3-38.3c-0.8-13.2,0.7-26.3,3.7-39.1
			c1-4.5,2.7-8.5,4.7-12.5c-1.3,0.2-2.5,0.5-3.9,0.8c-23.9,13.5-44.3,33.5-61.8,54.4c-9.4,11.2-15.7,24.1-23,36.7
			c-3.5,6-5.7,13.1-8.7,19.5c-1.1,2.6-2,5.3-2.6,8c-0.6,1.8-1.1,3.6-1.7,5.4c-0.4,1.2-1.8,3.1-3.3,4.4c-0.8-0.1-1.5-0.3-2.3-0.6
			c-0.7-0.2-1.2-0.5-1.9-0.8c0.7-8.2,5.9-17.2,9.1-24.3c4.2-9.5,9.5-18.3,14.7-27.3c9-15.8,20.6-30.6,33.3-43.6
			c23-23.8,53.7-40,72.9-67.5c-0.7,0.9,7.8,2.6,8.4,2.8c2.6,0.7,2.2-0.4,0,2c-5.7,6.2-11.1,12-16.1,19
			c-8.4,11.6-13.6,27.2-16.4,41.1C345.7,322.9,348.2,338.9,352.3,353.4z"/>
	</g>
</g>
<g>
	<path d="M544.4,307.7c7.7,0.5,10.1,2.6,11.5,10.3c1.6,0.4,3.2,0.7,4.7,1.3c4.3,1.8,6.2,5.4,5.8,10.3c-0.1,0.7,0.5,1.8,1.1,2.2
		c5.9,3.4,7.1,6.1,5.2,13.2c5.4,3.1,8.7,7.6,7.4,14.3c-0.9,4.4-3.3,6.2-11.2,8.7c-1.2,8.8-5,11.7-13.6,9.9
		c-1.9,5.1-5.3,8.7-11.2,8.8c-5.6,0.1-9.5-3-12.8-6.9c-10.1,5.1-15.8,1.9-19.8-11.1c-2.8,2.3-5.5,4.5-8.2,6.7
		c-9,7.3-19,12.4-30.6,14.4c-4.2,0.7-8.1,3.1-11.9,5.1c-2.9,1.5-5.5,3.6-8.3,5.5c8.9,6.9,17.9,11.7,26.1,9.4c-0.3-0.7-0.7-1.3-1-1.9
		c-3.7-6.7,0.8-14.1,8.3-13.8c1.8,0.1,2.5-0.3,3.1-2.1c3.1-8.2,10.6-9.9,17-3.9c11.2-5.9,17.8-3.3,17.5,6.8
		c11.3,5.7,12.5,10.6,4.8,18.3c1.8,3.2,3.8,6.1,5.3,9.3c1.3,2.8,0.5,4.1-2.5,4.9c-4,1.2-6.9,0.9-14.3-1.2c-0.4,2.4-0.6,4.8-1.3,7.1
		c-1.4,5.1-3.1,5.8-7.8,3c-4.4-2.6-7.5-6.2-9-11.1c-0.2-0.6-0.4-1.3-0.8-2.3c-4.9,3.7-9.3,0.3-13.7-1.6c-0.1,0.3-0.2,0.6-0.3,0.9
		c0.7,0.8,1.3,1.5,2,2.3c3.5,4,4.9,8.6,4.3,13.8c-0.4,3.4-2,4.7-5.2,3.3c-3.2-1.4-6.1-3.5-7.8-4.5c-2.4,1.7-4.8,3.5-7.3,5.2
		c-4.3,2.9-6.2,2.1-7.4-2.9c-1.2-5.1-0.3-9.8,2.3-14c-9.3-3.4-18.4-7.9-27.9-9.9c-16.2-3.4-29.4,3-39.6,15.7
		c-10.1,12.5-12,26.9-8.6,42c3.5,15.3,7.8,30.4,11.5,45.6c6.3,25.8,9.2,52,8.1,78.6c-0.4,8.6-0.1,17.2,2.2,25.5
		c0.6,2,1.2,3.9,2.2,5.7c3,5.3,6.2,10.5,8.9,14.9c1-4.2,1.9-9.5,3.5-14.5c1.1-3.5,3.1-6.7,5-9.9c0.5-0.9,2-1.3,3-2
		c0.3,1.1,0.9,2.2,0.9,3.3c0.1,7.3,0,14.5,0.4,21.9c0.4-0.9,0.7-1.9,1.1-2.8c4.5-11.1,11.6-20,21.8-26.4c0.6-0.4,1.1-0.8,1.8-1
		c1.5-0.3,3-0.4,4.5-0.6c-0.4,1.5-0.4,3.1-1.2,4.4c-5.9,9.2-10.7,18.8-13.6,29.3c-0.1,0.4-0.2,0.9-0.4,1.9
		c5.7-6.5,12.1-10.7,20-12.4c0.4-0.1,0.8-0.3,1.1-0.2c1.2,0.2,2.3,0.4,3.5,0.7c-0.5,1.2-0.7,2.5-1.5,3.4c-3.4,4.1-7.1,8-10.6,12.1
		c-0.6,0.7-1,1.7-1.6,2.7c4.1-0.8,7.7-1.6,11.4-2.2c1.2-0.2,2.6-0.2,3.8,0.1c0.9,0.2,2.2,0.9,2.3,1.6c0.1,0.7-0.8,1.8-1.5,2.5
		c-2.5,2.3-5.1,4.4-7.6,6.7c-0.7,0.6-1,1.5-1.7,2.5c9.1,1.9,17.9,3.7,26.6,5.6c2,0.4,4,0.8,6,1.4c0.7,0.2,1.1,1.2,1.6,1.8
		c-0.7,0.5-1.4,1.5-2.1,1.5c-2-0.1-4-0.5-6.1-0.8c-15.1-2.5-30.1-5.1-45.2-7.7c-0.4-0.1-0.8,0-1.4,0c0.5,1.1,0.9,1.9,1.3,2.8
		c2.1,4.7,0.8,7.6-4.3,8.1c-5.7,0.6-11.6,1-17.2,0.2c-13.1-1.9-26.1-4.5-39.1-6.8c-1.3-0.2-2.7-0.3-4.5-0.5c0.7,1.8,1.2,3.1,1.8,4.5
		c2.1,5.7,0.3,8.5-5.8,9.1c-7.6,0.7-15-0.2-22.3-2.1c-7.5-2-15-4.2-22.7-5.6c-4.1-0.8-8.5-0.2-12.8-0.2c-1.9,0-2.8,1.1-3.3,2.9
		c-0.4,1.4-1.6,2.5-2.5,3.8c-0.3-1.6-1.1-3.3-0.8-4.7c0.7-3.4,1.9-6.7,2.3-10.4c-1.6,2.7-3.2,5.5-4.9,8.2c-0.5,0.8-1.3,1.5-1.9,2.2
		c-0.4-1-1.3-2.1-1.2-3c0.8-6.4,1.9-12.8,2.7-18.6c-2.6,3.5-4.3,8.1-5.3,13c-0.1,0.3,0,0.6-0.1,0.9c-0.6,1-1.2,2-1.7,3.1
		c-0.6-1-1.4-1.9-1.8-3c-1.4-3.8-2.6-7.7-3.9-11.6c-0.2-0.5-0.6-0.9-0.9-1.3c0.7,6,1.5,11.9,2.1,17.9c0.2,1.8-0.5,3.7-0.8,5.5
		c-1-1.5-2.2-2.9-2.9-4.5c-1.6-3.7-3.6-7-7.3-10.1c2.6,6.1,5.6,11.3,4.3,17.4c-0.4,0.1-0.7,0.3-1.1,0.4c-0.7-1.2-1.3-2.3-2-3.4
		c-4.5,0.8-8.9,1.9-13.4,2.4c-4.4,0.4-9,0.6-13.4,0.1c-8.6-0.9-10.2-3.6-7.1-12.2c-2.7,0.4-5.3,0.6-7.8,1
		c-11.2,1.9-22.4,4.3-33.7,5.7c-6.8,0.8-13.8,0.7-20.6,0c-6.4-0.6-7.5-3.6-4.5-9.3c0.3-0.5,0.5-1,1-2.1c-3.3,0.3-6.1,0.5-8.9,0.9
		c-14.2,2-28.3,4.1-42.1,8.3c-1.7,0.5-3.6,0.3-5.5-0.2c10.5-6,22.1-7.7,34-10.8c-2-1.5-4.1-2.9-6.1-4.4c-0.9-0.7-1.5-1.8-2.3-2.7
		c1.1-0.6,2.2-1.8,3.2-1.8c3.9,0.1,7.9,0.6,12.4,0.9c-1.7-2.2-3.2-4.4-5-6.3c-1.7-1.9-3.8-3.4-5.6-5.2c-0.7-0.7-1-1.9-1.4-2.9
		c1-0.3,2.1-1.1,3.1-1c6.1,0.7,11.4,3.2,16,7.2c0.6,0.5,1.2,1,1.8,1.5c0.1,0.1,0.4,0.1,0.9,0.1c-0.4-1.8-0.6-3.6-1.2-5.1
		c-3.1-7.8-6.3-15.5-9.5-23.2c-0.3-0.8-1-1.5-1.2-2.3c-0.2-0.8-0.3-2.1,0.2-2.6c0.5-0.4,2-0.5,2.6,0c2.7,2,5.5,4,7.9,6.5
		c5.9,6.1,9.9,13.5,12.7,21.5c0.3,0.7,0.5,1.4,1.4,2.1c0.3-5.1,0.5-10.3,0.8-15.4c0-0.9-0.1-1.8,0.1-2.6c0.2-0.8,0.7-2,1.1-2.1
		c0.8,0,2,0.4,2.4,1.1c1.6,2.9,3.2,5.8,4.2,9c1.3,4.3,1.9,8.9,2.8,13.5c3.3-1.3,5.7-3.4,7.4-6.8c2.3-4.8,5.6-9.1,7.6-14
		c2-4.6,3.3-9.5,4.2-14.5c0.8-4,1-8.2,0.8-12.2c-1.8-37.5,3.9-74,14.8-109.9c2.8-9.3,4.6-18.9,6.2-28.5c2.2-12.8-2.1-23.6-11.6-32.4
		c-7.1-6.6-15.1-11.6-24.4-14.6c-6.4-2.1-12.9-2.1-19.2,0.1c-4.1,1.5-8.2,3.2-12.3,4.7c-7.2,2.8-14.5,4.6-22.6,3.1
		c0.3,1.9,0.7,3.6,0.9,5.2c0.6,3.9-0.4,7.5-2.2,11c-1.2,2.2-3.1,2.9-5.1,1.3c-3-2.5-5.7-5.3-8.6-8.2c-1.6,1-3.9,2.7-6.4,3.8
		c-3,1.4-4.6,0.8-5-2.5c-0.4-3.8,0-7.6,0-11.5c-1.2,0.1-3.2,0.3-5.4,0.5c-1,6.1-3.9,11.1-9.1,14.7c-6.1,4.2-8.3,3.3-9.6-4
		c-0.4-2.2-0.5-4.4-0.7-6.6c-2.8,0.4-5.5,1-8.3,1.3c-1.5,0.1-3.1-0.1-4.6-0.4c-4.7-0.9-5.4-2.3-3.4-6.6c0.8-1.8,1.8-3.5,3-5
		c1.2-1.5,2.8-2.7,4.4-4.1c-2-2.4-3.6-5.1-2.4-8.4c1.2-3.3,4.1-4.5,7.2-5.3c-1-9.1,5.7-13.1,16.3-9.5c3.8-8.4,12.2-7,17.4,0
		c3-3,6.4-5,10.9-3.3c4.3,1.6,6.3,5,7.3,9.1c8.2,1.2,10.5,5.1,8.2,13.4c9.1-0.8,15-7.8,23-10.9c-5.3-6.3-12-9.1-19.9-9.6
		c-14.1-0.8-26.1-6.4-36.7-15.6c-1.7-1.5-3.9-2.6-6.4-4.2c-1,6.3-2.7,11.2-7.3,14.4c-4.7,3.3-9.6,3.5-14.4,0.2
		c-8.1,7.5-13.4,7.4-20.4-0.3c-3.3,2.1-6.7,4.3-11,3.1c-4.6-1.3-6.1-4.7-6.2-9.3c-0.7-0.1-1.3-0.2-2-0.3c-4.1-0.7-7.4-2.6-8.8-6.8
		c-1.4-4.1-0.3-7.8,2.7-10.7c2-1.9,2.9-3.4,2.4-6.5c-0.6-3.5,1.6-6.3,4.7-8.1c0.8-0.5,1.7-0.9,2.5-1.3c-2.4-9.9-0.2-12.9,11-15.1
		c0-0.8,0.1-1.6,0.1-2.5c0.3-4.2,2.6-6.8,7.1-7.7c1.5-0.3,2.3-0.8,2.6-2.5c0.8-4.5,4.3-5.9,8.7-6.4c-0.9-4.4-0.8-8.6,1.4-12.5
		c2.3-4.1,6.1-5.6,10.8-5.6c-1.1-5.3,0-9.8,3.4-14.1c-5.2-1.1-9.8-2.9-13.4-6.7c-3-3.1-3.1-4.7,0.8-6.8c3.9-2.1,8.4-3.3,12.3-4.8
		c-0.6-3.4-1.7-7.5-1.9-11.7c-0.2-6.5,1.8-7.7,7.8-5.2c4.7,1.9,8.1,5.3,10.8,10.2c0.4-6.4,3.7-9.6,9-10.8
		c-0.4-13.8,7.1-19.5,21.2-15.6c1.9-8.2,6.8-14.1,14.8-16.9c8-2.8,15.6-1.6,22.8,3.3c3.8-5.5,8.9-8.8,15.9-8.4
		c6.8,0.5,11.7,3.8,15,10c1.3-1.1,2.4-2,3.6-3c-4.9-2.8-8.8-6.4-11-11.5c-3.1-7.2-1.8-9.3,5.8-8.6c3.6,0.3,7.2,1.5,11,2.4
		c0.2-1.3,0.4-3,0.9-4.6c0.4-1.5,0.9-3,1.5-4.4c3.4-7.1,6.7-7.5,10.9-0.8c2.3,3.6,3.5,7.9,5.2,11.8c2.9-0.5,6.4-1.2,10.5-1.9
		c1.3-4.9,4.2-9.5,9.7-11.8c5.4-2.3,10.6-1.6,15.6,1.2c8.2-9.9,13-10.8,22.4-4.2c12.5-8.9,27.6-3.9,33.5,8.1
		c3.4-3.4,7.3-5.7,12.2-4.9c4.8,0.8,8.1,3.5,10.1,7.9c10-6.1,19.3-2,20.8,8.5c1.1-0.1,2.2-0.2,3.5-0.3c-0.2-5,1.3-9.2,4.3-12.9
		c2-2.6,3.7-2.8,5.6-0.2c2.1,2.7,3.7,5.9,5.4,8.6c2.6-1.5,5.4-3.4,8.4-4.9c3.7-1.8,5.8-0.8,6.1,3.3c0.4,4.5-0.1,9-0.2,12.9
		c2.4-0.2,5.7-1.1,8.7-0.4c3,0.7,5.6,3.1,8.6,4.9c12.2-9.1,28.5-3.2,30.4,10.9c5.3-0.8,10.5-0.3,14.7,3.5c4.3,3.9,4.8,8.9,3.2,14.3
		c3.8,1.3,6.8,3.2,8.3,7c1.5,3.9,0.8,7.4-1.5,10.8c-0.4,0.5-0.2,1.5-0.2,2.2c0.2,0,0.5,0,0.7,0c1.3-2.7,2.2-5.6,3.9-8.1
		c1.4-2,3.4-3.8,5.4-5.2c4.3-3.1,6-2.4,7.3,2.7c0.7,2.8,0.7,5.7,1,8c4.2-0.3,8.5-0.8,12.8-0.7c3.5,0.1,4.4,1.7,3.1,4.9
		c-1.4,3.4-3.4,6.5-5.1,9.7c2.5,1.6,5.4,3.3,8,5.4c2.8,2.2,2.7,3.6-0.1,5.8c-6.1,4.9-13,6.4-20.6,4.3c-0.7-0.2-1.5-0.5-2.3-0.7
		c-0.4,1.1-0.8,2.1-1.2,3.1c-0.9,2.3,0,4,2.4,4.6c1.8,0.5,3.4,1.4,5.2,1.7c1.1,0.2,2.4-0.1,3.4-0.5c9.2-4,19.9-0.4,24.1,8.2
		C543.4,303.8,543.8,305.8,544.4,307.7z M416.3,304.1c-1.2,5.4-2.5,10.1-3.2,14.8c-1.3,8.3-5.4,13.5-14,14.9
		c-6.3,1-12.6,2.5-18.9,3.5c-2.2,0.4-3.4,1.5-4.5,3.2c-1,1.6-2.2,3-3.3,4.4c-0.4-0.2-0.7-0.4-1.1-0.6c0.6-1.5,0.7-3.5,1.8-4.6
		c3-3.1,3.2-6.8,2.9-10.6c-0.5-6.5,1.9-11.6,6.3-16.3c3.4-3.6,6.1-7.8,8.6-12.1c2.4-4,2.1-4.1-2-7c-0.5,0.7-1,1.4-1.3,2.2
		c-2.7,6.7-7.6,11.4-13.5,15.4c-2.4,1.6-3.8,1.4-5.2-1.1c-0.7-1.2-1.2-2.5-1.5-3.8c-0.6-2.3-1-4.7-1.6-7c-5.2,1.4-5.2,1.4-4.5,6.4
		c0.3,1.8,0.5,3.7,1,5.5c2.9,10.6,1,20.5-4.6,29.7c-1,1.7-1.5,3-0.4,5c1.5,2.9,0.8,5.9-1.1,7.3c-0.3-2.3-0.6-4.6-1-7.4
		c-0.9,0.7-1.2,0.8-1.5,1.1c-4.9,4.8-9.8,9.8-14.8,14.5c-6.5,6.2-12,13.1-15.6,21.3c-0.9,2.1-1.1,4.8-0.6,7
		c1.5,6.7,5.1,12.1,11.2,15.6c-8.8-1.6-11.7-8.5-14.1-16.2c-2,2.8-3.3,5.9-7.4,7c0.3-1.5,0.3-2.6,0.6-3.5c1.2-3.1,2.4-6.2,3.8-9.2
		c0.8-1.7,0.8-3.1-0.4-4.6c-3-3.7-5.9-7.5-9-11.1c-4.7-5.2-8.4-11-10.6-17.7c-0.3-0.9-1.5-1.7-2.5-2.1c-3.6-1.3-6.3-3.4-8-6.8
		c0.2-0.2,0.3-0.4,0.5-0.7c2.8,1.8,5.6,3.7,8.5,5.6c0.4-4.1,0.4-7.6,1.1-11c1.3-7,5.9-12.1,10.1-17.5c3.6-4.7,7.1-9.5,10.2-14.6
		c2.2-3.7,2.8-8,2.9-12.7c-2.8,1.5-4.3,3.2-5.1,5.9c-1.9,6.4-5.7,11.5-11.2,15.3c-2.9,2-4.5,1.7-6.2-1.4c-1.4-2.6-2.5-5.5-3.4-8.3
		c-0.7-2.4-0.9-4.9-1.4-7.6c-1.4,0.2-2.6,0.4-4.5,0.6c0.9,5.4,1.6,10.4,2.6,15.5c1,5.2,0.2,10-2.5,14.6c-2.1,3.5-3.8,7.2-5.4,11
		c-0.8,1.7-1.8,2-3.2,1.4c-8.8-4.1-17.7-8.1-26.5-12.4c-3.4-1.6-4.8-4.9-4.5-8.6c0.2-3,0.7-6,1.1-9c0.5-4.1,1-8.2,1.5-12.3
		c-2.3-0.3-3.8-0.5-5.7-0.7c0.6,8-2.3,15.1-5.2,22.1c-0.4,1.1-0.5,2.5-0.3,3.7c0.3,2.4,0.9,4.8,1.5,7.6c-3.3-1.4-3.9-4-4.2-6.6
		c-0.2-1.6-0.8-2.3-2.3-2.8c-9.6-3.2-18.3-7.8-24-16.6c-0.1-0.1-0.3-0.2-0.5-0.3c-2.8,4-2.8,4-0.1,7.8c4.6,6.4,10.4,11.2,17.2,15.1
		c2.9,1.7,5.5,3.9,8.3,5.9c2.8,2,5.4,4.2,8.3,5.9c3.4,2,7.2,3.5,10.7,5.3c11.3,5.9,20.8,13.7,25.5,26.2c0.1,0.3,0.4,0.6,0.9,1.3
		c3.7-1.6,7.4-3.1,11.1-4.6c-2.1,4.8-6.6,5.5-10.5,6.8c0.7,5.4,1.3,10.6,2.1,16.7c4.2-0.6,8.6-1.2,13.7-1.9c-4.5,3.9-9.1,4.5-14,4.1
		c-0.6,3.5-1.1,6.9-1.8,10.2c-0.8,3.8-3.1,5-6.7,3.7c-1.4-0.5-2.7-1.2-4-1.7c-6-2.2-12-4.7-18.1-6.5c-4.9-1.4-10.1-2-15.6-3.1
		c2.4,7,2.1,10.8-0.9,13.3c0-2.6,0.2-5.3,0-7.8c-0.4-4.2-1.8-5.6-5.9-6.2c-1.3-0.2-2.7-0.4-4-0.7c-9.6-1.9-18.7-4.6-26-11.7
		c-4.1-4-6.1-8.7-5.8-14.4c0.1-1.8,0.1-3.5,0.3-5.3c0.8-7.4-0.6-14.5-2.4-21.7c-0.6-2.5-2.2-3.3-4.9-3.5c3.7,7.8,4,15.6,1.9,23.4
		c-0.3,1.3-1.6,2.4-2.4,3.7c-1.1-0.8-2.3-1.5-3.3-2.5c-5.9-5.7-11.8-11.4-17.7-17.2c-4,3.3-7.7,2.7-11.5,1.3c2.5,2.5,4.9,5,7.8,6.7
		c10.2,5.9,15.5,15.3,18.9,26.1c0.3,0.8,0.2,2.1-0.3,2.7c-0.5,0.5-1.7,0.5-2.6,0.5c-3.2-0.3-6.4-0.9-9.6-0.9
		c-11.8,0-22.1-3.9-31.5-10.8c-0.8-0.6-1.5-1.1-2.3-1.7c-1,1.1-1.8,2.1-2.6,3.1c9.6,7.9,19.9,14.3,32.3,14.9
		c12.2,0.6,21.8,5.8,30.2,14c2.2,2.1,1.9,2.8-0.8,4.1c-5.2,2.6-10.5,5.1-15.5,8.1c-9.8,6-19.7,7.4-30.3,2.5
		c-0.4-0.2-0.9-0.5-1.3-0.5c-0.7,0-1.5,0.3-2.2,0.4c0.3,0.8,0.4,1.9,1,2.3c9.1,4.9,18.7,7.4,28.9,3.9c5.7-1.9,11.3-4.3,17-6.4
		c5.2-1.9,10.5-2.8,16.1-2.3c8.6,0.8,16.1,4.3,23.4,8.6c1.8,1,3.3,1.2,4.3-0.4c2-2.9,3.7-6.1,5.4-9.2c0.5-0.9,0.7-2.1,1.1-3.1
		c0.3,0.1,0.6,0.2,0.9,0.3c0.8,6.4-2.4,11.2-6.7,14.8c5.1,5.3,10.1,10.5,15.2,15.8c3.4-0.9,6.2-3.3,8.2-6.6c1.9-3.2,3.3-6.6,4.9-9.9
		c0.5,9.4-4.3,15.4-12.4,19.2c1.1,2.8,2,5.3,3,7.9c15-4.9,19.5-16.2,19.3-30.6c0.7,1,1,2,1.2,2.9c2.4,12.7-5.2,25.4-17.6,29.4
		c-2.1,0.7-2.3,1.5-2.3,3.5c0.1,5.1,0.5,10.4-0.5,15.4c-2.3,11.4-5.3,22.6-8,33.8c-0.3,1.4-0.7,2.9-1.1,4.9
		c7.7-4.9,15.2-7.9,23.9-6.2c-1.5,0.8-3.2,1.3-4.9,1.5c-6.5,1-12.4,3.4-17.8,7.1c-1.3,0.9-2.8,2.5-3.1,3.9
		c-2.4,10.7-4.9,21.5-6.7,32.3c-2.8,16.9-3.2,33.9-2.9,51c0.1,6.4-0.2,12.9-0.8,19.3c-0.4,4.6-1.8,9.1-2.7,13.6
		c11.3-1.9,22.1,1.9,24.4,8.8c-1.2-0.8-2-1.5-2.9-1.9c-3.5-1.6-7-3.8-10.7-4.4c-5.9-1-12.3-1.1-16.1,4.8c-2.6,4-4.2,8.6-6.3,13
		c7.5,1.9,12.9,7.1,11.7,10.9c-2.3-2-4.4-4.3-6.9-6.1c-2.4-1.7-5.4-3.2-8.2-1.5c-5.8,3.4-11.4,7-16.8,11c-2.4,1.8-3.8,4.7-6.2,7.7
		c17.3,2.4,32.7-3.1,48.4-5.1c0.3-7-3.9-11.4-7.2-16.1c6.9,2.9,9.4,8.7,10.3,15.5c4.4-0.5,8.4-1,12.5-1.3c2.7-0.2,4.4-1.3,5.3-3.8
		c1-3,2-6.1,3-9.2c2.3-6.9,6.8-11.7,13.5-14.5c1-0.4,2.2-0.4,3.4-0.6c0.1,0.3,0.2,0.5,0.3,0.8c-0.8,0.7-1.5,1.5-2.3,2
		c-6.5,4.3-10.2,10.4-11.6,17.9c-0.9,5.1-3.1,9.6-6.2,13.7c-1.1,1.5-2,3.2-3.2,5.3c10.1,2,19.3,0.7,28.7-2.1
		c-0.5-1.4-0.8-2.5-1.3-3.5c-1.7-2.8-3.5-5.6-5.2-8.4c-0.4-0.7-0.7-1.8-0.4-2.3c0.3-0.5,1.6-0.7,2.3-0.5c1.2,0.3,2.5,0.8,3.4,1.6
		c3,2.4,5.9,4.9,9.6,8c-1.9-6.6-3.6-12.7-5.2-18.7c-0.2-0.9,0-2,0.1-2.9c1,0.3,2.3,0.3,2.8,0.9c2.1,2.3,4.1,4.7,5.7,7.3
		c1.5,2.5,2.5,5.2,3.8,8c1.1-2.3,1.8-4.6,3.1-6.5c2.3-3.2,4.9-6.2,7.6-9.2c0.6-0.6,1.9-0.5,2.8-0.8c0,1,0.3,2,0,2.9
		c-0.6,1.8-1.6,3.6-2.2,5.4c-1.2,3.8-2.3,7.7-3.4,11.8c3.3-2.2,5.9-4.1,8.8-5.8c0.7-0.4,2,0,3,0c-0.1,1-0.1,2-0.5,2.9
		c-0.9,1.8-2,3.5-3.1,5.5c0.8,0,1.2,0.1,1.5,0.1c6.7-1.2,13.2-0.4,19.7,1.3c7.5,1.9,15,4.2,22.6,6c4.9,1.2,9.9,1.4,15.6,0.4
		c-1.4-2.7-2.5-5-3.7-7.3c-1.2-2.2-3.1-4.2-3.8-6.5c-1.1-3.4-3.4-4.7-6.5-5.4c-4.5-1-8.7-0.1-12.6,2.2c-0.8,0.5-1.5,0.9-2.7,1.6
		c2.1-6.4,9.5-8.1,21.1-4.8c-1.8-4.3-2.9-8.3-5.1-11.6c-8-12.2-10.8-25.6-10.8-40c0-8.8-0.9-17.7-1.5-26.5c-0.1-1.7-0.3-3.5-0.5-5.2
		c0.4-0.1,0.7-0.1,1.1-0.2c0.6,2.2,1.7,4.3,1.9,6.5c0.8,8,1.4,16.1,1.9,24.2c0.6,10.7,1.7,21.3,7,30.8c4.7,8.3,10.1,16.2,11.1,26.1
		c0.2,2.1,1.9,2.8,4,2.9c3.6,0.1,7.2,0.3,10.7,1.1c3.1,0.7,4.7,0.4,5.6-3c0.6-2.3,2.1-4.4,5.1-4.9c-1.5,3.1-2.7,5.9-4,8.7
		c8.2,3,37.4,7.9,44.2,5c-2.8-5.7-7.6-9.4-12.8-12.4c-6.5-3.7-11.7-8.3-14.1-15.7c-0.3-0.9-1.8-1.9-2.7-1.9
		c-6-0.2-11.3,1.5-15.7,5.9c-0.7,0.7-1.5,1.4-2.3,2.1c-0.2-0.3-0.4-0.6-0.6-0.9c3.9-7.7,10.8-10,18.9-9.8c-1-3.5-3.4-4.2-6.4-4.2
		c-4.6,0-8.6,1.3-12.4,3.8c-1.1,0.7-2.2,1.4-3.3,2.1c-0.2-0.3-0.3-0.6-0.5-1c4.3-5.7,10.4-8,17.7-7.7c-0.9-2.6-1.8-5-2.4-7.4
		c-2.5-9.5-2.2-19.3-2.4-29c-0.2-13.5-1-27.1-1.8-40.6c-0.1-1.5-0.9-3.5-2.1-4.2c-4.2-2.7-8.7-5-13.1-7.5c-1.1-0.6-2.3-1-3.4-1.5
		c6.9-1.1,12,2.3,17.5,5.9c-0.1-1.3,0-2.2-0.2-3c-2.8-12.7-5.3-25.6-8.4-38.2c-3.4-13.6-8.1-26.9-9.2-41c-0.2-2.9,0-5.8,0-8.5
		c-12.1-2.4-20.5-9.4-19.8-17c4.8,7.9,10.6,13.5,19.8,14.2c0.6-3.1,1.2-6.1,1.8-9c-9.5-2.7-16-9.3-15-16.3c3.7,7,7.9,12.6,15.9,13.9
		c2.8-7.4,7-13.8,12.3-19.4c0.4-0.4,0-1.8-0.4-2.7c-1.5-3.4-3.3-6.8-4.6-10.3c-0.6-1.5-0.1-3.5-0.1-5.2c0.4-0.1,0.8-0.1,1.1-0.2
		c1.6,5.4,2.4,11.2,7,15.4c2-1.5,3.8-2.9,5.7-4.3c-6.4-7.6-7.9-12.6-4.7-16.4c0.3,1.7,0.3,3.3,0.9,4.6c1.2,2.9,2.6,5.8,4.1,8.6
		c0.9,1.7,2.3,1.8,4.2,0.9c9.1-4.4,18.7-6,28.4-3.6c5.5,1.3,10.8,3.8,16.1,6.1c8.9,3.9,17.8,4.6,27.1,1.8c1.8-0.6,3-1.4,1.7-3.6
		c-9.8,3-18.5,0.6-26.6-4.9c-3.2-2.2-6.6-4.1-9.9-6.2c-2.1-1.3-4.3-1.7-6.6-0.5c-1,0.5-2.1,0.5-3.4,0.8c1-2.6,2.3-3.6,5.1-4.2
		c0.7-0.2,1.6-0.2,2.2-0.6c4.6-2.7,9.2-5.4,13.7-8.4c4.7-3.2,9.6-5.6,15.2-6.4c13.9-2,24.6-9.7,34.7-18.8c-1.1-1.1-2.1-2.1-3.1-3.1
		c-14.7,10.1-14.7,10.2-32.4,12.3c-5,0.6-9.6,1.7-13.2,5.3c-0.5,0.5-1.3,0.6-1.9,0.9c0.9-3.1,2.8-5.2,5.4-6.6
		c1.5-0.8,2.1-1.7,2.5-3.4c2.1-8,4.6-15.7,10.5-21.9c0.5-0.5,0.9-1.6,0.7-2.2c-0.4-1.5-1.3-3-2.2-5.2c-1.9,2-3.8,3.5-5,5.4
		c-3.1,4.9-6.1,10-8.8,15.2c-4.7,9.3-11.7,16-21.4,19.2c-7.1,2.3-14.5,3.7-21.8,5.3c-3.1,0.7-3.8,1.1-3.4,4.4c0.3,2.2,1,4.2,1.7,7.1
		c-4-3.1-4.2-6.8-4-10.5c-0.4-0.1-0.6-0.2-0.7-0.2c-1.8,0.2-3.7,0.3-5.5,0.5c-11,1.3-21.7,3.6-31.2,9.8c-2.3,1.5-4.7,2.9-7.2,3.9
		c-3.6,1.5-6.5,3.8-8.1,7.3c-1.9,4.1-3.3,8.5-4.7,12.8c-0.5,1.6-0.6,3.3-0.9,4.9c-0.7-0.5-1-1-1.1-1.5c-1.3-7.8,0.8-14.8,5.6-20.8
		c1.8-2.3,2-4.1,1.6-6.9c-0.6-4.9-0.2-10-0.2-15.4c-4.4-1.4-8.8-3.5-10.3-8.9c0.4-0.5,0.9-0.9,1.3-1.4c0.5,1,0.7,2.2,1.5,2.8
		c2.2,1.7,4.6,3.2,7,4.6c0.5,0.3,1.9-0.2,2.2-0.7c1-1.9,1.7-3.9,2.5-5.8c-8.1-4-9.8-5.7-9.2-9.7c0.8,0.5,1.1,1.5,1.8,2.1
		c2.1,1.6,4.3,3,6.5,4.4c1.6,1,2.7,0.5,3.8-1.2c4.4-7.1,10.6-12.4,17.3-17.2c8.5-6,18.5-8.5,28.2-11.8c12-4,22.2-10.8,30.2-20.7
		c0.6-0.8,1.2-1.8,1.4-2.8c0.2-1-0.2-2.1-0.4-3.1c-1,0.5-2.3,0.8-2.9,1.6c-4.6,5.5-10,9.9-16.7,12.5c-3,1.1-4.5,0.3-4.5-2.8
		c0-5.8,0.4-11.6,0.7-17.3c0.3,0,0.6,0,0.8,0C418.8,306,418,305.3,416.3,304.1z M461,324c0.4-1.1,0.7-2.2,1.1-3.3
		c2.5-5.8,9.3-8.6,14.5-5.9c1.1,0.6,1.7,2.1,2.5,3.1c-1.1,0-2.3,0.2-3.4,0c-4.8-1.2-8.6,0.6-10.1,5c-1.5,4.3,0.7,8.2,1.5,12.3
		c0.1,0.3,0.6,0.6,0.9,0.7c2.3,0.4,4.6,1.2,6.8,1.1c4-0.2,4-0.5,4.1,3.7c0.1,4.7,3.7,7,8,5.2c0.9-0.4,1.6-1.1,2.5-1.4
		c1.1-0.4,2.2-0.6,3.4-0.9c0,1.2,0.2,2.4-0.1,3.5c-0.5,2.4-1.6,5,0.9,6.7c2.4,1.7,4.6,0,6.7-1.3c0.2-0.2,0.4-0.4,0.7-0.5
		c1.4-0.8,2.9-1.6,4.3-2.5c0.4,1.6,1,3.2,1.2,4.9c0.8,6.5,4.9,9.2,11.1,7.1c0.9-0.3,2.2,0.3,3.3,0.4c-0.4,1-0.6,2.2-1.4,2.9
		c-1.4,1.3-3.6,1.9-2.8,4.5c0.6,1.9,1.2,4,2.4,5.5c2.9,3.9,6.9,3.8,10,0.1c2.4-2.9,3-2.5,5.4,0.4c1.9,2.4,4.3,4.8,7.1,6.2
		c3.6,1.8,7.3-0.4,8.5-4.2c0.6-2,1-4,1.4-6.1c1.9,0.7,3.8,1.7,5.8,2.1c1.6,0.3,4,0.2,4.8-0.7c1-1.1,1.2-3.5,0.8-5.1
		c-1.8-6-1.9-6,4.3-4.8c3.3,0.6,6.2-0.5,7.4-2.8c1.3-2.5,0.6-6.2-2-8.2c-1.6-1.2-3.6-1.8-5.4-2.8c-1-0.5-2.4-1.1-2.6-1.9
		c-0.2-0.8,0.9-1.9,1.5-2.8c0.1-0.2,0.5-0.4,0.7-0.6c2.4-2.2,2-5-0.9-6.4c-1-0.5-2.2-0.7-3.4-0.9c-4.5-0.5-4.7-1.1-2.4-4.8
		c0.8-1.4,1.2-3.7,0.6-5.1c-0.5-1.2-2.6-2.1-4.2-2.5c-1.2-0.3-2.6,0.4-4,0.6c-1.2,0.2-2.4,0.2-3.5,0.3c0.1-1.2,0-2.4,0.4-3.5
		c1-2.4,1.7-4.8-0.3-6.8c-1.9-1.9-4.2-1.4-6.5-0.4c-3.4,1.5-4.3,0.8-4-3.1c0.5-6.9-3.1-11.7-9.8-13.1c-4.1-0.9-8,0-11.4,2.3
		c-1.8,1.3-3.2,1.5-4.6-0.6c-1.4-2.1-3.4-2-5.5-1c-3.7,1.8-6.1,4.7-7.3,8.7c-0.3,0.9-1,1.8-1.5,2.7c-0.8-0.8-1.7-1.4-2.2-2.4
		c-1.8-3.3-4.7-4.2-8.1-2.3c-0.9,0.5-1.7,1.3-2.7,1.8c-0.6,0.3-1.4,0.4-2.1,0.6c0-0.8-0.3-1.6-0.1-2.4c0.5-2,1.5-3.8,1.8-5.8
		c0.5-2.6-0.5-4.8-2.7-6.4c-2.1-1.5-4.2-0.9-6.3,0.2c-0.9,0.5-2,0.9-3.2,1.4c0.5-3.7,3.1-5.9,6.8-5.8c1.8,0.1,3.7,0.7,5.2,1.6
		c3.3,2.2,4.1,5.7,4.1,9.1c2.9,0.6,5.5,1.2,7.9,1.8c2-2.1,4.1-4.3,6.3-6.7c-1-0.2-1.7-0.1-2.3-0.4c-1.1-0.5-2.7-0.9-2.9-1.7
		c-0.3-0.9,0.7-2.2,1.3-3.2c0.3-0.6,1-0.9,1.5-1.4c3.8-4,2.7-9.4-2.5-11.1c-2.7-0.9-3.4-2.2-3-4.9c0.7-4.1-1.6-7.8-5.4-9.3
		c-1.1-0.4-2.3-0.4-3.4-0.8c-1.3-0.5-2.5-1.3-3.7-2c1-1,1.9-2.1,3-3.1c0.7-0.6,1.7-0.9,2.5-1.5c2.1-1.5,3.7-3.4,3.1-6.1
		c-0.6-2.9-2.8-4.3-5.6-4.8c-1.3-0.2-2.7-0.2-4.1-0.4c-1.9-0.4-2.4-1.5-1.5-3.2c0.4-0.8,1-1.4,1.5-2.1c2.9-4.3,1.6-8.9-3.1-11.2
		c-3.5-1.7-7-1.2-10.4,0.4c-1,0.4-2.7,0.9-3.1,0.4c-0.7-0.7-0.9-2.2-0.8-3.4c0.6-5.5-2-10.2-7-12.2c-5.8-2.3-12.7-0.4-16.6,4.4
		c-0.8,1-2.1,2.2-3.1,2.1c-0.8-0.1-1.5-1.8-2.2-2.9c-0.8-1.2-1.3-2.6-2.3-3.6c-2.5-2.6-5.9-2.9-8.8-1c-3.2,2.1-3.7,4.1-2.5,8.1
		c0.3,1.1-0.5,2.6-0.8,3.9c-1-0.5-2.5-0.7-3-1.5c-3.8-5.6-9.1-5.3-14.1-2.3c-1.5,0.9-3.1,3.1-4.8,1.3c-0.8-0.8-0.2-3.1,0.1-4.7
		c0.6-3.7,0.7-7.3-2.4-10c-2.9-2.5-6.1-1.9-9.4-0.8c-1.3,0.4-2.7,0.3-4.1,0.5c0-1.3-0.2-2.6,0.1-3.9c0.6-3.4-0.2-6.4-2.6-7.8
		c-2.8-1.7-5.6-1.4-8.3,0.3c-1,0.7-1.9,1.7-2.9,2.5c-1.1,0.9-2.3,1.7-3.5,2.6c-0.6-1.3-1.3-2.6-1.9-4c-0.2-0.5-0.2-1.2-0.4-1.7
		c-2.1-6.2-8.6-7.8-13.2-3.2c-1.3,1.3-1.9,3.1-3,4.6c-0.7,0.9-1.6,1.7-2.5,2.5c-0.8-1-1.8-1.9-2.4-2.9c-0.5-0.7-0.5-1.7-0.8-2.5
		c-4.6-14-20.7-14.9-27.5-7.1c-1.9,2.2-3.4,1.6-4.8-0.6c-2.1-3-5-4.4-8.6-3.5c-3.7,0.9-5.6,3.5-6.3,7.2c-0.2,1.1-0.9,2.2-1.4,3.3
		c-1.2-0.5-2.5-0.8-3.5-1.6c-4-3.3-8.5-4.6-13.3-2.5c-4.8,2.1-6.7,6.2-6.5,11.4c0.2,3.5-0.8,4.1-3.9,2.6c-4.4-2.2-8.2-1.6-11.8,1.8
		c-3.2,3.1-4.5,6.9-4.7,11.3c-0.1,1.3-0.7,2.6-1.1,4c-1.2-0.5-2.6-0.7-3.6-1.4c-5.8-4-12.5-2.6-16,3.5c-0.7,1.3-1,2.8-1.8,4
		c-0.4,0.7-1.5,1.5-2.2,1.4c-0.7-0.1-1.5-1-1.9-1.8c-0.4-0.6-0.2-1.5-0.3-2.3c-0.6-6.4-4.3-10.5-10.5-11.4c-5.9-0.9-10.5,2-12.9,8
		c-1.2,2.9-2.3,3.2-4.7,1.2c-0.6-0.5-1.2-1.1-1.8-1.5c-6-4.7-12.7-5.6-19.5-2.5c-6.7,3-10.3,8.4-10.2,16c0,2.9-1.3,3.4-4,2.1
		c-2.3-1.1-4.6-2.2-7-2.7c-3.3-0.6-6.5,0.3-8.6,3.2c-2.2,2.9-2,6-0.4,9.1c0.3,0.6,0.7,1.2,0.9,1.8c0.8,2,0,3-2.1,3
		c-0.9,0-1.7-0.3-2.6-0.3c-2.3,0-5,0.2-5.6,2.7c-0.4,1.8,0.3,4.1,1.2,5.9c0.6,1.3,2.3,2,3.4,3.1c0.8,0.9,1.2,2,1.8,3
		c-1.1,0.5-2.1,1.1-3.2,1.5c-1.9,0.6-4,0.8-5.8,1.7c-2.9,1.5-3.6,4.1-2.6,7.2c1.1,3.2,0.6,4-2.8,4.3c-0.6,0.1-1.2,0.1-1.7,0.1
		c-5.1,0.5-9.5,3.9-10.7,8.3c-1.4,5,0.9,8.7,4.6,11.7c0.6,0.5,1.1,1,1.6,1.5c0,0.3,0,0.6,0,0.9c-1.2,0.2-2.5,0.7-3.7,0.5
		c-1.4-0.2-2.7-1.1-4.1-1.6c-2.8-1.1-5.7-2-8.3,0.1c-2.8,2.2-3.5,5.6-2.6,8.8c1,3.4,2.9,6.5,4.4,9.7c0.5,1,1,1.9,1.5,2.8
		c-0.2,0.2-0.4,0.4-0.6,0.6c-1.1-0.5-2.1-1-3.2-1.6c-1.7-0.9-3.3-2.4-5.1-2.7c-1.7-0.3-3.9,0-5.3,0.9c-0.6,0.4,0.4,3,0.6,4.6
		c0.1,1,0.6,2.3,0.2,2.8c-0.5,0.6-2,0.7-2.8,0.4c-2.5-0.8-5.2-2.2-7.2,0.4c-1.9,2.4,0.1,4.5,1.3,6.6c0.4,0.7,0.7,2.1,0.3,2.6
		c-0.4,0.6-1.7,0.7-2.6,0.6c-2.1-0.1-4.3-0.7-6.4-0.6c-2.3,0.1-4.8,0.8-5.5,3.5c-0.7,2.7,1.2,4,3,5.5c0.8,0.7,1.3,1.9,1.9,2.9
		c-1,0.6-2,1.4-3.1,1.8c-1.7,0.6-3.7,0.8-5.3,1.6c-3.2,1.6-3.5,3.9-1.1,6.4c1.9,2,1.7,3.1-0.9,4.4c-1.6,0.8-3.3,1.7-4.6,2.9
		c-1.7,1.7-2.6,4.1-1,6.1c1.1,1.4,3.3,2.1,5.1,2.5c1.3,0.3,2.8-0.6,4.2-0.8c1.1-0.1,2.2,0.1,3.2,0.1c-0.1,1-0.1,2-0.3,3
		c-0.2,0.8-1,1.6-1,2.4c0,1.5-0.2,3.4,0.7,4.3c0.8,0.8,3,1.2,4.2,0.7c2-0.8,3.6-2.5,5.5-3.7c1.1-0.7,2.2-1.8,3.3-1.7
		c0.7,0,1.4,1.8,1.7,3c0.8,2.6,2.2,4.6,5,5.2c3.1,0.6,5.5-0.6,7.3-3.2c0.4-0.6,0.7-1.2,1-1.8c1.8-3.4,2.7-3.5,5.2-0.5
		c2.7,3.2,6.4,3.9,9.5,1.2c2-1.8,3.9-4.3,4.6-6.8c0.8-2.8,0.1-5.9,0.2-8.9c0-1.2,0.5-2.3,0.8-3.5c0.9,0.7,2.1,1.2,2.8,2
		c1.4,1.8,2.9,3.3,5.4,2.7c2.7-0.6,4.1-2.5,4.5-5.1c0.2-1.3,0.2-2.7,0.5-4.1c0.2-0.7,0.7-1.6,1.2-1.7c0.6-0.2,1.4,0.3,2,0.7
		c0.5,0.3,0.7,0.9,1.2,1.3c1.8,1.4,3.7,1.7,5.7,0.6c2-1.1,2.8-3,2.4-5.2c-0.3-2-0.8-3.5-3.4-4c-6.4-1.3-9.4-10-5.4-15.3
		c0.6-0.8,1.6-1.2,2.5-1.8c0.2,0.2,0.4,0.4,0.7,0.5c-0.4,1.7-0.9,3.5-1.2,5.2c-0.6,3.4,1.3,7,3.9,7.7c2.8,0.8,6.3-1.2,7.6-4.5
		c0.3-0.8,0.4-1.7,0.7-2.5c0.3-0.8,0.7-2,1.2-2.1c0.8-0.1,1.7,0.5,2.5,1c1.2,0.8,2.1,2,3.4,2.7c2.8,1.6,5.1,0.6,6.2-2.4
		c0.5-1.5,1.3-2.9,1.9-4.3c1.2,1.1,2.6,2.1,3.7,3.3c2.2,2.4,4.7,4.2,8.2,3.2c3.5-1,4.2-4,4.7-7.1c0.1-0.4,0-0.8,0.1-1.2
		c0.2-2.7,1-3.2,3.6-2.2c2.7,1.1,5.4,2.4,8.2,2.8c1.6,0.3,4.2-0.4,5.1-1.6c0.8-1.2-0.1-3.5-0.3-5.3c-0.2-1.3-0.6-2.6-0.9-3.9
		c1.3,0.1,2.6,0,3.7,0.4c3.4,1.1,6.6-0.6,6-3.9c-0.5-3.1-2.8-6-4.4-8.9c-0.1-0.2-0.7-0.2-1.1-0.1c-3.9,0.8-7.3-0.5-10-3.2
		c-7.3,5.5-13.1,5.7-16.5,0.6c-1.9-2.9-1.5-6.3,1.2-7.8c0.2,0.8,0.4,1.5,0.6,2.2c0.6,2.4,1.6,4.5,4.3,5.1c2.8,0.6,4.9-0.7,6.7-2.7
		c0.6-0.7,1-1.4,1.5-2.1c1.6-2.3,2.5-2.4,4-0.1c1.6,2.4,3.5,4.3,6.7,3.8c3.2-0.6,5.2-2.8,5.8-5.9c0.6-2.6,1.8-3.7,4.4-4.1
		c3.2-0.5,4.7-2.9,4.3-5.9c-8.8,0.8-14.5-1.7-16.4-7.3c-0.6-1.7-0.5-3.9-0.1-5.7c0.8-3.7,3.8-5.7,7-7.1c-4.2-9.3-2.8-11.8,7.5-15.3
		c-0.8-4.2-1.9-8.2-2.2-12.2c-0.3-4.7,1.4-5.7,6-4.5c4.5,1.2,8,3.8,10.8,7.5c5.3-8.7,13.2-8.6,18.5-2.1c3-2.7,6.3-4.4,10.6-3.5
		c4.5,1,6.5,4.2,7.2,7.4c3.6,0.4,7.1,0,9.4,1.4c2.3,1.4,3.5,4.7,5.5,7.4c8-0.9,12.2,4.8,9,12.2c3.3,2.3,5.7,5.2,4.7,9.5
		c-1.4,6.1-6.4,7.1-11.7,7.1c2.2,6.9,11.7,9.8,16.3,3c0.3-0.4,0.6-0.7,1-1.1c1.4-1.4,2.7-1.3,4,0.2c0.5,0.7,1.1,1.4,1.6,2.1
		c2.8,3.2,7.5,3.7,10.7,0.9c0.7-0.7,1.2-2.2,1.1-3.2c-1-5.7,1.5-10.4,6.9-12.7c1.3-0.5,2.7-0.9,4.1-1.4c-2-8.1,3-15.8,14.1-12.4
		c0.4-5.4,2.2-10,7.8-11.9c5.6-2,10,0.5,13.8,4.4c1.3-1.7,2.5-3.3,3.7-4.9c-0.9-0.5-1.8-1-2.6-1.5c-7-4.3-10.4-13.3-7.9-21.2
		c1-3.3,2.8-4.4,5.7-2.6c3.5,2.1,6.6,4.9,9.8,7.5c2.5-4.4,6.5-8.2,12.4-9.7c2.2-0.5,3.6,0.1,4,2.2c0.5,2.3,0.8,4.6,0.7,6.9
		c-0.2,5.8-2.9,10.6-7.6,14.6c6.2,2.5,9.1,7.2,9.7,13.3c13-4.1,19.1-0.3,20.2,12.3c5.5,1,10.4,3.2,11.5,9.5
		c1.2,6.4-2.9,9.8-9.2,12.5c4.2,0.9,5.2,3.2,5.5,6.2c0.4,3.4,2.2,6,5.7,7.1c3.5,1.1,6.2-0.4,8.6-2.9c2.3-2.4,3.5-2.1,4.6,1.2
		c1.4,4.1,4.2,6.4,8.5,7c4.2,0.6,7.7-0.8,10.8-3.5c0.9-0.8,1.8-1.5,2.8-2.3c0.3,0.2,0.6,0.3,0.9,0.5c-0.4,1.4-0.5,2.9-1.2,4.1
		c-1.9,3.1-4.9,4.6-8.4,5.4c-2.9,0.6-3.6,2-2.4,4.8c1.1,2.8,3.5,4.1,6.2,4.9C456.4,323,458.6,323.4,461,324z M333.9,275.6
		c-1.9-0.2-2.9-0.5-3.9-0.3c-2.4,0.3-5,0.3-7,1.4c-4.5,2.3-4.9,7.6-0.7,10.4c2.2,1.4,5.2,2,7.9,2.3c2.1,0.3,4.8-1.3,5.1,2.6
		c0,0.6,1.6,1.6,2.5,1.6c1.9,0.1,4,0.3,5.7-0.5c2.4-1,4.5-2.7,6.5-4.3c2.4-1.8,3.2-1.7,4,1.1c0.1,0.3,0.2,0.6,0.3,0.8
		c0.9,2.8,2.4,4.9,5.5,5.3c3.2,0.5,5.7-0.9,7.4-3.6c0.8-1.2,1.2-2.7,1.9-3.9c0.9-1.8,2.1-1.9,3.4-0.4c0.6,0.7,1,1.7,1.6,2.4
		c3.7,4.6,9.7,4.1,12.5-1.1c1.7-3.1,2-3.1,4.3-0.4c2.6,3.2,5.7,5.6,9.7,6.6c2.8,0.8,5.4,0.5,7.8-1.3c1.7-1.2,2-2.7,0.7-4.5
		c-2.8-3.9-2.8-3.9,1.9-4.5c0.7-0.1,1.3-0.3,2-0.5c2.7-0.9,4.6-2.8,4.8-5.6c0.2-3-1.5-5.1-4.1-6.1c-1.8-0.7-3.9-0.6-5.9-0.7
		c-1.3-0.1-2.6,0-3.8,0c0.4-1.2,0.7-2.5,1.3-3.7c2.4-4.6,0-10-5.2-10.5c-2.8-0.3-5.9,0.3-8.4,1.3c-5.6,2.3-5.4,2.5-5.7-3.4
		c-0.1-4.2-1.6-7.7-5.7-9.5c-4.2-1.9-8.1-0.8-11.3,2.4c-1.6,1.6-2.5,3.9-3.8,5.8c-0.7,1.1-1.4,2.1-2.2,3.2c-1-0.9-2.1-1.8-3-2.8
		c-0.8-0.9-1.3-1.9-2.1-2.8c-2.2-2.4-4.9-3.2-8-2.2c-3.1,1-4.7,3.4-5,6.6c-0.1,1.7,0.2,3.5,0.2,5.2c0,0.9-0.4,1.8-0.5,2.6
		c-0.9-0.2-1.8-0.4-2.6-0.7c-0.9-0.4-1.6-1.1-2.5-1.5c-3-1.5-6-1.2-7.9,0.7c-1.8,1.8-2,4.9-0.4,7.9
		C332,272.3,332.8,273.5,333.9,275.6z M282.1,267.8c0.7-1.1,1.4-1.8,1.6-2.7c0.5-1.7,1.2-3.6,0.8-5.1c-0.6-2.2-3-2.2-5-2
		c-1,0.1-1.9,0.4-2.8,0.7c-4,1.3-3.7,1.3-3.3-2.8c0.2-1.9-0.3-5-1.5-5.7c-1.6-1-4.3-0.4-6.5-0.1c-0.9,0.1-1.7,1.2-2.6,1.8
		c-0.5,0.3-1.6,0.8-1.8,0.6c-0.5-0.5-0.7-1.3-0.8-2c-0.1-1.1,0.3-2.1,0.2-3.2c-0.2-2.3-0.9-4.5-3.3-5.4c-2.4-0.9-4.8-0.6-6.8,1.2
		c-0.9,0.8-1.5,2-2.4,2.9c-0.7,0.8-1.6,1.5-2.4,2.2c-0.6-0.9-1.2-1.8-1.8-2.7c-0.2-0.3-0.3-0.7-0.4-1.1c-1-2.4-2.8-3.8-5.4-3.9
		c-2.6-0.1-4.7,1.1-5.6,3.4c-0.9,2.3-1.2,4.8-1.5,7.3c-0.2,2.1,0.2,4.3,0.1,6.4c-0.1,2-1.2,3.2-3.2,2.7c-2.8-0.7-5.5-1.9-8.3-2.5
		c-2.7-0.5-5.6-1.1-8.2-0.6c-3.8,0.7-4.8,3.9-2.8,7.2c0.5,0.8,1.3,1.5,1.8,2.3c0.7,1.1,1.3,2.2,1.9,3.3c-1.1,0.4-2.2,1.1-3.4,1.3
		c-3.9,0.7-6.5,3.1-6.5,6.3c0,3.2,2.9,6,6.8,6.5c3.6,0.5,7-0.2,10-2.3c1.9-1.3,3-1.1,3.6,1.5c1.2,5.9,6.4,7.5,10.9,3.3
		c1.4-1.3,2.4-3,3.6-4.6c1.2-1.7,2.3-1.7,3.2,0.3c0.2,0.5,0.4,1.1,0.6,1.6c1.7,3.6,4.1,6.5,8.5,6.6c3.6,0,6.8-2.7,8.5-7
		c0.2-0.5,0.3-0.9,0.5-1.4c1-2.6,1.8-2.7,3.9-0.9c1.8,1.6,3.7,3.3,5.9,4.2c3.6,1.6,6.8,0,7.8-3.3c1.3-4.5,1.3-4.5,5.9-3.7
		c0.2,0,0.4,0.1,0.6,0.1c2.8,0.3,5.8-1.4,6.5-3.5c0.7-2.3-0.6-4.5-3.6-5.9C284.3,268.9,283.3,268.4,282.1,267.8z M270.6,362.4
		c-0.7-1-1.3-1.9-2-2.7c-5.9-6.9-13.4-11.4-21.4-15.5c-5-2.6-9.7-5.7-14.3-8.9c-7.1-5-14-10.4-21.2-15.7c-1.1,3.9-4,5.7-7.7,6.5
		c0.7,5.7-1.7,9.1-6.8,10.3c0.9,6,1.8,11.9,2.8,17.7c0.1,0.7,1.1,1.6,1.8,2c3,1.4,5.8,0.4,8.7-0.7c-4.3-4.9-4.6-8.4-1.4-13.2
		c2.4-3.5,5.3-4.8,8.5-3.5c-0.8,0.7-1.6,1.3-2.2,1.9c-1.3,1.5-2.9,2.9-3.8,4.7c-2.2,4.2-0.2,7.5,4.5,6.8c2.7-0.4,5.2-2.2,7.7-3.6
		c0.9-0.5,1.6-1.5,2.5-2.3c0.3,0.5,0.5,0.6,0.5,0.8c0.1,0.3,0.1,0.6,0,0.9c-1.2,4.5-4.5,7.1-8.7,7.7c-4.6,0.7-5.5,3.9-6.3,7.2
		c-1,4.2,2.6,7.5,6.7,5.8c2.3-0.9,4.3-2.9,6.4-4.4c0.7-0.5,1.8-1.2,2.5-1c0.7,0.2,1.2,1.3,1.5,2.2c0.6,1.6,0.8,3.5,1.6,5
		c2.6,4.9,7.7,5,10.7,0.4c0.5-0.7,0.9-1.5,1.2-2.3c1.8-4.2,1.7-4,5.1-1.3c1.4,1.1,3.7,1.9,5.2,1.5c1.3-0.4,2.6-2.6,3-4.2
		c1.4-5.7,1.2-5.8,6.1-2.1C265.1,364.8,267.6,364.9,270.6,362.4z M325.1,293.4c-2.2,5.9-3.7,11.6-6.4,16.7
		c-2.5,4.8-6.3,8.9-9.6,13.2c-1.2,1.6-2.1,3-1,5c1.1,2,2.8,3.3,5,2.9c2.1-0.4,4.1-1.6,6.1-2.4c0.7-0.3,1.4-0.3,2.1-0.4
		c0.1,0.8,0.4,1.7,0.2,2.3c-1.4,3.9-0.6,7.3,2.1,9.1c2.4,1.6,6.3,1.1,8.8-1.7c1.9-2.1,3.1-4.9,4.7-7.3c0.7-1.1,1.5-2.1,2.2-3.1
		c0.8,0.9,1.5,1.9,2.3,2.7c2.1,1.9,4,4.3,6.4,5.6c2.8,1.5,6.3-0.1,7.4-2.6c2.2-5.1,3.4-10.3,2.7-15.9c-0.8-5.6-1.3-11.2-2-16.8
		c-0.1-0.6-0.3-1.4-0.7-1.7c-1.6-1.4-3.3-2.7-5.4-4.3c-0.3,0.8-1.2,2.1-1.3,3.4c-0.3,6.6-3.2,11.5-9.2,14.5c-2.7,1.4-4.1,0.7-5-2.3
		c-1.2-4.3-0.9-8.4,0.9-12C332.7,293.8,328.7,293.3,325.1,293.4z M432.6,360.5c0.2,6.3-2.2,10.8-8.1,12.7c-5.8,2-10.6-0.6-14.9-4.5
		c-2.4,3.4-5.3,5.7-9.6,5.4c-4.4-0.4-6.8-3.4-8.6-6.8c-7.1,2.6-9.6,1.7-13.5-4.8c-9.1,9.4-14.9,20-14,33.6c0.6,0,0.8,0,1-0.1
		c1-0.6,2-1.1,3-1.8c9.2-5.8,19.1-9.6,29.9-11c7.9-1,15.9-1.8,23.8-2.8c20.1-2.6,33-13.1,39.3-32.4c-0.7,0.8-1.2,1-1.4,1.5
		c-3,6-5.2,7.2-11.7,6.7c-0.7-0.1-1.7,0.1-2,0.5C442.6,361.2,438.2,361.9,432.6,360.5z M445.3,322.2c-2.7,2.8-5.1,5.7-8,8.1
		c-9.5,7.9-19.9,13.9-32,16.9c-7.8,1.9-15,5.5-21.4,10.4c-1.8,1.4-1.9,3.2-0.9,4.6c0.8,1.1,2.7,2,4,1.9c1.5-0.1,3-1.3,4.3-2.2
		c2.2-1.6,2.8-1.4,3.5,1.3c0.1,0.6,0.3,1.1,0.5,1.7c1,2.6,2.6,4.8,5.6,4.8c2.9,0,4.4-2.2,5.4-4.6c0.2-0.4,0.2-0.8,0.4-1.1
		c0.6-0.8,1.1-2.2,1.8-2.2c0.7-0.1,1.6,1,2.4,1.6c2.2,1.8,4.1,4.3,6.6,5.4c5.1,2.3,10.3-1.1,10.5-6.3c0.1-2.1-0.4-3.3-2.9-3.6
		c-4.2-0.5-7.4-3.5-8.1-7.5c1.6,0.9,2.8,1.5,3.9,2.3c2.8,1.8,5.7,2.5,8.9,1.4c3.3-1.2,4.4-4,2.6-7c-0.8-1.4-2.2-2.4-3.3-3.6
		c-0.5-0.6-1.2-1.1-2-1.9c3.1-1.2,5.1-0.1,6.8,1.6c3.5,3.6,4.2,7.7,1.4,12.1c3.7,1.1,5.7,0.1,6.8-3.1c1.3-3.9,1.3-3.9,4.9-1.9
		c3.5,1.9,6.2,1,7.5-2.5c-5.1-1.6-10-3.7-11.5-9.5c-1.6-6.1,1.7-10.1,6.2-13.4C447.8,324.4,446.5,323.2,445.3,322.2z M199.9,360.7
		c-2,7.9,1.1,15.1,9.4,19c6.3,2.9,13.1,4.8,19.9,6.4c9.3,2.1,18.8,3,28.1,5.1c6.3,1.4,12.3,4.1,18.6,6.4c2.2-10.5,1.6-20.7-2.9-31
		c-4.4,3.2-8.6,2.8-12,0.9c-2.5,2.2-4.3,4.8-6.7,5.7c-2.5,0.9-5.5-0.1-8.8-0.2c-2.2,3.6-5.5,6.3-10.6,5.9c-5.1-0.5-7.6-4.1-9.6-8.3
		c-4.2,2.8-8.4,4.4-12.9,2.2c-4.7-2.3-5.6-6.6-4.9-11.3C204.8,361.1,202.5,360.9,199.9,360.7z M304.2,330c-0.9,2.1-1.8,3.7-2.3,5.3
		c-2,7.3-0.8,14.3,3.4,20.4c4.7,6.7,10.1,12.9,15.2,19.3c2.2-3.1,3.9-6.2,6.3-8.7c5.7-6,11.7-11.6,17.5-17.5
		c2.3-2.3,4.3-4.8,6.1-6.9c-4-1.8-7.5-3.5-11.1-5.2c-3,5-7.2,9.1-13.8,8.5c-5.6-0.4-8.4-4.4-9.5-9.7
		C311.1,336.4,307.1,335.1,304.2,330z M108.2,405C108.2,405,108.2,405,108.2,405c-0.5,0-1,0-1.5,0c-2.3,0.1-4.9,0.4-5.4,3
		c-0.5,2.5,2,3.6,4,4.4c4.4,1.7,8.9,1.9,13.4,0.3c4.3-1.5,4.4-1.5,5.2,3c0.6,3.5,2.8,5.2,6.4,5.1c4.3-0.2,8.5-3.5,9.7-7.7
		c1.5-5.1,4-6.3,9-4.6c2.1,0.7,4.2,1.6,6.4,1.9c1.1,0.2,2.7-0.3,3.6-1.1c1.7-1.5,2.3-3.7,1.1-5.8c-1.2-2.2-3.2-2.3-5.3-1.6
		c-2.1,0.7-2.8-0.1-3.1-2.2c-0.2-1.7-0.5-3.5-1.2-5c-2-4-6.6-4.2-9.2-0.5c-0.7,0.9-1,2.1-1.6,3.1c-1.1,2.1-2.4,2.1-3.6,0
		c-1.1-1.7-2-3.6-3.3-5.2c-1.4-1.8-3.3-2.8-5.7-2.1c-2.4,0.8-2.1,2.9-2.1,4.9c0,2.6-0.8,3-3.2,2c-2.4-1-4.8-2.2-7.4-2.5
		c-1.6-0.2-4,0.6-5,1.9c-1.5,1.8,0.2,3.5,1.7,4.9c1.4,1.2,1.9,2.7-0.1,3.7C110.3,405.4,109.2,405,108.2,405z M256.9,292.6
		c-0.3-0.1-0.5-0.1-0.8-0.2c-0.4,0.7-1,1.3-1.1,2c-0.6,7.1-1.1,14.1-1.6,21.2c-0.2,2.3,0.4,4.3,2.7,5.4c7.4,3.4,14.8,6.8,22.2,10.2
		c2.1-3.7,4.5-7,6-10.6c1-2.4,1.4-5.3,1.2-7.9c-0.4-6.2-1.3-12.3-2.1-18.5c-0.1-0.6-0.3-1.4-0.7-1.8c-1.5-1.6-3.2-3.1-4.8-4.6
		c-1.7,0.9-3.3,1.8-5.2,2.7c2.4,4.3,3,8.8,1.7,13.5c-1.1,3.9-2.4,4.5-6.2,2.9C261.9,304.2,257.8,299.6,256.9,292.6z M520.3,399.9
		c0,0.1-0.1,0.2-0.1,0.3c-1-0.3-2.1-0.5-3.1-0.8c0.3-1,0.7-2.1,1-3.1c0-0.1,0.1-0.2,0.1-0.3c0.2-1.5,1-3.5,0.3-4.5
		c-0.7-1.1-2.8-1.7-4.2-1.6c-3.5,0.1-5.9,2.1-7.7,5c-0.4,0.6-1.2,1.3-1.8,1.2c-0.5-0.1-1-1-1.3-1.6c-0.3-0.5-0.3-1.1-0.5-1.7
		c-1.3-3.8-5.1-4.9-7.7-1.8c-1.5,1.8-2.4,4.4-2.9,6.8c-0.5,2.6-1.3,3-3.7,2c-1.4-0.6-3.4-1-4.7-0.5c-1.3,0.6-3.1,2.5-3,3.6
		c0.1,1.9,1.4,3.9,2.7,5.4c1.4,1.6,2.9,0.4,4.3-0.7c0.7-0.6,1.6-1.2,2.5-1.4c0.8-0.2,1.7,0.3,2.6,0.5c-0.3,0.7-0.4,1.6-0.9,2.2
		c-0.9,1.2-2.2,2.2-3.1,3.5c-1.8,2.7-1.6,5.2,0.2,6.9c2,1.9,5.2,2,7.4-0.1c1.5-1.4,2.9-3.3,3.5-5.2c1.9-6.1,2.4-5.2,7.3-3.2
		c5.3,2.2,10.8,2.5,16.2,0.2c3.3-1.4,5.1-3.7,4.7-6c-0.4-2.6-2.9-4.6-6.5-4.9C521.5,399.8,520.9,399.9,520.3,399.9z M381.7,331.1
		c5.6-0.9,11-1.7,16.4-2.5c5.8-0.9,8.8-4.2,9.7-10c1-6.2,2.1-12.5,5.9-17.8c0.3-0.4,0-1.3,0-2.3c-5.7,5-11.3,4.4-17.2,1.2
		c-2.3,6.8-6.3,12.4-11.1,17.4C381.6,321.1,380.9,325.7,381.7,331.1z M455.9,619.4c-0.6,0.4-1,0.6-1.4,0.8
		c-10.6,8.9-16.8,20.3-18.7,33.9c-0.4,2.6,4.6,7.6,7.5,7.7c0.1,0,0.2-0.3,0.4-0.4c-0.6-2.5-1.1-5-0.5-7.3c1.7-6.7,3.6-13.3,5.9-19.8
		C450.9,629.3,453.5,624.6,455.9,619.4z M171.3,646.6c2.3,3.1,4.5,6,6.5,8.9c1.6,2.4,2.3,6.1,4.4,7.2c2.4,1.1,5.9-0.1,8.9-0.4
		c0.2,0,0.4,0,0.6,0c2.4-0.4,4.2-2.3,3.5-4.7c-1.5-5.6-2.9-11.3-5-16.7c-2.2-5.6-5.6-10.7-10.5-15.6c0.5,1.2,0.7,1.6,0.8,2.1
		c2.5,7.5,5.2,15.1,7.5,22.7c0.8,2.7,0.8,5.6,1,8.4c0,0.7-0.5,1.9-1.1,2c-0.6,0.2-1.6-0.5-2.1-1c-0.7-0.7-1.1-1.6-1.6-2.4
		C181,652.3,176.9,648.7,171.3,646.6z M239.8,289.8c-0.4,0-0.8,0-1.1-0.1c0,0.9,0.1,1.7,0,2.6c-0.7,5.4-3.1,9.8-7.9,12.6
		c-2.6,1.5-4.3,1.1-6-1.3c-2-2.8-3.1-6-2.4-9.4c0.6-2.5-0.3-4-2.5-5.3c-0.2,4.4-2.5,7.2-6,9.3c5.4,8.2,12.9,12.5,21.9,15.4
		C238.7,305.8,242.3,298.3,239.8,289.8z M468.1,339.3c-2.6-4-5.1-8-8.1-12.7c-2.7,1.1-6,2.1-9,3.8c-2.3,1.3-3.8,3.7-3.3,6.6
		c0.4,3,2.5,4.8,5.2,5.7C458.4,344.5,463.3,343.5,468.1,339.3z M468.8,655.7c-0.1-0.2-0.1-0.3-0.2-0.5c-2.9,1.2-5.9,2.4-8.7,3.7
		c-1.4,0.7-2.5,1.9-3.9,2.6c-0.8,0.4-1.8,0.4-2.7,0.5c-0.1-0.9-0.5-1.8-0.3-2.6c0.5-1.7,1-3.4,1.9-4.9c2.9-4.8,6-9.4,9-14
		c-9.6,4.2-15.5,11.9-19.5,21.9c5.8,0.6,11.3,1.2,16.8,1.7c0.5,0,1.3-0.4,1.6-0.9C465,660.8,466.9,658.2,468.8,655.7z M150.3,346.8
		c-1.3,0.6-1.6,1.6-1,3.3c2.2,7.2-1.9,12.6-9.4,12.9c-0.4,0-0.7,0.2-1.4,0.3c1.3,0.9,2.2,1.6,3.2,2.2c4.6,3.1,6.4,2.4,7.9-3.1
		c0.7-2.4,1.7-2.8,4.1-1.9c1.7,0.7,3.6,1.5,5.2,1.3c1.4-0.2,2.8-1.8,3.7-3.1c0.2-0.3-1-2-1.8-2.8C157.5,353,154,350.1,150.3,346.8z
		 M150.4,370.1c7.6,3.4,15.5,4.2,23.9,3.6c-1.4-4.9-3.2-9.3-7.4-12.8c-3,5.8-7.8,6.6-13.3,4.9C152.5,367.3,151.5,368.6,150.4,370.1z
		 M486.9,351.4c-1.5,0-2.9,0.3-4-0.1c-2.9-1-4.3,0.6-5.6,2.6c-0.4,0.6-0.8,1.1-1.2,1.7c-2,3.1-0.9,5.4,2.9,5.4c1.7,0,3.4-0.6,5-1.3
		c3.2-1.4,3.5-1.4,4.6,1.8c0.3,0.8,0.6,1.7,1.2,2.3c0.5,0.5,1.7,1,2.1,0.8c3.3-2,6.5-4.2,9.7-6.3
		C494.2,360.7,489.1,359.4,486.9,351.4z M409.2,212.3c3.9,0.5,5.4-2.2,6.9-4.4c2.9-4.4,3.9-9.3,2.7-14.6
		c-8.4,2.1-15.1,11.9-12.9,18.6c2.2-3.2,3.6-7.1,7.1-9.2c0.3,0.2,0.5,0.3,0.8,0.5C412.4,206,410.9,208.9,409.2,212.3z M240.9,207
		c-3.3-8.2-12-12.9-19.1-11c1.7,8.3,10.6,15.3,17,13.4c-2.8-2.3-5.7-4.6-8.5-6.9c0.3-0.4,0.5-0.7,0.8-1.1
		C234.2,203.2,237.4,205,240.9,207z M113.4,246.2c-2.1,7.4,2.2,16,9.4,19.1c-1.6-3.3-3.2-6.5-4.8-9.7c0.4-0.2,0.8-0.5,1.3-0.7
		c2,2.7,3.9,5.3,6.1,8.3C126.2,255.3,121.2,248.4,113.4,246.2z M524.8,259.5c-7-1.9-16.2,2.8-19,9.6c3-1.5,5.9-3,8.9-4.5
		c0.2,0.4,0.4,0.7,0.6,1.1c-2.7,2.2-5.5,4.4-8.4,6.7C515.8,272.1,522.5,267.2,524.8,259.5z M300.8,307.7c4.1-3.7,7.2-7.6,8.8-12
		c-3.5-1.7-6.6-3.3-10.3-5.1c-0.6,1-2.1,2.4-2.1,3.8C297,299,298.7,303.3,300.8,307.7z M246.9,204.1c4.5-5.5,2.9-15.1-3.3-19.9
		c-5,5.9-5,13.9,0.1,18.7c0.1-2.5,0.3-4.9,0.4-7.4c0.4,0,0.8-0.1,1.1-0.1C245.8,198.3,246.3,201.2,246.9,204.1z M422.5,321.5
		c6.2-3.3,10.9-6.8,14.4-11.8c-1.2-1.5-2.2-2.8-3-3.7c-3.4,1-6.5,1.9-10.2,3C423.3,312.6,422.9,316.6,422.5,321.5z M118,429
		c-0.5-0.2-1-0.4-1.4-0.6c0.9-3.4,1.9-6.8,2.9-10.3c-6.3,3.8-8.8,13.1-5.4,19.9c5.4-2.8,8.7-7.1,9.6-13c0.2-1.1-1-2.5-1.8-4.2
		C120.3,424.1,119.2,426.6,118,429z M120.2,268.9c-5.6-5.4-14.2-5.6-19.6-0.5c5,6.2,12.8,7.7,20,3.9c-3.3-0.8-6.6-1.5-9.9-2.3
		c0.1-0.4,0.1-0.8,0.2-1.1C114.1,268.9,117.2,268.9,120.2,268.9z M378.3,230.8c0.4,0.2,0.8,0.5,1.1,0.7c-1.4,3-2.9,6.1-4.5,9.4
		c7.4-3.4,11.3-11.8,8.7-18.4c-7,1.5-12.1,8.8-10.7,15.4C374.7,235.6,376.5,233.2,378.3,230.8z M511.2,433.8
		c3.2-7,0.2-16.7-5.8-18.8c1,3.2,2.1,6.4,3.1,9.6c-0.4,0.2-0.8,0.4-1.2,0.5c-1.3-2.3-2.6-4.6-4-7
		C500.2,422.6,504.3,430.7,511.2,433.8z M219.6,247.6c0.4-0.3,0.8-0.7,1.2-1c2.1,2.3,4.1,4.6,6.3,7c0.7-6.6-5.2-13.2-12.2-14
		c-1.4,7.5,3.3,15.3,10.1,16.4C223.1,253.2,221.4,250.4,219.6,247.6z M508.2,279.3c4.8,4.9,15.5,4.1,20.9-1.7
		c-2.8-1.3-5.3-3.3-8-3.5c-3.2-0.3-6.5,0.8-9.7,1.3c0,0.2,0,0.4,0.1,0.6c2,0.5,4,0.9,5.9,1.4c0,0.4,0,0.7-0.1,1.1
		C514.5,278.8,511.6,279.1,508.2,279.3z M368.7,240.1c0.9-7.8-3.1-14.3-9.5-16.1c-2.5,6.2,0.5,14.3,6.5,17.4c-1-3.1-1.9-6.1-2.9-9.1
		c0.4-0.2,0.8-0.3,1.2-0.5C365.5,234.4,367,237.1,368.7,240.1z M500.3,265.3c0.9-2.3,1.8-4.3,2.6-6.3c0.3,0.1,0.6,0.2,0.9,0.3
		c-0.2,1.9-0.4,3.8-0.6,6c5.5-5.7,6.9-11.6,4.3-17C501.5,251.2,497.7,259.9,500.3,265.3z M260.7,288.2c-1.4,7.1,3.8,14.6,9.7,15.3
		c2.5-6-0.6-13.6-5.8-14.3c0.8,2.2,1.6,4.5,2.4,6.7c-0.4,0.2-0.7,0.3-1.1,0.5C264.3,293.7,262.6,291.1,260.7,288.2z M107.8,418
		c-5.2-2.1-11.9,2.5-12,8c5.4,1.8,15-0.7,16.1-6.4c-2.9,1-5.7,1.9-8.5,2.8c-0.2-0.3-0.3-0.7-0.5-1C104.5,420.3,106,419.2,107.8,418z
		 M431.4,653.6c-0.5-8.5-1.1-17-1.6-25.7c-2.5,5.5-3.4,11.2-3.9,17C425.4,649.7,427.5,652.2,431.4,653.6z M148.9,422.7
		c-2,7.7,0.7,14.6,6,16.6c3.4-5.5,2.1-13.9-2.4-15.4c0.2,2.3,0.4,4.7,0.6,7c-0.4,0.1-0.7,0.1-1.1,0.2
		C151,428.5,150,425.9,148.9,422.7z M486.3,438c0.8-5.2-1.8-10.7-6.1-13.1c-2-1.1-3.4-0.5-3.4,1.5
		C476.9,431.4,480.1,436.9,486.3,438z M513.6,416.9c2.7,6.2,10.5,9.4,16,6.8c-2.3-6.6-6-9.2-10-6.6c1.1,0.7,2.3,1.4,3.4,2.2
		c-0.3,0.4-0.6,0.8-0.9,1.3C519.4,419.4,516.7,418.2,513.6,416.9z M399.8,188.6c-2.2,2.9-3.4,5.9-3.2,9.3c0,0.8,0.5,1.8,1.1,2.4
		c1.4,1.3,3.1,2.3,4.6,3.4C405.1,198.9,404.2,193,399.8,188.6z M137.1,434.7c0.4-0.2,0.9-0.3,1.3-0.5c5.3-2.6,6.2-7.6,6.8-12.7
		c0-0.3-1.4-1.2-1.9-1C138.6,422,135.1,430,137.1,434.7z M472.9,425.4c-5.3,0.2-8.5,8-6,14.3C472,437.5,474.3,432.1,472.9,425.4z
		 M470,369.9c6-0.7,11.5-0.3,16.7-2.9c-0.8-1.2-1.4-2-2-3c-4.4,2.2-8.4,1.5-12.3-1.4C471.6,365.1,470.9,367.2,470,369.9z M381,298.8
		c-3.5-1.5-6.6-2.8-9.9-4.3c-0.6,4,0.1,7.8,2.4,12.5C376.2,303.9,378.7,301.2,381,298.8z M184.9,352.7c0.3,0,0.7,0,1,0.1
		c-0.3-4.1-0.6-8.3-0.9-12.2c-3.5,1.7-6.5,3.1-9.3,4.5C178.6,347.4,181.8,350.1,184.9,352.7z M338.2,308.7c4.7-2.5,7.1-6.9,6.4-11.1
		C338,298.9,336,302.3,338.2,308.7z M234.7,291.7c-2.8,0.7-5.5,1.4-8.5,2.1c-0.8,2.8,0.1,5.5,2,7.9
		C232.1,299.6,233.8,296.9,234.7,291.7z M199.8,656.3c1.9-1.7,3.7-2.6,4.5-4.1c1.2-2.3-0.9-12.2-2.6-14.4
		C201,643.7,200.4,649.6,199.8,656.3z M167.1,658.9c5.3,6.3,5.7,6.4,10.5,4C173.7,661.5,170.4,660.2,167.1,658.9z"/>
	<path d="M233.8,693.2c-2.9-0.5-5.7-0.8-8.6-1.4c-1.9-0.4-2.7-1.8-2-3.8c1.3-3.9,6.5-7.7,10.8-7.8c4.4-0.1,8.3,2.6,10,6.7
		c1.4,3.3,0.6,4.6-2.9,5.3c-1.2,0.2-2.5,0.5-3.7,0.6c-1.2,0.1-2.3,0-3.5,0C233.8,693,233.8,693.1,233.8,693.2z M241.1,689
		c-1.6-3.8-4-5.6-7.1-5.5c-3.1,0-6.1,2.1-7.4,5.5C231.5,689,236.1,689,241.1,689z"/>
	<path d="M410.5,691.2c-2.8-0.4-5.6-0.7-8.3-1.3c-1.6-0.4-2.3-1.5-1.8-3.3c1-3.1,5.1-6.3,8.6-6.6c3.7-0.3,7.8,1.8,9.3,4.8
		c1.7,3.3,0.7,5.2-2.9,5.7c-1.6,0.2-3.3,0.3-4.9,0.4C410.6,691,410.5,691.1,410.5,691.2z M404.1,687.2c4,0,7.6,0,11.6,0
		c-1.2-2.9-3.3-3.8-5.7-3.8C407.4,683.3,405.5,684.4,404.1,687.2z"/>
	<path d="M171.2,683c-0.7,0-1.4,0.2-2,0c-1.5-0.6-4.2-1.5-4.2-2.2c0-1.7,1-3.7,2.3-4.9c3.5-3.1,8.5-1.9,10.5,2.1
		c1.3,2.6,0.6,3.9-2.2,4.6c-1.4,0.3-2.9,0.4-4.3,0.6C171.2,683.1,171.2,683,171.2,683z M168.6,679c0.1,0.3,0.1,0.6,0.2,0.9
		c1.8-0.2,3.7-0.3,5.5-0.5C172.2,677,170.4,677.1,168.6,679z"/>
	<path d="M337.6,692.9c-0.3,0-0.9,0.1-1.4-0.1c-1.4-0.8-2.7-1.7-4.1-2.6c1.1-1.4,2.1-2.8,3.3-4c0.4-0.4,1.3-0.4,1.9-0.5
		c3.3-0.3,5.7,1.2,5.9,3.8C343.4,691.8,341.6,692.9,337.6,692.9z"/>
	<path d="M253,693.6c-1.9-0.3-4.4,0.2-4.7-2.9c-0.2-1.9,2.4-3.9,4.7-3.8c2.1,0,4.4,2.1,4.2,4C257.1,693.4,255.1,693.4,253,693.6z"/>
	<path d="M283.6,515.8c-0.4,0.7-0.6,1.5-1.1,2.2c-8,12.5-11.3,26.5-12.9,41.1c-1,9.1-2.5,18.1-4,27.1c-0.4,2.2-1.2,4.4-2.4,6.2
		c-1,1.5-3,3.5-4.4,3.4c-1.4-0.1-3.2-2.3-3.9-4c-1.7-4.3-1.1-8.7,0.6-13.1c1.1,5-0.6,10.6,3.6,15.7c1.3-2.3,2.8-4.1,3.2-6.1
		c1.4-7.1,2.7-14.3,3.6-21.5c1.3-10.3,2-20.7,5.3-30.7c2.2-6.7,5.4-12.9,9.8-18.5c0.6-0.8,1.4-1.5,2-2.2
		C283.2,515.6,283.4,515.7,283.6,515.8z"/>
	<path d="M392.4,616c-4-4-5.2-8.5-5.8-13.1c-0.6-4.4-0.8-8.9-1.1-13.4c-0.7-8.8-2.9-16.7-12.2-20.6c0.1-0.3,0.2-0.5,0.3-0.8
		c1.4,0.2,2.9,0.2,4.2,0.7c3.8,1.6,6.5,4.6,7.6,8.4c1.4,4.9,2.5,10,2.9,15.1c0.5,7.5,1,15,4.2,21.9C392.5,614.7,392.4,615,392.4,616
		z"/>
	<path d="M357.2,468.9c11,7.8,23.3,39.1,19.8,49.8c-2.4-8.6-4-17.4-7.2-25.6C366.6,484.9,361.7,477.3,357.2,468.9z"/>
	<path d="M251.5,564.9c0,0.4,0.1,0.8-0.1,1.1c-4,8.8-3.9,18.3-4.8,27.7c-0.6,5.9-2,11.8-3.4,17.7c-0.5,2-1.8,3.8-2.8,5.7
		c-0.3-0.1-0.6-0.2-0.9-0.3c0-0.7-0.2-1.5,0-2.1c4.2-10.1,4.3-20.8,5.3-31.5c0.5-5.1,2.2-10,3.6-14.9c0.4-1.4,1.6-2.5,2.4-3.7
		C251.2,564.7,251.4,564.8,251.5,564.9z"/>
	<path d="M296.7,469.2c-0.1,5.4-3,9.2-7.3,11.4c-3.8,1.9-8,3.2-12.1,3.8c-6.6,1-13.1,1.9-19.2,4.5c-0.3,0.1-0.7,0.1-1.4-0.5
		c1.3-0.9,2.5-2.2,3.9-2.6c5.7-1.5,11.4-3.1,17.2-4c8-1.2,14.4-4.4,18.3-11.8C296.2,469.7,296.5,469.4,296.7,469.2z"/>
	<path d="M337.7,493.5c7.1,0.3,14.5,0.7,20,6.1c5.9,5.8,7.9,13.2,7.7,21.3c-0.3,0.1-0.6,0.2-0.8,0.3c-0.3-0.7-0.7-1.4-0.9-2.2
		c-0.5-2-0.9-4-1.4-6c-2.5-9.4-8-15.4-18-16.8c-2.3-0.3-4.6-1.1-6.9-1.7C337.5,494.2,337.6,493.9,337.7,493.5z"/>
	<path d="M351.7,554.4c9.1-9.9,30.8-9.8,37.7,3.1C377.5,547.6,364.9,548,351.7,554.4z"/>
	<path d="M281.4,587.5c-0.9,11.8-1.8,23.5-2.7,35.3c-0.4,0-0.9-0.1-1.3-0.1c-0.1-11.8-1.5-23.8,3-35.3
		C280.7,587.5,281,587.5,281.4,587.5z"/>
	<path d="M309.2,535.7c-11.7,6.3-15.6,17.2-17.1,29.4C287.8,554.1,298.5,535.6,309.2,535.7z"/>
	<path d="M341.4,488.2c-10.3-3-19.9-2-28.8,5.1C315.5,484.2,333.8,481.1,341.4,488.2z"/>
	<path d="M350.6,626c-9.5-3.2-17.9-1.8-25.7,5c1-4.5,5.9-8,11.6-9C342.9,620.9,348.2,622.2,350.6,626z"/>
	<path d="M279.1,443.5c0,8.4-11.3,17-18.7,14.7C268.3,455.7,274.4,451.1,279.1,443.5z"/>
	<path d="M291.1,430.8c-0.6-4.3-0.8-8.2-1.8-12c-0.9-3.8-2.6-7.4-4-11.2C291.2,409.6,294.8,424.1,291.1,430.8z"/>
	<path d="M335.6,385.7c5.1,4.3,11.2,6,18.1,6.5C348.4,396.1,338,392.2,335.6,385.7z"/>
	<path d="M298,463c-1.7-5.1,4.4-15,9-15.2C304.1,452.8,301,458,298,463z"/>
	<path d="M295.8,512.5c-2.7,5.2-5.4,10.4-8.3,16C286.2,523.6,290.8,514.6,295.8,512.5z"/>
	<path d="M357.2,651.4c-5.9,0.4-10.6,3.1-15.1,6.8c0.1-2.8,1.7-4.7,5.2-6.5C350.5,650.1,353.7,649.1,357.2,651.4z"/>
	<path d="M212.4,407.2c-4-3.9-8.4-6.5-14.1-7c3-1.8,5.8-1.6,8.5-0.1C209.6,401.7,212,403.6,212.4,407.2z"/>
	<path d="M303.4,366.9c-2.6,4.8-10.6,8.6-15.2,7.1C293.4,371.6,298.1,369.4,303.4,366.9z"/>
	<path d="M347.7,615.4c-4.7,0-9.1,0-13.9,0C336.5,612.1,344.3,612.3,347.7,615.4z"/>
	<path d="M283.1,492.1c-4.5,0.8-9,1.5-13.6,2.3c1.4-3,7.9-4.3,13.3-3.4C282.9,491.4,283,491.8,283.1,492.1z"/>
	<path d="M346,482.7c4,0.1,7,2.2,9.7,4.8c-0.2,0.4-0.4,0.7-0.5,1.1c-3.2-1.6-6.5-3.2-9.7-4.7C345.7,483.5,345.8,483.1,346,482.7z"/>
	<path d="M261.5,335.8c-1.2,2.1-2.4,4.2-3.7,6.4c-0.5-0.9-1-1.6-1.9-3.1c1.2-1.1,2.9-2.6,4.6-4.1
		C260.9,335.3,261.2,335.5,261.5,335.8z"/>
	<path d="M169.3,251.4c1.2-1.5,2.6-3.6,4.2-5.6c1.4-1.6,2.9-1.5,4.5-0.1c7.3,6.5,7.6,20,0.6,26.9c-1.7,1.7-2.2,1.7-4.2,0.6
		c-4.6,1.6-8.4,3-12.3,4.3c-2.9,0.9-6.2,4.9-6.6,9.1c3.2-0.6,6.3-0.7,9.1-1.7c2.7-1,5.1-3,7.7-4.5c0.3,0.3,0.6,0.6,0.9,1
		c-1.2,1.5-2.1,3.4-3.5,4.5c-4.4,3.6-9.5,4.5-15.1,3.4c-2.7-0.6-3.5-2.3-2.6-4.5c1-2.6,2.4-5,3.7-7.4c-2.5-1.4-5.4-2.6-8-4.5
		c-4.6-3.4-4.4-6.2,0.8-8.9c2.3-1.2,4.9-1.9,7-2.7c-1.1-3.2-2.7-6.4-3.4-9.9c-1.1-5.1,0.8-7,5.8-5.5
		C161.8,247.1,165.5,249.5,169.3,251.4z M148.5,268.6c4.9,5.7,13.2,7.3,19.9,3.6c-3.4-0.8-6.6-1.5-9.8-2.2c0.1-0.4,0.1-0.7,0.2-1.1
		c3.3,0,6.6,0,10.3,0C162.5,263.7,154,263.7,148.5,268.6z M175.8,248.8c-5.1,5.2-5.9,13.9-1.8,18.9c0.4-3.2,0.7-6.3,1-9.5
		c0.4,0,0.8,0,1.2,0c0.4,3.4,0.7,6.7,1.1,10.3C182.1,263.9,180.9,253.4,175.8,248.8z M168.4,264.3c-1.1-4,0.4-7.9-3-10.7
		c-2.9-2.4-5.9-4.3-10.8-4.4c1.4,3.3,2.4,6.2,3.6,8.9C160.1,262.3,164.6,262.1,168.4,264.3z"/>
	<path d="M458.4,267.3c3.3,1.4,7.1,2.6,10.5,4.5c3,1.7,2.9,3.4,0.7,5.9c-6.4,7.2-17.2,9-25.6,4.2c-3.3-1.9-3.7-2.9-2.7-7
		c-1.2,0.3-2.6,0.2-3.3,0.8c-1.7,1.5-2.9,0.9-4.3-0.4c-7.1-6.7-7.3-20.4-0.3-27.4c2.5-2.5,4.5-2.5,6.5,0.4c1.8,2.7,3.1,5.7,4.4,8
		c4-1.6,8-3.6,12.2-4.8c3.8-1.1,5.5,0.4,4.9,4.4C460.8,259.9,459.4,263.7,458.4,267.3z M467,275.1c-6.2-5.2-15.8-4.9-20.9,0.7
		c3.6,0,7,0,10.4,0c0,0.3,0.1,0.6,0.1,0.9c-3.3,0.7-6.6,1.5-10,2.2C452.9,283,461.5,281.4,467,275.1z M438.1,270.4
		c4.3-8.1,3.7-16.1-1.5-20.3c-5.8,4.4-6.6,16.9-1.7,20.9c0.4-3.4,0.7-6.9,1.1-10.4c0.5,0,0.9,0,1.4,0
		C437.6,263.7,437.8,266.9,438.1,270.4z M446,270.6c7.9-2.5,12.9-9.4,11.4-15.4c-8.1,0.6-14.1,6.5-15,14.7c2.3-2.1,4.5-4.3,6.8-6.4
		c0.3,0.3,0.5,0.5,0.8,0.8C448.8,266.3,447.4,268.4,446,270.6z"/>
	<path d="M519.1,318.5c5.2-2.8,10.7-3.8,16.5-2.1c4,1.1,4.8,2.6,2.7,6.1c-1.8,3-4.3,5.7-6.4,8.4c2,1.8,4.6,3.7,6.7,6.1
		c2.3,2.6,1.8,4.3-1.2,6.1c-7.9,4.6-18.5,3.2-24.3-3.5c-0.9-1.1-1.2-2.7-1.8-4c1.5-0.5,3-1.4,4.5-1.3c2.4,0.2,4.8,1.1,7.2,1.8
		c0,0.4-0.1,0.7-0.1,1.1c-1.2,0.1-2.5,0.2-3.7,0.1c-1.2,0-2.5-0.3-3.8-0.4c5.1,6.1,13.7,7.3,20.7,3c-2.6-4.5-7.3-6.7-12.3-6.2
		c-3.2,0.3-6.5-0.4-9.8-0.5c-1.1,0-2.4,0.5-3.3,1.1c-3.4,2.2-4.7,2-6.7-1.6c-4.4-7.9-1.2-19.6,6.6-24.2c2.6-1.5,4.1-1.3,5.4,1.5
		C517.3,312.5,518,315.4,519.1,318.5z M535.4,320.3c-7.1-2.9-16.7,0.3-17.9,5.7c2.6-0.8,5.3-1.5,8-2.3c0.2,0.4,0.3,0.8,0.5,1.2
		c-2.9,1.6-5.8,3.2-8.8,4.8C523.9,332,532.2,327.7,535.4,320.3z M512.6,311.5c-6.4,3.5-9.5,13.4-5.8,18.5c1-3.2,2.1-6.4,3.2-9.6
		c0.4,0.1,0.9,0.2,1.3,0.3c-0.4,3.1-0.8,6.2-1.2,9.5C515.5,324.9,516.5,316.5,512.6,311.5z"/>
	<path d="M332.3,212.8c1.3-0.9,2.7-2,4.4-2.8c2.4-1.2,4.6-0.7,6.2,1.5c3.2,4.4,1.5,12.9-3,15.7c-0.5,0.3-1,0.4-2.3,0.8
		c0.6-1.5,1.1-2.3,1.3-3.3c0.7-2.6,1.7-5.2,2-7.8c0.2-1.2-0.9-2.6-1.4-3.9c-1.3,0.7-2.8,1.1-3.9,2.1c-1.1,1-1.7,2.6-2.5,3.9
		c-0.5,0.8-0.9,1.6-1.7,3.2c-0.8-1.8-1.2-2.8-1.6-3.8c-1-2.5-1.7-5.2-3.1-7.5c-0.9-1.3-3-2.6-4.4-2.4c-1.1,0.1-2.7,2.5-2.7,3.9
		c-0.1,3.4,0.5,6.9,1,10.3c0.1,1,0.7,1.9,1,2.9c-0.2,0.2-0.4,0.4-0.7,0.6c-0.9-0.8-2.1-1.5-2.7-2.5c-3.1-4.9-3.4-10.1-0.9-15.3
		c2-4.2,6.2-5.1,9.7-2.1C328.9,208.2,330.4,210.6,332.3,212.8z"/>
	<path d="M281.6,243.3c-5-3.6-5-13.6-0.5-16.3c1-0.6,2.7-0.5,3.8-0.1c3.7,1.3,6,4.2,7.5,7.7c0.5,1.3,0.9,2.6,1.3,3.8
		c2.1-0.8,4.1-1.8,6.3-2.2c3.1-0.6,5.3,1,6,4.1c1.1,4.6-1.5,9.5-5.9,11.1c-0.9,0.3-2,0.3-2.9,0.5c-0.1-0.2-0.2-0.5-0.3-0.7
		c0.7-0.7,1.6-1.2,2.2-2.1c1.3-2.1,2.9-4.1,3.6-6.4c0.7-2.5-1-3.8-3.4-2.6c-1.7,0.8-3.1,2.3-4.6,3.5c-1,0.8-2,1.6-2.9,2.5
		c-0.4-1.3-1-2.6-1.1-3.9c-0.3-4.2-1.4-8.1-4.9-10.8c-2.4-1.9-3.6-1.6-4.1,1.5c-0.4,2.6,0,5.2,0,7.8
		C281.6,241.3,281.6,242,281.6,243.3z"/>
	<path d="M550.5,356.7c-0.8-4.3-4.8-5.4-7.3-7.8c0.1-0.3,0.2-0.6,0.3-0.9c1.4,0.2,2.8,0.3,4.2,0.7c1,0.3,1.9,1,2.7,1.7
		c2.7,2.3,4.4,6.1,3.3,7.8c-1.8,2.8-4.7,2.7-7.6,2.5c-0.8,0-1.5-0.1-2.5-0.1c0.1,1.9,0.4,3.7,0.2,5.5c-0.5,5.1-2.7,6.3-7.2,3.9
		c-3.8-2-6.2-5-6.3-9.4c0-1,0.4-1.9,1-3c2.2,3.9,2.9,8.9,8.6,9.9c1.2-3.6,0.1-6.5-1.7-9.4c-0.5-0.7-0.5-1.7-0.7-2.6
		c0.9,0.1,1.9,0,2.7,0.3C543.5,357.1,546.8,358.2,550.5,356.7z"/>
	<path d="M120.4,337.9c-1.3,0.5-2.5,1.1-3.8,1.4c-5,0.9-11.6-2.3-13.8-6.9c-0.4-0.9-0.3-2.6,0.3-3.4c3.8-5.2,15.4-5.5,19.5-0.6
		c0.5,0.6,0.8,1.4,1,2.7c-5.9-2.5-11.6-4.6-17.6-0.3c3.5,5.1,9,5.6,14.4,6.1C120.3,337.3,120.4,337.6,120.4,337.9z"/>
	<path d="M136.7,306.7c-2.7,0-4.5-0.3-6.3,0.1c-2.5,0.5-5.1,1.2-7.3,2.4c-2.3,1.3-2.2,2.6,0.1,4.2c3.4,2.4,7.1,2.9,11.1,1.8
		c1-0.3,2-0.5,3-0.7c0.2,0.3,0.4,0.5,0.5,0.8c-1.1,0.9-2,2-3.2,2.7c-4.8,2.5-13,0.5-16-4.1c-0.7-1.1-0.9-2.9-0.5-4.1
		c1.9-5.4,11.8-8.4,16.6-5.2C135.3,304.9,135.6,305.5,136.7,306.7z"/>
	<path d="M109.6,358.5c-0.6,1.3-0.9,2.8-1.7,4c-3,4.3-10.2,6.6-15.2,4.8c-0.9-0.3-2-1.5-2.1-2.4c-0.8-5.7,5.9-13,11.5-12.8
		c0.6,0,1.2,0.3,2.1,0.9c-4.5,2.6-9.1,4.9-10.3,10.9c6.4,1.7,10.7-1.7,14.7-6.1C109,358,109.3,358.3,109.6,358.5z"/>
</g>
</svg>
